<?xml version="1.0" encoding="UTF-8"?>
<!--
    Icon displayed in the toolbar
-->
<svg width="27px" height="18px" viewBox="0 0 27 18" version="1.1" xmlns="http://www.w3.org/2000/svg" xmlns:xlink="http://www.w3.org/1999/xlink">
    <g id="Page-1" stroke="none" stroke-width="1" fill="none" fill-rule="evenodd">
        <g id="icon">
            <rect id="icons/processbuilder/task" stroke="#788793" x="0.5" y="0.5" width="25.3076923" height="17" rx="2"></rect>
            <g id="database-solid" transform="translate(7.000000, 2.000000)" fill="#788793" fill-rule="nonzero">
                <path d="M12,2.00000391 L12,3.24999609 C12,4.35156641 9.31250893,5.25 6,5.25 C2.68749107,5.25 0,4.35156641 0,3.24999609 L0,2.00000391 C0,0.898433594 2.68749107,0 6,0 C9.31250893,0 12,0.898433594 12,2.00000391 Z M12,4.8125 L12,7.62499609 C12,8.72656641 9.31250893,9.625 6,9.625 C2.68749107,9.625 0,8.72656641 0,7.62499609 L0,4.8125 C1.2890625,5.71875391 3.64842857,6.14064062 6,6.14064062 C8.35157143,6.14064062 10.7109107,5.71875391 12,4.8125 Z M12,9.1875 L12,11.9999961 C12,13.1015664 9.31250893,14 6,14 C2.68749107,14 0,13.1015664 0,11.9999961 L0,9.1875 C1.2890625,10.0937539 3.64842857,10.5156406 6,10.5156406 C8.35157143,10.5156406 10.7109107,10.0937539 12,9.1875 Z" id="Shape"></path>
            </g>
        </g>
    </g>
</svg>
