<svg width="13" height="14" viewBox="0 0 13 14" fill="none" xmlns="http://www.w3.org/2000/svg">
<path d="M8.94192 7.52825C10.1279 5.18515 11.314 2.8431 12.5 0.5C11.5501 4.68065 10.6013 8.85918 9.65138 13.0388C8.1025 11.312 6.55361 9.58428 5.00474 7.85756C3.50352 9.73837 2.00122 11.6192 0.5 13.5C1.83983 9.64021 3.17858 5.78043 4.51841 1.92064C5.99255 3.78984 7.46778 5.65905 8.94192 7.52825Z" fill="#212529"/>
<path d="M9.10557 9.30195C7.71117 7.53391 6.31785 5.76696 4.92345 4C4.33231 5.55161 3.74116 7.10429 3.15002 8.6559C3.72717 7.76327 4.30431 6.87171 4.88145 5.97908L9.14972 11C9.48351 9.65944 9.81623 8.3178 10.15 6.97723C9.80223 7.7525 9.45336 8.52669 9.10557 9.30195Z" fill="#F8F9FA"/>
</svg>
