<?xml version="1.0" encoding="UTF-8"?>
<svg width="22px" height="22px" viewBox="0 0 22 22" version="1.1" xmlns="http://www.w3.org/2000/svg">
    <title>intermediate-mail-event 2</title>
    <desc>Created with Sketch.</desc>
    <g id="Page-1" stroke="none" stroke-width="1" fill="none" fill-rule="evenodd">
        <g id="intermediate-mail-event-2">
            <g id="Oval-2">
                <g id="path-1-link" fill="#FFFFFF">
                    <circle id="path-1" cx="11" cy="11" r="11"/>
                </g>
                <circle id="Oval" stroke="#788793" cx="11" cy="11" r="10.5"/>
            </g>
            <circle id="Oval-2" stroke="#788793" cx="11" cy="11" r="8.5"/>
            <path d="M15.9298389,15.4252874 L6.07027003,15.4252874 C5.800481,15.4252874 5.56654034,15.3359221 5.36781609,15.1594652 L8.76914105,11.7471264 C8.8542183,11.8084011 8.9329104,11.8656534 9.00386623,11.9178341 C9.2584878,12.1059426 9.46492654,12.2526913 9.62350932,12.3578616 C9.78193955,12.4632723 9.99293288,12.570716 10.2564675,12.6804114 C10.5200022,12.7902598 10.7655363,12.8449763 10.9933315,12.8449763 L11,12.8449763 L11.0066685,12.8449763 C11.2344419,12.8449763 11.4799761,12.7902379 11.7435325,12.6804114 C12.0069146,12.570716 12.2179079,12.4632723 12.3764907,12.3578616 C12.5350953,12.2526913 12.741643,12.1059208 12.9961338,11.9178341 C13.0708379,11.8636422 13.1499222,11.8066522 13.2315127,11.7480446 L16.6321839,15.1594652 C16.4334379,15.3359221 16.1996498,15.4252874 15.9298389,15.4252874 Z M5.67459258,9.61452374 C6.62030849,10.2560303 7.39063512,10.7841921 7.98850575,11.2008308 L5,14.183908 L5,9.03448276 C5.1958789,9.25230177 5.42087346,9.44567768 5.67459258,9.61452374 Z M16.3318977,9.61450908 C16.5857183,9.44115617 16.8083901,9.24791527 17,9.03448276 L17,14.183908 L14.0114943,11.2019689 C14.6484477,10.7581222 15.4218866,10.2290628 16.3318977,9.61450908 Z M15.9284753,6 C16.2186554,6 16.4698369,6.10452174 16.6819544,6.31345671 C16.8938323,6.52265211 17,6.77382115 17,7.06735449 C17,7.41868296 16.8904989,7.75445037 16.672085,8.0745482 C16.4532788,8.39464603 16.1810294,8.668256 15.8551623,8.89498744 C14.7716548,9.64411055 13.954035,10.2096695 13.3988605,10.5939215 C13.0937564,10.8049616 12.8668238,10.9621132 12.7212,11.0630539 C12.6996091,11.078181 12.6658829,11.102076 12.6210672,11.1341096 C12.5728092,11.1685089 12.5117404,11.212349 12.4365537,11.2665415 C12.2914528,11.3710849 12.1709275,11.4555531 12.0749343,11.5200978 C11.9787668,11.5845124 11.8627732,11.6567834 11.7266485,11.7368676 C11.5903931,11.8169734 11.4620898,11.8769823 11.3415863,11.9169809 C11.2210175,11.9569579 11.1094031,11.9770115 11.0067648,11.9770115 L11.000098,11.9770115 L10.9934312,11.9770115 C10.8907712,11.9770115 10.7791786,11.9569579 10.6586315,11.9169809 C10.5381062,11.8769823 10.4096941,11.8168432 10.2735476,11.7368676 C10.1372921,11.6567834 10.021146,11.5846643 9.92528355,11.5200978 C9.82929035,11.4555531 9.70876506,11.3710632 9.56368591,11.2665415 C9.48834672,11.212349 9.42727796,11.1685306 9.37901992,11.1340011 C9.33422599,11.1020977 9.30047804,11.0780507 9.27901792,11.0630539 C9.09208608,10.9320979 8.86567633,10.7742953 8.60314385,10.5920767 C8.29514206,10.378085 7.93672532,10.1301063 7.52458201,9.84560138 C6.76110271,9.31869548 6.30349008,9.00178799 6.15174413,8.89498744 C5.87494122,8.70823296 5.61373775,8.45148624 5.36826444,8.12461707 C5.12279112,7.79761768 5,7.49410095 5,7.21398008 C5,6.86718754 5.09252908,6.57801651 5.27789226,6.34679254 C5.46310293,6.11567709 5.7274873,6 6.07137216,6 L15.9284753,6 Z"
                  id="Combined-Shape" stroke="#788793"/>
        </g>
    </g>
</svg>
