<svg width="32" height="32" viewBox="0 0 32 32" fill="none" xmlns="http://www.w3.org/2000/svg">
<path d="M15.973 1.55201C8.937 1.40801 2.372 7.19201 1.64 14.196C0.867 20.119 4.119 26.367 9.544 28.949C14.667 31.523 21.31 30.748 25.559 26.841C29.85 23.078 31.642 16.675 29.657 11.282C27.832 5.96601 22.728 1.91801 17.082 1.59401C16.713 1.56701 16.343 1.55201 15.973 1.55201V1.55201ZM15.809 3.11101C22.26 2.86801 28.324 8.24801 28.829 14.69C29.45 20.371 25.875 26.257 20.435 28.129C15.147 30.084 8.656 28.183 5.462 23.48C2.184 18.888 2.314 12.111 6.034 7.80301C8.415 4.93601 12.067 3.12501 15.808 3.11101H15.809ZM16.065 4.51601C10.097 4.32601 4.606 9.56601 4.499 15.534C4.236 20.927 8.233 26.22 13.573 27.247C18.521 28.33 24.049 25.788 26.256 21.186C28.539 16.692 27.518 10.71 23.623 7.42701C21.559 5.59901 18.829 4.51801 16.066 4.51501L16.065 4.51601ZM15.995 6.04801C21.256 5.90901 26.048 10.643 25.963 15.91C26.056 20.778 22.138 25.405 17.25 25.896C12.661 26.499 7.822 23.556 6.502 19.066C5.119 14.788 6.936 9.63601 10.922 7.43401C12.45 6.53401 14.22 6.04501 15.995 6.04801V6.04801ZM16 9.60001C14.488 13.808 13.528 18.192 12.016 22.4C13.403 21.021 14.613 19.476 16 18.096C17.328 19.53 18.656 20.965 19.984 22.4C18.631 18.141 17.353 13.859 16 9.60001V9.60001ZM16.029 12.248C16.772 14.586 17.473 16.937 18.217 19.275C17.488 18.487 16.759 17.7 16.029 16.912C15.412 17.453 13.812 19.521 13.914 19.072C14.702 16.823 15.223 14.491 16.029 12.248Z" fill="#788792"/>
</svg>
