<svg width="47" height="47" viewBox="0 0 47 47" fill="none" xmlns="http://www.w3.org/2000/svg">
<circle cx="23.5" cy="23.5" r="20" stroke="#788793"/>
<path d="M27.3664 24.5448C29.2443 20.8348 31.1221 17.1266 33 13.4167C31.496 20.036 29.9937 26.6521 28.4897 33.2697C26.0373 30.5358 23.5849 27.8001 21.1325 25.0662C18.7556 28.0441 16.3769 31.0221 14 34C16.1214 27.8887 18.2411 21.7774 20.3625 15.666C22.6965 18.6256 25.0323 21.5852 27.3664 24.5448Z" fill="#788793"/>
<path d="M27.6255 27.3531C25.4177 24.5537 23.2116 21.7561 21.0038 18.9584C20.0679 21.4151 19.1319 23.8735 18.1959 26.3302C19.1097 24.9169 20.0235 23.5053 20.9374 22.0919L27.6954 30.0417C28.2239 27.9191 28.7507 25.7949 29.2793 23.6723C28.7286 24.8998 28.1762 26.1256 27.6255 27.3531Z" fill="#F8F9FA"/>
<circle cx="23.5" cy="23.5" r="23" stroke="#788793"/>
</svg>
