<?xml version="1.0" encoding="UTF-8"?>
<svg width="18px" height="18px" viewBox="0 0 18 18" version="1.1" xmlns="http://www.w3.org/2000/svg" xmlns:xlink="http://www.w3.org/1999/xlink">
    <g id="Page-1" stroke="none" stroke-width="1" fill="none" fill-rule="evenodd">
        <g id="start-timer-event" transform="translate(-2.000000, -2.000000)" stroke="#FBBE02">
            <g id="clock-2" transform="translate(3.000000, 3.000000)">
                <g id="clock">
                    <circle id="Oval" cx="8" cy="8" r="8"></circle>
                    <path d="M8,8 L8,3.5" id="Line-2" stroke-linecap="square"></path>
                    <path d="M8,8 L11.5,8" id="Line-3" stroke-linecap="square"></path>
                    <g id="minutes" transform="translate(7.000000, 0.000000)" stroke-linecap="square">
                        <path d="M1,0 L1,1.5" id="Line-6"></path>
                        <path d="M1,14.5 L1,16" id="Line-6"></path>
                    </g>
                    <g id="minutes" transform="translate(8.000000, 8.000000) rotate(30.000000) translate(-8.000000, -8.000000) translate(7.000000, 0.000000)" stroke-linecap="square">
                        <path d="M1,0 L1,1.5" id="Line-6"></path>
                        <path d="M1,14.5 L1,16" id="Line-6"></path>
                    </g>
                    <g id="minutes" transform="translate(8.000000, 8.000000) rotate(60.000000) translate(-8.000000, -8.000000) translate(7.000000, 0.000000)" stroke-linecap="square">
                        <path d="M1,0 L1,1.5" id="Line-6"></path>
                        <path d="M1,14.5 L1,16" id="Line-6"></path>
                    </g>
                    <g id="minutes" transform="translate(8.000000, 8.000000) rotate(90.000000) translate(-8.000000, -8.000000) translate(7.000000, 0.000000)" stroke-linecap="square">
                        <path d="M1,0 L1,1.5" id="Line-6"></path>
                        <path d="M1,14.5 L1,16" id="Line-6"></path>
                    </g>
                    <g id="minutes" transform="translate(8.000000, 8.000000) rotate(120.000000) translate(-8.000000, -8.000000) translate(7.000000, 0.000000)" stroke-linecap="square">
                        <path d="M1,0 L1,1.5" id="Line-6"></path>
                        <path d="M1,14.5 L1,16" id="Line-6"></path>
                    </g>
                    <g id="minutes" transform="translate(8.000000, 8.000000) rotate(150.000000) translate(-8.000000, -8.000000) translate(7.000000, 0.000000)" stroke-linecap="square">
                        <path d="M1,0 L1,1.5" id="Line-6"></path>
                        <path d="M1,14.5 L1,16" id="Line-6"></path>
                    </g>
                </g>
            </g>
        </g>
    </g>
</svg>
