<svg width="22" height="22" viewBox="0 0 22 22" fill="none" xmlns="http://www.w3.org/2000/svg">
<rect x="5" y="6" width="12" height="9" fill="black"/>
<path d="M11 21.5C16.799 21.5 21.5 16.799 21.5 11C21.5 5.20101 16.799 0.5 11 0.5C5.20101 0.5 0.5 5.20101 0.5 11C0.5 16.799 5.20101 21.5 11 21.5Z" stroke="#788793"/>
<path d="M11 19.5C15.6944 19.5 19.5 15.6944 19.5 11C19.5 6.30558 15.6944 2.5 11 2.5C6.30558 2.5 2.5 6.30558 2.5 11C2.5 15.6944 6.30558 19.5 11 19.5Z" stroke="#788793"/>
<path d="M15.9298 15.4253H6.07027C5.80048 15.4253 5.56654 15.3359 5.36782 15.1595L8.76914 11.7471C8.85422 11.8084 8.93291 11.8657 9.00387 11.9178C9.25849 12.1059 9.46493 12.2527 9.62351 12.3579C9.78194 12.4633 9.99293 12.5707 10.2565 12.6804C10.52 12.7903 10.7655 12.845 10.9933 12.845H11H11.0067C11.2344 12.845 11.48 12.7902 11.7435 12.6804C12.0069 12.5707 12.2179 12.4633 12.3765 12.3579C12.5351 12.2527 12.7416 12.1059 12.9961 11.9178C13.0708 11.8636 13.1499 11.8067 13.2315 11.748L16.6322 15.1595C16.4334 15.3359 16.1997 15.4253 15.9298 15.4253ZM5.67459 9.61452C6.62031 10.256 7.39064 10.7842 7.98851 11.2008L5 14.1839V9.03448C5.19588 9.2523 5.42087 9.44568 5.67459 9.61452ZM16.3319 9.61451C16.5857 9.44116 16.8084 9.24792 17 9.03448V14.1839L14.0115 11.202C14.6484 10.7581 15.4219 10.2291 16.3319 9.61451ZM15.9285 6C16.2187 6 16.4698 6.10452 16.682 6.31346C16.8938 6.52265 17 6.77382 17 7.06735C17 7.41868 16.8905 7.75445 16.6721 8.07455C16.4533 8.39465 16.181 8.66826 15.8552 8.89499C14.7717 9.64411 13.954 10.2097 13.3989 10.5939C13.0938 10.805 12.8668 10.9621 12.7212 11.0631C12.6996 11.0782 12.6659 11.1021 12.6211 11.1341C12.5728 11.1685 12.5117 11.2123 12.4366 11.2665C12.2915 11.3711 12.1709 11.4556 12.0749 11.5201C11.9788 11.5845 11.8628 11.6568 11.7266 11.7369C11.5904 11.817 11.4621 11.877 11.3416 11.917C11.221 11.957 11.1094 11.977 11.0068 11.977H11.0001H10.9934C10.8908 11.977 10.7792 11.957 10.6586 11.917C10.5381 11.877 10.4097 11.8168 10.2735 11.7369C10.1373 11.6568 10.0211 11.5847 9.92528 11.5201C9.82929 11.4556 9.70877 11.3711 9.56369 11.2665C9.48835 11.2123 9.42728 11.1685 9.37902 11.134C9.33423 11.1021 9.30048 11.0781 9.27902 11.0631C9.09209 10.9321 8.86568 10.7743 8.60314 10.5921C8.29514 10.3781 7.93673 10.1301 7.52458 9.8456C6.7611 9.3187 6.30349 9.00179 6.15174 8.89499C5.87494 8.70823 5.61374 8.45149 5.36826 8.12462C5.12279 7.79762 5 7.4941 5 7.21398C5 6.86719 5.09253 6.57802 5.27789 6.34679C5.4631 6.11568 5.72749 6 6.07137 6H15.9285Z" stroke="#788793"/>
</svg>
