<?xml version="1.0" encoding="UTF-8"?>
<svg width="13px" height="14px" viewBox="0 0 13 14" version="1.1" xmlns="http://www.w3.org/2000/svg" xmlns:xlink="http://www.w3.org/1999/xlink">
    <g id="Page-1" stroke="none" stroke-width="1" fill="none" fill-rule="evenodd">
        <g id="hand-paper-regular" fill="#788793" fill-rule="nonzero">
            <path d="M10.1676023,3.07402339 L10.1676023,2.77860429 C10.1676023,1.58841326 9.06179337,0.685672515 7.9014308,0.989824561 C7.2020039,-0.361052632 5.33367251,-0.305107212 4.68164912,1.01021053 C3.55509942,0.721996101 2.43277973,1.58134503 2.43277973,2.78362573 L2.43277973,6.22576998 C1.88825341,6.02308382 1.25088499,6.08746199 0.738506823,6.46786355 C-0.0626042885,7.06268616 -0.238327485,8.19624951 0.341430799,9.01005068 L3.6154386,13.6061715 C3.77930422,13.8361732 4.04427706,13.9727366 4.32668226,13.9727368 L10.4096413,13.9727368 C10.8163782,13.9727368 11.169271,13.6919454 11.2606121,13.2955789 L12.084347,9.72167641 C12.178483,9.31294238 12.2260438,8.89486505 12.2261209,8.4754308 L12.2261209,4.88499025 C12.2261209,3.77645224 11.2566823,2.9202963 10.1676023,3.07402339 Z M10.9160975,8.47540351 C10.9160975,8.79554776 10.879692,9.11588304 10.8078908,9.42745809 L10.0621793,12.662768 L4.55169201,12.662768 L1.40794152,8.24998441 C1.01389474,7.69680702 1.81792593,7.08260819 2.21011696,7.63308382 L2.95045224,8.6722768 C3.19592982,9.016846 3.74272125,8.84385185 3.74272125,8.41893957 L3.74272125,2.78362573 C3.74272125,2.08376218 4.74076023,2.10654971 4.74076023,2.80248343 L4.74076023,6.98635478 C4.74076023,7.22752047 4.93624172,7.42300195 5.17740741,7.42300195 L5.36451072,7.42300195 C5.60567641,7.42300195 5.80115789,7.22752047 5.80115789,6.98635478 L5.80115789,1.82846004 C5.80115789,1.12810526 6.79919688,1.15138402 6.79919688,1.84731774 L6.79919688,6.98635478 C6.79919688,7.22752047 6.99467836,7.42300195 7.23584405,7.42300195 L7.42294737,7.42300195 C7.66411306,7.42300195 7.85959454,7.22752047 7.85959454,6.98635478 L7.85959454,2.75974659 C7.85959454,2.0591462 8.85760624,2.08267057 8.85760624,2.77860429 L8.85760624,6.98635478 C8.85760624,7.22752047 9.05308772,7.42300195 9.29425341,7.42300195 L9.48138402,7.42300195 C9.72254971,7.42300195 9.91803119,7.22752047 9.91803119,6.98635478 L9.91803119,4.90384795 C9.91803119,4.18769201 10.9160429,4.20412086 10.9160429,4.88499025 L10.9160429,8.47540351 L10.9160975,8.47540351 Z" id="Shape"></path>
        </g>
    </g>
</svg>

