<?xml version="1.0" encoding="UTF-8"?>
<svg width="14px" height="14px" viewBox="0 0 14 14" version="1.1" xmlns="http://www.w3.org/2000/svg" xmlns:xlink="http://www.w3.org/1999/xlink">
    <g id="Page-1" stroke="none" stroke-width="1" fill="none" fill-rule="evenodd">
        <g id="Group" transform="translate(1.000000, 0.000000)" stroke="#788793">
            <path d="M12.0000133,1 C10.8348528,1.4066806 10.0331878,2.48635956 9.59501846,4.23903689 C9.30446432,5.40125347 10.5796439,7.49919351 10.5000067,9.68826844 C10.4730337,10.4297039 9.97303148,11.5336144 9,13" id="Path-3"></path>
            <path d="M3.00001334,1 C1.83485275,1.4066806 1.03318779,2.48635956 0.595018462,4.23903689 C0.304464317,5.40125347 1.57964387,7.49919351 1.50000667,9.68826844 C1.4730337,10.4297039 0.973031481,11.5336144 -8.8817842e-16,13" id="Path-3"></path>
            <path d="M3.00001334,1 L12.0000133,1" id="Path-4"></path>
            <path d="M0,13 L9,13" id="Path-5"></path>
            <path d="M2,4.5 L7.18589855,4.5" id="Path-6"></path>
            <path d="M3,6.5 L8.18589855,6.5" id="Path-6"></path>
            <path d="M4,8.5 L9.18589855,8.5" id="Path-6"></path>
            <path d="M3,10.5 L8.18589855,10.5" id="Path-6"></path>
        </g>
    </g>
</svg>
