<svg width="18" height="18" viewBox="0 0 18 18" fill="none" xmlns="http://www.w3.org/2000/svg">
<path d="M9 17C13.4183 17 17 13.4183 17 9C17 4.58172 13.4183 1 9 1C4.58172 1 1 4.58172 1 9C1 13.4183 4.58172 17 9 17Z" stroke="black"/>
<path d="M7.97828 8.75471L10.0212 4.74518" stroke="black" stroke-linecap="square"/>
<path d="M8.19104 9.20551L11.3096 10.7945" stroke="black" stroke-linecap="square"/>
<path d="M9 1V2.5" stroke="black" stroke-linecap="square"/>
<path d="M9 15.5V17" stroke="black" stroke-linecap="square"/>
<path d="M13 2.07178L12.25 3.37082" stroke="black" stroke-linecap="square"/>
<path d="M5.75 14.6292L5 15.9282" stroke="black" stroke-linecap="square"/>
<path d="M15.9282 5L14.6292 5.75" stroke="black" stroke-linecap="square"/>
<path d="M3.37085 12.25L2.07181 13" stroke="black" stroke-linecap="square"/>
<path d="M17 9H15.5" stroke="black" stroke-linecap="square"/>
<path d="M2.5 9H1" stroke="black" stroke-linecap="square"/>
<path d="M15.9282 13L14.6292 12.25" stroke="black" stroke-linecap="square"/>
<path d="M3.37085 5.75L2.07181 5" stroke="black" stroke-linecap="square"/>
<path d="M13 15.9282L12.25 14.6292" stroke="black" stroke-linecap="square"/>
<path d="M5.75 3.37085L5 2.07181" stroke="black" stroke-linecap="square"/>
</svg>
