<svg width="29" height="32" viewBox="0 0 29 32" fill="none" xmlns="http://www.w3.org/2000/svg">
<g clip-path="url(#clip0_1709_283230)">
<path d="M6.5 0C3.1875 0 0.5 2.6875 0.5 6V26C0.5 29.3125 3.1875 32 6.5 32H24.5H26.5C27.6063 32 28.5 31.1063 28.5 30C28.5 28.8937 27.6063 28 26.5 28V24C27.6063 24 28.5 23.1063 28.5 22V2C28.5 0.89375 27.6063 0 26.5 0H24.5H6.5ZM6.5 24H22.5V28H6.5C5.39375 28 4.5 27.1063 4.5 26C4.5 24.8937 5.39375 24 6.5 24ZM8.5 9C8.5 8.45 8.95 8 9.5 8H21.5C22.05 8 22.5 8.45 22.5 9C22.5 9.55 22.05 10 21.5 10H9.5C8.95 10 8.5 9.55 8.5 9ZM9.5 12H21.5C22.05 12 22.5 12.45 22.5 13C22.5 13.55 22.05 14 21.5 14H9.5C8.95 14 8.5 13.55 8.5 13C8.5 12.45 8.95 12 9.5 12Z" fill="#1572C2"/>
</g>
<defs>
<clipPath id="clip0_1709_283230">
<rect width="28" height="32" fill="white" transform="translate(0.5)"/>
</clipPath>
</defs>
</svg>