<svg width="21" height="21" viewBox="0 0 21 21" fill="none" xmlns="http://www.w3.org/2000/svg">
<path fill-rule="evenodd" clip-rule="evenodd" d="M9.56519 0.913043C9.56519 0.408783 9.97397 0 10.4782 0C10.9825 0 11.3913 0.408784 11.3913 0.913044V2.30435C11.3913 2.80861 10.9825 3.21739 10.4782 3.21739C9.97397 3.21739 9.56519 2.80861 9.56519 2.30435V0.913043ZM0 11.8705C1.47826 9.58069 5.65217 5.00098 10.5217 5.00098C15.3913 5.00098 19.5362 9.58069 21 11.8705V12.4358C20.7391 12.885 20.1026 13.8145 19.7391 14.2184C19.3478 14.6532 18.6522 15.3488 18.3478 15.6097C18.8696 16.6676 19.9565 18.8618 20.1304 19.1749C20.3478 19.5662 20 20.6532 18.913 20.2184C18.0435 19.8705 15.5942 18.943 14.4783 18.5227C13.7246 18.8705 11.8783 19.5488 10.5217 19.4792C8.82609 19.3923 7.04348 19.2184 4.04348 16.8705C1.64348 14.9923 0.347826 13.1314 0 12.4358V11.8705ZM10.5218 16.4361C12.827 16.4361 14.6957 14.5674 14.6957 12.2622C14.6957 9.95698 12.827 8.08826 10.5218 8.08826C8.21664 8.08826 6.34792 9.95698 6.34792 12.2622C6.34792 14.5674 8.21664 16.4361 10.5218 16.4361ZM18.1301 3.10805C17.7771 2.74796 17.199 2.74223 16.8389 3.09524L15.8454 4.06923C15.4853 4.42224 15.4796 5.00032 15.8326 5.3604C16.1856 5.72049 16.7637 5.72622 17.1238 5.37321L18.1173 4.39922C18.4774 4.04621 18.4831 3.46813 18.1301 3.10805ZM4.27824 3.07363C3.91816 2.72062 3.34008 2.72636 2.98707 3.08644C2.63406 3.44653 2.6398 4.02461 2.99988 4.37762L3.9934 5.35161C4.35348 5.70462 4.93156 5.69888 5.28457 5.3388C5.63758 4.97871 5.63184 4.40063 5.27176 4.04762L4.27824 3.07363ZM10.5218 10.608C10.5218 11.5205 9.78205 12.2602 8.86958 12.2602C8.48431 12.2602 8.12984 12.1283 7.84885 11.9072C7.83376 12.0227 7.82597 12.1404 7.82597 12.26C7.82597 13.7488 9.03286 14.9556 10.5216 14.9556C12.0104 14.9556 13.2173 13.7488 13.2173 12.26C13.2173 10.7712 12.0104 9.56433 10.5216 9.56433C10.402 9.56433 10.2843 9.57212 10.1688 9.58721C10.3899 9.86821 10.5218 10.2227 10.5218 10.608Z" fill="#5F666D"/>
</svg>