<svg width="62" height="55" viewBox="0 0 62 55" fill="none" xmlns="http://www.w3.org/2000/svg">
<g clip-path="url(#clip0_888_263327)">
<path d="M16.5 3.5C16.5 2.66875 17.1687 2 18 2H20C20.8312 2 21.5 2.66875 21.5 3.5V11H22.5C23.3312 11 24 11.6687 24 12.5C24 13.3313 23.3312 14 22.5 14H17.5C16.6687 14 16 13.3313 16 12.5C16 11.6687 16.6687 11 17.5 11H18.5V5H18C17.1687 5 16.5 4.33125 16.5 3.5ZM20.4187 21.325C20.0125 20.8625 19.275 20.8937 18.9187 21.4L18.2187 22.3687C17.7375 23.0437 16.8 23.2 16.125 22.7188C15.45 22.2375 15.2937 21.3 15.775 20.625L16.4687 19.65C17.95 17.575 20.9875 17.425 22.6687 19.3438C24 20.8687 23.9687 23.15 22.6 24.6375L20.425 27H22.5C23.3312 27 24 27.6688 24 28.5C24 29.3312 23.3312 30 22.5 30H17C16.4062 30 15.8625 29.65 15.625 29.1C15.3875 28.55 15.4937 27.9188 15.8937 27.4813L20.3937 22.6063C20.725 22.2438 20.7312 21.6938 20.4125 21.325H20.4187ZM29 4H45C46.1062 4 47 4.89375 47 6C47 7.10625 46.1062 8 45 8H29C27.8937 8 27 7.10625 27 6C27 4.89375 27.8937 4 29 4ZM29 14H45C46.1062 14 47 14.8938 47 16C47 17.1062 46.1062 18 45 18H29C27.8937 18 27 17.1062 27 16C27 14.8938 27.8937 14 29 14ZM29 24H45C46.1062 24 47 24.8937 47 26C47 27.1063 46.1062 28 45 28H29C27.8937 28 27 27.1063 27 26C27 24.8937 27.8937 24 29 24Z" fill="#1572C2"/>
</g>
<path d="M1.40039 51V41.0059H2.5625V49.9609H6.99902V51H1.40039ZM9.67871 43.5078V51H8.54395V43.5078H9.67871ZM9.125 40.7051C9.31185 40.7051 9.47135 40.7666 9.60352 40.8896C9.74023 41.0081 9.80859 41.195 9.80859 41.4502C9.80859 41.7008 9.74023 41.8877 9.60352 42.0107C9.47135 42.1338 9.31185 42.1953 9.125 42.1953C8.92904 42.1953 8.76497 42.1338 8.63281 42.0107C8.50521 41.8877 8.44141 41.7008 8.44141 41.4502C8.44141 41.195 8.50521 41.0081 8.63281 40.8896C8.76497 40.7666 8.92904 40.7051 9.125 40.7051ZM16.9316 48.9492C16.9316 49.4277 16.8109 49.8311 16.5693 50.1592C16.3324 50.4827 15.9906 50.7266 15.5439 50.8906C15.1019 51.0547 14.5732 51.1367 13.958 51.1367C13.4339 51.1367 12.9805 51.0957 12.5977 51.0137C12.2148 50.9316 11.8799 50.8154 11.5928 50.665V49.6191C11.8981 49.7695 12.2627 49.9062 12.6865 50.0293C13.1104 50.1523 13.5433 50.2139 13.9854 50.2139C14.6325 50.2139 15.1019 50.109 15.3936 49.8994C15.6852 49.6898 15.8311 49.4049 15.8311 49.0449C15.8311 48.8398 15.7718 48.6598 15.6533 48.5049C15.5394 48.3454 15.3457 48.1927 15.0723 48.0469C14.7988 47.8965 14.4206 47.7324 13.9375 47.5547C13.459 47.3724 13.0443 47.1924 12.6934 47.0146C12.347 46.8324 12.0781 46.6113 11.8867 46.3516C11.6999 46.0918 11.6064 45.7546 11.6064 45.3398C11.6064 44.7064 11.8617 44.221 12.3721 43.8838C12.887 43.542 13.5615 43.3711 14.3955 43.3711C14.8467 43.3711 15.2682 43.4167 15.6602 43.5078C16.0566 43.5944 16.4258 43.7129 16.7676 43.8633L16.3848 44.7725C16.0749 44.6403 15.7445 44.5286 15.3936 44.4375C15.0426 44.3464 14.6849 44.3008 14.3203 44.3008C13.7962 44.3008 13.3929 44.3874 13.1104 44.5605C12.8324 44.7337 12.6934 44.9707 12.6934 45.2715C12.6934 45.5039 12.7572 45.6953 12.8848 45.8457C13.0169 45.9961 13.2266 46.1374 13.5137 46.2695C13.8008 46.4017 14.179 46.5566 14.6484 46.7344C15.1178 46.9076 15.5234 47.0876 15.8652 47.2744C16.207 47.4567 16.4691 47.68 16.6514 47.9443C16.8382 48.2041 16.9316 48.5391 16.9316 48.9492ZM21.1768 50.207C21.3636 50.207 21.555 50.1911 21.751 50.1592C21.9469 50.1273 22.1064 50.0885 22.2295 50.043V50.9248C22.0973 50.984 21.9128 51.0342 21.6758 51.0752C21.4434 51.1162 21.2155 51.1367 20.9922 51.1367C20.5957 51.1367 20.2357 51.0684 19.9121 50.9316C19.5885 50.7904 19.3288 50.5534 19.1328 50.2207C18.9414 49.888 18.8457 49.4277 18.8457 48.8398V44.3965H17.7793V43.8428L18.8525 43.3984L19.3037 41.7715H19.9873V43.5078H22.1816V44.3965H19.9873V48.8057C19.9873 49.2751 20.0944 49.626 20.3086 49.8584C20.5273 50.0908 20.8167 50.207 21.1768 50.207ZM33.1943 48.3408C33.1943 48.9333 33.0462 49.4391 32.75 49.8584C32.4583 50.2731 32.0482 50.5898 31.5195 50.8086C30.9909 51.0273 30.3688 51.1367 29.6533 51.1367C29.2751 51.1367 28.9173 51.1185 28.5801 51.082C28.2428 51.0456 27.9329 50.9932 27.6504 50.9248C27.3678 50.8564 27.1195 50.7721 26.9053 50.6719V49.5576C27.2471 49.6989 27.6641 49.8311 28.1562 49.9541C28.6484 50.0726 29.1634 50.1318 29.7012 50.1318C30.2025 50.1318 30.6263 50.0658 30.9727 49.9336C31.319 49.7969 31.5811 49.6032 31.7588 49.3525C31.9411 49.0973 32.0322 48.792 32.0322 48.4365C32.0322 48.0947 31.957 47.8099 31.8066 47.582C31.6562 47.3496 31.4056 47.14 31.0547 46.9531C30.7083 46.7617 30.2344 46.5589 29.6328 46.3447C29.209 46.1943 28.8353 46.0303 28.5117 45.8525C28.1882 45.6702 27.917 45.4652 27.6982 45.2373C27.4795 45.0094 27.3132 44.7451 27.1992 44.4443C27.0898 44.1436 27.0352 43.7995 27.0352 43.4121C27.0352 42.8789 27.1696 42.4232 27.4385 42.0449C27.7119 41.6621 28.0879 41.3704 28.5664 41.1699C29.0495 40.9648 29.6032 40.8623 30.2275 40.8623C30.7607 40.8623 31.2529 40.9124 31.7041 41.0127C32.1598 41.113 32.5768 41.2474 32.9551 41.416L32.5928 42.4141C32.2327 42.2637 31.8499 42.1383 31.4443 42.0381C31.0433 41.9378 30.6286 41.8877 30.2002 41.8877C29.7718 41.8877 29.4095 41.9515 29.1133 42.0791C28.8216 42.2021 28.5983 42.3776 28.4434 42.6055C28.2884 42.8333 28.2109 43.1045 28.2109 43.4189C28.2109 43.7699 28.2839 44.0615 28.4297 44.2939C28.5801 44.5264 28.8171 44.7337 29.1406 44.916C29.4688 45.0938 29.9017 45.2806 30.4395 45.4766C31.0273 45.6908 31.5264 45.9186 31.9365 46.1602C32.3467 46.3971 32.6589 46.6888 32.873 47.0352C33.0872 47.377 33.1943 47.8122 33.1943 48.3408ZM37.4873 50.207C37.6742 50.207 37.8656 50.1911 38.0615 50.1592C38.2575 50.1273 38.417 50.0885 38.54 50.043V50.9248C38.4079 50.984 38.2233 51.0342 37.9863 51.0752C37.7539 51.1162 37.526 51.1367 37.3027 51.1367C36.9062 51.1367 36.5462 51.0684 36.2227 50.9316C35.8991 50.7904 35.6393 50.5534 35.4434 50.2207C35.252 49.888 35.1562 49.4277 35.1562 48.8398V44.3965H34.0898V43.8428L35.1631 43.3984L35.6143 41.7715H36.2979V43.5078H38.4922V44.3965H36.2979V48.8057C36.2979 49.2751 36.4049 49.626 36.6191 49.8584C36.8379 50.0908 37.1273 50.207 37.4873 50.207ZM42.9424 43.3711C43.5804 43.3711 44.1273 43.5124 44.583 43.7949C45.0387 44.0775 45.3874 44.474 45.6289 44.9844C45.8704 45.4902 45.9912 46.0827 45.9912 46.7617V47.4658H40.8164C40.8301 48.3454 41.0488 49.0153 41.4727 49.4756C41.8965 49.9359 42.4935 50.166 43.2637 50.166C43.7376 50.166 44.1569 50.1227 44.5215 50.0361C44.8861 49.9495 45.2643 49.8219 45.6562 49.6533V50.6514C45.278 50.82 44.902 50.943 44.5283 51.0205C44.1592 51.098 43.7217 51.1367 43.2158 51.1367C42.4958 51.1367 41.8669 50.9909 41.3291 50.6992C40.7959 50.403 40.3812 49.9701 40.085 49.4004C39.7887 48.8307 39.6406 48.1335 39.6406 47.3086C39.6406 46.502 39.7751 45.8047 40.0439 45.2168C40.3174 44.6243 40.7002 44.1686 41.1924 43.8496C41.6891 43.5306 42.2725 43.3711 42.9424 43.3711ZM42.9287 44.3008C42.3226 44.3008 41.8395 44.499 41.4795 44.8955C41.1195 45.292 40.9053 45.8457 40.8369 46.5566H44.8018C44.7972 46.11 44.7266 45.7181 44.5898 45.3809C44.4577 45.0391 44.2549 44.7747 43.9814 44.5879C43.708 44.3965 43.3571 44.3008 42.9287 44.3008ZM51.4395 43.3711C52.3737 43.3711 53.1188 43.6924 53.6748 44.335C54.2308 44.9775 54.5088 45.9437 54.5088 47.2334C54.5088 48.0856 54.3812 48.8011 54.126 49.3799C53.8708 49.9587 53.5107 50.3962 53.0459 50.6924C52.5856 50.9886 52.041 51.1367 51.4121 51.1367C51.0156 51.1367 50.667 51.0843 50.3662 50.9795C50.0654 50.8747 49.8079 50.7334 49.5938 50.5557C49.3796 50.3779 49.2018 50.1842 49.0605 49.9746H48.9785C48.9922 50.1523 49.0081 50.3665 49.0264 50.6172C49.0492 50.8678 49.0605 51.0866 49.0605 51.2734V54.3496H47.9189V43.5078H48.8555L49.0059 44.6152H49.0605C49.2064 44.3874 49.3841 44.18 49.5938 43.9932C49.8034 43.8018 50.0586 43.6514 50.3594 43.542C50.6647 43.4281 51.0247 43.3711 51.4395 43.3711ZM51.2412 44.3281C50.7217 44.3281 50.3024 44.4284 49.9834 44.6289C49.6689 44.8294 49.4388 45.1302 49.293 45.5312C49.1471 45.9277 49.0697 46.4268 49.0605 47.0283V47.2471C49.0605 47.8805 49.1289 48.416 49.2656 48.8535C49.4069 49.291 49.637 49.6237 49.9561 49.8516C50.2796 50.0794 50.7126 50.1934 51.2549 50.1934C51.7197 50.1934 52.1071 50.068 52.417 49.8174C52.7269 49.5667 52.957 49.2181 53.1074 48.7715C53.2624 48.3203 53.3398 47.8031 53.3398 47.2197C53.3398 46.3356 53.1667 45.6338 52.8203 45.1143C52.4785 44.5902 51.9521 44.3281 51.2412 44.3281ZM61.3379 48.9492C61.3379 49.4277 61.2171 49.8311 60.9756 50.1592C60.7386 50.4827 60.3968 50.7266 59.9502 50.8906C59.5081 51.0547 58.9795 51.1367 58.3643 51.1367C57.8402 51.1367 57.3867 51.0957 57.0039 51.0137C56.6211 50.9316 56.2861 50.8154 55.999 50.665V49.6191C56.3044 49.7695 56.6689 49.9062 57.0928 50.0293C57.5166 50.1523 57.9495 50.2139 58.3916 50.2139C59.0387 50.2139 59.5081 50.109 59.7998 49.8994C60.0915 49.6898 60.2373 49.4049 60.2373 49.0449C60.2373 48.8398 60.1781 48.6598 60.0596 48.5049C59.9456 48.3454 59.752 48.1927 59.4785 48.0469C59.2051 47.8965 58.8268 47.7324 58.3438 47.5547C57.8652 47.3724 57.4505 47.1924 57.0996 47.0146C56.7533 46.8324 56.4844 46.6113 56.293 46.3516C56.1061 46.0918 56.0127 45.7546 56.0127 45.3398C56.0127 44.7064 56.2679 44.221 56.7783 43.8838C57.2933 43.542 57.9678 43.3711 58.8018 43.3711C59.2529 43.3711 59.6745 43.4167 60.0664 43.5078C60.4629 43.5944 60.832 43.7129 61.1738 43.8633L60.791 44.7725C60.4811 44.6403 60.1507 44.5286 59.7998 44.4375C59.4489 44.3464 59.0911 44.3008 58.7266 44.3008C58.2025 44.3008 57.7992 44.3874 57.5166 44.5605C57.2386 44.7337 57.0996 44.9707 57.0996 45.2715C57.0996 45.5039 57.1634 45.6953 57.291 45.8457C57.4232 45.9961 57.6328 46.1374 57.9199 46.2695C58.207 46.4017 58.5853 46.5566 59.0547 46.7344C59.5241 46.9076 59.9297 47.0876 60.2715 47.2744C60.6133 47.4567 60.8753 47.68 61.0576 47.9443C61.2445 48.2041 61.3379 48.5391 61.3379 48.9492Z" fill="#5E6469"/>
<defs>
<clipPath id="clip0_888_263327">
<rect width="32" height="32" fill="white" transform="translate(15)"/>
</clipPath>
</defs>
</svg>