<svg width="31" height="30" viewBox="0 0 31 30" fill="none" xmlns="http://www.w3.org/2000/svg">
<path d="M8.25602 0.563991L8.95202 2.70599C9.1687 3.35705 9.53425 3.9486 10.0196 4.43362C10.505 4.91865 11.0968 5.28377 11.748 5.49999L13.892 6.19599L13.936 6.20799C14.1012 6.26615 14.2443 6.37415 14.3455 6.51708C14.4467 6.66002 14.5011 6.83085 14.5011 7.00599C14.5011 7.18114 14.4467 7.35196 14.3455 7.4949C14.2443 7.63784 14.1012 7.74583 13.936 7.80399L11.792 8.49999C11.1406 8.71622 10.5485 9.08133 10.0628 9.56633C9.57713 10.0513 9.21118 10.6429 8.99402 11.294L8.30002 13.434C8.24186 13.5992 8.13386 13.7423 7.99093 13.8435C7.84799 13.9447 7.67716 13.9991 7.50202 13.9991C7.32687 13.9991 7.15605 13.9447 7.01311 13.8435C6.87017 13.7423 6.76218 13.5992 6.70402 13.434L6.00802 11.294C5.79302 10.6403 5.42797 10.0461 4.94211 9.55886C4.45624 9.0716 3.86305 8.70486 3.21003 8.48799L1.06403 7.79199C0.898822 7.73383 0.755737 7.62584 0.65452 7.4829C0.553303 7.33996 0.498943 7.16914 0.498943 6.99399C0.498943 6.81885 0.553303 6.64802 0.65452 6.50508C0.755737 6.36215 0.898822 6.25415 1.06403 6.19599L3.20803 5.49999C3.85132 5.27797 4.4346 4.91027 4.91232 4.42561C5.39005 3.94094 5.7493 3.35242 5.96202 2.70599L6.66002 0.565991C6.71775 0.400088 6.8257 0.256272 6.96888 0.1545C7.11205 0.0527272 7.28336 -0.00195313 7.45902 -0.00195312C7.63468 -0.00195312 7.80598 0.0527272 7.94916 0.1545C8.09234 0.256272 8.20028 0.400088 8.25802 0.565991L8.25602 0.563991ZM18.066 16.426L16.534 15.93C16.0689 15.775 15.6464 15.5137 15.2999 15.1669C14.9534 14.8201 14.6925 14.3972 14.538 13.932L14.038 12.404C13.9966 12.2859 13.9195 12.1835 13.8174 12.1111C13.7153 12.0387 13.5932 11.9998 13.468 11.9998C13.3428 11.9998 13.2207 12.0387 13.1186 12.1111C13.0165 12.1835 12.9394 12.2859 12.898 12.404L12.402 13.932C12.2506 14.3944 11.9941 14.8154 11.6526 15.1621C11.3112 15.5087 10.8941 15.7716 10.434 15.93L8.90402 16.426C8.78588 16.4674 8.68353 16.5445 8.61111 16.6466C8.5387 16.7487 8.49981 16.8708 8.49981 16.996C8.49981 17.1212 8.5387 17.2433 8.61111 17.3454C8.68353 17.4475 8.78588 17.5246 8.90402 17.566L10.434 18.064C10.9005 18.2191 11.3243 18.481 11.6715 18.829C12.0188 19.1769 12.2799 19.6012 12.434 20.068L12.93 21.596C12.9714 21.7141 13.0485 21.8165 13.1506 21.8889C13.2527 21.9613 13.3748 22.0002 13.5 22.0002C13.6252 22.0002 13.7473 21.9613 13.8494 21.8889C13.9515 21.8165 14.0286 21.7141 14.07 21.596L14.568 20.068C14.7225 19.6024 14.9835 19.1793 15.3304 18.8324C15.6773 18.4855 16.1004 18.2244 16.566 18.07L18.096 17.574C18.2141 17.5326 18.3165 17.4555 18.3889 17.3534C18.4613 17.2513 18.5002 17.1292 18.5002 17.004C18.5002 16.8788 18.4613 16.7567 18.3889 16.6546C18.3165 16.5525 18.2141 16.4754 18.096 16.434L18.066 16.426ZM13.504 24C12.9718 23.9996 12.452 23.8393 12.012 23.54C11.572 23.22 11.252 22.798 11.052 22.298L10.532 20.694C10.5196 20.6603 10.5063 20.6269 10.492 20.594L9.17601 21.91C8.81439 22.2718 8.54187 22.7127 8.38002 23.198L6.55202 28.684C6.49362 28.86 6.48533 29.0488 6.52807 29.2293C6.57082 29.4098 6.6629 29.5748 6.79405 29.706C6.92519 29.8371 7.09023 29.9292 7.2707 29.9719C7.45118 30.0147 7.63998 30.0064 7.81602 29.948L13.302 28.12C13.7872 27.9581 14.2282 27.6856 14.59 27.324L26.5 15.414L27.026 15.94C27.3069 16.2212 27.4647 16.6025 27.4647 17C27.4647 17.3975 27.3069 17.7787 27.026 18.06L24.792 20.292C24.6045 20.4798 24.4992 20.7343 24.4994 20.9997C24.4996 21.2651 24.6052 21.5195 24.793 21.707C24.9808 21.8945 25.2353 21.9997 25.5007 21.9995C25.7661 21.9994 26.0205 21.8938 26.208 21.706L28.44 19.474C29.0958 18.8177 29.4642 17.9278 29.4642 17C29.4642 16.0722 29.0958 15.1823 28.44 14.526L27.914 14L29.38 12.536C29.7356 12.1805 30.0177 11.7585 30.2102 11.2939C30.4027 10.8294 30.5019 10.3315 30.502 9.8287C30.5021 9.32587 30.4031 8.82795 30.2108 8.36336C30.0184 7.89877 29.7365 7.47661 29.381 7.12099C29.0255 6.76537 28.6034 6.48325 28.1389 6.29074C27.6744 6.09823 27.1765 5.9991 26.6737 5.99901C25.6582 5.99882 24.6842 6.40205 23.966 7.11999L17.06 14.026C17.0914 14.0402 17.1234 14.0529 17.156 14.064L18.678 14.564C19.258 14.764 19.698 15.104 20.018 15.546C20.318 15.966 20.5 16.486 20.5 17.048C20.5 17.608 20.34 18.11 20.02 18.552C19.7 18.992 19.26 19.312 18.76 19.492L17.176 20.012C17.0073 20.0662 16.8557 20.1634 16.736 20.294C16.616 20.434 16.516 20.574 16.456 20.754L15.956 22.278C15.756 22.838 15.436 23.258 14.996 23.578C14.556 23.898 14.04 23.998 13.504 24Z" fill="#1572C2"/>
</svg>