<svg width="17" height="17" viewBox="0 0 17 17" fill="none" xmlns="http://www.w3.org/2000/svg">
<path fill-rule="evenodd" clip-rule="evenodd" d="M8.45556 0.500006C9.50632 0.498767 10.547 0.705134 11.5177 1.10725C12.4885 1.50937 13.3702 2.0993 14.1123 2.84317C14.8562 3.58529 15.4462 4.46706 15.8483 5.43783C16.2504 6.4086 16.4568 7.44924 16.4556 8.49999C16.4568 9.55075 16.2504 10.5914 15.8483 11.5622C15.4462 12.5329 14.8562 13.4147 14.1124 14.1568C13.3703 14.9007 12.4885 15.4906 11.5177 15.8927C10.547 16.2949 9.50631 16.5012 8.45555 16.5C7.4048 16.5012 6.36417 16.2948 5.3934 15.8927C4.42264 15.4906 3.54088 14.9007 2.79877 14.1568C2.05489 13.4147 1.46494 12.5329 1.06282 11.5622C0.660699 10.5914 0.454333 9.55074 0.455572 8.49998C0.454357 7.44924 0.660732 6.4086 1.06285 5.43783C1.46497 4.46707 2.0549 3.58531 2.79877 2.8432C3.54088 2.09933 4.42264 1.5094 5.3934 1.10728C6.36417 0.705165 7.40481 0.498789 8.45556 0.500006ZM10.9611 2.45107C10.1671 2.12218 9.31593 1.95344 8.45651 1.95455H8.45464C7.59522 1.95345 6.74405 2.1222 5.95005 2.4511C5.15605 2.78 4.43487 3.26256 3.82795 3.87105L3.82662 3.87238C3.21812 4.4793 2.73556 5.20048 2.40667 5.99448C2.07777 6.78848 1.90902 7.63965 1.91012 8.49907V8.50094C1.909 9.36036 2.07774 10.2115 2.40664 11.0055C2.73553 11.7995 3.2181 12.5207 3.82661 13.1276L3.82795 13.1289C4.43487 13.7374 5.15605 14.22 5.95005 14.5489C6.74405 14.8778 7.59522 15.0465 8.45464 15.0454H8.45651C9.31593 15.0466 10.1671 14.8778 10.9611 14.5489C11.7551 14.22 12.4763 13.7375 13.0832 13.129L13.0845 13.1276C13.693 12.5207 14.1756 11.7995 14.5045 11.0055C14.8334 10.2115 15.0021 9.36036 15.001 8.50094V8.49907C15.0021 7.63965 14.8334 6.78848 14.5045 5.99448C14.1756 5.20048 13.693 4.4793 13.0845 3.87238L13.0832 3.87104C12.4763 3.26253 11.7551 2.77997 10.9611 2.45107ZM12.6062 5.80392C12.8902 6.08794 12.8902 6.54843 12.6062 6.83244L8.24255 11.1961C7.95854 11.4801 7.49805 11.4801 7.21404 11.1961L5.03222 9.01426C4.7482 8.73024 4.7482 8.26976 5.03222 7.98574C5.31624 7.70172 5.77672 7.70172 6.06074 7.98574L7.72829 9.6533L11.5777 5.80392C11.8617 5.51991 12.3222 5.51991 12.6062 5.80392Z" fill="white"/>
</svg>
