<svg width="16" height="15" viewBox="0 0 16 15" fill="none" xmlns="http://www.w3.org/2000/svg">
<path d="M11.2593 5.92593H14.8148C15.1291 5.92593 15.4306 5.80106 15.6529 5.57879C15.8751 5.35653 16 5.05507 16 4.74074V1.18519C16 0.870854 15.8751 0.569398 15.6529 0.347133C15.4306 0.124867 15.1291 0 14.8148 0H11.2593C10.9449 0 10.6435 0.124867 10.4212 0.347133C10.1989 0.569398 10.0741 0.870854 10.0741 1.18519V2.37037H9.48148C8.85282 2.37037 8.24991 2.62011 7.80538 3.06464C7.36085 3.50917 7.11111 4.11208 7.11111 4.74074V6.51852H4.74074V5.92593C4.74074 5.6116 4.61587 5.31014 4.39361 5.08787C4.17134 4.86561 3.86989 4.74074 3.55556 4.74074H1.18519C0.870854 4.74074 0.569398 4.86561 0.347133 5.08787C0.124867 5.31014 0 5.6116 0 5.92593V8.2963C0 8.61063 0.124867 8.91208 0.347133 9.13435C0.569398 9.35661 0.870854 9.48148 1.18519 9.48148H3.55556C3.86989 9.48148 4.17134 9.35661 4.39361 9.13435C4.61587 8.91208 4.74074 8.61063 4.74074 8.2963V7.7037H7.11111V9.48148C7.11111 10.1101 7.36085 10.7131 7.80538 11.1576C8.24991 11.6021 8.85282 11.8519 9.48148 11.8519H10.0741V13.037C10.0741 13.3514 10.1989 13.6528 10.4212 13.8751C10.6435 14.0974 10.9449 14.2222 11.2593 14.2222H14.8148C15.1291 14.2222 15.4306 14.0974 15.6529 13.8751C15.8751 13.6528 16 13.3514 16 13.037V9.48148C16 9.16715 15.8751 8.86569 15.6529 8.64343C15.4306 8.42116 15.1291 8.2963 14.8148 8.2963H11.2593C10.9449 8.2963 10.6435 8.42116 10.4212 8.64343C10.1989 8.86569 10.0741 9.16715 10.0741 9.48148V10.6667H9.48148C9.16715 10.6667 8.86569 10.5418 8.64343 10.3195C8.42116 10.0973 8.2963 9.79581 8.2963 9.48148V4.74074C8.2963 4.42641 8.42116 4.12495 8.64343 3.90269C8.86569 3.68042 9.16715 3.55556 9.48148 3.55556H10.0741V4.74074C10.0741 5.05507 10.1989 5.35653 10.4212 5.57879C10.6435 5.80106 10.9449 5.92593 11.2593 5.92593ZM3.55556 8.2963H1.18519V5.92593H3.55556V8.2963ZM11.2593 9.48148H14.8148V13.037H11.2593V9.48148ZM11.2593 1.18519H14.8148V4.74074H11.2593V1.18519Z" fill="#595959"/>
</svg>
