<svg xmlns="http://www.w3.org/2000/svg" width="16" height="16" viewBox="0 0 16 16" fill="none">
  <path d="M5.72492 9.13551C5.72557 9.21939 5.70007 9.30139 5.65196 9.37011C5.60385 9.43882 5.53552 9.49085 5.45648 9.51895L3.83461 10.1087L3.24507 11.7301C3.21602 11.8084 3.1637 11.8759 3.09515 11.9236C3.02659 11.9712 2.94509 11.9968 2.86159 11.9968C2.77809 11.9968 2.69659 11.9712 2.62804 11.9236C2.55949 11.8759 2.50717 11.8084 2.47811 11.7301L1.88832 10.1069L0.266704 9.51895C0.188422 9.48989 0.120908 9.43758 0.0732314 9.36904C0.0255548 9.30049 0 9.219 0 9.13551C0 9.05202 0.0255548 8.97053 0.0732314 8.90198C0.120908 8.83344 0.188422 8.78113 0.266704 8.75207L1.89011 8.16235L2.47811 6.54092C2.50717 6.46265 2.55949 6.39514 2.62804 6.34747C2.69659 6.2998 2.77809 6.27425 2.86159 6.27425C2.94509 6.27425 3.02659 6.2998 3.09515 6.34747C3.1637 6.39514 3.21602 6.46265 3.24507 6.54092L3.83487 8.16414L5.45648 8.75207C5.53552 8.78017 5.60385 8.8322 5.65196 8.90092C5.70007 8.96963 5.72557 9.05163 5.72492 9.13551Z" fill="#1572C2"/>
   <path d="M16 3.11228C16.0006 3.19602 15.9752 3.27788 15.9272 3.34648C15.8791 3.41508 15.8109 3.46702 15.732 3.49507L14.1129 4.0838L13.5243 5.70248C13.4953 5.78062 13.4431 5.84801 13.3747 5.8956C13.3062 5.94319 13.2249 5.9687 13.1415 5.9687C13.0582 5.9687 12.9768 5.94319 12.9084 5.8956C12.8399 5.84801 12.7877 5.78062 12.7587 5.70248L12.1699 4.08201L10.551 3.49507C10.4729 3.46606 10.4055 3.41384 10.3579 3.34541C10.3103 3.27698 10.2848 3.19563 10.2848 3.11228C10.2848 3.02893 10.3103 2.94758 10.3579 2.87915C10.4055 2.81072 10.4729 2.7585 10.551 2.72949L12.1717 2.14076L12.7587 0.522082C12.7877 0.443941 12.8399 0.376549 12.9084 0.328958C12.9768 0.281368 13.0582 0.255859 13.1415 0.255859C13.2249 0.255859 13.3062 0.281368 13.3747 0.328958C13.4431 0.376549 13.4953 0.443941 13.5243 0.522082L14.1131 2.14255L15.732 2.72949C15.8109 2.75754 15.8791 2.80948 15.9272 2.87808C15.9752 2.94668 16.0006 3.02854 16 3.11228Z" fill="#1572C2"/>
   <path d="M9.02932 13.4206C9.02974 13.4758 9.01298 13.5297 8.98136 13.5748C8.94974 13.62 8.90483 13.6542 8.85288 13.6727L7.78685 14.0603L7.39935 15.126C7.38025 15.1775 7.34587 15.2218 7.30081 15.2532C7.25575 15.2845 7.20218 15.3013 7.1473 15.3013C7.09241 15.3013 7.03884 15.2845 6.99379 15.2532C6.94873 15.2218 6.91434 15.1775 6.89524 15.126L6.50758 14.0591L5.44172 13.6727C5.39026 13.6536 5.34589 13.6192 5.31455 13.5741C5.28321 13.5291 5.26642 13.4755 5.26642 13.4206C5.26642 13.3657 5.28321 13.3122 5.31455 13.2671C5.34589 13.2221 5.39026 13.1877 5.44172 13.1686L6.50876 12.781L6.89524 11.7152C6.91434 11.6638 6.94873 11.6194 6.99379 11.5881C7.03884 11.5568 7.09241 11.54 7.1473 11.54C7.20218 11.54 7.25575 11.5568 7.30081 11.5881C7.34587 11.6194 7.38025 11.6638 7.39935 11.7152L7.78702 12.7822L8.85288 13.1686C8.90483 13.1871 8.94974 13.2213 8.98136 13.2664C9.01298 13.3116 9.02974 13.3655 9.02932 13.4206Z" fill="#1572C2"/>
   <path d="M6.77254 7.48354L9.7746 5.27704L15.3973 12.9252C15.8895 13.5947 15.7457 14.5364 15.0761 15.0285L14.4988 15.4529C13.8292 15.945 12.8874 15.8012 12.3952 15.1317L6.77254 7.48354Z" fill="#1572C2"/>
   <path d="M9.07457 4.31113L6.18765 6.51275L4.1118 3.79137C3.60783 3.13067 3.73493 2.18657 4.39569 1.68266L4.88978 1.30586C5.55054 0.801955 6.49475 0.929059 6.99872 1.58976L9.07457 4.31113Z" fill="#1572C2"/>
</svg>