<svg xmlns="http://www.w3.org/2000/svg" width="32" height="32" viewBox="0 0 32 32" fill="none">
    <rect width="32" height="32" rx="16" fill="white"/>
    <path d="M12.7249 16.8797C12.7256 16.9635 12.7001 17.0455 12.652 17.1142C12.6038 17.183 12.5355 17.235 12.4565 17.2631L10.8346 17.8528L10.2451 19.4742C10.216 19.5525 10.1637 19.62 10.0951 19.6677C10.0266 19.7154 9.94509 19.7409 9.86159 19.7409C9.77809 19.7409 9.69659 19.7154 9.62804 19.6677C9.55949 19.62 9.50717 19.5525 9.47811 19.4742L8.88832 17.851L7.2667 17.2631C7.18842 17.234 7.12091 17.1817 7.07323 17.1132C7.02555 17.0446 7 16.9631 7 16.8797C7 16.7962 7.02555 16.7147 7.07323 16.6461C7.12091 16.5776 7.18842 16.5253 7.2667 16.4962L8.89011 15.9065L9.47811 14.2851C9.50717 14.2068 9.55949 14.1393 9.62804 14.0916C9.69659 14.0439 9.77809 14.0184 9.86159 14.0184C9.94509 14.0184 10.0266 14.0439 10.0951 14.0916C10.1637 14.1393 10.216 14.2068 10.2451 14.2851L10.8349 15.9083L12.4565 16.4962C12.5355 16.5243 12.6038 16.5763 12.652 16.6451C12.7001 16.7138 12.7256 16.7958 12.7249 16.8797Z" fill="#F5BC00"/>
    <path d="M23 10.8564C23.0006 10.9402 22.9752 11.022 22.9272 11.0906C22.8791 11.1592 22.8109 11.2112 22.732 11.2392L21.1129 11.8279L20.5243 13.4466C20.4953 13.5248 20.4431 13.5922 20.3747 13.6397C20.3062 13.6873 20.2249 13.7128 20.1415 13.7128C20.0582 13.7128 19.9768 13.6873 19.9084 13.6397C19.8399 13.5922 19.7877 13.5248 19.7587 13.4466L19.1699 11.8262L17.551 11.2392C17.4729 11.2102 17.4055 11.158 17.3579 11.0896C17.3103 11.0211 17.2848 10.9398 17.2848 10.8564C17.2848 10.7731 17.3103 10.6917 17.3579 10.6233C17.4055 10.5549 17.4729 10.5026 17.551 10.4736L19.1717 9.8849L19.7587 8.26622C19.7877 8.18808 19.8399 8.12069 19.9084 8.0731C19.9768 8.02551 20.0582 8 20.1415 8C20.2249 8 20.3062 8.02551 20.3747 8.0731C20.4431 8.12069 20.4953 8.18808 20.5243 8.26622L21.1131 9.88669L22.732 10.4736C22.8109 10.5017 22.8791 10.5536 22.9272 10.6222C22.9752 10.6908 23.0006 10.7727 23 10.8564Z" fill="#F5BC00"/>
    <path d="M16.0293 21.1648C16.0297 21.2199 16.013 21.2738 15.9814 21.319C15.9497 21.3641 15.9048 21.3983 15.8529 21.4168L14.7868 21.8044L14.3994 22.8702C14.3803 22.9216 14.3459 22.966 14.3008 22.9973C14.2558 23.0286 14.2022 23.0454 14.1473 23.0454C14.0924 23.0454 14.0388 23.0286 13.9938 22.9973C13.9487 22.966 13.9143 22.9216 13.8952 22.8702L13.5076 21.8032L12.4417 21.4168C12.3903 21.3977 12.3459 21.3633 12.3146 21.3183C12.2832 21.2732 12.2664 21.2196 12.2664 21.1648C12.2664 21.1099 12.2832 21.0563 12.3146 21.0113C12.3459 20.9662 12.3903 20.9318 12.4417 20.9127L13.5088 20.5251L13.8952 19.4594C13.9143 19.4079 13.9487 19.3636 13.9938 19.3322C14.0388 19.3009 14.0924 19.2841 14.1473 19.2841C14.2022 19.2841 14.2558 19.3009 14.3008 19.3322C14.3459 19.3636 14.3803 19.4079 14.3994 19.4594L14.787 20.5263L15.8529 20.9127C15.9048 20.9312 15.9497 20.9654 15.9814 21.0106C16.013 21.0557 16.0297 21.1096 16.0293 21.1648Z" fill="#F5BC00"/>
    <path d="M13.7725 15.2277L16.7746 13.0212L22.3973 20.6693C22.8895 21.3388 22.7457 22.2805 22.0761 22.7727L21.4988 23.197C20.8292 23.6891 19.8874 23.5453 19.3952 22.8758L13.7725 15.2277Z" fill="#6A7888"/>
    <path d="M16.0746 12.0553L13.1877 14.2569L11.1118 11.5355C10.6078 10.8748 10.7349 9.93071 11.3957 9.4268L11.8898 9.05C12.5505 8.5461 13.4947 8.6732 13.9987 9.3339L16.0746 12.0553Z" fill="#F5BC00"/>
</svg>