<?xml version="1.0" encoding="UTF-8"?>
<svg width="17px" height="22px" viewBox="0 0 17 22" version="1.1" xmlns="http://www.w3.org/2000/svg" xmlns:xlink="http://www.w3.org/1999/xlink">
    <!-- Generator: Sketch 49.3 (51167) - http://www.bohemiancoding.com/sketch -->
    <title>icons/processbuilder/data-object</title>
    <desc>Created with Sketch.</desc>
    <defs></defs>
    <g id="Symbols" stroke="none" stroke-width="1" fill="none" fill-rule="evenodd">
        <g id="Build/Applications/Processes/ProcessBuilder" transform="translate(-21.000000, -373.000000)" fill="#788793" fill-rule="nonzero">
            <g id="12" transform="translate(0.000000, 367.000000)">
                <path d="M37.4991321,11.5732296 C37.4953071,11.444452 37.4439915,11.3188112 37.3491392,11.223979 L32.2749528,6.15086358 C32.2747379,6.15064873 32.274523,6.15056279 32.2743511,6.15034795 C32.181132,6.05744933 32.0525851,6 31.910672,6 L22.0846764,6 C21.4865529,6 21,6.4864072 21,7.08440446 L21,26.9155955 C21,27.5135498 21.4865099,28 22.0846334,28 L36.4153583,28 C37.0134388,28 37.4999917,27.5135928 37.4999917,26.9155955 L37.4999917,11.5881828 C37.5000777,11.5831125 37.499476,11.578214 37.4991321,11.5732296 Z M32.4258912,7.75875734 L35.740992,11.0731583 L32.6433164,11.0731583 C32.5234081,11.0731583 32.4258912,10.9756621 32.4258912,10.855779 L32.4258912,7.75875734 Z M36.4696394,26.9156815 C36.4695964,26.9455018 36.4452709,26.9698222 36.4154013,26.9698222 L22.0846764,26.9698222 C22.0548067,26.9698222 22.0304813,26.9455018 22.0304813,26.9156385 L22.0304813,7.08440446 C22.0304813,7.05454112 22.0548067,7.03022076 22.0846764,7.03022076 L31.3954529,7.03022076 L31.3954529,10.855779 C31.3954529,11.5436671 31.9552401,12.1033791 32.6433164,12.1033791 L36.4696824,12.1033791 L36.4696824,26.9156815 L36.4696394,26.9156815 Z" id="icons/processbuilder/data-object"></path>
            </g>
        </g>
    </g>
</svg>