<?xml version="1.0" encoding="UTF-8"?>
<svg width="31px" height="18px" viewBox="0 0 31 18" version="1.1" xmlns="http://www.w3.org/2000/svg" xmlns:xlink="http://www.w3.org/1999/xlink">
    <!-- Generator: Sketch 49.3 (51167) - http://www.bohemiancoding.com/sketch -->
    <title>icons/processbuilder/text-annotation</title>
    <desc>Created with Sketch.</desc>
    <defs></defs>
    <g id="Symbols" stroke="none" stroke-width="1" fill="none" fill-rule="evenodd">
        <g id="Build/Applications/Processes/ProcessBuilder" transform="translate(-14.000000, -573.000000)" fill="#788793">
            <g id="18" transform="translate(0.000000, 565.000000)">
                <g id="icons/processbuilder/text-annotation" transform="translate(14.000000, 7.000000)">
                    <path d="M2.945435,2.96366812 C3.4877712,2.96366812 3.92733623,2.52423743 3.92733623,1.98190123 C3.92733623,1.43956503 3.48790554,1 2.945435,1 L0.981901229,1 C0.439565032,1 0,1.43956503 0,1.98190123 L0,18.0183675 C0,18.5603006 0.439430691,19 0.981901229,19 L2.945435,19 C3.4877712,19 3.92733623,18.5605693 3.92733623,18.0183675 C3.92733623,17.4760313 3.48790554,17.0363319 2.945435,17.0363319 L1.96366812,17.0363319 L1.96366812,2.96366812 L2.945435,2.96366812 Z" id="Shape" fill-rule="nonzero"></path>
                    <path d="M8.640625,15 L7.47851562,15 L7.47851562,6.03808594 L4.31347656,6.03808594 L4.31347656,5.00585938 L11.8056641,5.00585938 L11.8056641,6.03808594 L8.640625,6.03808594 L8.640625,15 Z M15.3261719,15.1367188 C14.2187445,15.1367188 13.3448925,14.7994825 12.7045898,14.125 C12.0642872,13.4505175 11.7441406,12.5140034 11.7441406,11.3154297 C11.7441406,10.1077414 12.0415009,9.14844105 12.6362305,8.4375 C13.23096,7.72655895 14.0296174,7.37109375 15.0322266,7.37109375 C15.9710333,7.37109375 16.7138645,7.67984717 17.2607422,8.29736328 C17.8076199,8.91487939 18.0810547,9.72948713 18.0810547,10.7412109 L18.0810547,11.4589844 L12.9199219,11.4589844 C12.9427084,12.3385461 13.1648742,13.0061826 13.5864258,13.4619141 C14.0079774,13.9176455 14.6015587,14.1455078 15.3671875,14.1455078 C16.1738322,14.1455078 16.9713502,13.9768897 17.7597656,13.6396484 L17.7597656,14.6513672 C17.358722,14.8245451 16.9793312,14.9487301 16.621582,15.0239258 C16.2638328,15.0991215 15.8320338,15.1367188 15.3261719,15.1367188 Z M15.0185547,8.32128906 C14.4169892,8.32128906 13.937339,8.51725064 13.5795898,8.90917969 C13.2218407,9.30110873 13.011068,9.84342102 12.9472656,10.5361328 L16.8642578,10.5361328 C16.8642578,9.82063444 16.7047542,9.2726256 16.3857422,8.89208984 C16.0667302,8.51155409 15.6110056,8.32128906 15.0185547,8.32128906 Z M21.5400391,11.1650391 L18.9355469,7.5078125 L20.2275391,7.5078125 L22.203125,10.3789062 L24.171875,7.5078125 L25.4501953,7.5078125 L22.8457031,11.1650391 L25.5869141,15 L24.3017578,15 L22.203125,11.9648438 L20.0839844,15 L18.7988281,15 L21.5400391,11.1650391 Z M29.4902344,14.2001953 C29.6907562,14.2001953 29.8844392,14.1853843 30.0712891,14.1557617 C30.258139,14.1261392 30.4062495,14.0953778 30.515625,14.0634766 L30.515625,14.9316406 C30.3925775,14.9908857 30.211427,15.0398761 29.972168,15.0786133 C29.732909,15.1173505 29.5175791,15.1367188 29.3261719,15.1367188 C27.8769459,15.1367188 27.1523438,14.37338 27.1523438,12.8466797 L27.1523438,8.38964844 L26.0791016,8.38964844 L26.0791016,7.84277344 L27.1523438,7.37109375 L27.6308594,5.77148438 L28.2871094,5.77148438 L28.2871094,7.5078125 L30.4609375,7.5078125 L30.4609375,8.38964844 L28.2871094,8.38964844 L28.2871094,12.7988281 C28.2871094,13.2500023 28.3942047,13.596353 28.6083984,13.8378906 C28.8225922,14.0794283 29.1165346,14.2001953 29.4902344,14.2001953 Z" id="Text"></path>
                </g>
            </g>
        </g>
    </g>
</svg>