<svg width="115" height="119" viewBox="0 0 115 119" fill="none" xmlns="http://www.w3.org/2000/svg">
<path d="M12.3387 52.1479C12.3387 52.1479 32.4726 51.3417 36.8236 18.2458C40.6874 -11.1466 74.6385 2.23173 84.4525 13.9482C97.1657 29.126 90.3887 55.2348 106.835 58.5331C123.281 61.8315 112.541 98.5028 87.577 94.9927C56.5225 90.6263 64.0359 108.773 54.7135 116.454C48.023 121.966 20.5896 116.66 19.6752 96.649C18.9058 79.8103 11.8029 79.8636 6.76831 77.9543C-0.492733 75.2005 -5.06799 55.2574 12.3387 52.1479Z" fill="#DEEFFF"/>
<path d="M80.7829 88.903L61.002 69.3567L57.085 73.3207L76.866 92.8669L80.7829 88.903Z" fill="#69B7FF"/>
<path d="M88.3393 94.155L72.9496 78.948C72.8639 78.8633 72.7258 78.8641 72.6411 78.9498L66.8162 84.8447C66.7316 84.9303 66.7324 85.0684 66.8181 85.1531L82.2078 100.36C82.2935 100.445 82.4316 100.444 82.5162 100.358L88.3411 94.4635C88.4258 94.3778 88.425 94.2397 88.3393 94.155Z" fill="#2689DB"/>
<path d="M43.4699 79.1871C57.0786 79.1871 68.1107 68.1551 68.1107 54.5463C68.1107 40.9376 57.0786 29.9055 43.4699 29.9055C29.8612 29.9055 18.8291 40.9376 18.8291 54.5463C18.8291 68.1551 29.8612 79.1871 43.4699 79.1871Z" fill="#2689DB"/>
<path d="M43.4698 75.1666C54.858 75.1666 64.09 65.9347 64.09 54.5465C64.09 43.1582 54.858 33.9263 43.4698 33.9263C32.0816 33.9263 22.8496 43.1582 22.8496 54.5465C22.8496 65.9347 32.0816 75.1666 43.4698 75.1666Z" fill="#D4E5FF"/>
<path fill-rule="evenodd" clip-rule="evenodd" d="M74.3286 37.5197C73.0091 37.7604 72.1346 39.0252 72.3753 40.3447L73.9009 48.7067C74.1416 50.0262 75.4064 50.9007 76.7259 50.6599L88.6716 48.4805C89.9911 48.2398 90.8656 46.975 90.6249 45.6555L89.0993 37.2935C88.8586 35.9741 87.5937 35.0996 86.2743 35.3403L74.3286 37.5197ZM86.9281 38.924L74.9824 41.1034L75.2003 42.298L87.146 40.1186L86.9281 38.924ZM87.364 41.3131L75.4183 43.4925L75.6362 44.6871L87.5819 42.5077L87.364 41.3131ZM75.8542 45.8817L87.7998 43.7023L88.0178 44.8968L76.0721 47.0762L75.8542 45.8817Z" fill="#4599E6"/>
<path d="M37.0202 84.9405C36.0162 85.453 35.1868 86.2516 34.6367 87.2355C34.0867 88.2193 33.8408 89.3442 33.93 90.4678C34.0193 91.5914 34.4397 92.6633 35.1382 93.548C35.8366 94.4327 36.7817 95.0904 37.854 95.4379C38.9262 95.7854 40.0775 95.8072 41.1621 95.5005C42.2467 95.1937 43.216 94.5722 43.9474 93.7146C44.6788 92.857 45.1395 91.8017 45.2711 90.6822C45.4028 89.5628 45.1996 88.4294 44.6871 87.4255C43.9987 86.0804 42.8049 85.0634 41.3675 84.5975C39.9302 84.1317 38.3667 84.255 37.0202 84.9405ZM38.3476 87.541C38.6603 87.3813 39.0133 87.3182 39.3619 87.3595C39.7106 87.4008 40.0391 87.5447 40.3058 87.773C40.5725 88.0013 40.7654 88.3037 40.86 88.6418C40.9546 88.9798 40.9467 89.3384 40.8372 89.672C40.7277 90.0055 40.5217 90.2991 40.2451 90.5154C39.9686 90.7316 39.634 90.8609 39.2839 90.8868C38.9338 90.9126 38.5839 90.8339 38.2786 90.6606C37.9733 90.4873 37.7263 90.2273 37.569 89.9134C37.3605 89.495 37.3253 89.0113 37.4711 88.5672C37.6168 88.1231 37.9317 87.7543 38.3476 87.5408V87.541ZM41.6688 94.0479C40.742 94.5227 39.6788 94.6606 38.6615 94.4378C38.9825 93.2719 39.6422 92.3769 40.5736 91.9016C41.505 91.4263 42.6221 91.4 43.749 91.841C43.3326 92.7955 42.5972 93.5756 41.6688 94.0476V94.0479Z" fill="#4599E6"/>
</svg>
