<svg width="56" height="57" viewBox="0 0 56 57" fill="none" xmlns="http://www.w3.org/2000/svg">
<g clip-path="url(#clip0_15570_19262)">
<path d="M11.913 51.2828V7.10889H6V56.5002H44.9565V51.2828H11.913Z" fill="#42A5F5"/>
<path d="M11.9131 0.5V51.2826H50.174V11.6304L39.0713 0.527826L11.9131 0.5Z" fill="#90CAF9"/>
<path d="M38 3.63037L47.7391 13.3695H38V3.63037Z" fill="#E1F5FE"/>
<path d="M31.0434 42.4618C36.8909 42.4618 41.6312 37.7215 41.6312 31.874C41.6312 26.0265 36.8909 21.2861 31.0434 21.2861C25.1959 21.2861 20.4556 26.0265 20.4556 31.874C20.4556 37.7215 25.1959 42.4618 31.0434 42.4618Z" fill="white"/>
<path d="M36.5525 31.8738L28.1143 27.3799V36.3677L36.5525 31.8738Z" fill="#44AE55"/>
</g>
<defs>
<clipPath id="clip0_15570_19262">
<rect width="56" height="56" fill="white" transform="translate(0 0.5)"/>
</clipPath>
</defs>
</svg>
