<?xml version="1.0" standalone="no"?>
<!DOCTYPE svg PUBLIC "-//W3C//DTD SVG 1.1//EN" "http://www.w3.org/Graphics/SVG/1.1/DTD/svg11.dtd" >
<svg xmlns="http://www.w3.org/2000/svg">
<metadata>Generated by IcoMoon</metadata>
<defs>
<font id="icomoon" horiz-adv-x="1024">
<font-face units-per-em="1024" ascent="960" descent="-64" />
<missing-glyph horiz-adv-x="1024" />
<glyph unicode="&#x20;" horiz-adv-x="512" d="" />
<glyph unicode="&#xe900;" glyph-name="task" d="M220.603 823.213c-87.363 0-158.452-71.084-158.452-158.447v-433.501c0-87.363 71.089-158.452 158.452-158.452h582.785c87.363 0 158.452 71.089 158.452 158.452v433.501c0 87.363-71.089 158.447-158.452 158.447h-582.785zM220.603 773.231h582.785c60.528 0 108.469-47.941 108.469-108.465v-433.501c0-60.529-47.941-108.47-108.469-108.47h-582.785c-60.528 0-108.469 47.941-108.469 108.47v433.501c0 60.524 47.941 108.465 108.469 108.465z" />
<glyph unicode="&#xe903;" glyph-name="start-event-timer" d="M512 910.498c-255.135 0-462.5-207.36-462.5-462.497s207.364-462.502 462.5-462.502c255.136 0 462.5 207.365 462.5 462.502s-207.365 462.497-462.5 462.497zM512 860.498c228.114 0 412.5-184.382 412.5-412.497s-184.386-412.502-412.5-412.502c-228.114 0-412.5 184.387-412.5 412.502s184.386 412.497 412.5 412.497zM507.855 667.525c-85.764-0.606-167.55-56.942-199.159-136.643-32.895-77.9-14.71-173.785 44.442-234.221 57.513-61.915 152.277-84.732 231.653-55.714 83.18 28.337 144.286 110.615 146.488 198.595 4.431 85.473-46.937 169.985-124.279 206.283-29.513 14.289-62.273 21.729-95.059 21.686-1.363 0.019-2.726 0.023-4.087 0.014zM515.677 627.539c78.353-0.351 151.857-58.26 170.129-134.588 20.349-74.509-13.935-159.468-80.681-198.508-68.15-42.772-164.235-31.372-220.197 26.555-59.057 56.972-69.574 155.543-24.266 223.867 32.089 50.973 91.025 83.233 151.28 82.646 1.246 0.024 2.491 0.033 3.734 0.027zM568.652 576.503c-19.984-36.255-39.967-72.509-59.951-108.764-18.516-1.969-22.915-30.061-5.831-37.553 11.285-7.833 20.124 5.196 30.397 4.747h91.646v25h-91.969c19.201 34.834 38.402 69.668 57.603 104.502-7.298 4.022-14.596 8.045-21.895 12.067z" />
<glyph unicode="&#xe904;" glyph-name="start-event-signal" d="M512 910.5c-181.878 2.467-357.124-114.585-426.113-282.596-72.059-165.076-34.618-370.142 91.431-498.885 121.232-130.496 320.975-178.393 488.26-117.335 173.37 59.037 301.361 229.297 308.319 412.546 11.67 180.065-94.268 359.711-256.477 438.146-63.517 31.697-134.446 48.226-205.421 48.125zM512 860.5c179.641 3.124 350.492-125.918 396.873-299.465 48.515-163.454-17.107-352.702-157.953-449.512-146.306-107.537-363.27-99.757-501.431 18.078-139.207 110.99-189.037 316.288-117.614 479.091 61.904 150.506 217.294 253.719 380.125 251.808zM512 664.562c-65.578-117.708-131.155-235.417-196.732-353.125 131.155 0 262.31 0 393.465 0-65.577 117.708-131.155 235.417-196.732 353.125zM512 613.194c51.396-92.252 102.792-184.505 154.188-276.757-102.792 0-205.583 0-308.375 0 51.396 92.252 102.792 184.505 154.188 276.757z" />
<glyph unicode="&#xe905;" glyph-name="start-event-parallel-multiple" d="M507.738 910.534c-180.349 0.599-353.401-115.933-421.851-282.632-72.059-165.076-34.618-370.142 91.431-498.886 121.232-130.496 320.975-178.393 488.26-117.336 173.37 59.037 301.362 229.297 308.319 412.546 11.67 180.065-94.268 359.711-256.477 438.146-63.522 31.698-134.441 48.226-205.421 48.125-1.421 0.019-2.842 0.031-4.262 0.036zM520.414 860.548c176.536-0.969 342.802-128.679 388.459-299.515 48.515-163.454-17.107-352.703-157.953-449.513-146.306-107.537-363.27-99.757-501.432 18.078-139.207 110.99-189.036 316.288-117.613 479.091 61.724 150.367 217.499 253.827 380.125 251.809 2.807 0.049 5.612 0.065 8.414 0.050zM440 648v-128h-128v-144h128v-128h144v128h128v144.001h-128v127.999h-144zM464 624h96v-128h128v-96h-128v-128h-96v128.75h-128v95.25h128v128z" />
<glyph unicode="&#xe906;" glyph-name="start-event-none" d="M507.738 910.536c-180.349 0.599-353.401-115.933-421.851-282.632-72.059-165.076-34.618-370.142 91.431-498.886 121.232-130.496 320.975-178.393 488.26-117.336 173.37 59.037 301.362 229.297 308.319 412.546 11.67 180.065-94.268 359.711-256.477 438.146-63.517 31.697-134.446 48.226-205.421 48.125-1.421 0.019-2.842 0.031-4.262 0.036zM520.414 860.55c176.536-0.969 342.802-128.679 388.459-299.515 48.515-163.454-17.107-352.703-157.953-449.513-146.306-107.537-363.27-99.757-501.432 18.078-139.207 110.99-189.036 316.288-117.613 479.091 61.904 150.506 217.294 253.719 380.125 251.809 2.807 0.049 5.612 0.065 8.414 0.050z" />
<glyph unicode="&#xe908;" glyph-name="start-event-multiple" d="M512 910.5c-181.878 2.467-357.124-114.585-426.113-282.596-72.059-165.076-34.618-370.142 91.431-498.885 121.232-130.496 320.975-178.393 488.26-117.335 173.37 59.037 301.361 229.297 308.319 412.546 11.67 180.065-94.268 359.711-256.477 438.146-63.517 31.697-134.446 48.226-205.421 48.125zM512 860.5c179.641 3.124 350.492-125.918 396.873-299.465 48.515-163.454-17.107-352.702-157.953-449.512-146.306-107.537-363.27-99.757-501.431 18.078-139.207 110.99-189.037 316.288-117.614 479.091 61.904 150.506 217.294 253.719 380.125 251.808zM512 677.523c-73.498-53.353-146.994-106.709-220.491-160.063 28.073-86.328 56.146-172.656 84.22-258.983 90.847 0 181.694 0 272.541 0 28.073 86.328 56.147 172.656 84.22 258.983-73.495 53.354-146.992 106.709-220.488 160.063zM512 646.635c63.696-46.24 127.393-92.48 191.089-138.72-24.329-74.817-48.659-149.635-72.988-224.452-78.733 0-157.466 0-236.199 0-24.33 74.817-48.66 149.635-72.989 224.452 63.696 46.24 127.391 92.48 191.087 138.72z" />
<glyph unicode="&#xe909;" glyph-name="start-event-message" d="M512 910.5c-181.878 2.467-357.124-114.585-426.113-282.596-72.059-165.076-34.618-370.142 91.431-498.885 121.232-130.496 320.975-178.393 488.26-117.335 173.37 59.037 301.361 229.297 308.319 412.546 11.67 180.065-94.268 359.711-256.477 438.146-63.517 31.697-134.446 48.226-205.421 48.125zM512 860.5c179.641 3.124 350.492-125.918 396.873-299.465 48.515-163.454-17.107-352.702-157.953-449.512-146.306-107.537-363.27-99.757-501.431 18.078-139.207 110.99-189.037 316.288-117.614 479.091 61.904 150.506 217.294 253.719 380.125 251.808zM302.188 608.024c0-106.683 0-213.366 0-320.049 139.875 0 279.75 0 419.625 0 0 106.683 0 213.366 0 320.049-139.875 0-279.75 0-419.625 0zM395.404 558.022c77.719 0 155.438 0 233.157 0-41.298-25.412-82.6-81.199-123.893-87.286-36.42 29.097-72.842 58.191-109.265 87.286zM671.873 528.586c0-63.536 0-127.072 0-190.608-106.582 0-213.164 0-319.746 0 0 63.531 0 127.062 0 190.594 53.275-42.576 106.548-85.155 159.826-127.729 53.309 42.578 106.613 85.162 159.92 127.743z" />
<glyph unicode="&#xe90a;" glyph-name="start-event-escalation" d="M512 910.5c-181.878 2.467-357.124-114.585-426.113-282.596-72.059-165.076-34.618-370.142 91.431-498.885 121.232-130.496 320.975-178.393 488.26-117.335 173.37 59.037 301.361 229.297 308.319 412.546 11.67 180.065-94.268 359.711-256.477 438.146-63.517 31.697-134.446 48.226-205.421 48.125zM512 860.5c179.641 3.124 350.492-125.918 396.873-299.465 48.515-163.454-17.107-352.702-157.953-449.512-146.306-107.537-363.27-99.757-501.431 18.078-139.207 110.99-189.037 316.288-117.614 479.091 61.904 150.506 217.294 253.719 380.125 251.808zM512 652.8c-48.392-134.666-79.107-274.933-127.5-409.599 44.397 44.136 83.105 93.58 127.5 137.719 42.5-45.906 85-91.813 127.5-137.719-43.309 136.28-84.191 273.318-127.5 409.599zM512.927 568.052c23.777-74.821 46.223-150.057 70-224.878-23.333 25.203-46.667 50.407-70 75.61-19.728-17.3-70.96-83.477-67.674-69.11 25.215 71.956 41.898 146.606 67.674 218.378z" />
<glyph unicode="&#xe90b;" glyph-name="start-event-error" d="M512 910.5c-181.878 2.467-357.124-114.585-426.113-282.596-72.059-165.076-34.618-370.142 91.431-498.885 121.232-130.496 320.975-178.393 488.26-117.335 173.37 59.037 301.361 229.297 308.319 412.546 11.67 180.065-94.268 359.711-256.477 438.146-63.517 31.697-134.446 48.226-205.421 48.125zM512 860.5c179.641 3.124 350.492-125.918 396.873-299.465 48.515-163.454-17.107-352.702-157.953-449.512-146.306-107.537-363.27-99.757-501.431 18.078-139.207 110.99-189.037 316.288-117.614 479.091 61.904 150.506 217.294 253.719 380.125 251.808zM689.265 645.082c-35.039-71.030-70.079-142.060-105.118-213.090-43.568 56.669-87.135 113.338-130.703 170.007-39.569-117.027-79.139-234.054-118.708-351.081 44.362 57.022 88.724 114.043 133.086 171.064 45.76-52.362 91.521-104.723 137.281-157.085 28.054 126.728 56.108 253.456 84.162 380.185zM465.066 532.652c41.426-52.521 82.853-105.042 124.279-157.563 10.346 23.033 20.693 46.065 31.039 69.098-9.905-39.852-19.811-79.704-29.716-119.556-42.283 49.74-84.565 99.48-126.848 149.221-17.154-26.52-34.309-53.039-51.463-79.559 17.569 46.12 35.139 92.24 52.708 138.359z" />
<glyph unicode="&#xe90c;" glyph-name="start-event-condition" d="M512 910.498c-255.135 0-462.5-207.36-462.5-462.497s207.364-462.502 462.5-462.502c255.136 0 462.5 207.365 462.5 462.502s-207.365 462.497-462.5 462.497zM512 860.498c228.114 0 412.5-184.382 412.5-412.497s-184.386-412.502-412.5-412.502c-228.114 0-412.5 184.387-412.5 412.502s184.386 412.497 412.5 412.497zM356.997 643.018v-390.035h310.006v390.035h-310.006zM381.94 617.982h260.023v-339.96h-260.023v339.96zM408.774 579.712v-24.942h206.356v24.942h-206.356zM408.774 504.409v-25.039h206.356v25.039h-206.356zM408.774 417.39v-24.947h206.356v24.947h-206.356zM408.774 338.778v-24.948h206.356v24.948h-206.356z" />
<glyph unicode="&#xe90d;" glyph-name="start-event-compensation" d="M512 910.5c-181.878 2.467-357.124-114.585-426.113-282.596-72.059-165.076-34.618-370.142 91.431-498.885 121.232-130.496 320.975-178.393 488.26-117.335 173.37 59.037 301.361 229.297 308.319 412.546 11.67 180.065-94.268 359.711-256.477 438.146-63.517 31.697-134.446 48.226-205.421 48.125zM512 860.5c179.641 3.124 350.492-125.918 396.873-299.465 48.515-163.454-17.107-352.702-157.953-449.512-146.306-107.537-363.27-99.757-501.431 18.078-139.207 110.99-189.037 316.288-117.614 479.091 61.904 150.506 217.294 253.719 380.125 251.808zM495.638 599.413c-71.462-50.455-142.924-100.909-214.387-151.364 71.467-50.48 142.924-100.976 214.387-151.462 0 48.786 0 97.572 0 146.357 69.009-48.826 138.079-97.565 207.111-146.357 0 100.942 0 201.884 0 302.826-69.037-48.755-138.074-97.51-207.111-146.266 0 48.755 0 97.51 0 146.266zM470.599 551.226c0-68.722 0-137.444 0-206.166-48.691 34.362-97.383 68.724-146.074 103.086 48.691 34.36 97.383 68.72 146.074 103.080zM677.806 551.226c0-68.786 0-137.573 0-206.359-48.691 34.394-97.383 68.788-146.074 103.183 48.691 34.392 97.383 68.784 146.074 103.177z" />
<glyph unicode="&#xe90e;" glyph-name="intermediate-event" d="M507.458 910.31c-206.279 1.693-400.385-153.16-445.701-354.275-43.718-177.15 28.324-376.253 177.503-482.144 148.278-109.597 362.975-118.764 518.21-18.025 152.53 94.794 240.991 282.547 211.937 460.486-26.151 180.551-167.503 338.485-345.744 380.224-37.948 9.496-77.094 14.010-116.204 13.734zM515.926 860.347c191.68 1.935 370.991-148.951 401.88-338.214 32.698-170.967-55.216-357.241-210.101-437.947-158.357-87.15-372.241-54.511-495.199 78.873-126.061 130.108-150.553 345.877-53.409 499.545 73.846 121.846 213.929 201.023 356.829 197.744zM503.927 815.342c-176.5 0-338.235-146.073-357.195-321.553-22.577-164.441 80.865-335.95 237.783-391.157 148.661-56.18 330.276-2.903 423.073 126.732 100.14 132.61 94.379 333.822-17.254 458.023-70.457 82.032-178.053 131.047-286.406 127.956zM518.603 766.371c156.231 0 298.605-131.831 310.528-287.651 16.288-148.429-85.574-299.842-230.609-337.851-139.779-40.772-302.509 27.042-368.733 157.548-71.278 131.898-34.725 312.323 87.175 401.67 57.119 44.163 129.443 67.983 201.639 66.285z" />
<glyph unicode="&#xe90f;" glyph-name="intermediate-event-throw-signal" d="M511.125 910.32c-225.139 4.596-435.225-180.473-458.643-404.596-24.749-189.549 79.314-389.479 252.923-472.086 163.932-82.375 376.507-57.568 512.464 67.446 137.296 120.414 194.659 325.312 131.14 497.886-58.401 170.096-221.738 299.644-402.399 310.006-11.806 0.871-23.646 1.355-35.486 1.355zM505.884 860.439c206.446 7.774 400.476-164.373 416.653-370.515 19.868-181.804-94.52-370.148-268.594-430.062-169.216-62.57-376.928-1.742-479.129 148.767-104.894 146.929-100.728 363.81 18.29 501.654 76.176 91.756 193.057 149.711 312.779 150.156zM514.082 815.478c-190.977 6.076-366.675-161.592-370.125-352.577-8.419-172.583 119.489-341.949 290.36-374.821 158.322-34.657 335.221 46.678 405.858 193.941 73.054 143.823 40.382 335.22-84.263 440.279-66.044 58.502-153.402 93.081-241.831 93.178zM511.835 766.453c168.354 4.451 321.684-147.055 318.984-315.574 2.976-155.787-122.41-303.848-278.829-319.555-146.858-19.283-301.698 74.887-343.92 218.555-44.257 136.881 13.889 301.748 141.433 372.228 48.902 28.808 105.55 44.439 162.333 44.347zM512 664.592c-65.443-117.801-131.166-235.448-196.719-353.187 131.146 0 262.292 0 393.438 0-65.573 117.729-131.146 235.458-196.719 353.187z" />
<glyph unicode="&#xe910;" glyph-name="intermediate-event-throw-multiple" d="M511.125 910.32c-225.139 4.596-435.225-180.473-458.643-404.596-24.749-189.549 79.314-389.479 252.923-472.086 163.932-82.375 376.507-57.568 512.464 67.446 137.296 120.414 194.659 325.312 131.14 497.886-58.401 170.096-221.738 299.644-402.399 310.006-11.806 0.871-23.646 1.355-35.486 1.355zM505.884 860.439c206.446 7.774 400.476-164.373 416.653-370.515 19.868-181.804-94.52-370.148-268.594-430.062-169.216-62.57-376.928-1.742-479.129 148.767-104.894 146.929-100.728 363.81 18.29 501.654 76.176 91.756 193.057 149.711 312.779 150.156zM514.082 815.478c-190.977 6.076-366.675-161.592-370.125-352.577-8.419-172.583 119.489-341.949 290.36-374.821 158.322-34.657 335.221 46.678 405.858 193.941 73.054 143.823 40.382 335.22-84.263 440.279-66.044 58.502-153.402 93.081-241.831 93.178zM511.835 766.453c168.354 4.451 321.684-147.055 318.984-315.574 2.976-155.787-122.41-303.848-278.829-319.555-146.858-19.283-301.698 74.887-343.92 218.555-44.257 136.881 13.889 301.748 141.433 372.228 48.902 28.808 105.55 44.439 162.333 44.347zM512 677.513c-73.5-53.35-146.995-106.704-220.492-160.058 28.073-86.328 56.147-172.656 84.22-258.978 90.848 0 181.695 0 272.543 0 28.073 86.323 56.147 172.651 84.22 258.978-73.497 53.354-146.993 106.704-220.49 160.058z" />
<glyph unicode="&#xe911;" glyph-name="intermediate-event-throw-message" d="M511.125 910.32c-225.139 4.596-435.225-180.473-458.643-404.596-24.749-189.549 79.314-389.479 252.923-472.086 163.932-82.375 376.507-57.568 512.464 67.446 137.296 120.414 194.659 325.312 131.14 497.886-58.401 170.096-221.738 299.644-402.399 310.006-11.806 0.871-23.646 1.355-35.486 1.355zM505.884 860.439c206.446 7.774 400.476-164.373 416.653-370.515 19.868-181.804-94.52-370.148-268.594-430.062-169.216-62.57-376.928-1.742-479.129 148.767-104.894 146.929-100.728 363.81 18.29 501.654 76.176 91.756 193.057 149.711 312.779 150.156zM514.082 815.478c-190.977 6.076-366.675-161.592-370.125-352.577-8.419-172.583 119.489-341.949 290.36-374.821 158.322-34.657 335.221 46.678 405.858 193.941 73.054 143.823 40.382 335.22-84.263 440.279-66.044 58.502-153.402 93.081-241.831 93.178zM511.835 766.453c168.354 4.451 321.684-147.055 318.984-315.574 2.976-155.787-122.41-303.848-278.829-319.555-146.858-19.283-301.698 74.887-343.92 218.555-44.257 136.881 13.889 301.748 141.433 372.228 48.902 28.808 105.55 44.439 162.333 44.347zM340.789 608.001c58.273-47.273 116.547-94.547 174.82-141.82 58.273 47.273 116.547 94.547 174.82 141.82-116.547 0-233.094 0-349.641 0zM301.999 575.090c0-95.698 0-191.397 0-287.095 140.001 0 280.001 0 420.002 0 0 93.749 0 187.493 0 281.241-68.797-55.817-137.594-111.629-206.392-167.445-71.203 57.766-142.407 115.533-213.61 173.299z" />
<glyph unicode="&#xe912;" glyph-name="intermediate-event-throw-link" d="M511.125 910.32c-225.139 4.596-435.225-180.473-458.643-404.596-24.749-189.549 79.314-389.479 252.923-472.086 163.932-82.375 376.507-57.568 512.464 67.446 137.296 120.414 194.659 325.312 131.14 497.886-58.401 170.096-221.738 299.644-402.399 310.006-11.806 0.871-23.646 1.355-35.486 1.355zM505.884 860.439c206.446 7.774 400.476-164.373 416.653-370.515 19.868-181.804-94.52-370.148-268.594-430.062-169.216-62.57-376.928-1.742-479.129 148.767-104.894 146.929-100.728 363.81 18.29 501.654 76.176 91.756 193.057 149.711 312.779 150.156zM514.082 815.478c-190.977 6.076-366.675-161.592-370.125-352.577-8.419-172.583 119.489-341.949 290.36-374.821 158.322-34.657 335.221 46.678 405.858 193.941 73.054 143.823 40.382 335.22-84.263 440.279-66.044 58.502-153.402 93.081-241.831 93.178zM511.835 766.453c168.354 4.451 321.684-147.055 318.984-315.574 2.976-155.787-122.41-303.848-278.829-319.555-146.858-19.283-301.698 74.887-343.92 218.555-44.257 136.881 13.889 301.748 141.433 372.228 48.902 28.808 105.55 44.439 162.333 44.347zM563.325 647.999c0-34.294 0-68.583 0-102.877-77.108 0-154.217 0-231.325 0 0-64.752 0-129.509 0-194.265 77.108 0 154.217 0 231.325 0 0-34.284 0-68.574 0-102.858 56.225 66.663 112.45 133.33 168.675 199.998-56.225 66.668-112.45 133.335-168.675 200.003z" />
<glyph unicode="&#xe913;" glyph-name="intermediate-event-throw-escalation" d="M511.125 910.32c-225.139 4.596-435.225-180.473-458.643-404.596-24.749-189.549 79.314-389.479 252.923-472.086 163.932-82.375 376.507-57.568 512.464 67.446 137.296 120.414 194.659 325.312 131.14 497.886-58.401 170.096-221.738 299.644-402.399 310.006-11.806 0.871-23.646 1.355-35.486 1.355zM505.884 860.439c206.446 7.774 400.476-164.373 416.653-370.515 19.868-181.804-94.52-370.148-268.594-430.062-169.216-62.57-376.928-1.742-479.129 148.767-104.894 146.929-100.728 363.81 18.29 501.654 76.176 91.756 193.057 149.711 312.779 150.156zM514.082 815.478c-190.977 6.076-366.675-161.592-370.125-352.577-8.419-172.583 119.489-341.949 290.36-374.821 158.322-34.657 335.221 46.678 405.858 193.941 73.054 143.823 40.382 335.22-84.263 440.279-66.044 58.502-153.402 93.081-241.831 93.178zM511.835 766.453c168.354 4.451 321.684-147.055 318.984-315.574 2.976-155.787-122.41-303.848-278.829-319.555-146.858-19.283-301.698 74.887-343.92 218.555-44.257 136.881 13.889 301.748 141.433 372.228 48.902 28.808 105.55 44.439 162.333 44.347zM512 652.798c-48.392-134.666-79.107-274.933-127.5-409.599 44.397 44.134 83.105 93.579 127.5 137.713 42.5-45.904 85-91.809 127.5-137.713-43.309 136.276-84.191 273.317-127.5 409.599z" />
<glyph unicode="&#xe914;" glyph-name="intermediate-event-throw-compensation" d="M511.125 910.32c-225.139 4.596-435.225-180.473-458.643-404.596-24.749-189.549 79.314-389.479 252.923-472.086 163.932-82.375 376.507-57.568 512.464 67.446 137.296 120.414 194.659 325.312 131.14 497.886-58.401 170.096-221.738 299.644-402.399 310.006-11.806 0.871-23.646 1.355-35.486 1.355zM505.884 860.439c206.446 7.774 400.476-164.373 416.653-370.515 19.868-181.804-94.52-370.148-268.594-430.062-169.216-62.57-376.928-1.742-479.129 148.767-104.894 146.929-100.728 363.81 18.29 501.654 76.176 91.756 193.057 149.711 312.779 150.156zM514.082 815.478c-190.977 6.076-366.675-161.592-370.125-352.577-8.419-172.583 119.489-341.949 290.36-374.821 158.322-34.657 335.221 46.678 405.858 193.941 73.054 143.823 40.382 335.22-84.263 440.279-66.044 58.502-153.402 93.081-241.831 93.178zM511.835 766.453c168.354 4.451 321.684-147.055 318.984-315.574 2.976-155.787-122.41-303.848-278.829-319.555-146.858-19.283-301.698 74.887-343.92 218.555-44.257 136.881 13.889 301.748 141.433 372.228 48.902 28.808 105.55 44.439 162.333 44.347zM495.638 599.409c-71.462-50.452-142.925-100.908-214.387-151.365 71.468-50.476 142.924-100.971 214.387-151.462 0 48.788 0 97.575 0 146.358 69.009-48.826 138.079-97.566 207.111-146.358 0 100.942 0 201.885 0 302.827-69.037-48.754-138.074-97.508-207.111-146.261 0 48.754 0 97.508 0 146.261z" />
<glyph unicode="&#xe915;" glyph-name="intermediate-event-none" d="M507.458 910.31c-223.84 2.709-431.649-181.745-454.977-404.582-24.749-189.549 79.314-389.484 252.923-472.091 163.932-82.371 376.507-57.563 512.463 67.451 137.296 120.414 194.659 325.307 131.14 497.881-57.939 168.485-218.717 297.481-397.602 309.619-14.612 1.258-29.283 1.838-43.949 1.742zM515.926 860.347c205.818 2.854 395.345-172.757 407.361-378.507 16.184-182.268-101.768-368.493-277.283-424.76-167.771-57.989-370.568 3.483-471.19 151.549-105.196 147.316-100.652 364.937 19.191 502.738 78.318 93.696 199.268 151.839 321.922 148.98zM503.927 815.342c-190.090 0.726-360.856-169.961-360.214-360.163-4.603-172.597 126.315-339.279 297.856-368.551 156.508-30.816 329.021 50.457 398.606 195.392 73.328 144.307 40.1 336.458-85.45 441.329-68.43 60.098-159.506 94.629-250.798 91.993zM518.603 766.371c168.415 0.774 318.681-153.871 312.218-322.439-0.701-153.349-124.813-297.080-278.831-312.604-146.858-19.283-301.698 74.882-343.919 218.55-44.419 137.302 14.29 302.691 142.526 372.871 50.597 29.539 109.4 45.005 168.007 43.621z" />
<glyph unicode="&#xe917;" glyph-name="intermediate-event-catch-timer" d="M511.125 910.323c-1.222 0.001-2.445-0.003-3.667-0.012-206.279 1.693-400.385-153.16-445.701-354.275-43.718-177.15 28.324-376.252 177.503-482.144 148.278-109.597 362.976-118.764 518.21-18.025 152.53 94.794 240.991 282.548 211.937 460.486-26.151 180.551-167.504 338.484-345.744 380.224-36.763 9.2-74.649 13.723-112.537 13.746zM505.884 860.443c3.345 0.013 6.693-0.018 10.042-0.095 191.68 1.935 370.991-148.952 401.881-338.215 32.698-170.967-55.216-357.241-210.102-437.947-158.357-87.15-372.241-54.51-495.198 78.873-126.061 130.109-150.553 345.877-53.409 499.545 72.115 118.99 207.398 197.289 346.786 197.839zM514.082 815.481c-3.383 0.005-6.769-0.041-10.155-0.138-176.5 0-338.234-146.073-357.195-321.554-22.577-164.441 80.865-335.95 237.783-391.157 148.661-56.18 330.275-2.903 423.072 126.731 100.14 132.61 94.38 333.822-17.253 458.023-68.255 79.468-171.365 127.952-276.252 128.094zM511.835 766.457c2.256-0.003 4.511-0.032 6.768-0.085 156.231 0 298.606-131.831 310.528-287.651 16.288-148.429-85.574-299.841-230.609-337.851-139.779-40.772-302.508 27.042-368.732 157.547-71.278 131.898-34.726 312.323 87.175 401.67 55.334 42.783 124.938 66.475 194.871 66.37zM507.855 667.525c-85.764-0.606-167.55-56.942-199.159-136.643-32.895-77.9-14.71-173.785 44.442-234.221 57.513-61.915 152.277-84.732 231.653-55.714 83.18 28.337 144.286 110.615 146.488 198.595 4.431 85.473-46.937 169.985-124.279 206.283-29.513 14.289-62.273 21.729-95.059 21.686-1.363 0.019-2.726 0.023-4.087 0.014zM515.677 627.539c78.353-0.351 151.857-58.26 170.129-134.588 20.349-74.509-13.935-159.468-80.681-198.508-68.15-42.772-164.235-31.372-220.197 26.555-59.057 56.972-69.574 155.543-24.266 223.867 32.089 50.973 91.025 83.233 151.28 82.646 1.246 0.024 2.491 0.033 3.734 0.027zM568.652 576.503c-19.984-36.255-39.967-72.509-59.951-108.764-18.516-1.969-22.915-30.061-5.831-37.553 11.285-7.833 20.124 5.196 30.397 4.747h91.646v25h-91.969c19.201 34.834 38.402 69.668 57.603 104.502-7.298 4.022-14.596 8.045-21.895 12.067z" />
<glyph unicode="&#xe918;" glyph-name="intermediate-event-catch-signal" d="M511.125 910.32c-225.139 4.596-435.225-180.473-458.643-404.596-24.749-189.549 79.314-389.479 252.923-472.086 163.932-82.375 376.507-57.568 512.464 67.446 137.296 120.414 194.659 325.312 131.14 497.886-58.401 170.096-221.738 299.644-402.399 310.006-11.806 0.871-23.646 1.355-35.486 1.355zM505.884 860.439c206.446 7.774 400.476-164.373 416.653-370.515 19.868-181.804-94.52-370.148-268.594-430.062-169.216-62.57-376.928-1.742-479.129 148.767-104.894 146.929-100.728 363.81 18.29 501.654 76.176 91.756 193.057 149.711 312.779 150.156zM514.082 815.478c-190.977 6.076-366.675-161.592-370.125-352.577-8.419-172.583 119.489-341.949 290.36-374.821 158.322-34.657 335.221 46.678 405.858 193.941 73.054 143.823 40.382 335.22-84.263 440.279-66.044 58.502-153.402 93.081-241.831 93.178zM511.835 766.453c168.354 4.451 321.684-147.055 318.984-315.574 2.976-155.787-122.41-303.848-278.829-319.555-146.858-19.283-301.698 74.887-343.92 218.555-44.257 136.881 13.889 301.748 141.433 372.228 48.902 28.808 105.55 44.439 162.333 44.347zM512 664.553c-65.581-117.705-131.154-235.414-196.732-353.124 131.155 0 262.311 0 393.466 0-65.578 117.71-131.156 235.419-196.733 353.124zM512 613.187c51.396-92.249 102.791-184.503 154.187-276.757-102.791 0-205.582 0-308.373 0 51.396 92.254 102.791 184.508 154.187 276.757z" />
<glyph unicode="&#xe919;" glyph-name="intermediate-event-catch-parallel-multiple" d="M511.125 910.323c-225.139 4.61-435.224-180.471-458.643-404.594-24.749-189.549 79.314-389.482 252.923-472.088 163.932-82.375 376.507-57.567 512.464 67.447 137.296 120.414 194.659 325.31 131.14 497.886-58.4 170.097-221.738 299.641-402.398 310.005-11.806 0.892-23.646 1.338-35.486 1.345zM505.884 860.443c206.446 7.774 400.476-164.374 416.653-370.516 19.868-181.803-94.52-370.146-268.594-430.063-169.216-62.571-376.928-1.722-479.129 148.768-104.894 146.929-100.728 363.81 18.29 501.654 76.176 91.757 193.057 149.71 312.779 150.157zM514.082 815.481c-190.976 6.074-366.675-161.59-370.125-352.577-8.419-172.584 119.489-341.952 290.36-374.821 158.322-34.659 335.221 46.68 405.858 193.94 73.054 143.822 40.382 335.22-84.263 440.279-66.044 58.502-153.402 93.079-241.831 93.179zM511.835 766.457c168.354 4.458 321.684-147.054 318.984-315.573 2.976-155.787-122.411-303.848-278.829-319.555-146.858-19.282-301.697 74.885-343.919 218.552-44.257 136.883 13.888 301.748 141.432 372.227 48.902 28.811 105.549 44.439 162.333 44.349zM449.593 671.504c0-53.38 0-106.76 0-160.141-54.361 0-108.721 0-163.082 0 0-42.244 0-84.488 0-126.731 54.361 0 108.721 0 163.082 0 0-53.379 0-106.757 0-160.136 41.574 0 83.147 0 124.721 0 0 53.379 0 106.757 0 160.136 54.392 0 108.784 0 163.176 0 0 42.244 0 84.488 0 126.731-54.392 0-108.784 0-163.176 0 0 53.38 0 106.76 0 160.141-41.574 0-83.147 0-124.721 0zM474.631 646.465c24.913 0 49.826 0 74.738 0 0-53.379 0-106.757 0-160.136 54.36 0 108.721 0 163.081 0 0-25.553 0-51.105 0-76.658-54.36 0-108.721 0-163.081 0 0-53.378 0-106.756 0-160.135-24.913 0-49.826 0-74.738 0 0 53.378 0 106.757 0 160.135-54.392 0-108.784 0-163.176 0 0 25.553 0 51.105 0 76.658 54.392 0 108.784 0 163.176 0 0 53.379 0 106.757 0 160.136z" />
<glyph unicode="&#xe91a;" glyph-name="intermediate-event-catch-multiple" d="M511.125 910.32c-225.139 4.596-435.225-180.473-458.643-404.596-24.749-189.549 79.314-389.479 252.923-472.086 163.932-82.375 376.507-57.568 512.464 67.446 137.296 120.414 194.659 325.312 131.14 497.886-58.401 170.096-221.738 299.644-402.399 310.006-11.806 0.871-23.646 1.355-35.486 1.355zM505.884 860.439c206.446 7.774 400.476-164.373 416.653-370.515 19.868-181.804-94.52-370.148-268.594-430.062-169.216-62.57-376.928-1.742-479.129 148.767-104.894 146.929-100.728 363.81 18.29 501.654 76.176 91.756 193.057 149.711 312.779 150.156zM514.082 815.478c-190.977 6.076-366.675-161.592-370.125-352.577-8.419-172.583 119.489-341.949 290.36-374.821 158.322-34.657 335.221 46.678 405.858 193.941 73.054 143.823 40.382 335.22-84.263 440.279-66.044 58.502-153.402 93.081-241.831 93.178zM511.835 766.453c168.354 4.451 321.684-147.055 318.984-315.574 2.976-155.787-122.41-303.848-278.829-319.555-146.858-19.283-301.698 74.887-343.92 218.555-44.257 136.881 13.889 301.748 141.433 372.228 48.902 28.808 105.55 44.439 162.333 44.347zM512 677.518c-73.498-53.35-146.994-106.709-220.491-160.058 28.073-86.328 56.146-172.656 84.22-258.983 90.847 0 181.694 0 272.541 0 28.073 86.328 56.147 172.656 84.22 258.983-73.496 53.354-146.993 106.704-220.489 160.058zM511.998 646.634c63.696-46.243 127.393-92.481 191.089-138.719-24.329-74.819-48.659-149.638-72.988-224.452-78.733 0-157.466 0-236.199 0-24.329 74.814-48.659 149.633-72.988 224.452 63.696 46.238 127.391 92.476 191.087 138.719z" />
<glyph unicode="&#xe91b;" glyph-name="intermediate-event-catch-message" d="M511.125 910.32c-225.139 4.596-435.225-180.473-458.643-404.596-24.749-189.549 79.314-389.479 252.923-472.086 163.932-82.375 376.507-57.568 512.464 67.446 137.296 120.414 194.659 325.312 131.14 497.886-58.401 170.096-221.738 299.644-402.399 310.006-11.806 0.871-23.646 1.355-35.486 1.355zM505.884 860.439c206.446 7.774 400.476-164.373 416.653-370.515 19.868-181.804-94.52-370.148-268.594-430.062-169.216-62.57-376.928-1.742-479.129 148.767-104.894 146.929-100.728 363.81 18.29 501.654 76.176 91.756 193.057 149.711 312.779 150.156zM514.082 815.478c-190.977 6.076-366.675-161.592-370.125-352.577-8.419-172.583 119.489-341.949 290.36-374.821 158.322-34.657 335.221 46.678 405.858 193.941 73.054 143.823 40.382 335.22-84.263 440.279-66.044 58.502-153.402 93.081-241.831 93.178zM511.835 766.453c168.354 4.451 321.684-147.055 318.984-315.574 2.976-155.787-122.41-303.848-278.829-319.555-146.858-19.283-301.698 74.887-343.92 218.555-44.257 136.881 13.889 301.748 141.433 372.228 48.902 28.808 105.55 44.439 162.333 44.347zM302.188 608.025c0-106.685 0-213.369 0-320.049 139.875 0 279.75 0 419.625 0 0 106.68 0 213.364 0 320.049-139.875 0-279.75 0-419.625 0zM395.404 558.023c77.719 0 155.438 0 233.157 0-41.298-25.417-82.601-81.2-123.894-87.29-36.42 29.098-72.842 58.192-109.264 87.29zM671.873 528.586c0-63.533 0-127.070 0-190.603-106.582 0-213.164 0-319.746 0 0 63.528 0 127.061 0 190.589 53.275-42.576 106.548-85.152 159.825-127.723 53.309 42.576 106.614 85.157 159.921 127.738z" />
<glyph unicode="&#xe91c;" glyph-name="intermediate-event-catch-link" d="M511.125 910.32c-225.139 4.596-435.225-180.473-458.643-404.596-24.749-189.549 79.314-389.479 252.923-472.086 163.932-82.375 376.507-57.568 512.464 67.446 137.296 120.414 194.659 325.312 131.14 497.886-58.401 170.096-221.738 299.644-402.399 310.006-11.806 0.871-23.646 1.355-35.486 1.355zM505.884 860.439c206.446 7.774 400.476-164.373 416.653-370.515 19.868-181.804-94.52-370.148-268.594-430.062-169.216-62.57-376.928-1.742-479.129 148.767-104.894 146.929-100.728 363.81 18.29 501.654 76.176 91.756 193.057 149.711 312.779 150.156zM514.082 815.478c-190.977 6.076-366.675-161.592-370.125-352.577-8.419-172.583 119.489-341.949 290.36-374.821 158.322-34.657 335.221 46.678 405.858 193.941 73.054 143.823 40.382 335.22-84.263 440.279-66.044 58.502-153.402 93.081-241.831 93.178zM511.835 766.453c168.354 4.451 321.684-147.055 318.984-315.574 2.976-155.787-122.41-303.848-278.829-319.555-146.858-19.283-301.698 74.887-343.92 218.555-44.257 136.881 13.889 301.748 141.433 372.228 48.902 28.808 105.55 44.439 162.333 44.347zM563.325 647.999c0-34.289 0-68.578 0-102.873-77.108 0-154.217 0-231.325 0 0-64.752 0-129.509 0-194.265 77.108 0 154.217 0 231.325 0 0-34.284 0-68.574 0-102.858 56.225 66.663 112.45 133.325 168.675 199.993-56.225 66.668-112.45 133.335-168.675 200.003zM591.503 573.218c34.828-41.42 69.656-82.84 104.483-124.26-34.828-41.42-69.656-82.84-104.483-124.26 0 18.644 0 37.289 0 55.938-76.011 0-152.023 0-228.034 0 0 45.213 0 90.425 0 135.638 76.011 0 152.023 0 228.034 0 0 18.978 0 37.961 0 56.944z" />
<glyph unicode="&#xe91d;" glyph-name="intermediate-event-catch-escalation" d="M511.125 910.32c-225.139 4.596-435.225-180.473-458.643-404.596-24.749-189.549 79.314-389.479 252.923-472.086 163.932-82.375 376.507-57.568 512.464 67.446 137.296 120.414 194.659 325.312 131.14 497.886-58.401 170.096-221.738 299.644-402.399 310.006-11.806 0.871-23.646 1.355-35.486 1.355zM505.884 860.439c206.446 7.774 400.476-164.373 416.653-370.515 19.868-181.804-94.52-370.148-268.594-430.062-169.216-62.57-376.928-1.742-479.129 148.767-104.894 146.929-100.728 363.81 18.29 501.654 76.176 91.756 193.057 149.711 312.779 150.156zM514.082 815.478c-190.977 6.076-366.675-161.592-370.125-352.577-8.419-172.583 119.489-341.949 290.36-374.821 158.322-34.657 335.221 46.678 405.858 193.941 73.054 143.823 40.382 335.22-84.263 440.279-66.044 58.502-153.402 93.081-241.831 93.178zM511.835 766.453c168.354 4.451 321.684-147.055 318.984-315.574 2.976-155.787-122.41-303.848-278.829-319.555-146.858-19.283-301.698 74.887-343.92 218.555-44.257 136.881 13.889 301.748 141.433 372.228 48.902 28.808 105.55 44.439 162.333 44.347zM512 652.798c-48.392-134.666-79.107-274.933-127.5-409.599 44.398 44.134 83.105 93.579 127.5 137.718 42.5-45.904 85-91.814 127.5-137.718-43.309 136.276-84.191 273.317-127.5 409.599zM512.926 568.052c23.777-74.824 46.223-150.059 70-224.878-23.333 25.204-46.667 50.403-70 75.608-19.728-17.299-70.958-83.478-67.674-69.111 25.215 71.955 41.898 146.605 67.674 218.381z" />
<glyph unicode="&#xe91e;" glyph-name="intermediate-event-catch-error" d="M511.125 910.32c-225.139 4.596-435.225-180.473-458.643-404.596-24.749-189.549 79.314-389.479 252.923-472.086 163.932-82.375 376.507-57.568 512.464 67.446 137.296 120.414 194.659 325.312 131.14 497.886-58.401 170.096-221.738 299.644-402.399 310.006-11.806 0.871-23.646 1.355-35.486 1.355zM505.884 860.439c206.446 7.774 400.476-164.373 416.653-370.515 19.868-181.804-94.52-370.148-268.594-430.062-169.216-62.57-376.928-1.742-479.129 148.767-104.894 146.929-100.728 363.81 18.29 501.654 76.176 91.756 193.057 149.711 312.779 150.156zM514.082 815.478c-190.977 6.076-366.675-161.592-370.125-352.577-8.419-172.583 119.489-341.949 290.36-374.821 158.322-34.657 335.221 46.678 405.858 193.941 73.054 143.823 40.382 335.22-84.263 440.279-66.044 58.502-153.402 93.081-241.831 93.178zM511.835 766.453c168.354 4.451 321.684-147.055 318.984-315.574 2.976-155.787-122.41-303.848-278.829-319.555-146.858-19.283-301.698 74.887-343.92 218.555-44.257 136.881 13.889 301.748 141.433 372.228 48.902 28.808 105.55 44.439 162.333 44.347zM689.265 645.077c-35.039-71.026-70.079-142.057-105.118-213.084-43.568 56.668-87.135 113.336-130.703 170.005-39.569-117.027-79.139-234.055-118.708-351.082 44.362 57.021 88.724 114.043 133.086 171.064 45.76-52.358 91.521-104.72 137.281-157.083 28.054 126.727 56.108 253.454 84.162 380.181zM465.066 532.65c41.426-52.517 82.853-105.040 124.279-157.557 10.346 23.032 20.693 46.059 31.039 69.091-9.905-39.853-19.811-79.705-29.716-119.558-42.283 49.741-84.565 99.486-126.848 149.227-17.154-26.52-34.309-53.040-51.463-79.565 17.569 46.122 35.139 92.244 52.708 138.361z" />
<glyph unicode="&#xe91f;" glyph-name="intermediate-event-catch-condition" d="M511.125 910.323c-1.222 0.001-2.445-0.003-3.667-0.012-206.279 1.693-400.385-153.16-445.701-354.275-43.718-177.15 28.324-376.252 177.503-482.144 148.278-109.597 362.976-118.764 518.21-18.025 152.53 94.794 240.991 282.548 211.937 460.486-26.151 180.551-167.504 338.484-345.744 380.224-36.763 9.2-74.649 13.723-112.537 13.746zM505.884 860.443c3.345 0.013 6.693-0.018 10.042-0.095 191.68 1.935 370.991-148.952 401.881-338.215 32.698-170.967-55.216-357.241-210.102-437.947-158.357-87.15-372.241-54.51-495.198 78.873-126.061 130.109-150.553 345.877-53.409 499.545 72.115 118.99 207.398 197.289 346.786 197.839zM514.082 815.481c-3.383 0.005-6.769-0.041-10.155-0.138-176.5 0-338.234-146.073-357.195-321.554-22.577-164.441 80.865-335.95 237.783-391.157 148.661-56.18 330.275-2.903 423.072 126.731 100.14 132.61 94.38 333.822-17.253 458.023-68.255 79.468-171.365 127.952-276.252 128.094zM511.835 766.457c2.256-0.003 4.511-0.032 6.768-0.085 156.231 0 298.606-131.831 310.528-287.651 16.288-148.429-85.574-299.841-230.609-337.851-139.779-40.772-302.508 27.042-368.732 157.547-71.278 131.898-34.726 312.323 87.175 401.67 55.334 42.783 124.938 66.475 194.871 66.37zM356.997 643.018v-390.035h310.006v390.035h-310.006zM381.94 617.982h260.023v-339.96h-260.023v339.96zM408.774 579.712v-24.942h206.356v24.942h-206.356zM408.774 504.409v-25.039h206.356v25.039h-206.356zM408.774 417.39v-24.947h206.356v24.947h-206.356zM408.774 338.778v-24.948h206.356v24.948h-206.356z" />
<glyph unicode="&#xe920;" glyph-name="intermediate-event-catch-compensation" d="M511.125 910.32c-225.139 4.596-435.225-180.473-458.643-404.596-24.749-189.549 79.314-389.479 252.923-472.086 163.932-82.375 376.507-57.568 512.464 67.446 137.296 120.414 194.659 325.312 131.14 497.886-58.401 170.096-221.738 299.644-402.399 310.006-11.806 0.871-23.646 1.355-35.486 1.355zM505.884 860.439c206.446 7.774 400.476-164.373 416.653-370.515 19.868-181.804-94.52-370.148-268.594-430.062-169.216-62.57-376.928-1.742-479.129 148.767-104.894 146.929-100.728 363.81 18.29 501.654 76.176 91.756 193.057 149.711 312.779 150.156zM514.082 815.478c-190.977 6.076-366.675-161.592-370.125-352.577-8.419-172.583 119.489-341.949 290.36-374.821 158.322-34.657 335.221 46.678 405.858 193.941 73.054 143.823 40.382 335.22-84.263 440.279-66.044 58.502-153.402 93.081-241.831 93.178zM511.835 766.453c168.354 4.451 321.684-147.055 318.984-315.574 2.976-155.787-122.41-303.848-278.829-319.555-146.858-19.283-301.698 74.887-343.92 218.555-44.257 136.881 13.889 301.748 141.433 372.228 48.902 28.808 105.55 44.439 162.333 44.347zM495.638 599.409c-71.462-50.452-142.925-100.908-214.387-151.365 71.468-50.476 142.924-100.971 214.387-151.462 0 48.788 0 97.575 0 146.358 69.009-48.826 138.079-97.566 207.111-146.358 0 100.942 0 201.885 0 302.827-69.037-48.754-138.074-97.508-207.111-146.261 0 48.754 0 97.508 0 146.261zM470.599 551.226c0-68.724 0-137.447 0-206.166-48.691 34.357-97.383 68.719-146.074 103.081 48.691 34.362 97.383 68.724 146.074 103.085zM677.806 551.226c0-68.786 0-137.573 0-206.359-48.691 34.391-97.383 68.786-146.074 103.177 48.691 34.396 97.383 68.786 146.074 103.182z" />
<glyph unicode="&#xe921;" glyph-name="intermediate-event-catch-cancel" d="M511.125 910.323c-225.139 4.61-435.224-180.471-458.643-404.594-24.749-189.549 79.314-389.482 252.923-472.088 163.932-82.375 376.507-57.567 512.464 67.447 137.296 120.414 194.659 325.31 131.14 497.886-58.4 170.097-221.738 299.641-402.398 310.005-11.806 0.892-23.646 1.338-35.486 1.345zM505.884 860.443c206.446 7.774 400.476-164.374 416.653-370.516 19.868-181.803-94.52-370.146-268.594-430.063-169.216-62.571-376.928-1.722-479.129 148.768-104.894 146.929-100.728 363.81 18.29 501.654 76.176 91.757 193.057 149.71 312.779 150.157zM514.082 815.481c-190.976 6.074-366.675-161.59-370.125-352.577-8.419-172.584 119.489-341.952 290.36-374.821 158.322-34.659 335.221 46.68 405.858 193.94 73.054 143.822 40.382 335.22-84.263 440.279-66.044 58.502-153.402 93.079-241.831 93.179zM511.835 766.457c168.354 4.458 321.684-147.054 318.984-315.573 2.976-155.787-122.411-303.848-278.829-319.555-146.858-19.282-301.697 74.885-343.919 218.552-44.257 136.883 13.888 301.748 141.432 372.227 48.902 28.811 105.549 44.439 162.333 44.349zM397.361 652.251c-29.871-29.871-59.742-59.742-89.612-89.612 38.438-38.439 76.877-76.878 115.315-115.316-37.744-37.744-75.488-75.489-113.232-113.233 29.397-29.397 58.794-58.794 88.19-88.19 37.744 37.744 75.489 75.489 113.233 113.233 38.461-38.461 76.922-76.922 115.383-115.383 29.871 29.871 59.742 59.742 89.612 89.612-38.461 38.461-76.922 76.922-115.383 115.383 37.745 37.746 75.491 75.492 113.236 113.237-29.397 29.397-58.794 58.794-88.19 88.19-37.745-37.745-75.491-75.491-113.236-113.236-38.439 38.438-76.878 76.877-115.316 115.315zM397.298 616.911c38.461-38.461 76.922-76.922 115.383-115.383 37.744 37.744 75.489 75.488 113.233 113.232 17.616-17.616 35.232-35.232 52.848-52.848-37.744-37.744-75.489-75.488-113.233-113.232 38.439-38.439 76.878-76.878 115.316-115.316-18.068-18.068-36.137-36.137-54.205-54.205-38.438 38.439-76.877 76.878-115.315 115.316-37.744-37.744-75.489-75.489-113.233-113.233-17.616 17.616-35.232 35.232-52.848 52.848 37.744 37.744 75.489 75.489 113.233 113.233-38.461 38.461-76.922 76.922-115.383 115.383 18.068 18.068 36.136 36.137 54.204 54.205z" />
<glyph unicode="&#xe922;" glyph-name="gateway-xor" d="M512.011 910.32c-9.662 0.008-19.323-3.575-26.49-10.775l-425.052-425.056c-14.335-14.334-14.268-38.648 0.066-52.981l424.985-424.982c14.335-14.339 38.647-14.402 52.981 0l425.053 425.050c14.335 14.334 14.268 38.648-0.067 52.982l-424.986 424.987c-7.167 7.167-16.829 10.767-26.49 10.775zM511.979 847.297l399.33-399.333-399.33-399.328-399.33 399.328 399.33 399.333zM362.843 625.104c-0.007 0-4.806-0.919-4.81-0.919s-4.072-2.757-4.075-2.757l-15.366-15.369c-0.005 0-2.805-4.113-2.807-4.161 0-0.005-0.869-4.74-0.868-4.74 0-0.005 0.934-4.692 0.936-4.692 0-0.005 2.669-4.161 2.672-4.161l140.354-140.35-140.286-140.243c0-0.005-2.805-4.16-2.807-4.16 0-0.005-0.868-4.741-0.868-4.741 0-0.010 0.934-4.692 0.936-4.692 0 0 2.669-4.112 2.672-4.16l15.367-15.364c0.005-0.005 4.205-2.758 4.209-2.758s4.673-0.919 4.677-0.919 4.739 0.87 4.743 0.87c0.005 0 4.14 2.807 4.143 2.807l140.288 140.291 140.318-140.32c0.005-0.005 4.206-2.758 4.209-2.758 0.005 0 4.673-0.919 4.677-0.919s4.74 0.871 4.744 0.871c0.005 0 4.138 2.806 4.141 2.806l15.367 15.364c0.005 0.005 2.738 4.064 2.74 4.064 0 0.005 0.936 4.79 0.936 4.838 0 0.005-0.935 4.692-0.937 4.692 0 0-2.736 4.209-2.739 4.209l-140.303 140.306 140.304 140.302c0.005 0 2.737 4.063 2.739 4.063 0 0.005 0.936 4.789 0.936 4.789 0 0.010-0.934 4.692-0.936 4.692 0 0.005-2.803 4.161-2.806 4.161l-15.367 15.369c-0.005 0-4.072 2.757-4.075 2.757-0.005 0-4.672 0.92-4.677 0.92s-4.806-0.92-4.81-0.92c-0.005 0-4.073-2.757-4.075-2.757l-140.307-140.307-140.369 140.418c-0.005 0-4.139 2.66-4.143 2.66-0.005 0-4.67 0.919-4.676 0.919h-0.001z" />
<glyph unicode="&#xe923;" glyph-name="gateway-parallel" d="M512.011 910.32c-9.662 0.008-19.323-3.575-26.49-10.775l-425.052-425.056c-14.335-14.334-14.268-38.648 0.066-52.981l424.985-424.982c14.335-14.339 38.647-14.402 52.981 0l425.053 425.050c14.335 14.334 14.268 38.648-0.067 52.982l-424.986 424.987c-7.167 7.167-16.829 10.767-26.49 10.775zM511.979 847.297l399.33-399.333-399.33-399.328-399.33 399.328 399.33 399.333zM501.077 682.387c0-0.005-4.829-0.919-4.831-0.919-0.005 0-3.954-2.661-3.957-2.661-0.005-0.005-2.749-4.063-2.751-4.063 0-0.005-0.93-4.838-0.932-4.838v-198.426l-198.546 0.039c0-0.005-4.809-1.064-4.812-1.064-0.005-0.005-3.954-2.661-3.956-2.661l0.004 0.049c-0.005-0.005-2.749-4.063-2.751-4.063-0.005 0-0.931-4.838-0.933-4.838v-21.735c0 0 0.924-4.891 0.957-4.925 0-0.005 2.739-3.967 2.739-3.967 0.005-0.005 3.979-2.661 3.979-2.661 0.005-0.005 4.828-1.063 4.83-1.063h198.489v-198.393l-0.031 0.029c0-0.005 0.958-4.925 0.957-4.925 0-0.005 2.738-3.967 2.738-3.967 0.005-0.005 3.98-2.66 3.98-2.66s4.795-1.016 4.831-1.064l21.73 0.005c0.006 0 4.923 1.016 4.926 1.016 0 0 3.954 2.66 3.957 2.66 0.005 0.005 2.735 3.968 2.738 3.968 0 0 0.943 4.91 0.945 4.91v198.401h198.439c0.006-0.005 4.923 1.016 4.926 1.016 0.005 0 3.955 2.661 3.957 2.661 0.005 0.005 2.735 3.967 2.738 3.967 0 0 0.943 4.91 0.945 4.91v21.73c0 0.005-0.939 4.79-0.938 4.838-0.005 0.005-2.725 4.063-2.759 4.063-0.005 0.005-3.979 2.66-3.981 2.66 0-0.005-4.91 1.065-4.912 1.017h-198.419v198.421c0 0.005-0.939 4.789-0.938 4.837-0.005 0.005-2.725 4.064-2.725 4.064-0.005 0.005-3.979 2.66-3.98 2.66-0.005 0-4.924 0.968-4.926 0.968l-21.734 0.005z" />
<glyph unicode="&#xe924;" glyph-name="gateway-or" d="M512.011 910.32c-9.662 0.008-19.323-3.575-26.49-10.775l-425.052-425.056c-14.335-14.334-14.268-38.648 0.066-52.981l424.985-424.982c14.335-14.339 38.647-14.402 52.981 0l425.053 425.050c14.335 14.334 14.268 38.648-0.067 52.982l-424.986 424.987c-7.167 7.167-16.829 10.767-26.49 10.775zM511.979 847.297l399.33-399.333-399.33-399.328-399.33 399.328 399.33 399.333zM512 662.998c-118.616 0-215-96.39-215-215.004s96.384-215 215-215c118.616 0 215 96.386 215 215s-96.384 215.004-215 215.004zM512 639.153c105.704 0 191.161-85.457 191.161-191.159s-85.458-191.165-191.161-191.165c-105.704 0-191.161 85.463-191.161 191.165s85.458 191.159 191.161 191.159z" />
<glyph unicode="&#xe925;" glyph-name="gateway-none" d="M60.469 474.492c-14.335-14.334-14.268-38.648 0.067-52.982l424.986-424.982c14.335-14.339 38.647-14.402 52.981 0l425.053 425.050c14.335 14.334 14.268 38.648-0.068 52.982l-424.985 424.987c-14.335 14.334-38.647 14.402-52.981 0l-425.053-425.055zM112.648 447.967l399.33 399.333 399.33-399.333-399.33-399.328-399.33 399.328z" />
<glyph unicode="&#xe926;" glyph-name="gateway-eventbased" d="M512.011 910.32c-9.662 0.008-19.323-3.575-26.49-10.775l-425.052-425.056c-14.335-14.334-14.268-38.648 0.066-52.981l424.985-424.982c14.335-14.339 38.647-14.402 52.981 0l425.053 425.050c14.335 14.334 14.268 38.648-0.067 52.982l-424.986 424.987c-7.167 7.167-16.829 10.767-26.49 10.775zM511.979 847.297l399.33-399.333-399.33-399.328-399.33 399.328 399.33 399.333zM512.001 677.52l-220.491-160.063 84.22-258.983h272.541l84.22 258.983-220.489 160.063zM511.999 646.632l191.089-138.72-72.988-224.452h-236.199l-72.988 224.452 191.087 138.72z" />
<glyph unicode="&#xe927;" glyph-name="gateway-complex" d="M512.011 910.32c-9.662 0.008-19.323-3.575-26.49-10.775l-425.052-425.056c-14.335-14.334-14.268-38.648 0.066-52.981l424.985-424.982c14.335-14.339 38.647-14.402 52.981 0l425.053 425.050c14.335 14.334 14.268 38.648-0.067 52.982l-424.986 424.987c-7.167 7.167-16.829 10.767-26.49 10.775zM511.979 847.297l399.33-399.333-399.33-399.328-399.33 399.328 399.33 399.333zM502.539 651.117l-0.001-0.208c0-0.005-4.183-0.774-4.186-0.774-0.005 0-3.426-2.322-3.429-2.322-0.005 0-2.382-3.531-2.384-3.531 0-0.005-0.805-4.209-0.807-4.209v-143.121l-101.315 101.319c-0.005 0-3.598 2.322-3.6 2.322-0.006 0-4.008 0.813-4.039 0.819-0.039-0.006-4.158-0.771-4.159-0.771-0.005 0.005-3.533-2.37-3.534-2.37l-13.316-13.309c0 0-2.43-3.58-2.431-3.58-0.005 0-0.752-4.111-0.752-4.111 0-0.005 0.807-4.063 0.808-4.063 0-0.005 2.306-3.58 2.308-3.58l101.27-101.272-143.257 0.034c0-0.005-4.166-0.919-4.168-0.919-0.005-0.005-3.425-2.322-3.428-2.322v0.024c-0.005-0.005-2.382-3.532-2.384-3.532-0.005 0-0.806-4.208-0.808-4.208v-18.833c0 0 0.8-4.258 0.829-4.258 0-0.010 2.373-3.435 2.373-3.435 0.005 0 3.447-2.322 3.448-2.322 0.005-0.010 4.184-0.919 4.186-0.919h143.18l-101.184-101.146c-0.005-0.005-2.43-3.58-2.431-3.58-0.005-0.005-0.753-4.111-0.753-4.111 0-0.010 0.808-4.063 0.809-4.063s2.315-3.58 2.308-3.58l13.318-13.309c0.005-0.005 3.639-2.37 3.641-2.37 0 0 4.052-0.822 4.054-0.822 0.006 0 4.106 0.773 4.108 0.773 0 0 3.586 2.419 3.587 2.419l101.334 101.334v-143.431l-0.026 0.028c0-0.005 0.83-4.257 0.829-4.257 0-0.005 2.372-3.435 2.372-3.435 0.005-0.005 3.447-2.322 3.448-2.322s4.154-0.871 4.186-0.919l18.827 0.005c0.005 0 4.266 0.87 4.269 0.87 0 0 3.425 2.322 3.428 2.322 0.005 0.005 2.371 3.435 2.373 3.435 0 0 0.816 4.258 0.818 4.258v143.349l101.262-101.257c-0.005-0.010 3.638-2.37 3.64-2.37 0.005-0.005 4.053-0.774 4.055-0.774 0.006 0 4.106 0.774 4.108 0.774 0 0 3.586 2.419 3.588 2.419l13.313 13.317c0.005 0 2.36 3.532 2.39 3.532 0 0.010 0.82 4.16 0.8 4.208 0 0.005-0.809 4.064-0.81 4.064-0.006-0.005-2.357 3.628-2.388 3.628l-101.008 101.015h142.979c0.005-0.005 4.266 0.871 4.268 0.871 0.005 0 3.426 2.322 3.428 2.322 0.005 0.010 2.37 3.435 2.373 3.435 0 0 0.816 4.257 0.818 4.257v18.828c0 0.005-0.813 4.161-0.812 4.209-0.005 0.005-2.361 3.531-2.39 3.531-0.005 0.005-3.448 2.322-3.449 2.322 0-0.005-4.254 0.918-4.256 0.87h-143.412l101.463 101.46c0.005 0.005 2.359 3.532 2.389 3.532 0 0.010 0.821 4.16 0.821 4.16 0 0.005-0.808 4.063-0.809 4.063-0.005 0.005-2.423 3.58-2.424 3.58l-13.315 13.318c-0.005 0-3.521 2.37-3.522 2.37-0.005 0.005-4.053 0.773-4.056 0.773-0.006 0-4.173-0.773-4.175-0.773-0.005-0.005-3.533-2.37-3.534-2.37l-101.336-101.335v143.132c0 0.005-0.813 4.161-0.812 4.209-0.005 0.010-2.36 3.531-2.36 3.531-0.005 0.005-3.447 2.322-3.448 2.322-0.005 0-4.266 0.822-4.267 0.822l-18.83 0.005zM382.779 601.412c0 0 0.017 0.003 0.017 0.003h-0.031c0 0 0.015-0.003 0.015-0.003z" />
<glyph unicode="&#xe928;" glyph-name="end-event" d="M507.522 910.499c-207.917 1.548-402.972-156.072-446.719-359.123-42.193-178.359 33.352-377.312 184.656-481.292 146.861-105.185 356.165-113.428 508.933-15.737 153.612 94.068 244.070 281.914 215.407 460.66-26.247 185.291-174.261 346.443-358.065 384.53-34.173 7.624-69.207 11.194-104.212 10.962zM518.562 765.558c152.779 0.484 293.12-125.958 308.692-278.058 19.877-145.381-73.851-297.457-214.769-341.165-137.538-46.804-303.386 12.926-375.038 140.505-79.282 132.363-45.55 320.983 80.082 412.878 56.973 43.96 129.101 67.495 201.032 65.84z" />
<glyph unicode="&#xe929;" glyph-name="end-event-terminate" d="M502.651 910.506c-223.794-0.189-429.532-186.671-450.645-409.741-22.657-189.994 84.268-388.577 258.784-469.279 162.068-79.211 370.088-54.144 504.505 67.824 136.763 118.345 196.521 320.065 136.447 492.16-57.129 175.574-225.73 309.99-411.421 318.126-12.539 0.82-25.107 0.974-37.668 0.911zM511.818 765.64c164.814 4.794 315.912-140.569 317.846-305.449 7.127-150.837-106.192-298.954-256.509-324.242-145.457-29.138-306.782 54.927-357.695 196.141-54.811 139.645 1.109 316.239 134.522 389.533 48.78 28.642 105.254 44.088 161.835 44.017zM512 682.915c-152.341 5.784-274.784-160.65-224.423-304.337 39.523-147.149 234.633-215.2 357.066-124.461 128.948 81.245 136.26 287.736 13.382 377.899-41.101 32.788-93.456 51.030-146.025 50.9z" />
<glyph unicode="&#xe92a;" glyph-name="end-event-signal" d="M502.651 910.506c-223.794-0.189-429.532-186.671-450.645-409.741-22.657-189.994 84.268-388.577 258.784-469.279 162.068-79.211 370.088-54.144 504.505 67.824 136.763 118.345 196.521 320.065 136.447 492.16-57.129 175.574-225.73 309.99-411.421 318.126-12.539 0.82-25.107 0.974-37.668 0.911zM511.818 765.64c164.814 4.794 315.912-140.569 317.846-305.449 7.127-150.837-106.192-298.954-256.509-324.242-145.457-29.138-306.782 54.927-357.695 196.141-54.811 139.645 1.109 316.239 134.522 389.533 48.78 28.642 105.254 44.088 161.835 44.017zM512 664.594c-65.443-117.801-131.166-235.447-196.719-353.188 131.146 0 262.292 0 393.438 0-65.573 117.729-131.146 235.458-196.719 353.188z" />
<glyph unicode="&#xe92b;" glyph-name="end-event-none" d="M507.522 910.499c-207.917 1.548-402.972-156.072-446.719-359.123-42.193-178.359 33.352-377.312 184.656-481.292 146.861-105.185 356.165-113.428 508.933-15.737 153.612 94.068 244.070 281.914 215.407 460.66-26.247 185.291-174.261 346.443-358.065 384.53-34.173 7.624-69.207 11.194-104.212 10.962zM518.562 765.558c152.779 0.484 293.12-125.958 308.692-278.058 19.877-145.381-73.851-297.457-214.769-341.165-137.538-46.804-303.386 12.926-375.038 140.505-79.282 132.363-45.55 320.983 80.082 412.878 56.973 43.96 129.101 67.495 201.032 65.84z" />
<glyph unicode="&#xe92c;" glyph-name="end-event-multiple" d="M502.51 910.315c-223.794-0.188-429.531-186.671-450.645-409.741-22.657-189.994 84.268-388.577 258.784-469.279 162.068-79.211 370.088-54.144 504.505 67.824 136.763 118.345 196.52 320.065 136.446 492.16-57.129 175.575-225.73 309.988-411.42 318.125-12.54 0.82-25.107 0.974-37.669 0.911zM511.677 765.449c164.814 4.793 315.914-140.568 317.847-305.449 7.127-150.837-106.192-298.954-256.509-324.242-145.457-29.138-306.782 54.927-357.695 196.141-54.811 139.645 1.109 316.239 134.522 389.533 48.78 28.642 105.253 44.088 161.834 44.017zM512.001 677.521c-73.5-53.351-146.995-106.708-220.492-160.063 28.073-86.326 56.147-172.652 84.22-258.979 90.848 0 181.695 0 272.543 0 28.073 86.326 56.147 172.652 84.22 258.979-73.497 53.354-146.994 106.708-220.49 160.063z" />
<glyph unicode="&#xe92d;" glyph-name="end-event-message" d="M502.651 910.506c-223.794-0.189-429.532-186.671-450.645-409.741-22.657-189.994 84.268-388.577 258.784-469.279 162.068-79.211 370.088-54.144 504.505 67.824 136.763 118.345 196.521 320.065 136.447 492.16-57.129 175.574-225.73 309.99-411.421 318.126-12.539 0.82-25.107 0.974-37.668 0.911zM511.818 765.64c164.814 4.794 315.912-140.569 317.846-305.449 7.127-150.837-106.192-298.954-256.509-324.242-145.457-29.138-306.782 54.927-357.695 196.141-54.811 139.645 1.109 316.239 134.522 389.533 48.78 28.642 105.254 44.088 161.835 44.017zM340.789 608c58.273-47.273 116.547-94.547 174.82-141.82 58.273 47.273 116.547 94.547 174.82 141.82-116.547 0-233.094 0-349.641 0zM301.999 575.085c0-95.695 0-191.39 0-287.085 140.001 0 280.001 0 420.002 0 0 93.744 0 187.488 0 281.231-68.797-55.812-137.594-111.624-206.392-167.436-71.203 57.763-142.407 115.526-213.61 173.289z" />
<glyph unicode="&#xe92e;" glyph-name="end-event-link" d="M502.651 910.506c-223.794-0.189-429.532-186.671-450.645-409.741-22.657-189.994 84.268-388.577 258.784-469.279 162.068-79.211 370.088-54.144 504.505 67.824 136.763 118.345 196.521 320.065 136.447 492.16-57.129 175.574-225.73 309.99-411.421 318.126-12.539 0.82-25.107 0.974-37.668 0.911zM511.818 765.64c164.814 4.794 315.912-140.569 317.846-305.449 7.127-150.837-106.192-298.954-256.509-324.242-145.457-29.138-306.782 54.927-357.695 196.141-54.811 139.645 1.109 316.239 134.522 389.533 48.78 28.642 105.254 44.088 161.835 44.017zM563.325 648c0-34.291 0-68.581 0-102.872-77.108 0-154.217 0-231.325 0 0-64.755 0-129.51 0-194.266 77.108 0 154.217 0 231.325 0 0-34.287 0-68.575 0-102.862 56.225 66.666 112.45 133.331 168.675 199.997-56.225 66.668-112.45 133.335-168.675 200.003z" />
<glyph unicode="&#xe92f;" glyph-name="end-event-escalation" d="M502.651 910.506c-223.794-0.189-429.532-186.671-450.645-409.741-22.657-189.994 84.268-388.577 258.784-469.279 162.068-79.211 370.088-54.144 504.505 67.824 136.763 118.345 196.521 320.065 136.447 492.16-57.129 175.574-225.73 309.99-411.421 318.126-12.539 0.82-25.107 0.974-37.668 0.911zM511.818 765.64c164.814 4.794 315.912-140.569 317.846-305.449 7.127-150.837-106.192-298.954-256.509-324.242-145.457-29.138-306.782 54.927-357.695 196.141-54.811 139.645 1.109 316.239 134.522 389.533 48.78 28.642 105.254 44.088 161.835 44.017zM512 652.799c-48.392-134.665-79.108-274.932-127.5-409.598 44.397 44.136 83.105 93.579 127.5 137.718 42.5-45.906 85-91.812 127.5-137.718-43.309 136.28-84.191 273.318-127.5 409.598z" />
<glyph unicode="&#xe930;" glyph-name="end-event-error" d="M502.651 910.506c-223.794-0.189-429.532-186.671-450.645-409.741-22.657-189.994 84.268-388.577 258.784-469.279 162.068-79.211 370.088-54.144 504.505 67.824 136.763 118.345 196.521 320.065 136.447 492.16-57.129 175.574-225.73 309.99-411.421 318.126-12.539 0.82-25.107 0.974-37.668 0.911zM511.818 765.64c164.814 4.794 315.912-140.569 317.846-305.449 7.127-150.837-106.192-298.954-256.509-324.242-145.457-29.138-306.782 54.927-357.695 196.141-54.811 139.645 1.109 316.239 134.522 389.533 48.78 28.642 105.254 44.088 161.835 44.017zM689.265 645.081c-35.039-71.030-70.079-142.059-105.118-213.089-43.568 56.669-87.135 113.339-130.703 170.008-39.569-117.027-79.139-234.054-118.708-351.081 44.362 57.021 88.725 114.042 133.087 171.063 45.76-52.362 91.521-104.724 137.281-157.086 28.054 126.728 56.107 253.456 84.161 380.185z" />
<glyph unicode="&#xe931;" glyph-name="end-event-compensation" d="M502.651 910.506c-223.794-0.189-429.532-186.671-450.645-409.741-22.657-189.994 84.268-388.577 258.784-469.279 162.068-79.211 370.088-54.144 504.505 67.824 136.763 118.345 196.521 320.065 136.447 492.16-57.129 175.574-225.73 309.99-411.421 318.126-12.539 0.82-25.107 0.974-37.668 0.911zM511.818 765.64c164.814 4.794 315.912-140.569 317.846-305.449 7.127-150.837-106.192-298.954-256.509-324.242-145.457-29.138-306.782 54.927-357.695 196.141-54.811 139.645 1.109 316.239 134.522 389.533 48.78 28.642 105.254 44.088 161.835 44.017zM495.638 599.413c-71.462-50.455-142.924-100.909-214.387-151.364 71.467-50.48 142.924-100.976 214.387-151.462 0 48.786 0 97.572 0 146.357 69.009-48.826 138.079-97.565 207.111-146.357 0 100.942 0 201.884 0 302.826-69.037-48.755-138.074-97.51-207.111-146.266 0 48.755 0 97.51 0 146.266z" />
<glyph unicode="&#xe932;" glyph-name="end-event-cancel" d="M502.651 910.506c-223.794-0.189-429.532-186.671-450.645-409.741-22.657-189.994 84.268-388.577 258.784-469.279 162.068-79.211 370.088-54.144 504.505 67.824 136.763 118.345 196.521 320.065 136.447 492.16-57.129 175.574-225.73 309.99-411.421 318.126-12.539 0.82-25.107 0.974-37.668 0.911zM511.818 765.64c164.814 4.794 315.912-140.569 317.846-305.449 7.127-150.837-106.192-298.954-256.509-324.242-145.457-29.138-306.782 54.927-357.695 196.141-54.811 139.645 1.109 316.239 134.522 389.533 48.78 28.642 105.254 44.088 161.835 44.017zM397.361 652.251c-29.871-29.871-59.742-59.742-89.612-89.612 38.438-38.439 76.877-76.878 115.315-115.316-37.744-37.744-75.488-75.489-113.232-113.233 29.397-29.397 58.794-58.794 88.19-88.19 37.744 37.744 75.489 75.489 113.233 113.233 38.461-38.461 76.922-76.922 115.383-115.383 29.871 29.871 59.742 59.742 89.612 89.612-38.461 38.461-76.922 76.922-115.383 115.383 37.745 37.746 75.491 75.492 113.236 113.237-29.397 29.397-58.794 58.794-88.19 88.19-37.745-37.745-75.491-75.491-113.236-113.236-38.439 38.438-76.878 76.877-115.316 115.315z" />
<glyph unicode="&#xe933;" glyph-name="assigned" horiz-adv-x="819" d="M737.282 802.462h-113.724c-15.171 16.204-34.657 28.603-57.047 34.796-18.862 5.214-33.377 19.17-38.8 37.307-14.758 49.339-62.050 85.435-118.109 85.435s-103.348-36.096-118.109-85.433c-5.43-18.156-19.981-32.096-38.864-37.327-22.369-6.198-41.836-18.585-56.991-34.779h-113.718c-45.243 0-81.921-35.266-81.921-78.769v-708.921c0-43.503 36.675-78.769 81.918-78.769h655.362c45.246 0 81.921 35.266 81.921 78.769v708.921c0.003 43.503-36.675 78.769-81.918 78.769zM409.6 857.6c28.278 0 51.2-22.922 51.2-51.2 0-28.275-22.922-51.2-51.2-51.2s-51.2 22.925-51.2 51.2c0 28.278 22.922 51.2 51.2 51.2zM153.6 192h512v-85.333h-512v85.333zM153.6 345.6h512v-85.333h-512v85.333zM153.6 499.2h512v-85.333h-512v85.333z" />
<glyph unicode="&#xe934;" glyph-name="completed-1" horiz-adv-x="819" d="M737.282 802.462h-113.724c-15.171 16.204-34.657 28.603-57.047 34.796-18.862 5.214-33.377 19.17-38.8 37.307-14.758 49.339-62.050 85.435-118.109 85.435s-103.348-36.096-118.109-85.433c-5.43-18.156-19.981-32.096-38.864-37.327-22.369-6.198-41.836-18.585-56.991-34.779h-113.718c-45.243 0-81.921-35.266-81.921-78.769v-708.921c0-43.503 36.675-78.769 81.918-78.769h655.362c45.246 0 81.921 35.266 81.921 78.769v708.921c0.003 43.503-36.675 78.769-81.918 78.769zM737.282 14.772h-655.362v708.921h81.921v-78.769h491.523v78.769h81.918v-708.921zM409.6 857.6c28.278 0 51.2-22.922 51.2-51.2 0-28.275-22.922-51.2-51.2-51.2s-51.2 22.925-51.2 51.2c0 28.278 22.922 51.2 51.2 51.2zM570.902 499.2l-219.006-219.013-91.397 89.462-55.7-55.737 147.097-145.118 274.705 274.703-55.7 55.702z" />
<glyph unicode="&#xe935;" glyph-name="completed-2" horiz-adv-x="819" d="M737.282 802.462h-113.724c-15.171 16.204-34.657 28.603-57.047 34.796-18.862 5.214-33.377 19.17-38.8 37.307-14.758 49.339-62.050 85.435-118.109 85.435s-103.348-36.096-118.109-85.433c-5.43-18.156-19.981-32.096-38.864-37.327-22.369-6.198-41.836-18.585-56.991-34.779h-113.718c-45.243 0-81.921-35.266-81.921-78.769v-708.921c0-43.503 36.675-78.769 81.918-78.769h655.362c45.246 0 81.921 35.266 81.921 78.769v708.921c0.003 43.503-36.675 78.769-81.918 78.769zM409.6 857.6c28.278 0 51.2-22.922 51.2-51.2 0-28.275-22.922-51.2-51.2-51.2s-51.2 22.925-51.2 51.2c0 28.278 22.922 51.2 51.2 51.2zM570.902 499.2l55.7-55.702-274.705-274.703-147.097 145.118 55.7 55.737 91.397-89.462 219.006 219.013z" />
<glyph unicode="&#xe936;" glyph-name="connectors" d="M884.276 332.172c-52.091 0.113-99.92-28.757-124.090-74.901l-214.643 108.439v216.879c62.013 15.738 105.631 71.293 106.203 135.27 0 77.177-62.564 139.741-139.741 139.741s-139.741-62.564-139.741-139.741c0.573-63.976 44.19-119.531 106.203-135.27v-216.879l-214.643-108.439c-32.43 62.561-106.367 91.187-172.47 66.777s-103.691-94.219-87.679-162.843c16.012-68.623 80.613-114.589 150.694-107.222s123.712 65.759 125.106 136.212l232.53 117.383 232.53-117.383c1.23-76.874 64.329-138.314 141.208-137.498s138.658 63.584 138.255 140.467c-0.404 76.883-62.838 138.998-139.722 139.008z" />
<glyph unicode="&#xe937;" glyph-name="custom-ui" d="M983.815 118.322c24.186-36.030 49.576-82.412 33.212-98.78-3.468-3.471-8.477-5.231-14.875-5.231-41.669 0.002-145.154 74.387-251.664 180.892-30.913 30.919-60.754 63.395-86.301 93.92-2.859 3.412-4.019 7.929-3.16 12.297 0.863 4.366 3.652 8.106 7.585 10.181 9.452 4.98 18.815 12.080 27.832 21.101 10.979 10.974 19.064 23.291 24.023 36.617 1.663 4.472 5.394 7.859 10.004 9.089 4.606 1.23 9.526 0.154 13.199-2.895 31.721-26.329 65.5-57.253 97.676-89.435 58.576-58.572 109.174-118.147 142.47-167.757zM552.455 422.137c-3.194 20.208-5.951 37.65-19.395 53.194-3.459 4.003-4.508 9.558-2.741 14.547 1.763 4.991 6.072 8.647 11.28 9.581 13.305 2.383 26.411 3.591 38.955 3.591 56.991 0 104.598-26.026 121.278-66.304 12.576-30.346 4.934-63.613-20.441-88.988-17.906-17.902-36.189-26.982-54.349-26.982h-0.005c-24.030 0.005-46.214 16.876-59.335 45.133-9.649 20.781-12.623 39.614-15.247 56.229zM933.827 908.8c8.133 0 14.726-6.593 14.726-14.726v-624.067c0-8.133-6.593-14.726-14.726-14.726h-23.443l-93.818 97.416h34.571v458.686h-753.721v-458.686h433.070c5.319 0 23.475-58.744 84.412-58.744l30.106-38.672h-630.279c-8.133 0-14.726 6.593-14.726 14.726v624.067c0 8.133 6.593 14.726 14.726 14.726h919.101zM508.953 520.883c-3.788 3.532-5.442 8.795-4.345 13.856 3.851 17.931 17.111 33.264 28.344 45.756-1.183-0.408-2.39-0.838-3.625-1.294-15.935-5.865-34.852-14.952-53.144-23.74-36.714-17.639-68.42-32.872-93.71-32.872-9.608 0-17.838 2.139-25.158 6.54-9.914 5.865-32.036 23.74-21.572 61.821 4.443 16.169 13.885 33.042 23.015 49.358 5.374 9.601 14.599 26.071 17.988 36.221-2.705-1.121-6.463-3.040-11.481-6.321-11.901-7.78-24.88-19.193-37.428-30.231-15.321-13.477-28.543-25.111-41.277-31.812-4.085-2.15-8.942-2.261-13.126-0.295-4.175 1.962-7.191 5.772-8.142 10.292l-5.949 28.262c-1.203 5.704 1.076 11.581 5.809 14.986 5.929 4.266 14.388 11.513 25.267 21.083 26.558 23.359 59.609 52.43 92.405 52.43 11.463 0 22.136-3.645 31.719-10.834 0.016-0.014 0.193-0.147 0.208-0.159 10.682-8.219 26.894-27.156 16.486-62.441-4.778-16.198-14.075-32.802-23.067-48.857-5.179-9.259-12.539-22.406-16.268-31.83 15.772 4.579 42.804 17.564 59.766 25.713 38.026 18.271 73.943 35.53 102.452 35.53 8.24 0 15.487-1.357 22.166-4.153 12.626-5.283 21.706-15.102 26.266-28.393 8.849-26.54-11.257-48.855-25.935-65.151-2.95-3.267-6.978-7.739-10.417-11.993-1.971-2.433-4.66-4.18-7.687-4.982-12.469-3.305-26.146-7.191-35.43-9.871-1.343-0.39-2.716-0.578-4.082-0.578-3.679 0-7.281 1.38-10.045 3.958z" />
<glyph unicode="&#xe938;" glyph-name="draft" horiz-adv-x="819" d="M737.282 802.462h-113.724c-15.171 16.204-34.657 28.603-57.047 34.796-18.862 5.214-33.377 19.17-38.8 37.307-14.758 49.339-62.050 85.435-118.109 85.435s-103.348-36.096-118.109-85.433c-5.43-18.156-19.981-32.096-38.864-37.327-22.369-6.198-41.836-18.585-56.991-34.779h-113.718c-45.243 0-81.921-35.266-81.921-78.769v-708.921c0-43.503 36.675-78.769 81.918-78.769h655.362c45.246 0 81.921 35.266 81.921 78.769v708.921c0.003 43.503-36.675 78.769-81.918 78.769zM737.282 14.772h-655.362v708.921h81.921v-78.769h491.523v78.769h81.918v-708.921zM409.6 857.6c28.278 0 51.2-22.922 51.2-51.2 0-28.275-22.922-51.2-51.2-51.2s-51.2 22.925-51.2 51.2c0 28.278 22.922 51.2 51.2 51.2zM605.238 495.966c9.733-9.69 9.733-25.46 0-35.182l-37.662-37.543-82.351 82.2 37.662 37.554c4.85 4.861 11.242 7.287 17.634 7.287 6.381 0 12.773-2.436 17.634-7.297l47.082-47.018zM240.759 261.416l226.843 226.423 82.351-82.211-226.843-226.423-82.351 82.211zM222.984 243.836l82.351-82.2-99.932-17.537 17.58 99.738z" />
<glyph unicode="&#xe939;" glyph-name="in-progress" horiz-adv-x="819" d="M737.282 802.462h-113.724c-15.171 16.204-34.657 28.603-57.047 34.796-18.862 5.214-33.377 19.17-38.8 37.307-14.758 49.339-62.050 85.435-118.109 85.435s-103.348-36.096-118.109-85.433c-5.43-18.156-19.981-32.096-38.864-37.327-22.369-6.198-41.836-18.585-56.991-34.779h-113.718c-45.243 0-81.921-35.266-81.921-78.769v-708.921c0-43.503 36.675-78.769 81.918-78.769h655.362c45.246 0 81.921 35.266 81.921 78.769v708.921c0.003 43.503-36.675 78.769-81.918 78.769zM737.282 14.772h-655.362v708.921h81.921v-78.769h491.523v78.769h81.918v-708.921zM409.6 857.6c28.278 0 51.2-22.922 51.2-51.2 0-28.275-22.922-51.2-51.2-51.2s-51.2 22.925-51.2 51.2c0 28.278 22.922 51.2 51.2 51.2zM153.6 192h512v-85.333h-512v85.333zM153.6 345.6h512v-85.333h-512v85.333zM153.6 499.2h512v-85.333h-512v85.333z" />
<glyph unicode="&#xe93a;" glyph-name="login" horiz-adv-x="870" d="M329.447 536.33c-96.321 0-174.408 94.841-174.408 211.834 0 116.995 25.642 211.836 174.408 211.836s174.403-94.841 174.403-211.836c0-116.993-78.087-211.834-174.403-211.834zM0.095 209.724c-0.164 3.743-0.082 13.284 0 0zM658.846 206.966c0.089 14.274 0.259 2.057 0 0zM564.362 495.063c1.024 0.459-52.362-21.463-103.562-98.263-25.6-51.2 14.428-67.561 25.6-89.904-5.586-5.586-22.307-29.777-25.6-63.696-1.462-15.056 11.172-20.014 0-25.6s-19.099-40.028-35.856-51.2c-16.757-11.172-9.513-14.733-15.344-25.6-8.269-15.409-19.386-25.28-25.6-25.6-17.585-0.906-34.717-21.484-54.555-21.484-280.894 0-329.386 97.756-329.386 97.756 0 11.368-0.015 17.888-0.027 21.412 0.054-1.881 0.195-1.030 0.5 15.175 3.713 198.446 31.949 255.658 233.409 292.017 0 0 28.677-36.535 95.504-36.535s95.499 36.535 95.499 36.535c65.804-11.876 105.394-4.493 139.418-25.013zM353.879-58.553c-5.711 0.863-12.040 5.989-14.079 11.475l-12.55 33.448c-2.030 5.386-0.627 13.579 3.079 18.156l67.429 83.268c3.715 4.588 11.055 6.442 16.295 4.116l2.739-1.204c5.24-2.326 12.58-0.471 16.295 4.116l6.357 7.85c3.715 4.588 4.841 12.636 2.519 17.927l-1.999 4.477c-2.311 5.282-1.322 13.184 2.195 17.526s10.731 6.042 15.98 3.727l2.748-1.193c5.24-2.326 12.579-0.451 16.294 4.136l6.357 7.85c3.706 4.577 4.85 12.647 2.528 17.938l-1.997 4.457c-2.32 5.271-1.187 13.351 2.528 17.938l10.487 12.95c3.715 4.588 6.144 13.056 5.343 18.812l-2.751 20.37c-0.78 5.739 1.628 14.224 5.343 18.812l32.532 40.195-28.034 26.96c-20.367 22.891-16.832 57.639 7.734 77.348l114.188 91.514c24.593 19.632 64.103 20.050 87.739 0.91l96.168-77.931c23.753-19.216 31.491-57.858 17.331-85.993l-65.733-130.715c-14.171-28.127-47.414-38.819-74.017-23.673l-32.232 21.842-50.531-62.401c-3.715-4.588-11.514-8.707-17.299-9.148l-20.527-1.538c-5.787-0.421-13.595-4.552-17.31-9.139l-148.723-183.701c-3.715-4.588-11.45-7.635-17.139-6.789l-35.285 5.306zM640.055 442.499c-16.727-20.656-1.093-60.989 34.901-90.136 35.983-29.138 78.685-36.044 95.412-15.389 16.736 20.667 1.102 61-34.881 90.139-35.994 29.147-78.696 36.053-95.432 15.387z" />
<glyph unicode="&#xe93b;" glyph-name="paused-1" horiz-adv-x="819" d="M737.282 802.462h-113.724c-15.171 16.204-34.657 28.603-57.047 34.796-18.862 5.214-33.377 19.17-38.8 37.307-14.758 49.339-62.050 85.435-118.109 85.435s-103.348-36.096-118.109-85.433c-5.43-18.156-19.981-32.096-38.864-37.327-22.369-6.198-41.836-18.585-56.991-34.779h-113.718c-45.243 0-81.921-35.266-81.921-78.769v-708.921c0-43.503 36.675-78.769 81.918-78.769h655.362c45.246 0 81.921 35.266 81.921 78.769v708.921c0.003 43.503-36.675 78.769-81.918 78.769zM737.282 14.772h-655.362v708.921h81.921v-78.769h491.523v78.769h81.918v-708.921zM409.6 857.6c28.278 0 51.2-22.922 51.2-51.2 0-28.275-22.922-51.2-51.2-51.2s-51.2 22.925-51.2 51.2c0 28.278 22.922 51.2 51.2 51.2zM571.917 183.114h-91.398c-8.378 0-15.233 6.852-15.233 15.233v285.62c0 8.378 6.855 15.233 15.233 15.233h91.398c8.378 0 15.233-6.855 15.233-15.233v-285.62c0-8.381-6.855-15.233-15.233-15.233zM337.412 183.114h-91.398c-8.378 0-15.233 6.852-15.233 15.233v285.62c0 8.378 6.855 15.233 15.233 15.233h91.398c8.378 0 15.233-6.855 15.233-15.233v-285.62c0-8.381-6.855-15.233-15.233-15.233z" />
<glyph unicode="&#xe93c;" glyph-name="paused-2" horiz-adv-x="819" d="M737.282 802.462h-113.724c-15.171 16.204-34.657 28.603-57.047 34.796-18.862 5.214-33.377 19.17-38.8 37.307-14.758 49.339-62.050 85.435-118.109 85.435s-103.348-36.096-118.109-85.433c-5.43-18.156-19.981-32.096-38.864-37.327-22.369-6.198-41.836-18.585-56.991-34.779h-113.718c-45.243 0-81.921-35.266-81.921-78.769v-708.921c0-43.503 36.675-78.769 81.918-78.769h655.362c45.246 0 81.921 35.266 81.921 78.769v708.921c0.003 43.503-36.675 78.769-81.918 78.769zM409.6 857.6c28.278 0 51.2-22.922 51.2-51.2 0-28.275-22.922-51.2-51.2-51.2s-51.2 22.925-51.2 51.2c0 28.278 22.922 51.2 51.2 51.2zM571.917 183.114h-91.398c-8.378 0-15.233 6.852-15.233 15.233v285.62c0 8.378 6.855 15.233 15.233 15.233h91.398c8.378 0 15.233-6.855 15.233-15.233v-285.62c0-8.381-6.855-15.233-15.233-15.233zM337.412 183.114h-91.398c-8.378 0-15.233 6.852-15.233 15.233v285.62c0 8.378 6.855 15.233 15.233 15.233h91.398c8.378 0 15.233-6.855 15.233-15.233v-285.62c0-8.381-6.855-15.233-15.233-15.233z" />
<glyph unicode="&#xe93d;" glyph-name="process" d="M976.512 339.809h-40.263v201.314c51.239 19.414 87.751 68.778 87.751 126.8 0 74.955-60.78 135.68-135.735 135.68-57.581 0-106.779-35.906-126.359-86.482h-91.998v4.909c0 26.198-21.179 47.433-47.378 47.433h-286.804c-26.198 0-47.378-21.29-47.378-47.433v-4.854h-91.667v92.991c0 26.198-21.235 47.433-47.378 47.433h-80.912c-26.198 0-47.378-21.235-47.378-47.433v-286.749c0-26.254 21.234-47.378 47.378-47.378h80.912c26.143 0 47.378 21.179 47.378 47.378v122.609h91.722v-4.909c0-26.198 21.179-47.433 47.378-47.433h286.749c26.254 0 47.378 21.235 47.378 47.433v4.909h84.552c9.266-56.92 53.886-101.926 110.64-111.688v-194.53h-175.336c-26.198 0-47.378-21.235-47.378-47.323v-4.909h-99.058v107.827c0 26.143-21.29 47.378-47.433 47.378h-80.912c-26.198 0-47.378-21.29-47.378-47.378v-107.827h-101.043c-15.664 57.692-68.226 100.106-130.827 100.106-74.955 0-135.735-60.78-135.735-135.68 0-74.955 60.78-135.68 135.735-135.68 62.656 0 115.163 42.414 130.827 100.106h101.043v-107.827c0-26.254 21.235-47.378 47.378-47.378h80.912c26.143 0 47.433 21.179 47.433 47.378v107.827h99.058v-4.909c0-26.254 21.234-47.378 47.378-47.378h286.749c26.254 0 47.433 21.179 47.433 47.378v80.912c0 26.143-21.235 47.378-47.433 47.378z" />
<glyph unicode="&#xe93e;" glyph-name="security-on" horiz-adv-x="819" d="M809.082 800.010c-167.133 0-295.174 49.921-403.446 159.99-108.261-110.069-236.296-159.99-403.415-159.99 0-286.641-56.733-697.252 403.413-864.010 460.179 166.755 403.449 577.366 403.449 864.010zM372.215 295.601l-134.405 140.535 60.178 62.911 74.227-77.619 141.082 147.498 60.175-62.911-201.257-210.414z" />
<glyph unicode="&#xe93f;" glyph-name="unassigned" horiz-adv-x="819" d="M737.282 802.462h-113.724c-15.171 16.204-34.657 28.603-57.047 34.796-18.862 5.214-33.377 19.17-38.8 37.307-14.758 49.339-62.050 85.435-118.109 85.435s-103.348-36.096-118.109-85.433c-5.43-18.156-19.981-32.096-38.864-37.327-22.369-6.198-41.836-18.585-56.991-34.779h-113.718c-45.243 0-81.921-35.266-81.921-78.769v-708.921c0-43.503 36.675-78.769 81.918-78.769h655.362c45.246 0 81.921 35.266 81.921 78.769v708.921c0.003 43.503-36.675 78.769-81.918 78.769zM409.6 857.6c28.278 0 51.2-22.922 51.2-51.2 0-28.275-22.922-51.2-51.2-51.2s-51.2 22.925-51.2 51.2c0 28.278 22.922 51.2 51.2 51.2zM676.617 501.159c27.507-47.146 41.263-98.641 41.261-154.475 0-55.828-13.754-107.32-41.267-154.472-27.517-47.146-64.844-84.485-111.992-111.996-47.151-27.516-98.645-41.273-154.476-41.273s-107.32 13.757-154.473 41.273c-47.15 27.521-84.479 64.85-111.998 111.996-27.513 47.156-41.273 98.641-41.273 154.472 0 55.828 13.756 107.321 41.277 154.475 27.52 47.151 64.849 84.479 111.999 111.994 47.148 27.517 98.641 41.273 154.473 41.273 55.838 0 107.316-13.756 154.472-41.273 47.148-27.518 84.477-64.847 111.996-111.994zM598.876 237.294c19.502 33.391 29.246 69.855 29.246 109.39 0 39.538-9.744 76.002-29.246 109.393-19.499 33.391-45.945 59.84-79.336 79.34-33.391 19.502-69.855 29.249-109.396 29.249-39.538 0-76.002-9.747-109.393-29.249-33.388-19.499-59.84-45.949-79.336-79.34-19.5-33.391-29.253-69.855-29.253-109.393 0-39.535 9.749-75.999 29.253-109.39 19.5-33.391 45.945-59.844 79.336-79.345 33.395-19.5 69.861-29.24 109.393-29.24 39.542 0 76.005 9.74 109.396 29.24s59.835 45.955 79.336 79.345zM448.615 500.558c3.742 0 6.815-1.206 9.215-3.607 2.401-2.408 3.611-5.476 3.611-9.214v-179.516c0-3.742-1.21-6.815-3.611-9.217-2.397-2.401-5.472-3.601-9.208-3.601h-128.233c-3.736 0-6.81 1.2-9.217 3.601-2.403 2.401-3.604 5.475-3.604 9.217v25.643c0 3.747 1.201 6.82 3.604 9.222 2.406 2.399 5.474 3.599 9.217 3.599h89.758v141.052c0 3.74 1.206 6.81 3.6 9.214 2.41 2.401 5.475 3.607 9.221 3.607h25.648z" />
<glyph unicode="&#xe940;" glyph-name="workstation" d="M938.667 960c47.053 0 85.333-38.281 85.333-85.333v-853.333c0-47.053-38.281-85.333-85.333-85.333h-853.333c-47.053 0-85.333 38.281-85.333 85.333v853.333c0 47.053 38.281 85.333 85.333 85.333h853.333zM861.867 857.6c-32.939 0-59.733-26.795-59.733-59.733s26.795-59.733 59.733-59.733c32.939 0 59.733 26.795 59.733 59.733s-26.795 59.733-59.733 59.733zM861.867 704c-32.939 0-59.733-26.795-59.733-59.733s26.795-59.733 59.733-59.733c32.939 0 59.733 26.795 59.733 59.733s-26.795 59.733-59.733 59.733zM861.867 550.4c-32.939 0-59.733-26.795-59.733-59.733s26.795-59.733 59.733-59.733c32.939 0 59.733 26.795 59.733 59.733s-26.795 59.733-59.733 59.733zM614.4 840.533v-102.4c0-9.421 7.646-17.067 17.067-17.067h34.133v-256c0-9.421 7.646-17.067 17.067-17.067s17.067 7.646 17.067 17.067v256h34.133c9.421 0 17.067 7.646 17.067 17.067v102.4c0 9.421-7.646 17.067-17.067 17.067h-102.4c-9.421 0-17.067-7.646-17.067-17.067zM443.733 686.933v-102.4c0-9.421 7.646-17.067 17.067-17.067h34.133v-102.4c0-9.421 7.646-17.067 17.067-17.067s17.067 7.646 17.067 17.067v102.4h34.133c9.421 0 17.067 7.646 17.067 17.067v102.4c0 9.421-7.646 17.067-17.067 17.067h-34.133v136.533c0 9.421-7.646 17.067-17.067 17.067s-17.067-7.646-17.067-17.067v-136.533h-34.133c-9.421 0-17.067-7.646-17.067-17.067zM273.067 567.467v-102.4c0-9.421 7.646-17.067 17.067-17.067h102.4c9.421 0 17.067 7.646 17.067 17.067v102.4c0 9.421-7.646 17.067-17.067 17.067h-34.133v256c0 9.421-7.646 17.067-17.067 17.067s-17.067-7.646-17.067-17.067v-256h-34.133c-9.421 0-17.067-7.646-17.067-17.067zM102.4 840.533v-102.4c0-9.421 7.646-17.067 17.067-17.067h34.133v-256c0-9.421 7.646-17.067 17.067-17.067s17.067 7.646 17.067 17.067v256h34.133c9.421 0 17.067 7.646 17.067 17.067v102.4c0 9.421-7.646 17.067-17.067 17.067h-102.4c-9.421 0-17.067-7.646-17.067-17.067zM426.667 226.133h68.267v-68.267h-68.267v68.267zM221.867 226.133h68.267v-68.267h-68.267v68.267zM529.067 226.133h68.267v-68.267h-68.267v68.267zM324.267 226.133h68.267v-68.267h-68.267v68.267zM836.267 328.533h68.267v-68.267h-68.267v68.267zM631.467 226.133h68.267v-68.267h-68.267v68.267zM733.867 226.133h68.267v-68.267h-68.267v68.267zM836.267 226.133h68.267v-68.267h-68.267v68.267zM119.467 226.133h68.267v-68.267h-68.267v68.267zM426.667 328.533h68.267v-68.267h-68.267v68.267zM631.467 123.733h68.267v-68.267h-68.267v68.267zM324.267 123.733h68.267v-68.267h-68.267v68.267zM426.667 123.733h68.267v-68.267h-68.267v68.267zM529.067 123.733h68.267v-68.267h-68.267v68.267zM733.867 123.733h68.267v-68.267h-68.267v68.267zM733.867 328.533h68.267v-68.267h-68.267v68.267zM836.267 123.733h68.267v-68.267h-68.267v68.267zM938.667 243.2v102.4c0 9.421-7.646 17.067-17.067 17.067h-819.2c-9.421 0-17.067-7.646-17.067-17.067v-307.2c0-9.421 7.646-17.067 17.067-17.067h819.2c9.421 0 17.067 7.646 17.067 17.067v204.8zM221.867 123.733h68.267v-68.267h-68.267v68.267zM529.067 328.533h68.267v-68.267h-68.267v68.267zM324.267 328.533h68.267v-68.267h-68.267v68.267zM631.467 328.533h68.267v-68.267h-68.267v68.267zM221.867 328.533h68.267v-68.267h-68.267v68.267zM119.467 328.533h68.267v-68.267h-68.267v68.267zM119.467 123.733h68.267v-68.267h-68.267v68.267z" />
<glyph unicode="&#xe941;" glyph-name="error-bolt" d="M478.498 960v-398.259h-262.696l329.699-625.741v398.259h262.696l-329.699 625.741zM478.498 401.263v-194.357l-151.656 287.831h218.659v194.357l151.656-287.833h-218.659z" />
<glyph unicode="&#xe942;" glyph-name="triangle" d="M475.648 752.043c3.115 5.248 7.893 10.325 14.251 14.165 10.069 6.101 21.589 7.595 32.256 4.949s20.224-9.216 26.197-19.115l361.216-603.008c3.285-5.589 5.461-12.715 5.547-20.565 0.128-11.776-4.48-22.443-12.16-30.293s-18.261-12.715-29.568-12.843h-722.645c-6.485 0.043-13.696 1.749-20.523 5.717-10.197 5.888-17.024 15.317-19.883 25.899s-1.621 22.144 3.925 31.787zM402.432 795.904l-361.387-603.307c-18.005-31.189-21.589-66.133-13.141-97.707s29.013-60.075 59.648-77.739c19.797-11.435 41.643-17.067 62.933-17.152h722.901c35.797 0.384 67.712 15.104 90.581 38.485s36.864 55.595 36.48 90.923c-0.256 22.869-6.528 44.544-17.323 62.891l-361.557 603.605c-18.432 30.421-47.36 50.389-79.104 58.155s-66.603 3.456-96.811-14.891c-18.304-11.093-33.067-26.24-43.179-43.264z" />
</font>
</defs>
</svg>
