<?xml version="1.0" encoding="UTF-8"?>
<svg width="20px" height="22px" viewBox="0 0 20 22" version="1.1" xmlns="http://www.w3.org/2000/svg" xmlns:xlink="http://www.w3.org/1999/xlink">
    <!-- Generator: Sketch 49.3 (51167) - http://www.bohemiancoding.com/sketch -->
    <title>icons/processbuilder/data-store</title>
    <desc>Created with Sketch.</desc>
    <defs></defs>
    <g id="Symbols" stroke="none" stroke-width="1" fill="none" fill-rule="evenodd">
        <g id="Build/Applications/Processes/ProcessBuilder" transform="translate(-19.000000, -406.000000)" fill="#788793" fill-rule="nonzero">
            <g id="13" transform="translate(0.000000, 400.000000)">
                <path d="M38.9416,9.404 C38.4784,7.688 35.0308,6 29,6 C22.9692,6 19.5212,7.688 19.0584,9.404 C19.0248,9.4628 19,9.5272 19,9.6 L19,9.8 L19,14.4 L19,14.6 L19,14.8 L19,19.2 L19,19.4 L19,19.6 L19,24.4 C19,24.4648 19.0172,24.526 19.0468,24.5804 C19.5192,26.5384 23.7456,28 29,28 C34.2424,28 38.462,26.5444 38.95,24.5936 C38.982,24.5364 39,24.4704 39,24.4 L39,19.6 L39,19.4 L39,19.2 L39,14.8 L39,14.6 L39,14.4 L39,9.8 L39,9.6 C39,9.5272 38.9752,9.4628 38.9416,9.404 Z M38.1684,19.594 C38.1572,19.6424 38.1416,19.6904 38.122,19.7392 C38.106,19.7788 38.0864,19.8184 38.0648,19.858 C38.038,19.9072 38.008,19.9564 37.9724,20.0056 C37.946,20.0428 37.916,20.0796 37.8848,20.1164 C37.8404,20.1688 37.7932,20.2212 37.7396,20.2732 C37.7072,20.3048 37.6716,20.336 37.6356,20.3676 C37.57,20.4248 37.5016,20.4816 37.4252,20.538 C37.3924,20.5624 37.3572,20.586 37.3224,20.61 C37.232,20.6724 37.1376,20.7344 37.034,20.7952 C37.0068,20.8116 36.9776,20.8272 36.9492,20.8432 C36.83,20.9104 36.7056,20.9772 36.5712,21.042 C36.554,21.0504 36.536,21.0584 36.5184,21.0664 C36.3684,21.1372 36.2116,21.2068 36.044,21.274 C36.0392,21.276 36.0344,21.2776 36.0296,21.2796 C35.1212,21.6424 33.9592,21.9476 32.6052,22.1476 C32.5984,22.1484 32.5916,22.1492 32.5848,22.1504 C32.3216,22.1892 32.0516,22.2236 31.7744,22.254 C31.7292,22.2588 31.6816,22.262 31.636,22.2668 C31.394,22.292 31.1492,22.3152 30.8972,22.3336 C30.782,22.342 30.6612,22.346 30.544,22.3532 C30.3544,22.3644 30.1668,22.3768 29.9724,22.3836 C29.6548,22.3936 29.3308,22.4 29,22.4 C28.6692,22.4 28.3452,22.3936 28.0272,22.3824 C27.8328,22.3756 27.6452,22.3628 27.4556,22.352 C27.3384,22.3452 27.2176,22.3408 27.1024,22.3324 C26.8504,22.314 26.6056,22.2908 26.3636,22.2656 C26.318,22.2608 26.2704,22.2576 26.2252,22.2528 C25.948,22.2224 25.678,22.1876 25.4148,22.1492 C25.408,22.1484 25.4012,22.1476 25.3944,22.1464 C24.0404,21.9464 22.8784,21.6412 21.97,21.2784 C21.9652,21.2768 21.9604,21.2748 21.9556,21.2728 C21.788,21.2056 21.6308,21.136 21.4812,21.0652 C21.464,21.0568 21.4456,21.0488 21.4284,21.0408 C21.294,20.976 21.1696,20.9096 21.0504,20.842 C21.0224,20.826 20.9928,20.8104 20.9656,20.794 C20.862,20.7332 20.7676,20.6712 20.6772,20.6088 C20.6428,20.5848 20.6072,20.5612 20.5744,20.5368 C20.498,20.4804 20.4296,20.4236 20.364,20.3664 C20.3284,20.3352 20.2924,20.304 20.26,20.272 C20.2064,20.22 20.1592,20.168 20.1148,20.1152 C20.0836,20.0784 20.0536,20.0416 20.0272,20.0044 C19.992,19.9552 19.962,19.906 19.9348,19.8568 C19.9132,19.8172 19.894,19.7776 19.8776,19.738 C19.858,19.6896 19.8424,19.6412 19.8312,19.5928 C19.8164,19.5292 19.8,19.4644 19.8,19.4 C19.8,19.3548 19.8052,19.3096 19.8124,19.2648 C19.8224,19.2044 19.8168,19.144 19.8,19.0868 L19.8,16.1172 C19.8112,16.1276 19.8252,16.1376 19.8368,16.148 C19.924,16.2248 20.0128,16.3012 20.1128,16.3748 C21.6196,17.5144 24.6328,18.4 29,18.4 C33.3488,18.4 36.3544,17.5216 37.8676,16.3888 C37.9884,16.3008 38.0972,16.21 38.1996,16.1176 L38.2,16.1172 L38.2,19.0868 C38.1832,19.144 38.1776,19.2044 38.1876,19.2648 C38.1952,19.3096 38.2,19.3548 38.2,19.4 C38.2,19.4644 38.1836,19.5292 38.1684,19.594 Z M38.2,11.3172 L38.2,14.2868 C38.1832,14.344 38.1776,14.4044 38.1876,14.4648 C38.1952,14.5096 38.2,14.5548 38.2,14.6 C38.2,14.6644 38.1836,14.7292 38.1684,14.794 C38.1572,14.8424 38.1416,14.8904 38.122,14.9392 C38.106,14.9788 38.0864,15.0184 38.0648,15.058 C38.038,15.1072 38.008,15.1564 37.9724,15.2056 C37.946,15.2428 37.916,15.2796 37.8848,15.3164 C37.8404,15.3688 37.7932,15.4212 37.7396,15.4732 C37.7072,15.5048 37.6716,15.536 37.6356,15.5676 C37.57,15.6248 37.5016,15.6816 37.4252,15.738 C37.3924,15.7624 37.3572,15.786 37.3224,15.81 C37.232,15.8724 37.1376,15.9344 37.034,15.9952 C37.0068,16.0116 36.9776,16.0272 36.9492,16.0432 C36.83,16.1104 36.7056,16.1772 36.5712,16.242 C36.554,16.2504 36.536,16.2584 36.5184,16.2664 C36.3684,16.3372 36.2116,16.4068 36.044,16.474 C36.0392,16.476 36.0344,16.4776 36.0296,16.4796 C35.1212,16.8424 33.9592,17.1476 32.6052,17.3476 C32.5984,17.3484 32.5916,17.3492 32.5848,17.3504 C32.3216,17.3892 32.0516,17.4236 31.7744,17.454 C31.7292,17.4588 31.6816,17.462 31.636,17.4668 C31.394,17.492 31.1492,17.5152 30.8972,17.5336 C30.782,17.542 30.6612,17.546 30.544,17.5532 C30.3544,17.5644 30.1668,17.5768 29.9724,17.5836 C29.6548,17.5936 29.3308,17.6 29,17.6 C28.6692,17.6 28.3452,17.5936 28.0272,17.5824 C27.8328,17.5756 27.6452,17.5628 27.4556,17.552 C27.3384,17.5452 27.2176,17.5408 27.1024,17.5324 C26.8504,17.514 26.6056,17.4908 26.3636,17.4656 C26.318,17.4608 26.2704,17.4576 26.2252,17.4528 C25.948,17.4224 25.678,17.3876 25.4148,17.3492 C25.408,17.3484 25.4012,17.3476 25.3944,17.3464 C24.0404,17.1464 22.8784,16.8412 21.97,16.4784 C21.9652,16.4768 21.9604,16.4748 21.9556,16.4728 C21.788,16.4056 21.6308,16.336 21.4812,16.2652 C21.464,16.2568 21.4456,16.2488 21.4284,16.2408 C21.294,16.176 21.1696,16.1096 21.0504,16.042 C21.0224,16.026 20.9928,16.0104 20.9656,15.994 C20.862,15.9332 20.7676,15.8712 20.6772,15.8088 C20.6428,15.7848 20.6072,15.7612 20.5744,15.7368 C20.498,15.6804 20.4296,15.6236 20.364,15.5664 C20.3284,15.5352 20.2924,15.504 20.26,15.472 C20.2064,15.42 20.1592,15.368 20.1148,15.3152 C20.0836,15.2784 20.0536,15.2416 20.0272,15.2044 C19.992,15.1552 19.962,15.106 19.9348,15.0568 C19.9132,15.0172 19.894,14.9776 19.8776,14.938 C19.858,14.8896 19.8424,14.8412 19.8312,14.7928 C19.8164,14.7292 19.8,14.6644 19.8,14.6 C19.8,14.5548 19.8052,14.5096 19.8124,14.4648 C19.8224,14.4044 19.8168,14.344 19.8,14.2868 L19.8,11.3172 C19.848,11.3608 19.9028,11.4036 19.9548,11.4468 C19.9836,11.4708 20.0104,11.4948 20.0408,11.5188 C20.1608,11.6132 20.2904,11.7064 20.4308,11.7972 C20.46,11.816 20.4928,11.8344 20.5232,11.8532 C20.6408,11.9264 20.7652,11.998 20.896,12.0684 C20.9444,12.0944 20.9928,12.12 21.0428,12.1456 C21.1888,12.22 21.342,12.2924 21.5032,12.3624 C21.5296,12.374 21.5536,12.386 21.5804,12.3972 C21.768,12.4768 21.9672,12.5528 22.1744,12.6264 C22.2316,12.6468 22.2916,12.666 22.3504,12.686 C22.5152,12.7416 22.6856,12.7948 22.862,12.8464 C22.9256,12.8648 22.988,12.884 23.0532,12.9016 C23.2872,12.9664 23.5288,13.028 23.7824,13.0848 C23.8172,13.0928 23.8548,13.0992 23.89,13.1068 C24.1136,13.1556 24.3456,13.2008 24.584,13.2432 C24.6648,13.2576 24.7468,13.2712 24.8292,13.2848 C25.056,13.322 25.2896,13.356 25.5292,13.3872 C25.5908,13.3952 25.6496,13.4044 25.712,13.412 C26.0096,13.448 26.3176,13.4788 26.634,13.5052 C26.712,13.5116 26.7932,13.5164 26.8724,13.522 C27.1256,13.5404 27.3844,13.5556 27.6492,13.5676 C27.7456,13.572 27.8416,13.5764 27.94,13.58 C28.2848,13.5916 28.636,13.6 29,13.6 C29.364,13.6 29.7152,13.5916 30.06,13.58 C30.158,13.5764 30.254,13.572 30.3508,13.5676 C30.6156,13.5556 30.8744,13.5404 31.1276,13.522 C31.2068,13.516 31.2876,13.5116 31.366,13.5052 C31.6824,13.4792 31.9904,13.448 32.288,13.412 C32.3504,13.4044 32.4092,13.3952 32.4708,13.3872 C32.7104,13.356 32.9436,13.322 33.1708,13.2848 C33.2532,13.2712 33.3352,13.2576 33.416,13.2432 C33.6544,13.2008 33.8864,13.1556 34.11,13.1068 C34.1452,13.0992 34.1828,13.0924 34.2176,13.0848 C34.4712,13.028 34.7128,12.966 34.9468,12.9016 C35.012,12.8836 35.0744,12.8648 35.138,12.8464 C35.3144,12.7948 35.4848,12.7416 35.6496,12.686 C35.7084,12.666 35.7684,12.6468 35.8256,12.6264 C36.0328,12.5528 36.2324,12.4768 36.4196,12.3972 C36.4464,12.386 36.4704,12.374 36.4968,12.3624 C36.658,12.292 36.8112,12.22 36.9572,12.1456 C37.0072,12.12 37.056,12.0944 37.104,12.0684 C37.2348,11.9984 37.3592,11.9268 37.4768,11.8532 C37.5072,11.8344 37.54,11.816 37.5692,11.7972 C37.7096,11.7064 37.8392,11.6136 37.9592,11.5188 C37.9892,11.4948 38.016,11.4708 38.0452,11.4468 C38.0972,11.4036 38.152,11.3608 38.2,11.3172 Z M29,6.8 C34.422,6.8 38.2,8.3808 38.2,9.8 C38.2,11.2192 34.422,12.8 29,12.8 C23.578,12.8 19.8,11.2192 19.8,9.8 C19.8,8.3808 23.578,6.8 29,6.8 Z M38.2,24.2812 C38.1944,24.2988 38.1904,24.3168 38.1872,24.3352 C37.9604,25.7188 34.2144,27.2 29,27.2 C23.7856,27.2 20.0396,25.7188 19.8128,24.3352 C19.8096,24.3172 19.8052,24.2996 19.8,24.2828 L19.8,20.9172 C19.8112,20.9276 19.8252,20.9376 19.8368,20.948 C19.924,21.0248 20.0128,21.1012 20.1128,21.1748 C21.6196,22.3144 24.6328,23.2 29,23.2 C33.3488,23.2 36.3544,22.3216 37.8676,21.1888 C37.9884,21.1008 38.0972,21.01 38.1996,20.9176 L38.2,20.9172 L38.2,24.2812 Z" id="icons/processbuilder/data-store"></path>
            </g>
        </g>
    </g>
</svg>