<?xml version="1.0" encoding="UTF-8"?>
<svg width="22px" height="22px" viewBox="0 0 22 22" version="1.1" xmlns="http://www.w3.org/2000/svg" xmlns:xlink="http://www.w3.org/1999/xlink">
    <!-- Generator: Sketch 49.3 (51167) - http://www.bohemiancoding.com/sketch -->
    <title>icons/processbuilder/intermediate-time-event</title>
    <desc>Created with Sketch.</desc>
    <defs>
        <circle id="path-1" cx="11" cy="11" r="11"></circle>
    </defs>
    <g id="Symbols" stroke="none" stroke-width="1" fill="none" fill-rule="evenodd">
        <g id="Build/Applications/Processes/ProcessBuilder" transform="translate(-18.000000, -274.000000)">
            <g id="9" transform="translate(0.000000, 268.000000)">
                <g id="icons/processbuilder/intermediate-time-event" transform="translate(18.000000, 6.000000)">
                    <g id="Oval-2">
                        <use fill="#FFF4D1" fill-rule="evenodd" xlink:href="#path-1"></use>
                        <circle stroke="#FBBE02" stroke-width="1" cx="11" cy="11" r="10.5"></circle>
                    </g>
                    <circle id="Oval-2" stroke="#FBBE02" cx="11" cy="11" r="8.5"></circle>
                    <path d="M11,4 C7.1402,4 4,7.1402 4,11 C4,14.8598 7.1402,18 11,18 C14.8598,18 18,14.8598 18,11 C18,7.1402 14.8598,4 11,4 Z M10.7666667,5.83843333 C10.7666667,5.7094 10.8712,5.6051 11,5.6051 C11.1288,5.6051 11.2333333,5.7094 11.2333333,5.83843333 L11.2333333,6.07176667 C11.2333333,6.2008 11.1288,6.3051 11,6.3051 C10.8712,6.3051 10.7666667,6.2008 10.7666667,6.07176667 L10.7666667,5.83843333 Z M6.1,11.2051 L5.86666667,11.2051 C5.73786667,11.2051 5.63333333,11.1008 5.63333333,10.9717667 C5.63333333,10.8427333 5.73786667,10.7384333 5.86666667,10.7384333 L6.1,10.7384333 C6.2288,10.7384333 6.33333333,10.8427333 6.33333333,10.9717667 C6.33333333,11.1008 6.2288,11.2051 6.1,11.2051 Z M7.7002,14.6017333 L7.53523333,14.7667 C7.48973333,14.8122 7.43,14.8350667 7.37026667,14.8350667 C7.31053333,14.8350667 7.2508,14.8122 7.2053,14.7667 C7.11406667,14.6754667 7.11406667,14.528 7.2053,14.4367667 L7.37026667,14.2718 C7.4615,14.1805667 7.60896667,14.1805667 7.7002,14.2718 C7.79143333,14.3630333 7.79143333,14.5105 7.7002,14.6017333 Z M7.7002,7.67173333 C7.6547,7.71723333 7.59496667,7.7401 7.53523333,7.7401 C7.4755,7.7401 7.41576667,7.71723333 7.37026667,7.67173333 L7.2053,7.50676667 C7.11406667,7.41553333 7.11406667,7.26806667 7.2053,7.17683333 C7.29653333,7.0856 7.444,7.0856 7.53523333,7.17683333 L7.7002,7.3418 C7.79143333,7.43303333 7.79143333,7.58073333 7.7002,7.67173333 Z M11.2333333,16.1051 C11.2333333,16.2341333 11.1288,16.3384333 11,16.3384333 C10.8712,16.3384333 10.7666667,16.2341333 10.7666667,16.1051 L10.7666667,15.8717667 C10.7666667,15.7427333 10.8712,15.6384333 11,15.6384333 C11.1288,15.6384333 11.2333333,15.7427333 11.2333333,15.8717667 L11.2333333,16.1051 Z M11,11.9051 C10.5664667,11.9051 10.2041,11.6064333 10.0998,11.2051 L8.43333333,11.2051 C8.30453333,11.2051 8.2,11.1008 8.2,10.9717667 C8.2,10.8427333 8.30453333,10.7384333 8.43333333,10.7384333 L10.0998,10.7384333 C10.1847333,10.412 10.4402333,10.1565 10.7666667,10.0715667 L10.7666667,7.7051 C10.7666667,7.57606667 10.8712,7.47176667 11,7.47176667 C11.1288,7.47176667 11.2333333,7.57606667 11.2333333,7.7051 L11.2333333,10.0715667 C11.6346667,10.1758667 11.9333333,10.538 11.9333333,10.9717667 C11.9333333,11.4865 11.5147333,11.9051 11,11.9051 Z M14.7947,14.7667 C14.7492,14.8122 14.6894667,14.8350667 14.6297333,14.8350667 C14.57,14.8350667 14.5102667,14.8122 14.4647667,14.7667 L14.2998,14.6017333 C14.2085667,14.5105 14.2085667,14.3630333 14.2998,14.2718 C14.3910333,14.1805667 14.5385,14.1805667 14.6297333,14.2718 L14.7947,14.4367667 C14.8859333,14.5277667 14.8859333,14.6754667 14.7947,14.7667 Z M14.7947,7.50676667 L14.6297333,7.67173333 C14.5842333,7.71723333 14.5245,7.7401 14.4647667,7.7401 C14.4050333,7.7401 14.3453,7.71723333 14.2998,7.67173333 C14.2085667,7.5805 14.2085667,7.43303333 14.2998,7.3418 L14.4647667,7.17683333 C14.556,7.0856 14.7034667,7.0856 14.7947,7.17683333 C14.8859333,7.26806667 14.8859333,7.41576667 14.7947,7.50676667 Z M16.1333333,11.2051 L15.9,11.2051 C15.7712,11.2051 15.6666667,11.1008 15.6666667,10.9717667 C15.6666667,10.8427333 15.7712,10.7384333 15.9,10.7384333 L16.1333333,10.7384333 C16.2621333,10.7384333 16.3666667,10.8427333 16.3666667,10.9717667 C16.3666667,11.1008 16.2621333,11.2051 16.1333333,11.2051 Z" id="Shape" fill="#FBBE02" fill-rule="nonzero"></path>
                </g>
            </g>
        </g>
    </g>
</svg>