<?xml version="1.0" encoding="UTF-8"?>
<svg width="25px" height="22px" viewBox="0 0 25 22" version="1.1" xmlns="http://www.w3.org/2000/svg" xmlns:xlink="http://www.w3.org/1999/xlink">
    <!-- Generator: Sketch 49.3 (51167) - http://www.bohemiancoding.com/sketch -->
    <title>icons/processbuilder/lasso</title>
    <desc>Created with Sketch.</desc>
    <defs></defs>
    <g id="Symbols" stroke="none" stroke-width="1" fill="none" fill-rule="evenodd">
        <g id="Build/Applications/Processes/ProcessBuilder" transform="translate(-17.000000, -604.000000)" fill="#788793" fill-rule="nonzero">
            <g id="19" transform="translate(0.000000, 598.000000)">
                <path d="M38.6480242,7.20607063 C36.9862088,6.40576209 34.6772026,6 31.7851785,6 C28.5078731,6 24.8472856,6.99999557 21.9930534,8.67492841 C20.5092252,9.54570038 19.3232452,10.5403319 18.46798,11.6312229 C17.4938779,12.87372 17,14.1774154 17,15.5061265 C17,17.2027104 18.0190134,18.6979493 19.8227309,19.6925321 C19.7948381,19.8544273 19.7795264,20.0205162 19.7795264,20.1902136 C19.7795264,21.8035092 21.092048,23.1160308 22.7053436,23.1160308 C23.0723874,23.1160308 23.4253872,23.0607329 23.7601007,22.9675944 C23.9280426,23.1914194 24.1194886,23.6060564 24.1194886,24.3351213 C24.1194886,25.5755215 22.3893553,26.127672 22.3763355,26.1317194 L22.9368245,28 C23.0149438,27.9765447 23.7207485,27.7562794 24.4402557,27.2454317 C25.5064723,26.4884253 26.0700334,25.4820905 26.0700334,24.3351213 C26.0700334,23.3679924 25.8318719,22.6300038 25.5110073,22.0885326 C25.9909876,21.7385073 26.3666138,21.3715123 26.6051654,21.1150644 C26.6991329,21.1160397 26.793393,21.1167224 26.8879944,21.1167224 C30.2410297,21.1167224 33.9371171,20.2564346 36.7749648,18.8154208 C40.1231237,17.115326 41.9669737,14.801736 41.9669737,12.3008937 C41.9669737,10.0134898 40.8193219,8.25170894 38.6480242,7.20607063 Z M22.7053436,21.165486 C22.1675784,21.165486 21.7300712,20.72793 21.7300712,20.1902136 C21.7300712,19.6524484 22.1675784,19.2149412 22.7053436,19.2149412 C23.4521097,19.2149412 24.221112,19.7213514 24.7570729,20.1898235 C24.2230138,20.6552235 23.4504517,21.165486 22.7053436,21.165486 Z M35.8918556,17.0762175 C33.3146495,18.3848868 29.9487406,19.1661776 26.8879944,19.1661776 C26.7607213,19.1661776 26.6339359,19.1651535 26.5083208,19.163203 C25.8542056,18.4858275 24.4348429,17.2643964 22.7052948,17.2643964 C21.9669161,17.2643964 21.2920764,17.5399108 20.7766936,17.9927786 C19.5941759,17.34905 18.9505448,16.4795946 18.9505448,15.5061265 C18.9505448,13.7367385 20.4193051,11.8600218 22.9802729,10.3571758 C25.5482139,8.85023362 28.8397583,7.95054482 31.7851298,7.95054482 C37.2470454,7.95054482 40.0164289,9.41423366 40.0164289,12.3008937 C40.0164289,14.6335503 37.4322496,16.2940491 35.8918556,17.0762175 Z" id="icons/processbuilder/lasso"></path>
            </g>
        </g>
    </g>
</svg>