<?xml version="1.0" encoding="UTF-8"?>
<svg width="22px" height="22px" viewBox="0 0 22 22" version="1.1" xmlns="http://www.w3.org/2000/svg" xmlns:xlink="http://www.w3.org/1999/xlink">
    <!-- Generator: Sketch 49.3 (51167) - http://www.bohemiancoding.com/sketch -->
    <title>icons/processbuilder/parallel-gateway</title>
    <desc>Created with Sketch.</desc>
    <defs></defs>
    <g id="Symbols" stroke="none" stroke-width="1" fill="none" fill-rule="evenodd">
        <g id="Build/Applications/Processes/ProcessBuilder" transform="translate(-18.000000, -109.000000)" fill-rule="nonzero">
            <g id="4" transform="translate(0.000000, 103.000000)">
                <g id="icons/processbuilder/parallel-gateway" transform="translate(18.000000, 6.000000)">
                    <path d="M0.630525477,10.6816884 C0.456495378,10.8561873 0.456540222,11.1442949 0.630329149,11.3181153 L10.6822379,21.3696614 C10.8560174,21.5434462 11.1439826,21.5434462 11.3177621,21.3696614 L21.3696591,11.3174593 C21.543447,11.1436662 21.543447,10.8556661 21.3696709,10.6818847 L11.3177621,0.630338561 C11.1439826,0.456553813 10.8560174,0.456553813 10.6822262,0.630350303 L0.630525477,10.6816884 Z" id="3" stroke="#788793"></path>
                    <path d="M15.609375,10.609375 L11.390625,10.609375 L11.390625,6.390625 C11.390625,6.17488281 11.2157422,6 11,6 C10.7842578,6 10.609375,6.17488281 10.609375,6.390625 L10.609375,10.609375 L6.390625,10.609375 C6.17488281,10.609375 6,10.7842578 6,11 C6,11.2157422 6.17488281,11.390625 6.390625,11.390625 L10.609375,11.390625 L10.609375,15.609375 C10.609375,15.8251172 10.7842578,16 11,16 C11.2157422,16 11.390625,15.8251172 11.390625,15.609375 L11.390625,11.390625 L15.609375,11.390625 C15.8251172,11.390625 16,11.2157422 16,11 C16,10.7842578 15.8251172,10.609375 15.609375,10.609375 Z" id="Shape" fill="#788793"></path>
                </g>
            </g>
        </g>
    </g>
</svg>