<?xml version="1.0" encoding="UTF-8"?>
<svg width="27px" height="18px" viewBox="0 0 27 18" version="1.1" xmlns="http://www.w3.org/2000/svg" xmlns:xlink="http://www.w3.org/1999/xlink">
    <!-- Generator: Sketch 49.3 (51167) - http://www.bohemiancoding.com/sketch -->
    <title>icons/processbuilder/sub-process</title>
    <desc>Created with Sketch.</desc>
    <defs></defs>
    <g id="Symbols" stroke="none" stroke-width="1" fill="none" fill-rule="evenodd">
        <g id="Build/Applications/Processes/ProcessBuilder" transform="translate(-16.000000, -45.000000)" stroke="#788793" stroke-width="2">
            <g id="2" transform="translate(0.000000, 37.000000)">
                <g id="Group" transform="translate(16.000000, 8.000000)">
                    <path d="M2,1 C1.44771525,1 1,1.44771525 1,2 L1,16 C1,16.5522847 1.44771525,17 2,17 L24.3076923,17 C24.8599771,17 25.3076923,16.5522847 25.3076923,16 L25.3076923,2 C25.3076923,1.44771525 24.8599771,1 24.3076923,1 L2,1 Z M18.1951616,6.80475744 C18.7240402,7.33368649 19,8.00087951 19,8.75002204 L19,14.249978 C19,14.9939906 18.7244711,15.6585031 18.1980023,16.1887519 C17.6690431,16.7218057 17.0009577,17 16.2500524,17 L10.7499749,17 C9.99900426,17 9.3306624,16.7217478 8.80208406,16.1889492 C8.27545124,15.6585349 8,14.9940231 8,14.249978 L8,8.75002204 C8,8.00079671 8.27574482,7.33359988 8.80442396,6.80489827 C9.33321394,6.2758312 10.0005601,6 10.7499749,6 L16.2498609,6 C16.9991239,6 17.6663667,6.27579833 18.1951616,6.80475744 Z M18.1951616,6.80475744 C18.1951805,6.80477635 18.1951994,6.80479526 18.1952183,6.80481417 L18.1951049,6.80470071 C18.1951238,6.80471962 18.1951427,6.80473853 18.1951616,6.80475744 Z M13.5001494,9.95455766 C13.5820603,9.9846689 13.6671926,10 13.7501081,10 L13.2501108,10 C13.33314,10 13.4183173,9.98462555 13.5001494,9.95455766 Z M11.954583,11.5001161 C11.9846379,11.4183277 12,11.3331932 12,11.2501231 L12,11.7501231 C12,11.6671322 11.9846493,11.5819711 11.954583,11.5001161 Z M13.4998707,13.0453509 C13.4181235,13.0153312 13.3330667,13 13.2501108,13 L13.7501081,13 C13.6669724,13 13.5816295,13.0154136 13.4998707,13.0453509 Z M15.0454612,11.5001858 C15.0153409,11.5820949 15,11.6672354 15,11.7501505 L15,11.2501505 C15,11.3331332 15.015355,11.418306 15.0454612,11.5001858 Z" id="icons/processbuilder/sub-process"></path>
                </g>
            </g>
        </g>
    </g>
</svg>