<?xml version="1.0" encoding="UTF-8"?>
<svg width="22px" height="22px" viewBox="0 0 22 22" version="1.1" xmlns="http://www.w3.org/2000/svg" xmlns:xlink="http://www.w3.org/1999/xlink">
    <!-- Generator: Sketch 49.3 (51167) - http://www.bohemiancoding.com/sketch -->
    <title>icons/processbuilder/validator</title>
    <desc>Created with Sketch.</desc>
    <defs></defs>
    <g id="Symbols" stroke="none" stroke-width="1" fill="none" fill-rule="evenodd">
        <g id="Build/Applications/Processes/ProcessBuilder" transform="translate(-18.000000, -637.000000)">
            <g id="20" transform="translate(0.000000, 631.000000)">
                <g id="icons/processbuilder/validator" transform="translate(18.000000, 6.000000)">
                    <circle id="Oval-2" stroke="#788793" stroke-width="2" cx="11" cy="11" r="10"></circle>
                    <path d="M6.12,11.4 C6.04,11.32 6,11.2 6,11.12 C6,11.04 6.04,10.92 6.12,10.84 L6.68,10.28 C6.84,10.12 7.08,10.12 7.24,10.28 L7.28,10.32 L9.48,12.68 C9.56,12.76 9.68,12.76 9.76,12.68 L15.12,7.12 L15.16,7.12 C15.32,6.96 15.56,6.96 15.72,7.12 L16.28,7.68 C16.44,7.84 16.44,8.08 16.28,8.24 L9.88,14.88 C9.8,14.96 9.72,15 9.6,15 C9.48,15 9.4,14.96 9.32,14.88 L6.2,11.52 L6.12,11.4 Z" id="Shape" fill="#788793" fill-rule="nonzero"></path>
                </g>
            </g>
        </g>
    </g>
</svg>