<svg width="21" height="20" viewBox="0 0 21 20" fill="none" xmlns="http://www.w3.org/2000/svg">
    <path d="M14.1016 19.7998H3.60156C1.90156 19.7998 0.601562 18.4998 0.601562 16.7998V6.2998C0.601562 4.5998 1.90156 3.2998 3.60156 3.2998H11.8015C12.2015 3.2998 12.6016 3.6001 12.6016 4.1001C12.6016 4.6001 12.3015 4.8999 11.8015 4.8999H3.60156C2.80156 4.8999 2.10156 5.5999 2.10156 6.3999V16.8999C2.10156 17.6999 2.80156 18.3999 3.60156 18.3999H14.1016C14.9016 18.3999 15.6016 17.6999 15.6016 16.8999V8.7002C15.6016 8.3002 15.9016 7.8999 16.4016 7.8999C16.9016 7.8999 17.2015 8.2002 17.2015 8.7002V16.8999C17.2015 18.5999 15.9015 19.8999 14.2015 19.8999L14.1016 19.7998ZM5.90155 15.2998C5.70155 15.2998 5.50155 15.3001 5.40155 15.1001C5.10155 14.8001 5.10155 14.3 5.40155 14L17.6016 1.7998H14.2015C13.8015 1.7998 13.4016 1.5 13.4016 1C13.4016 0.5 13.7015 0.200195 14.2015 0.200195H19.4016C19.5016 0.200195 19.6015 0.200195 19.7015 0.200195C19.7015 0.200195 19.9016 0.199902 19.9016 0.399902C19.9016 0.599902 20.0016 0.600098 20.1016 0.600098C20.1016 0.600098 20.1016 0.799902 20.1016 0.899902V6.1001C20.1016 6.5001 19.8015 6.8999 19.3015 6.8999C18.8015 6.8999 18.5015 6.6001 18.5015 6.1001V2.7002L6.30151 14.8999C6.20151 14.9999 6.00151 15.1001 5.80151 15.1001L5.90155 15.2998Z" fill="#2773F3"/>
</svg>
