<svg xmlns="http://www.w3.org/2000/svg" width="14.64" height="16" viewBox="0 0 14.64 16">
  <g>
    <path fill="#3d4347"
      d="M8.57,3.67c.14.18.26.29.32.43.34.77.71,1.53,1,2.31.41,1.12,1.19,1.8,2.29,2.21.75.28,1.47.62,2.2.96.12.05.25.2.26.31.01.08-.14.23-.26.28-.83.38-1.66.75-2.51,1.1-.94.38-1.57,1.04-1.94,1.98-.33.82-.69,1.62-1.05,2.43-.06.13-.22.22-.33.32-.1-.11-.23-.2-.29-.32-.4-.89-.78-1.79-1.17-2.68-.33-.76-.89-1.29-1.65-1.62-.92-.4-1.84-.81-2.75-1.23-.11-.05-.24-.17-.24-.27,0-.09.13-.23.23-.27.81-.37,1.61-.76,2.44-1.08,1.07-.4,1.73-1.15,2.14-2.19.31-.79.67-1.56,1.02-2.34.05-.11.16-.19.29-.34Z" />
    <path fill="#3d4347"
      d="M2.87,2.01c.06.09.12.14.15.2.16.36.33.71.47,1.08.19.52.56.84,1.07,1.03.35.13.69.29,1.03.45.05.03.12.09.12.15,0,.04-.07.11-.12.13-.39.18-.78.35-1.17.51-.44.18-.74.49-.91.93-.15.38-.32.76-.49,1.14-.03.06-.1.1-.15.15-.05-.05-.11-.09-.14-.15-.19-.42-.36-.84-.55-1.25-.16-.36-.42-.6-.77-.76-.43-.19-.86-.38-1.29-.58-.05-.02-.11-.08-.11-.12,0-.04.06-.11.11-.13.38-.17.76-.36,1.14-.5.5-.19.81-.54,1-1.02.14-.37.31-.73.48-1.09.02-.05.07-.09.13-.16Z" />
    <path fill="#3d4347"
      d="M6.99,0s.06.07.08.11c.09.19.18.38.25.58.1.28.3.45.57.55.19.07.37.16.55.24.03.01.06.05.07.08,0,.02-.04.06-.06.07-.21.09-.41.19-.63.27-.23.1-.39.26-.49.49-.08.2-.17.4-.26.61-.01.03-.05.05-.08.08-.02-.03-.06-.05-.07-.08-.1-.22-.19-.45-.29-.67-.08-.19-.22-.32-.41-.4-.23-.1-.46-.2-.69-.31-.03-.01-.06-.04-.06-.07,0-.02.03-.06.06-.07.2-.09.4-.19.61-.27.27-.1.43-.29.53-.55.08-.2.17-.39.25-.58.01-.03.04-.05.07-.08Z" />
  </g>
</svg>