<svg width="24" height="24" viewBox="0 0 24 24" xmlns="http://www.w3.org/2000/svg">
    <path
        d="M1.5 3C1.5 2.17157 2.17157 1.5 3 1.5L21 1.5C21.8284 1.5 22.5 2.17157 22.5 3L22.5 21C22.5 21.8284 21.8284 22.5 21 22.5L3 22.5C2.17157 22.5 1.5 21.8284 1.5 21L1.5 3ZM-1.31134e-07 21C-5.87108e-08 22.6569 1.34315 24 3 24L21 24C22.6569 24 24 22.6569 24 21L24 3C24 1.34314 22.6569 -9.90363e-07 21 -9.17939e-07L3 -1.31134e-07C1.34314 -5.87108e-08 -9.90363e-07 1.34315 -9.17939e-07 3L-1.31134e-07 21Z" />
</svg>