<svg xmlns="http://www.w3.org/2000/svg" width="16.13" height="16.13" viewBox="0 0 16.13 16.13">
  <g>
    <path fill=" #3d4347"
      d="M8.07,0C4.16,0,0,1.2,0,3.43v9.28c0,2.23,4.16,3.43,8.07,3.43s8.07-1.2,8.07-3.43V3.43c0-2.23-4.16-3.43-8.07-3.43ZM8.07,1c4.04,0,7.07,1.28,7.07,2.43s-3.02,2.43-7.07,2.43S1,4.58,1,3.43s3.02-2.43,7.07-2.43ZM8.07,15.13c-4.04,0-7.07-1.28-7.07-2.43v-2.92c1.47,1.12,4.32,1.72,7.07,1.72s5.6-.59,7.07-1.72v2.92c0,1.15-3.02,2.43-7.07,2.43ZM8.07,10.5c-4.04,0-7.07-1.28-7.07-2.43v-2.92c1.47,1.12,4.32,1.72,7.07,1.72s5.6-.59,7.07-1.72v2.92c0,1.15-3.02,2.43-7.07,2.43Z" />
  </g>
</svg>