<svg xmlns="http://www.w3.org/2000/svg" width="16" height="16" viewBox="0 0 16 16">
  <g>
    <path fill="#3d4347"
      d="M8,4.41c-.71,0-1.4.21-1.99.6-.59.39-1.05.95-1.32,1.61-.27.65-.34,1.38-.2,2.07.14.7.48,1.33.98,1.84.5.5,1.14.84,1.84.98.7.14,1.42.07,2.07-.2.65-.27,1.21-.73,1.61-1.32.39-.59.6-1.28.6-1.99,0-.95-.38-1.86-1.05-2.53-.67-.67-1.58-1.05-2.53-1.05ZM8,10.65c-.52,0-1.04-.16-1.47-.45-.44-.29-.78-.7-.98-1.19-.2-.48-.25-1.02-.15-1.53.1-.51.35-.99.73-1.36.37-.37.84-.62,1.36-.73.51-.1,1.05-.05,1.53.15.48.2.9.54,1.19.98.29.44.45.95.45,1.47,0,.7-.28,1.38-.78,1.87-.5.5-1.17.78-1.87.78ZM14.7,8.22c0-.15,0-.3,0-.44l1.19-1.49c.05-.06.08-.12.09-.2.02-.07.01-.15,0-.22-.19-.7-.47-1.38-.83-2.01-.04-.06-.09-.12-.15-.16-.06-.04-.13-.07-.2-.07l-1.91-.21c-.1-.11-.2-.21-.31-.31l-.21-1.91c0-.07-.03-.14-.07-.2-.04-.06-.1-.11-.16-.15-.63-.36-1.3-.64-2.01-.83-.07-.02-.15-.02-.22,0-.07.02-.14.05-.2.09l-1.5,1.2c-.15,0-.3,0-.44,0L6.28.1c-.06-.05-.12-.08-.2-.09s-.15-.01-.22,0c-.7.19-1.38.47-2.01.83-.06.04-.12.09-.16.15-.04.06-.07.13-.07.2l-.21,1.91c-.11.1-.21.2-.31.31l-1.91.22c-.07,0-.14.03-.2.07-.06.04-.11.1-.15.16C.48,4.5.2,5.17.02,5.88c-.02.07-.02.14,0,.21.02.07.05.14.09.19l1.2,1.5c0,.15,0,.3,0,.44L.1,9.72c-.05.06-.08.12-.09.2-.02.07-.01.15,0,.22.19.7.47,1.38.83,2.01.04.06.09.12.15.16.06.04.13.07.2.07l1.91.21c.1.11.2.21.31.31l.22,1.9c0,.07.03.14.07.2.04.06.1.11.16.15.63.36,1.3.64,2.01.83.07.02.14.02.22,0,.07-.02.14-.05.2-.09l1.49-1.19c.15,0,.3,0,.44,0l1.5,1.2c.08.07.19.1.29.1.04,0,.08,0,.12-.02.7-.19,1.38-.47,2.01-.83.06-.04.12-.09.16-.15.04-.06.07-.13.07-.2l.21-1.91c.11-.1.21-.2.31-.31l1.91-.21c.07,0,.14-.03.2-.07.06-.04.11-.1.15-.16.36-.63.64-1.3.83-2.01.02-.07.02-.14,0-.22-.01-.07-.05-.14-.09-.2l-1.2-1.5ZM14.46,11.46l-1.84.2c-.12.01-.22.07-.3.16-.15.17-.32.34-.49.49-.09.08-.14.18-.16.3l-.2,1.84c-.43.23-.88.42-1.35.56l-1.45-1.16c-.08-.07-.19-.1-.29-.1h-.03c-.23.01-.46.01-.7,0-.12,0-.23.03-.32.1l-1.45,1.16c-.47-.14-.92-.33-1.35-.56l-.2-1.84c-.01-.12-.07-.22-.16-.3-.17-.15-.34-.32-.49-.49-.08-.09-.18-.14-.3-.16l-1.84-.2c-.23-.43-.42-.88-.56-1.35l1.16-1.45c.07-.09.11-.2.1-.32-.01-.23-.01-.46,0-.7,0-.12-.03-.23-.1-.32l-1.16-1.45c.14-.47.33-.92.56-1.35l1.84-.2c.12-.01.22-.07.3-.16.15-.17.32-.34.49-.49.09-.08.14-.18.16-.3l.2-1.84c.43-.23.88-.42,1.35-.56l1.45,1.16c.09.07.2.11.32.1.23-.01.46-.01.7,0,.12,0,.23-.03.32-.1l1.45-1.16c.47.14.92.33,1.35.56l.2,1.84c.01.12.07.22.16.3.17.15.34.32.49.49.08.09.18.14.3.16l1.84.2c.23.43.42.88.56,1.35l-1.16,1.45c-.07.09-.11.2-.1.32.01.23.01.46,0,.7,0,.12.03.23.1.32l1.16,1.45c-.14.47-.33.92-.56,1.35h0Z" />
  </g>
</svg>