<svg xmlns="http://www.w3.org/2000/svg" width="16" height="16" viewBox="0 0 16 16">
  <g>
    <path fill="#3d4347"
      d="M13,1c1.1,0,2,.9,2,2v10c0,1.1-.9,2-2,2H3c-1.1,0-2-.9-2-2V3c0-1.1.9-2,2-2h10M13,0H3C1.34,0,0,1.34,0,3v10c0,1.66,1.34,3,3,3h10c1.66,0,3-1.34,3-3V3c0-1.66-1.34-3-3-3h0Z" />
    <path fill="#3d4347"
      d="M5.63,3.79c-.03.33.22.61.54.64h.15c.62.06,1.09.58,1.09,1.19v1.78h-.59c-.33,0-.59.27-.59.59s.27.59.59.59h.59v1.78c0,.62-.47,1.13-1.09,1.18h-.15c-.33.04-.57.32-.54.65.03.33.31.57.64.54h.15c.63-.06,1.19-.36,1.58-.81.39.45.95.74,1.58.8h.15c.33.04.61-.2.64-.53s-.22-.61-.54-.64h-.15c-.62-.06-1.09-.58-1.09-1.2v-1.78h.59c.33,0,.59-.27.59-.59s-.27-.59-.59-.59h-.59v-1.78c0-.62.47-1.13,1.09-1.18h.15c.33-.04.57-.33.54-.65s-.31-.57-.64-.54h-.15c-.63.06-1.19.36-1.58.81-.39-.45-.95-.74-1.58-.8h-.15c-.33-.04-.61.2-.64.53Z" />
  </g>
</svg>