<svg width="29" height="29" viewBox="0 0 29 29" xmlns="http://www.w3.org/2000/svg">
    <path
        d="M13.5841 1.9168C14.121 1.37983 14.9916 1.37983 15.5286 1.9168L27.1959 13.5841C27.7329 14.121 27.7329 14.9916 27.1959 15.5286L15.5286 27.1959C14.9916 27.7328 14.121 27.7328 13.5841 27.1959L1.91682 15.5286C1.37984 14.9916 1.37984 14.121 1.91682 13.5841L13.5841 1.9168ZM0.944544 12.6118C-0.129398 13.6857 -0.129398 15.4269 0.944544 16.5009L12.6118 28.1681C13.6857 29.2421 15.427 29.2421 16.5009 28.1681L28.1682 16.5009C29.2421 15.4269 29.2421 13.6857 28.1682 12.6118L16.5009 0.94453C15.427 -0.129412 13.6857 -0.129412 12.6118 0.94453L0.944544 12.6118Z" />
</svg>