<svg xmlns="http://www.w3.org/2000/svg" width="16" height="16" viewBox="0 0 16 16">
  <g>
    <g>
      <g>
        <circle fill=" #ffeaca" cx="8" cy="8" r="7.5" />
        <path fill="#ffb01f"
          d="M8,1c3.86,0,7,3.14,7,7s-3.14,7-7,7S1,11.86,1,8,4.14,1,8,1M8,0C3.58,0,0,3.58,0,8s3.58,8,8,8,8-3.58,8-8S12.42,0,8,0h0Z" />
      </g>
      <path fill="#ffb01f"
        d="M8,3.82c2.3,0,4.18,1.87,4.18,4.18s-1.87,4.18-4.18,4.18-4.18-1.87-4.18-4.18,1.87-4.18,4.18-4.18M8,2.82c-2.86,0-5.18,2.32-5.18,5.18s2.32,5.18,5.18,5.18,5.18-2.32,5.18-5.18-2.32-5.18-5.18-5.18h0Z" />
    </g>
  </g>
</svg>