<svg width="13" height="12" viewBox="0 0 13 12" fill="none" xmlns="http://www.w3.org/2000/svg">
    <path fill-rule="evenodd" clip-rule="evenodd" d="M6.42859 12C8.01989 12 9.54601 11.3679 10.6712 10.2426C11.7964 9.11742 12.4286 7.5913 12.4286 6C12.4286 4.4087 11.7964 2.88258 10.6712 1.75736C9.54601 0.632141 8.01989 0 6.42859 0C4.83729 0 3.31117 0.632141 2.18595 1.75736C1.06073 2.88258 0.428589 4.4087 0.428589 6C0.428589 7.5913 1.06073 9.11742 2.18595 10.2426C3.31117 11.3679 4.83729 12 6.42859 12ZM9.32134 4.64325C9.36477 4.58347 9.39601 4.51571 9.41326 4.44386C9.43051 4.372 9.43344 4.29745 9.42188 4.22447C9.41031 4.15148 9.38449 4.08148 9.34588 4.01848C9.30727 3.95547 9.25662 3.90068 9.19684 3.85725C9.13705 3.81382 9.0693 3.78258 8.99745 3.76533C8.92559 3.74808 8.85104 3.74515 8.77805 3.75671C8.70507 3.76828 8.63507 3.7941 8.57207 3.83271C8.50906 3.87132 8.45427 3.92197 8.41084 3.98175L5.79859 7.57425L4.38859 6.16425C4.33667 6.11055 4.27459 6.06773 4.20594 6.03828C4.1373 6.00883 4.06349 5.99335 3.9888 5.99274C3.91411 5.99212 3.84005 6.00639 3.77093 6.03471C3.70181 6.06302 3.63903 6.10482 3.58624 6.15766C3.53345 6.2105 3.49171 6.27332 3.46346 6.34246C3.43521 6.41161 3.42102 6.48568 3.4217 6.56037C3.42238 6.63506 3.43794 6.70886 3.46745 6.77747C3.49696 6.84609 3.53984 6.90814 3.59359 6.96L5.46859 8.835C5.52606 8.8925 5.59531 8.93686 5.67157 8.96503C5.74784 8.9932 5.8293 9.0045 5.91035 8.99815C5.9914 8.99181 6.07011 8.96797 6.14106 8.92828C6.21201 8.88859 6.27352 8.83399 6.32134 8.76825L9.32134 4.64325Z" fill="#2773F3"/>
</svg>
