<svg xmlns="http://www.w3.org/2000/svg" width="16" height="16" viewBox="0 0 16 16" fill="none">
    <g id="icons w24">
        <path id="Vector"
            d="M13.6449 4.04935C14.1134 3.58082 14.1134 2.81993 13.6449 2.3514C13.1763 1.88287 12.4154 1.88287 11.9469 2.3514L8 6.30204L4.04935 2.35515C3.58082 1.88662 2.81993 1.88662 2.3514 2.35515C1.88287 2.82368 1.88287 3.58457 2.3514 4.0531L6.30204 8L2.35515 11.9506C1.88662 12.4192 1.88662 13.1801 2.35515 13.6486C2.82368 14.1171 3.58457 14.1171 4.0531 13.6486L8 9.69795L11.9506 13.6449C12.4192 14.1134 13.1801 14.1134 13.6486 13.6449C14.1171 13.1763 14.1171 12.4154 13.6486 11.9469L9.69795 8L13.6449 4.04935Z"
            fill="#6A7888" />
    </g>
</svg>