<svg width="18" height="14" viewBox="0 0 18 14" fill="none" xmlns="http://www.w3.org/2000/svg">
<path d="M9 5.125V10.75M9 10.75L6.5 8.25M9 10.75L11.5 8.25M4.625 13.25C2.55393 13.25 0.875 11.5711 0.875 9.5C0.875 7.83921 1.95463 6.43058 3.45033 5.93766C3.40087 5.67433 3.375 5.40269 3.375 5.125C3.375 2.70875 5.33375 0.75 7.75 0.75C9.77602 0.75 11.4804 2.12717 11.9781 3.99646C12.2212 3.91761 12.4806 3.875 12.75 3.875C14.1307 3.875 15.25 4.99429 15.25 6.375C15.25 6.66512 15.2006 6.94369 15.1097 7.20277C16.2878 7.65038 17.125 8.78992 17.125 10.125C17.125 11.8509 15.7259 13.25 14 13.25H4.625Z" stroke="currentColor" stroke-width="1.25" stroke-linecap="round" stroke-linejoin="round"/>
</svg>
