<svg width="19" height="22" viewBox="0 0 19 22" fill="none" xmlns="http://www.w3.org/2000/svg">
<path d="M17.5 5.125C17.5 7.40317 13.8063 9.25 9.25 9.25C4.69365 9.25 1 7.40317 1 5.125M17.5 5.125C17.5 2.84683 13.8063 1 9.25 1C4.69365 1 1 2.84683 1 5.125M17.5 5.125V16.375C17.5 18.6532 13.8063 20.5 9.25 20.5C4.69365 20.5 1 18.6532 1 16.375V5.125M17.5 5.125V8.875M1 5.125V8.875M17.5 8.875V12.625C17.5 14.9032 13.8063 16.75 9.25 16.75C4.69365 16.75 1 14.9032 1 12.625V8.875M17.5 8.875C17.5 11.1532 13.8063 13 9.25 13C4.69365 13 1 11.1532 1 8.875" stroke="currentColor" stroke-width="1.5" stroke-linecap="round" stroke-linejoin="round"/>
</svg>
