<svg xmlns="http://www.w3.org/2000/svg" width="20" height="20" viewBox="0 0 20 20">
    <path
        d="M5.15342 8.51357L3.12963 10.5374C1.40118 12.2658 1.40118 15.0682 3.12963 16.7966C4.85808 18.5251 7.66045 18.5251 9.3889 16.7966L12.0864 14.0991C13.8149 12.3707 13.8149 9.56828 12.0864 7.83984C11.7206 7.47405 11.3068 7.18567 10.8651 6.97471L10 7.83984C9.91004 7.9298 9.83412 8.02849 9.77225 8.13318C10.2376 8.26653 10.6766 8.51648 11.0432 8.88305C12.1955 10.0353 12.1955 11.9036 11.0432 13.0559L8.34569 15.7534C7.19339 16.9057 5.32514 16.9057 4.17284 15.7534C3.02055 14.6011 3.02055 12.7329 4.17284 11.5806L5.34219 10.4112C5.17667 9.7914 5.11375 9.14989 5.15342 8.51357Z"
        fill="currentColor" />
    <path
        d="M7.91358 5.75341C6.18513 7.48186 6.18513 10.2842 7.91358 12.0127C8.27936 12.3785 8.69325 12.6668 9.13487 12.8778L10.2791 11.7336C9.79472 11.6042 9.33682 11.3495 8.95679 10.9695C7.80449 9.81717 7.80449 7.94893 8.95679 6.79663L11.6543 4.0991C12.8066 2.9468 14.6749 2.9468 15.8272 4.0991C16.9795 5.2514 16.9795 7.11965 15.8272 8.27195L14.6578 9.4413C14.8233 10.0611 14.8862 10.7026 14.8466 11.3389L16.8704 9.31516C18.5988 7.58671 18.5988 4.78434 16.8704 3.05589C15.1419 1.32744 12.3395 1.32744 10.6111 3.05589L7.91358 5.75341Z"
        fill="currentColor" />
</svg>