<svg width="16" height="18" viewBox="0 0 16 18" fill="none" xmlns="http://www.w3.org/2000/svg">
<path d="M11.125 13.375V16.1875C11.125 16.7053 10.7053 17.125 10.1875 17.125H2.0625C1.54473 17.125 1.125 16.7053 1.125 16.1875V5.5625C1.125 5.04473 1.54473 4.625 2.0625 4.625H3.625C4.05089 4.625 4.46849 4.6605 4.875 4.7287M11.125 13.375H13.9375C14.4553 13.375 14.875 12.9553 14.875 12.4375V8.375C14.875 4.65876 12.1721 1.5738 8.625 0.978698C8.21849 0.910499 7.80089 0.875 7.375 0.875H5.8125C5.29473 0.875 4.875 1.29473 4.875 1.8125V4.7287M11.125 13.375H5.8125C5.29473 13.375 4.875 12.9553 4.875 12.4375V4.7287M14.875 10.25V8.6875C14.875 7.1342 13.6158 5.875 12.0625 5.875H10.8125C10.2947 5.875 9.875 5.45527 9.875 4.9375V3.6875C9.875 2.1342 8.6158 0.875 7.0625 0.875H6.125" stroke="currentColor" stroke-width="1.25" stroke-linecap="round" stroke-linejoin="round"/>
</svg>
