<svg width="18" height="18" viewBox="0 0 18 18" fill="none" xmlns="http://www.w3.org/2000/svg">
<path d="M13.0514 2.73889L14.4576 1.33265C15.0678 0.722451 16.0572 0.722451 16.6674 1.33265C17.2775 1.94284 17.2775 2.93216 16.6674 3.54235L7.81849 12.3912C7.37792 12.8318 6.83453 13.1556 6.23741 13.3335L4 14L4.66648 11.7626C4.84435 11.1655 5.1682 10.6221 5.60877 10.1815L13.0514 2.73889ZM13.0514 2.73889L15.25 4.93749M14 10.6667V14.625C14 15.6605 13.1605 16.5 12.125 16.5H3.375C2.33947 16.5 1.5 15.6605 1.5 14.625V5.87499C1.5 4.83946 2.33947 3.99999 3.375 3.99999H7.33333" stroke="currentColor" stroke-width="1.25" stroke-linecap="round" stroke-linejoin="round"/>
</svg>
