<svg width="22" height="16" viewBox="0 0 22 16" fill="currentColor" xmlns="http://www.w3.org/2000/svg">
<path d="M4.14291 6.40185C4.21856 7.73641 4.70108 9.67618 5.69473 10.5903C7.51035 12.2609 10.0946 12.9714 12.4708 12.1028C13.366 11.776 14.1701 11.2328 14.8689 10.5903C15.299 10.1946 15.6302 9.74117 16.1195 9.39928C16.5831 9.07534 17.0962 8.82656 17.6292 8.63986C18.7072 8.26258 19.8623 8.13067 21 8.13067V6.40137H1C1 6.40137 1.4573 12.4748 10.2571 12.4748" stroke="currentColor" stroke-width="1.25" stroke-miterlimit="10"/>
<path d="M10.257 3.09611C10.9065 3.09611 11.433 2.56961 11.433 1.92013C11.433 1.27065 10.9065 0.744141 10.257 0.744141C9.60756 0.744141 9.08105 1.27065 9.08105 1.92013C9.08105 2.56961 9.60756 3.09611 10.257 3.09611Z" stroke="currentColor" stroke-width="1.25" stroke-miterlimit="10"/>
<path d="M10.2565 3.09668C8.43073 3.09668 6.95117 4.57672 6.95117 6.40205H13.5624C13.5624 4.57624 12.0823 3.09668 10.257 3.09668H10.2565Z" stroke="currentColor" stroke-width="1.25" stroke-miterlimit="10"/>
<path d="M10.2574 12.4756C7.40791 12.4756 5.09764 13.3039 5.0957 14.3256V14.7621C5.0957 15.0346 5.31684 15.2558 5.58937 15.2558H14.9255C15.198 15.2558 15.4192 15.0346 15.4192 14.7621V14.3256C15.4177 13.3039 13.1074 12.4756 10.2574 12.4756Z" stroke="currentColor" stroke-width="1.25" stroke-miterlimit="10"/>
</svg>
