<svg width="18" height="16" viewBox="0 0 18 16" fill="currentColor" xmlns="http://www.w3.org/2000/svg">
<path d="M0.875 8.625V8C0.875 6.96447 1.71447 6.125 2.75 6.125H15.25C16.2855 6.125 17.125 6.96447 17.125 8V8.625M9.88388 3.25888L8.11612 1.49112C7.8817 1.2567 7.56375 1.125 7.23223 1.125H2.75C1.71447 1.125 0.875 1.96447 0.875 3V13C0.875 14.0355 1.71447 14.875 2.75 14.875H15.25C16.2855 14.875 17.125 14.0355 17.125 13V5.5C17.125 4.46447 16.2855 3.625 15.25 3.625H10.7678C10.4362 3.625 10.1183 3.4933 9.88388 3.25888Z" stroke="currentColor" stroke-width="1.25" stroke-linecap="round" stroke-linejoin="round"/>
</svg>
