<svg xmlns="http://www.w3.org/2000/svg" viewBox="0 0 17 16" fill="current">
    <path
        d="M11.25 0H15.75C16.1656 0 16.5 0.334375 16.5 0.75V5.25C16.5 5.55312 16.3188 5.82812 16.0375 5.94375C15.7563 6.05937 15.4344 5.99687 15.2188 5.78125L14 4.5625L11.2812 7.28125C10.9875 7.575 10.5125 7.575 10.2219 7.28125L9.22188 6.28125C8.92813 5.9875 8.92813 5.5125 9.22188 5.22188L11.9406 2.50312L10.7188 1.28125C10.5031 1.06562 10.4406 0.74375 10.5562 0.4625C10.6719 0.18125 10.9469 0 11.25 0ZM5.75 16H1.25C0.834375 16 0.5 15.6656 0.5 15.25V10.75C0.5 10.4469 0.68125 10.1719 0.9625 10.0562C1.24375 9.94062 1.56562 10.0031 1.78125 10.2188L3 11.4375L5.71875 8.71875C6.0125 8.425 6.4875 8.425 6.77812 8.71875L7.77812 9.71875C8.07187 10.0125 8.07187 10.4875 7.77812 10.7781L5.05937 13.4969L6.27812 14.7156C6.49375 14.9312 6.55625 15.2531 6.44063 15.5344C6.325 15.8156 6.05 15.9969 5.74687 15.9969L5.75 16Z"
        fill="currentColor" />
</svg>