<svg xmlns="http://www.w3.org/2000/svg" width="16" height="15.6" viewBox="0 0 16 15.6">
  <g>
    <path fill="#3d4347"
      d="M5.35,12.56c0,.06-.07.12-.17.12-.11,0-.18-.04-.18-.12,0-.06.07-.12.17-.12.1,0,.18.04.18.12ZM4.35,12.42c-.02.06.04.14.14.16.08.03.18,0,.2-.06s-.04-.14-.14-.17c-.08-.02-.18,0-.2.07h0ZM5.77,12.36c-.09.02-.16.08-.15.16,0,.06.09.11.19.08.09-.02.16-.08.15-.15,0-.06-.1-.1-.19-.09ZM7.9,0C3.42,0,0,3.4,0,7.87c0,3.58,2.25,6.64,5.47,7.72.41.07.56-.18.56-.39s0-1.3,0-1.98c0,0-2.26.48-2.73-.96,0,0-.37-.94-.9-1.18,0,0-.74-.51.05-.5,0,0,.8.06,1.25.83.71,1.25,1.89.89,2.35.67.07-.52.28-.87.52-1.09-1.8-.2-3.62-.46-3.62-3.56,0-.89.25-1.33.76-1.9-.08-.21-.36-1.07.08-2.19.67-.21,2.23.87,2.23.87.65-.18,1.34-.27,2.03-.27s1.38.09,2.03.27c0,0,1.55-1.08,2.23-.87.44,1.12.17,1.98.08,2.19.52.57.83,1.02.83,1.9,0,3.11-1.9,3.36-3.7,3.56.3.25.55.74.55,1.5,0,1.09,0,2.43,0,2.7,0,.21.15.46.56.39,3.23-1.07,5.41-4.13,5.41-7.71C16,3.4,12.37,0,7.9,0ZM3.14,11.13s-.03.11.02.17c.05.05.13.07.17.03.04-.03.03-.11-.02-.17-.05-.05-.13-.07-.17-.03ZM2.79,10.86s0,.09.07.13c.05.03.12.02.14-.02.02-.04,0-.09-.07-.13-.06-.02-.12,0-.14.02ZM3.83,12.01c-.05.04-.03.14.04.2.07.07.17.08.21.03.04-.04.02-.14-.04-.2-.07-.07-.17-.08-.21-.03ZM3.46,11.54c-.05.03-.05.12,0,.19s.14.11.18.07c.05-.04.05-.13,0-.2-.05-.07-.13-.11-.18-.06h0Z" />
  </g>
</svg>