<svg width="20" height="18" viewBox="0 0 20 18" fill="none" xmlns="http://www.w3.org/2000/svg">
<path fill-rule="evenodd" clip-rule="evenodd" d="M5.37508 0.818115C4.7917 0.818002 4.22366 1.00495 3.75438 1.35151C3.28511 1.69807 2.93932 2.18598 2.76781 2.74357L0.575987 9.86902C0.495954 10.1288 0.455201 10.399 0.455078 10.6708V14.4545C0.455078 15.1778 0.742415 15.8715 1.25388 16.383C1.76534 16.8944 2.45903 17.1818 3.18235 17.1818H16.8187C17.542 17.1818 18.2357 16.8944 18.7472 16.383C19.2587 15.8715 19.546 15.1778 19.546 14.4545V10.6708C19.546 10.399 19.5051 10.129 19.4251 9.86902L17.2324 2.74357C17.0609 2.18613 16.7152 1.69833 16.2461 1.35178C15.777 1.00524 15.2092 0.818196 14.626 0.818115H5.37508ZM17.9414 9.68175L15.9296 3.14448C15.8439 2.86568 15.671 2.62173 15.4363 2.44845C15.2017 2.27517 14.9177 2.18169 14.626 2.18175H5.37508C5.08339 2.18169 4.79937 2.27517 4.56473 2.44845C4.33009 2.62173 4.1572 2.86568 4.07144 3.14448L2.05962 9.68175H4.64599C5.15255 9.6816 5.64915 9.82253 6.08011 10.0888C6.51108 10.355 6.85938 10.736 7.08599 11.189L7.31872 11.6554C7.43202 11.8819 7.60617 12.0724 7.82165 12.2055C8.03713 12.3386 8.28543 12.4091 8.53872 12.409H11.4642C11.7175 12.409 11.9659 12.3384 12.1814 12.2051C12.3969 12.0719 12.571 11.8812 12.6842 11.6545L12.9169 11.189C13.1435 10.736 13.4918 10.355 13.9228 10.0888C14.3537 9.82253 14.8503 9.6816 15.3569 9.68175H17.9414Z" fill="currentColor"/>
</svg>
