<svg xmlns="http://www.w3.org/2000/svg" viewBox="0 0 16 16" fill="currentColor">
    <path
        d="M11.5 0H4.5C3.67188 0 3 0.671875 3 1.5V14.5C3 15.3281 3.67188 16 4.5 16H11.5C12.3281 16 13 15.3281 13 14.5V1.5C13 0.671875 12.3281 0 11.5 0ZM8 15C7.44688 15 7 14.5531 7 14C7 13.4469 7.44688 13 8 13C8.55312 13 9 13.4469 9 14C9 14.5531 8.55312 15 8 15ZM11.5 11.625C11.5 11.8313 11.3313 12 11.125 12H4.875C4.66875 12 4.5 11.8313 4.5 11.625V1.875C4.5 1.66875 4.66875 1.5 4.875 1.5H11.125C11.3313 1.5 11.5 1.66875 11.5 1.875V11.625Z"
        fill="currentColor" />
</svg>