<svg xmlns="http://www.w3.org/2000/svg" width="15.18" height="16.04" viewBox="0 0 15.18 16.04">
  <g>
    <g>
      <polygon fill="#3d4347"
        points="1.4 1 7.83 1 13.47 6.64 13.47 8.97 14.47 8.97 14.47 6.23 8.25 0 .4 0 .4 8.97 1.4 8.97 1.4 1" />
      <polygon fill="#3d4347" points="13.46 7.17 7.3 7.17 7.3 1.02 8.3 1.02 8.3 6.17 13.46 6.17 13.46 7.17" />
    </g>
    <g>
      <path fill="#3d4347"
        d="M15.18,10.76c0,.18-.07.34-.19.47s-.29.19-.47.19h-1.98v1.32h1.32c.18,0,.34.07.47.19s.19.29.19.47-.07.34-.19.47-.29.19-.47.19h-1.32v1.32c0,.18-.07.34-.19.47s-.29.19-.47.19-.34-.07-.47-.19-.19-.29-.19-.47v-4.62c0-.18.07-.34.19-.47s.29-.19.47-.19h2.64c.18,0,.34.07.47.19s.19.29.19.47Z" />
      <path fill="#3d4347"
        d="M3.61,10.78c-.43-.43-1.02-.68-1.63-.68H.66c-.18,0-.34.07-.47.19-.12.12-.19.29-.19.47v4.62c0,.18.07.34.19.47.12.12.29.19.47.19s.34-.07.47-.19c.12-.12.19-.29.19-.47v-.66h.66c.61,0,1.2-.24,1.63-.68s.68-1.02.68-1.63-.24-1.2-.68-1.63ZM2.68,13.11c-.19.19-.44.29-.7.29h-.66v-1.98h.66c.26,0,.51.1.7.29.19.19.29.44.29.7s-.1.51-.29.7Z" />
      <path fill="#3d4347"
        d="M9.36,10.97c-.56-.56-1.31-.87-2.1-.87h-1.32c-.18,0-.34.07-.47.19-.12.12-.19.29-.19.47v4.62c0,.18.07.34.19.47.12.12.29.19.47.19h1.32c.79,0,1.54-.31,2.1-.87.56-.56.87-1.31.87-2.1s-.31-1.54-.87-2.1ZM8.43,14.24c-.31.31-.73.48-1.17.48h-.66v-3.3h.66c.44,0,.86.17,1.17.48.31.31.48.73.48,1.17s-.17.86-.48,1.17Z" />
    </g>
  </g>
</svg>