<svg width="18" height="18" viewBox="0 0 18 18" fill="none" xmlns="http://www.w3.org/2000/svg">
    <path d="M13.0517 2.73916L14.4575 1.33249C14.7506 1.03943 15.148 0.874786 15.5625 0.874786C15.977 0.874786 16.3744 1.03943 16.6675 1.33249C16.9606 1.62556 17.1252 2.02304 17.1252 2.43749C17.1252 2.85195 16.9606 3.24943 16.6675 3.54249L7.81833 12.3917C7.37777 12.832 6.83447 13.1556 6.2375 13.3333L4 14L4.66667 11.7625C4.8444 11.1655 5.16803 10.6222 5.60833 10.1817L13.0517 2.73916ZM13.0517 2.73916L15.25 4.93749M14 10.6667V14.625C14 15.1223 13.8025 15.5992 13.4508 15.9508C13.0992 16.3024 12.6223 16.5 12.125 16.5H3.375C2.87772 16.5 2.40081 16.3024 2.04917 15.9508C1.69754 15.5992 1.5 15.1223 1.5 14.625V5.87499C1.5 5.37771 1.69754 4.9008 2.04917 4.54917C2.40081 4.19754 2.87772 3.99999 3.375 3.99999H7.33333" stroke="#2773F3" stroke-width="1.25" stroke-linecap="round" stroke-linejoin="round"/>
</svg>