<svg viewBox="0 0 14 15" height="15" width="14" xmlns="http://www.w3.org/2000/svg">
    <path xmlns="http://www.w3.org/2000/svg"
        d="M7.00021 0.770294C7.4736 0.770294 7.85735 1.15405 7.85735 1.62744V6.77029H13.0002C13.4736 6.77029 13.8574 7.15405 13.8574 7.62744C13.8574 8.10082 13.4736 8.48458 13.0002 8.48458H7.85735V13.6274C7.85735 14.1008 7.4736 14.4846 7.00021 14.4846C6.52682 14.4846 6.14307 14.1008 6.14307 13.6274V8.48458H1.00021C0.526822 8.48458 0.143066 8.10082 0.143066 7.62744C0.143066 7.15405 0.526822 6.77029 1.00021 6.77029H6.14307V1.62744C6.14307 1.15405 6.52682 0.770294 7.00021 0.770294Z" />
</svg>