<svg xmlns="http://www.w3.org/2000/svg" width="16" height="16" viewBox="0 0 16 16">
  <g>
    <path fill="#3d4347"
      d="M3.36,10.11c0,.92-.76,1.68-1.68,1.68s-1.68-.76-1.68-1.68.76-1.68,1.68-1.68h1.68v1.68h0ZM4.21,10.11c0-.92.76-1.68,1.68-1.68s1.68.76,1.68,1.68v4.21c0,.92-.76,1.68-1.68,1.68s-1.68-.76-1.68-1.68c0,0,0-4.21,0-4.21ZM5.89,3.36c-.92,0-1.68-.76-1.68-1.68s.76-1.68,1.68-1.68,1.68.76,1.68,1.68v1.68h-1.68ZM5.89,4.21c.92,0,1.68.76,1.68,1.68s-.76,1.68-1.68,1.68H1.68c-.92,0-1.68-.76-1.68-1.68s.76-1.68,1.68-1.68h4.21ZM12.64,5.89c0-.92.76-1.68,1.68-1.68s1.68.76,1.68,1.68-.76,1.68-1.68,1.68h-1.68v-1.68ZM11.79,5.89c0,.92-.76,1.68-1.68,1.68s-1.68-.76-1.68-1.68V1.68c0-.92.76-1.68,1.68-1.68s1.68.76,1.68,1.68v4.21ZM10.11,12.64c.92,0,1.68.76,1.68,1.68s-.76,1.68-1.68,1.68-1.68-.76-1.68-1.68v-1.68h1.68ZM10.11,11.79c-.92,0-1.68-.76-1.68-1.68s.76-1.68,1.68-1.68h4.21c.92,0,1.68.76,1.68,1.68s-.76,1.68-1.68,1.68h-4.21Z" />
  </g>
</svg>