<svg width="22" height="22" viewBox="8 8 20 17" fill="transparent" xmlns="http://www.w3.org/2000/svg">
    <path
        d="M25.5923 8H9.65479C8.7749 8 8.06104 8.71387 8.06104 9.59375V20.2188C8.06104 21.0986 8.7749 21.8125 9.65479 21.8125H16.0298L15.4985 23.4062H13.1079C12.6663 23.4062 12.311 23.7615 12.311 24.2031C12.311 24.6447 12.6663 25 13.1079 25H22.1392C22.5808 25 22.936 24.6447 22.936 24.2031C22.936 23.7615 22.5808 23.4062 22.1392 23.4062H19.7485L19.2173 21.8125H25.5923C26.4722 21.8125 27.186 21.0986 27.186 20.2188V9.59375C27.186 8.71387 26.4722 8 25.5923 8ZM25.061 19.6875H10.186V10.125H25.061V19.6875Z"
        fill="currentColor" />

    <path
        d="M19.9481 14.1889L16.1318 11.7212C15.8217 11.5208 15.3468 11.7153 15.3468 12.2109V17.1452C15.3468 17.5898 15.7881 17.8578 16.1318 17.6349L19.9481 15.1684C20.2885 14.949 20.2896 14.4083 19.9481 14.1889Z"
        fill="currentColor" />
</svg>