<svg id="Layer_2" data-name="Layer 2" xmlns="http://www.w3.org/2000/svg" width="16" height="12.24"
  viewBox="0 0 16 12.24">
  <g>
    <path fill="#3d4347"
      d="M15.53,0H.47c-.12,0-.24.05-.33.14-.09.09-.14.21-.14.33v10.67c0,.29.12.57.32.78.21.21.49.32.78.32h13.8c.29,0,.57-.12.78-.32.21-.21.32-.49.32-.78V.47c0-.12-.05-.24-.14-.33-.09-.09-.21-.14-.33-.14ZM.94,4.71h3.45v2.82H.94v-2.82ZM5.33,4.71h9.73v2.82H5.33v-2.82ZM15.06.94v2.82H.94V.94h14.12ZM.94,11.14v-2.67h3.45v2.82H1.1s-.08-.02-.11-.05-.05-.07-.05-.11ZM14.9,11.29H5.33v-2.82h9.73v2.67s-.02.08-.05.11-.07.05-.11.05Z" />
  </g>
</svg>