<svg width="17" height="16" viewBox="0 0 17 16" fill="none" xmlns="http://www.w3.org/2000/svg">
<path d="M0.599609 8C0.599609 3.6 4.19961 0 8.59961 0C12.9996 0 16.5996 3.6 16.5996 8C16.5996 12.4 12.9996 16 8.59961 16C4.19961 16 0.599609 12.4 0.599609 8ZM10.5996 11C10.5996 10.2 10.0996 9.4001 9.3996 9.1001V2.69995C9.3996 2.29995 9.09961 1.8999 8.59961 1.8999C8.09961 1.8999 7.79961 2.19995 7.79961 2.69995V9.1001C7.09961 9.4001 6.59961 10.1 6.59961 11C6.59961 11.9 7.49961 13 8.59961 13C9.69961 13 10.5996 12.1 10.5996 11ZM5.09961 5.5C5.69961 5.5 6.09961 5.1 6.09961 4.5C6.09961 3.9 5.69961 3.5 5.09961 3.5C4.49961 3.5 4.09961 3.9 4.09961 4.5C4.09961 5.1 4.49961 5.5 5.09961 5.5ZM4.59961 8C4.59961 7.4 4.19961 7 3.59961 7C2.99961 7 2.59961 7.4 2.59961 8C2.59961 8.6 2.99961 9 3.59961 9C4.19961 9 4.59961 8.6 4.59961 8ZM13.5996 9C14.1996 9 14.5996 8.6 14.5996 8C14.5996 7.4 14.1996 7 13.5996 7C12.9996 7 12.5996 7.4 12.5996 8C12.5996 8.6 12.9996 9 13.5996 9ZM13.0996 4.5C13.0996 3.9 12.6996 3.5 12.0996 3.5C11.4996 3.5 11.0996 3.9 11.0996 4.5C11.0996 5.1 11.4996 5.5 12.0996 5.5C12.6996 5.5 13.0996 5.1 13.0996 4.5Z" fill="currentColor"/>
</svg>
