<svg width="15" height="18" viewBox="0 0 15 18" fill="none" xmlns="http://www.w3.org/2000/svg">
    <path fill-rule="evenodd" clip-rule="evenodd" d="M6.74997 0C6.02062 0 5.32115 0.289731 4.80543 0.805456C4.2897 1.32118 3.99997 2.02065 3.99997 2.75V3.193C3.20497 3.27 2.41597 3.369 1.63497 3.491C1.53622 3.50445 1.44114 3.53745 1.35529 3.58807C1.26943 3.63869 1.19453 3.70591 1.13496 3.78581C1.07538 3.86571 1.03233 3.95668 1.00831 4.0534C0.984291 4.15013 0.979794 4.25067 0.995078 4.34916C1.01036 4.44764 1.04512 4.54209 1.09733 4.62699C1.14953 4.71189 1.21813 4.78553 1.29912 4.84361C1.38011 4.90169 1.47186 4.94305 1.56902 4.96526C1.66618 4.98748 1.76679 4.99011 1.86497 4.973L2.01397 4.951L2.85497 15.469C2.91003 16.1582 3.22267 16.8014 3.73063 17.2704C4.23859 17.7394 4.90458 17.9999 5.59597 18H10.403C11.0944 18.0002 11.7605 17.74 12.2686 17.2711C12.7768 16.8022 13.0897 16.1592 13.145 15.47L13.986 4.95L14.135 4.973C14.3297 4.99952 14.527 4.94858 14.6845 4.83111C14.8421 4.71365 14.9472 4.53906 14.9773 4.34488C15.0075 4.15071 14.9602 3.95246 14.8457 3.79278C14.7312 3.6331 14.5586 3.52474 14.365 3.491C13.5797 3.36878 12.791 3.26941 12 3.193V2.75C12 2.02065 11.7102 1.32118 11.1945 0.805456C10.6788 0.289731 9.97931 0 9.24997 0H6.74997ZM7.99997 3C8.83997 3 9.67297 3.025 10.5 3.075V2.75C10.5 2.06 9.93997 1.5 9.24997 1.5H6.74997C6.05997 1.5 5.49997 2.06 5.49997 2.75V3.075C6.32697 3.025 7.15997 3 7.99997 3ZM6.57997 6.72C6.57201 6.52109 6.48536 6.33348 6.33909 6.19846C6.19281 6.06343 5.99888 5.99204 5.79997 6C5.60106 6.00796 5.41345 6.0946 5.27843 6.24088C5.1434 6.38716 5.07201 6.58109 5.07997 6.78L5.37997 14.28C5.38391 14.3785 5.40721 14.4752 5.44854 14.5647C5.48987 14.6542 5.54842 14.7347 5.62085 14.8015C5.69328 14.8684 5.77817 14.9203 5.87067 14.9544C5.96317 14.9884 6.06148 15.0039 6.15997 15C6.25846 14.9961 6.35521 14.9728 6.4447 14.9314C6.53418 14.8901 6.61465 14.8315 6.68151 14.7591C6.74837 14.6867 6.80031 14.6018 6.83436 14.5093C6.86841 14.4168 6.88391 14.3185 6.87997 14.22L6.57997 6.72ZM10.92 6.78C10.9239 6.68151 10.9084 6.58321 10.8744 6.4907C10.8403 6.3982 10.7884 6.31331 10.7215 6.24088C10.6547 6.16845 10.5742 6.1099 10.4847 6.06857C10.3952 6.02724 10.2985 6.00394 10.2 6C10.0011 5.99204 9.80713 6.06343 9.66085 6.19846C9.51457 6.33348 9.42793 6.52109 9.41997 6.72L9.11997 14.22C9.11603 14.3185 9.13153 14.4168 9.16558 14.5093C9.19963 14.6018 9.25157 14.6867 9.31843 14.7591C9.38528 14.8315 9.46575 14.8901 9.55524 14.9314C9.64473 14.9728 9.74148 14.9961 9.83997 15C9.93846 15.0039 10.0368 14.9884 10.1293 14.9544C10.2218 14.9203 10.3067 14.8684 10.3791 14.8015C10.4515 14.7347 10.5101 14.6542 10.5514 14.5647C10.5927 14.4752 10.616 14.3785 10.62 14.28L10.92 6.78Z" fill="#2773F3"/>
</svg>