<svg width="24" height="29" viewBox="0 0 24 29" fill="none" xmlns="http://www.w3.org/2000/svg">
<path d="M15.6539 10.5L15.1923 22.5M8.8077 22.5L8.34616 10.5M21.6369 6.22076C22.0928 6.28962 22.5472 6.36329 23 6.44172M21.6369 6.22076L20.2131 24.7301C20.0928 26.2931 18.7895 27.5 17.2219 27.5H6.7781C5.21049 27.5 3.90716 26.2931 3.78693 24.7301L2.36314 6.22076M21.6369 6.22076C20.1083 5.98992 18.562 5.81314 17 5.69243M1 6.44172C1.45277 6.36329 1.90716 6.28962 2.36314 6.22076M2.36314 6.22076C3.8917 5.98992 5.43799 5.81314 7 5.69243M17 5.69243V4.47092C17 2.89843 15.7858 1.58564 14.2141 1.53536C13.479 1.51185 12.7409 1.5 12 1.5C11.2591 1.5 10.521 1.51185 9.78589 1.53536C8.21421 1.58564 7 2.89843 7 4.47092V5.69243M17 5.69243C15.3501 5.56494 13.6826 5.5 12 5.5C10.3174 5.5 8.64992 5.56494 7 5.69243" stroke="currentColor" stroke-width="2" stroke-linecap="round" stroke-linejoin="round"/>
</svg>
