<svg width="18" height="18" viewBox="0 0 18 18" fill="none" xmlns="http://www.w3.org/2000/svg">
<path d="M9.98334 6.23341C10.4567 6.45978 10.8773 6.78291 11.2181 7.18194C11.5588 7.58097 11.8121 8.04702 11.9615 8.55C12.111 9.05298 12.1533 9.58172 12.0857 10.1021C12.0181 10.6224 11.8421 11.1228 11.5692 11.5709M3.42917 9.25258L1.96584 10.7167C1.26246 11.42 0.867266 12.3739 0.867188 13.3685C0.867109 14.3632 1.26216 15.3171 1.96542 16.0205C2.66869 16.7239 3.62256 17.1191 4.61721 17.1191C5.61186 17.1192 6.5658 16.7242 7.26917 16.0209L9.87667 13.4134M14.555 8.73424L16.0192 7.27008C16.7225 6.56681 17.1177 5.61293 17.1178 4.61829C17.1179 3.62364 16.7229 2.6697 16.0196 1.96633C15.3163 1.26295 14.3624 0.867754 13.3678 0.867676C12.3732 0.867598 11.4192 1.26264 10.7158 1.96591L6.96584 5.71591C6.75084 5.93258 6.56667 6.16674 6.41501 6.41591M8.00084 11.7534C7.61666 11.5696 7.26664 11.3216 6.96584 11.0201C6.56949 10.6248 6.26704 10.1455 6.08084 9.61758M16.4925 16.4942L11.57 11.5717L6.41417 6.41508M1.49167 1.49174L6.41417 6.41674" stroke="currentColor" stroke-width="1.25" stroke-linecap="round" stroke-linejoin="round"/>
</svg>
