<svg width="18" height="16" viewBox="0 0 18 16" fill="none" xmlns="http://www.w3.org/2000/svg">
<path fill-rule="evenodd" clip-rule="evenodd" d="M2.96268 6.38278C3.85607 3.04861 7.28317 1.06997 10.6173 1.96336C11.7182 2.25832 12.6697 2.82848 13.4195 3.57977L15.0054 5.16566H12.3523C12.0072 5.16566 11.7273 5.44548 11.7273 5.79066C11.7273 6.13584 12.0072 6.41566 12.3523 6.41566H16.5128C16.6786 6.41566 16.8376 6.3498 16.9548 6.23257C17.072 6.11534 17.1379 5.95635 17.1378 5.79057V1.63016C17.1378 1.28498 16.858 1.00516 16.5128 1.00516C16.1677 1.00516 15.8878 1.28498 15.8878 1.63016V4.28029L14.3043 2.69671C13.4033 1.79414 12.2595 1.10929 10.9409 0.755953C6.93986 -0.316111 2.82734 2.05826 1.75528 6.05925C1.66594 6.39267 1.8638 6.73538 2.19722 6.82472C2.53063 6.91406 2.87334 6.71619 2.96268 6.38278ZM15.8022 9.17607C15.4688 9.08673 15.1261 9.2846 15.0368 9.61801C14.1434 12.9522 10.7163 14.9308 7.3821 14.0374C6.28129 13.7425 5.32979 13.1723 4.57991 12.421L2.99501 10.8351H5.64735C5.99253 10.8351 6.27235 10.5553 6.27235 10.2101C6.27235 9.86493 5.99253 9.58511 5.64735 9.58511L1.48682 9.58511C1.14164 9.58511 0.861816 9.86493 0.861816 10.2101V14.3706C0.861816 14.7158 1.14164 14.9956 1.48682 14.9956C1.83199 14.9956 2.11182 14.7158 2.11182 14.3706V11.7197L3.69521 13.3041C4.5962 14.2068 5.7398 14.8915 7.05857 15.2448C11.0596 16.3169 15.1721 13.9425 16.2442 9.94154C16.3335 9.60812 16.1356 9.26541 15.8022 9.17607Z" fill="currentColor"/>
</svg>
