<svg width="16" height="16" viewBox="0 0 16 16" fill="none" xmlns="http://www.w3.org/2000/svg">
<path d="M6.77957 4.03983H14.7698C15.3214 4.03983 15.7686 4.487 15.7686 5.03861V11.0313C15.7686 11.5829 15.3214 12.0301 14.7698 12.0301H6.77957V4.03983Z" fill="#6A7888"/>
<path d="M3.26603 4.03983H1.99878C1.44717 4.03983 1 4.487 1 5.03861V11.0313C1 11.5829 1.44717 12.0301 1.99878 12.0301H3.26603V4.03983Z" fill="#6A7888"/>
<path d="M2.95302 0C2.48415 0 2.10405 0.380094 2.10405 0.848964C2.10405 1.31783 2.48415 1.69793 2.95302 1.69793C3.62242 1.69793 4.16507 2.24058 4.16507 2.90998V13.09C4.16507 13.7594 3.62242 14.3021 2.95302 14.3021C2.48415 14.3021 2.10405 14.6822 2.10405 15.151C2.10405 15.6199 2.48415 16 2.95302 16C3.75844 16 4.48744 15.6728 5.01433 15.144C5.54122 15.6728 6.27022 16 7.07564 16C7.54451 16 7.92461 15.6199 7.92461 15.151C7.92461 14.6822 7.54451 14.3021 7.07564 14.3021C6.40624 14.3021 5.86359 13.7594 5.86359 13.09V2.90998C5.86359 2.24058 6.40625 1.69793 7.07564 1.69793C7.54451 1.69793 7.92461 1.31783 7.92461 0.848964C7.92461 0.380094 7.54451 0 7.07564 0C6.27022 0 5.54122 0.327217 5.01433 0.855965C4.48744 0.327217 3.75844 0 2.95302 0Z" fill="#6A7888"/>
</svg>
