<svg width="14" height="16" viewBox="0 0 14 16" fill="none" xmlns="http://www.w3.org/2000/svg">
<path d="M4.62643 0.949275C4.63442 0.997227 4.64241 1.04518 4.66639 1.09313C4.68237 1.14108 4.71434 1.18104 4.73831 1.221C4.7543 1.25297 4.76229 1.28494 4.78627 1.30892C4.79426 1.3249 4.81024 1.3249 4.82623 1.34088C4.83422 1.34888 4.84221 1.36486 4.8502 1.38084C4.87418 1.40482 4.90615 1.41281 4.93811 1.43679C4.97807 1.46876 5.01803 1.49273 5.06599 1.51671C5.11394 1.54068 5.16189 1.54868 5.20984 1.56466C5.24181 1.57265 5.27378 1.58864 5.30575 1.59663H8.69436C8.69436 1.59663 8.75829 1.56466 8.79026 1.55667C8.83821 1.54068 8.88617 1.53269 8.93412 1.50872C8.98207 1.48474 9.02203 1.46076 9.06199 1.4288C9.09396 1.40482 9.12593 1.39683 9.1499 1.37285C9.15789 1.36486 9.16589 1.34888 9.17388 1.33289C9.18187 1.3249 9.19785 1.31691 9.21384 1.30092C9.23781 1.27695 9.24581 1.23699 9.26179 1.21301C9.28577 1.17305 9.31773 1.13309 9.33372 1.08514C9.3497 1.03719 9.35769 0.989235 9.37368 0.941283C9.37368 0.909315 9.39765 0.877347 9.39765 0.837387C9.39765 0.821403 9.39765 0.805419 9.39765 0.789435C9.39765 0.773451 9.39765 0.757467 9.39765 0.741483C9.39765 0.709515 9.38167 0.677547 9.37368 0.637587C9.36569 0.589635 9.35769 0.541683 9.33372 0.493731C9.31773 0.445779 9.28577 0.405819 9.26179 0.365859C9.24581 0.333891 9.23781 0.301923 9.21384 0.277947C9.20585 0.261963 9.18986 0.261963 9.17388 0.245979C9.16589 0.237987 9.15789 0.222003 9.1499 0.206019C9.12593 0.182043 9.09396 0.174051 9.06199 0.150075C9.02203 0.118106 8.98207 0.0941305 8.93412 0.0701545C8.88617 0.0461784 8.83821 0.0381864 8.79026 0.0222024C8.75829 0.0142104 8.72633 -0.00177362 8.69436 -0.00976562H5.30575C5.30575 -0.00976562 5.24181 0.0222024 5.20984 0.0301944C5.16189 0.0461784 5.11394 0.0541704 5.06599 0.0781465C5.01803 0.102122 4.97807 0.126098 4.93811 0.158067C4.90615 0.182043 4.87418 0.190035 4.8502 0.214011C4.84221 0.222003 4.83422 0.237987 4.82623 0.253971C4.81823 0.261963 4.80225 0.269955 4.78627 0.285939C4.76229 0.309915 4.7543 0.349875 4.73831 0.373851C4.71434 0.413811 4.68237 0.453771 4.66639 0.501723C4.6504 0.549675 4.64241 0.597627 4.62643 0.645579C4.62643 0.677547 4.60245 0.709515 4.60245 0.749475C4.60245 0.765459 4.60245 0.781443 4.60245 0.797427C4.60245 0.813411 4.60245 0.829395 4.60245 0.845379C4.60245 0.877347 4.61843 0.909315 4.62643 0.949275ZM12.9221 1.27695C12.8502 1.20502 12.7623 1.13309 12.6824 1.07715C12.4186 0.901323 12.1149 0.805419 11.7953 0.805419H10.9961V1.60462C10.9961 2.0282 10.8282 2.43579 10.5245 2.73149C10.4526 2.80342 10.3647 2.87535 10.2848 2.93129C10.021 3.10712 9.71733 3.20302 9.39765 3.20302H4.60245C4.28277 3.20302 3.97907 3.10712 3.71534 2.93129C3.62742 2.87535 3.5475 2.80342 3.47558 2.73149C3.17188 2.4278 3.00405 2.0282 3.00405 1.60462V0.805419H2.20485C1.88517 0.805419 1.58147 0.901323 1.31773 1.07715C1.22982 1.13309 1.1499 1.20502 1.07797 1.27695C0.774277 1.58064 0.606445 1.98024 0.606445 2.40382V14.3918C0.606445 14.8154 0.774277 15.223 1.07797 15.5187C1.38167 15.8224 1.78127 15.9902 2.20485 15.9902H11.7953C12.2188 15.9902 12.6264 15.8224 12.9221 15.5187C13.2258 15.215 13.3937 14.8154 13.3937 14.3918V2.40382C13.3937 1.98024 13.2258 1.57265 12.9221 1.27695ZM3.83522 7.0232C3.84321 6.97525 3.8512 6.9273 3.87518 6.87935C3.89915 6.83139 3.93112 6.79143 3.96309 6.74348C3.98706 6.70352 4.01104 6.66356 4.04301 6.63159C4.09096 6.59163 4.13891 6.55967 4.19486 6.5277C4.22682 6.50372 4.25879 6.47974 4.29875 6.46376C4.39466 6.4238 4.49056 6.40782 4.59446 6.40782H9.38966C9.49356 6.40782 9.59745 6.43179 9.68537 6.46376C9.72533 6.47974 9.75729 6.51171 9.78926 6.5277C9.84521 6.55967 9.89316 6.58364 9.94111 6.63159C9.97308 6.66356 9.99705 6.71151 10.021 6.74348C10.053 6.79143 10.093 6.83139 10.1089 6.87935C10.1329 6.9273 10.1329 6.97525 10.1489 7.0232C10.1569 7.07115 10.1809 7.1271 10.1809 7.17505C10.1809 7.223 10.1729 7.27095 10.1649 7.3269C10.1569 7.37485 10.1489 7.43079 10.1329 7.47875C10.1169 7.5267 10.085 7.56666 10.061 7.60662C10.037 7.65457 10.013 7.69453 9.97308 7.73449C9.94111 7.77445 9.90115 7.79843 9.86119 7.83039C9.82123 7.86236 9.77328 7.89433 9.73332 7.91831C9.69336 7.94228 9.64541 7.95027 9.59745 7.95827C9.53352 7.97425 9.46159 7.99823 9.39765 7.99823H4.60245C4.53052 7.99823 4.46658 7.97425 4.40265 7.95827C4.3547 7.94228 4.30675 7.93429 4.26678 7.91831C4.21883 7.89433 4.17887 7.86236 4.13891 7.83039C4.09895 7.79843 4.05899 7.77445 4.02702 7.73449C3.99506 7.69453 3.97108 7.64658 3.93911 7.60662C3.91514 7.56666 3.88317 7.5267 3.86718 7.47875C3.8512 7.43079 3.84321 7.37485 3.83522 7.3269C3.83522 7.27895 3.81124 7.23099 3.81923 7.17505C3.81923 7.11911 3.83522 7.07115 3.8512 7.0232H3.83522ZM9.96509 10.9633C9.81324 11.1151 9.61344 11.195 9.39765 11.195H4.50655C4.30674 11.1631 4.11494 11.0672 3.98706 10.9073C3.85919 10.7475 3.78726 10.5477 3.80325 10.3479C3.81124 10.1481 3.90714 9.95627 4.051 9.81241C4.20285 9.67655 4.39466 9.59663 4.60245 9.59663H9.39765C9.61344 9.59663 9.81324 9.68454 9.96509 9.8284C10.1169 9.97225 10.1969 10.18 10.1969 10.3958C10.1969 10.6116 10.1089 10.8114 9.96509 10.9633Z" fill="#6A7888"/>
</svg>
