<svg xmlns="http://www.w3.org/2000/svg" xmlns:xlink="http://www.w3.org/1999/xlink" width="0" height="0" style="display:none;"><symbol viewBox="0 0 32 32" id="fp-brush-icon">
<path d="M11.6473 9.56592C13.8487 11.7473 16.01 13.8486 18.1513 15.9699C19.4922 17.3108 20.833 18.6716 22.1739 20.0124C22.394 20.2326 22.434 20.3927 22.2739 20.6929C20.3927 24.055 18.5316 27.4171 16.6704 30.7792C15.8699 32.2001 14.429 32.4002 13.2683 31.2595C11.147 29.1782 9.04565 27.0769 6.94434 24.9956C6.62414 24.6754 6.5641 24.3752 6.70419 23.9749C7.02439 23.0944 7.32458 22.2138 7.56473 21.3133C7.64478 21.0331 7.64478 20.6328 7.50469 20.4527C7.38461 20.3126 6.94434 20.3527 6.68418 20.4327C5.80363 20.6929 4.94309 21.0131 4.08255 21.3133C3.6823 21.4534 3.40213 21.4133 3.10194 21.0931C2.28142 20.2526 1.4409 19.4521 0.640399 18.6116C-0.320201 17.6109 -0.200126 16.15 1.02064 15.4496C4.56285 13.4483 8.14509 11.4871 11.6473 9.56592Z" fill="currentColor"></path>
<path d="M23.7949 17.9113C20.5328 14.6493 17.3308 11.4473 14.0688 8.18526C14.8693 7.765 15.6498 7.2847 16.4903 6.94449C17.531 6.52422 18.5316 6.72435 19.3921 7.4448C19.7924 7.78501 20.1726 8.16525 20.5729 8.54549C20.7129 8.4054 20.833 8.30534 20.9531 8.18526C23.4346 5.70371 25.9162 3.24217 28.3777 0.76062C28.878 0.240295 29.4784 -0.0598931 30.1989 0.0201569C31.7198 0.180257 32.4803 1.8413 31.6398 3.14211C31.5197 3.34223 31.3396 3.50233 31.1795 3.66243C28.7179 6.12397 26.2564 8.58551 23.7949 11.047C23.6748 11.1671 23.5747 11.2872 23.3346 11.5474C23.7348 11.8876 24.1551 12.1678 24.4953 12.528C25.2758 13.3685 25.4959 14.3891 25.0757 15.4498C24.7355 16.3103 24.2351 17.1108 23.7949 17.9113Z" fill="currentColor"></path>
</symbol></svg>