<svg xmlns="http://www.w3.org/2000/svg" xmlns:xlink="http://www.w3.org/1999/xlink" width="0" height="0" style="display:none;"><symbol viewBox="0 0 16.14 13.82" id="fp-bpmn-action-by-email"><path d="M6.751 0.817 C 3.624 2.850,0.700 4.771,0.451 4.955 C 0.280 5.081,0.269 5.096,0.269 5.194 L 0.269 5.299 0.134 5.299 L -0.001 5.299 0.006 8.749 L 0.013 12.199 0.077 12.387 C 0.298 13.046,0.762 13.526,1.377 13.731 L 1.583 13.800 7.996 13.800 C 15.095 13.800,14.495 13.815,14.879 13.626 C 15.376 13.383,15.759 12.926,15.929 12.374 L 15.991 12.172 15.998 8.810 L 16.006 5.447 16.074 5.391 L 16.143 5.336 12.103 2.688 C 9.881 1.232,8.049 0.032,8.032 0.022 C 8.014 0.012,7.449 0.363,6.751 0.817 M11.155 3.272 C 12.883 4.406,14.300 5.336,14.304 5.338 C 14.309 5.342,8.181 9.355,8.030 9.447 C 8.013 9.457,7.531 9.160,6.939 8.773 C 6.355 8.393,4.952 7.478,3.820 6.740 C 2.688 6.003,1.746 5.385,1.727 5.367 C 1.698 5.341,2.246 4.971,4.511 3.491 C 7.493 1.541,8.000 1.210,8.008 1.210 C 8.011 1.210,9.427 2.138,11.155 3.272 M2.394 6.969 C 3.141 7.465,4.373 8.276,5.132 8.771 C 5.890 9.266,6.846 9.890,7.254 10.158 L 7.997 10.646 8.215 10.505 C 8.335 10.428,9.862 9.433,11.607 8.295 C 13.353 7.157,14.827 6.198,14.883 6.164 L 14.984 6.101 14.977 9.110 L 14.970 12.118 14.877 12.289 C 14.766 12.494,14.568 12.675,14.365 12.758 L 14.217 12.818 8.003 12.818 L 1.789 12.818 1.627 12.753 C 1.407 12.664,1.162 12.420,1.074 12.199 L 1.009 12.038 1.001 9.043 C 0.997 7.395,1.003 6.052,1.015 6.057 C 1.026 6.062,1.647 6.472,2.394 6.969 " fill="#3d4347" stroke="none" fill-rule="evenodd"></path></symbol><symbol viewBox="0 0 16 16" id="fp-bpmn-data-connector"><path d="M5.427 0.142 C 4.781 0.360,3.955 0.742,3.778 0.904 C 3.736 0.942,3.685 1.007,3.663 1.047 C 3.639 1.093,3.584 1.496,3.516 2.110 L 3.408 3.098 3.251 3.256 L 3.094 3.413 2.079 3.530 C 1.069 3.646,1.063 3.647,0.965 3.726 C 0.747 3.901,0.224 5.074,0.041 5.800 C -0.035 6.100,-0.033 6.103,0.681 6.998 L 1.307 7.781 1.307 8.001 L 1.307 8.222 0.682 8.998 C 0.338 9.426,0.044 9.809,0.028 9.849 C -0.021 9.979,-0.003 10.118,0.110 10.470 C 0.260 10.941,0.397 11.279,0.619 11.731 C 0.815 12.128,0.914 12.268,1.044 12.336 C 1.093 12.360,1.484 12.415,2.109 12.483 L 3.098 12.591 3.252 12.746 L 3.407 12.900 3.518 13.870 C 3.643 14.970,3.653 15.009,3.858 15.144 C 4.347 15.469,5.800 16.034,6.034 15.989 C 6.192 15.960,6.295 15.888,7.046 15.286 L 7.785 14.693 7.999 14.693 L 8.213 14.693 9.012 15.332 C 9.846 15.999,9.891 16.026,10.092 15.989 C 10.527 15.907,11.756 15.401,12.142 15.144 C 12.349 15.007,12.358 14.972,12.477 13.870 L 12.581 12.899 12.740 12.741 L 12.898 12.582 13.869 12.477 C 14.972 12.358,15.007 12.348,15.144 12.142 C 15.476 11.643,16.026 10.219,15.988 9.959 C 15.965 9.807,15.935 9.764,15.280 8.947 L 14.693 8.215 14.693 8.000 L 14.693 7.786 15.320 7.004 C 16.065 6.073,16.050 6.104,15.933 5.705 C 15.722 4.982,15.268 3.965,15.066 3.764 C 15.025 3.722,14.957 3.675,14.915 3.660 C 14.874 3.644,14.408 3.586,13.880 3.530 L 12.920 3.429 12.751 3.267 L 12.581 3.104 12.476 2.132 C 12.408 1.495,12.356 1.125,12.327 1.058 C 12.272 0.930,12.167 0.857,11.693 0.620 C 11.228 0.387,10.784 0.211,10.353 0.088 C 9.881 -0.047,9.933 -0.071,8.980 0.693 L 8.214 1.307 7.989 1.307 L 7.764 1.307 7.049 0.725 C 6.125 -0.025,6.197 0.025,6.010 0.010 C 5.873 0.000,5.799 0.017,5.427 0.142 M6.653 1.588 C 7.124 1.966,7.435 2.197,7.493 2.213 C 7.649 2.255,8.479 2.233,8.574 2.184 C 8.619 2.162,8.983 1.881,9.383 1.560 L 10.112 0.977 10.235 1.010 C 10.430 1.062,10.926 1.262,11.201 1.400 C 11.340 1.469,11.457 1.529,11.460 1.532 C 11.464 1.536,11.514 1.963,11.571 2.483 C 11.629 3.002,11.687 3.457,11.702 3.493 C 11.739 3.585,12.423 4.258,12.513 4.291 C 12.553 4.306,12.985 4.361,13.473 4.413 C 13.961 4.466,14.385 4.514,14.416 4.520 C 14.530 4.545,15.061 5.814,14.993 5.901 C 14.979 5.919,14.704 6.264,14.382 6.668 C 14.059 7.073,13.788 7.433,13.778 7.468 C 13.769 7.504,13.761 7.744,13.760 8.001 C 13.760 8.397,13.767 8.483,13.807 8.561 C 13.833 8.612,14.116 8.980,14.435 9.378 L 15.016 10.103 14.971 10.258 C 14.874 10.591,14.485 11.467,14.434 11.467 C 14.325 11.467,12.626 11.662,12.547 11.683 C 12.464 11.706,12.364 11.787,12.098 12.049 C 11.910 12.235,11.738 12.421,11.716 12.463 C 11.690 12.512,11.638 12.880,11.572 13.490 C 11.514 14.012,11.467 14.444,11.467 14.448 C 11.466 14.474,10.765 14.786,10.471 14.892 L 10.129 15.015 9.411 14.440 C 9.016 14.124,8.654 13.842,8.606 13.813 C 8.529 13.765,8.471 13.760,8.027 13.760 C 7.755 13.761,7.504 13.769,7.468 13.778 C 7.433 13.788,7.073 14.059,6.668 14.382 C 6.264 14.704,5.920 14.978,5.903 14.992 C 5.861 15.024,5.278 14.812,4.860 14.613 C 4.680 14.527,4.533 14.453,4.533 14.448 C 4.533 14.444,4.486 14.012,4.428 13.490 C 4.362 12.880,4.310 12.512,4.284 12.463 C 4.262 12.421,4.090 12.235,3.902 12.049 C 3.636 11.787,3.536 11.706,3.453 11.683 C 3.374 11.662,1.675 11.467,1.566 11.467 C 1.515 11.467,1.126 10.591,1.029 10.258 L 0.984 10.103 1.565 9.378 C 1.884 8.980,2.167 8.612,2.193 8.561 C 2.233 8.483,2.240 8.397,2.240 8.012 C 2.240 7.738,2.228 7.518,2.209 7.464 C 2.192 7.414,1.921 7.049,1.605 6.653 C 1.290 6.257,1.021 5.919,1.007 5.901 C 0.939 5.814,1.470 4.545,1.584 4.520 C 1.615 4.514,2.042 4.465,2.533 4.413 C 3.025 4.361,3.451 4.311,3.480 4.302 C 3.550 4.282,4.232 3.610,4.285 3.510 C 4.310 3.461,4.362 3.095,4.429 2.486 C 4.486 1.965,4.536 1.536,4.540 1.532 C 4.581 1.496,5.116 1.249,5.346 1.160 C 5.735 1.010,5.790 0.991,5.853 0.990 C 5.884 0.989,6.224 1.243,6.653 1.588 M7.373 4.470 C 6.207 4.679,5.201 5.464,4.731 6.532 C 4.520 7.011,4.427 7.458,4.427 7.987 C 4.427 8.917,4.775 9.787,5.418 10.467 C 5.915 10.992,6.566 11.350,7.320 11.514 C 7.482 11.549,7.656 11.560,8.040 11.559 C 8.500 11.558,8.573 11.551,8.834 11.486 C 10.252 11.131,11.281 10.034,11.538 8.604 C 11.603 8.241,11.596 7.662,11.522 7.308 C 11.210 5.820,10.047 4.705,8.560 4.467 C 8.246 4.417,7.660 4.418,7.373 4.470 M8.666 5.429 C 9.630 5.674,10.393 6.473,10.601 7.455 C 10.655 7.710,10.663 8.240,10.616 8.467 C 10.401 9.514,9.672 10.283,8.627 10.567 C 8.447 10.616,8.343 10.625,7.973 10.624 C 7.570 10.624,7.513 10.618,7.293 10.550 C 6.354 10.264,5.685 9.586,5.435 8.667 C 5.382 8.470,5.374 8.380,5.375 7.987 C 5.377 7.450,5.417 7.264,5.625 6.840 C 5.777 6.528,5.953 6.287,6.184 6.073 C 6.867 5.441,7.780 5.204,8.666 5.429 " fill="#3d4347" stroke="none" fill-rule="evenodd"></path></symbol><symbol viewBox="0 0 14.08 16" id="fp-bpmn-data-object"><path d="M0.000 7.990 L 0.000 15.981 7.040 15.981 L 14.080 15.981 14.080 11.106 L 14.080 6.230 10.965 3.115 L 7.850 -0.000 3.925 -0.000 L 0.000 0.000 0.000 7.990 M6.367 1.025 L 6.899 1.040 6.899 4.110 L 6.899 7.181 9.970 7.181 L 13.040 7.181 13.055 7.832 C 13.064 8.190,13.071 9.954,13.071 11.751 L 13.071 15.019 7.040 15.019 L 1.009 15.019 1.009 8.014 L 1.009 1.009 3.422 1.009 C 4.750 1.009,6.075 1.016,6.367 1.025 M10.267 3.849 L 12.613 6.195 10.261 6.195 L 7.908 6.195 7.908 3.849 C 7.908 2.558,7.911 1.502,7.914 1.502 C 7.917 1.502,8.976 2.558,10.267 3.849 " fill="#3d4347" stroke="none" fill-rule="evenodd"></path></symbol><symbol viewBox="0 0 16.13 16.13" id="fp-bpmn-data-store"><path d="M7.272 0.017 C 5.090 0.120,3.172 0.539,1.842 1.203 C 1.323 1.462,0.999 1.687,0.669 2.015 C 0.353 2.330,0.210 2.545,0.089 2.890 L 0.013 3.105 0.013 8.065 L 0.013 13.025 0.076 13.213 C 0.110 13.317,0.181 13.480,0.233 13.576 C 0.953 14.900,3.462 15.864,6.819 16.105 C 7.503 16.154,9.316 16.123,9.974 16.051 C 11.277 15.909,12.249 15.708,13.227 15.379 C 14.652 14.900,15.586 14.250,15.956 13.482 C 16.141 13.098,16.129 13.458,16.130 8.064 C 16.130 3.784,16.125 3.164,16.089 3.023 C 15.694 1.476,13.205 0.356,9.490 0.054 C 9.134 0.025,7.634 -0.000,7.272 0.017 M8.858 1.022 C 10.844 1.112,12.570 1.479,13.778 2.070 C 14.252 2.302,14.533 2.487,14.774 2.728 C 15.032 2.986,15.122 3.170,15.122 3.441 C 15.121 3.614,15.110 3.663,15.041 3.789 C 14.546 4.691,12.574 5.469,10.068 5.751 C 8.651 5.910,7.010 5.890,5.619 5.697 C 3.344 5.380,1.543 4.621,1.105 3.793 C 0.920 3.443,1.005 3.085,1.354 2.735 C 2.483 1.608,5.678 0.878,8.858 1.022 M1.293 5.351 C 2.843 6.365,5.893 6.979,8.775 6.857 C 11.393 6.746,13.547 6.205,14.890 5.324 L 15.137 5.161 15.129 6.714 L 15.122 8.267 15.041 8.426 C 14.836 8.833,14.227 9.270,13.392 9.609 C 10.853 10.642,6.832 10.795,3.831 9.972 C 2.392 9.578,1.356 8.981,1.078 8.388 L 1.008 8.240 1.000 6.698 C 0.994 5.446,0.999 5.161,1.027 5.178 C 1.046 5.190,1.166 5.267,1.293 5.351 M1.842 10.290 C 3.723 11.228,6.729 11.673,9.604 11.439 C 11.810 11.260,13.734 10.722,14.874 9.966 L 15.137 9.792 15.129 11.341 L 15.122 12.891 15.049 13.040 C 14.655 13.842,12.945 14.595,10.753 14.931 C 8.775 15.235,6.592 15.191,4.705 14.810 C 2.837 14.432,1.445 13.752,1.097 13.046 L 1.008 12.865 1.000 11.325 L 0.993 9.785 1.256 9.958 C 1.400 10.052,1.664 10.202,1.842 10.290 " fill=" #3d4347" stroke="none" fill-rule="evenodd"></path></symbol><symbol viewBox="0 0 14.08 16" id="fp-bpmn-docusign"><path d="M0.000 7.990 L 0.000 15.981 7.040 15.981 L 14.080 15.981 14.080 11.106 L 14.080 6.230 10.965 3.115 L 7.850 -0.000 3.925 -0.000 L 0.000 0.000 0.000 7.990 M6.367 1.025 L 6.899 1.040 6.899 4.110 L 6.899 7.181 9.970 7.181 L 13.040 7.181 13.055 7.832 C 13.064 8.190,13.071 9.954,13.071 11.751 L 13.071 15.019 7.040 15.019 L 1.009 15.019 1.009 8.014 L 1.009 1.009 3.422 1.009 C 4.750 1.009,6.075 1.016,6.367 1.025 M10.267 3.849 L 12.613 6.195 10.261 6.195 L 7.908 6.195 7.908 3.849 C 7.908 2.558,7.911 1.502,7.914 1.502 C 7.917 1.502,8.976 2.558,10.267 3.849 M3.309 9.516 L 3.309 10.020 7.017 10.020 L 10.724 10.020 10.724 9.516 L 10.724 9.011 7.017 9.011 L 3.309 9.011 3.309 9.516 M3.309 11.827 L 3.309 12.320 7.017 12.320 L 10.724 12.320 10.724 11.827 L 10.724 11.334 7.017 11.334 L 3.309 11.334 3.309 11.827 " fill="#dd2714" stroke="none" fill-rule="evenodd"></path></symbol><symbol viewBox="0 0 28 28" id="fp-bpmn-end-event"><path d="M13.160 0.049 C 10.536 0.195,7.967 1.109,5.833 2.654 C 2.627 4.976,0.579 8.461,0.111 12.390 C 0.015 13.191,0.015 14.809,0.111 15.610 C 0.445 18.420,1.583 21.008,3.413 23.123 C 5.730 25.802,8.874 27.471,12.390 27.889 C 13.191 27.985,14.809 27.985,15.610 27.889 C 18.714 27.520,21.513 26.187,23.747 24.015 C 26.062 21.763,27.505 18.835,27.889 15.610 C 27.933 15.239,27.961 14.613,27.961 14.000 C 27.961 13.387,27.933 12.761,27.889 12.390 C 27.520 9.286,26.187 6.487,24.015 4.253 C 21.169 1.328,17.274 -0.181,13.160 0.049 M15.937 2.139 C 18.126 2.526,20.119 3.445,21.723 4.807 C 22.186 5.200,23.040 6.074,23.387 6.510 C 24.686 8.140,25.532 10.068,25.885 12.203 C 26.007 12.941,26.007 15.059,25.885 15.797 C 25.515 18.033,24.581 20.089,23.193 21.723 C 22.800 22.186,21.926 23.040,21.490 23.387 C 19.860 24.686,17.932 25.532,15.797 25.885 C 15.059 26.007,12.941 26.007,12.203 25.885 C 10.068 25.532,8.140 24.686,6.510 23.387 C 6.074 23.040,5.200 22.186,4.807 21.723 C 3.149 19.771,2.136 17.210,2.014 14.662 C 1.920 12.696,2.222 11.013,2.996 9.193 C 3.546 7.900,4.330 6.740,5.387 5.653 C 7.414 3.569,9.830 2.396,12.833 2.035 C 12.923 2.025,13.543 2.023,14.210 2.032 C 15.149 2.044,15.540 2.068,15.937 2.139 " stroke="none" fill="black" fill-rule="evenodd"></path></symbol><symbol viewBox="0 0 14.64 16" id="fp-bpmn-flowgenie"><path d="M6.947 0.051 C 6.927 0.083,6.846 0.258,6.769 0.439 C 6.534 0.988,6.446 1.087,6.051 1.251 C 5.748 1.378,5.521 1.487,5.493 1.521 C 5.452 1.570,5.490 1.599,5.758 1.720 C 6.524 2.065,6.509 2.052,6.747 2.595 C 6.837 2.798,6.926 2.990,6.946 3.022 C 6.980 3.075,6.985 3.076,7.026 3.039 C 7.050 3.017,7.128 2.859,7.199 2.689 C 7.270 2.518,7.354 2.333,7.387 2.276 C 7.490 2.096,7.656 1.971,7.971 1.836 C 8.506 1.606,8.495 1.612,8.487 1.555 C 8.479 1.503,8.356 1.439,7.818 1.209 C 7.580 1.107,7.426 0.948,7.322 0.695 C 7.176 0.342,7.066 0.100,7.025 0.046 L 6.985 -0.008 6.947 0.051 M2.802 2.100 C 2.733 2.193,2.517 2.651,2.349 3.062 C 2.047 3.800,1.817 4.060,1.257 4.294 C 0.901 4.443,0.135 4.786,0.079 4.822 C 0.047 4.842,0.024 4.881,0.024 4.917 C 0.024 4.952,0.047 4.991,0.079 5.012 C 0.109 5.031,0.420 5.175,0.769 5.332 C 1.601 5.705,1.665 5.740,1.868 5.941 C 2.072 6.143,2.150 6.287,2.501 7.100 C 2.641 7.426,2.764 7.677,2.803 7.717 L 2.869 7.784 2.947 7.704 C 3.003 7.646,3.106 7.434,3.306 6.968 C 3.623 6.226,3.669 6.140,3.841 5.957 C 4.028 5.758,4.203 5.653,4.691 5.443 C 5.593 5.056,5.710 4.996,5.710 4.917 C 5.710 4.830,5.348 4.642,4.614 4.346 C 3.967 4.084,3.707 3.829,3.447 3.195 C 3.226 2.658,3.009 2.195,2.935 2.104 L 2.864 2.016 2.802 2.100 M8.436 3.803 C 8.303 3.945,8.298 3.954,7.960 4.711 C 7.626 5.455,7.508 5.729,7.333 6.161 C 6.957 7.090,6.596 7.609,6.031 8.034 C 5.758 8.239,5.481 8.388,5.051 8.560 C 4.303 8.859,2.656 9.610,2.566 9.695 C 2.423 9.827,2.420 9.932,2.556 10.060 C 2.628 10.128,3.511 10.539,4.807 11.107 C 5.640 11.472,5.765 11.535,6.036 11.720 C 6.434 11.992,6.769 12.372,6.984 12.798 C 7.039 12.905,7.305 13.504,7.577 14.128 C 7.849 14.752,8.117 15.368,8.175 15.498 C 8.255 15.680,8.308 15.763,8.408 15.863 C 8.532 15.985,8.542 15.989,8.600 15.958 C 8.634 15.940,8.708 15.880,8.766 15.824 C 8.855 15.737,8.913 15.624,9.185 15.005 C 9.358 14.610,9.620 14.001,9.766 13.652 C 10.174 12.676,10.334 12.409,10.759 11.997 C 11.166 11.602,11.328 11.509,12.476 11.018 C 13.887 10.414,14.447 10.152,14.549 10.047 C 14.599 9.996,14.640 9.930,14.640 9.902 C 14.640 9.833,14.554 9.698,14.474 9.642 C 14.328 9.540,12.991 8.943,12.303 8.673 C 11.561 8.381,11.132 8.125,10.734 7.735 C 10.338 7.346,10.112 6.975,9.825 6.245 C 9.637 5.768,9.592 5.661,9.187 4.758 C 9.015 4.376,8.852 4.030,8.824 3.989 C 8.746 3.876,8.583 3.684,8.564 3.684 C 8.554 3.684,8.497 3.738,8.436 3.803 " fill="#3d4347" stroke="none" fill-rule="evenodd"></path></symbol><symbol viewBox="0 0 17.97 17.97" id="fp-bpmn-gateway"><path d="M4.500 4.500 L -0.000 9.000 4.493 13.492 L 8.985 17.985 13.485 13.485 L 17.985 8.985 13.492 4.492 L 9.000 -0.000 4.500 4.500 M12.775 12.757 L 8.988 16.544 5.202 12.772 L 1.416 9.000 5.208 5.204 L 9.000 1.408 12.781 5.189 L 16.562 8.970 12.775 12.757 " fill="#3d4347" stroke="none" fill-rule="evenodd"></path></symbol><symbol viewBox="0 0 29 29" id="fp-bpmn-generic-gateway"><path d="M13.933 0.215 C 13.768 0.253,13.474 0.365,13.281 0.464 C 12.950 0.633,12.563 1.010,6.849 6.714 C 3.414 10.144,0.693 12.898,0.595 13.045 C 0.499 13.189,0.365 13.460,0.296 13.649 C 0.191 13.941,0.172 14.076,0.171 14.548 C 0.169 15.197,0.270 15.564,0.578 16.032 C 0.696 16.211,2.975 18.521,6.870 22.410 C 12.317 27.848,13.010 28.524,13.279 28.658 C 13.711 28.872,14.074 28.956,14.580 28.957 C 15.100 28.957,15.595 28.815,16.038 28.536 C 16.420 28.295,28.295 16.420,28.536 16.038 C 29.056 15.212,29.102 14.173,28.658 13.279 C 28.524 13.010,27.850 12.319,22.410 6.873 C 18.971 3.430,16.199 0.693,16.052 0.595 C 15.480 0.212,14.621 0.059,13.933 0.215 M15.080 1.628 C 15.269 1.693,16.086 2.491,21.306 7.703 C 25.848 12.238,27.345 13.760,27.437 13.939 C 27.600 14.256,27.631 14.603,27.528 14.963 L 27.446 15.249 21.372 21.328 C 15.792 26.911,15.277 27.414,15.042 27.502 C 14.733 27.618,14.461 27.624,14.110 27.522 C 13.853 27.447,13.710 27.308,7.816 21.420 C 2.856 16.464,1.763 15.349,1.659 15.138 C 1.495 14.805,1.487 14.334,1.640 13.986 C 1.726 13.791,2.757 12.738,7.747 7.750 C 11.049 4.450,13.825 1.712,13.915 1.667 C 14.256 1.497,14.660 1.483,15.080 1.628 " stroke="none" fill-rule="evenodd" fill="black"></path></symbol><symbol viewBox="0 0 16 15.92" id="fp-bpmn-idp"><path d="M0.000 3.933 L 0.000 7.867 1.013 7.867 L 2.027 7.867 2.027 9.596 L 2.027 11.325 1.014 12.123 L 0.002 12.920 0.001 14.420 L 0.000 15.920 8.000 15.920 L 16.000 15.920 16.000 14.415 L 16.000 12.910 15.015 12.062 L 14.029 11.213 14.028 7.700 L 14.027 4.187 10.493 4.187 L 6.960 4.187 6.960 3.180 L 6.960 2.173 5.873 1.087 L 4.786 0.000 2.393 0.000 L 0.000 0.000 0.000 3.933 M3.440 2.253 L 3.440 3.493 4.693 3.493 L 5.947 3.493 5.947 5.173 L 5.947 6.853 3.480 6.853 L 1.013 6.853 1.013 3.933 L 1.013 1.013 2.227 1.013 L 3.440 1.013 3.440 2.253 M5.173 1.800 L 5.880 2.507 5.166 2.507 L 4.453 2.507 4.453 1.800 C 4.453 1.411,4.456 1.093,4.460 1.093 C 4.464 1.093,4.785 1.411,5.173 1.800 M13.033 7.993 L 13.027 10.813 8.027 10.813 L 3.027 10.813 3.020 9.340 L 3.013 7.867 4.986 7.867 L 6.960 7.867 6.960 6.520 L 6.960 5.173 10.000 5.173 L 13.040 5.173 13.033 7.993 M13.847 12.353 L 14.468 12.893 11.259 12.900 C 9.493 12.904,6.610 12.904,4.850 12.900 L 1.652 12.893 2.326 12.355 L 3.000 11.818 8.113 11.815 L 13.227 11.813 13.847 12.353 M14.987 14.427 L 14.987 14.933 8.000 14.933 L 1.013 14.933 1.013 14.427 L 1.013 13.920 8.000 13.920 L 14.987 13.920 14.987 14.427 " fill="#3d4347" stroke="none" fill-rule="evenodd"></path></symbol><symbol viewBox="0 0 16 16" id="fp-bpmn-intermediate-event"><path d="M7.335 0.028 C 5.044 0.232,2.979 1.372,1.614 3.187 C 0.794 4.276,0.293 5.480,0.076 6.880 C -0.009 7.431,-0.011 8.559,0.073 9.094 C 0.356 10.908,1.106 12.413,2.347 13.653 C 3.587 14.894,5.092 15.644,6.906 15.927 C 7.429 16.009,8.571 16.009,9.094 15.927 C 10.908 15.644,12.413 14.894,13.653 13.653 C 14.894 12.413,15.644 10.908,15.927 9.094 C 16.009 8.571,16.009 7.429,15.927 6.906 C 15.703 5.469,15.212 4.284,14.386 3.187 C 13.087 1.460,11.178 0.355,9.000 0.066 C 8.611 0.015,7.716 -0.006,7.335 0.028 M9.040 1.079 C 12.178 1.572,14.580 4.057,14.947 7.190 C 14.998 7.628,14.998 8.371,14.947 8.808 C 14.776 10.270,14.154 11.634,13.170 12.707 C 12.002 13.980,10.492 14.751,8.781 14.950 C 8.328 15.003,7.387 14.988,6.960 14.921 C 5.566 14.704,4.287 14.088,3.263 13.142 C 2.078 12.047,1.326 10.628,1.075 9.013 C 1.006 8.572,1.007 7.424,1.076 6.973 C 1.407 4.833,2.668 2.996,4.547 1.918 C 5.281 1.497,6.173 1.189,6.973 1.083 C 7.149 1.059,7.329 1.035,7.373 1.029 C 7.577 1.001,8.774 1.037,9.040 1.079 " fill="#ffb01f" stroke="none" fill-rule="evenodd"></path></symbol><symbol viewBox="0 0 16 16" id="fp-bpmn-pool"><path d="M2.528 0.041 C 1.427 0.213,0.498 1.004,0.151 2.067 C -0.007 2.550,0.000 2.276,-0.000 8.000 C -0.000 12.582,0.005 13.276,0.041 13.483 C 0.261 14.768,1.232 15.739,2.517 15.959 C 2.724 15.995,3.418 16.000,8.000 16.000 C 12.582 16.000,13.276 15.995,13.483 15.959 C 14.768 15.739,15.739 14.768,15.959 13.483 C 15.995 13.276,16.000 12.582,16.000 8.000 C 16.000 3.418,15.995 2.724,15.959 2.517 C 15.768 1.403,15.011 0.515,13.948 0.159 C 13.455 -0.006,13.692 0.000,7.973 0.003 C 3.725 0.005,2.717 0.012,2.528 0.041 M4.960 8.016 L 4.960 15.018 3.833 15.007 L 2.707 14.996 2.467 14.923 C 2.085 14.807,1.888 14.688,1.599 14.400 C 1.392 14.193,1.324 14.105,1.232 13.920 C 1.170 13.795,1.095 13.598,1.066 13.482 C 1.014 13.276,1.013 13.171,1.013 8.000 C 1.013 2.829,1.014 2.724,1.066 2.518 C 1.095 2.402,1.170 2.205,1.232 2.080 C 1.324 1.896,1.392 1.806,1.599 1.599 C 1.806 1.392,1.896 1.324,2.080 1.232 C 2.500 1.023,2.553 1.016,3.833 1.015 L 4.960 1.013 4.960 8.016 M13.482 1.066 C 13.598 1.095,13.795 1.170,13.920 1.232 C 14.104 1.324,14.194 1.392,14.401 1.599 C 14.608 1.806,14.676 1.896,14.768 2.080 C 14.830 2.205,14.905 2.402,14.934 2.518 C 14.986 2.724,14.987 2.829,14.987 8.000 C 14.987 13.171,14.986 13.276,14.934 13.482 C 14.905 13.598,14.830 13.795,14.768 13.920 C 14.676 14.105,14.608 14.193,14.401 14.400 C 14.113 14.687,13.919 14.804,13.533 14.925 L 13.293 15.000 9.633 15.007 L 5.973 15.015 5.973 8.014 L 5.973 1.013 9.622 1.013 C 13.174 1.013,13.277 1.015,13.482 1.066 " fill="#3d4347" stroke="none" fill-rule="evenodd"></path></symbol><symbol viewBox="0 0 15.93 10.24" id="fp-bpmn-send-email"><path d="M5.863 0.027 C 5.089 0.159,4.504 0.673,4.245 1.447 L 4.183 1.633 4.175 5.018 C 4.166 8.703,4.162 8.606,4.314 8.981 C 4.541 9.547,5.018 9.983,5.611 10.166 L 5.793 10.222 10.051 10.222 L 14.308 10.222 14.515 10.156 C 15.147 9.953,15.620 9.481,15.844 8.828 L 15.917 8.615 15.917 5.124 L 15.917 1.633 15.844 1.420 C 15.613 0.749,15.134 0.281,14.465 0.074 L 14.271 0.014 10.129 0.010 C 7.851 0.008,5.931 0.015,5.863 0.027 M14.343 1.094 C 14.618 1.222,14.878 1.551,14.900 1.797 C 14.908 1.881,14.892 1.892,12.505 3.518 C 11.184 4.419,10.088 5.161,10.071 5.168 C 10.050 5.177,5.362 2.015,5.181 1.870 C 5.176 1.866,5.191 1.799,5.214 1.720 C 5.298 1.429,5.582 1.138,5.867 1.050 C 5.968 1.018,6.633 1.013,10.089 1.017 L 14.191 1.022 14.343 1.094 M0.000 3.133 L 0.000 3.637 1.500 3.637 L 3.000 3.637 3.000 3.133 L 3.000 2.628 1.500 2.628 L 0.000 2.628 0.000 3.133 M7.620 4.726 C 8.948 5.631,10.042 6.372,10.050 6.372 C 10.058 6.372,11.124 5.651,12.420 4.770 C 13.715 3.889,14.808 3.147,14.849 3.121 L 14.922 3.073 14.915 5.791 L 14.908 8.509 14.839 8.655 C 14.736 8.872,14.575 9.038,14.369 9.139 L 14.192 9.226 10.050 9.226 L 5.907 9.226 5.755 9.155 C 5.561 9.064,5.368 8.871,5.269 8.668 L 5.191 8.509 5.183 5.795 C 5.179 4.301,5.183 3.080,5.191 3.080 C 5.198 3.080,6.292 3.821,7.620 4.726 M1.009 5.058 L 1.009 5.549 2.005 5.549 L 3.000 5.549 3.000 5.058 L 3.000 4.567 2.005 4.567 L 1.009 4.567 1.009 5.058 M1.991 6.996 L 1.991 7.487 2.496 7.487 L 3.000 7.487 3.000 6.996 L 3.000 6.505 2.496 6.505 L 1.991 6.505 1.991 6.996 " fill="#3d4347" stroke="none" fill-rule="evenodd"></path></symbol><symbol viewBox="0 0 26 26" id="fp-bpmn-start-event"><path d="M12.220 0.045 C 9.557 0.194,7.053 1.155,4.897 2.856 C 4.367 3.273,3.273 4.367,2.856 4.897 C 1.312 6.854,0.394 9.057,0.103 11.505 C 0.014 12.249,0.014 13.751,0.103 14.495 C 0.414 17.104,1.470 19.508,3.169 21.472 C 5.321 23.959,8.240 25.508,11.505 25.897 C 12.249 25.986,13.751 25.986,14.495 25.897 C 17.378 25.554,19.977 24.316,22.051 22.299 C 24.201 20.208,25.541 17.490,25.897 14.495 C 25.938 14.151,25.964 13.569,25.964 13.000 C 25.964 12.431,25.938 11.849,25.897 11.505 C 25.554 8.622,24.316 6.023,22.299 3.949 C 19.657 1.233,16.040 -0.168,12.220 0.045 M14.133 1.041 C 16.419 1.268,18.574 2.128,20.406 3.543 C 20.886 3.915,22.085 5.114,22.457 5.594 C 23.872 7.426,24.732 9.581,24.959 11.867 C 25.016 12.443,25.016 13.557,24.959 14.133 C 24.732 16.419,23.872 18.574,22.457 20.406 C 22.085 20.886,20.886 22.085,20.406 22.457 C 18.574 23.872,16.419 24.732,14.133 24.959 C 13.557 25.016,12.443 25.016,11.867 24.959 C 9.581 24.732,7.426 23.872,5.594 22.457 C 5.114 22.085,3.915 20.886,3.543 20.406 C 2.128 18.574,1.268 16.419,1.041 14.133 C 0.983 13.549,0.984 12.447,1.043 11.848 C 1.262 9.631,2.060 7.588,3.419 5.763 C 3.909 5.105,5.105 3.909,5.763 3.419 C 7.560 2.081,9.622 1.269,11.787 1.046 C 12.315 0.992,13.608 0.989,14.133 1.041 " stroke="none" fill="black" fill-rule="evenodd"></path></symbol><symbol viewBox="0 0 24 24" id="fp-bpmn-task"><path d="M2.490 0.044 C 1.329 0.239,0.359 1.156,0.082 2.320 C 0.001 2.656,0.001 2.759,0.001 12.000 C 0.001 21.115,0.002 21.348,0.078 21.665 C 0.359 22.833,1.247 23.696,2.419 23.938 C 2.682 23.993,3.800 24.000,12.000 24.000 C 22.173 24.000,21.541 24.014,22.150 23.767 C 22.850 23.482,23.482 22.850,23.767 22.150 C 24.014 21.541,24.000 22.173,24.000 12.000 C 24.000 1.827,24.014 2.459,23.767 1.850 C 23.434 1.032,22.682 0.368,21.780 0.094 C 21.551 0.025,21.105 0.021,12.120 0.015 C 6.816 0.012,2.608 0.024,2.490 0.044 M21.610 1.628 C 21.875 1.750,22.218 2.088,22.350 2.356 L 22.460 2.580 22.470 11.919 C 22.482 22.269,22.502 21.478,22.216 21.864 C 22.037 22.107,21.790 22.299,21.512 22.413 L 21.300 22.500 12.000 22.500 L 2.700 22.500 2.488 22.413 C 2.071 22.242,1.728 21.894,1.594 21.507 C 1.526 21.311,1.523 20.822,1.523 12.000 C 1.523 3.178,1.526 2.689,1.594 2.493 C 1.730 2.099,2.098 1.731,2.493 1.594 C 2.690 1.526,3.159 1.523,12.060 1.531 L 21.420 1.540 21.610 1.628 " stroke="none" fill-rule="evenodd" fill="black"></path></symbol><symbol viewBox="0 0 16 16" id="fp-bpmn-text-annotation"><path d="M2.528 0.041 C 1.427 0.213,0.498 1.004,0.151 2.067 C -0.007 2.550,0.000 2.276,-0.000 8.000 C -0.000 12.582,0.005 13.276,0.041 13.483 C 0.261 14.768,1.232 15.739,2.517 15.959 C 2.724 15.995,3.418 16.000,8.000 16.000 C 12.582 16.000,13.276 15.995,13.483 15.959 C 14.768 15.739,15.739 14.768,15.959 13.483 C 15.995 13.276,16.000 12.582,16.000 8.000 C 16.000 3.418,15.995 2.724,15.959 2.517 C 15.768 1.403,15.011 0.515,13.948 0.159 C 13.455 -0.006,13.692 0.000,7.973 0.003 C 3.725 0.005,2.717 0.012,2.528 0.041 M13.482 1.066 C 13.598 1.095,13.795 1.170,13.920 1.232 C 14.104 1.324,14.194 1.392,14.401 1.599 C 14.608 1.806,14.676 1.896,14.768 2.080 C 14.830 2.205,14.905 2.402,14.934 2.518 C 14.986 2.724,14.987 2.829,14.987 8.000 C 14.987 13.171,14.986 13.276,14.934 13.482 C 14.905 13.598,14.830 13.795,14.768 13.920 C 14.676 14.105,14.608 14.193,14.401 14.400 C 14.113 14.687,13.919 14.804,13.533 14.925 L 13.293 15.000 8.000 15.000 L 2.707 15.000 2.467 14.925 C 2.081 14.804,1.887 14.687,1.599 14.400 C 1.392 14.193,1.324 14.105,1.232 13.920 C 1.170 13.795,1.095 13.598,1.066 13.482 C 1.014 13.276,1.013 13.171,1.013 8.000 C 1.013 2.829,1.014 2.724,1.066 2.518 C 1.095 2.402,1.170 2.205,1.232 2.080 C 1.324 1.896,1.392 1.806,1.599 1.599 C 1.806 1.392,1.896 1.324,2.080 1.232 C 2.205 1.170,2.397 1.096,2.507 1.068 C 2.701 1.018,2.861 1.016,7.989 1.015 C 13.173 1.013,13.275 1.014,13.482 1.066 M6.018 3.280 C 5.902 3.315,5.765 3.433,5.706 3.548 C 5.577 3.801,5.623 4.076,5.825 4.263 C 5.952 4.379,6.080 4.426,6.271 4.427 C 6.638 4.427,7.052 4.684,7.261 5.042 C 7.401 5.280,7.413 5.393,7.413 6.446 L 7.413 7.413 7.052 7.413 C 6.658 7.413,6.555 7.439,6.417 7.568 C 6.193 7.778,6.182 8.159,6.395 8.382 C 6.542 8.538,6.646 8.569,7.048 8.582 L 7.416 8.593 7.408 9.610 C 7.400 10.600,7.398 10.631,7.338 10.780 C 7.213 11.091,6.949 11.354,6.649 11.466 C 6.566 11.497,6.395 11.532,6.269 11.544 C 6.007 11.568,5.914 11.608,5.783 11.753 C 5.534 12.029,5.615 12.486,5.944 12.658 C 6.196 12.790,6.804 12.708,7.257 12.481 C 7.517 12.351,7.644 12.261,7.847 12.062 L 8.000 11.911 8.154 12.062 C 8.536 12.440,9.076 12.678,9.632 12.712 C 9.876 12.727,9.898 12.724,10.040 12.655 C 10.467 12.446,10.471 11.840,10.047 11.623 C 9.979 11.589,9.851 11.560,9.698 11.546 C 9.374 11.515,9.134 11.400,8.922 11.171 C 8.603 10.826,8.587 10.746,8.587 9.528 L 8.587 8.560 8.953 8.559 C 9.370 8.559,9.480 8.527,9.612 8.370 C 9.823 8.119,9.811 7.803,9.579 7.566 C 9.444 7.427,9.292 7.387,8.902 7.387 L 8.587 7.387 8.587 6.432 C 8.587 5.661,8.595 5.448,8.628 5.321 C 8.759 4.818,9.162 4.480,9.693 4.429 C 9.967 4.403,10.035 4.381,10.156 4.279 C 10.368 4.101,10.425 3.777,10.285 3.539 C 10.244 3.469,10.161 3.379,10.100 3.339 C 9.995 3.270,9.976 3.267,9.655 3.267 C 9.340 3.268,9.304 3.274,9.046 3.364 C 8.708 3.482,8.404 3.664,8.172 3.885 L 7.995 4.053 7.884 3.939 C 7.567 3.613,7.089 3.368,6.602 3.281 C 6.417 3.249,6.126 3.248,6.018 3.280 " fill="#3d4347" stroke="none" fill-rule="evenodd"></path></symbol><symbol viewBox="0 0 32 32" id="fp-brush-icon"><path d="M29.533 0.055 C 28.962 0.199,28.930 0.228,24.685 4.465 L 20.598 8.546 19.885 7.896 C 19.034 7.119,18.582 6.862,17.893 6.764 C 17.124 6.655,16.600 6.828,14.838 7.774 L 14.076 8.182 18.918 13.025 C 21.581 15.688,23.775 17.867,23.795 17.867 C 23.844 17.867,24.531 16.612,24.847 15.947 C 25.277 15.041,25.373 14.458,25.200 13.797 C 25.022 13.113,24.671 12.630,23.896 12.002 C 23.601 11.763,23.360 11.552,23.360 11.532 C 23.360 11.511,25.219 9.635,27.491 7.361 C 31.968 2.880,31.807 3.062,31.955 2.323 C 32.033 1.937,31.948 1.421,31.745 1.049 C 31.549 0.689,31.105 0.299,30.733 0.160 C 30.384 0.029,29.828 -0.020,29.533 0.055 M10.053 10.435 C 9.232 10.889,7.420 11.892,6.027 12.663 C 1.281 15.287,0.854 15.533,0.577 15.799 C -0.077 16.428,-0.174 17.400,0.336 18.213 C 0.550 18.555,3.156 21.194,3.388 21.304 C 3.484 21.349,3.634 21.387,3.721 21.387 C 3.808 21.387,4.349 21.221,4.924 21.018 C 6.293 20.535,6.852 20.373,7.156 20.373 C 7.461 20.373,7.555 20.457,7.602 20.768 C 7.647 21.069,7.526 21.543,7.006 23.096 C 6.622 24.244,6.606 24.310,6.663 24.536 C 6.718 24.754,7.000 25.048,10.068 28.093 C 11.908 29.919,13.543 31.501,13.701 31.608 C 14.772 32.333,15.958 31.997,16.674 30.768 C 17.008 30.196,22.003 21.190,22.196 20.813 C 22.370 20.474,22.387 20.407,22.338 20.265 C 22.270 20.069,11.785 9.631,11.642 9.617 C 11.589 9.612,10.875 9.980,10.053 10.435 " fill="currentColor" stroke="none" fill-rule="evenodd"></path></symbol><symbol viewBox="0 0 16 16" id="fp-close"><path d="M2.963 2.029 C 2.641 2.092,2.275 2.367,2.137 2.649 C 1.954 3.024,1.959 3.450,2.151 3.787 C 2.193 3.860,3.017 4.706,4.263 5.953 L 6.306 8.000 4.251 10.060 C 2.322 11.994,2.191 12.130,2.122 12.290 C 1.966 12.647,1.967 12.974,2.127 13.314 C 2.418 13.932,3.199 14.184,3.787 13.849 C 3.860 13.807,4.706 12.983,5.953 11.737 L 8.000 9.694 10.060 11.749 C 11.994 13.678,12.130 13.809,12.290 13.878 C 12.532 13.984,12.758 14.018,12.974 13.981 C 13.804 13.839,14.256 12.926,13.849 12.213 C 13.807 12.140,12.983 11.294,11.737 10.047 L 9.694 8.000 11.749 5.940 C 13.678 4.006,13.809 3.870,13.878 3.710 C 13.984 3.468,14.018 3.242,13.981 3.026 C 13.867 2.362,13.253 1.911,12.611 2.022 C 12.209 2.090,12.321 1.993,10.060 4.250 L 8.000 6.306 5.940 4.251 C 4.035 2.351,3.868 2.190,3.716 2.124 C 3.449 2.008,3.219 1.979,2.963 2.029 " fill="#6A7888" stroke="none" fill-rule="evenodd"></path></symbol><symbol viewBox="0 0 18 14" id="fp-cloud-download-outline"><path d="M7.485 0.140 C 5.680 0.248,4.139 1.248,3.303 2.854 C 2.942 3.546,2.760 4.311,2.760 5.129 L 2.760 5.549 2.572 5.644 C 1.848 6.009,1.169 6.692,0.755 7.470 C -0.250 9.364,0.289 11.723,2.025 13.024 C 2.641 13.486,3.379 13.772,4.176 13.858 C 4.587 13.903,14.088 13.902,14.433 13.857 C 16.129 13.638,17.432 12.379,17.706 10.697 C 17.752 10.410,17.751 9.785,17.703 9.510 C 17.608 8.966,17.372 8.409,17.038 7.941 C 16.807 7.617,16.373 7.197,16.073 7.007 L 15.848 6.865 15.863 6.526 C 15.922 5.190,15.187 4.028,13.950 3.503 C 13.555 3.335,13.355 3.293,12.844 3.273 L 12.383 3.255 12.327 3.105 C 12.250 2.898,11.990 2.452,11.775 2.156 C 11.101 1.232,9.965 0.493,8.835 0.243 C 8.589 0.189,7.846 0.112,7.697 0.125 C 7.663 0.128,7.567 0.135,7.485 0.140 M8.515 1.453 C 9.424 1.649,10.277 2.206,10.799 2.943 C 10.997 3.222,11.230 3.692,11.326 4.005 C 11.419 4.306,11.486 4.416,11.640 4.518 C 11.801 4.625,11.997 4.642,12.276 4.573 C 12.537 4.508,12.967 4.500,13.200 4.556 C 13.834 4.709,14.417 5.289,14.564 5.913 C 14.629 6.191,14.623 6.628,14.550 6.893 C 14.466 7.196,14.472 7.333,14.579 7.519 C 14.661 7.662,14.692 7.686,15.006 7.845 C 15.421 8.056,15.565 8.159,15.820 8.429 C 16.526 9.178,16.697 10.312,16.243 11.235 C 16.010 11.710,15.555 12.160,15.081 12.388 C 14.568 12.634,15.094 12.612,9.398 12.622 C 4.405 12.631,4.315 12.630,4.023 12.571 C 2.841 12.330,1.905 11.443,1.600 10.275 C 1.533 10.017,1.522 9.910,1.520 9.510 C 1.518 9.124,1.529 9.000,1.584 8.779 C 1.710 8.276,1.979 7.776,2.339 7.374 C 2.634 7.045,3.153 6.707,3.600 6.552 C 3.812 6.479,4.003 6.294,4.051 6.115 C 4.078 6.016,4.078 5.924,4.051 5.727 C 4.007 5.405,4.007 4.816,4.050 4.542 C 4.232 3.391,4.945 2.387,5.975 1.832 C 6.376 1.615,6.712 1.502,7.185 1.422 C 7.489 1.371,8.214 1.388,8.515 1.453 M8.825 4.528 C 8.690 4.562,8.522 4.703,8.447 4.847 C 8.386 4.962,8.385 5.014,8.370 7.103 L 8.355 9.240 7.605 8.487 C 7.174 8.054,6.812 7.715,6.753 7.690 C 6.697 7.666,6.581 7.646,6.494 7.646 C 5.978 7.646,5.700 8.214,6.011 8.633 C 6.201 8.890,8.615 11.273,8.737 11.323 C 8.798 11.349,8.916 11.370,9.000 11.370 C 9.084 11.370,9.202 11.349,9.263 11.323 C 9.385 11.273,11.799 8.890,11.989 8.633 C 12.298 8.215,12.022 7.646,11.509 7.646 C 11.425 7.646,11.314 7.661,11.265 7.679 C 11.214 7.698,10.840 8.047,10.402 8.484 L 9.630 9.255 9.630 7.152 C 9.630 4.966,9.629 4.942,9.502 4.761 C 9.371 4.572,9.066 4.468,8.825 4.528 " stroke="none" fill-rule="evenodd" fill="black"></path></symbol><symbol viewBox="0 0 20 20" id="fp-copy"><path d="M13.267 1.782 C 13.239 1.789,13.104 1.812,12.967 1.834 C 12.371 1.929,11.615 2.255,11.112 2.632 C 10.962 2.745,10.146 3.535,9.197 4.489 C 7.426 6.268,7.321 6.390,7.037 7.004 C 6.753 7.619,6.625 8.205,6.625 8.883 C 6.625 9.590,6.758 10.175,7.067 10.817 C 7.450 11.614,8.151 12.346,8.957 12.788 L 9.132 12.883 9.706 12.310 C 10.188 11.829,10.270 11.733,10.215 11.715 C 9.548 11.494,9.086 11.174,8.703 10.665 C 8.471 10.358,8.299 10.012,8.193 9.643 C 8.130 9.425,8.118 9.303,8.119 8.883 C 8.119 8.339,8.155 8.148,8.337 7.721 C 8.537 7.248,8.682 7.080,10.197 5.554 C 10.996 4.750,11.759 4.004,11.893 3.897 C 12.185 3.662,12.654 3.425,13.017 3.329 C 13.398 3.228,14.075 3.226,14.454 3.325 C 15.549 3.611,16.390 4.485,16.622 5.579 C 16.687 5.882,16.687 6.482,16.623 6.784 C 16.551 7.124,16.389 7.521,16.214 7.786 C 16.122 7.924,15.780 8.298,15.359 8.721 L 14.658 9.426 14.730 9.781 C 14.814 10.201,14.881 10.957,14.851 11.158 C 14.839 11.236,14.842 11.300,14.857 11.300 C 14.906 11.300,17.118 9.056,17.272 8.850 C 18.146 7.679,18.392 6.206,17.946 4.817 C 17.525 3.503,16.456 2.429,15.131 1.988 C 14.697 1.843,14.409 1.797,13.850 1.783 C 13.557 1.776,13.294 1.775,13.267 1.782 M10.298 7.555 C 9.765 8.094,9.752 8.110,9.833 8.144 C 10.419 8.384,10.757 8.597,11.071 8.922 C 11.410 9.273,11.640 9.668,11.789 10.156 C 11.870 10.421,11.878 10.501,11.878 10.967 C 11.878 11.432,11.869 11.512,11.789 11.777 C 11.682 12.126,11.544 12.412,11.349 12.683 C 11.123 12.998,8.128 15.964,7.852 16.147 C 7.113 16.636,6.090 16.747,5.233 16.430 C 4.346 16.103,3.650 15.330,3.412 14.407 C 3.245 13.761,3.321 12.955,3.601 12.397 C 3.802 11.997,3.948 11.817,4.642 11.112 L 5.336 10.408 5.268 10.071 C 5.184 9.662,5.120 8.911,5.149 8.683 L 5.170 8.517 4.033 9.650 C 3.407 10.273,2.805 10.903,2.695 11.050 C 2.448 11.378,2.131 12.016,2.017 12.416 C 1.700 13.523,1.794 14.586,2.298 15.617 C 2.537 16.105,2.793 16.454,3.205 16.852 C 4.056 17.675,5.068 18.081,6.267 18.080 C 7.190 18.080,7.939 17.855,8.716 17.344 C 9.011 17.150,9.248 16.926,10.735 15.437 C 11.951 14.220,12.469 13.679,12.593 13.496 C 13.520 12.127,13.633 10.405,12.891 8.954 C 12.507 8.202,11.891 7.554,11.169 7.143 C 11.031 7.064,10.902 7.000,10.882 7.000 C 10.862 7.000,10.599 7.250,10.298 7.555 " fill="currentColor" stroke="none" fill-rule="evenodd"></path></symbol><symbol viewBox="0 0 71 77" id="fp-css-icon"><path d="" stroke="none" fill="black" fill-rule="evenodd"></path></symbol><symbol viewBox="0 0 18 16" id="fp-desktop"><path d="M1.185 0.035 C 0.644 0.138,0.149 0.636,0.033 1.194 C -0.014 1.419,-0.014 11.571,0.033 11.796 C 0.147 12.341,0.588 12.799,1.144 12.946 C 1.279 12.982,1.814 12.989,4.406 12.990 C 6.874 12.990,7.504 12.998,7.493 13.027 C 7.485 13.048,7.372 13.385,7.243 13.776 L 7.007 14.488 5.776 14.496 C 4.582 14.505,4.541 14.507,4.425 14.569 C 4.149 14.717,4.009 14.943,4.009 15.240 C 4.009 15.469,4.075 15.620,4.249 15.789 C 4.471 16.005,4.147 15.991,9.046 15.983 C 13.219 15.975,13.461 15.972,13.563 15.921 C 14.031 15.688,14.142 15.080,13.781 14.719 C 13.734 14.672,13.642 14.605,13.575 14.569 C 13.459 14.507,13.418 14.505,12.224 14.496 L 10.993 14.488 10.757 13.776 C 10.628 13.385,10.515 13.048,10.507 13.027 C 10.496 12.998,11.126 12.990,13.594 12.990 C 16.186 12.989,16.721 12.982,16.856 12.946 C 17.412 12.799,17.853 12.341,17.967 11.796 C 18.014 11.571,18.014 1.419,17.967 1.194 C 17.848 0.622,17.354 0.136,16.787 0.033 C 16.556 -0.010,1.407 -0.007,1.185 0.035 M15.990 6.510 L 15.990 11.010 9.000 11.010 L 2.010 11.010 2.010 6.510 L 2.010 2.010 9.000 2.010 L 15.990 2.010 15.990 6.510 " fill="currentColor" stroke="none" fill-rule="evenodd"></path></symbol><symbol viewBox="0 0 16 16" id="fp-eye"><path d="M7.440 2.522 C 5.952 2.694,4.788 3.149,3.533 4.049 C 2.259 4.963,0.967 6.386,0.096 7.833 L -0.004 8.000 0.096 8.167 C 0.931 9.554,2.182 10.949,3.411 11.864 C 4.328 12.545,5.312 13.027,6.307 13.281 C 6.967 13.449,7.225 13.480,8.000 13.480 C 8.775 13.480,9.033 13.449,9.693 13.281 C 11.175 12.902,12.559 12.061,13.881 10.736 C 14.651 9.964,15.378 9.040,15.904 8.167 L 16.004 8.000 15.904 7.833 C 15.294 6.820,14.359 5.675,13.507 4.899 C 12.059 3.580,10.569 2.813,8.987 2.572 C 8.721 2.532,7.657 2.497,7.440 2.522 M8.707 4.571 C 10.095 4.878,11.133 5.923,11.433 7.315 C 11.499 7.621,11.499 8.379,11.433 8.685 C 11.178 9.868,10.381 10.820,9.287 11.251 C 8.806 11.441,8.591 11.479,8.000 11.479 C 7.521 11.479,7.457 11.474,7.193 11.407 C 6.349 11.193,5.635 10.710,5.146 10.022 C 4.954 9.753,4.710 9.238,4.630 8.933 C 4.406 8.089,4.482 7.257,4.852 6.493 C 5.214 5.746,5.725 5.230,6.467 4.867 C 6.826 4.690,7.089 4.604,7.453 4.544 C 7.726 4.498,8.448 4.514,8.707 4.571 M7.703 5.520 C 7.321 5.567,6.893 5.730,6.562 5.953 C 6.357 6.091,5.997 6.480,5.857 6.715 C 5.684 7.003,5.556 7.385,5.515 7.728 C 5.454 8.249,5.579 8.820,5.857 9.286 C 6.031 9.580,6.420 9.969,6.714 10.143 C 7.350 10.521,8.110 10.601,8.806 10.363 C 9.185 10.233,9.458 10.060,9.759 9.759 C 10.060 9.458,10.233 9.185,10.363 8.806 C 10.670 7.908,10.451 6.944,9.787 6.266 C 9.532 6.007,9.414 5.920,9.097 5.760 C 8.706 5.563,8.140 5.465,7.703 5.520 " stroke="none" fill-rule="evenodd"></path></symbol><symbol viewBox="0 0 69 69" id="fp-fields-icon"><path d="" stroke="none" fill="black" fill-rule="evenodd"></path></symbol><symbol viewBox="0 0 22 16" id="fp-flowgenie-outline"><path d="M9.956 0.147 C 9.358 0.253,8.891 0.612,8.621 1.173 C 8.500 1.425,8.488 1.481,8.476 1.834 C 8.464 2.174,8.474 2.254,8.558 2.504 C 8.610 2.660,8.653 2.796,8.653 2.805 C 8.653 2.815,8.593 2.848,8.519 2.879 C 8.266 2.984,7.759 3.351,7.480 3.630 C 6.974 4.136,6.591 4.823,6.432 5.509 L 6.367 5.793 3.348 5.793 L 0.330 5.793 0.330 5.881 C 0.330 6.143,0.417 6.776,0.498 7.105 C 0.971 9.024,2.238 10.651,4.071 11.693 C 4.504 11.940,5.222 12.259,5.686 12.411 C 5.856 12.467,6.008 12.524,6.023 12.538 C 6.039 12.552,5.964 12.603,5.858 12.650 C 5.542 12.793,5.079 13.114,4.893 13.319 C 4.797 13.425,4.668 13.619,4.606 13.750 C 4.502 13.968,4.491 14.026,4.479 14.434 C 4.462 15.015,4.515 15.209,4.766 15.484 C 4.879 15.607,5.022 15.717,5.142 15.771 L 5.335 15.858 10.157 15.868 C 13.476 15.875,15.037 15.866,15.167 15.839 C 15.518 15.766,15.855 15.465,15.979 15.113 C 16.053 14.906,16.076 14.419,16.026 14.133 C 15.944 13.663,15.650 13.261,15.143 12.926 C 14.800 12.699,14.559 12.584,14.072 12.413 L 13.642 12.262 14.145 11.929 C 14.709 11.556,15.326 11.041,15.726 10.609 C 16.284 10.008,16.741 9.682,17.460 9.374 C 18.370 8.984,19.353 8.802,20.735 8.767 L 21.615 8.745 21.625 7.269 L 21.634 5.794 17.890 5.784 L 14.146 5.775 14.062 5.445 C 13.923 4.893,13.710 4.452,13.363 3.996 C 13.050 3.585,12.478 3.116,12.017 2.893 C 11.889 2.831,11.848 2.793,11.865 2.751 C 12.188 1.975,12.092 1.260,11.593 0.723 C 11.164 0.261,10.545 0.044,9.956 0.147 M10.552 1.459 C 10.876 1.668,10.874 2.183,10.549 2.387 C 10.382 2.492,10.050 2.470,9.915 2.344 C 9.714 2.157,9.662 1.905,9.775 1.667 C 9.903 1.396,10.293 1.292,10.552 1.459 M10.940 3.812 C 11.765 4.023,12.503 4.697,12.781 5.494 L 12.867 5.738 10.277 5.748 C 8.853 5.753,7.681 5.750,7.672 5.741 C 7.643 5.712,7.778 5.342,7.892 5.133 C 8.237 4.505,8.884 3.986,9.537 3.815 C 9.916 3.716,10.559 3.715,10.940 3.812 M3.602 7.242 C 3.810 8.566,4.261 9.789,4.808 10.511 C 4.908 10.644,4.985 10.756,4.979 10.761 C 4.973 10.766,4.812 10.679,4.620 10.569 C 3.311 9.810,2.390 8.725,1.867 7.324 L 1.761 7.039 2.667 7.049 L 3.573 7.058 3.602 7.242 M20.387 7.274 L 20.387 7.509 20.047 7.534 C 18.753 7.628,17.535 7.932,16.606 8.393 C 15.874 8.757,15.573 8.983,14.850 9.714 C 14.314 10.256,13.965 10.554,13.498 10.866 C 11.722 12.055,9.574 12.157,7.590 11.145 C 6.891 10.789,6.157 10.229,5.846 9.816 C 5.467 9.312,5.111 8.425,4.932 7.538 C 4.881 7.289,4.840 7.075,4.840 7.063 C 4.840 7.050,8.338 7.040,12.613 7.040 L 20.387 7.040 20.387 7.274 M11.220 13.128 C 12.803 13.240,14.132 13.626,14.658 14.127 C 14.763 14.228,14.777 14.264,14.777 14.436 L 14.777 14.630 10.248 14.630 L 5.720 14.630 5.720 14.441 C 5.720 14.270,5.733 14.240,5.861 14.118 C 6.049 13.939,6.506 13.706,6.982 13.547 C 8.081 13.179,9.690 13.020,11.220 13.128 " stroke="none" fill-rule="evenodd" fill="black"></path></symbol><symbol viewBox="0 0 18 16" id="fp-folder-outline"><path d="M2.340 0.530 C 1.331 0.705,0.509 1.494,0.297 2.490 C 0.235 2.780,0.235 13.210,0.297 13.500 C 0.489 14.402,1.211 15.168,2.100 15.411 C 2.284 15.462,2.659 15.465,9.000 15.465 C 15.341 15.465,15.716 15.462,15.900 15.411 C 16.638 15.209,17.286 14.631,17.571 13.920 C 17.753 13.469,17.745 13.673,17.745 9.225 L 17.745 5.145 17.677 4.891 C 17.446 4.022,16.794 3.350,15.925 3.084 C 15.707 3.018,15.687 3.017,13.140 3.001 C 11.052 2.988,10.561 2.977,10.500 2.944 C 10.459 2.922,9.973 2.454,9.420 1.905 C 8.364 0.856,8.194 0.715,7.832 0.592 L 7.635 0.525 5.025 0.521 C 3.590 0.519,2.381 0.523,2.340 0.530 M7.500 1.811 C 7.558 1.842,8.071 2.329,8.640 2.893 C 9.547 3.792,9.701 3.932,9.888 4.028 C 10.321 4.252,10.165 4.241,13.005 4.260 C 14.739 4.271,15.584 4.287,15.647 4.310 C 15.960 4.422,16.238 4.677,16.377 4.979 C 16.459 5.156,16.476 5.233,16.491 5.504 L 16.509 5.821 16.316 5.731 C 16.210 5.681,16.009 5.610,15.869 5.573 L 15.615 5.505 9.000 5.505 L 2.385 5.505 2.131 5.573 C 1.991 5.610,1.792 5.680,1.689 5.729 L 1.500 5.817 1.500 4.368 C 1.500 3.513,1.512 2.852,1.530 2.757 C 1.613 2.318,1.981 1.917,2.401 1.806 C 2.623 1.748,2.633 1.748,5.055 1.751 C 7.281 1.755,7.400 1.758,7.500 1.811 M15.758 6.861 C 16.128 7.036,16.397 7.376,16.467 7.754 C 16.510 7.983,16.512 12.957,16.470 13.213 C 16.392 13.694,15.998 14.104,15.517 14.206 C 15.215 14.270,2.785 14.270,2.483 14.206 C 2.012 14.106,1.619 13.706,1.530 13.233 C 1.487 13.004,1.489 7.989,1.533 7.754 C 1.575 7.528,1.670 7.341,1.841 7.151 C 1.990 6.985,2.268 6.821,2.467 6.782 C 2.537 6.768,5.511 6.758,9.075 6.761 L 15.555 6.765 15.758 6.861 " stroke="none" fill-rule="evenodd" fill="black"></path></symbol><symbol viewBox="0 0 17 16" id="fp-fullscreen"><path d="M11.050 0.026 C 10.737 0.123,10.513 0.416,10.504 0.741 C 10.502 0.794,10.518 0.901,10.539 0.978 C 10.574 1.107,10.636 1.178,11.259 1.807 L 11.941 2.494 10.535 3.903 C 9.762 4.678,9.107 5.357,9.079 5.412 C 9.051 5.467,9.023 5.601,9.016 5.716 C 8.995 6.042,9.042 6.113,9.752 6.819 C 10.329 7.391,10.363 7.420,10.523 7.466 C 10.724 7.525,10.907 7.510,11.083 7.422 C 11.166 7.381,11.660 6.908,12.601 5.970 L 13.995 4.578 14.641 5.218 C 15.036 5.610,15.334 5.881,15.410 5.920 C 15.782 6.109,16.246 5.948,16.423 5.569 L 16.489 5.426 16.490 3.021 C 16.490 1.259,16.481 0.586,16.457 0.505 C 16.414 0.364,16.235 0.158,16.083 0.077 L 15.966 0.014 13.543 0.009 C 12.211 0.006,11.089 0.014,11.050 0.026 M6.073 8.526 C 6.023 8.538,5.928 8.581,5.860 8.622 C 5.793 8.662,5.119 9.314,4.363 10.071 L 2.989 11.447 2.352 10.797 C 1.954 10.393,1.670 10.126,1.598 10.091 C 1.218 9.903,0.753 10.061,0.577 10.439 L 0.511 10.582 0.510 12.988 C 0.510 14.750,0.519 15.422,0.543 15.504 C 0.585 15.643,0.766 15.852,0.909 15.925 C 1.015 15.978,1.091 15.980,3.485 15.980 C 5.649 15.980,5.965 15.975,6.057 15.936 C 6.301 15.834,6.488 15.549,6.488 15.275 C 6.489 14.961,6.480 14.949,5.741 14.202 L 5.060 13.515 6.478 12.091 C 7.756 10.809,7.902 10.654,7.944 10.528 C 8.013 10.320,8.004 10.098,7.920 9.929 C 7.830 9.748,6.759 8.677,6.577 8.586 C 6.440 8.517,6.212 8.490,6.073 8.526 " fill="currentColor" stroke="none" fill-rule="evenodd"></path></symbol><symbol viewBox="0 0 16 15.6" id="fp-github"><path d="M7.347 0.016 C 6.999 0.044,6.489 0.115,6.192 0.176 C 4.180 0.589,2.434 1.753,1.314 3.427 C 0.220 5.061,-0.221 7.178,0.109 9.207 C 0.570 12.038,2.450 14.403,5.067 15.440 C 5.600 15.651,5.813 15.646,5.966 15.416 C 6.027 15.326,6.027 15.323,6.027 14.273 L 6.027 13.220 5.953 13.236 C 5.913 13.244,5.727 13.265,5.541 13.283 C 4.756 13.357,4.056 13.182,3.658 12.813 C 3.515 12.681,3.469 12.614,3.357 12.375 C 3.010 11.632,2.804 11.339,2.486 11.132 C 2.219 10.958,2.060 10.777,2.095 10.685 C 2.118 10.625,2.231 10.587,2.381 10.587 C 2.581 10.588,2.731 10.628,2.980 10.749 C 3.273 10.890,3.487 11.095,3.744 11.478 C 4.040 11.921,4.285 12.119,4.689 12.241 C 4.857 12.291,4.928 12.298,5.195 12.287 C 5.460 12.277,5.547 12.261,5.773 12.184 L 6.040 12.093 6.096 11.864 C 6.167 11.571,6.278 11.333,6.436 11.140 C 6.509 11.051,6.545 10.987,6.523 10.987 C 6.405 10.987,5.622 10.868,5.370 10.812 C 4.609 10.642,4.129 10.400,3.740 9.990 C 3.214 9.436,2.960 8.617,2.960 7.471 C 2.960 6.684,3.100 6.272,3.561 5.706 L 3.703 5.532 3.653 5.352 C 3.501 4.805,3.527 4.126,3.721 3.543 L 3.789 3.339 3.901 3.323 C 4.244 3.273,4.970 3.551,5.724 4.021 L 6.022 4.207 6.231 4.157 C 7.008 3.970,7.940 3.902,8.747 3.974 C 9.079 4.004,9.717 4.111,9.938 4.174 L 10.076 4.214 10.323 4.054 C 10.639 3.850,11.289 3.519,11.547 3.431 C 11.797 3.346,12.074 3.301,12.211 3.323 C 12.316 3.339,12.316 3.340,12.385 3.556 C 12.499 3.915,12.539 4.173,12.541 4.560 C 12.542 4.921,12.513 5.157,12.437 5.393 C 12.390 5.538,12.362 5.482,12.674 5.869 C 13.123 6.427,13.260 6.935,13.200 7.826 C 13.098 9.351,12.557 10.190,11.395 10.627 C 11.039 10.762,10.330 10.906,9.692 10.974 L 9.530 10.991 9.633 11.102 C 9.756 11.235,9.930 11.579,9.987 11.800 C 10.058 12.077,10.079 12.559,10.079 13.960 C 10.080 15.278,10.082 15.323,10.134 15.408 C 10.208 15.530,10.396 15.612,10.551 15.590 C 10.824 15.553,11.775 15.125,12.261 14.821 C 13.870 13.815,15.046 12.297,15.635 10.467 C 15.756 10.089,15.820 9.835,15.910 9.373 C 15.979 9.020,15.984 8.950,15.994 8.071 C 16.005 7.086,15.994 6.931,15.877 6.347 C 15.450 4.218,14.160 2.381,12.274 1.219 C 11.295 0.615,10.150 0.220,8.933 0.066 C 8.612 0.026,7.621 -0.006,7.347 0.016 M2.813 10.854 C 2.757 10.944,2.905 11.053,2.981 10.977 C 3.019 10.939,3.019 10.930,2.974 10.881 C 2.922 10.823,2.841 10.809,2.813 10.854 M3.133 11.147 C 3.068 11.252,3.245 11.407,3.331 11.320 C 3.369 11.283,3.369 11.271,3.332 11.206 C 3.289 11.129,3.167 11.093,3.133 11.147 M3.441 11.572 C 3.379 11.688,3.543 11.867,3.639 11.787 C 3.695 11.741,3.690 11.674,3.625 11.590 C 3.560 11.507,3.480 11.499,3.441 11.572 M3.845 12.005 C 3.766 12.085,3.868 12.267,3.992 12.267 C 4.124 12.267,4.133 12.126,4.008 12.027 C 3.929 11.965,3.891 11.960,3.845 12.005 M4.374 12.385 C 4.329 12.440,4.365 12.532,4.444 12.562 C 4.593 12.618,4.716 12.565,4.682 12.459 C 4.651 12.361,4.437 12.310,4.374 12.385 M5.673 12.402 C 5.609 12.440,5.614 12.551,5.682 12.588 C 5.806 12.654,6.003 12.531,5.944 12.423 C 5.915 12.367,5.754 12.355,5.673 12.402 M5.029 12.511 C 4.956 12.616,5.036 12.687,5.212 12.670 C 5.266 12.665,5.360 12.594,5.360 12.558 C 5.360 12.451,5.098 12.413,5.029 12.511 " fill="#3d4347" stroke="none" fill-rule="evenodd"></path></symbol><symbol viewBox="0 0 67 77" id="fp-layout-icon"><path d="" stroke="none" fill="black" fill-rule="evenodd"></path></symbol><symbol viewBox="0 0 16 16" id="fp-map"><path d="M2.893 0.509 C 1.515 0.786,0.342 1.032,0.288 1.056 C 0.166 1.111,0.095 1.185,0.041 1.313 C 0.004 1.401,-0.000 2.163,-0.000 8.507 C -0.000 14.395,0.006 15.616,0.036 15.688 C 0.093 15.824,0.270 15.967,0.407 15.987 C 0.500 16.001,1.029 15.904,3.008 15.508 L 5.493 15.011 7.994 15.511 L 10.495 16.011 13.100 15.489 C 15.991 14.910,15.839 14.952,15.949 14.710 C 15.997 14.603,15.999 14.377,15.999 7.499 C 16.000 1.595,15.994 0.384,15.964 0.312 C 15.915 0.196,15.759 0.063,15.623 0.022 C 15.518 -0.009,15.363 0.018,13.002 0.490 L 10.493 0.992 8.013 0.496 C 6.649 0.223,5.503 0.001,5.467 0.003 C 5.430 0.004,4.272 0.232,2.893 0.509 M5.760 1.062 L 5.987 1.109 5.993 7.594 C 5.999 12.774,5.993 14.080,5.967 14.080 C 5.948 14.080,5.834 14.060,5.713 14.036 C 5.510 13.996,5.477 13.996,5.273 14.036 C 5.152 14.060,5.044 14.080,5.033 14.080 C 5.022 14.080,5.013 11.160,5.013 7.591 L 5.013 1.103 5.220 1.061 C 5.488 1.008,5.494 1.008,5.760 1.062 M10.331 1.977 C 10.474 2.003,10.538 2.001,10.724 1.964 C 10.847 1.940,10.956 1.920,10.967 1.920 C 10.978 1.920,10.987 4.840,10.987 8.408 L 10.987 14.897 10.739 14.944 C 10.502 14.988,10.479 14.988,10.245 14.943 L 10.000 14.896 10.000 8.405 L 10.000 1.913 10.080 1.929 C 10.124 1.938,10.237 1.960,10.331 1.977 " stroke="none" fill-rule="evenodd"></path></symbol><symbol viewBox="0 0 16 16" id="fp-mobile"><path d="M4.167 0.040 C 3.657 0.151,3.212 0.576,3.049 1.107 C 3.002 1.260,3.000 1.539,3.000 8.000 C 3.000 14.461,3.002 14.740,3.049 14.893 C 3.214 15.430,3.638 15.835,4.167 15.960 C 4.417 16.019,11.583 16.019,11.833 15.960 C 12.362 15.835,12.786 15.430,12.951 14.893 C 12.998 14.740,13.000 14.461,13.000 8.000 C 13.000 1.539,12.998 1.260,12.951 1.107 C 12.786 0.569,12.342 0.150,11.820 0.039 C 11.560 -0.016,4.421 -0.015,4.167 0.040 M11.316 1.555 C 11.356 1.581,11.413 1.641,11.441 1.688 C 11.492 1.772,11.493 1.864,11.493 6.747 C 11.493 11.662,11.493 11.721,11.440 11.807 C 11.411 11.855,11.348 11.918,11.300 11.947 C 11.215 11.999,11.159 12.000,8.000 12.000 C 4.841 12.000,4.785 11.999,4.700 11.947 C 4.652 11.918,4.589 11.855,4.560 11.807 C 4.507 11.721,4.507 11.662,4.507 6.752 C 4.507 1.427,4.500 1.714,4.634 1.592 C 4.664 1.565,4.722 1.533,4.764 1.521 C 4.806 1.508,6.281 1.500,8.041 1.502 C 11.077 1.506,11.246 1.509,11.316 1.555 M8.429 13.100 C 8.616 13.192,8.809 13.384,8.901 13.572 C 8.966 13.705,8.973 13.749,8.973 14.000 C 8.973 14.251,8.966 14.295,8.901 14.428 C 8.707 14.821,8.268 15.054,7.848 14.986 C 7.533 14.935,7.241 14.717,7.101 14.430 C 7.009 14.243,6.986 13.920,7.050 13.701 C 7.130 13.427,7.385 13.160,7.662 13.061 C 7.872 12.986,8.234 13.005,8.429 13.100 " fill="currentColor" stroke="none" fill-rule="evenodd"></path></symbol><symbol viewBox="0 0 15.18 16.04" id="fp-pdf"><path d="M0.405 4.478 L 0.405 8.956 0.898 8.956 L 1.391 8.956 1.391 4.971 L 1.391 0.987 4.611 0.992 C 6.382 0.995,7.714 1.001,7.571 1.006 L 7.312 1.014 7.312 4.087 L 7.312 7.160 10.385 7.160 L 13.458 7.160 13.466 6.901 C 13.471 6.758,13.477 7.162,13.480 7.799 L 13.485 8.956 13.978 8.956 L 14.472 8.956 14.472 7.596 L 14.472 6.236 11.353 3.118 L 8.235 0.000 4.320 0.000 L 0.405 0.000 0.405 4.478 M10.664 3.820 L 13.017 6.173 10.658 6.173 L 8.298 6.173 8.298 3.820 C 8.298 2.526,8.301 1.467,8.305 1.467 C 8.308 1.467,9.370 2.526,10.664 3.820 M0.519 10.117 C 0.382 10.153,0.234 10.243,0.154 10.341 C -0.005 10.532,-0.000 10.450,-0.000 13.067 C -0.000 15.713,-0.007 15.606,0.169 15.811 C 0.297 15.960,0.424 16.014,0.652 16.014 C 0.865 16.015,0.987 15.973,1.109 15.855 C 1.281 15.691,1.302 15.619,1.311 15.152 L 1.320 14.731 1.817 14.718 C 2.411 14.701,2.616 14.658,2.998 14.470 C 3.567 14.190,3.982 13.696,4.188 13.055 C 4.280 12.766,4.303 12.282,4.239 11.965 C 4.084 11.199,3.551 10.562,2.825 10.272 C 2.459 10.125,2.368 10.114,1.442 10.106 C 0.976 10.101,0.560 10.106,0.519 10.117 M5.763 10.129 C 5.698 10.147,5.624 10.178,5.599 10.197 C 5.468 10.296,5.402 10.372,5.348 10.487 L 5.288 10.613 5.288 13.067 L 5.288 15.522 5.348 15.648 C 5.417 15.795,5.514 15.899,5.647 15.967 C 5.735 16.012,5.807 16.015,6.710 16.014 C 7.782 16.014,7.898 16.001,8.313 15.840 C 9.477 15.387,10.221 14.306,10.221 13.064 C 10.222 11.840,9.439 10.711,8.301 10.295 C 7.852 10.131,7.718 10.115,6.755 10.105 C 6.087 10.098,5.854 10.103,5.763 10.129 M11.681 10.130 C 11.516 10.175,11.387 10.287,11.296 10.462 L 11.221 10.610 11.214 12.987 C 11.209 14.534,11.216 15.414,11.233 15.506 C 11.264 15.676,11.359 15.821,11.508 15.926 C 11.607 15.995,11.638 16.003,11.852 16.011 C 12.048 16.018,12.102 16.011,12.185 15.969 C 12.307 15.906,12.399 15.809,12.476 15.661 C 12.535 15.550,12.536 15.528,12.544 14.807 L 12.552 14.067 13.242 14.067 C 14.066 14.067,14.141 14.053,14.322 13.866 C 14.643 13.535,14.564 13.017,14.163 12.817 L 14.032 12.751 13.290 12.751 L 12.549 12.751 12.549 12.095 L 12.549 11.439 13.605 11.429 C 14.785 11.418,14.795 11.417,14.965 11.246 C 15.120 11.092,15.167 10.976,15.167 10.752 C 15.166 10.532,15.112 10.404,14.965 10.276 C 14.766 10.100,14.841 10.108,13.245 10.102 C 12.123 10.098,11.776 10.104,11.681 10.130 M2.328 11.482 C 2.617 11.598,2.841 11.833,2.925 12.109 C 2.972 12.266,2.973 12.552,2.926 12.707 C 2.841 12.985,2.615 13.226,2.334 13.336 C 2.208 13.385,2.130 13.394,1.752 13.404 L 1.316 13.414 1.316 12.410 L 1.316 11.405 1.752 11.416 C 2.127 11.425,2.208 11.434,2.328 11.482 M7.755 11.495 C 8.348 11.687,8.780 12.176,8.884 12.774 C 8.926 13.017,8.899 13.387,8.822 13.608 C 8.660 14.072,8.322 14.426,7.868 14.606 C 7.637 14.697,7.436 14.724,6.989 14.724 L 6.603 14.725 6.603 13.064 L 6.603 11.404 7.078 11.416 C 7.498 11.428,7.575 11.437,7.755 11.495 " fill="#3d4347" stroke="none" fill-rule="evenodd"></path></symbol><symbol viewBox="0 0 18 18" id="fp-play-outline"><path d="M8.411 0.901 C 6.215 1.049,4.132 2.130,2.718 3.855 C 1.774 5.007,1.188 6.330,0.956 7.834 C 0.860 8.454,0.860 9.546,0.956 10.166 C 1.228 11.930,1.984 13.442,3.219 14.696 C 4.486 15.980,6.029 16.764,7.845 17.046 C 8.191 17.099,8.395 17.111,9.000 17.111 C 9.605 17.111,9.809 17.099,10.155 17.046 C 11.628 16.818,12.953 16.243,14.070 15.347 C 14.394 15.087,14.997 14.491,15.271 14.160 C 16.237 12.991,16.829 11.635,17.059 10.065 C 17.139 9.521,17.132 8.406,17.045 7.845 C 16.571 4.775,14.533 2.324,11.609 1.306 C 10.987 1.090,10.279 0.951,9.535 0.900 C 9.061 0.868,8.905 0.868,8.411 0.901 M9.677 2.162 C 11.717 2.360,13.605 3.501,14.739 5.220 C 16.072 7.241,16.236 9.862,15.164 12.025 C 14.252 13.866,12.640 15.170,10.650 15.677 C 10.002 15.842,9.013 15.912,8.324 15.842 C 5.939 15.598,3.906 14.184,2.836 12.025 C 1.308 8.942,2.335 5.165,5.220 3.261 C 6.096 2.683,7.252 2.267,8.265 2.165 C 8.652 2.126,9.296 2.125,9.677 2.162 M7.252 5.491 C 7.064 5.523,6.875 5.636,6.725 5.806 C 6.498 6.064,6.510 5.892,6.510 9.000 C 6.510 12.127,6.497 11.938,6.739 12.208 C 6.983 12.479,7.339 12.591,7.661 12.497 C 7.895 12.430,12.608 9.811,12.759 9.665 C 13.140 9.298,13.130 8.663,12.737 8.319 C 12.620 8.215,8.014 5.638,7.770 5.540 C 7.625 5.481,7.422 5.462,7.252 5.491 M9.607 7.972 C 10.610 8.529,11.430 8.992,11.430 9.002 C 11.430 9.021,7.842 11.020,7.780 11.035 C 7.747 11.043,7.740 10.690,7.740 9.002 C 7.740 7.879,7.750 6.960,7.762 6.960 C 7.774 6.960,8.604 7.416,9.607 7.972 " stroke="none" fill-rule="evenodd" fill="black"></path></symbol><symbol viewBox="0 0 14 15" id="fp-plus"><path d="M6.807 0.794 C 6.550 0.859,6.338 1.034,6.222 1.280 L 6.148 1.435 6.142 4.100 L 6.136 6.766 3.470 6.772 L 0.805 6.778 0.653 6.850 C -0.103 7.209,0.019 8.294,0.835 8.467 C 0.923 8.486,1.720 8.493,3.547 8.493 L 6.136 8.493 6.142 11.159 L 6.148 13.825 6.212 13.961 C 6.326 14.205,6.497 14.361,6.737 14.441 C 6.921 14.503,7.079 14.503,7.263 14.441 C 7.503 14.361,7.674 14.205,7.788 13.961 L 7.852 13.825 7.858 11.159 L 7.864 8.493 10.453 8.493 C 12.280 8.493,13.077 8.486,13.165 8.467 C 13.436 8.410,13.654 8.238,13.770 7.992 C 13.975 7.553,13.793 7.062,13.347 6.850 L 13.195 6.778 10.530 6.772 L 7.864 6.766 7.858 4.100 L 7.852 1.435 7.778 1.280 C 7.686 1.085,7.550 0.948,7.362 0.860 C 7.199 0.784,6.961 0.755,6.807 0.794 " stroke="none" fill-rule="evenodd" fill="black"></path></symbol><symbol viewBox="0 0 18 16" id="fp-screen-outline"><path d="M2.970 0.531 C 2.736 0.571,2.417 0.678,2.220 0.784 C 1.610 1.112,1.174 1.640,0.969 2.295 L 0.885 2.565 0.885 7.995 L 0.885 13.425 0.969 13.695 C 1.224 14.512,1.850 15.137,2.671 15.395 L 2.895 15.465 9.000 15.465 L 15.105 15.465 15.329 15.395 C 15.813 15.243,16.251 14.948,16.564 14.563 C 16.785 14.292,16.927 14.028,17.031 13.695 L 17.115 13.425 17.115 7.995 L 17.115 2.565 17.031 2.295 C 16.778 1.484,16.136 0.843,15.330 0.594 L 15.105 0.525 9.075 0.521 C 5.758 0.519,3.011 0.524,2.970 0.531 M14.805 1.771 C 15.310 1.843,15.732 2.233,15.836 2.724 C 15.856 2.815,15.870 3.176,15.870 3.571 L 15.870 4.260 9.000 4.260 L 2.130 4.260 2.130 3.571 C 2.130 3.176,2.144 2.815,2.164 2.724 C 2.265 2.247,2.691 1.843,3.166 1.773 C 3.424 1.736,14.542 1.734,14.805 1.771 M3.169 2.412 C 3.027 2.465,2.857 2.622,2.801 2.752 C 2.749 2.875,2.748 3.124,2.801 3.248 C 2.887 3.451,3.147 3.628,3.363 3.629 C 3.843 3.632,4.146 3.137,3.925 2.708 C 3.791 2.447,3.442 2.311,3.169 2.412 M5.100 2.397 C 4.871 2.471,4.724 2.609,4.654 2.817 C 4.491 3.305,5.007 3.782,5.483 3.583 C 5.973 3.379,6.012 2.687,5.547 2.444 C 5.447 2.392,5.197 2.365,5.100 2.397 M6.919 2.412 C 6.777 2.465,6.607 2.622,6.551 2.752 C 6.499 2.875,6.498 3.124,6.551 3.248 C 6.637 3.451,6.897 3.628,7.113 3.629 C 7.593 3.632,7.896 3.137,7.675 2.708 C 7.541 2.447,7.192 2.311,6.919 2.412 M15.870 9.299 C 15.870 12.004,15.860 13.153,15.836 13.266 C 15.767 13.590,15.536 13.904,15.236 14.080 C 14.936 14.256,15.198 14.249,9.000 14.249 C 2.802 14.249,3.064 14.256,2.764 14.080 C 2.464 13.904,2.233 13.590,2.164 13.266 C 2.140 13.153,2.130 12.004,2.130 9.299 L 2.130 5.490 9.000 5.490 L 15.870 5.490 15.870 9.299 " stroke="none" fill-rule="evenodd" fill="black"></path></symbol><symbol viewBox="0 0 20 16" id="fp-script-outline"><path d="M11.689 0.534 C 11.549 0.576,11.383 0.715,11.324 0.840 C 11.272 0.950,7.542 14.590,7.509 14.790 C 7.467 15.050,7.638 15.345,7.893 15.452 C 8.138 15.554,8.451 15.471,8.611 15.260 C 8.682 15.168,9.052 13.849,10.603 8.160 C 12.716 0.415,12.578 0.996,12.356 0.743 C 12.177 0.539,11.930 0.462,11.689 0.534 M5.450 3.025 C 5.414 3.034,5.324 3.083,5.250 3.135 C 5.177 3.186,4.131 4.216,2.927 5.422 C 1.408 6.944,0.721 7.655,0.685 7.741 C 0.619 7.899,0.619 8.101,0.685 8.259 C 0.721 8.345,1.411 9.059,2.943 10.593 C 4.157 11.808,5.206 12.841,5.274 12.888 C 5.516 13.056,5.875 13.018,6.082 12.801 C 6.252 12.624,6.290 12.303,6.168 12.066 C 6.145 12.020,5.231 11.087,4.138 9.992 L 2.151 8.000 4.138 6.008 C 5.231 4.913,6.145 3.980,6.168 3.934 C 6.286 3.705,6.254 3.382,6.096 3.211 C 5.943 3.045,5.675 2.968,5.450 3.025 M14.117 3.061 C 13.932 3.149,13.832 3.269,13.782 3.462 C 13.737 3.632,13.753 3.781,13.832 3.934 C 13.855 3.980,14.769 4.913,15.862 6.008 L 17.849 8.000 15.862 9.992 C 14.769 11.087,13.855 12.020,13.832 12.066 C 13.710 12.303,13.748 12.624,13.918 12.801 C 14.125 13.018,14.484 13.056,14.726 12.888 C 14.794 12.841,15.843 11.808,17.057 10.593 C 18.589 9.059,19.279 8.345,19.315 8.259 C 19.381 8.101,19.381 7.899,19.315 7.741 C 19.279 7.655,18.597 6.949,17.090 5.440 C 15.895 4.242,14.846 3.210,14.759 3.146 C 14.558 2.996,14.319 2.965,14.117 3.061 " stroke="none" fill-rule="evenodd" fill="black"></path></symbol><symbol viewBox="0 0 16 16" id="fp-slack-notification"><path d="M5.547 0.040 C 5.274 0.102,4.967 0.264,4.766 0.452 C 4.540 0.663,4.410 0.860,4.309 1.145 C 4.238 1.348,4.229 1.407,4.229 1.680 C 4.229 1.953,4.238 2.012,4.309 2.215 C 4.461 2.644,4.764 2.988,5.158 3.177 C 5.509 3.345,5.624 3.359,6.662 3.360 L 7.577 3.360 7.566 2.380 C 7.557 1.576,7.548 1.374,7.512 1.253 C 7.346 0.694,6.934 0.268,6.378 0.081 C 6.155 0.007,5.777 -0.012,5.547 0.040 M9.720 0.063 C 9.128 0.214,8.678 0.654,8.489 1.268 C 8.443 1.417,8.440 1.573,8.440 3.787 C 8.440 5.995,8.443 6.158,8.489 6.320 C 8.597 6.703,8.870 7.082,9.190 7.294 C 9.270 7.348,9.435 7.428,9.555 7.474 C 9.746 7.545,9.808 7.556,10.053 7.558 C 10.388 7.560,10.552 7.523,10.851 7.381 C 11.028 7.297,11.120 7.230,11.280 7.069 C 11.618 6.732,11.785 6.319,11.786 5.820 L 11.787 5.601 11.660 5.536 C 11.015 5.206,10.438 4.499,10.230 3.782 C 9.920 2.712,10.215 1.610,11.017 0.838 C 11.125 0.735,11.243 0.630,11.278 0.606 L 11.344 0.561 11.280 0.493 C 11.162 0.368,10.868 0.186,10.666 0.114 C 10.502 0.056,10.413 0.042,10.160 0.036 C 9.974 0.031,9.801 0.042,9.720 0.063 M12.563 1.041 C 11.904 1.214,11.403 1.683,11.185 2.333 C 11.081 2.642,11.064 3.073,11.144 3.387 C 11.291 3.971,11.661 4.439,12.173 4.692 C 12.494 4.850,12.679 4.892,13.053 4.891 C 13.384 4.890,13.489 4.871,13.787 4.754 C 14.557 4.453,15.060 3.651,15.005 2.814 C 14.949 1.960,14.358 1.251,13.524 1.038 C 13.256 0.969,12.832 0.971,12.563 1.041 M1.334 4.255 C 0.537 4.428,-0.047 5.196,0.011 5.995 C 0.054 6.589,0.412 7.126,0.933 7.378 C 1.325 7.568,1.196 7.560,3.813 7.560 L 6.173 7.560 6.389 7.487 C 6.768 7.358,7.061 7.135,7.280 6.809 C 7.464 6.534,7.552 6.248,7.556 5.920 C 7.560 5.612,7.521 5.443,7.381 5.149 C 7.173 4.711,6.714 4.355,6.227 4.253 C 5.957 4.197,1.595 4.198,1.334 4.255 M15.347 4.776 C 15.230 4.935,14.888 5.254,14.695 5.386 C 14.174 5.739,13.510 5.923,12.900 5.883 L 12.640 5.866 12.640 6.722 L 12.640 7.577 13.620 7.566 C 14.707 7.554,14.728 7.551,15.093 7.368 C 15.341 7.243,15.655 6.940,15.778 6.707 C 16.046 6.197,16.064 5.695,15.833 5.196 C 15.751 5.018,15.493 4.666,15.446 4.667 C 15.435 4.668,15.391 4.717,15.347 4.776 M1.429 8.455 C 1.067 8.515,0.756 8.679,0.493 8.944 C -0.137 9.583,-0.155 10.585,0.452 11.234 C 0.663 11.460,0.860 11.590,1.145 11.691 C 1.348 11.762,1.407 11.771,1.680 11.771 C 1.953 11.771,2.012 11.762,2.215 11.691 C 2.644 11.539,2.988 11.236,3.177 10.842 C 3.345 10.492,3.359 10.376,3.360 9.340 L 3.360 8.427 2.460 8.430 C 1.965 8.432,1.501 8.443,1.429 8.455 M5.620 8.454 C 4.984 8.554,4.404 9.097,4.255 9.733 C 4.220 9.882,4.214 10.238,4.214 12.213 C 4.214 14.773,4.209 14.684,4.392 15.066 C 4.505 15.303,4.830 15.647,5.067 15.780 C 5.903 16.250,6.961 15.921,7.386 15.060 C 7.576 14.673,7.572 14.734,7.572 12.213 C 7.572 9.689,7.577 9.754,7.384 9.363 C 7.191 8.971,6.797 8.637,6.374 8.505 C 6.184 8.446,5.827 8.422,5.620 8.454 M9.907 8.445 C 9.511 8.503,9.206 8.657,8.920 8.945 C 8.607 9.259,8.460 9.585,8.435 10.013 C 8.408 10.486,8.559 10.899,8.886 11.242 C 9.098 11.466,9.294 11.596,9.579 11.701 L 9.773 11.773 12.111 11.781 C 14.714 11.789,14.669 11.792,15.034 11.612 C 15.619 11.324,15.973 10.762,15.973 10.124 C 15.973 9.835,15.937 9.664,15.823 9.416 C 15.621 8.973,15.257 8.661,14.747 8.490 C 14.609 8.444,14.455 8.441,12.293 8.437 C 11.025 8.435,9.951 8.439,9.907 8.445 M8.434 13.620 C 8.446 14.707,8.449 14.728,8.632 15.093 C 8.757 15.341,9.060 15.655,9.293 15.778 C 9.669 15.976,10.062 16.040,10.427 15.963 C 11.337 15.772,11.934 14.877,11.746 13.987 C 11.642 13.492,11.300 13.050,10.853 12.830 C 10.496 12.655,10.385 12.641,9.338 12.640 L 8.423 12.640 8.434 13.620 " fill="#3d4347" stroke="none" fill-rule="evenodd"></path></symbol><symbol viewBox="0 0 16 16" id="fp-slack"><path d="M5.560 0.039 C 4.772 0.213,4.214 0.893,4.214 1.680 C 4.214 2.132,4.375 2.515,4.704 2.842 C 4.935 3.072,5.111 3.186,5.387 3.283 C 5.553 3.342,5.598 3.345,6.567 3.354 L 7.573 3.363 7.573 2.448 C 7.572 1.402,7.559 1.291,7.383 0.933 C 7.058 0.269,6.271 -0.117,5.560 0.039 M9.760 0.040 C 9.281 0.147,8.828 0.502,8.617 0.933 C 8.423 1.328,8.428 1.262,8.428 3.787 C 8.428 6.312,8.423 6.246,8.617 6.639 C 8.906 7.225,9.561 7.608,10.200 7.564 C 10.642 7.533,10.960 7.387,11.281 7.067 C 11.534 6.814,11.672 6.576,11.745 6.267 C 11.806 6.007,11.806 1.566,11.745 1.307 C 11.651 0.906,11.372 0.510,11.019 0.276 C 10.678 0.050,10.153 -0.049,9.760 0.040 M1.311 4.254 C 1.218 4.274,1.050 4.336,0.938 4.391 C 0.652 4.531,0.318 4.865,0.178 5.150 C -0.059 5.634,-0.054 6.158,0.193 6.662 C 0.324 6.932,0.642 7.241,0.933 7.383 C 1.329 7.577,1.262 7.572,3.787 7.572 C 6.312 7.572,6.246 7.577,6.639 7.383 C 7.225 7.094,7.608 6.439,7.564 5.800 C 7.533 5.358,7.387 5.040,7.067 4.719 C 6.811 4.462,6.557 4.318,6.245 4.252 C 5.987 4.197,1.564 4.199,1.311 4.254 M13.951 4.254 C 13.858 4.274,13.690 4.336,13.578 4.391 C 13.292 4.531,12.958 4.865,12.818 5.150 C 12.655 5.483,12.641 5.600,12.640 6.647 L 12.640 7.573 13.553 7.573 C 14.596 7.572,14.711 7.558,15.060 7.386 C 15.921 6.961,16.249 5.905,15.780 5.067 C 15.651 4.837,15.305 4.511,15.063 4.392 C 14.717 4.222,14.325 4.173,13.951 4.254 M1.424 8.453 C 1.076 8.504,0.776 8.663,0.493 8.946 C 0.248 9.191,0.137 9.388,0.049 9.738 C 0.004 9.916,-0.004 10.007,0.008 10.200 C 0.036 10.645,0.182 10.959,0.518 11.296 C 0.845 11.625,1.228 11.786,1.680 11.786 C 2.132 11.786,2.515 11.625,2.842 11.296 C 3.072 11.065,3.186 10.889,3.283 10.613 C 3.342 10.447,3.345 10.402,3.354 9.433 L 3.363 8.427 2.462 8.430 C 1.966 8.432,1.499 8.442,1.424 8.453 M5.620 8.454 C 4.984 8.554,4.404 9.097,4.255 9.733 C 4.220 9.882,4.214 10.238,4.214 12.213 C 4.214 14.773,4.209 14.684,4.392 15.066 C 4.505 15.303,4.830 15.647,5.067 15.780 C 5.903 16.250,6.961 15.921,7.386 15.060 C 7.576 14.673,7.572 14.734,7.572 12.213 C 7.572 9.689,7.577 9.754,7.384 9.363 C 7.191 8.971,6.797 8.637,6.374 8.505 C 6.184 8.446,5.827 8.422,5.620 8.454 M9.851 8.453 C 9.339 8.530,8.849 8.890,8.617 9.361 C 8.474 9.652,8.417 9.917,8.436 10.207 C 8.454 10.477,8.564 10.809,8.704 11.021 C 8.849 11.240,9.138 11.496,9.366 11.609 C 9.735 11.791,9.654 11.786,12.213 11.786 C 14.773 11.786,14.684 11.791,15.066 11.608 C 15.303 11.495,15.647 11.170,15.780 10.933 C 16.240 10.113,15.930 9.066,15.098 8.631 C 14.710 8.429,14.894 8.442,12.307 8.437 C 11.031 8.434,9.925 8.441,9.851 8.453 M8.427 13.552 C 8.428 14.597,8.442 14.710,8.615 15.061 C 8.810 15.458,9.158 15.762,9.587 15.911 C 9.771 15.975,9.841 15.985,10.107 15.986 C 10.608 15.987,10.923 15.853,11.296 15.482 C 11.461 15.318,11.535 15.219,11.608 15.066 C 11.918 14.419,11.816 13.702,11.343 13.200 C 11.123 12.966,10.929 12.838,10.641 12.735 L 10.413 12.653 9.420 12.645 L 8.427 12.637 8.427 13.552 " fill="#3d4347" stroke="none" fill-rule="evenodd"></path></symbol><symbol viewBox="0 0 20 17" id="fp-slideshow"><path d="M1.430 1.700 C 0.992 1.796,0.497 2.166,0.284 2.556 C 0.062 2.965,0.073 2.598,0.073 9.259 C 0.073 14.754,0.079 15.370,0.132 15.549 C 0.345 16.265,0.915 16.746,1.652 16.831 C 1.831 16.851,3.417 16.866,5.396 16.866 L 8.831 16.867 8.547 17.719 L 8.262 18.572 6.817 18.590 L 5.372 18.608 5.199 18.710 C 4.779 18.957,4.627 19.456,4.842 19.878 C 4.931 20.052,5.168 20.254,5.348 20.307 C 5.453 20.339,6.825 20.350,10.585 20.350 C 16.238 20.350,15.883 20.365,16.148 20.108 C 16.322 19.939,16.392 19.796,16.416 19.563 C 16.454 19.196,16.265 18.864,15.913 18.677 C 15.796 18.614,15.666 18.607,14.354 18.597 L 12.922 18.586 12.653 17.772 C 12.504 17.325,12.375 16.938,12.366 16.914 C 12.354 16.880,13.171 16.867,15.993 16.859 C 19.598 16.847,19.637 16.847,19.864 16.769 C 20.505 16.551,20.977 16.003,21.082 15.358 C 21.107 15.205,21.119 13.105,21.119 9.222 C 21.119 2.800,21.126 3.043,20.916 2.613 C 20.712 2.197,20.267 1.838,19.803 1.717 C 19.578 1.658,18.955 1.654,10.597 1.655 C 3.752 1.656,1.584 1.667,1.430 1.700 M18.773 9.258 L 18.773 14.520 10.597 14.520 L 2.420 14.520 2.420 9.258 L 2.420 3.997 10.597 3.997 L 18.773 3.997 18.773 9.258 M8.512 5.685 C 8.323 5.727,8.150 5.919,8.102 6.138 C 8.074 6.268,8.065 7.179,8.073 9.112 C 8.085 11.821,8.087 11.902,8.158 12.023 C 8.302 12.267,8.572 12.384,8.804 12.304 C 8.949 12.254,13.057 9.609,13.214 9.465 C 13.430 9.266,13.478 8.966,13.338 8.691 C 13.261 8.541,13.144 8.457,11.788 7.581 C 9.134 5.866,8.856 5.692,8.745 5.675 C 8.684 5.665,8.580 5.669,8.512 5.685 " fill="currentColor" stroke="none" fill-rule="evenodd"></path></symbol><symbol viewBox="0 0 16 12.24" id="fp-table"><path d="M0.294 0.042 C 0.172 0.095,0.112 0.152,0.050 0.273 C 0.001 0.370,-0.000 0.511,0.006 5.887 L 0.013 11.403 0.113 11.605 C 0.237 11.856,0.459 12.073,0.686 12.164 L 0.840 12.227 8.001 12.227 L 15.163 12.227 15.365 12.127 C 15.616 12.003,15.833 11.781,15.924 11.554 L 15.987 11.400 15.995 5.920 C 16.000 2.164,15.994 0.410,15.975 0.344 C 15.935 0.208,15.849 0.108,15.722 0.051 C 15.617 0.003,15.355 0.001,8.000 0.002 C 1.280 0.002,0.376 0.007,0.294 0.042 M15.067 2.347 L 15.067 3.760 8.000 3.760 L 0.933 3.760 0.933 2.347 L 0.933 0.933 8.000 0.933 L 15.067 0.933 15.067 2.347 M4.394 6.127 L 4.387 7.533 2.667 7.533 L 0.947 7.533 0.940 6.127 L 0.933 4.720 2.667 4.720 L 4.400 4.720 4.394 6.127 M15.060 6.127 L 15.053 7.533 10.193 7.540 L 5.333 7.547 5.333 6.133 L 5.333 4.720 10.200 4.720 L 15.067 4.720 15.060 6.127 M4.394 9.887 L 4.387 11.293 2.800 11.301 C 1.927 11.305,1.174 11.301,1.125 11.293 C 1.077 11.284,1.014 11.254,0.985 11.225 C 0.935 11.175,0.933 11.125,0.933 9.827 L 0.933 8.480 2.667 8.480 L 4.400 8.480 4.394 9.887 M15.067 9.828 L 15.067 11.176 15.001 11.241 L 14.936 11.307 10.135 11.307 L 5.333 11.307 5.333 9.893 L 5.333 8.480 10.200 8.480 L 15.067 8.480 15.067 9.828 " fill="#3d4347" stroke="none" fill-rule="evenodd"></path></symbol><symbol viewBox="0 0 18 18" id="fp-unlink"><path d="M12.930 0.271 C 12.143 0.351,11.371 0.654,10.725 1.135 C 10.626 1.209,9.600 2.212,8.445 3.364 L 6.344 5.460 4.110 3.224 C 2.616 1.730,1.835 0.969,1.753 0.929 C 1.257 0.688,0.704 1.220,0.916 1.733 C 0.972 1.869,16.035 16.953,16.200 17.038 C 16.370 17.126,16.484 17.139,16.657 17.089 C 17.042 16.977,17.222 16.558,17.038 16.200 C 17.008 16.142,15.938 15.050,14.660 13.773 L 12.336 11.451 12.420 11.253 C 12.983 9.920,12.788 8.296,11.918 7.069 C 11.461 6.425,10.479 5.667,10.037 5.618 C 9.657 5.575,9.324 5.919,9.370 6.308 C 9.395 6.519,9.511 6.677,9.736 6.806 C 10.443 7.213,10.865 7.635,11.167 8.235 C 11.477 8.853,11.571 9.714,11.398 10.357 L 11.365 10.480 9.298 8.413 L 7.230 6.345 9.263 4.310 C 10.380 3.191,11.373 2.215,11.468 2.141 C 12.384 1.426,13.693 1.299,14.745 1.823 C 15.377 2.138,15.908 2.679,16.197 3.301 C 16.571 4.107,16.573 5.095,16.201 5.922 C 16.017 6.333,15.858 6.525,14.939 7.455 C 14.449 7.950,14.023 8.402,13.993 8.460 C 13.960 8.524,13.938 8.630,13.937 8.730 C 13.936 9.048,14.168 9.312,14.482 9.350 C 14.776 9.384,14.805 9.363,15.814 8.347 C 16.318 7.840,16.790 7.344,16.864 7.245 C 17.683 6.150,17.945 4.718,17.565 3.406 C 17.099 1.799,15.761 0.601,14.115 0.316 C 13.791 0.260,13.241 0.239,12.930 0.271 M3.150 8.699 C 3.021 8.768,1.323 10.475,1.134 10.725 C 0.727 11.265,0.434 11.933,0.308 12.611 C 0.239 12.984,0.239 13.747,0.308 14.122 C 0.631 15.862,1.886 17.190,3.615 17.622 C 3.944 17.704,4.211 17.734,4.623 17.734 C 5.570 17.733,6.503 17.425,7.245 16.866 C 7.541 16.644,10.378 13.803,10.443 13.665 C 10.543 13.450,10.500 13.166,10.341 12.995 C 10.168 12.809,9.818 12.743,9.597 12.855 C 9.541 12.884,8.833 13.566,8.025 14.370 C 6.554 15.835,6.410 15.963,6.001 16.170 C 5.634 16.356,5.026 16.500,4.605 16.500 C 4.350 16.500,3.898 16.421,3.632 16.331 C 1.829 15.716,0.979 13.660,1.830 11.970 C 2.021 11.589,2.152 11.435,3.063 10.514 C 3.876 9.692,3.988 9.568,4.020 9.449 C 4.136 9.019,3.854 8.638,3.423 8.641 C 3.318 8.642,3.215 8.664,3.150 8.699 M5.849 9.038 C 5.690 9.115,5.585 9.214,5.524 9.344 C 5.413 9.580,5.443 9.762,5.674 10.258 C 6.046 11.059,6.804 11.840,7.605 12.249 C 7.880 12.389,7.998 12.409,8.188 12.346 C 8.477 12.250,8.676 11.919,8.613 11.639 C 8.567 11.435,8.452 11.295,8.228 11.172 C 7.571 10.808,7.127 10.362,6.840 9.777 C 6.773 9.639,6.680 9.451,6.636 9.361 C 6.522 9.129,6.360 9.020,6.112 9.010 C 6.009 9.005,5.891 9.018,5.849 9.038 " stroke="none" fill-rule="evenodd" fill="black"></path></symbol></svg>