<svg xmlns="http://www.w3.org/2000/svg" xmlns:xlink="http://www.w3.org/1999/xlink" width="0" height="0" style="display:none;"><symbol viewBox="0 0 16.14 13.82" id="fp-bpmn-action-by-email">
  <g>
    <path d="M16.14,5.33L8,0l-.27.18C6.55.94.68,4.77.48,4.93l-.21.16v.21s-.27,0-.27,0v6.53c0,1.1.9,2,2,2h12c1.1,0,2-.9,2-2v-6.4l.14-.09ZM8,1.2l6.31,4.14-6.31,4.12c-1.95-1.27-5.01-3.27-6.32-4.12,1.25-.82,4.14-2.71,6.32-4.13ZM15,11.82c0,.55-.45,1-1,1H2c-.55,0-1-.45-1-1v-5.79c.84.59,2.68,1.79,6.73,4.43l.27.18,7-4.56v5.75Z" fill="#3d4347"></path>
  </g>
</symbol><symbol viewBox="0 0 16 16" id="fp-bpmn-data-connector">
  <g>
    <path fill="#3d4347" d="M8,4.41c-.71,0-1.4.21-1.99.6-.59.39-1.05.95-1.32,1.61-.27.65-.34,1.38-.2,2.07.14.7.48,1.33.98,1.84.5.5,1.14.84,1.84.98.7.14,1.42.07,2.07-.2.65-.27,1.21-.73,1.61-1.32.39-.59.6-1.28.6-1.99,0-.95-.38-1.86-1.05-2.53-.67-.67-1.58-1.05-2.53-1.05ZM8,10.65c-.52,0-1.04-.16-1.47-.45-.44-.29-.78-.7-.98-1.19-.2-.48-.25-1.02-.15-1.53.1-.51.35-.99.73-1.36.37-.37.84-.62,1.36-.73.51-.1,1.05-.05,1.53.15.48.2.9.54,1.19.98.29.44.45.95.45,1.47,0,.7-.28,1.38-.78,1.87-.5.5-1.17.78-1.87.78ZM14.7,8.22c0-.15,0-.3,0-.44l1.19-1.49c.05-.06.08-.12.09-.2.02-.07.01-.15,0-.22-.19-.7-.47-1.38-.83-2.01-.04-.06-.09-.12-.15-.16-.06-.04-.13-.07-.2-.07l-1.91-.21c-.1-.11-.2-.21-.31-.31l-.21-1.91c0-.07-.03-.14-.07-.2-.04-.06-.1-.11-.16-.15-.63-.36-1.3-.64-2.01-.83-.07-.02-.15-.02-.22,0-.07.02-.14.05-.2.09l-1.5,1.2c-.15,0-.3,0-.44,0L6.28.1c-.06-.05-.12-.08-.2-.09s-.15-.01-.22,0c-.7.19-1.38.47-2.01.83-.06.04-.12.09-.16.15-.04.06-.07.13-.07.2l-.21,1.91c-.11.1-.21.2-.31.31l-1.91.22c-.07,0-.14.03-.2.07-.06.04-.11.1-.15.16C.48,4.5.2,5.17.02,5.88c-.02.07-.02.14,0,.21.02.07.05.14.09.19l1.2,1.5c0,.15,0,.3,0,.44L.1,9.72c-.05.06-.08.12-.09.2-.02.07-.01.15,0,.22.19.7.47,1.38.83,2.01.04.06.09.12.15.16.06.04.13.07.2.07l1.91.21c.1.11.2.21.31.31l.22,1.9c0,.07.03.14.07.2.04.06.1.11.16.15.63.36,1.3.64,2.01.83.07.02.14.02.22,0,.07-.02.14-.05.2-.09l1.49-1.19c.15,0,.3,0,.44,0l1.5,1.2c.08.07.19.1.29.1.04,0,.08,0,.12-.02.7-.19,1.38-.47,2.01-.83.06-.04.12-.09.16-.15.04-.06.07-.13.07-.2l.21-1.91c.11-.1.21-.2.31-.31l1.91-.21c.07,0,.14-.03.2-.07.06-.04.11-.1.15-.16.36-.63.64-1.3.83-2.01.02-.07.02-.14,0-.22-.01-.07-.05-.14-.09-.2l-1.2-1.5ZM14.46,11.46l-1.84.2c-.12.01-.22.07-.3.16-.15.17-.32.34-.49.49-.09.08-.14.18-.16.3l-.2,1.84c-.43.23-.88.42-1.35.56l-1.45-1.16c-.08-.07-.19-.1-.29-.1h-.03c-.23.01-.46.01-.7,0-.12,0-.23.03-.32.1l-1.45,1.16c-.47-.14-.92-.33-1.35-.56l-.2-1.84c-.01-.12-.07-.22-.16-.3-.17-.15-.34-.32-.49-.49-.08-.09-.18-.14-.3-.16l-1.84-.2c-.23-.43-.42-.88-.56-1.35l1.16-1.45c.07-.09.11-.2.1-.32-.01-.23-.01-.46,0-.7,0-.12-.03-.23-.1-.32l-1.16-1.45c.14-.47.33-.92.56-1.35l1.84-.2c.12-.01.22-.07.3-.16.15-.17.32-.34.49-.49.09-.08.14-.18.16-.3l.2-1.84c.43-.23.88-.42,1.35-.56l1.45,1.16c.09.07.2.11.32.1.23-.01.46-.01.7,0,.12,0,.23-.03.32-.1l1.45-1.16c.47.14.92.33,1.35.56l.2,1.84c.01.12.07.22.16.3.17.15.34.32.49.49.08.09.18.14.3.16l1.84.2c.23.43.42.88.56,1.35l-1.16,1.45c-.07.09-.11.2-.1.32.01.23.01.46,0,.7,0,.12.03.23.1.32l1.16,1.45c-.14.47-.33.92-.56,1.35h0Z"></path>
  </g>
</symbol><symbol viewBox="0 0 14.08 16" id="fp-bpmn-data-object">
  <g>
    <path fill="#3d4347" d="M7.85,0H0v16h14.08V6.23L7.85,0ZM7.9,1.47l4.71,4.71h-4.71V1.47ZM13.08,15H1V1l5.9.02v6.16h6.16l.02,7.82Z"></path>
  </g>
</symbol><symbol viewBox="0 0 16.13 16.13" id="fp-bpmn-data-store">
  <g>
    <path fill=" #3d4347" d="M8.07,0C4.16,0,0,1.2,0,3.43v9.28c0,2.23,4.16,3.43,8.07,3.43s8.07-1.2,8.07-3.43V3.43c0-2.23-4.16-3.43-8.07-3.43ZM8.07,1c4.04,0,7.07,1.28,7.07,2.43s-3.02,2.43-7.07,2.43S1,4.58,1,3.43s3.02-2.43,7.07-2.43ZM8.07,15.13c-4.04,0-7.07-1.28-7.07-2.43v-2.92c1.47,1.12,4.32,1.72,7.07,1.72s5.6-.59,7.07-1.72v2.92c0,1.15-3.02,2.43-7.07,2.43ZM8.07,10.5c-4.04,0-7.07-1.28-7.07-2.43v-2.92c1.47,1.12,4.32,1.72,7.07,1.72s5.6-.59,7.07-1.72v2.92c0,1.15-3.02,2.43-7.07,2.43Z"></path>
  </g>
</symbol><symbol viewBox="0 0 14.08 16" id="fp-bpmn-docusign">
  <g>
    <path fill="#dd2714" class="cls-1" d="M7.85,0H0v16h14.08V6.23L7.85,0ZM7.9,1.47l4.71,4.71h-4.71V1.47ZM13.08,15H1V1l5.9.02v6.16h6.16l.02,7.82Z"></path>
    <rect fill="#dd2714" x="3.3" y="9.01" width="7.43" height="1"></rect>
    <rect fill="#dd2714" x="3.3" y="11.33" width="7.43" height="1"></rect>
  </g>
</symbol><symbol viewBox="0 0 28 28" id="fp-bpmn-end-event">
    <circle cx="14" cy="14" r="13" fill="#D11401" fill-opacity="0.25" stroke="#ED4756" stroke-width="2"></circle>
</symbol><symbol viewBox="0 0 14.64 16" id="fp-bpmn-flowgenie">
  <g>
    <path fill="#3d4347" d="M8.57,3.67c.14.18.26.29.32.43.34.77.71,1.53,1,2.31.41,1.12,1.19,1.8,2.29,2.21.75.28,1.47.62,2.2.96.12.05.25.2.26.31.01.08-.14.23-.26.28-.83.38-1.66.75-2.51,1.1-.94.38-1.57,1.04-1.94,1.98-.33.82-.69,1.62-1.05,2.43-.06.13-.22.22-.33.32-.1-.11-.23-.2-.29-.32-.4-.89-.78-1.79-1.17-2.68-.33-.76-.89-1.29-1.65-1.62-.92-.4-1.84-.81-2.75-1.23-.11-.05-.24-.17-.24-.27,0-.09.13-.23.23-.27.81-.37,1.61-.76,2.44-1.08,1.07-.4,1.73-1.15,2.14-2.19.31-.79.67-1.56,1.02-2.34.05-.11.16-.19.29-.34Z"></path>
    <path fill="#3d4347" d="M2.87,2.01c.06.09.12.14.15.2.16.36.33.71.47,1.08.19.52.56.84,1.07,1.03.35.13.69.29,1.03.45.05.03.12.09.12.15,0,.04-.07.11-.12.13-.39.18-.78.35-1.17.51-.44.18-.74.49-.91.93-.15.38-.32.76-.49,1.14-.03.06-.1.1-.15.15-.05-.05-.11-.09-.14-.15-.19-.42-.36-.84-.55-1.25-.16-.36-.42-.6-.77-.76-.43-.19-.86-.38-1.29-.58-.05-.02-.11-.08-.11-.12,0-.04.06-.11.11-.13.38-.17.76-.36,1.14-.5.5-.19.81-.54,1-1.02.14-.37.31-.73.48-1.09.02-.05.07-.09.13-.16Z"></path>
    <path fill="#3d4347" d="M6.99,0s.06.07.08.11c.09.19.18.38.25.58.1.28.3.45.57.55.19.07.37.16.55.24.03.01.06.05.07.08,0,.02-.04.06-.06.07-.21.09-.41.19-.63.27-.23.1-.39.26-.49.49-.08.2-.17.4-.26.61-.01.03-.05.05-.08.08-.02-.03-.06-.05-.07-.08-.1-.22-.19-.45-.29-.67-.08-.19-.22-.32-.41-.4-.23-.1-.46-.2-.69-.31-.03-.01-.06-.04-.06-.07,0-.02.03-.06.06-.07.2-.09.4-.19.61-.27.27-.1.43-.29.53-.55.08-.2.17-.39.25-.58.01-.03.04-.05.07-.08Z"></path>
  </g>
</symbol><symbol viewBox="0 0 17.97 17.97" id="fp-bpmn-gateway">
  <g>
    <path fill="#3d4347" d="M8.99,1.41l7.57,7.57-7.57,7.57L1.41,8.99,8.99,1.41M8.99,0L0,8.99l8.99,8.99,8.99-8.99L8.99,0h0Z"></path>
  </g>
</symbol><symbol viewBox="0 0 29 29" id="fp-bpmn-generic-gateway">
    <path d="M13.5841 1.9168C14.121 1.37983 14.9916 1.37983 15.5286 1.9168L27.1959 13.5841C27.7329 14.121 27.7329 14.9916 27.1959 15.5286L15.5286 27.1959C14.9916 27.7328 14.121 27.7328 13.5841 27.1959L1.91682 15.5286C1.37984 14.9916 1.37984 14.121 1.91682 13.5841L13.5841 1.9168ZM0.944544 12.6118C-0.129398 13.6857 -0.129398 15.4269 0.944544 16.5009L12.6118 28.1681C13.6857 29.2421 15.427 29.2421 16.5009 28.1681L28.1682 16.5009C29.2421 15.4269 29.2421 13.6857 28.1682 12.6118L16.5009 0.94453C15.427 -0.129412 13.6857 -0.129412 12.6118 0.94453L0.944544 12.6118Z"></path>
</symbol><symbol viewBox="0 0 16 15.92" id="fp-bpmn-idp">
  <g>
    <path fill="#3d4347" d="M16,12.91l-1.98-1.71v-7.03h-7.07v-2L4.79,0H0v7.86h2.02v3.47L.02,12.91h0s-.02,0-.02,0v3h16v-3h0,0ZM5.88,2.5h-1.43v-1.43l1.43,1.43ZM1,6.86V1h2.44v2.5h2.51v3.36H1ZM6.96,7.86v-2.69h6.07v5.64H3.02v-2.95h3.93ZM3.04,11.8h10.17l1.28,1.11H1.63l1.4-1.11ZM15,14.92H1v-1h14v1Z"></path>
  </g>
</symbol><symbol viewBox="0 0 16 16" id="fp-bpmn-intermediate-event">
  <g>
    <g>
      <g>
        <circle fill=" #ffeaca" cx="8" cy="8" r="7.5"></circle>
        <path fill="#ffb01f" d="M8,1c3.86,0,7,3.14,7,7s-3.14,7-7,7S1,11.86,1,8,4.14,1,8,1M8,0C3.58,0,0,3.58,0,8s3.58,8,8,8,8-3.58,8-8S12.42,0,8,0h0Z"></path>
      </g>
      <path fill="#ffb01f" d="M8,3.82c2.3,0,4.18,1.87,4.18,4.18s-1.87,4.18-4.18,4.18-4.18-1.87-4.18-4.18,1.87-4.18,4.18-4.18M8,2.82c-2.86,0-5.18,2.32-5.18,5.18s2.32,5.18,5.18,5.18,5.18-2.32,5.18-5.18-2.32-5.18-5.18-5.18h0Z"></path>
    </g>
  </g>
</symbol><symbol viewBox="0 0 16 16" id="fp-bpmn-pool">
  <g>
    <path fill="#3d4347" d="M13,0h-7.03s-1,0-1,0h0s-1.97,0-1.97,0C1.34,0,0,1.34,0,3v10c0,1.66,1.34,3,3,3h10c1.66,0,3-1.34,3-3V3C16,1.34,14.66,0,13,0ZM1,13V3c0-1.1.9-2,2-2h1.97v14h-1.97c-1.1,0-2-.9-2-2ZM15,13c0,1.1-.9,2-2,2h-7.03V1h7.03c1.1,0,2,.9,2,2v10Z"></path>
  </g>
</symbol><symbol viewBox="0 0 15.93 10.24" id="fp-bpmn-send-email">
  <g>
    <path fill="#3d4347" d="M13.93,1c.55,0,1,.45,1,1v6.24c0,.55-.45,1-1,1h-7.76c-.55,0-1-.45-1-1V2c0-.55.45-1,1-1h7.76M13.93,0h-7.76c-1.1,0-2,.9-2,2v6.24c0,1.1.9,2,2,2h7.76c1.1,0,2-.9,2-2V2c0-1.1-.9-2-2-2h0Z"></path>
    <polygon fill="#3d4347" points="10.05 6.38 4.41 2.54 4.97 1.72 10.05 5.18 15.14 1.72 15.7 2.54 10.05 6.38"></polygon>
    <rect fill="#3d4347" y="2.63" width="3" height="1"></rect>
    <rect fill="#3d4347" x="1" y="4.56" width="2" height="1"></rect>
    <rect fill="#3d4347" x="2" y="6.49" width="1" height="1"></rect>
  </g>
</symbol><symbol viewBox="0 0 26 26" id="fp-bpmn-start-event">
    <circle cx="13" cy="13" r="12.5" fill="#00875A" fill-opacity="0.25" stroke="#00875A"></circle>
</symbol><symbol viewBox="0 0 24 24" id="fp-bpmn-task">
    <path d="M1.5 3C1.5 2.17157 2.17157 1.5 3 1.5L21 1.5C21.8284 1.5 22.5 2.17157 22.5 3L22.5 21C22.5 21.8284 21.8284 22.5 21 22.5L3 22.5C2.17157 22.5 1.5 21.8284 1.5 21L1.5 3ZM-1.31134e-07 21C-5.87108e-08 22.6569 1.34315 24 3 24L21 24C22.6569 24 24 22.6569 24 21L24 3C24 1.34314 22.6569 -9.90363e-07 21 -9.17939e-07L3 -1.31134e-07C1.34314 -5.87108e-08 -9.90363e-07 1.34315 -9.17939e-07 3L-1.31134e-07 21Z"></path>
</symbol><symbol viewBox="0 0 16 16" id="fp-bpmn-text-annotation">
  <g>
    <path fill="#3d4347" d="M13,1c1.1,0,2,.9,2,2v10c0,1.1-.9,2-2,2H3c-1.1,0-2-.9-2-2V3c0-1.1.9-2,2-2h10M13,0H3C1.34,0,0,1.34,0,3v10c0,1.66,1.34,3,3,3h10c1.66,0,3-1.34,3-3V3c0-1.66-1.34-3-3-3h0Z"></path>
    <path fill="#3d4347" d="M5.63,3.79c-.03.33.22.61.54.64h.15c.62.06,1.09.58,1.09,1.19v1.78h-.59c-.33,0-.59.27-.59.59s.27.59.59.59h.59v1.78c0,.62-.47,1.13-1.09,1.18h-.15c-.33.04-.57.32-.54.65.03.33.31.57.64.54h.15c.63-.06,1.19-.36,1.58-.81.39.45.95.74,1.58.8h.15c.33.04.61-.2.64-.53s-.22-.61-.54-.64h-.15c-.62-.06-1.09-.58-1.09-1.2v-1.78h.59c.33,0,.59-.27.59-.59s-.27-.59-.59-.59h-.59v-1.78c0-.62.47-1.13,1.09-1.18h.15c.33-.04.57-.33.54-.65s-.31-.57-.64-.54h-.15c-.63.06-1.19.36-1.58.81-.39-.45-.95-.74-1.58-.8h-.15c-.33-.04-.61.2-.64.53Z"></path>
  </g>
</symbol><symbol viewBox="0 0 32 32" id="fp-brush-icon">
<path d="M11.6473 9.56592C13.8487 11.7473 16.01 13.8486 18.1513 15.9699C19.4922 17.3108 20.833 18.6716 22.1739 20.0124C22.394 20.2326 22.434 20.3927 22.2739 20.6929C20.3927 24.055 18.5316 27.4171 16.6704 30.7792C15.8699 32.2001 14.429 32.4002 13.2683 31.2595C11.147 29.1782 9.04565 27.0769 6.94434 24.9956C6.62414 24.6754 6.5641 24.3752 6.70419 23.9749C7.02439 23.0944 7.32458 22.2138 7.56473 21.3133C7.64478 21.0331 7.64478 20.6328 7.50469 20.4527C7.38461 20.3126 6.94434 20.3527 6.68418 20.4327C5.80363 20.6929 4.94309 21.0131 4.08255 21.3133C3.6823 21.4534 3.40213 21.4133 3.10194 21.0931C2.28142 20.2526 1.4409 19.4521 0.640399 18.6116C-0.320201 17.6109 -0.200126 16.15 1.02064 15.4496C4.56285 13.4483 8.14509 11.4871 11.6473 9.56592Z" fill="currentColor"></path>
<path d="M23.7949 17.9113C20.5328 14.6493 17.3308 11.4473 14.0688 8.18526C14.8693 7.765 15.6498 7.2847 16.4903 6.94449C17.531 6.52422 18.5316 6.72435 19.3921 7.4448C19.7924 7.78501 20.1726 8.16525 20.5729 8.54549C20.7129 8.4054 20.833 8.30534 20.9531 8.18526C23.4346 5.70371 25.9162 3.24217 28.3777 0.76062C28.878 0.240295 29.4784 -0.0598931 30.1989 0.0201569C31.7198 0.180257 32.4803 1.8413 31.6398 3.14211C31.5197 3.34223 31.3396 3.50233 31.1795 3.66243C28.7179 6.12397 26.2564 8.58551 23.7949 11.047C23.6748 11.1671 23.5747 11.2872 23.3346 11.5474C23.7348 11.8876 24.1551 12.1678 24.4953 12.528C25.2758 13.3685 25.4959 14.3891 25.0757 15.4498C24.7355 16.3103 24.2351 17.1108 23.7949 17.9113Z" fill="currentColor"></path>
</symbol><symbol viewBox="0 0 16 16" id="fp-close">
    <g id="icons w24">
        <path id="Vector" d="M13.6449 4.04935C14.1134 3.58082 14.1134 2.81993 13.6449 2.3514C13.1763 1.88287 12.4154 1.88287 11.9469 2.3514L8 6.30204L4.04935 2.35515C3.58082 1.88662 2.81993 1.88662 2.3514 2.35515C1.88287 2.82368 1.88287 3.58457 2.3514 4.0531L6.30204 8L2.35515 11.9506C1.88662 12.4192 1.88662 13.1801 2.35515 13.6486C2.82368 14.1171 3.58457 14.1171 4.0531 13.6486L8 9.69795L11.9506 13.6449C12.4192 14.1134 13.1801 14.1134 13.6486 13.6449C14.1171 13.1763 14.1171 12.4154 13.6486 11.9469L9.69795 8L13.6449 4.04935Z" fill="#6A7888"></path>
    </g>
</symbol><symbol viewBox="0 0 18 14" id="fp-cloud-download-outline">
<path d="M9 5.125V10.75M9 10.75L6.5 8.25M9 10.75L11.5 8.25M4.625 13.25C2.55393 13.25 0.875 11.5711 0.875 9.5C0.875 7.83921 1.95463 6.43058 3.45033 5.93766C3.40087 5.67433 3.375 5.40269 3.375 5.125C3.375 2.70875 5.33375 0.75 7.75 0.75C9.77602 0.75 11.4804 2.12717 11.9781 3.99646C12.2212 3.91761 12.4806 3.875 12.75 3.875C14.1307 3.875 15.25 4.99429 15.25 6.375C15.25 6.66512 15.2006 6.94369 15.1097 7.20277C16.2878 7.65038 17.125 8.78992 17.125 10.125C17.125 11.8509 15.7259 13.25 14 13.25H4.625Z" stroke="currentColor" stroke-width="1.25" stroke-linecap="round" stroke-linejoin="round"></path>
</symbol><symbol viewBox="0 0 20 20" id="fp-copy">
    <path d="M5.15342 8.51357L3.12963 10.5374C1.40118 12.2658 1.40118 15.0682 3.12963 16.7966C4.85808 18.5251 7.66045 18.5251 9.3889 16.7966L12.0864 14.0991C13.8149 12.3707 13.8149 9.56828 12.0864 7.83984C11.7206 7.47405 11.3068 7.18567 10.8651 6.97471L10 7.83984C9.91004 7.9298 9.83412 8.02849 9.77225 8.13318C10.2376 8.26653 10.6766 8.51648 11.0432 8.88305C12.1955 10.0353 12.1955 11.9036 11.0432 13.0559L8.34569 15.7534C7.19339 16.9057 5.32514 16.9057 4.17284 15.7534C3.02055 14.6011 3.02055 12.7329 4.17284 11.5806L5.34219 10.4112C5.17667 9.7914 5.11375 9.14989 5.15342 8.51357Z" fill="currentColor"></path>
    <path d="M7.91358 5.75341C6.18513 7.48186 6.18513 10.2842 7.91358 12.0127C8.27936 12.3785 8.69325 12.6668 9.13487 12.8778L10.2791 11.7336C9.79472 11.6042 9.33682 11.3495 8.95679 10.9695C7.80449 9.81717 7.80449 7.94893 8.95679 6.79663L11.6543 4.0991C12.8066 2.9468 14.6749 2.9468 15.8272 4.0991C16.9795 5.2514 16.9795 7.11965 15.8272 8.27195L14.6578 9.4413C14.8233 10.0611 14.8862 10.7026 14.8466 11.3389L16.8704 9.31516C18.5988 7.58671 18.5988 4.78434 16.8704 3.05589C15.1419 1.32744 12.3395 1.32744 10.6111 3.05589L7.91358 5.75341Z" fill="currentColor"></path>
</symbol><symbol viewBox="0 0 18 16" id="fp-desktop">
    <path d="M16.5 0H1.5C0.671875 0 0 0.671875 0 1.5V11.5C0 12.3281 0.671875 13 1.5 13H7.5L7 14.5H4.75C4.33437 14.5 4 14.8344 4 15.25C4 15.6656 4.33437 16 4.75 16H13.25C13.6656 16 14 15.6656 14 15.25C14 14.8344 13.6656 14.5 13.25 14.5H11L10.5 13H16.5C17.3281 13 18 12.3281 18 11.5V1.5C18 0.671875 17.3281 0 16.5 0ZM16 11H2V2H16V11Z" fill="currentColor"></path>
</symbol><symbol viewBox="0 0 16 16" id="fp-eye">
    <path d="M10.5 8a2.5 2.5 0 1 1-5 0 2.5 2.5 0 0 1 5 0"></path>
    <path d="M0 8s3-5.5 8-5.5S16 8 16 8s-3 5.5-8 5.5S0 8 0 8m8 3.5a3.5 3.5 0 1 0 0-7 3.5 3.5 0 0 0 0 7"></path>
</symbol><symbol viewBox="0 0 17 16" id="fp-fullscreen">
    <path d="M11.25 0H15.75C16.1656 0 16.5 0.334375 16.5 0.75V5.25C16.5 5.55312 16.3188 5.82812 16.0375 5.94375C15.7563 6.05937 15.4344 5.99687 15.2188 5.78125L14 4.5625L11.2812 7.28125C10.9875 7.575 10.5125 7.575 10.2219 7.28125L9.22188 6.28125C8.92813 5.9875 8.92813 5.5125 9.22188 5.22188L11.9406 2.50312L10.7188 1.28125C10.5031 1.06562 10.4406 0.74375 10.5562 0.4625C10.6719 0.18125 10.9469 0 11.25 0ZM5.75 16H1.25C0.834375 16 0.5 15.6656 0.5 15.25V10.75C0.5 10.4469 0.68125 10.1719 0.9625 10.0562C1.24375 9.94062 1.56562 10.0031 1.78125 10.2188L3 11.4375L5.71875 8.71875C6.0125 8.425 6.4875 8.425 6.77812 8.71875L7.77812 9.71875C8.07187 10.0125 8.07187 10.4875 7.77812 10.7781L5.05937 13.4969L6.27812 14.7156C6.49375 14.9312 6.55625 15.2531 6.44063 15.5344C6.325 15.8156 6.05 15.9969 5.74687 15.9969L5.75 16Z" fill="currentColor"></path>
</symbol><symbol viewBox="0 0 16 15.6" id="fp-github">
  <g>
    <path fill="#3d4347" d="M5.35,12.56c0,.06-.07.12-.17.12-.11,0-.18-.04-.18-.12,0-.06.07-.12.17-.12.1,0,.18.04.18.12ZM4.35,12.42c-.02.06.04.14.14.16.08.03.18,0,.2-.06s-.04-.14-.14-.17c-.08-.02-.18,0-.2.07h0ZM5.77,12.36c-.09.02-.16.08-.15.16,0,.06.09.11.19.08.09-.02.16-.08.15-.15,0-.06-.1-.1-.19-.09ZM7.9,0C3.42,0,0,3.4,0,7.87c0,3.58,2.25,6.64,5.47,7.72.41.07.56-.18.56-.39s0-1.3,0-1.98c0,0-2.26.48-2.73-.96,0,0-.37-.94-.9-1.18,0,0-.74-.51.05-.5,0,0,.8.06,1.25.83.71,1.25,1.89.89,2.35.67.07-.52.28-.87.52-1.09-1.8-.2-3.62-.46-3.62-3.56,0-.89.25-1.33.76-1.9-.08-.21-.36-1.07.08-2.19.67-.21,2.23.87,2.23.87.65-.18,1.34-.27,2.03-.27s1.38.09,2.03.27c0,0,1.55-1.08,2.23-.87.44,1.12.17,1.98.08,2.19.52.57.83,1.02.83,1.9,0,3.11-1.9,3.36-3.7,3.56.3.25.55.74.55,1.5,0,1.09,0,2.43,0,2.7,0,.21.15.46.56.39,3.23-1.07,5.41-4.13,5.41-7.71C16,3.4,12.37,0,7.9,0ZM3.14,11.13s-.03.11.02.17c.05.05.13.07.17.03.04-.03.03-.11-.02-.17-.05-.05-.13-.07-.17-.03ZM2.79,10.86s0,.09.07.13c.05.03.12.02.14-.02.02-.04,0-.09-.07-.13-.06-.02-.12,0-.14.02ZM3.83,12.01c-.05.04-.03.14.04.2.07.07.17.08.21.03.04-.04.02-.14-.04-.2-.07-.07-.17-.08-.21-.03ZM3.46,11.54c-.05.03-.05.12,0,.19s.14.11.18.07c.05-.04.05-.13,0-.2-.05-.07-.13-.11-.18-.06h0Z"></path>
  </g>
</symbol><symbol viewBox="0 0 16 16" id="fp-map">
    <path fill-rule="evenodd" d="M16 .5a.5.5 0 0 0-.598-.49L10.5.99 5.598.01a.5.5 0 0 0-.196 0l-5 1A.5.5 0 0 0 0 1.5v14a.5.5 0 0 0 .598.49l4.902-.98 4.902.98a.5.5 0 0 0 .196 0l5-1A.5.5 0 0 0 16 14.5zM5 14.09V1.11l.5-.1.5.1v12.98l-.402-.08a.5.5 0 0 0-.196 0zm5 .8V1.91l.402.08a.5.5 0 0 0 .196 0L11 1.91v12.98l-.5.1z"></path>
</symbol><symbol viewBox="0 0 16 16" id="fp-mobile">
    <path d="M11.5 0H4.5C3.67188 0 3 0.671875 3 1.5V14.5C3 15.3281 3.67188 16 4.5 16H11.5C12.3281 16 13 15.3281 13 14.5V1.5C13 0.671875 12.3281 0 11.5 0ZM8 15C7.44688 15 7 14.5531 7 14C7 13.4469 7.44688 13 8 13C8.55312 13 9 13.4469 9 14C9 14.5531 8.55312 15 8 15ZM11.5 11.625C11.5 11.8313 11.3313 12 11.125 12H4.875C4.66875 12 4.5 11.8313 4.5 11.625V1.875C4.5 1.66875 4.66875 1.5 4.875 1.5H11.125C11.3313 1.5 11.5 1.66875 11.5 1.875V11.625Z" fill="currentColor"></path>
</symbol><symbol viewBox="0 0 15.18 16.04" id="fp-pdf">
  <g>
    <g>
      <polygon fill="#3d4347" points="1.4 1 7.83 1 13.47 6.64 13.47 8.97 14.47 8.97 14.47 6.23 8.25 0 .4 0 .4 8.97 1.4 8.97 1.4 1"></polygon>
      <polygon fill="#3d4347" points="13.46 7.17 7.3 7.17 7.3 1.02 8.3 1.02 8.3 6.17 13.46 6.17 13.46 7.17"></polygon>
    </g>
    <g>
      <path fill="#3d4347" d="M15.18,10.76c0,.18-.07.34-.19.47s-.29.19-.47.19h-1.98v1.32h1.32c.18,0,.34.07.47.19s.19.29.19.47-.07.34-.19.47-.29.19-.47.19h-1.32v1.32c0,.18-.07.34-.19.47s-.29.19-.47.19-.34-.07-.47-.19-.19-.29-.19-.47v-4.62c0-.18.07-.34.19-.47s.29-.19.47-.19h2.64c.18,0,.34.07.47.19s.19.29.19.47Z"></path>
      <path fill="#3d4347" d="M3.61,10.78c-.43-.43-1.02-.68-1.63-.68H.66c-.18,0-.34.07-.47.19-.12.12-.19.29-.19.47v4.62c0,.18.07.34.19.47.12.12.29.19.47.19s.34-.07.47-.19c.12-.12.19-.29.19-.47v-.66h.66c.61,0,1.2-.24,1.63-.68s.68-1.02.68-1.63-.24-1.2-.68-1.63ZM2.68,13.11c-.19.19-.44.29-.7.29h-.66v-1.98h.66c.26,0,.51.1.7.29.19.19.29.44.29.7s-.1.51-.29.7Z"></path>
      <path fill="#3d4347" d="M9.36,10.97c-.56-.56-1.31-.87-2.1-.87h-1.32c-.18,0-.34.07-.47.19-.12.12-.19.29-.19.47v4.62c0,.18.07.34.19.47.12.12.29.19.47.19h1.32c.79,0,1.54-.31,2.1-.87.56-.56.87-1.31.87-2.1s-.31-1.54-.87-2.1ZM8.43,14.24c-.31.31-.73.48-1.17.48h-.66v-3.3h.66c.44,0,.86.17,1.17.48.31.31.48.73.48,1.17s-.17.86-.48,1.17Z"></path>
    </g>
  </g>
</symbol><symbol viewBox="0 0 18 18" id="fp-play-outline">
<path d="M16.5 9C16.5 13.1421 13.1421 16.5 9 16.5C4.85786 16.5 1.5 13.1421 1.5 9C1.5 4.85786 4.85786 1.5 9 1.5C13.1421 1.5 16.5 4.85786 16.5 9Z" stroke="currentColor" stroke-width="1.25" stroke-linecap="round" stroke-linejoin="round"></path>
<path d="M12.2583 8.72682C12.4726 8.84589 12.4726 9.15411 12.2583 9.27317L7.58926 11.8671C7.38097 11.9828 7.125 11.8322 7.125 11.5939V6.4061C7.125 6.16782 7.38097 6.01721 7.58926 6.13292L12.2583 8.72682Z" stroke="currentColor" stroke-width="1.25" stroke-linecap="round" stroke-linejoin="round"></path>
</symbol><symbol viewBox="0 0 14 15" id="fp-plus">
    <path xmlns="http://www.w3.org/2000/svg" d="M7.00021 0.770294C7.4736 0.770294 7.85735 1.15405 7.85735 1.62744V6.77029H13.0002C13.4736 6.77029 13.8574 7.15405 13.8574 7.62744C13.8574 8.10082 13.4736 8.48458 13.0002 8.48458H7.85735V13.6274C7.85735 14.1008 7.4736 14.4846 7.00021 14.4846C6.52682 14.4846 6.14307 14.1008 6.14307 13.6274V8.48458H1.00021C0.526822 8.48458 0.143066 8.10082 0.143066 7.62744C0.143066 7.15405 0.526822 6.77029 1.00021 6.77029H6.14307V1.62744C6.14307 1.15405 6.52682 0.770294 7.00021 0.770294Z"></path>
</symbol><symbol viewBox="0 0 18 16" id="fp-screen-outline">
<path d="M1.5 4.875V13C1.5 14.0355 2.33947 14.875 3.375 14.875H14.625C15.6605 14.875 16.5 14.0355 16.5 13V4.875M1.5 4.875V3C1.5 1.96447 2.33947 1.125 3.375 1.125H14.625C15.6605 1.125 16.5 1.96447 16.5 3V4.875M1.5 4.875H16.5M3.375 3H3.38125V3.00625H3.375V3ZM5.25 3H5.25625V3.00625H5.25V3ZM7.125 3H7.13125V3.00625H7.125V3Z" stroke="currentColor" stroke-width="1.25" stroke-linecap="round" stroke-linejoin="round"></path>
</symbol><symbol viewBox="0 0 20 16" id="fp-script-outline">
<path d="M14.375 3.625L18.75 8L14.375 12.375M5.625 12.375L1.25 8L5.625 3.625M11.875 1.125L8.125 14.875" stroke="currentColor" stroke-width="1.25" stroke-linecap="round" stroke-linejoin="round"></path>
</symbol><symbol viewBox="0 0 16 16" id="fp-slack-notification">
  <g>
    <g>
      <path fill="#3d4347" d="M5.89,8.43c-.92,0-1.68.76-1.68,1.68v4.21c0,.92.76,1.68,1.68,1.68s1.68-.76,1.68-1.68v-4.21c0-.92-.76-1.68-1.68-1.68Z"></path>
      <path fill="#3d4347" d="M16,5.89c0-.49-.22-.93-.56-1.24-.53.75-1.4,1.24-2.39,1.24-.14,0-.28-.02-.41-.04,0,.01,0,.03,0,.04v1.68h1.68c.92,0,1.68-.76,1.68-1.68Z"></path>
      <path fill="#3d4347" d="M10.11,7.57c.92,0,1.68-.76,1.68-1.68v-.29c-.99-.47-1.68-1.48-1.68-2.65,0-.99.49-1.86,1.24-2.39-.31-.34-.75-.55-1.24-.55-.92,0-1.68.76-1.68,1.68v4.21c0,.92.76,1.68,1.68,1.68Z"></path>
      <path fill="#3d4347" d="M0,10.11c0,.92.75,1.68,1.68,1.68s1.68-.76,1.68-1.68h0v-1.68h-1.68c-.92,0-1.68.76-1.68,1.68Z"></path>
      <path fill="#3d4347" d="M10.11,12.64h-1.68v1.68c0,.92.76,1.68,1.68,1.68s1.68-.76,1.68-1.68-.76-1.68-1.68-1.68Z"></path>
      <path fill="#3d4347" d="M5.89,4.21H1.68c-.92,0-1.68.76-1.68,1.68s.76,1.68,1.68,1.68h4.21c.92,0,1.68-.76,1.68-1.68s-.76-1.68-1.68-1.68Z"></path>
      <path fill="#3d4347" d="M14.31,8.43h-4.21c-.92,0-1.68.76-1.68,1.68s.76,1.68,1.68,1.68h4.21c.92,0,1.68-.76,1.68-1.68s-.76-1.68-1.68-1.68Z"></path>
      <path fill="#3d4347" d="M5.89,0c-.92,0-1.68.75-1.68,1.68s.76,1.68,1.68,1.68h0s1.68,0,1.68,0v-1.68c0-.92-.76-1.68-1.68-1.68Z"></path>
    </g>
    <circle fill="#dd2714" cx="13.05" cy="2.94" r="1.97"></circle>
  </g>
</symbol><symbol viewBox="0 0 16 16" id="fp-slack">
  <g>
    <path fill="#3d4347" d="M3.36,10.11c0,.92-.76,1.68-1.68,1.68s-1.68-.76-1.68-1.68.76-1.68,1.68-1.68h1.68v1.68h0ZM4.21,10.11c0-.92.76-1.68,1.68-1.68s1.68.76,1.68,1.68v4.21c0,.92-.76,1.68-1.68,1.68s-1.68-.76-1.68-1.68c0,0,0-4.21,0-4.21ZM5.89,3.36c-.92,0-1.68-.76-1.68-1.68s.76-1.68,1.68-1.68,1.68.76,1.68,1.68v1.68h-1.68ZM5.89,4.21c.92,0,1.68.76,1.68,1.68s-.76,1.68-1.68,1.68H1.68c-.92,0-1.68-.76-1.68-1.68s.76-1.68,1.68-1.68h4.21ZM12.64,5.89c0-.92.76-1.68,1.68-1.68s1.68.76,1.68,1.68-.76,1.68-1.68,1.68h-1.68v-1.68ZM11.79,5.89c0,.92-.76,1.68-1.68,1.68s-1.68-.76-1.68-1.68V1.68c0-.92.76-1.68,1.68-1.68s1.68.76,1.68,1.68v4.21ZM10.11,12.64c.92,0,1.68.76,1.68,1.68s-.76,1.68-1.68,1.68-1.68-.76-1.68-1.68v-1.68h1.68ZM10.11,11.79c-.92,0-1.68-.76-1.68-1.68s.76-1.68,1.68-1.68h4.21c.92,0,1.68.76,1.68,1.68s-.76,1.68-1.68,1.68h-4.21Z"></path>
  </g>
</symbol><symbol viewBox="8 8 20 17" id="fp-slideshow">
    <path d="M25.5923 8H9.65479C8.7749 8 8.06104 8.71387 8.06104 9.59375V20.2188C8.06104 21.0986 8.7749 21.8125 9.65479 21.8125H16.0298L15.4985 23.4062H13.1079C12.6663 23.4062 12.311 23.7615 12.311 24.2031C12.311 24.6447 12.6663 25 13.1079 25H22.1392C22.5808 25 22.936 24.6447 22.936 24.2031C22.936 23.7615 22.5808 23.4062 22.1392 23.4062H19.7485L19.2173 21.8125H25.5923C26.4722 21.8125 27.186 21.0986 27.186 20.2188V9.59375C27.186 8.71387 26.4722 8 25.5923 8ZM25.061 19.6875H10.186V10.125H25.061V19.6875Z" fill="currentColor"></path>

    <path d="M19.9481 14.1889L16.1318 11.7212C15.8217 11.5208 15.3468 11.7153 15.3468 12.2109V17.1452C15.3468 17.5898 15.7881 17.8578 16.1318 17.6349L19.9481 15.1684C20.2885 14.949 20.2896 14.4083 19.9481 14.1889Z" fill="currentColor"></path>
</symbol><symbol viewBox="0 0 16 12.24" id="fp-table">
  <g>
    <path fill="#3d4347" d="M15.53,0H.47c-.12,0-.24.05-.33.14-.09.09-.14.21-.14.33v10.67c0,.29.12.57.32.78.21.21.49.32.78.32h13.8c.29,0,.57-.12.78-.32.21-.21.32-.49.32-.78V.47c0-.12-.05-.24-.14-.33-.09-.09-.21-.14-.33-.14ZM.94,4.71h3.45v2.82H.94v-2.82ZM5.33,4.71h9.73v2.82H5.33v-2.82ZM15.06.94v2.82H.94V.94h14.12ZM.94,11.14v-2.67h3.45v2.82H1.1s-.08-.02-.11-.05-.05-.07-.05-.11ZM14.9,11.29H5.33v-2.82h9.73v2.67s-.02.08-.05.11-.07.05-.11.05Z"></path>
  </g>
</symbol></svg>