<svg width="48" height="48" viewBox="0 0 48 48" fill="none" xmlns="http://www.w3.org/2000/svg">
<path d="M6 10C6 7.791 7.791 6 10 6H38C40.209 6 42 7.791 42 10V38C42 40.209 40.209 42 38 42H10C7.791 42 6 40.209 6 38V10Z" fill="#BBDEFB"/>
<path d="M34 26H36V29H34V32H31V29H25L25.013 26.34L30.214 16.033V16H34V26ZM28 26H31V20L28 26ZM23 21C23 21 23 16 18 16C13 16 13 21 13 21H16C16 20.088 16.347 19 18 19C18.529 19 19.935 19 20 21C20 22.72 17.673 25.393 16.106 26.653L16 26.737L13 29.334V29.618V32H23V29H17.974C17.974 29 23 25 23 21Z" fill="#1976D2"/>
</svg>
