<svg width="48" height="48" viewBox="0 0 48 48" fill="none" xmlns="http://www.w3.org/2000/svg">
<path d="M24 3.59998L24.8 5.59998L26.9 5.69998L25.3 7.09998L25.8 9.09998L24 7.99998L22.2 9.09998L22.7 7.09998L21.1 5.69998L23.2 5.59998L24 3.59998ZM32 5.99998L32.7 7.79998L34.6 7.89998L33.2 9.09998L33.6 11L32 9.99998L30.4 11L30.8 9.09998L29.4 7.89998L31.3 7.79998L32 5.99998ZM16 5.99998L16.7 7.79998L18.6 7.89998L17.2 9.09998L17.6 11L16 9.99998L14.4 11L14.8 9.09998L13.4 7.89998L15.3 7.79998L16 5.99998Z" fill="#2E7D32"/>
<path d="M42 41H6V17L24 11L42 17V41Z" fill="#4CAF50"/>
<path d="M31 22H37V27H31V22ZM21 22H27V27H21V22ZM11 22H17V27H11V22ZM31 30H37V35H31V30ZM11 30H17V35H11V30ZM20 30H28V43H20V30ZM24 9L6 15V17L24 11L42 17V15L24 9Z" fill="#94CF96"/>
<path d="M6 41H42V43H6V41Z" fill="#94CF96"/>
</svg>
