<svg width="48" height="48" viewBox="0 0 48 48" fill="none" xmlns="http://www.w3.org/2000/svg">
<path d="M24 35C22.9391 35 21.9217 35.4214 21.1716 36.1716C20.4214 36.9217 20 37.9391 20 39C20 40.0609 20.4214 41.0783 21.1716 41.8284C21.9217 42.5786 22.9391 43 24 43C25.0609 43 26.0783 42.5786 26.8284 41.8284C27.5786 41.0783 28 40.0609 28 39C28 37.9391 27.5786 36.9217 26.8284 36.1716C26.0783 35.4214 25.0609 35 24 35ZM26 11C26 12.104 25.104 13 24 13C22.896 13 22 12.104 22 11V7C22 5.896 22.896 5 24 5C25.104 5 26 5.896 26 7V11Z" fill="#DB8509"/>
<path d="M27.887 39.91C27.955 39.617 28 39.313 28 39C28 38.617 27.93 38.254 27.828 37.903C26.609 37.965 25.333 38 24 38C22.667 38 21.391 37.965 20.171 37.904C20.071 38.255 20 38.618 20 39C20 39.313 20.045 39.616 20.113 39.909C21.584 39.979 22.926 40 24 40C25.074 40 26.416 39.979 27.887 39.91Z" fill="#BC6F0A"/>
<path d="M41 34C41 36.21 33.94 38 24 38C14.06 38 7 36.21 7 34C7 33.86 7.03 33.72 7.09 33.58C7.25 33.13 7.62 32.55 8.13 31.88C8.49 31.39 8.92 30.86 9.38 30.29C11.74 27.46 15 23.92 15 22V17C15 12.03 19.03 8 24 8C28.97 8 33 12.03 33 17V22C33 23.92 36.26 27.46 38.62 30.29C39.08 30.86 39.51 31.39 39.87 31.88C40.38 32.55 40.75 33.13 40.91 33.58C40.97 33.72 41 33.86 41 34Z" fill="#FFC107"/>
<path d="M39.87 31.88C36.27 33.98 31.06 35 24 35C16.94 35 11.73 33.98 8.13 31.88C8.49 31.39 8.92 30.86 9.38 30.29C14.28 33 21.53 33 24 33C26.47 33 33.72 33 38.62 30.29C39.08 30.86 39.51 31.39 39.87 31.88Z" fill="#FFE082"/>
<path d="M38.01 11.64L36.34 12.92C36.77 14.2 37 15.58 37 17C37 18.42 36.77 19.8 36.34 21.08L38.01 22.36C38.65 20.7 39 18.89 39 17C39 15.11 38.65 13.3 38.01 11.64ZM11.66 12.92L9.99 11.64C9.35 13.3 9 15.11 9 17C9 18.89 9.35 20.7 9.99 22.36L11.66 21.08C11.23 19.8 11 18.42 11 17C11 15.58 11.23 14.2 11.66 12.92ZM42.91 7.89L41.29 9.13C42.39 11.53 43 14.19 43 17C43 19.81 42.39 22.47 41.29 24.87L42.91 26.11C44.25 23.35 45 20.26 45 17C45 13.74 44.25 10.65 42.91 7.89ZM6.71 9.13L5.09 7.89C3.75 10.65 3 13.74 3 17C3 20.26 3.75 23.35 5.09 26.11L6.71 24.87C5.61 22.47 5 19.81 5 17C5 14.19 5.61 11.53 6.71 9.13Z" fill="#FFAB00"/>
</svg>
