<svg width="48" height="48" viewBox="0 0 48 48" fill="none" xmlns="http://www.w3.org/2000/svg">
<path d="M27 5C27 5 24 8.1 24 14L27 5Z" fill="white"/>
<path d="M25 14H23C23 7.69999 26.2 4.39999 26.3 4.29999L27.7 5.69999C27.7 5.69999 25 8.59999 25 14Z" fill="#795548"/>
<path d="M24 14C24 14 22.7 1.50001 10 6.00001C11.4 19 24 14 24 14Z" fill="#4CAF50"/>
<path d="M6.3 25.9C4.4 15.9 11.9 5.8 24 14C36.1 5.8 43.6 15.8 41.7 25.9C39.9 36 29.6 45.5 24 38.7C18.4 45.5 8.1 36 6.3 25.9Z" fill="#D32F2F"/>
<path d="M32.4 13C30.2 13 27.8 13.9 25.1 15.7L24 16.5V35.7L25.5 37.5C26.4 38.5 27.3 39 28.5 39C32.5 39 38.4 33 39.7 25.6C40.4 21.8 39.6 17.9 37.6 15.5C36.3 13.9 34.5 13 32.4 13Z" fill="#FFF3E0"/>
<path d="M31.5 26.2C31.5 27.3 30.6 28.2 29.5 28.2C28.4 28.2 27.5 27.3 27.5 26.2C27.5 25.1 29.5 22.8 29.5 22.8C29.5 22.8 31.5 25.1 31.5 26.2Z" fill="#5D4037"/>
<path d="M24 14C11.9 5.80002 4.4 15.9 6.3 25.9C8.1 36 18.4 45.5 24 38.7V14Z" fill="#F44336"/>
</svg>
