<svg width="48" height="48" viewBox="0 0 48 48" fill="none" xmlns="http://www.w3.org/2000/svg">
<path d="M29.76 37.057C29.894 37.013 29.989 37.01 30.002 37.009C30.005 37.009 30.008 37.007 30.01 37.007C30.01 37.009 30.011 37.009 30.115 37.009L41.047 36.025C41.047 36.025 39.012 34.543 38.263 33.712C38.259 33.71 38.256 33.706 38.252 33.702C38.248 33.696 38.241 33.692 38.237 33.687L38.238 33.681C38.071 33.5 37.967 33.262 37.971 32.997C37.974 32.655 38.157 32.371 38.42 32.193L38.422 32.169L43 27.999L38.023 26.999C37.469 26.994 37.027 26.542 37.033 25.989C37.033 25.79 38.045 22.999 38.045 22.999L33.05 23.999C32.498 23.993 32.053 23.499 32.06 22.946C32.061 22.733 32.144 22.548 32.258 22.386L32.249 22.367L40 12.018C40 12.018 37 12.001 35.99 12C35.048 11.999 35 11 35 11V4L29.295 8.84C29.295 8.84 28.597 9.317 27.955 8.627C27.315 7.936 24.955 5 24.955 5L20.921 17.81L20.902 17.813C20.844 18.002 20.75 18.183 20.582 18.314C20.149 18.659 19.521 18.585 19.177 18.152L17 13C17 13 15.221 16.683 15.062 16.806C14.629 17.15 13.906 16.952 13.658 16.644L10 13L9.119 18.926L9.101 18.942C9.122 19.258 9.011 19.579 8.743 19.792C8.536 19.958 8.285 20.021 8.041 19.999L8.036 20.005C8.029 20.004 8.022 20 8.016 20C8.011 20 5 20 5 20L10.799 28.597L10.802 28.598C10.804 28.6 10.803 28.604 10.805 28.606C10.812 28.616 10.869 28.692 10.918 28.826C11.095 29.232 11.003 29.716 10.64 30.005C9.855 30.625 8 32 8 32L19 35L29 41C29 41 28.991 39 29 37.999C29.004 37.536 29.331 37.165 29.76 37.057Z" fill="#FF9800"/>
<path d="M31 27C30.604 28.6 30.163 29.816 29.956 31.025C29.851 31.625 29.791 32.205 29.8 32.84C29.797 33.481 29.896 34.162 30 35C29.224 34.664 28.634 34.015 28.275 33.227C27.92 32.438 27.83 31.517 27.988 30.672C28.142 29.822 28.517 29.047 29.028 28.412C29.551 27.786 30.187 27.254 31 27ZM14 28C15.574 27.396 16.829 26.969 17.721 26.262C18.166 25.914 18.546 25.506 18.906 24.96C19.274 24.418 19.58 23.755 20 23C20.416 23.757 20.536 24.623 20.38 25.506C20.222 26.382 19.705 27.268 18.943 27.844C18.188 28.428 17.269 28.697 16.41 28.711C15.548 28.71 14.704 28.516 14 28Z" fill="#EF6C00"/>
<path d="M14 21C15.018 22.525 16.164 23.846 17.44 25.029C18.073 25.623 18.743 26.173 19.419 26.709C20.1 27.221 20.829 27.744 21.504 28.16L21.438 28.124C22.111 28.446 22.785 28.766 23.442 29.117L23.367 29.084C24.156 29.39 25.156 29.603 26.086 29.79C27.038 29.96 28.008 30.068 28.987 30.142C29.966 30.193 30.96 30.229 31.96 30.19C32.961 30.164 33.969 30.084 35 30C34.079 30.472 33.1 30.822 32.095 31.099C31.088 31.364 30.051 31.557 29.002 31.632C27.952 31.725 26.891 31.711 25.832 31.603C24.755 31.5 23.755 31.302 22.634 30.916L22.624 30.912L22.559 30.883C21.883 30.568 21.224 30.221 20.563 29.876L20.512 29.85L20.496 29.84C19.648 29.299 18.944 28.727 18.254 28.076C17.563 27.443 16.932 26.746 16.361 26.003C15.787 25.265 15.289 24.465 14.88 23.627C14.472 22.793 14.161 21.9 14 21Z" fill="#EF6C00"/>
<path d="M8.744 41.198C11.176 39.632 23 34 31 12C25 35 13.054 41.669 10.416 43.69C9.757 44.194 8.814 44.069 8.31 43.411C7.806 42.753 7.93 41.809 8.589 41.305C8.62 41.281 8.652 41.258 8.686 41.237L8.744 41.198Z" fill="#E65100"/>
</svg>
