<svg width="48" height="48" viewBox="0 0 48 48" fill="none" xmlns="http://www.w3.org/2000/svg">
<path d="M13 17H35V35H13V17Z" fill="#4CAF50"/>
<path d="M2 39H46V41H2V39ZM34 19H39V35H34V19ZM9 19H14V35H9V19ZM43 17H5V14L24 5L43 14V17ZM6 35H42V37H6V35Z" fill="#D7CCC8"/>
<path d="M32 17H41V19H32V17ZM7 17H16V19H7V17ZM4 37H44V39H4V37ZM24 10C23.4696 10 22.9609 10.2107 22.5858 10.5858C22.2107 10.9609 22 11.4696 22 12C22 12.5304 22.2107 13.0391 22.5858 13.4142C22.9609 13.7893 23.4696 14 24 14C24.5304 14 25.0391 13.7893 25.4142 13.4142C25.7893 13.0391 26 12.5304 26 12C26 11.4696 25.7893 10.9609 25.4142 10.5858C25.0391 10.2107 24.5304 10 24 10Z" fill="#BCAAA4"/>
<path d="M16 17H32V19H16V17Z" fill="#43A047"/>
<path d="M27.116 27.565C26.83 27.275 26.478 27.016 26.062 26.787C25.646 26.556 25.115 26.311 24.469 26.052C23.823 25.792 23.382 25.539 23.144 25.29C22.906 25.041 22.787 24.712 22.787 24.301C22.787 23.858 22.909 23.512 23.152 23.26C23.395 23.008 23.738 22.882 24.181 22.882C24.629 22.882 24.987 23.044 25.254 23.365C25.522 23.687 25.656 24.352 25.656 25.001H28C28 23.947 27.73 22.91 27.189 22.249C26.66 21.6 25.928 21.207 25 21.065V19H23V21.138C22.329 21.3 21.768 21.601 21.321 22.048C20.737 22.632 20.446 23.379 20.446 24.294C20.446 24.824 20.531 25.28 20.701 25.663C20.871 26.047 21.109 26.38 21.414 26.664C21.719 26.948 22.086 27.197 22.513 27.417C22.94 27.636 23.448 27.857 24.037 28.078C24.626 28.3 25.043 28.541 25.289 28.804C25.535 29.067 25.658 29.418 25.658 29.861C25.658 30.287 25.52 30.627 25.245 30.879C24.969 31.131 24.594 31.255 24.118 31.255C23.545 31.255 23.106 31.084 22.8 30.742C22.495 30.398 22.342 29.643 22.342 29H20C20 30.108 20.304 31.257 20.911 31.924C21.425 32.489 22.129 32.845 23 33.017V35H25V33.056C25.894 32.928 26.613 32.609 27.141 32.082C27.714 31.509 28 30.764 28 29.845C28 29.353 27.924 28.923 27.773 28.552C27.622 28.183 27.403 27.853 27.116 27.565Z" fill="#E8F5E9"/>
</svg>
