<svg width="48" height="48" viewBox="0 0 48 48" fill="none" xmlns="http://www.w3.org/2000/svg">
<path d="M42 24C42 26.209 40.209 28 38 28H15C12.791 28 11 26.209 11 24V10C11 7.791 12.791 6 15 6H38C40.209 6 42 7.791 42 10V24Z" fill="#64B5F6"/>
<path d="M11 11H42V15H11V11Z" fill="#37474F"/>
<path d="M13 17H40V21H13V17Z" fill="#E3F2FD"/>
<path d="M37 38C37 40.209 35.209 42 33 42H10C7.791 42 6 40.209 6 38V24C6 21.791 7.791 20 10 20H33C35.209 20 37 21.791 37 24V38Z" fill="#3F51B5"/>
<path d="M34 30C34 30.553 33.553 31 33 31H28C27.447 31 27 30.553 27 30V26C27 25.447 27.447 25 28 25H33C33.553 25 34 25.447 34 26V30ZM8 36H13V38H8V36ZM15 36H20V38H15V36ZM22 36H27V38H22V36ZM29 36H34V38H29V36Z" fill="#FFC107"/>
</svg>
