<svg width="48" height="48" viewBox="0 0 48 48" fill="none" xmlns="http://www.w3.org/2000/svg">
<path d="M3.01599 19.721L11.207 37.967L43.975 23.257L35.784 5.011L3.01599 19.721Z" fill="#81C784"/>
<path d="M3.01599 19.721L11.207 37.967L43.975 23.257L35.784 5.011L3.01599 19.721ZM12.208 35.325L5.65499 20.728L34.782 7.653L41.335 22.25L12.208 35.325Z" fill="#1B5E20"/>
<path d="M32.6886 15.1742C32.2056 15.3911 31.8288 15.7912 31.6409 16.2867C31.4531 16.7822 31.4696 17.3324 31.6869 17.8163C31.9041 18.3002 32.3043 18.6782 32.7994 18.867C33.2945 19.0559 33.844 19.0401 34.3269 18.8233C34.8099 18.6065 35.1867 18.2063 35.3746 17.7108C35.5624 17.2153 35.5459 16.6651 35.3286 16.1812C35.1114 15.6973 34.7112 15.3194 34.2161 15.1305C33.721 14.9417 33.1715 14.9574 32.6886 15.1742Z" fill="#1B5E20"/>
<path d="M21.0372 16.0162C19.5888 16.6664 18.4587 17.8666 17.8953 19.3529C17.332 20.8391 17.3816 22.4897 18.0333 23.9414C18.685 25.3932 19.8853 26.5272 21.3703 27.094C22.8552 27.6608 24.5031 27.6139 25.9515 26.9638C27.3998 26.3136 28.53 25.1134 29.0933 23.6271C29.6567 22.1409 29.607 20.4903 28.9554 19.0386C28.3037 17.5868 27.1033 16.4528 25.6184 15.886C24.1335 15.3192 22.4855 15.366 21.0372 16.0162Z" fill="#1B5E20"/>
<path d="M5.29047 18.6998C4.68703 18.9707 4.21617 19.4708 3.98148 20.0901C3.74678 20.7093 3.76748 21.397 4.03901 22.0019C4.31054 22.6068 4.81067 23.0793 5.42937 23.3155C6.04807 23.5517 6.73466 23.5322 7.3381 23.2613C7.94154 22.9905 8.4124 22.4904 8.64709 21.8711C8.88178 21.2518 8.86109 20.5641 8.58956 19.9592C8.31803 19.3543 7.8179 18.8818 7.1992 18.6456C6.5805 18.4095 5.89391 18.429 5.29047 18.6998Z" fill="#1B5E20"/>
<path d="M33.508 6.03457C32.9046 6.30545 32.4337 6.80553 32.199 7.42479C31.9643 8.04405 31.985 8.73178 32.2566 9.33667C32.5281 9.94156 33.0282 10.4141 33.6469 10.6503C34.2656 10.8864 34.9522 10.8669 35.5557 10.5961C36.1591 10.3252 36.63 9.8251 36.8647 9.20584C37.0993 8.58657 37.0787 7.89885 36.8071 7.29396C36.5356 6.68907 36.0355 6.21656 35.4168 5.98038C34.7981 5.74419 34.1115 5.76369 33.508 6.03457Z" fill="#1B5E20"/>
<path d="M39.6502 19.7177C39.0468 19.9886 38.5759 20.4887 38.3412 21.108C38.1065 21.7272 38.1272 22.415 38.3988 23.0198C38.6703 23.6247 39.1704 24.0972 39.7891 24.3334C40.4078 24.5696 41.0944 24.5501 41.6978 24.2792C42.3013 24.0084 42.7721 23.5083 43.0068 22.889C43.2415 22.2697 43.2208 21.582 42.9493 20.9771C42.6778 20.3722 42.1776 19.8997 41.5589 19.6635C40.9402 19.4274 40.2537 19.4469 39.6502 19.7177Z" fill="#1B5E20"/>
<path d="M8 23H44V43H8V23Z" fill="#A5D6A7"/>
<path d="M8 23V43H44V23H8ZM10 41V25H42V41H10Z" fill="#388E3C"/>
<path d="M15 31C14.4696 31 13.9609 31.2107 13.5858 31.5858C13.2107 31.9609 13 32.4696 13 33C13 33.5304 13.2107 34.0391 13.5858 34.4142C13.9609 34.7893 14.4696 35 15 35C15.5304 35 16.0391 34.7893 16.4142 34.4142C16.7893 34.0391 17 33.5304 17 33C17 32.4696 16.7893 31.9609 16.4142 31.5858C16.0391 31.2107 15.5304 31 15 31ZM37 31C36.4696 31 35.9609 31.2107 35.5858 31.5858C35.2107 31.9609 35 32.4696 35 33C35 33.5304 35.2107 34.0391 35.5858 34.4142C35.9609 34.7893 36.4696 35 37 35C37.5304 35 38.0391 34.7893 38.4142 34.4142C38.7893 34.0391 39 33.5304 39 33C39 32.4696 38.7893 31.9609 38.4142 31.5858C38.0391 31.2107 37.5304 31 37 31ZM26 27C24.4087 27 22.8826 27.6321 21.7574 28.7574C20.6321 29.8826 20 31.4087 20 33C20 34.5913 20.6321 36.1174 21.7574 37.2426C22.8826 38.3679 24.4087 39 26 39C27.5913 39 29.1174 38.3679 30.2426 37.2426C31.3679 36.1174 32 34.5913 32 33C32 31.4087 31.3679 29.8826 30.2426 28.7574C29.1174 27.6321 27.5913 27 26 27ZM43 38.511C42.581 38.194 42.065 38 41.5 38C40.119 38 39 39.119 39 40.5C39 41.066 39.195 41.582 39.512 42.001H43V38.511ZM10.5 37.999C9.935 37.999 9.419 38.194 9 38.51V42H12.488C12.805 41.581 13 41.065 13 40.499C13 39.118 11.881 37.999 10.5 37.999ZM9 27.489C9.419 27.805 9.935 28 10.5 28C11.881 28 13 26.881 13 25.5C13 24.935 12.805 24.419 12.489 24H9V27.489ZM41.5 28C42.065 28 42.581 27.805 43 27.489V24H39.511C39.195 24.419 39 24.935 39 25.5C39 26.881 40.119 28 41.5 28Z" fill="#388E3C"/>
</svg>
