<svg width="48" height="48" viewBox="0 0 48 48" fill="none" xmlns="http://www.w3.org/2000/svg">
<path d="M44 24C44 35.047 35.046 44 24 44C12.954 44 4 35.047 4 24C4 12.953 12.954 4 24 4C35.046 4 44 12.953 44 24Z" fill="#FF754C"/>
<path d="M25 25H31.059C31.433 30.014 34.583 34.385 39.197 36.984C39.633 36.472 40.046 35.943 40.428 35.39C36.289 33.16 33.441 29.365 33.06 25H43.95C43.966 24.668 44 24.338 44 24C44 23.662 43.966 23.332 43.949 23H33.06C33.442 18.635 36.289 14.84 40.428 12.609C40.045 12.056 39.632 11.527 39.197 11.015C34.584 13.615 31.433 17.986 31.059 22.999H25V4.051C24.667 4.035 24.338 4 24 4C23.662 4 23.333 4.035 23 4.051V23H16.941C16.566 17.986 13.417 13.615 8.803 11.016C8.368 11.528 7.954 12.057 7.572 12.61C11.711 14.84 14.557 18.635 14.939 23.001H4.051C4.034 23.332 4 23.662 4 24C4 24.338 4.034 24.668 4.051 25H14.94C14.558 29.365 11.711 33.16 7.573 35.391C7.956 35.944 8.369 36.473 8.804 36.985C13.417 34.385 16.567 30.014 16.942 25.001H23V43.95C23.333 43.965 23.662 44 24 44C24.338 44 24.667 43.965 25 43.949V25Z" fill="#E64A19"/>
</svg>
