<svg width="48" height="48" viewBox="0 0 48 48" fill="none" xmlns="http://www.w3.org/2000/svg">
<path d="M28.3609 12.8609C29.3924 11.8295 30.7913 11.25 32.25 11.25C33.7087 11.25 35.1076 11.8295 36.1391 12.8609C36.7701 13.4919 37.232 14.2605 37.4955 15.0962C38.9399 15.4746 40.1892 16.4298 40.9583 17.7583L44.8083 25L44.7756 25.0064C45.5709 26.3865 46 27.9628 46 29.5833C46 32.0145 45.0342 34.3461 43.3151 36.0651C41.5961 37.7842 39.2645 38.75 36.8333 38.75C34.4022 38.75 32.0706 37.7842 30.3515 36.0651C28.8368 34.5504 27.9069 32.56 27.7072 30.4451C27.5672 30.6377 27.4114 30.8203 27.2409 30.9909C26.3814 31.8504 25.2156 32.3333 24 32.3333C22.7844 32.3333 21.6186 31.8504 20.7591 30.9909C20.5885 30.8204 20.4328 30.6377 20.2928 30.4451C20.0931 32.5601 19.1632 34.5504 17.6485 36.0651C15.9294 37.7842 13.5978 38.75 11.1667 38.75C8.73552 38.75 6.40394 37.7842 4.68485 36.0651C2.96577 34.3461 2 32.0145 2 29.5833C2 27.7094 2.57382 25.8945 3.62416 24.3738L7.22499 17.7583C7.95828 16.4917 9.12787 15.5645 10.487 15.1529C10.7473 14.2953 11.2156 13.5062 11.8609 12.8609C12.8924 11.8295 14.2913 11.25 15.75 11.25C17.2087 11.25 18.6076 11.8295 19.6391 12.8609C20.2247 13.4465 20.6646 14.1505 20.9354 14.9167H27.0646C27.3354 14.1505 27.7753 13.4465 28.3609 12.8609Z" fill="#37474F"/>
<path d="M24 25.9167C23.5138 25.9167 23.0474 26.1098 22.7036 26.4536C22.3598 26.7974 22.1667 27.2638 22.1667 27.75C22.1667 28.2362 22.3598 28.7025 22.7036 29.0464C23.0474 29.3902 23.5138 29.5833 24 29.5833C24.4862 29.5833 24.9525 29.3902 25.2964 29.0464C25.6402 28.7025 25.8333 28.2362 25.8333 27.75C25.8333 27.2638 25.6402 26.7974 25.2964 26.4536C24.9525 26.1098 24.4862 25.9167 24 25.9167Z" fill="#546E7A"/>
<path d="M36.8333 23.1667C35.1315 23.1667 33.4994 23.8427 32.2961 25.0461C31.0927 26.2494 30.4167 27.8815 30.4167 29.5833C30.4167 31.2851 31.0927 32.9172 32.2961 34.1206C33.4994 35.324 35.1315 36 36.8333 36C38.5351 36 40.1672 35.324 41.3706 34.1206C42.574 32.9172 43.25 31.2851 43.25 29.5833C43.25 27.8815 42.574 26.2494 41.3706 25.0461C40.1672 23.8427 38.5351 23.1667 36.8333 23.1667ZM11.1667 23.1667C9.46486 23.1667 7.83276 23.8427 6.6294 25.0461C5.42604 26.2494 4.75 27.8815 4.75 29.5833C4.75 31.2851 5.42604 32.9172 6.6294 34.1206C7.83276 35.324 9.46486 36 11.1667 36C12.8685 36 14.5006 35.324 15.7039 34.1206C16.9073 32.9172 17.5833 31.2851 17.5833 29.5833C17.5833 27.8815 16.9073 26.2494 15.7039 25.0461C14.5006 23.8427 12.8685 23.1667 11.1667 23.1667Z" fill="#AA00FF"/>
<path d="M40.225 27.475C39.3083 26.4667 38.1167 25.9167 36.8333 25.9167C35.55 25.9167 34.2667 26.4667 33.4417 27.475C33.075 27.8417 33.1667 28.3917 33.5333 28.7583C33.9 29.125 34.45 29.0333 34.8167 28.6667C35.9167 27.475 37.8417 27.475 38.9417 28.6667C39.125 28.85 39.4 28.9417 39.5833 28.9417C39.7667 28.9417 40.0417 28.85 40.225 28.6667C40.5917 28.3917 40.5917 27.8417 40.225 27.475ZM11.1667 25.9167C9.88332 25.9167 8.59998 26.4667 7.77498 27.475C7.40832 27.8417 7.49998 28.3917 7.86665 28.7583C8.23332 29.125 8.78332 29.0333 9.14998 28.6667C10.25 27.475 12.175 27.475 13.275 28.6667C13.4583 28.85 13.7333 28.9417 13.9167 28.9417C14.1 28.9417 14.375 28.85 14.5583 28.6667C14.925 28.3 14.925 27.75 14.65 27.3833C13.7333 26.4667 12.45 25.9167 11.1667 25.9167Z" fill="#CE93D8"/>
</svg>
