<svg width="96" height="96" viewBox="0 0 96 96" fill="none" xmlns="http://www.w3.org/2000/svg">
<g id="Blueprint">
<path id="Vector" d="M76 12H16C13.7909 12 12 13.7909 12 16V76C12 78.2091 13.7909 80 16 80H76C78.2091 80 80 78.2091 80 76V16C80 13.7909 78.2091 12 76 12Z" fill="url(#paint0_linear_370_9834)"/>
<path id="Vector_2" d="M80 26V24H68V12H66V24H54V12H52V24H40V12H38V24H26V12H24V24H12V26H24V38H12V40H24V52H12V54H24V66H12V68H24V80H26V68H38V80H40V68H52V80H54V68H66V80H68V68H80V66H68V54H80V52H68V40H80V38H68V26H80ZM38 66H26V54H38V66ZM38 52H26V40H38V52ZM38 38H26V26H38V38ZM52 66H40V54H52V66ZM52 52H40V40H52V52ZM52 38H40V26H52V38ZM66 66H54V54H66V66ZM66 52H54V40H66V52ZM66 38H54V26H66V38Z" fill="#50E6FF"/>
<path id="Vector_3" d="M95.4224 66.8189L66.8189 95.4224C66.4448 95.7924 65.9398 96 65.4137 96C64.8875 96 64.3826 95.7924 64.0085 95.4224L56.5776 87.9915C56.2075 87.6174 56 87.1125 56 86.5863C56 86.0601 56.2075 85.5552 56.5776 85.1811L85.1811 56.5776C85.5552 56.2075 86.0601 56 86.5863 56C87.1125 56 87.6174 56.2075 87.9915 56.5776L95.4224 64.0085C95.7925 64.3826 96 64.8875 96 65.4137C96 65.9398 95.7924 66.4448 95.4224 66.8189Z" fill="url(#paint1_linear_370_9834)"/>
<path id="Vector_4" d="M79.8605 71.1194L79.1605 71.8294C79.1143 71.8769 79.0591 71.9146 78.9982 71.9404C78.9372 71.9661 78.8717 71.9794 78.8055 71.9794C78.7393 71.9794 78.6738 71.9661 78.6128 71.9404C78.5518 71.9146 78.4966 71.8769 78.4505 71.8294L74.1899 67.5689L75.6 66.1588L79.8605 70.4193C79.9079 70.4645 79.9456 70.5188 79.9714 70.579C79.9972 70.6391 80.0105 70.7039 80.0105 70.7694C80.0105 70.8349 79.9972 70.8996 79.9714 70.9598C79.9456 71.02 79.9079 71.0743 79.8605 71.1194Z" fill="url(#paint2_linear_370_9834)"/>
<path id="Vector_5" d="M79.6004 62.1583L81.8707 64.4285C81.9181 64.4737 81.9558 64.528 81.9816 64.5882C82.0074 64.6483 82.0207 64.7131 82.0207 64.7785C82.0207 64.844 82.0074 64.9088 81.9816 64.9689C81.9558 65.0291 81.9181 65.0834 81.8707 65.1285L81.1707 65.8385C81.1246 65.886 81.0694 65.9237 81.0084 65.9495C80.9474 65.9752 80.8819 65.9885 80.8157 65.9885C80.7495 65.9885 80.684 65.9752 80.623 65.9495C80.562 65.9237 80.5069 65.886 80.4607 65.8385L78.1904 63.5682L79.6004 62.1583Z" fill="url(#paint3_linear_370_9834)"/>
<path id="Vector_6" d="M87.8615 63.1184L87.1615 63.8284C87.1154 63.8759 87.0602 63.9136 86.9992 63.9393C86.9382 63.9651 86.8727 63.9784 86.8065 63.9784C86.7403 63.9784 86.6748 63.9651 86.6138 63.9393C86.5528 63.9136 86.4976 63.8759 86.4515 63.8284L82.1908 59.568L83.601 58.1578L87.8615 62.4184C87.9089 62.4635 87.9466 62.5178 87.9724 62.578C87.9982 62.6381 88.0115 62.7029 88.0115 62.7684C88.0115 62.8338 87.9982 62.8986 87.9724 62.9588C87.9466 63.0189 87.9089 63.0733 87.8615 63.1184Z" fill="url(#paint4_linear_370_9834)"/>
<path id="Vector_7" d="M71.8595 79.1204L71.1595 79.8304C71.1133 79.8779 71.0581 79.9156 70.9972 79.9414C70.9362 79.9672 70.8706 79.9804 70.8044 79.9804C70.7382 79.9804 70.6727 79.9672 70.6117 79.9414C70.5507 79.9156 70.4955 79.8779 70.4494 79.8304L66.1888 75.57L67.599 74.1599L71.8595 78.4204C71.9069 78.4655 71.9446 78.5198 71.9704 78.58C71.9962 78.6402 72.0095 78.7049 72.0095 78.7704C72.0095 78.8358 71.9962 78.9006 71.9704 78.9608C71.9446 79.021 71.9069 79.0753 71.8595 79.1204Z" fill="url(#paint5_linear_370_9834)"/>
<path id="Vector_8" d="M73.8697 73.1297L73.1697 73.8398C73.1236 73.8872 73.0684 73.9249 73.0074 73.9507C72.9464 73.9765 72.8809 73.9897 72.8147 73.9897C72.7485 73.9897 72.683 73.9765 72.622 73.9507C72.5611 73.9249 72.5059 73.8872 72.4597 73.8398L70.1895 71.5695L71.5996 70.1593L73.8699 72.4296C73.9173 72.4747 73.955 72.5291 73.9808 72.5892C74.0066 72.6494 74.0199 72.7142 74.0198 72.7797C74.0198 72.8451 74.0065 72.9099 73.9807 72.9701C73.9549 73.0302 73.9172 73.0845 73.8697 73.1297Z" fill="url(#paint6_linear_370_9834)"/>
<path id="Vector_9" d="M63.8585 87.1214L63.1585 87.8314C63.1124 87.8789 63.0572 87.9166 62.9962 87.9423C62.9352 87.9681 62.8697 87.9814 62.8035 87.9814C62.7373 87.9814 62.6718 87.9681 62.6108 87.9423C62.5498 87.9166 62.4947 87.8789 62.4485 87.8314L58.188 83.5709L59.5982 82.1607L63.8587 86.4212C63.9061 86.4664 63.9438 86.5207 63.9696 86.5809C63.9954 86.6411 64.0087 86.7059 64.0087 86.7714C64.0087 86.8368 63.9953 86.9016 63.9695 86.9618C63.9437 87.022 63.9059 87.0763 63.8585 87.1214Z" fill="url(#paint7_linear_370_9834)"/>
<path id="Vector_10" d="M65.8687 81.1306L65.1686 81.8406C65.1225 81.8881 65.0673 81.9258 65.0063 81.9516C64.9454 81.9773 64.8798 81.9906 64.8136 81.9906C64.7474 81.9906 64.6819 81.9773 64.6209 81.9516C64.56 81.9258 64.5048 81.8881 64.4586 81.8406L62.1884 79.5703L63.5985 78.1602L65.8688 80.4304C65.9162 80.4756 65.954 80.5299 65.9798 80.5901C66.0056 80.6503 66.0188 80.7151 66.0188 80.7805C66.0188 80.846 66.0055 80.9108 65.9797 80.971C65.9539 81.0312 65.9162 81.0855 65.8687 81.1306Z" fill="url(#paint8_linear_370_9834)"/>
<g id="Group">
<path id="Vector_11" opacity="0.05" d="M58.92 80H61.76L80 61.76V58.94L58.92 80Z" fill="black"/>
<path id="Vector_12" opacity="0.07" d="M60.36 80H61.76L80 61.76V60.34L60.36 80Z" fill="black"/>
</g>
</g>
<defs>
<linearGradient id="paint0_linear_370_9834" x1="12" y1="46" x2="80" y2="46" gradientUnits="userSpaceOnUse">
<stop stop-color="#3079D6"/>
<stop offset="1" stop-color="#297CD2"/>
</linearGradient>
<linearGradient id="paint1_linear_370_9834" x1="66.024" y1="50.012" x2="83.048" y2="94.362" gradientUnits="userSpaceOnUse">
<stop stop-color="#FFD747"/>
<stop offset="0.482" stop-color="#FFD645"/>
<stop offset="1" stop-color="#F5BC00"/>
</linearGradient>
<linearGradient id="paint2_linear_370_9834" x1="74.894" y1="66.864" x2="79.51" y2="71.48" gradientUnits="userSpaceOnUse">
<stop stop-color="#C77740"/>
<stop offset="1" stop-color="#B0622B"/>
</linearGradient>
<linearGradient id="paint3_linear_370_9834" x1="78.896" y1="62.864" x2="81.52" y2="65.488" gradientUnits="userSpaceOnUse">
<stop stop-color="#C77740"/>
<stop offset="1" stop-color="#B0622B"/>
</linearGradient>
<linearGradient id="paint4_linear_370_9834" x1="82.896" y1="58.862" x2="87.512" y2="63.478" gradientUnits="userSpaceOnUse">
<stop stop-color="#C77740"/>
<stop offset="1" stop-color="#B0622B"/>
</linearGradient>
<linearGradient id="paint5_linear_370_9834" x1="66.894" y1="74.864" x2="71.51" y2="79.48" gradientUnits="userSpaceOnUse">
<stop stop-color="#C77740"/>
<stop offset="1" stop-color="#B0622B"/>
</linearGradient>
<linearGradient id="paint6_linear_370_9834" x1="70.894" y1="70.864" x2="73.52" y2="73.49" gradientUnits="userSpaceOnUse">
<stop stop-color="#C77740"/>
<stop offset="1" stop-color="#B0622B"/>
</linearGradient>
<linearGradient id="paint7_linear_370_9834" x1="58.892" y1="82.866" x2="63.508" y2="87.482" gradientUnits="userSpaceOnUse">
<stop stop-color="#C77740"/>
<stop offset="1" stop-color="#B0622B"/>
</linearGradient>
<linearGradient id="paint8_linear_370_9834" x1="62.894" y1="78.866" x2="65.518" y2="81.49" gradientUnits="userSpaceOnUse">
<stop stop-color="#C77740"/>
<stop offset="1" stop-color="#B0622B"/>
</linearGradient>
</defs>
</svg>
