<svg width="96" height="96" viewBox="0 0 96 96" fill="none" xmlns="http://www.w3.org/2000/svg">
<g id="Boy On The Rocket">
<path id="Vector" d="M66.942 38.698C47.914 29.458 45.016 28 44.558 28C44.126 28 42.59 28 35.802 28H23.016L19.846 16.9C19.238 14.778 17.028 13.538 14.902 14.154C12.778 14.762 11.546 16.974 12.154 19.1L16.154 33.1C16.644 34.816 18.214 36 20 36H32V48L46 47.68V37.164L64.032 46.148C68.832 48.162 72.156 40.87 66.942 38.698Z" fill="url(#paint0_linear_370_9806)"/>
<path id="Vector_2" d="M34.554 56.276L22.97 49.646L11.688 54.71L20.828 61.182L34.554 56.276Z" fill="#199BE2"/>
<path id="Vector_3" d="M41.192 77.914L34.568 89.986L22.32 91.688L26.626 81.35L41.192 77.914Z" fill="#199BE2"/>
<path id="Vector_4" d="M20.782 66.654C15.23 65.392 7.28599 64.826 3.20599 77.528C13.466 86.056 19.864 81.314 23.872 77.268L20.782 66.654Z" fill="url(#paint1_linear_370_9806)"/>
<path id="Vector_5" d="M21.554 69.308C18.062 68.886 13.018 68.914 9.90601 75.578C16.108 79.53 20.38 76.846 23.1 74.616L21.554 69.308Z" fill="url(#paint2_linear_370_9806)"/>
<path id="Vector_6" d="M39 26C43.9706 26 48 21.9706 48 17C48 12.0294 43.9706 8 39 8C34.0294 8 30 12.0294 30 17C30 21.9706 34.0294 26 39 26Z" fill="url(#paint3_linear_370_9806)"/>
<path id="Vector_7" d="M96 50.484C83.47 44.224 68.648 42.746 56.838 47.188L20.828 61.182C15.852 63.298 20.64 82.352 26.628 81.352L64.572 74.082C76.936 71.57 88.71 62.444 96 50.484Z" fill="#35C1F1"/>
<path id="Vector_8" d="M83.778 46.06C82.012 49.414 83.926 58.606 87.99 60.73C91.016 57.666 93.726 54.214 96 50.486C92.096 48.534 87.968 47.048 83.778 46.06Z" fill="#50E6FF"/>
<path id="Vector_9" d="M64.032 46.148L62.016 45.144L65.622 38.056L65.616 38.054C66.064 38.272 66.476 38.472 66.942 38.698C72.156 40.87 68.832 48.162 64.032 46.148ZM12.542 20.454L20.25 18.316L19.846 16.9C19.238 14.778 17.028 13.538 14.902 14.154C12.778 14.762 11.546 16.974 12.154 19.1L12.542 20.454Z" fill="url(#paint4_linear_370_9806)"/>
<path id="Vector_10" d="M47.848 57.686L51.596 48.942C50.034 48.59 47.072 47.898 46.002 47.656L32 48V51.68C32 51.722 32.022 51.758 32.024 51.798C31.938 53.506 32.942 55.142 34.632 55.758L47.848 57.686Z" fill="#0D61A9"/>
<path id="Vector_11" d="M22.858 60.392L20.828 61.18C15.852 63.296 20.64 82.35 26.628 81.35L29.654 80.77C24.542 79.428 20.682 65.746 22.858 60.392Z" fill="#50E6FF"/>
<path id="Vector_12" d="M59.67 52.41C59.232 51.402 58.4 50.618 57.366 50.24C57.366 50.24 54.36 49.564 51.444 48.908L47.698 57.664L50 58L46.426 66.184C45.57 68.18 46.28 70.624 48.226 71.584C48.8 71.866 49.404 72.002 49.998 72.002C51.55 72 53.026 71.092 53.676 69.576L59.676 55.576C60.11 54.564 60.108 53.42 59.67 52.41Z" fill="url(#paint5_linear_370_9806)"/>
<path id="Vector_13" d="M70 64C73.3137 64 76 61.3137 76 58C76 54.6863 73.3137 52 70 52C66.6863 52 64 54.6863 64 58C64 61.3137 66.6863 64 70 64Z" fill="#0078D4"/>
</g>
<defs>
<linearGradient id="paint0_linear_370_9806" x1="29.406" y1="17.83" x2="49.968" y2="47.602" gradientUnits="userSpaceOnUse">
<stop stop-color="#F44F5A"/>
<stop offset="0.443" stop-color="#EE3D4A"/>
<stop offset="1" stop-color="#E52030"/>
</linearGradient>
<linearGradient id="paint1_linear_370_9806" x1="3.20599" y1="74.16" x2="23.872" y2="74.16" gradientUnits="userSpaceOnUse">
<stop stop-color="#F44F5A"/>
<stop offset="0.443" stop-color="#EE3D4A"/>
<stop offset="1" stop-color="#E52030"/>
</linearGradient>
<linearGradient id="paint2_linear_370_9806" x1="9.90601" y1="73.378" x2="23.1" y2="73.378" gradientUnits="userSpaceOnUse">
<stop stop-color="#FFCF7B"/>
<stop offset="0.195" stop-color="#FECD76"/>
<stop offset="0.439" stop-color="#FAC666"/>
<stop offset="0.71" stop-color="#F3BC4D"/>
<stop offset="0.997" stop-color="#EAAD29"/>
<stop offset="1" stop-color="#EAAD29"/>
</linearGradient>
<linearGradient id="paint3_linear_370_9806" x1="37.262" y1="8.002" x2="40.676" y2="25.68" gradientUnits="userSpaceOnUse">
<stop stop-color="#FFCF54"/>
<stop offset="0.261" stop-color="#FDCB4D"/>
<stop offset="0.639" stop-color="#F7C13A"/>
<stop offset="1" stop-color="#F0B421"/>
</linearGradient>
<linearGradient id="paint4_linear_370_9806" x1="12" y1="30.246" x2="69.582" y2="30.246" gradientUnits="userSpaceOnUse">
<stop stop-color="#FFCF54"/>
<stop offset="0.261" stop-color="#FDCB4D"/>
<stop offset="0.639" stop-color="#F7C13A"/>
<stop offset="1" stop-color="#F0B421"/>
</linearGradient>
<linearGradient id="paint5_linear_370_9806" x1="49.678" y1="51.854" x2="54.476" y2="64.934" gradientUnits="userSpaceOnUse">
<stop stop-color="#FFCF54"/>
<stop offset="0.261" stop-color="#FDCB4D"/>
<stop offset="0.639" stop-color="#F7C13A"/>
<stop offset="1" stop-color="#F0B421"/>
</linearGradient>
</defs>
</svg>
