<svg width="48" height="48" viewBox="0 0 48 48" fill="none" xmlns="http://www.w3.org/2000/svg">
<path d="M7.62903 27.344C14.629 41 28.629 42 28.629 42C33.66 37.198 37.163 29.765 37.163 29.765L22.385 21.362C22.385 21.362 16.066 28.691 7.62903 27.344Z" fill="#FFC107"/>
<path d="M8 6C7.46957 6 6.96086 6.21071 6.58579 6.58579C6.21071 6.96086 6 7.46957 6 8C6 8.53043 6.21071 9.03914 6.58579 9.41421C6.96086 9.78929 7.46957 10 8 10C8.53043 10 9.03914 9.78929 9.41421 9.41421C9.78929 9.03914 10 8.53043 10 8C10 7.46957 9.78929 6.96086 9.41421 6.58579C9.03914 6.21071 8.53043 6 8 6ZM14.5 8C14.1022 8 13.7206 8.15804 13.4393 8.43934C13.158 8.72064 13 9.10218 13 9.5C13 9.89782 13.158 10.2794 13.4393 10.5607C13.7206 10.842 14.1022 11 14.5 11C14.8978 11 15.2794 10.842 15.5607 10.5607C15.842 10.2794 16 9.89782 16 9.5C16 9.10218 15.842 8.72064 15.5607 8.43934C15.2794 8.15804 14.8978 8 14.5 8ZM13 13C12.2044 13 11.4413 13.3161 10.8787 13.8787C10.3161 14.4413 10 15.2044 10 16C10 16.7956 10.3161 17.5587 10.8787 18.1213C11.4413 18.6839 12.2044 19 13 19C13.7956 19 14.5587 18.6839 15.1213 18.1213C15.6839 17.5587 16 16.7956 16 16C16 15.2044 15.6839 14.4413 15.1213 13.8787C14.5587 13.3161 13.7956 13 13 13Z" fill="#B3E5FC"/>
<path d="M36.277 21.209L35.796 22.086L29.697 18.617L30.191 17.748L37.482 6.76403C38.217 5.85303 39.59 5.77603 40.629 6.43103C41.696 6.97803 42.265 8.16502 41.877 9.15002L36.277 21.209Z" fill="#3F51B5"/>
<path d="M35.408 20.714L31.06 18.243C27.583 16.265 24.856 17.014 22.879 20.492L22.384 21.361L37.162 29.764L37.656 28.896C39.635 25.42 38.884 22.692 35.408 20.714Z" fill="#3F51B5"/>
<path d="M20.145 23.438C20.431 24.074 20.91 24.996 21.665 25.529C21.687 25.546 21.713 25.553 21.736 25.569L21.737 25.571C22.699 26.249 23.888 26.5 25.288 26.33C25.553 27.044 26.035 27.893 26.921 28.518C26.942 28.533 26.968 28.541 26.991 28.557C26.991 28.557 26.991 28.558 26.993 28.558C27.957 29.238 29.141 29.488 30.542 29.318C30.809 30.033 31.29 30.881 32.175 31.506C32.29 31.588 32.409 31.664 32.53 31.733C32.589 31.767 32.659 31.783 32.719 31.812C33.549 32.252 34.708 32.404 35.817 32.297C36.83 30.665 37.164 29.765 37.164 29.765L22.386 21.362C21.438 22.31 21.454 22.28 20.145 23.438Z" fill="#F57C00"/>
<path d="M14.564 34.255C15.832 34.093 20 33.417 22.709 29.167C19.001 33.417 11.88 32.409 10.489 31.824C11.206 32.739 11.956 33.568 12.725 34.327C13.22 34.359 13.815 34.346 14.564 34.255ZM17.243 37.913C18.44 38.668 19.625 39.288 20.751 39.792C20.756 39.794 20.766 39.798 20.771 39.8C21.089 39.708 21.434 39.594 21.825 39.437C23.145 38.759 26.166 37.167 28.709 33.208C24.791 37.495 19.633 37.889 17.243 37.913Z" fill="#FB8C00"/>
</svg>
