<svg width="48" height="48" viewBox="0 0 48 48" fill="none" xmlns="http://www.w3.org/2000/svg">
<path d="M34.4 44.8L31.4 42.8C31.2 42.6 31 42.4 31 42.1L30.1 35.5L26.4 32.7L27.6 31.1L31.6 34.1C31.8 34.3 32 34.5 32 34.8L32.9 41.4L35.5 43.2L34.4 44.8ZM35.3 33.7L33.3 31.7C33.2 31.6 33.1 31.4 33 31.2L32.2 27.8L27.8 27L28.2 25L33.2 26C33.6 26.1 33.9 26.4 34 26.7L34.9 30.4L36.7 32.2L35.3 33.7ZM29.4 22.9L28.7 21L32.6 19.4L30.2 15.4C30 15.1 30 14.7 30.2 14.3L32.2 11.3L33.9 12.4L32.2 15L34.9 19.5C35.1 19.8 35.1 20.1 35 20.3C34.9 20.6 34.7 20.8 34.4 20.9L29.4 22.9ZM13.6 44.8L12.5 43.1L15.1 41.3L16 34.7C16 34.4 16.2 34.2 16.4 34L20.4 31L21.6 32.6L17.9 35.4L17 42.1C17 42.4 16.8 42.6 16.6 42.8L13.6 44.8ZM12.7 33.7L11.3 32.3L13.1 30.5L14 26.8C14.1 26.4 14.4 26.1 14.8 26.1L19.8 25.1L20.2 27.1L15.8 28L15 31.2C15 31.4 14.9 31.5 14.7 31.7L12.7 33.7ZM18.6 22.9L13.6 20.9C13.3 20.8 13.1 20.6 13 20.3C13 20 13 19.7 13.1 19.5L15.8 15L14.2 12.5L15.9 11.4L17.9 14.4C18.1 14.7 18.1 15.1 17.9 15.5L15.5 19.5L19.4 21.1L18.6 22.9Z" fill="#455A64"/>
<path d="M26 14H24C24 4.2 38.3 3 38.9 3L39 5C38.9 5 26 6 26 14ZM24 14H22C22 6 9.1 5 8.9 5L9 3C9.7 3 24 4.2 24 14Z" fill="#4DB6AC"/>
<path d="M27 20.8C27 22.5 25.6 23.8 24 23.8C22.4 23.8 21 22.4 21 20.8V15C21 13.3 22.4 12 24 12C25.6 12 27 13.4 27 15V20.8Z" fill="#00695C"/>
<path d="M24 42C18 42 17 20 17 20C17 18.9 21 18 24 18C27 18 31 18.9 31 20C31 20 30 42 24 42Z" fill="#26A69A"/>
<path d="M23 41.8C23.3 41.9 23.6 42 24 42C24.4 42 24.7 41.9 25 41.8V18C24.7 18 24.3 18 24 18C23.7 18 23.3 18 23 18V41.8Z" fill="#00897B"/>
</svg>
