<svg width="48" height="48" viewBox="0 0 48 48" fill="none" xmlns="http://www.w3.org/2000/svg">
<path d="M29.3 16.5C29.2 16.3 28.1 14.6 28.1 13C28.1 12 28.5 11.4 28.8 11C29 10.6 29.1 10.4 29.1 10C29.1 9.1 28.5 7.9 28.3 7.5L28 7.1L29.7 6L30 6.5C30.1 6.7 31.1 8.4 31.1 10C31.1 11 30.7 11.6 30.5 12C30.3 12.4 30.1 12.6 30.1 13C30.1 13.9 30.7 15.1 31 15.5L29.3 16.5ZM24.3 16.5C24.2 16.3 23.1 14.6 23.1 13C23.1 12 23.5 11.4 23.8 11C24 10.6 24.1 10.4 24.1 10C24.1 9.1 23.5 7.9 23.3 7.5L23 7.1L24.7 6L25 6.5C25.1 6.7 26.1 8.4 26.1 10C26.1 11 25.7 11.6 25.5 12C25.3 12.4 25.1 12.6 25.1 13C25.1 13.9 25.7 15.1 26 15.5L24.3 16.5ZM19.3 16.5C19.2 16.3 18.1 14.6 18.1 13C18.1 12 18.5 11.4 18.8 11C19 10.6 19.1 10.4 19.1 10C19.1 9.1 18.5 7.9 18.2 7.5L18 7.1L19.7 6L20 6.5C20.1 6.7 21.1 8.4 21.1 10C21.1 11 20.7 11.6 20.5 12C20.3 12.4 20.1 12.6 20.1 13C20.1 13.9 20.7 15.1 21 15.5L19.3 16.5Z" fill="#BCAAA4"/>
<path d="M30 34C29.7 34 29.3 33.8 29.1 33.5C28.8 33 29 32.4 29.4 32.1C29.5 32.1 37.1 27.4 39.7 24.9C41.8 22.9 42 21.8 41.9 21.3C41.8 20.6 41 20.2 40.6 20C39.3 19.5 37.3 21.2 35.7 22.6C35.3 23 34.9 23.3 34.5 23.6C34.1 23.9 33.4 23.9 33.1 23.5C32.8 23.1 32.8 22.4 33.2 22.1C33.6 21.8 33.9 21.5 34.3 21.1C36.3 19.3 38.8 17.1 41.3 18.1C42.7 18.7 43.6 19.7 43.8 20.8C44.1 22.4 43.2 24.2 41 26.2C38.2 28.8 30.7 33.4 30.3 33.6C30.4 34 30.2 34 30 34Z" fill="#F50057"/>
<path d="M17.8 37H30.2C37.2 32.4 38 15 38 15H10C10 15 11.6 32.4 17.8 37Z" fill="#F50057"/>
<path d="M4.29999 36C5.89999 38.8 14.1 42 24 42C33.9 42 42.1 38.8 43.7 36H4.29999Z" fill="#AD1457"/>
</svg>
