<svg width="48" height="48" viewBox="0 0 48 48" fill="none" xmlns="http://www.w3.org/2000/svg">
<path d="M42 41H12C9.8 41 8 39.2 8 37V17C8 14.8 9.8 13 12 13H42C44.2 13 46 14.8 46 17V37C46 39.2 44.2 41 42 41Z" fill="#455A64"/>
<path d="M36 36H6C3.8 36 2 34.2 2 32V12C2 9.8 3.8 8 6 8H36C38.2 8 40 9.8 40 12V32C40 34.2 38.2 36 36 36Z" fill="#78909C"/>
<path d="M26 12C23.3478 12 20.8043 13.0536 18.9289 14.9289C17.0536 16.8043 16 19.3478 16 22C16 24.6522 17.0536 27.1957 18.9289 29.0711C20.8043 30.9464 23.3478 32 26 32C28.6522 32 31.1957 30.9464 33.0711 29.0711C34.9464 27.1957 36 24.6522 36 22C36 19.3478 34.9464 16.8043 33.0711 14.9289C31.1957 13.0536 28.6522 12 26 12Z" fill="#455A64"/>
<path d="M26 15C25.0807 15 24.1705 15.1811 23.3212 15.5328C22.4719 15.8846 21.7003 16.4002 21.0503 17.0503C20.4002 17.7003 19.8846 18.4719 19.5328 19.3212C19.1811 20.1705 19 21.0807 19 22C19 22.9193 19.1811 23.8295 19.5328 24.6788C19.8846 25.5281 20.4002 26.2997 21.0503 26.9497C21.7003 27.5998 22.4719 28.1154 23.3212 28.4672C24.1705 28.8189 25.0807 29 26 29C26.9193 29 27.8295 28.8189 28.6788 28.4672C29.5281 28.1154 30.2997 27.5998 30.9497 26.9497C31.5998 26.2997 32.1154 25.5281 32.4672 24.6788C32.8189 23.8295 33 22.9193 33 22C33 21.0807 32.8189 20.1705 32.4672 19.3212C32.1154 18.4719 31.5998 17.7003 30.9497 17.0503C30.2997 16.4002 29.5281 15.8846 28.6788 15.5328C27.8295 15.1811 26.9193 15 26 15Z" fill="#42A5F5"/>
<path d="M29.7 19.7C28.7 18.6 27.4 18 26 18C24.6 18 23.2 18.6 22.3 19.7C21.9 20.1 22 20.7 22.4 21.1C22.8 21.5 23.4 21.4 23.8 21C25 19.7 27.1 19.7 28.3 21C28.5 21.2 28.8 21.3 29 21.3C29.2 21.3 29.5 21.2 29.7 21C30.1 20.7 30.1 20.1 29.7 19.7Z" fill="#90CAF9"/>
<path d="M6 12H12V15H6V12Z" fill="#ADD8FB"/>
</svg>
