<svg width="96" height="96" viewBox="0 0 96 96" fill="none" xmlns="http://www.w3.org/2000/svg">
<g id="Cash Receipt">
<path id="Vector" d="M82 70H56V44H82C83.104 44 84 44.896 84 46V68C84 69.104 83.104 70 82 70Z" fill="#52BF8D"/>
<path id="Vector_2" d="M78 44H56V70H78V44Z" fill="#107C42"/>
<path id="Vector_3" d="M82 66H56V40H82C83.104 40 84 40.896 84 42V64C84 65.104 83.104 66 82 66Z" fill="#59D19A"/>
<path id="Vector_4" d="M78 40H56V66H78V40Z" fill="#21A366"/>
<path id="Vector_5" d="M32 40.96V10C32 8.896 32.896 8 34 8H36C36 9.104 36.896 10 38 10C39.104 10 40 9.104 40 8H44C44 9.104 44.896 10 46 10C47.104 10 48 9.104 48 8H52C52 9.104 52.896 10 54 10C55.104 10 56 9.104 56 8H60C60 9.104 60.896 10 62 10C63.104 10 64 9.104 64 8H68C68 9.104 68.896 10 70 10C71.104 10 72 9.104 72 8H74C75.104 8 76 8.896 76 10V40.96H32Z" fill="url(#paint0_linear_370_9681)"/>
<path id="Vector_6" d="M82 62H56V36H82C83.104 36 84 36.896 84 38V60C84 61.104 83.104 62 82 62Z" fill="#61E3A7"/>
<path id="Vector_7" d="M78 36H56V62H78V36Z" fill="#33C481"/>
<path id="Vector_8" d="M57 58C61.9706 58 66 53.9706 66 49C66 44.0294 61.9706 40 57 40C52.0294 40 48 44.0294 48 49C48 53.9706 52.0294 58 57 58Z" fill="#61E3A7"/>
<path id="Vector_9" d="M72 58C73.1046 58 74 57.1046 74 56C74 54.8954 73.1046 54 72 54C70.8954 54 70 54.8954 70 56C70 57.1046 70.8954 58 72 58Z" fill="#61E3A7"/>
<path id="Vector_10" d="M60 26H16C13.79 26 12 27.79 12 30V86C12 87.104 12.896 88 14 88H16C16 86.888 16.896 85.986 18 85.986C19.104 85.986 20 86.888 20 88H24C24 86.888 24.896 85.986 26 85.986C27.104 85.986 28 86.888 28 88H32C32 86.888 32.896 85.986 34 85.986C35.104 85.986 36 86.888 36 88H40C40 86.888 40.896 85.986 42 85.986C43.104 85.986 44 86.888 44 88H48C48 86.888 48.896 85.986 50 85.986C51.104 85.986 52 86.888 52 88H54C55.104 88 56 87.104 56 86V32H60V26Z" fill="url(#paint1_linear_370_9681)"/>
<path id="Vector_11" d="M64 36H56V30C56 27.79 57.79 26 60 26C62.21 26 64 27.79 64 30V36Z" fill="url(#paint2_linear_370_9681)"/>
<path id="Vector_12" opacity="0.05" d="M58 36H56V70H58V36Z" fill="black"/>
<path id="Vector_13" opacity="0.07" d="M57 36H56V70H57V36Z" fill="black"/>
<path id="Vector_14" opacity="0.05" d="M33.32 75.05C31.842 75.05 30.64 73.846 30.64 72.368V70.676C28.53 70.346 26.344 69.744 24.64 69.02C23.326 68.468 22.474 67.188 22.474 65.762V62.52C22.474 60.93 23.764 59.638 25.348 59.638C25.804 59.638 26.256 59.75 26.66 59.956C27.746 60.51 30.65 61.806 34 61.806C36.458 61.806 36.458 61.014 36.458 60.678C36.458 59.886 34.55 59.116 32.244 58.262C28.164 56.75 22 54.468 22 47.192C22 41.998 25.212 38.282 30.642 37.11V35.634C30.642 34.156 31.844 32.952 33.322 32.952H34.682C36.16 32.952 37.362 34.156 37.362 35.634V36.886C39.196 37.056 40.706 37.376 41.956 37.862C43.34 38.398 44.166 39.746 44.166 41.472V44.322C44.166 45.906 42.874 47.196 41.286 47.196C40.85 47.196 40.432 47.102 40.04 46.916C38.948 46.4 36.706 45.54 34 45.54C32.37 45.54 31.542 45.938 31.542 46.722C31.542 47.79 33.256 48.532 36.084 49.63C40.27 51.254 46 53.48 46 60.386C46 64.38 43.716 69.344 37.36 70.644V72.368C37.36 73.846 36.158 75.05 34.68 75.05H33.32Z" fill="black"/>
<path id="Vector_15" opacity="0.07" d="M33.32 74.05C32.394 74.05 31.64 73.296 31.64 72.368V69.808C29.376 69.532 26.918 68.904 25.03 68.1C24.084 67.702 23.474 66.784 23.474 65.762V62.52C23.474 61.48 24.314 60.638 25.348 60.638C25.64 60.638 25.936 60.708 26.2 60.846C27.354 61.434 30.43 62.806 34 62.806C37.458 62.806 37.458 61.204 37.458 60.678C37.458 59.23 35.62 58.446 32.59 57.324C28.544 55.826 23 53.774 23 47.194C23 41.376 27.31 38.64 31.642 37.942V35.636C31.642 34.708 32.396 33.954 33.322 33.954H34.682C35.608 33.954 36.362 34.708 36.362 35.636V37.816C38.518 37.946 40.238 38.27 41.594 38.796C42.594 39.182 43.166 40.16 43.166 41.474V44.324C43.166 45.358 42.322 46.198 41.286 46.198C41.002 46.198 40.728 46.138 40.468 46.014C39.296 45.46 36.898 44.54 34 44.54C32.424 44.54 30.542 44.918 30.542 46.722C30.542 48.462 32.51 49.316 35.722 50.562C39.854 52.168 45 54.166 45 60.388C45 64.234 42.714 68.888 36.36 69.806V72.37C36.36 73.298 35.606 74.052 34.68 74.052L33.32 74.05Z" fill="black"/>
<path id="Vector_16" d="M44 60.386C44 50.592 29.542 52.506 29.542 46.72C29.542 43.7 32.938 43.54 34 43.54C36.552 43.54 39.016 44.224 40.894 45.106C41.486 45.384 42.166 44.972 42.166 44.32V41.47C42.166 40.514 41.806 39.948 41.232 39.724C39.944 39.224 38.096 38.858 35.362 38.768V35.632C35.362 35.256 35.058 34.952 34.682 34.952H33.322C32.946 34.952 32.642 35.256 32.642 35.632V38.818C28.398 39.23 24 41.624 24 47.192C24 57.344 38.458 55.33 38.458 60.676C38.458 62.356 37.384 63.804 34 63.804C30.598 63.804 27.472 62.616 25.742 61.732C25.16 61.434 24.474 61.866 24.474 62.52V65.764C24.474 66.386 24.848 66.94 25.422 67.182C27.472 68.052 30.222 68.712 32.64 68.904V72.37C32.64 72.746 32.944 73.05 33.32 73.05H34.68C35.056 73.05 35.36 72.746 35.36 72.37V68.912C41.706 68.384 44 64.136 44 60.386Z" fill="white"/>
</g>
<defs>
<linearGradient id="paint0_linear_370_9681" x1="54" y1="7.234" x2="54" y2="31.49" gradientUnits="userSpaceOnUse">
<stop stop-color="#199AE0"/>
<stop offset="1" stop-color="#0782D8"/>
</linearGradient>
<linearGradient id="paint1_linear_370_9681" x1="36" y1="26.772" x2="36" y2="82.43" gradientUnits="userSpaceOnUse">
<stop stop-color="#7DD8F3"/>
<stop offset="1" stop-color="#45B0D0"/>
</linearGradient>
<linearGradient id="paint2_linear_370_9681" x1="60" y1="44.462" x2="60" y2="29.774" gradientUnits="userSpaceOnUse">
<stop stop-color="#0176D0"/>
<stop offset="1" stop-color="#16538C"/>
</linearGradient>
</defs>
</svg>
