<svg width="96" height="96" viewBox="0 0 96 96" fill="none" xmlns="http://www.w3.org/2000/svg">
<g id="Certification" clip-path="url(#clip0_370_9930)">
<path id="Vector" d="M78 14V82C78 84.21 76.21 86 74 86H22C19.79 86 18 84.21 18 82V14C18 11.79 19.79 10 22 10H74C76.21 10 78 11.79 78 14Z" fill="#50E6FF"/>
<path id="Vector_2" d="M84.552 95.894L78 92.616L71.448 95.892C70.782 96.226 70 95.742 70 94.998V80.616H86V94.998C86 95.742 85.218 96.226 84.552 95.894Z" fill="url(#paint0_linear_370_9930)"/>
<path id="Vector_3" d="M79.632 58.426L81.376 59.404L83.374 59.428C84.536 59.442 85.608 60.06 86.2 61.06L87.22 62.778L88.938 63.798C89.938 64.392 90.556 65.462 90.57 66.624L90.594 68.622L91.572 70.366C92.14 71.38 92.14 72.616 91.572 73.63L90.594 75.374L90.57 77.372C90.556 78.534 89.938 79.606 88.938 80.198L87.22 81.218L86.2 82.94C85.606 83.94 84.536 84.558 83.374 84.572L81.376 84.596L79.632 85.574C78.618 86.142 77.382 86.142 76.368 85.574L74.624 84.596L72.626 84.572C71.464 84.558 70.392 83.94 69.8 82.94L68.78 81.222L67.062 80.202C66.062 79.608 65.444 78.538 65.43 77.376L65.406 75.378L64.428 73.634C63.86 72.62 63.86 71.384 64.428 70.37L65.406 68.626L65.43 66.628C65.444 65.466 66.062 64.394 67.062 63.802L68.78 62.782L69.8 61.064C70.394 60.064 71.464 59.446 72.626 59.432L74.624 59.408L76.368 58.43C77.382 57.858 78.618 57.858 79.632 58.426Z" fill="#D35230"/>
<path id="Vector_4" d="M78 82.7059C83.9128 82.7059 88.706 77.9127 88.706 71.9999C88.706 66.0872 83.9128 61.2939 78 61.2939C72.0872 61.2939 67.294 66.0872 67.294 71.9999C67.294 77.9127 72.0872 82.7059 78 82.7059Z" fill="#FF8F6B"/>
<path id="Vector_5" d="M69 28H27C26.448 28 26 27.552 26 27V23C26 22.448 26.448 22 27 22H69C69.552 22 70 22.448 70 23V27C70 27.552 69.552 28 69 28Z" fill="#057093"/>
<path id="Vector_6" d="M69 42H27C26.448 42 26 41.552 26 41V39C26 38.448 26.448 38 27 38H69C69.552 38 70 38.448 70 39V41C70 41.552 69.552 42 69 42Z" fill="#057093"/>
<path id="Vector_7" d="M47 74H27C26.448 74 26 73.552 26 73V71C26 70.448 26.448 70 27 70H47C47.552 70 48 70.448 48 71V73C48 73.552 47.552 74 47 74Z" fill="#057093"/>
<path id="Vector_8" d="M69 50H27C26.448 50 26 49.552 26 49V47C26 46.448 26.448 46 27 46H69C69.552 46 70 46.448 70 47V49C70 49.552 69.552 50 69 50Z" fill="#057093"/>
<path id="Vector_9" d="M69 58H27C26.448 58 26 57.552 26 57V55C26 54.448 26.448 54 27 54H69C69.552 54 70 54.448 70 55V57C70 57.552 69.552 58 69 58Z" fill="#057093"/>
</g>
<defs>
<linearGradient id="paint0_linear_370_9930" x1="70" y1="88.308" x2="86" y2="88.308" gradientUnits="userSpaceOnUse">
<stop stop-color="#1D59B3"/>
<stop offset="1" stop-color="#195BBC"/>
</linearGradient>
<clipPath id="clip0_370_9930">
<rect width="96" height="96" fill="white"/>
</clipPath>
</defs>
</svg>
