<svg width="48" height="48" viewBox="0 0 48 48" fill="none" xmlns="http://www.w3.org/2000/svg">
<path d="M45 34.197V39.866C45 40.501 44.489 41 43.866 41H8C5.791 41 4 39.209 4 37V19.276C4 18.52 4.426 17.829 5.102 17.489L19.746 10.128C20.294 9.85202 20.939 9.84402 21.495 10.105L27.495 12.924L11 21.449V34.197H45Z" fill="#FFB74D"/>
<path d="M43.866 36H11.134C10.508 36 10 35.492 10 34.866V22H45V34.866C45 35.492 44.492 36 43.866 36Z" fill="#FFECB3"/>
<path d="M44.353 20.845L27.494 12.924C26.834 12.617 26.068 12.646 25.432 13L10.6 20.867C10.227 21.071 9.95 21.595 10 22C10.063 22.511 10.613 23 11.134 23H43.865C44.398 23 44.937 22.522 44.999 22C45.053 21.561 44.75 21.037 44.353 20.845Z" fill="#FFCC80"/>
</svg>
