<svg width="48" height="48" viewBox="0 0 48 48" fill="none" xmlns="http://www.w3.org/2000/svg">
<path d="M24 4C18.6957 4 13.6086 6.10714 9.85786 9.85786C6.10714 13.6086 4 18.6957 4 24C4 29.3043 6.10714 34.3914 9.85786 38.1421C13.6086 41.8929 18.6957 44 24 44C29.3043 44 34.3914 41.8929 38.1421 38.1421C41.8929 34.3914 44 29.3043 44 24C44 18.6957 41.8929 13.6086 38.1421 9.85786C34.3914 6.10714 29.3043 4 24 4Z" fill="#EDE7F6"/>
<path d="M24 44C28.5 44 32.6 42.5 35.9 40C35.3 32.4 27.7 31 27.7 31L24 31.8L20.3 31C20.3 31 12.7 32.4 12.1 40C15.4 42.5 19.5 44 24 44Z" fill="#673AB7"/>
<path d="M24 37C27.1 37 29.6 34.7 29.9 31.7C29 31.3 28.3 31.1 27.9 31C27.9 33.2 26.1 34.9 23.9 34.9C21.7 34.9 19.9 33.1 19.9 31C19.5 31.1 18.8 31.3 17.9 31.7C18.4 34.7 20.9 37 24 37Z" fill="#311B92"/>
<path d="M32 22.5C32 23.3 31.3 24 30.5 24C29.7 24 29 23.3 29 22.5C29 21.7 29.7 21 30.5 21C31.3 21 32 21.7 32 22.5ZM19 22.5C19 21.7 18.3 21 17.5 21C16.7 21 16 21.7 16 22.5C16 23.3 16.7 24 17.5 24C18.3 24 19 23.3 19 22.5Z" fill="#EDBD28"/>
<path d="M24 35C20 35 20 31 20 31V27H28V31C28 31 28 35 24 35Z" fill="#EDB405"/>
<path d="M31 18.7C31 12.8 17 14.9 17 18.7V23.1C17 26.9 20.1 30 24 30C27.9 30 31 26.9 31 23.1V18.7Z" fill="#FFCA28"/>
<path d="M24 11C19.1 11 16 15.3 16 19.2V21L18 23V19L27.2 16L30 19V23L32 21V20.2C32 17 31.2 13.4 27.2 12.6L26.4 11H24Z" fill="#795548"/>
<path d="M26 22C26 21.4 26.4 21 27 21C27.6 21 28 21.4 28 22C28 22.6 27.6 23 27 23C26.4 23 26 22.6 26 22ZM20 22C20 22.6 20.4 23 21 23C21.6 23 22 22.6 22 22C22 21.4 21.6 21 21 21C20.4 21 20 21.4 20 22Z" fill="#784719"/>
</svg>
