<svg width="48" height="48" viewBox="0 0 48 48" fill="none" xmlns="http://www.w3.org/2000/svg">
<path d="M44 24C44 35.047 35.047 44 24 44C12.953 44 4 35.047 4 24C4 12.953 12.953 4 24 4C35.047 4 44 12.953 44 24Z" fill="#EDE7F6"/>
<path d="M18 18.301H30V31.801H18V18.301Z" fill="#3E2723"/>
<path d="M24 44C28.5 44 32.602 42.5 35.898 40C35.301 32.602 28 31 28 31H20C20 31 12.699 32.602 12.102 40C15.398 42.5 19.5 44 24 44Z" fill="#FF1744"/>
<path d="M24 34.801C22.602 34.801 20.5 31 20.5 31V26H27.5V31C27.5 31 25.398 34.801 24 34.801Z" fill="#EDB405"/>
<path d="M31 23C31 26.699 27.699 30 24 30C20.301 30 17 26.699 17 23V17C17 13.301 31 11.301 31 17V23ZM24 36C26.898 36 27.5 31 27.5 31C27.5 31 25.602 34 24 34C22.398 34 20.5 31 20.5 31C20.5 31 21.102 36 24 36Z" fill="#FFCA28"/>
<path d="M26 22C26 21.398 26.398 21 27 21C27.602 21 28 21.398 28 22C28 22.602 27.602 23 27 23C26.398 23 26 22.602 26 22ZM20 22C20 22.602 20.398 23 21 23C21.602 23 22 22.602 22 22C22 21.398 21.602 21 21 21C20.398 21 20 21.398 20 22Z" fill="#784719"/>
<path d="M24 11C19.398 11 13 13.102 13 28L18 31.801V21L27 16L30 20V32L35 27C35 24 34.699 12.5 27 12.5L26 11H24Z" fill="#795548"/>
</svg>
