<svg width="48" height="48" viewBox="0 0 48 48" fill="none" xmlns="http://www.w3.org/2000/svg">
<path d="M36 4H26C26 5.105 25.105 6 24 6C22.895 6 22 5.105 22 4H12C9.789 4 8 5.789 8 8V40C8 42.211 9.789 44 12 44H36C38.211 44 40 42.211 40 40V8C40 5.789 38.211 4 36 4Z" fill="#455A64"/>
<path d="M36 41H12C11.449 41 11 40.551 11 40V8C11 7.449 11.449 7 12 7H36C36.551 7 37 7.449 37 8V40C37 40.551 36.551 41 36 41Z" fill="white"/>
<path d="M26 4C26 5.105 25.105 6 24 6C22.895 6 22 5.105 22 4H15V8C15 9.105 15.895 10 17 10H31C32.105 10 33 9.105 33 8V4H26Z" fill="#90A4AE"/>
<path d="M24 0C21.793 0 20 1.793 20 4C20 6.207 21.793 8 24 8C26.207 8 28 6.207 28 4C28 1.793 26.207 0 24 0ZM24 6C22.895 6 22 5.105 22 4C22 2.895 22.895 2 24 2C25.105 2 26 2.895 26 4C26 5.105 25.105 6 24 6Z" fill="#90A4AE"/>
<path d="M15 15H31V18H15V15ZM15 22H31V24H15V22ZM15 26H27V28H15V26ZM15 30H31V32H15V30ZM15 34H27V36H15V34Z" fill="#03A9F4"/>
</svg>
