<svg width="48" height="48" viewBox="0 0 48 48" fill="none" xmlns="http://www.w3.org/2000/svg">
<path d="M44 24C44 35.044 35.044 44 24 44C12.956 44 4 35.044 4 24C4 12.956 12.956 4 24 4C35.044 4 44 12.956 44 24Z" fill="#00ACC1"/>
<path d="M40 24C40 32.838 32.838 40 24 40C15.162 40 8 32.838 8 24C8 15.162 15.163 8 24 8C32.837 8 40 15.163 40 24Z" fill="#EEEEEE"/>
<path d="M23 11H25V24H23V11Z" fill="black"/>
<path d="M23.1742 24.8261L24.8267 23.1736L31.3265 29.6732L29.674 31.3257L23.1742 24.8261Z" fill="black"/>
<path d="M27 24C27 25.657 25.656 27 24 27C22.343 27 21 25.657 21 24C21 22.343 22.343 21 24 21C25.656 21 27 22.343 27 24Z" fill="black"/>
<path d="M25 24C25 24.551 24.552 25 24 25C23.448 25 23 24.551 23 24C23 23.447 23.448 23 24 23C24.552 23 25 23.447 25 24Z" fill="#00ACC1"/>
</svg>
