<svg width="48" height="48" viewBox="0 0 48 48" fill="none" xmlns="http://www.w3.org/2000/svg">
<path d="M38 19C37.6 19 37.3 19 37 19.1C37 18.9 37 18.7 37 18.5C37 14.9 34.1 12 30.5 12C28.8 12 27.3 12.7 26.1 13.7C24.7 10.9 21.8 9 18.5 9C13.8 9 10 12.8 10 17.5C10 18 10.1 18.6 10.1 19.1C6.7 19.5 4 22.4 4 26C4 29.9 7.1 33 11 33C11.4 33 11.7 33 12.1 32.9C12.5 36.3 15.5 39 19 39C22.1 39 24.8 37 25.7 34.1C26.8 35.2 28.3 36 30 36C33.1 36 35.6 33.7 36 30.6C36.6 30.8 37.3 31 38 31C41.3 31 44 28.3 44 25C44 21.7 41.3 19 38 19Z" fill="#BBDEFB"/>
<path d="M28.275 21.144C28.737 21.994 29 22.967 29 24C29 27.309 26.309 30 23 30C22.27 30 21.574 29.863 20.927 29.623L19.553 31.208C20.599 31.71 21.765 32 23 32C27.411 32 31 28.411 31 24C31 22.358 30.501 20.83 29.649 19.559L28.275 21.144Z" fill="#3F51B5"/>
<path d="M17.458 26.295C17.164 25.587 17 24.813 17 24C17 20.691 19.691 18 23 18C23.667 18 24.306 18.114 24.906 18.315L26.365 16.752C25.34 16.275 24.203 16 23 16C18.589 16 15 19.589 15 24C15 25.399 15.363 26.714 15.997 27.86L17.458 26.295Z" fill="#3F51B5"/>
<path d="M14 28L17.995 29.071L19 25L14 28Z" fill="#3F51B5"/>
<path d="M32 20L28 19L27 23L32 20Z" fill="#3F51B5"/>
</svg>
