<svg width="48" height="48" viewBox="0 0 48 48" fill="none" xmlns="http://www.w3.org/2000/svg">
<path d="M42 42H6V7C6 6.4 6.4 6 7 6H41C41.6 6 42 6.4 42 7V42Z" fill="#CFD8DC"/>
<path d="M8 13H40V40H8V13Z" fill="#263238"/>
<path d="M15.5 26.4L19 28.5V31L13 27.3V25.2L19 22V24.5L15.5 26.4ZM23 33H21L25 19H27L23 33ZM32.5 26.5L29 24.5V22L35 25.4V27.5L29 31V28.5L32.5 26.5Z" fill="#76FF03"/>
<path d="M13.5 8C13.1022 8 12.7206 8.15804 12.4393 8.43934C12.158 8.72064 12 9.10218 12 9.5C12 9.89782 12.158 10.2794 12.4393 10.5607C12.7206 10.842 13.1022 11 13.5 11C13.8978 11 14.2794 10.842 14.5607 10.5607C14.842 10.2794 15 9.89782 15 9.5C15 9.10218 14.842 8.72064 14.5607 8.43934C14.2794 8.15804 13.8978 8 13.5 8ZM9.5 8C9.10218 8 8.72064 8.15804 8.43934 8.43934C8.15804 8.72064 8 9.10218 8 9.5C8 9.89782 8.15804 10.2794 8.43934 10.5607C8.72064 10.842 9.10218 11 9.5 11C9.89782 11 10.2794 10.842 10.5607 10.5607C10.842 10.2794 11 9.89782 11 9.5C11 9.10218 10.842 8.72064 10.5607 8.43934C10.2794 8.15804 9.89782 8 9.5 8Z" fill="#90A4AE"/>
</svg>
