<svg width="48" height="48" viewBox="0 0 48 48" fill="none" xmlns="http://www.w3.org/2000/svg">
<path d="M20 9V35V37C20 37 21 40 31 40C41 40 42 37 42 37V33V9H20Z" fill="#FFC107"/>
<path d="M31 4C29.5555 4 28.1251 4.0776 26.7905 4.22836C25.4559 4.37913 24.2433 4.6001 23.2218 4.87868C22.2004 5.15726 21.3901 5.48797 20.8373 5.85195C20.2845 6.21593 20 6.60603 20 7C20 7.39397 20.2845 7.78407 20.8373 8.14805C21.3901 8.51203 22.2004 8.84274 23.2218 9.12132C24.2433 9.3999 25.4559 9.62087 26.7905 9.77164C28.1251 9.9224 29.5555 10 31 10C32.4445 10 33.8749 9.9224 35.2095 9.77164C36.5441 9.62087 37.7567 9.3999 38.7782 9.12132C39.7996 8.84274 40.6099 8.51203 41.1627 8.14805C41.7155 7.78407 42 7.39397 42 7C42 6.60603 41.7155 6.21593 41.1627 5.85195C40.6099 5.48797 39.7996 5.15726 38.7782 4.87868C37.7567 4.6001 36.5441 4.37913 35.2095 4.22836C33.8749 4.0776 32.4445 4 31 4Z" fill="#FFC107"/>
<path d="M20 13C20 13 21 16 31 16C41 16 42 13 42 13V16C42 16 41 19 31 19C21 19 20 16 20 16V13ZM20 22C20 22 21 25 31 25C41 25 42 22 42 22V19C42 19 41 22 31 22C21 22 20 19 20 19V22ZM20 28C20 28 21 31 31 31C41 31 42 28 42 28V25C42 25 41 28 31 28C21 28 20 25 20 25V28ZM20 34C20 34 21 37 31 37C41 37 42 34 42 34V31C42 31 41 34 31 34C21 34 20 31 20 31V34ZM20 10C20 10 21 13 31 13C41 13 42 10 42 10V7C42 7 41 10 31 10C21 10 20 7 20 7V10Z" fill="#FF9800"/>
<path d="M28 31.899V36V39.001V39.892C28.901 39.958 29.887 40 31 40C31.353 40 31.67 39.988 32 39.98V39.001V36V31.899C32 26.745 25.396 25.75 20.057 25.117L20 29.015C24.615 29.372 28 30.526 28 31.899Z" fill="#F57C00"/>
<path d="M31 31C31.326 31 31.621 30.989 31.925 30.982C31.708 29.712 31.026 28.744 30.059 27.982C22.066 27.818 20.351 25.645 20.057 25.117L20.03 27.017C24.63 27.376 28.001 28.529 28.001 29.899V30.891C28.901 30.958 29.887 31 31 31ZM28 33.892V36V36.892C28.901 36.958 29.887 37 31 37C31.353 37 31.67 36.988 32 36.98V36V33.98C31.67 33.988 31.353 34 31 34C29.887 34 28.901 33.958 28 33.892Z" fill="#D66805"/>
<path d="M6 29H28V38.001H6V29Z" fill="#CFD8DC"/>
<path d="M6 36C6 36 7 39 17 39C27 39 28 36 28 36V40C28 40 27 43 17 43C7 43 6 40 6 40V36ZM17 25C14.0826 25 11.2847 25.3161 9.22183 25.8787C7.15893 26.4413 6 27.2044 6 28C6 28.7956 7.15893 29.5587 9.22183 30.1213C11.2847 30.6839 14.0826 31 17 31C19.9174 31 22.7153 30.6839 24.7782 30.1213C26.8411 29.5587 28 28.7956 28 28C28 27.2044 26.8411 26.4413 24.7782 25.8787C22.7153 25.3161 19.9174 25 17 25Z" fill="#CFD8DC"/>
<path d="M6 28C6 28 7 31 17 31C27 31 28 28 28 28V31C28 31 27 34 17 34C7 34 6 31 6 31V28ZM6 34C6 34 7 37 17 37C27 37 28 34 28 34V37C28 37 27 40 17 40C7 40 6 37 6 37V34Z" fill="#90A4AE"/>
</svg>
