<svg width="48" height="48" viewBox="0 0 48 48" fill="none" xmlns="http://www.w3.org/2000/svg">
<path d="M36.588 17.327C36.19 17.813 35.471 17.893 34.98 17.499L31.425 14.653C30.934 14.26 30.858 13.548 31.255 13.062L33.412 10.419C33.81 9.933 34.529 9.858 35.02 10.251L38.575 13.097C39.066 13.49 39.142 14.202 38.745 14.688L36.588 17.327Z" fill="#546E7A"/>
<path d="M21 7H27V12H21V7Z" fill="#455A64"/>
<path d="M39 28C39 36.286 32.286 43 24 43C15.714 43 9 36.286 9 28C9 19.714 15.714 13 24 13C32.286 13 39 19.714 39 28Z" fill="#EEEEEE"/>
<path d="M24 28V13C19.857 13 16.107 14.679 13.393 17.393L24 28Z" fill="#FF8A65"/>
<path d="M21 28.032C21 29.687 22.346 31.023 24 30.999C25.659 30.985 26.995 29.626 27 27.967C26.995 26.308 25.65 24.981 23.986 25C22.332 25.019 20.991 26.373 21 28.032Z" fill="#263238"/>
<path d="M15.515 19.515L24.707 25.879L21.879 28.707L15.515 19.515Z" fill="#263238"/>
<path d="M23 28.016C23.005 28.566 23.452 29.009 24.005 29C24.553 28.995 25.005 28.543 25 27.989C25 27.439 24.548 26.996 24 27.001C23.447 27.009 22.995 27.462 23 28.016Z" fill="#C62828"/>
<path d="M24 10C14.06 10 6 18.06 6 28C6 37.94 14.06 46 24 46C33.94 46 42 37.94 42 28C42 18.06 33.94 10 24 10ZM24 42C16.268 42 10 35.732 10 28C10 20.268 16.268 14 24 14C31.732 14 38 20.268 38 28C38 35.732 31.732 42 24 42Z" fill="#C62828"/>
<path d="M29 3V7C29 7.552 28.552 8 28 8H20C19.448 8 19 7.552 19 7V3C19 2.448 19.448 2 20 2H28C28.552 2 29 2.448 29 3Z" fill="#90A4AE"/>
</svg>
