<svg width="96" height="96" viewBox="0 0 96 96" fill="none" xmlns="http://www.w3.org/2000/svg">
<g id="Coworking">
<path id="Vector" d="M72 42C60.954 42 52 48.508 52 55.214V59.142H89.5C90.88 59.142 92 58.022 92 56.642V55.214C92 48.508 83.046 42 72 42Z" fill="url(#paint0_linear_370_9940)"/>
<path id="Vector_2" d="M78 43.2001C78 45.4761 75.6 48.0001 72 48.0001C68.4 48.0001 66 45.4761 66 43.2001C66 40.0361 66 34.7581 66 34.7581H78C78 34.7581 78 40.0361 78 43.2001Z" fill="#D6A121"/>
<path id="Vector_3" d="M82.19 29H80.682V34H82.392C82.98 34 83.482 33.61 83.582 33.076L83.976 30.948C84.162 29.928 83.31 29 82.19 29Z" fill="url(#paint1_linear_370_9940)"/>
<path id="Vector_4" d="M61.81 29H63.318V34H61.608C61.02 34 60.518 33.61 60.418 33.076L60.024 30.948C59.838 29.928 60.69 29 61.81 29Z" fill="url(#paint2_linear_370_9940)"/>
<path id="Vector_5" d="M72 16.334C67.066 16.334 62 17.084 62 27.75C62 28.604 62 32.614 62 33.526C62 37.334 68 42 72 42C76 42 82 37.334 82 33.526C82 32.614 82 28.604 82 27.75C82 17.084 76.934 16.334 72 16.334Z" fill="url(#paint3_linear_370_9940)"/>
<path id="Vector_6" d="M72 14C70 14 66.858 16 66.858 16C64.034 16 60 18.648 60 24C60 25.95 60.588 27.958 62 32C62.674 24.282 64.19 21.026 66.352 21.026C67.918 21.026 68.632 22 72 22C74.844 22 74.824 21.026 77.648 21.026C81.352 21.026 82 30.784 82 32C83.412 27.958 84 25.704 84 24C84 18.604 79.67 14 72 14Z" fill="url(#paint4_radial_370_9940)"/>
<path id="Vector_7" d="M71.706 14C66.614 14 66.022 16.7 66.022 17.116C66.022 17.354 66 17.872 66 18.754C66 19.638 66.896 22 72.202 22C75.408 22 80 19.952 80 14C80 14 78.968 14 71.706 14Z" fill="url(#paint5_radial_370_9940)"/>
<path id="Vector_8" d="M2 76H94C95.104 76 96 76.896 96 78V82C96 83.104 95.104 84 94 84H2C0.896 84 0 83.104 0 82V78C0 76.896 0.896 76 2 76Z" fill="#FFC107"/>
<path id="Vector_9" d="M92 52H52C50.816 52 49.89 53.024 50.01 54.202L52.04 74.202C52.144 75.224 53.002 76 54.03 76H89.972C90.998 76 91.858 75.224 91.962 74.202L93.992 54.202C94.11 53.024 93.184 52 92 52Z" fill="url(#paint6_linear_370_9940)"/>
<path id="Vector_10" d="M75.014 68.26H68.984C68.828 68.26 68.698 68.14 68.684 67.984L68.34 63.716C68.326 63.542 68.464 63.392 68.64 63.392H75.356C75.532 63.392 75.67 63.542 75.656 63.716L75.312 67.984C75.302 68.14 75.172 68.26 75.014 68.26Z" fill="#A3B3C2"/>
<path id="Vector_11" d="M24 42C13.506 42 5 48.182 5 54.554V58.286H40.624C41.936 58.286 43 57.222 43 55.91V54.552C43 48.182 34.494 42 24 42Z" fill="url(#paint7_linear_370_9940)"/>
<path id="Vector_12" d="M30 43.2001C30 45.4761 27.6 48.0001 24 48.0001C20.4 48.0001 18 45.4761 18 43.2001C18 40.0361 18 34.7581 18 34.7581H30C30 34.7581 30 40.0361 30 43.2001Z" fill="#D6A121"/>
<path id="Vector_13" d="M34.19 29H32.682V34H34.392C34.98 34 35.482 33.61 35.582 33.076L35.976 30.948C36.162 29.928 35.31 29 34.19 29Z" fill="url(#paint8_linear_370_9940)"/>
<path id="Vector_14" d="M13.81 29H15.318V34H13.608C13.02 34 12.518 33.61 12.418 33.076L12.024 30.948C11.838 29.928 12.69 29 13.81 29Z" fill="url(#paint9_linear_370_9940)"/>
<path id="Vector_15" d="M24 16.334C19.066 16.334 14 17.084 14 27.75C14 28.604 14 32.614 14 33.526C14 37.334 20 42 24 42C28 42 34 37.334 34 33.526C34 32.614 34 28.604 34 27.75C34 17.084 28.934 16.334 24 16.334Z" fill="url(#paint10_linear_370_9940)"/>
<path id="Vector_16" d="M24 14C22 14 18.858 16 18.858 16C16.034 16 12 18.648 12 24C12 25.95 12.588 27.958 14 32C14.674 24.282 16.19 21.026 18.352 21.026C19.918 21.026 20.632 22 24 22C26.844 22 26.824 21.026 29.648 21.026C33.352 21.026 34 30.784 34 32C35.412 27.958 36 25.704 36 24C36 18.604 31.67 14 24 14Z" fill="url(#paint11_radial_370_9940)"/>
<path id="Vector_17" d="M23.706 14C18.614 14 18.022 16.7 18.022 17.116C18.022 17.354 18 17.872 18 18.754C18 19.638 18.896 22 24.202 22C27.408 22 32 19.952 32 14C32 14 30.968 14 23.706 14Z" fill="url(#paint12_radial_370_9940)"/>
<path id="Vector_18" d="M44 52H3.99999C2.81599 52 1.88999 53.024 2.00999 54.202L4.03999 74.202C4.14399 75.224 5.00199 76 6.02999 76H41.972C42.998 76 43.858 75.224 43.962 74.202L45.992 54.202C46.11 53.024 45.184 52 44 52Z" fill="url(#paint13_linear_370_9940)"/>
<path id="Vector_19" d="M27.014 68.26H20.984C20.828 68.26 20.698 68.14 20.684 67.984L20.34 63.716C20.326 63.542 20.464 63.392 20.64 63.392H27.356C27.532 63.392 27.67 63.542 27.656 63.716L27.312 67.984C27.302 68.14 27.172 68.26 27.014 68.26Z" fill="#A3B3C2"/>
</g>
<defs>
<linearGradient id="paint0_linear_370_9940" x1="72" y1="59.22" x2="72" y2="40.914" gradientUnits="userSpaceOnUse">
<stop stop-color="#33BEF0"/>
<stop offset="1" stop-color="#0076C7"/>
</linearGradient>
<linearGradient id="paint1_linear_370_9940" x1="81.512" y1="31.5" x2="83.608" y2="31.5" gradientUnits="userSpaceOnUse">
<stop stop-color="#C48F0C"/>
<stop offset="0.251" stop-color="#D19B16"/>
<stop offset="0.619" stop-color="#DCA51F"/>
<stop offset="1" stop-color="#E0A922"/>
</linearGradient>
<linearGradient id="paint2_linear_370_9940" x1="62.486" y1="31.5" x2="60.39" y2="31.5" gradientUnits="userSpaceOnUse">
<stop stop-color="#C48F0C"/>
<stop offset="0.251" stop-color="#D19B16"/>
<stop offset="0.619" stop-color="#DCA51F"/>
<stop offset="1" stop-color="#E0A922"/>
</linearGradient>
<linearGradient id="paint3_linear_370_9940" x1="72" y1="41.856" x2="72" y2="18.096" gradientUnits="userSpaceOnUse">
<stop offset="0.125" stop-color="#FFDB80"/>
<stop offset="0.141" stop-color="#FED97C"/>
<stop offset="0.449" stop-color="#F4BF3B"/>
<stop offset="0.594" stop-color="#F0B421"/>
</linearGradient>
<radialGradient id="paint4_radial_370_9940" cx="0" cy="0" r="1" gradientUnits="userSpaceOnUse" gradientTransform="translate(61.7355 15.3913) scale(31.5258 30.0909)">
<stop stop-color="#C26715"/>
<stop offset="0.508" stop-color="#B85515"/>
<stop offset="1" stop-color="#AD3F16"/>
</radialGradient>
<radialGradient id="paint5_radial_370_9940" cx="0" cy="0" r="1" gradientUnits="userSpaceOnUse" gradientTransform="translate(70.1596 18.4938) scale(32.9195 38.3818)">
<stop stop-color="#C26715"/>
<stop offset="0.508" stop-color="#B85515"/>
<stop offset="1" stop-color="#AD3F16"/>
</radialGradient>
<linearGradient id="paint6_linear_370_9940" x1="71.538" y1="51.944" x2="74.55" y2="76.516" gradientUnits="userSpaceOnUse">
<stop stop-color="#8795A1"/>
<stop offset="1" stop-color="#6D7882"/>
</linearGradient>
<linearGradient id="paint7_linear_370_9940" x1="24" y1="58.36" x2="24" y2="40.968" gradientUnits="userSpaceOnUse">
<stop stop-color="#21CC72"/>
<stop offset="0.666" stop-color="#0F9750"/>
<stop offset="1" stop-color="#088242"/>
</linearGradient>
<linearGradient id="paint8_linear_370_9940" x1="33.512" y1="31.5" x2="35.608" y2="31.5" gradientUnits="userSpaceOnUse">
<stop stop-color="#C48F0C"/>
<stop offset="0.251" stop-color="#D19B16"/>
<stop offset="0.619" stop-color="#DCA51F"/>
<stop offset="1" stop-color="#E0A922"/>
</linearGradient>
<linearGradient id="paint9_linear_370_9940" x1="14.486" y1="31.5" x2="12.39" y2="31.5" gradientUnits="userSpaceOnUse">
<stop stop-color="#C48F0C"/>
<stop offset="0.251" stop-color="#D19B16"/>
<stop offset="0.619" stop-color="#DCA51F"/>
<stop offset="1" stop-color="#E0A922"/>
</linearGradient>
<linearGradient id="paint10_linear_370_9940" x1="24" y1="41.856" x2="24" y2="18.096" gradientUnits="userSpaceOnUse">
<stop offset="0.125" stop-color="#FFDB80"/>
<stop offset="0.141" stop-color="#FED97C"/>
<stop offset="0.449" stop-color="#F4BF3B"/>
<stop offset="0.594" stop-color="#F0B421"/>
</linearGradient>
<radialGradient id="paint11_radial_370_9940" cx="0" cy="0" r="1" gradientUnits="userSpaceOnUse" gradientTransform="translate(13.7359 15.3913) scale(31.5258 30.0909)">
<stop stop-color="#C26715"/>
<stop offset="0.508" stop-color="#B85515"/>
<stop offset="1" stop-color="#AD3F16"/>
</radialGradient>
<radialGradient id="paint12_radial_370_9940" cx="0" cy="0" r="1" gradientUnits="userSpaceOnUse" gradientTransform="translate(22.1596 18.4938) scale(32.9195 38.3818)">
<stop stop-color="#C26715"/>
<stop offset="0.508" stop-color="#B85515"/>
<stop offset="1" stop-color="#AD3F16"/>
</radialGradient>
<linearGradient id="paint13_linear_370_9940" x1="23.536" y1="51.944" x2="26.548" y2="76.516" gradientUnits="userSpaceOnUse">
<stop stop-color="#8795A1"/>
<stop offset="1" stop-color="#6D7882"/>
</linearGradient>
</defs>
</svg>
