<svg width="48" height="48" viewBox="0 0 48 48" fill="none" xmlns="http://www.w3.org/2000/svg">
<path d="M23.001 13.995V16.998C23.001 17.553 23.449 18 24 18C24.554 18 24.999 17.553 24.999 16.998V13.995C24.68 14.078 24.349 14.136 24 14.136C23.651 14.136 23.322 14.078 23.001 13.995Z" fill="#795548"/>
<path d="M28 10.161C28 7.925 24 2.065 24 2.065C24 2.065 20 7.924 20 10.161C20 12.045 21.278 13.613 23.001 14.065V12.182C23.001 11.624 23.448 11.171 24 11.171C24.554 11.171 24.999 11.624 24.999 12.182V14.065C26.722 13.613 28 12.045 28 10.161Z" fill="#FFB300"/>
<path d="M22 12.135C22 11.031 22.897 10.137 24 10.137C25.104 10.137 26 11.031 26 12.135C26 13.242 25.104 14.137 24 14.137C22.897 14.137 22 13.242 22 12.135Z" fill="#FF9800"/>
<path d="M24 11.136C23.449 11.136 23.001 11.583 23.001 12.135V13.995C23.322 14.078 23.651 14.136 24 14.136C24.349 14.136 24.68 14.078 24.999 13.995V12.135C24.999 11.583 24.554 11.136 24 11.136Z" fill="#E65100"/>
<path d="M28 37.999C28 39.104 27.105 40 26.002 40H21.998C20.896 40 20 39.104 20 37.999L19.964 17.99C19.964 16.886 20.86 15.992 21.962 15.992H25.966C27.07 15.992 27.964 16.886 27.964 17.99L28 37.999Z" fill="#FF4081"/>
<path d="M36 43C36 44.104 35.104 45 34 45H14C12.896 45 12 44.104 12 43L11 30C11 28.896 11.896 28 13 28H35C36.104 28 37 28.896 37 30L36 43Z" fill="#632D21"/>
<path d="M38 29C38 33 31.732 34 24 34C16.268 34 10 33 10 29C10 25 16 24 24 24C32 24 38 25 38 29Z" fill="#FFE082"/>
<path d="M10 29C10.531 31.438 13.438 32.375 14.063 35.139C14.243 35.935 14.595 37.551 15.389 37.926C16 38.214 16.467 38.041 16.702 37.438C17.181 36.208 17.001 34.688 18.438 34.688C20.001 34.688 20.417 35.942 20.799 37.326C21.042 38.207 21.486 39.108 22.278 39.673C23.608 40.622 25.069 39.245 25.753 38.054C26.566 36.639 26.74 33.964 28.996 34.827C29.703 35.098 30.237 36 31 36C32 36 32.527 35.359 33.001 34.733C35.044 32.033 35.616 32.816 36.779 31.653C37.779 30.653 38 29 38 29H10Z" fill="#FFE082"/>
<path d="M18 26C17.7348 26 17.4804 26.1054 17.2929 26.2929C17.1054 26.4804 17 26.7348 17 27C17 27.2652 17.1054 27.5196 17.2929 27.7071C17.4804 27.8946 17.7348 28 18 28C18.2652 28 18.5196 27.8946 18.7071 27.7071C18.8946 27.5196 19 27.2652 19 27C19 26.7348 18.8946 26.4804 18.7071 26.2929C18.5196 26.1054 18.2652 26 18 26ZM26 30C25.7348 30 25.4804 30.1054 25.2929 30.2929C25.1054 30.4804 25 30.7348 25 31C25 31.2652 25.1054 31.5196 25.2929 31.7071C25.4804 31.8946 25.7348 32 26 32C26.2652 32 26.5196 31.8946 26.7071 31.7071C26.8946 31.5196 27 31.2652 27 31C27 30.7348 26.8946 30.4804 26.7071 30.2929C26.5196 30.1054 26.2652 30 26 30Z" fill="#E91E63"/>
<path d="M25 26C24.7348 26 24.4804 26.1054 24.2929 26.2929C24.1054 26.4804 24 26.7348 24 27C24 27.2652 24.1054 27.5196 24.2929 27.7071C24.4804 27.8946 24.7348 28 25 28C25.2652 28 25.5196 27.8946 25.7071 27.7071C25.8946 27.5196 26 27.2652 26 27C26 26.7348 25.8946 26.4804 25.7071 26.2929C25.5196 26.1054 25.2652 26 25 26ZM22 28C21.7348 28 21.4804 28.1054 21.2929 28.2929C21.1054 28.4804 21 28.7348 21 29C21 29.2652 21.1054 29.5196 21.2929 29.7071C21.4804 29.8946 21.7348 30 22 30C22.2652 30 22.5196 29.8946 22.7071 29.7071C22.8946 29.5196 23 29.2652 23 29C23 28.7348 22.8946 28.4804 22.7071 28.2929C22.5196 28.1054 22.2652 28 22 28Z" fill="#9C27B0"/>
<path d="M30 26C29.7348 26 29.4804 26.1054 29.2929 26.2929C29.1054 26.4804 29 26.7348 29 27C29 27.2652 29.1054 27.5196 29.2929 27.7071C29.4804 27.8946 29.7348 28 30 28C30.2652 28 30.5196 27.8946 30.7071 27.7071C30.8946 27.5196 31 27.2652 31 27C31 26.7348 30.8946 26.4804 30.7071 26.2929C30.5196 26.1054 30.2652 26 30 26Z" fill="#1E88E5"/>
</svg>
