<svg width="48" height="48" viewBox="0 0 48 48" fill="none" xmlns="http://www.w3.org/2000/svg">
<path d="M13 34C13 34.6 12.6 35 12 35C11.4 35 11 34.6 11 34C11 33.4 11.4 33 12 33C12.6 33 13 33.4 13 34ZM37 34C37 34.6 36.6 35 36 35C35.4 35 35 34.6 35 34C35 33.4 35.4 33 36 33C36.6 33 37 33.4 37 34Z" fill="#607D8B"/>
<path d="M39.5 18H33.3L29.6 12.8C29.6 12.7 29.5 12.6 29.5 12.6C28.4 11 26.3 10.6 24.6 11.6L16.6 17.6C15 18.7 14.6 20.8 15.6 22.5C15.8 22.8 16.1 23.1 16.3 23.3L16.4 23.4L16.7 23.6C16.8 23.6 16.8 23.7 16.9 23.7L22.8 27L22 34.8C21.9 35.9 22.7 36.9 23.8 37C23.9 37 24 37 24 37C25 37 25.9 36.2 26 35.2L27 26.2C27.1 25.5 26.8 24.8 26.2 24.4L22.7 21.7L28.3 17.5L31.2 20.4C31.5 20.8 31.9 21 32.4 21H39.4C40.2 21 40.9 20.3 40.9 19.5C40.9 18.7 40.3 18 39.5 18ZM33.5 6C35.4 6 37 7.6 37 9.5C37 11.4 35.4 13 33.5 13C31.6 13 30 11.4 30 9.5C30 7.6 31.6 6 33.5 6Z" fill="#FFBA57"/>
<path d="M12 42C7.6 42 4 38.4 4 34C4 29.6 7.6 26 12 26C16.4 26 20 29.6 20 34C20 38.4 16.4 42 12 42ZM12 28C8.7 28 6 30.7 6 34C6 37.3 8.7 40 12 40C15.3 40 18 37.3 18 34C18 30.7 15.3 28 12 28ZM36 42C31.6 42 28 38.4 28 34C28 29.6 31.6 26 36 26C40.4 26 44 29.6 44 34C44 38.4 40.4 42 36 42ZM36 28C32.7 28 30 30.7 30 34C30 37.3 32.7 40 36 40C39.3 40 42 37.3 42 34C42 30.7 39.3 28 36 28Z" fill="#B0BEC5"/>
<path d="M22.7 21.7L16.5 17.6C14.9 18.7 14.5 20.8 15.5 22.5C15.7 22.8 16 23.1 16.2 23.3L16.3 23.4L16.6 23.6C16.7 23.6 16.7 23.7 16.8 23.7L22.3 26.8L26.1 24.5C26.1 24.5 26.1 24.5 26 24.4L22.7 21.7Z" fill="#2D4C5C"/>
<path d="M29.5 12.8C29.5 12.7 29.4 12.6 29.4 12.6C28.3 11 26.2 10.6 24.5 11.6L16.5 17.6L22.7 21.7L28.3 17.5L30.9 20.1V20L33.1 17.8L29.5 12.8Z" fill="#9575CD"/>
</svg>
