<svg width="48" height="48" viewBox="0 0 48 48" fill="none" xmlns="http://www.w3.org/2000/svg">
<path d="M0 24C0 17.6348 2.52856 11.5303 7.02944 7.02944C11.5303 2.52856 17.6348 0 24 0C30.3652 0 36.4697 2.52856 40.9706 7.02944C45.4714 11.5303 48 17.6348 48 24C48 30.3652 45.4714 36.4697 40.9706 40.9706C36.4697 45.4714 30.3652 48 24 48C17.6348 48 11.5303 45.4714 7.02944 40.9706C2.52856 36.4697 0 30.3652 0 24ZM17.6531 13.7906C16.9406 14.1844 16.5 14.9438 16.5 15.75V32.25C16.5 33.0656 16.9406 33.8156 17.6531 34.2094C18.3656 34.6031 19.2281 34.5938 19.9313 34.1625L33.4313 25.9125C34.0969 25.5 34.5094 24.7781 34.5094 23.9906C34.5094 23.2031 34.0969 22.4812 33.4313 22.0687L19.9313 13.8187C19.2375 13.3969 18.3656 13.3781 17.6531 13.7719V13.7906Z" fill="#C5CDD7"/>
</svg>
