<svg width="48" height="48" viewBox="0 0 48 48" fill="none" xmlns="http://www.w3.org/2000/svg">
<path d="M24 2L28.506 7.029L35 5L36.465 11.535L43 13L41 19.494L46 24L41 28.506L43 35L36.465 36.465L35 43L28.506 40.971L24 46L19.494 40.971L13 43L11.535 36.465L5 35L7 28.506L2 24L7 19.494L5 13L11.535 11.535L13 5L19.494 7.029L24 2Z" fill="#F44336"/>
<path d="M20 32.301L18.301 31.301L28 15.699L29.699 16.699L20 32.301ZM19 14C17.199 14 15 15.102 15 18V19C15 20.801 16.102 23 19 23C21.102 23 23 21.602 23 19V18C23 15.5 21.301 14 19 14ZM20.801 19C20.801 20.301 20.102 21 19 21C18.102 21 17.199 20.398 17.199 19V18C17.199 16.602 18.101 15.898 19 15.898C20.398 15.898 20.801 17.199 20.801 18V19ZM29 34C30.801 34 33 32.898 33 30V29C33 27.199 31.898 25 29 25C26.898 25 25 26.398 25 29V30C25 32.5 26.699 34 29 34ZM27.199 29C27.199 27.699 27.898 27 29 27C29.898 27 30.801 27.602 30.801 29V30C30.801 31.398 29.899 32.102 29 32.102C27.602 32.102 27.199 30.801 27.199 30V29Z" fill="white"/>
</svg>
