<svg width="48" height="48" viewBox="0 0 48 48" fill="none" xmlns="http://www.w3.org/2000/svg">
<path d="M16 17H32V35H16V17Z" fill="#CC9721"/>
<path d="M19 28H29V43H19V28Z" fill="#FF9800"/>
<path d="M33 16C33 8.365 15 11.029 15 16V23C15 27.971 19.028 32 24 32C28.971 32 33 27.971 33 23V16Z" fill="#FFB74D"/>
<path d="M23.875 6C17.8 6 9 9.119 9 29L16 34V21L28 14L32 19V34L38 28C38 23.975 38.201 8 27.875 8L26.875 6H23.875Z" fill="#FFE082"/>
<path d="M27 23C27 22.449 27.448 22 28 22C28.552 22 29 22.449 29 23C29 23.551 28.552 24 28 24C27.448 24 27 23.551 27 23ZM19 23C19 23.551 19.448 24 20 24C20.552 24 21 23.551 21 23C21 22.449 20.552 22 20 22C19.448 22 19 22.449 19 23Z" fill="#784719"/>
<path d="M31.875 6C31.875 6 31.125 4 24.25 4C17.376 4 15.875 6 15.875 6C15.875 6 14.875 12 14.875 16C14.875 16 19 15 24 15C29 15 32.875 16 32.875 16C32.875 12 31.875 6 31.875 6ZM40 46H8C8 34.986 19 33 19 33V34L24 42L29 34V33C29 33 40 35.025 40 46Z" fill="#00ACC1"/>
<path d="M31.984 39.124C31.858 35.457 30.988 32.8 30.934 32.642C30.545 31.627 30.124 30.742 29.677 29.968C29.458 30.147 29.236 30.324 29 30.482V33.187C29.017 33.23 29.035 33.274 29.051 33.316C29.06 33.342 29.857 35.778 29.982 39.131C27.654 39.75 27 42.474 27 44L29 44.003C29.001 43.88 29.042 41 31 41C32.958 41 32.999 43.88 33 44H35C35 42.466 34.339 39.726 31.984 39.124ZM19 30.483C18.854 30.385 18.72 30.27 18.58 30.164C17.737 31.266 17.186 32.279 17.051 32.684C16.535 34.234 16 35.838 16 40C16 40.552 16.448 41 17 41C17.552 41 18 40.552 18 40C18 36.162 18.461 34.78 18.949 33.316C18.96 33.283 18.981 33.236 19 33.192V30.483Z" fill="#37474F"/>
<path d="M17 39C15.343 39 14 40.343 14 42C14 43.657 15.343 45 17 45C18.657 45 20 43.657 20 42C20 40.343 18.657 39 17 39Z" fill="#263238"/>
<path d="M29 46H27V44H29V46ZM35 44H33V46H35V44ZM17 43C17.552 43 18 42.553 18 42C18 41.447 17.552 41 17 41C16.447 41 16 41.447 16 42C16 42.553 16.447 43 17 43Z" fill="#CFD8DC"/>
</svg>
