<svg width="48" height="48" viewBox="0 0 48 48" fill="none" xmlns="http://www.w3.org/2000/svg">
<path d="M19 12V8H29V12H31V8C31 6.896 30.104 6 29 6H19C17.896 6 17 6.896 17 8V12H19Z" fill="#455A64"/>
<path d="M44 37C44 39.762 41.762 42 39 42H9C6.238 42 4 39.762 4 37V17C4 14.238 6.238 12 9 12H39C41.762 12 44 14.238 44 17V37Z" fill="#F44336"/>
<path d="M24 17C21.3478 17 18.8043 18.0536 16.9289 19.9289C15.0536 21.8043 14 24.3478 14 27C14 29.6522 15.0536 32.1957 16.9289 34.0711C18.8043 35.9464 21.3478 37 24 37C26.6522 37 29.1957 35.9464 31.0711 34.0711C32.9464 32.1957 34 29.6522 34 27C34 24.3478 32.9464 21.8043 31.0711 19.9289C29.1957 18.0536 26.6522 17 24 17Z" fill="white"/>
<path d="M22 21H26V33H22V21Z" fill="#F44336"/>
<path d="M18 25H30V29H18V25Z" fill="#F44336"/>
</svg>
