<svg width="96" height="96" viewBox="0 0 96 96" fill="none" xmlns="http://www.w3.org/2000/svg">
<g id="Emergency Exit">
<path id="Vector" d="M83.9999 12.1026V83.8974C84.0661 84.9087 83.7322 85.9055 83.0703 86.6729C82.4084 87.4403 81.4715 87.9169 80.4615 88H41.5384C40.5284 87.9169 39.5915 87.4403 38.9296 86.6729C38.2677 85.9055 37.9338 84.9087 37.9999 83.8974V12.1026C37.9338 11.0913 38.2677 10.0945 38.9296 9.32711C39.5914 8.55969 40.5284 8.08308 41.5384 8H80.4615C81.4715 8.08308 82.4084 8.55969 83.0703 9.32711C83.7322 10.0945 84.0661 11.0913 83.9999 12.1026Z" fill="url(#paint0_linear_370_9858)"/>
<path id="Vector_2" d="M5 63.9354C4.40666 63.9354 3.82664 64.1114 3.33329 64.441C2.83994 64.7707 2.45543 65.2392 2.22836 65.7874C2.0013 66.3356 1.94189 66.9388 2.05765 67.5207C2.1734 68.1026 2.45912 68.6372 2.87868 69.0567C3.29824 69.4763 3.83279 69.762 4.41473 69.8778C4.99667 69.9935 5.59987 69.9341 6.14805 69.7071C6.69623 69.48 7.16477 69.0955 7.49441 68.6021C7.82405 68.1088 8 67.5288 8 66.9354C7.99971 66.1399 7.68355 65.377 7.121 64.8144C6.55845 64.2519 5.79556 63.9357 5 63.9354Z" fill="#199BE2"/>
<path id="Vector_3" d="M39.9962 56.3515L27.9648 51.898L20.8442 61.033L4.45947 63.9843L4.99997 69.9355L21.5206 69.9991C22.4105 70.018 23.2787 69.7234 23.9735 69.167L39.9962 56.3515Z" fill="#199BE2"/>
<path id="Vector_4" d="M67 52C68.6569 52 70 50.6569 70 49C70 47.3431 68.6569 46 67 46C65.3431 46 64 47.3431 64 49C64 50.6569 65.3431 52 67 52Z" fill="#199BE2"/>
<path id="Vector_5" d="M67 52H55.1696C54.6574 52.0001 54.1505 51.8967 53.6793 51.6959C53.2082 51.4951 52.7825 51.2011 52.4279 50.8315L42.6581 40.6551L49.9456 34.0109L56.9916 44.989L67.3956 46.0259L67 52Z" fill="#199BE2"/>
<path id="Vector_6" d="M48 20C48 21.5824 48.4693 23.1293 49.3485 24.445C50.2278 25.7607 51.4774 26.786 52.9395 27.3914C54.4015 27.9968 56.0102 28.155 57.5622 27.846C59.1142 27.537 60.5396 26.7747 61.6583 25.6554C62.7769 24.5362 63.5385 23.1104 63.8468 21.5583C64.155 20.0062 63.996 18.3975 63.3899 16.9358C62.7838 15.474 61.7578 14.2249 60.4417 13.3463C59.1255 12.4677 57.5784 11.9992 55.996 12C53.8749 12.0009 51.841 12.8442 50.3416 14.3444C48.8421 15.8446 47.9999 17.8789 48 20Z" fill="url(#paint1_linear_370_9858)"/>
<path id="Vector_7" d="M36 36C36 37.5824 36.4693 39.1293 37.3485 40.445C38.2278 41.7607 39.4774 42.786 40.9395 43.3914C42.4015 43.9968 44.0102 44.155 45.5622 43.846C47.1142 43.537 48.5396 42.7747 49.6583 41.6554C50.7769 40.5362 51.5385 39.1104 51.8468 37.5583C52.155 36.0062 51.996 34.3975 51.3899 32.9358C50.7838 31.474 49.7578 30.2249 48.4417 29.3463C47.1255 28.4677 45.5784 27.9992 43.996 28C41.8749 28.0009 39.841 28.8442 38.3416 30.3444C36.8421 31.8446 35.9999 33.8789 36 36Z" fill="#35C1F1"/>
<path id="Vector_8" d="M26 52.5C26 54.0824 26.4693 55.6293 27.3485 56.945C28.2278 58.2607 29.4774 59.286 30.9395 59.8914C32.4015 60.4968 34.0102 60.655 35.5622 60.346C37.1142 60.037 38.5396 59.2747 39.6583 58.1554C40.7769 57.0362 41.5385 55.6104 41.8468 54.0583C42.155 52.5062 41.996 50.8975 41.3899 49.4358C40.7838 47.974 39.7578 46.7249 38.4417 45.8463C37.1255 44.9677 35.5784 44.4992 33.996 44.5C31.8749 44.5009 29.841 45.3442 28.3416 46.8444C26.8421 48.3446 25.9999 50.3789 26 52.5Z" fill="#35C1F1"/>
<path id="Vector_9" d="M41 82C40.4067 82 39.8266 82.1759 39.3333 82.5056C38.8399 82.8352 38.4554 83.3038 38.2284 83.852C38.0013 84.4001 37.9419 85.0033 38.0576 85.5853C38.1734 86.1672 38.4591 86.7018 38.8787 87.1213C39.2982 87.5409 39.8328 87.8266 40.4147 87.9424C40.9967 88.0581 41.5999 87.9987 42.148 87.7716C42.6962 87.5446 43.1648 87.1601 43.4944 86.6667C43.8241 86.1734 44 85.5933 44 85C43.9997 84.2044 43.6835 83.4416 43.121 82.879C42.5585 82.3165 41.7956 82.0003 41 82Z" fill="#35C1F1"/>
<path id="Vector_10" d="M50.8526 40.1307L37.6668 30.7226L27.3943 47.986L30.0511 59.4596L38 67V85L43.9429 85.5854L47.3629 65.4003C47.3325 64.9146 47.2093 64.4393 47 64L43 54L50.8526 40.1307Z" fill="#35C1F1"/>
<path id="Vector_11" d="M15 38C14.4067 38 13.8266 38.1759 13.3333 38.5056C12.8399 38.8352 12.4554 39.3038 12.2284 39.852C12.0013 40.4001 11.9419 41.0033 12.0576 41.5853C12.1734 42.1672 12.4591 42.7018 12.8787 43.1213C13.2982 43.5409 13.8328 43.8266 14.4147 43.9424C14.9967 44.0581 15.5999 43.9987 16.1481 43.7716C16.6962 43.5446 17.1648 43.1601 17.4944 42.6667C17.8241 42.1734 18 41.5933 18 41C17.9997 40.2044 17.6835 39.4415 17.121 38.879C16.5585 38.3165 15.7956 38.0003 15 38Z" fill="#35C1F1"/>
<path id="Vector_12" d="M44 28H27.2382C26.4003 28 25.586 28.2772 24.9222 28.7885L12.9906 38.7731L16.483 43.608L27.679 35.9706L42.3527 36.8028L44 28Z" fill="#35C1F1"/>
<path id="Vector_13" d="M78.2385 67.3687L71.2622 60.3922C71.1588 60.2889 71.0271 60.2185 70.8837 60.19C70.7403 60.1615 70.5917 60.1761 70.4567 60.2321C70.3216 60.288 70.2062 60.3827 70.1249 60.5043C70.0437 60.6258 70.0004 60.7687 70.0004 60.9149V65.9999H58C57.4696 65.9999 56.9609 66.2106 56.5858 66.5857C56.2107 66.9608 56 67.4695 56 67.9999C56 68.5303 56.2107 69.039 56.5858 69.4141C56.9609 69.7892 57.4696 69.9999 58 69.9999H70.0004V75.0851C70.0004 75.2313 70.0437 75.3742 70.125 75.4957C70.2062 75.6173 70.3216 75.712 70.4567 75.7679C70.5918 75.8239 70.7404 75.8385 70.8838 75.81C71.0271 75.7814 71.1588 75.711 71.2622 75.6077L78.2385 68.6314C78.4059 68.4639 78.5 68.2368 78.5 68C78.5 67.7632 78.4059 67.5361 78.2385 67.3687Z" fill="white"/>
</g>
<defs>
<linearGradient id="paint0_linear_370_9858" x1="41.1839" y1="-6.444" x2="80.1839" y2="100.708" gradientUnits="userSpaceOnUse">
<stop stop-color="#6D6D6D"/>
<stop offset="0.126" stop-color="#626262"/>
<stop offset="0.987" stop-color="#464646"/>
<stop offset="0.998" stop-color="#454545"/>
</linearGradient>
<linearGradient id="paint1_linear_370_9858" x1="48" y1="20" x2="64" y2="20" gradientUnits="userSpaceOnUse">
<stop stop-color="#FFCF54"/>
<stop offset="0.261" stop-color="#FDCB4D"/>
<stop offset="0.639" stop-color="#F7C13A"/>
<stop offset="1" stop-color="#F0B421"/>
</linearGradient>
</defs>
</svg>
