<svg width="48" height="48" viewBox="0 0 48 48" fill="none" xmlns="http://www.w3.org/2000/svg">
<path d="M40 40H8C7.283 40 6.623 39.617 6.266 38.996C5.91 38.375 5.912 37.611 6.273 36.992L22.273 8.992C22.631 8.378 23.289 8 24 8C24.711 8 25.369 8.378 25.728 8.992L41.728 36.992C42.089 37.611 42.091 38.375 41.735 38.996C41.379 39.617 40.716 40 40 40Z" fill="#FFC107"/>
<path d="M22 34.142C22 33.873 22.047 33.627 22.143 33.396C22.237 33.168 22.372 32.97 22.546 32.804C22.717 32.636 22.928 32.505 23.17 32.411C23.414 32.319 23.688 32.27 23.994 32.27C24.3 32.27 24.576 32.319 24.822 32.411C25.072 32.505 25.283 32.636 25.454 32.804C25.629 32.97 25.764 33.168 25.857 33.396C25.953 33.627 26 33.873 26 34.142C26 34.412 25.953 34.658 25.857 34.882C25.763 35.107 25.628 35.301 25.454 35.47C25.283 35.636 25.072 35.766 24.822 35.862C24.576 35.954 24.3 36 23.994 36C23.687 36 23.414 35.954 23.17 35.861C22.928 35.765 22.717 35.635 22.546 35.469C22.371 35.3 22.236 35.106 22.143 34.881C22.047 34.657 22 34.411 22 34.142ZM25.48 30H22.507L22.086 18H25.9L25.48 30Z" fill="#5D4037"/>
</svg>
