<svg width="48" height="48" viewBox="0 0 48 48" fill="none" xmlns="http://www.w3.org/2000/svg">
<path d="M31.3 8.49999L34.4 3.89999L35.4 9.29999L40.4 6.99999L38.3 12.2L43.8 13L39.2 16.2L43.4 19.8L37.9 20L39.4 25.3L34.6 22.5L33 27.8L30.5 22.9L26.3 26.5L26.9 21L21.4 21.7L24.9 17.4L19.9 15.1L25.1 13.3L22.2 8.59999L27.5 9.99999L27.6 4.49999L31.3 8.49999Z" fill="#EA80FC"/>
<path d="M31.6 11.6L33.4 8.89999L34 12.1L36.9 10.7L35.7 13.8L38.9 14.2L36.2 16.1L38.7 18.2L35.4 18.4L36.3 21.5L33.5 19.8L32.6 22.9L31.1 20L28.7 22.2L29 18.9L25.8 19.4L27.8 16.8L24.9 15.5L28 14.4L26.2 11.7L29.4 12.5V9.19999L31.6 11.6ZM39 35L40.5 38.5L44 40L40.5 41.5L39 45L37.5 41.5L34 40L37.5 38.5L39 35ZM30 31L30.9 33.1L33 34L30.9 34.9L30 37L29.1 34.9L27 34L29.1 33.1L30 31Z" fill="#D500F9"/>
<path d="M5 44.4L3.6 43C2.8 42.2 2.8 41 3.6 40.2L21.3 22.5L25.5 26.7L7.8 44.4C7 45.2 5.8 45.2 5 44.4Z" fill="#607D8B"/>
<path d="M32.9 13.7L34.3 15.1C35.1 15.9 35.1 17.1 34.3 17.9L25.5 26.7L21.3 22.5L30.1 13.7C30.8 12.9 32.1 12.9 32.9 13.7Z" fill="#FFC107"/>
<path d="M22.189 23.3518L23.1789 24.3418L5.50092 42.0191L4.51099 41.0292L22.189 23.3518Z" fill="#90A4AE"/>
<path d="M30.993 14.6499L31.9829 15.6399L23.2146 24.4079L22.2247 23.4179L30.993 14.6499Z" fill="#FFD54F"/>
</svg>
