<svg width="48" height="48" viewBox="0 0 48 48" fill="none" xmlns="http://www.w3.org/2000/svg">
<path d="M12 44H16V46H12V44ZM32 44H36V46H32V44Z" fill="#263238"/>
<path d="M8 41V7C8 4.8 9.8 3 12 3H36C38.2 3 40 4.8 40 7V41C40 43.2 38.2 45 36 45H12C9.8 45 8 43.2 8 41Z" fill="#607D8B"/>
<path d="M12 17V8C12 7.4 12.4 7 13 7H35C35.6 7 36 7.4 36 8V17H12ZM12 19H36V29H12V19ZM12 40V31H36V40C36 40.6 35.6 41 35 41H13C12.4 41 12 40.6 12 40Z" fill="#B0BEC5"/>
<path d="M20 11H28V13H20V11ZM20 23H28V25H20V23ZM20 35H28V37H20V35Z" fill="#546E7A"/>
</svg>
