<svg width="48" height="48" viewBox="0 0 48 48" fill="none" xmlns="http://www.w3.org/2000/svg">
<path d="M12.0743 44.6312L16.071 34.6302L17.9282 35.3724L13.9315 45.3734L12.0743 44.6312Z" fill="#4E342E"/>
<path d="M34.0716 35.3715L35.9286 34.6288L39.9284 44.6285L38.0714 45.3712L34.0716 35.3715Z" fill="#4E342E"/>
<path d="M25 35H27V42H25V35Z" fill="#4E342E"/>
<path d="M39 18V36H11V31L39 18Z" fill="#BBDEFB"/>
<path d="M39 16V26.62C38.33 28.87 37.32 31.02 36 33H11V28L39 16Z" fill="#90CAF9"/>
<path d="M10 3H40V7H10V3ZM10 36H40V38H10V36Z" fill="#4E342E"/>
<path d="M11 7V17.789C11 22.491 9.608 27.088 7 31H35C37.608 27.088 39 22.491 39 17.789V7" fill="#BBDEFB"/>
</svg>
