<svg width="48" height="48" viewBox="0 0 48 48" fill="none" xmlns="http://www.w3.org/2000/svg">
<path d="M33.148 7.77C35.87 9.34 36.809 12.829 35.239 15.55C33.655 18.283 24.6 22.576 24.6 22.576C24.6 22.576 23.784 12.581 25.368 9.847C26.938 7.126 30.427 6.186 33.148 7.77ZM14.852 40.235C12.13 38.664 11.191 35.175 12.761 32.455C14.345 29.721 23.4 25.429 23.4 25.429C23.4 25.429 24.216 35.424 22.632 38.158C21.062 40.879 17.573 41.807 14.852 40.235ZM43 23.998C43 27.141 40.452 29.701 37.298 29.701C34.155 29.701 25.905 23.998 25.905 23.998C25.905 23.998 34.155 18.296 37.298 18.296C40.452 18.296 43 20.844 43 23.998ZM5 23.998C5 20.844 7.548 18.296 10.702 18.296C13.845 18.296 22.095 23.998 22.095 23.998C22.095 23.998 13.845 29.701 10.702 29.701C7.548 29.701 5 27.141 5 23.998ZM33.148 40.235C30.426 41.806 26.938 40.879 25.368 38.157C23.784 35.424 24.6 25.428 24.6 25.428C24.6 25.428 33.655 29.72 35.239 32.454C36.81 35.176 35.87 38.664 33.148 40.235ZM14.852 7.77C17.574 6.186 21.062 7.126 22.632 9.848C24.216 12.581 23.4 22.577 23.4 22.577C23.4 22.577 14.345 18.284 12.761 15.551C11.19 12.828 12.13 9.34 14.852 7.77Z" fill="#1565C0"/>
<path d="M24 5.01199C27.319 5.01199 30 7.69399 30 11.013C30 14.319 24 24.001 24 24.001C24 24.001 18 14.318 18 11.013C18 7.69299 20.681 5.01199 24 5.01199Z" fill="#2196F3"/>
<path d="M7.448 14.692C9.075 11.798 12.726 10.777 15.619 12.404C18.501 14.024 24 24 24 24C24 24 12.619 24.483 9.737 22.863C6.845 21.236 5.821 17.586 7.448 14.692ZM40.588 14.758C42.204 17.658 41.166 21.305 38.267 22.92C35.379 24.529 24 24 24 24C24 24 29.538 14.047 32.426 12.438C35.325 10.822 38.973 11.858 40.588 14.758Z" fill="#2196F3"/>
<path d="M24 42.988C20.681 42.988 18 40.306 18 36.987C18 33.681 24 23.999 24 23.999C24 23.999 30 33.682 30 36.987C30 40.307 27.319 42.988 24 42.988Z" fill="#2196F3"/>
<path d="M7.412 33.242C5.796 30.342 6.834 26.695 9.733 25.08C12.621 23.471 24 23.999 24 23.999C24 23.999 18.462 33.953 15.574 35.562C12.675 37.178 9.027 36.142 7.412 33.242ZM40.552 33.308C38.925 36.202 35.274 37.223 32.381 35.596C29.499 33.976 24 23.999 24 23.999C24 23.999 35.381 23.517 38.263 25.137C41.155 26.764 42.179 30.414 40.552 33.308Z" fill="#2196F3"/>
<path d="M24 16.998C27.865 16.998 31 20.123 31 23.998C31 27.862 27.865 30.998 24 30.998C20.135 30.998 17 27.862 17 23.998C17 20.123 20.135 16.998 24 16.998Z" fill="#FF9800"/>
<path d="M24 19.998C26.207 19.998 28 21.791 28 23.998C28 26.206 26.207 27.998 24 27.998C21.793 27.998 20 26.206 20 23.998C20 21.791 21.793 19.998 24 19.998Z" fill="#FFEB3B"/>
</svg>
