<svg width="48" height="48" viewBox="0 0 48 48" fill="none" xmlns="http://www.w3.org/2000/svg">
<path d="M36 43C34.4 43 33.1 41.6 33.1 40L34 17H38L38.9 40C38.9 41.6 37.6 43 36 43Z" fill="#3F51B5"/>
<path d="M41 5H39V16C39 16.6 38.6 17 38 17C37.4 17 37 16.6 37 16V5H35V16C35 16.6 34.6 17 34 17C33.4 17 33 16.6 33 16V5H31C31 5 29 13.1 29 17C29 20.9 32.1 24 36 24C39.9 24 43 20.9 43 17C43 13.1 41 5 41 5Z" fill="#3F51B5"/>
<path d="M18 31.6C23.2 30.3 27 25.6 27 20C27 15 25 5 25 5H7C7 5 5 15 5 20C5 25.6 8.8 30.3 14 31.6V37.7C14 39.2 13 40.5 11.5 40.8L7 42V43H25V42L20.5 40.9C19 40.5 18 39.2 18 37.7V31.6Z" fill="#90CAF9"/>
<path d="M11.8 26.1C11.6 26.1 11.4 26 11.3 25.9C9.2 24.6 8 22.4 8 20L9 8.9C9.1 8.4 9.5 8 10.1 8C10.7 8.1 11.1 8.5 11 9.1L10 20.1C10 21.7 10.9 23.3 12.3 24.3C12.8 24.6 12.9 25.2 12.6 25.7C12.4 25.9 12.1 26.1 11.8 26.1Z" fill="#BBDEFB"/>
</svg>
