<svg width="96" height="96" viewBox="0 0 96 96" fill="none" xmlns="http://www.w3.org/2000/svg">
<g id="Form">
<path id="Vector" d="M84 16H12C9.8 16 8 17.8 8 20V76C8 78.2 9.8 80 12 80H84C86.2 80 88 78.2 88 76V20C88 17.8 86.2 16 84 16Z" fill="url(#paint0_linear_370_9999)"/>
<path id="Vector_2" d="M41 34H79C79.552 34 80 33.552 80 33V27C80 26.448 79.552 26 79 26H41C40.448 26 40 26.448 40 27V33C40 33.552 40.448 34 41 34Z" fill="url(#paint1_linear_370_9999)"/>
<path id="Vector_3" d="M34 32H18C16.896 32 16 31.104 16 30C16 28.896 16.896 28 18 28H34C35.104 28 36 28.896 36 30C36 31.104 35.104 32 34 32Z" fill="url(#paint2_linear_370_9999)"/>
<path id="Vector_4" d="M41 46H79C79.552 46 80 45.552 80 45V39C80 38.448 79.552 38 79 38H41C40.448 38 40 38.448 40 39V45C40 45.552 40.448 46 41 46Z" fill="url(#paint3_linear_370_9999)"/>
<path id="Vector_5" d="M34 44H18C16.896 44 16 43.104 16 42C16 40.896 16.896 40 18 40H34C35.104 40 36 40.896 36 42C36 43.104 35.104 44 34 44Z" fill="url(#paint4_linear_370_9999)"/>
<path id="Vector_6" d="M41 72H47C47.552 72 48 71.552 48 71V65C48 64.448 47.552 64 47 64H41C40.448 64 40 64.448 40 65V71C40 71.552 40.448 72 41 72Z" fill="url(#paint5_linear_370_9999)"/>
<path id="Vector_7" d="M78 58H54C52.896 58 52 57.104 52 56C52 54.896 52.896 54 54 54H78C79.104 54 80 54.896 80 56C80 57.104 79.104 58 78 58Z" fill="url(#paint6_linear_370_9999)"/>
<path id="Vector_8" d="M78 70H54C52.896 70 52 69.104 52 68C52 66.896 52.896 66 54 66H78C79.104 66 80 66.896 80 68C80 69.104 79.104 70 78 70Z" fill="url(#paint7_linear_370_9999)"/>
<path id="Vector_9" d="M46 66H42V70H46V66Z" fill="url(#paint8_linear_370_9999)"/>
<path id="Vector_10" d="M41 60H47C47.552 60 48 59.552 48 59V53C48 52.448 47.552 52 47 52H41C40.448 52 40 52.448 40 53V59C40 59.552 40.448 60 41 60Z" fill="url(#paint9_linear_370_9999)"/>
<path id="Vector_11" d="M46 54H42V58H46V54Z" fill="url(#paint10_linear_370_9999)"/>
</g>
<defs>
<linearGradient id="paint0_linear_370_9999" x1="36.202" y1="15.554" x2="59.702" y2="80.182" gradientUnits="userSpaceOnUse">
<stop stop-color="#0077D2"/>
<stop offset="1" stop-color="#0B59A2"/>
</linearGradient>
<linearGradient id="paint1_linear_370_9999" x1="60" y1="33.928" x2="60" y2="25.828" gradientUnits="userSpaceOnUse">
<stop stop-color="#7DD8F3"/>
<stop offset="0.377" stop-color="#7BD6F1"/>
<stop offset="0.596" stop-color="#72D0EC"/>
<stop offset="0.775" stop-color="#64C6E4"/>
<stop offset="0.931" stop-color="#50B8D7"/>
<stop offset="1" stop-color="#45B0D0"/>
</linearGradient>
<linearGradient id="paint2_linear_370_9999" x1="16" y1="30" x2="36" y2="30" gradientUnits="userSpaceOnUse">
<stop stop-color="#11408A"/>
<stop offset="1" stop-color="#103F8F"/>
</linearGradient>
<linearGradient id="paint3_linear_370_9999" x1="60" y1="46.036" x2="60" y2="37.866" gradientUnits="userSpaceOnUse">
<stop stop-color="#7DD8F3"/>
<stop offset="0.377" stop-color="#7BD6F1"/>
<stop offset="0.596" stop-color="#72D0EC"/>
<stop offset="0.775" stop-color="#64C6E4"/>
<stop offset="0.931" stop-color="#50B8D7"/>
<stop offset="1" stop-color="#45B0D0"/>
</linearGradient>
<linearGradient id="paint4_linear_370_9999" x1="16" y1="42" x2="36" y2="42" gradientUnits="userSpaceOnUse">
<stop stop-color="#11408A"/>
<stop offset="1" stop-color="#103F8F"/>
</linearGradient>
<linearGradient id="paint5_linear_370_9999" x1="44" y1="72.036" x2="44" y2="63.866" gradientUnits="userSpaceOnUse">
<stop stop-color="#7DD8F3"/>
<stop offset="0.377" stop-color="#7BD6F1"/>
<stop offset="0.596" stop-color="#72D0EC"/>
<stop offset="0.775" stop-color="#64C6E4"/>
<stop offset="0.931" stop-color="#50B8D7"/>
<stop offset="1" stop-color="#45B0D0"/>
</linearGradient>
<linearGradient id="paint6_linear_370_9999" x1="52" y1="56" x2="80" y2="56" gradientUnits="userSpaceOnUse">
<stop stop-color="#11408A"/>
<stop offset="1" stop-color="#103F8F"/>
</linearGradient>
<linearGradient id="paint7_linear_370_9999" x1="52" y1="68" x2="80" y2="68" gradientUnits="userSpaceOnUse">
<stop stop-color="#11408A"/>
<stop offset="1" stop-color="#103F8F"/>
</linearGradient>
<linearGradient id="paint8_linear_370_9999" x1="44" y1="70.018" x2="44" y2="65.934" gradientUnits="userSpaceOnUse">
<stop stop-color="#11408A"/>
<stop offset="1" stop-color="#103F8F"/>
</linearGradient>
<linearGradient id="paint9_linear_370_9999" x1="44" y1="60.036" x2="44" y2="51.866" gradientUnits="userSpaceOnUse">
<stop stop-color="#7DD8F3"/>
<stop offset="0.377" stop-color="#7BD6F1"/>
<stop offset="0.596" stop-color="#72D0EC"/>
<stop offset="0.775" stop-color="#64C6E4"/>
<stop offset="0.931" stop-color="#50B8D7"/>
<stop offset="1" stop-color="#45B0D0"/>
</linearGradient>
<linearGradient id="paint10_linear_370_9999" x1="44" y1="58.018" x2="44" y2="53.934" gradientUnits="userSpaceOnUse">
<stop stop-color="#11408A"/>
<stop offset="1" stop-color="#103F8F"/>
</linearGradient>
</defs>
</svg>
