<svg width="48" height="48" viewBox="0 0 48 48" fill="none" xmlns="http://www.w3.org/2000/svg">
<path d="M24 19C22.6739 19 21.4021 19.5268 20.4645 20.4645C19.5268 21.4021 19 22.6739 19 24C19 25.3261 19.5268 26.5979 20.4645 27.5355C21.4021 28.4732 22.6739 29 24 29C25.3261 29 26.5979 28.4732 27.5355 27.5355C28.4732 26.5979 29 25.3261 29 24C29 22.6739 28.4732 21.4021 27.5355 20.4645C26.5979 19.5268 25.3261 19 24 19Z" fill="#455A64"/>
<path d="M44.122 21.753L40.749 21.191C40.568 20.107 40.286 19.06 39.911 18.056L42.55 15.883C42.947 15.557 43.048 14.993 42.791 14.547L41.581 12.451C41.325 12.006 40.783 11.813 40.304 11.993L37.118 13.186C36.425 12.346 35.652 11.574 34.812 10.88L36.005 7.696C36.186 7.215 35.99 6.675 35.547 6.419L33.451 5.209C33.006 4.953 32.441 5.056 32.115 5.45L29.945 8.09C28.94 7.714 27.893 7.432 26.809 7.251L26.247 3.878C26.161 3.372 25.724 3 25.21 3H22.789C22.277 3 21.838 3.372 21.754 3.878L21.192 7.251C20.108 7.432 19.061 7.714 18.057 8.089L15.884 5.45C15.558 5.053 14.994 4.95 14.548 5.208L12.452 6.418C12.007 6.674 11.814 7.216 11.994 7.695L13.187 10.881C12.347 11.574 11.574 12.347 10.881 13.187L7.695 11.994C7.216 11.813 6.674 12.007 6.418 12.452L5.208 14.548C4.95 14.993 5.053 15.558 5.449 15.884L8.088 18.057C7.713 19.061 7.43 20.108 7.25 21.192L3.877 21.754C3.372 21.839 3 22.276 3 22.79V25.211C3 25.723 3.372 26.162 3.878 26.246L7.251 26.808C7.432 27.892 7.714 28.939 8.089 29.943L5.45 32.116C5.053 32.442 4.952 33.006 5.209 33.452L6.419 35.548C6.675 35.993 7.217 36.186 7.696 36.006L10.882 34.813C11.575 35.653 12.348 36.425 13.188 37.119L11.995 40.303C11.814 40.784 12.01 41.324 12.453 41.58L14.549 42.79C14.994 43.046 15.559 42.943 15.885 42.548L18.056 39.911C19.061 40.287 20.108 40.569 21.192 40.75L21.754 44.123C21.839 44.628 22.276 45 22.79 45H25.211C25.723 45 26.162 44.628 26.246 44.122L26.808 40.749C27.892 40.568 28.939 40.286 29.943 39.911L32.116 42.55C32.442 42.947 33.006 43.048 33.452 42.792L35.548 41.582C35.993 41.326 36.186 40.784 36.006 40.305L34.813 37.119C35.653 36.426 36.425 35.653 37.119 34.813L40.303 36.006C40.784 36.187 41.324 35.991 41.58 35.548L42.79 33.452C43.046 33.007 42.943 32.442 42.548 32.116L39.911 29.945C40.287 28.94 40.569 27.893 40.75 26.809L44.123 26.247C44.628 26.161 45 25.724 45 25.21V22.789C45 22.276 44.628 21.837 44.122 21.753ZM24 36C17.4 36 12 30.6 12 24C12 17.4 17.4 12 24 12C30.6 12 36 17.4 36 24C36 30.6 30.6 36 24 36Z" fill="#607D8B"/>
<path d="M24 13C30.065 13 35 17.935 35 24C35 30.065 30.065 35 24 35C17.935 35 13 30.065 13 24C13 17.935 17.935 13 24 13ZM24 11C16.85 11 11 16.85 11 24C11 31.15 16.85 37 24 37C31.15 37 37 31.15 37 24C37 16.85 31.15 11 24 11Z" fill="#455A64"/>
<path d="M26 22.852V12.182C25.85 12.156 25.699 12.132 25.547 12.112C25.402 12.093 25.259 12.07 25.112 12.057C24.745 12.023 24.375 12 24 12C23.625 12 23.255 12.023 22.888 12.057C22.742 12.071 22.598 12.093 22.453 12.112C22.301 12.132 22.15 12.156 22 12.182V22.84L12.77 28.178C13.245 29.444 13.916 30.616 14.766 31.64L23.995 26.309L33.234 31.64C34.084 30.616 34.755 29.444 35.23 28.178L26 22.852Z" fill="#455A64"/>
</svg>
