<svg width="48" height="48" viewBox="0 0 48 48" fill="none" xmlns="http://www.w3.org/2000/svg">
<path d="M24 1C22.4087 1 20.8826 1.42143 19.7574 2.17157C18.6321 2.92172 18 3.93913 18 5C18 6.06087 18.6321 7.07828 19.7574 7.82843C20.8826 8.57857 22.4087 9 24 9C25.5913 9 27.1174 8.57857 28.2426 7.82843C29.3679 7.07828 30 6.06087 30 5C30 3.93913 29.3679 2.92172 28.2426 2.17157C27.1174 1.42143 25.5913 1 24 1Z" fill="#D50000"/>
<path d="M33 43C28.3 40.1 33.5 30.3 35.4 27.1C40.5 26.3 43 23.7 43 21.1C43 16.8 36.4 13.1 27.7 12.3C27.9 11.9 28 11.5 28 11.1C28 9.4 27.2 9.3 27 7.7C27 7.5 27 7.3 27 7C25.3 5.8 24 3 24 3C24 3 22.7 6 21 7C21 7.3 21 7.7 21.1 8H21C21 9.4 20 9.4 20 11C20 11.4 20.1 11.8 20.3 12.2C11.6 13 5 16.7 5 21C5 23.7 7.4 26.1 12.1 27C12.7 31.2 15.9 47 31 47C39 47 42 43 42 43C42 43 38.4 46.4 33 43Z" fill="#82B1FF"/>
<path d="M33 43C28.3 40.1 33.5 30.3 35.4 27.1C40.5 26.3 43 23.7 43 21.1C43 16.8 36.4 13.1 27.7 12.3C27.9 11.9 28 11.5 28 11.1C28 9.4 27.2 9.3 27 7.7C27 7.5 27 7.3 27 7C25.3 5.8 24 3 24 3C24 3 22.7 6 21 7C21 7.3 21 7.7 21.1 8H21C21 9.4 20 9.4 20 11C20 11.4 20.1 11.8 20.3 12.2C11.6 13 5 16.7 5 21C5 23.7 7.4 26.1 12.1 27C12.7 31.2 15.9 47 31 47C39 47 42 43 42 43C42 43 38.4 46.4 33 43Z" fill="#82B1FF"/>
<path d="M24 14.8C24 14.8 27.5 14.8 27 19.6C30.6 16.8 33 17 33 17C33 15.3 32 15 32 15C32 15 29.3 14.2 24 14.8Z" fill="#FFC107"/>
<path d="M33.8 43.4C33.6 43.3 33.3 43.1 33 43C31.6 42.1 31.1 40.7 31.1 38.9C28.3 42.6 23 43.4 20.4 43.5C22.5 45.2 25.3 46.4 28.5 46.8C30.3 46.1 32.2 45 33.8 43.4Z" fill="#D50000"/>
<path d="M27 7C27 7 27.1 7.3 27.3 7.8C27.5 8.3 27.9 8.9 28.3 9.8C28.5 10.3 28.6 10.8 28.6 11.4C28.6 12.2 28.3 12.8 27.8 13.4C27.3 13.9 26.7 14.4 26.1 14.6C25.4 14.9 24.8 15 24 15H23.5C23.3 15 23.1 15 22.9 14.9C22.6 14.8 22.2 14.7 21.9 14.6C21.2 14.3 20.6 13.9 20.2 13.4C19.7 12.9 19.4 12.2 19.4 11.5V11.2V11.1V11C19.4 10.9 19.4 10.7 19.5 10.6C19.6 10.3 19.6 10.1 19.7 9.8C20.1 8.9 20.5 8.3 20.7 7.8C20.9 7.3 21 7 21 7C21 7 21 7.1 21 7.2C21 7.3 21.1 7.6 21.1 7.8C21.1 8.4 20.9 9.1 20.8 10C20.8 10.2 20.8 10.4 20.8 10.6C20.8 10.7 20.8 10.8 20.8 10.9V11V11.1C20.9 11.4 21.1 11.7 21.4 12C21.7 12.3 22.1 12.5 22.5 12.6C22.7 12.7 22.9 12.7 23.2 12.8C23.3 12.8 23.4 12.8 23.5 12.8C23.6 12.8 23.8 12.8 23.9 12.8C24.3 12.8 24.8 12.7 25.3 12.6C25.7 12.5 26.1 12.3 26.4 12C26.7 11.7 26.9 11.4 27 11.1C27.1 10.7 27.1 10.3 27.1 9.9C27 9.1 26.9 8.3 26.9 7.8C26.9 7.3 27 7 27 7Z" fill="#263238"/>
<path d="M35.6 27H35.5C35.2 27.5 34.9 28.1 34.5 28.8C34.3 28.8 34 28.8 33.7 28.7C33.2 28.6 32.6 28.5 32.1 28.3C31.5 28.1 30.9 27.9 30.3 27.6C29.7 27.3 29 27 28.4 26.6C28.1 26.4 27.8 26.2 27.5 26C27.2 25.8 26.9 25.5 26.6 25.3C26 24.8 25.4 24.3 24.8 23.8C24.6 23.6 24.3 23.4 24.1 23.1C23.9 23.3 23.6 23.5 23.4 23.8C22.8 24.3 22.2 24.8 21.6 25.3C21.3 25.5 21 25.8 20.7 26C20.4 26.2 20.1 26.4 19.8 26.6C19.2 27 18.5 27.3 17.9 27.6C17.3 27.9 16.7 28.1 16.1 28.3C15.5 28.5 14.9 28.6 14.5 28.7C14 28.8 13.6 28.8 13.3 28.9C13 28.9 12.8 29 12.6 29C12.4 28.2 12.3 27.5 12.3 27C12.5 27 12.8 27 13.2 27C13.5 27 14 27 14.4 26.9C14.8 26.8 15.3 26.8 15.8 26.7C16.3 26.5 16.9 26.4 17.5 26.2C18.1 26 18.7 25.8 19.3 25.4C19.6 25.2 19.9 25.1 20.2 24.9C20.5 24.7 20.8 24.5 21.1 24.3C21.7 23.9 22.3 23.5 22.9 23C24.1 22.1 25.3 21.1 26.4 20.2C27 19.8 27.5 19.3 28.1 19C28.6 18.6 29.2 18.3 29.7 18C30.2 17.7 30.7 17.5 31.1 17.3C31.6 17.2 31.9 17 32.3 17C33 16.9 33.3 16.9 33.3 16.9C33.3 16.9 32.9 17 32.3 17.1C32 17.2 31.6 17.3 31.2 17.5C30.8 17.7 30.3 17.9 29.9 18.2C29.4 18.5 28.9 18.9 28.5 19.3C28 19.7 27.5 20.2 27 20.7C26.4 21.3 25.8 21.9 25.1 22.5C25.3 22.7 25.5 22.8 25.8 23C26.4 23.4 27 23.9 27.6 24.3C27.9 24.5 28.2 24.7 28.5 24.9C28.8 25.1 29.1 25.2 29.4 25.4C30 25.7 30.6 25.9 31.2 26.2C31.8 26.4 32.4 26.5 32.9 26.7C33.4 26.8 33.9 26.9 34.3 26.9C34.7 27 35.1 26.9 35.5 27C35.2 27 35.4 27 35.6 27ZM32 15C32 15 29.9 14 28.4 12.3C28.3 12.7 28.1 13 27.8 13.3C27.3 13.8 26.7 14.3 26.1 14.5C25.9 14.6 25.6 14.6 25.4 14.7C28.1 14.5 30.5 14.5 32 15ZM23.5 14.9C23.3 14.9 23.1 14.9 22.9 14.8C22.6 14.7 22.2 14.6 21.9 14.5C21.2 14.2 20.6 13.8 20.2 13.3C19.9 13 19.7 12.6 19.6 12.2C18 14.2 15.1 16.2 11 17C11 17 17.5 15.6 23.5 14.9Z" fill="#2979FF"/>
</svg>
