<svg width="48" height="48" viewBox="0 0 48 48" fill="none" xmlns="http://www.w3.org/2000/svg">
<path d="M24 4C12.947 4 4 12.947 4 24C4 35.053 12.947 44 24 44C35.053 44 44 35.053 44 24C44 12.947 35.053 4 24 4Z" fill="#FF3D00"/>
<path d="M24 8C15.146 8 8 15.146 8 24C8 32.854 15.146 40 24 40C32.854 40 40 32.854 40 24C40 15.146 32.854 8 24 8ZM24 36C17.344 36 12 30.656 12 24C12 17.344 17.344 12 24 12C30.656 12 36 17.344 36 24C36 30.656 30.656 36 24 36ZM24 16C19.545 16 16 19.545 16 24C16 28.455 19.545 32 24 32C28.455 32 32 28.455 32 24C32 19.545 28.455 16 24 16ZM24 28C21.734 28 20 26.266 20 24C20 21.734 21.734 20 24 20C26.266 20 28 21.734 28 24C28 26.266 26.266 28 24 28Z" fill="white"/>
<path d="M43 9C43 9 42.398 11.301 40.801 12.801C39.199 14.399 32.801 15.199 32.801 15.199C32.801 15.199 33.602 8.699 35.199 7.199C36.699 5.602 39 5 39 5V9H43Z" fill="#1976D2"/>
<path d="M42.699 5.30101C42.301 4.89901 41.699 4.89901 41.301 5.30101L23.301 23.301C22.899 23.699 22.899 24.301 23.301 24.699C23.5 24.898 23.801 25 24 25C24.199 25 24.5 24.898 24.699 24.699L42.699 6.69901C43.102 6.30101 43.102 5.69901 42.699 5.30101Z" fill="#37474F"/>
<path d="M38.977 7.72699L40.391 9.14099L34.524 15.012L33.11 13.598L38.977 7.72699Z" fill="#42A5F5"/>
</svg>
