<svg width="96" height="96" viewBox="0 0 96 96" fill="none" xmlns="http://www.w3.org/2000/svg">
<g id="Graduation Cap" clip-path="url(#clip0_370_9960)">
<path id="Vector" d="M92 33.63H88V76H92V33.63Z" fill="#3A41AC"/>
<path id="Vector_2" d="M90 85.2C90 85.2 94 80.21 94 78C94 75.79 92.21 74 90 74C87.79 74 86 75.79 86 78C86 80.21 90 85.2 90 85.2Z" fill="#3A41AC"/>
<path id="Vector_3" d="M44.704 56.77L1.31801 38.692C-0.439988 37.96 -0.439988 35.468 1.31801 34.736L44.704 16.66C46.814 15.78 49.188 15.78 51.298 16.66L94.682 34.736C96.44 35.468 96.44 37.96 94.682 38.692L51.298 56.768C49.186 57.648 46.814 57.648 44.704 56.77Z" fill="#5059C9"/>
<path id="Vector_4" d="M48 36C31.432 36 18 38.878 18 42.428V70C35.142 70 48 78 48 78C48 78 60.858 70 78 70V42.428C78 38.878 64.568 36 48 36Z" fill="#7B83EB"/>
</g>
<defs>
<clipPath id="clip0_370_9960">
<rect width="96" height="96" fill="white"/>
</clipPath>
</defs>
</svg>
