<svg width="96" height="96" viewBox="0 0 96 96" fill="none" xmlns="http://www.w3.org/2000/svg">
<g id="Group Of Companies">
<path id="Vector" d="M14 14V56C14 57.104 14.896 58 16 58H52C53.104 58 54 57.104 54 56V14C54 11.79 52.21 10 50 10H18C15.79 10 14 11.79 14 14Z" fill="#0D62AB"/>
<path id="Vector_2" d="M24 32H20V36H24V32Z" fill="#199BE2"/>
<path id="Vector_3" d="M24 24H20V28H24V24Z" fill="#199BE2"/>
<path id="Vector_4" d="M24 40H20V44H24V40Z" fill="#199BE2"/>
<path id="Vector_5" d="M24 48H20V52H24V48Z" fill="#199BE2"/>
<path id="Vector_6" d="M54 18H14C12.894 18 12 17.104 12 16C12 14.896 12.894 14 14 14H54C55.106 14 56 14.896 56 16C56 17.104 55.106 18 54 18Z" fill="#0078D4"/>
<path id="Vector_7" d="M28 28V70C28 71.104 28.896 72 30 72H66C67.104 72 68 71.104 68 70V28C68 25.79 66.21 24 64 24H32C29.79 24 28 25.79 28 28Z" fill="#199BE2"/>
<path id="Vector_8" d="M38 46H34V50H38V46Z" fill="#0078D4"/>
<path id="Vector_9" d="M38 38H34V42H38V38Z" fill="#0078D4"/>
<path id="Vector_10" d="M38 54H34V58H38V54Z" fill="#0078D4"/>
<path id="Vector_11" d="M38 62H34V66H38V62Z" fill="#0078D4"/>
<path id="Vector_12" d="M68 32H28C26.894 32 26 31.104 26 30C26 28.896 26.894 28 28 28H68C69.106 28 70 28.896 70 30C70 31.104 69.106 32 68 32Z" fill="#35C1F1"/>
<path id="Vector_13" d="M42 42V84C42 85.104 42.896 86 44 86H80C81.104 86 82 85.104 82 84V42C82 39.79 80.21 38 78 38H46C43.79 38 42 39.79 42 42Z" fill="#35C1F1"/>
<g id="Group">
<path id="Vector_14" d="M68 60H64V64H68V60Z" fill="#199BE2"/>
<path id="Vector_15" d="M60 60H56V64H60V60Z" fill="#199BE2"/>
<path id="Vector_16" d="M52 60H48V64H52V60Z" fill="#199BE2"/>
<path id="Vector_17" d="M68 52H64V56H68V52Z" fill="#199BE2"/>
<path id="Vector_18" d="M60 52H56V56H60V52Z" fill="#199BE2"/>
<path id="Vector_19" d="M76 60H72V64H76V60Z" fill="#199BE2"/>
<path id="Vector_20" d="M76 52H72V56H76V52Z" fill="#199BE2"/>
<path id="Vector_21" d="M52 52H48V56H52V52Z" fill="#199BE2"/>
<path id="Vector_22" d="M68 68H64V72H68V68Z" fill="#199BE2"/>
<path id="Vector_23" d="M60 68H56V72H60V68Z" fill="#199BE2"/>
<path id="Vector_24" d="M52 68H48V72H52V68Z" fill="#199BE2"/>
<path id="Vector_25" d="M76 68H72V72H76V68Z" fill="#199BE2"/>
<path id="Vector_26" d="M68 76H64V80H68V76Z" fill="#199BE2"/>
<path id="Vector_27" d="M60 76H56V80H60V76Z" fill="#199BE2"/>
<path id="Vector_28" d="M76 76H72V80H76V76Z" fill="#199BE2"/>
<path id="Vector_29" d="M52 76H48V80H52V76Z" fill="#199BE2"/>
</g>
<path id="Vector_30" d="M82 46H42C40.894 46 40 45.104 40 44C40 42.896 40.894 42 42 42H82C83.106 42 84 42.896 84 44C84 45.104 83.106 46 82 46Z" fill="#50E6FF"/>
</g>
</svg>
