<svg width="48" height="48" viewBox="0 0 48 48" fill="none" xmlns="http://www.w3.org/2000/svg">
<path d="M45 39H23V36C23 36 26.044 29 34 29C41.955 29 45 36 45 36V39ZM34 26C37.314 26 40 23.314 40 20C40 16.686 37.314 14 34 14C30.686 14 28 16.686 28 20C28 23.314 30.686 26 34 26Z" fill="#CFD8DC"/>
<path d="M24 16C24 19.867 20.866 23 17 23C13.133 23 10 19.867 10 16C10 12.133 13.133 9 17 9C20.866 9 24 12.133 24 16Z" fill="#FFB74D"/>
<path d="M31 35C31 35 27.125 26 17 26C6.874 26 3 35 3 35V39H31V35Z" fill="#546E7A"/>
</svg>
