<svg width="48" height="48" viewBox="0 0 48 48" fill="none" xmlns="http://www.w3.org/2000/svg">
<path d="M22.034 17.85L4 36.507L10.333 43.01L28.337 24.211L22.034 17.85Z" fill="#FFC107"/>
<path d="M44 23L39 17.997C38.156 18.778 36.855 18.371 36.549 18.051L35.386 16.845C35.651 16.452 35.799 15.989 35.797 15.5C35.799 14.869 35.566 14.279 35.139 13.839L32.086 10.664C32.07 10.646 32.033 10.613 32.002 10.587L31.36 9.918C30.033 8.54 28.794 7.251 28.479 6.926C25.789 4.127 15.973 4.014 14.863 4.01H14.86C14.477 4.01 14 4.01 14 4.01V5.99C14 5.99 14.583 6.158 14.553 6.158C14.709 6.221 17.68 7.101 21.296 11.041C22.918 12.807 24.615 15.15 23.47 16.317C23.444 16.346 23.308 16.497 22.809 17.017C22.762 17.066 22.738 17.111 22.7 17.16L21.294 18.62L27.759 24.842L29.48 23.055C29.493 23.044 29.496 23.028 29.506 23.016L30.417 22.067C30.458 22.11 30.677 22.337 31.554 23.247C31.882 23.589 32.251 24.845 31.251 25.752C31.409 25.918 36.251 30.984 36.251 30.984L44 23Z" fill="#78909C"/>
<path d="M39 17.997C38.156 18.778 36.855 18.371 36.549 18.051L35.391 16.85L30.418 22.07C30.464 22.117 30.686 22.347 31.553 23.247C31.881 23.589 32.25 24.845 31.25 25.752L39 17.997Z" fill="#546E7A"/>
</svg>
