<svg width="48" height="48" viewBox="0 0 48 48" fill="none" xmlns="http://www.w3.org/2000/svg">
<path d="M34 6C29.824 6 26.148 8.137 24 11.371C21.851 8.137 18.176 6 14 6C7.373 6 2 11.373 2 18C2 29.943 24 42 24 42C24 42 46 30.045 46 18C46 11.373 40.627 6 34 6Z" fill="#F44336"/>
<path d="M29.006 25H32.462C33.015 25 33.462 24.552 33.462 24C33.462 23.448 33.015 23 32.462 23H27.66L26.477 25.904L23.191 18.222L19.653 28.488L15.177 10.588L11.3 24.495L8.5 17.962L6.34 23H3.19C3.494 23.673 3.848 24.34 4.248 25H7.659L8.5 23.038L11.7 30.506L15.072 18.412L19.346 35.512L23.392 23.778L26.522 31.096L29.006 25Z" fill="#FFEBEE"/>
<path d="M34 22C33.4696 22 32.9609 22.2107 32.5858 22.5858C32.2107 22.9609 32 23.4696 32 24C32 24.5304 32.2107 25.0391 32.5858 25.4142C32.9609 25.7893 33.4696 26 34 26C34.5304 26 35.0391 25.7893 35.4142 25.4142C35.7893 25.0391 36 24.5304 36 24C36 23.4696 35.7893 22.9609 35.4142 22.5858C35.0391 22.2107 34.5304 22 34 22Z" fill="#FFEBEE"/>
</svg>
