<svg width="48" height="48" viewBox="0 0 48 48" fill="none" xmlns="http://www.w3.org/2000/svg">
<path d="M44 7L30.7 9.2L17 7C15.9 7 15 7.9 15 9C15 10.1 15.9 11 17 11H44C45.1 11 46 10.1 46 9C46 7.9 45.1 7 44 7Z" fill="#42A5F5"/>
<path d="M29 9.5H32V18H29V9.5Z" fill="#455A64"/>
<path d="M32 9.5C32 10.3 31.3 11 30.5 11C29.7 11 29 10.3 29 9.5C29 8.7 29.7 8 30.5 8C31.3 8 32 8.7 32 9.5Z" fill="#455A64"/>
<path d="M12 18C12 20.8 9.8 23 7 23C4.2 23 2 20.8 2 18C2 15.2 4.2 13 7 13C9.8 13 12 15.2 12 18Z" fill="#42A5F5"/>
<path d="M6.99999 18L5.39999 13.3C5.89999 13.1 6.39999 13 6.99999 13C7.59999 13 8.09999 13.1 8.59999 13.3L6.99999 18ZM6.99999 23C6.39999 23 5.89999 22.9 5.39999 22.7L6.99999 18L8.59999 22.7C8.09999 22.9 7.59999 23 6.99999 23Z" fill="#1976D2"/>
<path d="M37 31H39V38H37V31ZM29 30H31V38H29V30Z" fill="#455A64"/>
<path d="M42 40H22V38H42C42.5 38 44 37.8 44 36H46C46 38.9 43.6 40 42 40Z" fill="#455A64"/>
<path d="M35 16C29 15 24 17 24 17L25.7 22H21L22.3 25.9C25 33 34 33 34 33H40C43.3 33 46 31 46 28C46 21 39.1 16.7 35 16Z" fill="#FFC107"/>
<path d="M21 22L7 19V17H24L26 22H21Z" fill="#FFC107"/>
<path d="M8 18C8 18.6 7.6 19 7 19C6.4 19 6 18.6 6 18C6 17.4 6.4 17 7 17C7.6 17 8 17.4 8 18Z" fill="#FFC107"/>
<path d="M35.8 16.2C39.9 17.2 46 21.4 46 28C46 28.6 45.9 29.2 45.6 29.8L40 28.8L35.8 16.2ZM34.4 18.4L34.2 17.8C33.5 17.7 32.9 17.7 32.1 17.7C31 17.7 30 17.8 29.1 17.9L31 24L36.6 24.9L34.4 18.4Z" fill="#455A64"/>
</svg>
