<svg width="48" height="48" viewBox="0 0 48 48" fill="none" xmlns="http://www.w3.org/2000/svg">
<path d="M44 24C44 35.044 35.044 44 24 44C12.956 44 4 35.044 4 24C4 12.956 12.956 4 24 4C35.044 4 44 12.956 44 24Z" fill="#2196F3"/>
<path d="M23.758 31.145C23.031 31.145 22.43 31.379 21.961 31.856C21.492 32.329 21.258 32.93 21.258 33.661C21.258 34.38 21.488 34.974 21.946 35.442C22.407 35.911 23.009 36.145 23.762 36.145C24.512 36.145 25.114 35.911 25.575 35.442C26.032 34.973 26.263 34.379 26.263 33.661C26.263 32.931 26.029 32.329 25.56 31.856C25.094 31.387 24.48 31.145 23.758 31.145ZM29.184 14.586C27.969 13.527 26.266 13 24.07 13C21.894 13 20.175 13.559 18.918 14.672C17.727 15.727 17.094 17.176 17.016 19H17V20H21.5L21.508 19.297C21.528 18.473 21.77 17.824 22.231 17.356C22.688 16.883 23.305 16.649 24.071 16.649C25.688 16.649 26.493 17.52 26.493 19.266C26.493 19.844 26.341 20.395 26.028 20.914C25.719 21.434 25.094 22.109 24.157 22.941C23.219 23.769 22.575 24.613 22.223 25.468C21.868 26.323 21.692 27.554 21.692 28.999H25.672L25.735 27.976C25.848 26.964 26.298 26.085 27.087 25.331L28.349 24.14C29.329 23.191 30.021 22.327 30.412 21.55C30.807 20.769 31.006 19.941 31.006 19.066C31 17.137 30.395 15.645 29.184 14.586Z" fill="#E3F2FD"/>
</svg>
