<svg width="48" height="48" viewBox="0 0 48 48" fill="none" xmlns="http://www.w3.org/2000/svg">
<path d="M35 15V12H13V15C13 19.9 23 24 23 24C23 24 13 28.1 13 33C13 37.9 13 36 13 36H35C35 36 35 37.9 35 33C35 28.1 25 24 25 24C25 24 35 19.9 35 15Z" fill="#CFD8DC"/>
<path d="M9 40H39V44H9V40ZM9 4H39V8H9V4Z" fill="#8D6E63"/>
<path d="M13 8H35V12H13V8ZM13 36H35V40H13V36Z" fill="#6D4C41"/>
<path d="M23.4 22H24.5C27.2 20.7 32.9 17.6 32.9 15C32.9 15 28.4 17 23.9 17C19.4 17 14.9 15 14.9 15C15 17.6 20.8 20.7 23.4 22ZM24 26.8C24 26.8 16 30.2 16 36H32C32 30.4 24 26.8 24 26.8Z" fill="#F57C00"/>
</svg>
