<svg width="48" height="48" viewBox="0 0 48 48" fill="none" xmlns="http://www.w3.org/2000/svg">
<path d="M42 39H6V23L24 6L42 23V39Z" fill="#E8EAF6"/>
<path d="M39 21L34 16V9H39V21ZM6 39H42V44H6V39Z" fill="#C5CAE9"/>
<path d="M24 4.29999L4 22.9L6 25.1L24 8.39999L42 25.1L44 22.9L24 4.29999Z" fill="#B71C1C"/>
<path d="M18 28H30V44H18V28Z" fill="#D84315"/>
<path d="M21 17H27V23H21V17Z" fill="#01579B"/>
<path d="M27.5 35.5C27.2 35.5 27 35.7 27 36V38C27 38.3 27.2 38.5 27.5 38.5C27.8 38.5 28 38.3 28 38V36C28 35.7 27.8 35.5 27.5 35.5Z" fill="#FF8A65"/>
</svg>
