<svg width="96" height="96" viewBox="0 0 96 96" fill="none" xmlns="http://www.w3.org/2000/svg">
<g id="Hotel Bed">
<path id="Vector" d="M50 12C47.2311 12 44.5243 12.8211 42.222 14.3594C39.9197 15.8978 38.1253 18.0843 37.0657 20.6424C36.0061 23.2006 35.7288 26.0155 36.269 28.7313C36.8092 31.447 38.1426 33.9416 40.1005 35.8995C42.0584 37.8574 44.553 39.1908 47.2687 39.731C49.9845 40.2712 52.7994 39.9939 55.3576 38.9343C57.9157 37.8747 60.1022 36.0803 61.6406 33.778C63.1789 31.4757 64 28.7689 64 26C64 22.287 62.525 18.726 59.8995 16.1005C57.274 13.475 53.713 12 50 12Z" fill="url(#paint0_linear_370_10017)"/>
<path id="Vector_2" d="M28 44C29.5823 44 31.129 44.4692 32.4446 45.3482C33.7602 46.2273 34.7855 47.4767 35.391 48.9385C35.9965 50.4003 36.155 52.0089 35.8463 53.5607C35.5376 55.1126 34.7757 56.538 33.6569 57.6569C32.538 58.7757 31.1126 59.5376 29.5607 59.8463C28.0089 60.155 26.4003 59.9965 24.9385 59.391C23.4767 58.7855 22.2273 57.7602 21.3482 56.4446C20.4692 55.129 20 53.5823 20 52C20.0004 49.8784 20.8434 47.8438 22.3436 46.3436C23.8438 44.8434 25.8784 44.0004 28 44Z" fill="url(#paint1_linear_370_10017)"/>
<path id="Vector_3" d="M40 70H16C15.7373 70.0002 15.4771 69.9487 15.2344 69.8482C14.9916 69.7478 14.771 69.6005 14.5853 69.4148C14.3995 69.229 14.2522 69.0084 14.1518 68.7656C14.0513 68.5229 13.9998 68.2627 14 68V62C13.9998 61.7373 14.0513 61.4771 14.1518 61.2343C14.2522 60.9916 14.3995 60.771 14.5853 60.5853C14.771 60.3995 14.9916 60.2522 15.2344 60.1518C15.4771 60.0513 15.7373 59.9998 16 60H40C40.2627 59.9998 40.5229 60.0513 40.7657 60.1518C41.0084 60.2522 41.229 60.3995 41.4147 60.5853C41.6005 60.771 41.7478 60.9916 41.8482 61.2343C41.9487 61.4771 42.0002 61.7373 42 62V68C42.0002 68.2627 41.9487 68.5229 41.8482 68.7656C41.7478 69.0084 41.6005 69.229 41.4147 69.4148C41.229 69.6005 41.0084 69.7478 40.7657 69.8482C40.5229 69.9487 40.2627 70.0002 40 70Z" fill="#F3E5F5"/>
<path id="Vector_4" d="M88 68H38V50C38 49.4696 38.2107 48.9609 38.5858 48.5858C38.9609 48.2107 39.4696 48 40 48H84C85.0609 48 86.0783 48.4214 86.8284 49.1716C87.5786 49.9217 88 50.9391 88 52V68Z" fill="url(#paint2_linear_370_10017)"/>
<path id="Vector_5" d="M16 84H10C9.46957 84 8.96086 83.7893 8.58579 83.4142C8.21071 83.0391 8 82.5304 8 82V41C8 39.6739 8.52678 38.4021 9.46447 37.4645C10.4021 36.5268 11.6739 36 13 36C14.3261 36 15.5979 36.5268 16.5355 37.4645C17.4732 38.4021 18 39.6739 18 41V66H86C86.5304 66 87.0391 66.2107 87.4142 66.5858C87.7893 66.9609 88 67.4696 88 68V82C88 82.5304 87.7893 83.0391 87.4142 83.4142C87.0391 83.7893 86.5304 84 86 84H80C79.4696 84 78.9609 83.7893 78.5858 83.4142C78.2107 83.0391 78 82.5304 78 82V76H18V82C18 82.5304 17.7893 83.0391 17.4142 83.4142C17.0391 83.7893 16.5304 84 16 84Z" fill="url(#paint3_linear_370_10017)"/>
<path id="Vector_6" d="M50 22C50.5304 22 51.0391 22.2107 51.4142 22.5858C51.7893 22.9609 52 23.4696 52 24V34C52 34.5304 51.7893 35.0391 51.4142 35.4142C51.0391 35.7893 50.5304 36 50 36C49.4696 36 48.9609 35.7893 48.5858 35.4142C48.2107 35.0391 48 34.5304 48 34V24C48 23.4696 48.2107 22.9609 48.5858 22.5858C48.9609 22.2107 49.4696 22 50 22ZM50 16C49.6044 16 49.2178 16.1173 48.8889 16.3371C48.56 16.5568 48.3036 16.8692 48.1522 17.2346C48.0009 17.6001 47.9613 18.0022 48.0384 18.3902C48.1156 18.7781 48.3061 19.1345 48.5858 19.4142C48.8655 19.6939 49.2219 19.8844 49.6098 19.9616C49.9978 20.0387 50.3999 19.9991 50.7654 19.8478C51.1308 19.6964 51.4432 19.44 51.6629 19.1111C51.8827 18.7822 52 18.3956 52 18C52 17.4696 51.7893 16.9609 51.4142 16.5858C51.0391 16.2107 50.5304 16 50 16Z" fill="white"/>
</g>
<defs>
<linearGradient id="paint0_linear_370_10017" x1="33.414" y1="9.414" x2="64.22" y2="40.22" gradientUnits="userSpaceOnUse">
<stop stop-color="#21AD64"/>
<stop offset="1" stop-color="#088242"/>
</linearGradient>
<linearGradient id="paint1_linear_370_10017" x1="28" y1="42.25" x2="28" y2="61.62" gradientUnits="userSpaceOnUse">
<stop stop-color="#FFCF54"/>
<stop offset="0.261" stop-color="#FDCB4D"/>
<stop offset="0.639" stop-color="#F7C13A"/>
<stop offset="1" stop-color="#F0B421"/>
</linearGradient>
<linearGradient id="paint2_linear_370_10017" x1="38" y1="58" x2="88" y2="58" gradientUnits="userSpaceOnUse">
<stop stop-color="#C965EB"/>
<stop offset="1" stop-color="#C767E5"/>
</linearGradient>
<linearGradient id="paint3_linear_370_10017" x1="8" y1="60" x2="88" y2="60" gradientUnits="userSpaceOnUse">
<stop stop-color="#7819A2"/>
<stop offset="1" stop-color="#771AA9"/>
</linearGradient>
</defs>
</svg>
