<svg width="48" height="48" viewBox="0 0 48 48" fill="none" xmlns="http://www.w3.org/2000/svg">
<path d="M44 36H30V16C30 14.9 30.9 14 32 14H40C40.6 14 41.2 14.3 41.6 14.8L47.6 22.5C47.9 22.9 48 23.3 48 23.7V32C48 34.2 46.2 36 44 36Z" fill="#FFC107"/>
<path d="M8 36H30V13C30 10.8 28.2 9 26 9H4V32C4 34.2 5.8 36 8 36Z" fill="#9575CD"/>
<path d="M0 9H10V11H0V9ZM0 14H10V16H0V14ZM0 19H10V21H0V19ZM0 24H10V26H0V24Z" fill="#9575CD"/>
<path d="M4 11H20V13H4V11ZM4 16H16V18H4V16ZM4 21H12V23H4V21ZM4 26H8V28H4V26Z" fill="#7E57C2"/>
<path d="M39 31C37.6739 31 36.4021 31.5268 35.4645 32.4645C34.5268 33.4021 34 34.6739 34 36C34 37.3261 34.5268 38.5979 35.4645 39.5355C36.4021 40.4732 37.6739 41 39 41C40.3261 41 41.5979 40.4732 42.5355 39.5355C43.4732 38.5979 44 37.3261 44 36C44 34.6739 43.4732 33.4021 42.5355 32.4645C41.5979 31.5268 40.3261 31 39 31ZM16 31C14.6739 31 13.4021 31.5268 12.4645 32.4645C11.5268 33.4021 11 34.6739 11 36C11 37.3261 11.5268 38.5979 12.4645 39.5355C13.4021 40.4732 14.6739 41 16 41C17.3261 41 18.5979 40.4732 19.5355 39.5355C20.4732 38.5979 21 37.3261 21 36C21 34.6739 20.4732 33.4021 19.5355 32.4645C18.5979 31.5268 17.3261 31 16 31Z" fill="#37474F"/>
<path d="M39 33.5C38.337 33.5 37.7011 33.7634 37.2322 34.2322C36.7634 34.7011 36.5 35.337 36.5 36C36.5 36.663 36.7634 37.2989 37.2322 37.7678C37.7011 38.2366 38.337 38.5 39 38.5C39.663 38.5 40.2989 38.2366 40.7678 37.7678C41.2366 37.2989 41.5 36.663 41.5 36C41.5 35.337 41.2366 34.7011 40.7678 34.2322C40.2989 33.7634 39.663 33.5 39 33.5ZM16 33.5C15.337 33.5 14.7011 33.7634 14.2322 34.2322C13.7634 34.7011 13.5 35.337 13.5 36C13.5 36.663 13.7634 37.2989 14.2322 37.7678C14.7011 38.2366 15.337 38.5 16 38.5C16.663 38.5 17.2989 38.2366 17.7678 37.7678C18.2366 37.2989 18.5 36.663 18.5 36C18.5 35.337 18.2366 34.7011 17.7678 34.2322C17.2989 33.7634 16.663 33.5 16 33.5Z" fill="#78909C"/>
<path d="M44 26H40.4C40.1 26 39.9 25.9 39.7 25.7L38.3 24.3C38.1 24.1 37.9 24 37.6 24H34C33.4 24 33 23.6 33 23V17C33 16.4 33.4 16 34 16H39.5C39.8 16 40.1 16.1 40.3 16.4L44.8 21.8C44.9 22 45 22.2 45 22.4V25C45 25.6 44.6 26 44 26Z" fill="#455A64"/>
</svg>
