<svg width="21" height="21" viewBox="0 0 21 21" fill="none" xmlns="http://www.w3.org/2000/svg">
<path d="M17.4009 0.600098H4.20093C2.32316 0.600098 0.800781 2.12235 0.800781 4.00012V16.7001C0.800781 18.5778 2.32316 20.1001 4.20093 20.1001H17.4009C19.2786 20.1001 20.8008 18.5778 20.8008 16.7001V4.00012C20.8008 2.12235 19.2786 0.600098 17.4009 0.600098Z" fill="#728092"/>
<path d="M10.89 7.25043C11.565 7.25043 12.1124 6.63485 12.1124 5.87546C12.1124 5.11607 11.565 4.50049 10.89 4.50049C10.215 4.50049 9.66797 5.11607 9.66797 5.87546C9.66797 6.63485 10.215 7.25043 10.89 7.25043Z" fill="white"/>
<path d="M12.1127 9.12549H9.7793V16.5005H12.1127V9.12549Z" fill="white"/>
</svg>
