<svg width="48" height="48" viewBox="0 0 48 48" fill="none" xmlns="http://www.w3.org/2000/svg">
<path d="M16 11.999C13.8783 11.999 11.8434 12.8419 10.3431 14.3422C8.84285 15.8425 8 17.8773 8 19.999C8 22.1208 8.84285 24.1556 10.3431 25.6559C11.8434 27.1562 13.8783 27.999 16 27.999C18.1217 27.999 20.1566 27.1562 21.6569 25.6559C23.1571 24.1556 24 22.1208 24 19.999C24 17.8773 23.1571 15.8425 21.6569 14.3422C20.1566 12.8419 18.1217 11.999 16 11.999Z" fill="#FFB300"/>
<path d="M17 25.999C14.8783 25.999 12.8434 26.8419 11.3431 28.3422C9.84285 29.8425 9 31.8773 9 33.999C9 36.1208 9.84285 38.1556 11.3431 39.6559C12.8434 41.1562 14.8783 41.999 17 41.999C19.1217 41.999 21.1566 41.1562 22.6569 39.6559C24.1571 38.1556 25 36.1208 25 33.999C25 31.8773 24.1571 29.8425 22.6569 28.3422C21.1566 26.8419 19.1217 25.999 17 25.999Z" fill="#FFB300"/>
<path d="M38 25.872C38 19.705 34.223 21.129 34.223 7.84698C34.223 7.84698 26.666 7.84698 24.778 7.84698C24.778 21.129 21 19.705 21 25.872V40.578C21 41.363 21.635 42 22.417 42H36.584C37.365 42 38 41.363 38 40.578V25.872Z" fill="#90CAF9"/>
<path d="M35 7.501C35 8.329 34.384 9 33.625 9H25.375C24.616 9 24 8.329 24 7.501V6.501C24 5.673 24.616 5 25.375 5H33.625C34.384 5 35 5.673 35 6.501V7.501Z" fill="#9C27B0"/>
<path d="M36.111 38.68C36.111 38.943 35.9 39.155 35.638 39.155H23.361C23.1 39.155 22.888 38.943 22.888 38.68V25.872C22.888 23.82 23.35 22.888 24.049 21.476C24.68 20.204 25.39 18.756 25.914 16.384H33.086C33.609 18.756 34.32 20.203 34.951 21.476C35.649 22.887 36.111 23.82 36.111 25.872V38.68Z" fill="#FAFAFA"/>
<path d="M8 26.001L10 42H38L40 26.001H8ZM15 39H13V35H15V39ZM15 33H13V29H15V33ZM20 39H18V35H20V39ZM20 33H18V29H20V33ZM25 39H23V35H25V39ZM25 33H23V29H25V33ZM30 39H28V35H30V39ZM30 33H28V29H30V33ZM35 39H33V35H35V39ZM35 33H33V29H35V33Z" fill="#E91E63"/>
<path d="M41.494 24C41.494 23.448 41.047 23 40.494 23H7.506C6.954 23 6.506 23.448 6.506 24V26.001C6.506 26.553 6.954 27.001 7.506 27.001H40.494C41.047 27.001 41.494 26.553 41.494 26.001V24Z" fill="#AD1457"/>
<path d="M16 15.53C16 15.53 15 9.00102 7 10.001C9 17.001 16 15.53 16 15.53Z" fill="#4CAF50"/>
</svg>
