<svg width="48" height="48" viewBox="0 0 48 48" fill="none" xmlns="http://www.w3.org/2000/svg">
<path d="M44 14V10H4V14H44ZM44 22V18H4V22H44ZM44 30V26H4V30H44ZM44 38V34H4V38H44Z" fill="#FF9800"/>
<path d="M9 9V39C9 41.2 10.8 43 13 43H35C37.2 43 39 41.2 39 39V9C39 6.8 37.2 5 35 5H13C10.8 5 9 6.8 9 9Z" fill="#4CAF50"/>
<path d="M18 11C17.606 11 17.2159 11.0776 16.8519 11.2284C16.488 11.3791 16.1573 11.6001 15.8787 11.8787C15.6001 12.1573 15.3791 12.488 15.2284 12.8519C15.0776 13.2159 15 13.606 15 14C15 14.394 15.0776 14.7841 15.2284 15.1481C15.3791 15.512 15.6001 15.8427 15.8787 16.1213C16.1573 16.3999 16.488 16.6209 16.8519 16.7716C17.2159 16.9224 17.606 17 18 17C18.394 17 18.7841 16.9224 19.1481 16.7716C19.512 16.6209 19.8427 16.3999 20.1213 16.1213C20.3999 15.8427 20.6209 15.512 20.7716 15.1481C20.9224 14.7841 21 14.394 21 14C21 13.606 20.9224 13.2159 20.7716 12.8519C20.6209 12.488 20.3999 12.1573 20.1213 11.8787C19.8427 11.6001 19.512 11.3791 19.1481 11.2284C18.7841 11.0776 18.394 11 18 11Z" fill="#1B5E20"/>
</svg>
