<svg width="48" height="48" viewBox="0 0 48 48" fill="none" xmlns="http://www.w3.org/2000/svg">
<path d="M30 41L26 45H22L18 41V21H30V29L28 31L30 33V35L28 37L30 39V41Z" fill="#FFA000"/>
<path d="M38 7.8C37.5 6 36 4.7 34.3 4.2C31.9 3.7 28.2 3 24 3C19.8 3 16.1 3.7 13.7 4.2C12 4.7 10.5 6 10 7.8C9.5 9.5 9 11.9 9 14.5C9 17.1 9.5 19.5 10 21.2C10.5 23 11.9 24.3 13.7 24.7C16.1 25.3 19.8 26 24 26C28.2 26 31.9 25.3 34.3 24.8C36.1 24.4 37.5 23 38 21.3C38.5 19.6 39 17.2 39 14.6C39 11.9 38.5 9.5 38 7.8ZM29 13H19C17.9 13 17 12.1 17 11V9C17 8.4 20.1 8 24 8C27.9 8 31 8.4 31 9V11C31 12.1 30.1 13 29 13Z" fill="#FFA000"/>
<path d="M23 26H25V45H23V26Z" fill="#D68600"/>
</svg>
