<svg width="48" height="48" viewBox="0 0 48 48" fill="none" xmlns="http://www.w3.org/2000/svg">
<path d="M34 36C34 36.553 33.553 37 33 37H16C15.447 37 15 36.553 15 36C15 35.447 15.447 35 16 35H33C33.553 35 34 35.447 34 36Z" fill="#FFCA28"/>
<path d="M37 43H12V41C12 38.791 13.791 37 16 37H33C35.209 37 37 38.791 37 41V43ZM25 10V5C25 5 21 6 20 10" fill="#455A64"/>
<path d="M17 35C17 29 13 28 13 20C13 10 22 9 23 9C24 9 26 9 28 10L29 12C29 12 34 16 35 19L31.943 21.118C31.943 21.118 26 18 24 19C22 20 32 28 32 35" fill="#455A64"/>
<path d="M27 15C26.2044 15 25.4413 15.2634 24.8787 15.7322C24.3161 16.2011 24 16.837 24 17.5C24 18.163 24.3161 18.7989 24.8787 19.2678C25.4413 19.7366 26.2044 20 27 20C27.7956 20 28.5587 19.7366 29.1213 19.2678C29.6839 18.7989 30 18.163 30 17.5C30 16.837 29.6839 16.2011 29.1213 15.7322C28.5587 15.2634 27.7956 15 27 15Z" fill="#455A64"/>
</svg>
