<svg width="20" height="16" viewBox="0 0 20 16" fill="none" xmlns="http://www.w3.org/2000/svg">
<path d="M2.24324 1.0625H17.7841C18.7393 1.0625 19.5137 1.83685 19.5137 2.79207V13.5174C19.5137 14.4726 18.7393 15.247 17.7841 15.247H2.24324C1.28803 15.247 0.513672 14.4726 0.513672 13.5174V2.79207C0.513672 1.83685 1.28803 1.0625 2.24324 1.0625Z" fill="#CCDFFF" stroke="#2061D1"/>
<path d="M6.26805 11.3055C4.44004 11.3055 2.95312 9.81859 2.95312 7.99059C2.95312 7.05602 3.35066 6.16016 4.04412 5.53282C4.22555 5.36832 4.50616 5.38203 4.67066 5.56427C4.83516 5.7457 4.82145 6.02631 4.63921 6.19081C4.13121 6.65043 3.84011 7.3068 3.84011 7.99139C3.84011 9.32994 4.9295 10.4193 6.26805 10.4193C6.99054 10.4193 7.6703 10.1008 8.13395 9.54524C8.29038 9.35736 8.57019 9.33155 8.75887 9.48879C8.94675 9.64523 8.97256 9.92503 8.81532 10.1137C8.18314 10.8717 7.25502 11.3071 6.26885 11.3071L6.26805 11.3055Z" fill="#2061D1"/>
<path d="M9.58153 8.43419H6.26822C6.02389 8.43419 5.82553 8.23663 5.82472 7.99311L5.8086 4.6798C5.80779 4.43548 6.00454 4.23631 6.24887 4.23389H6.26822C8.33974 4.23389 10.025 5.91917 10.025 7.99069C10.025 8.23582 9.82666 8.43419 9.58153 8.43419ZM6.70929 7.5472H9.10336C8.91145 6.31428 7.93173 5.3394 6.6972 5.15313L6.70849 7.5472H6.70929Z" fill="#2061D1"/>
<path d="M16.7803 6.10965H11.797C11.5519 6.10965 11.3535 5.91128 11.3535 5.66615C11.3535 5.42102 11.5519 5.22266 11.797 5.22266H16.7803C17.0254 5.22266 17.2238 5.42102 17.2238 5.66615C17.2238 5.91128 17.0254 6.10965 16.7803 6.10965Z" fill="#2061D1"/>
<path d="M16.7803 8.43435H11.797C11.5519 8.43435 11.3535 8.23599 11.3535 7.99086C11.3535 7.74573 11.5519 7.54736 11.797 7.54736H16.7803C17.0254 7.54736 17.2238 7.74573 17.2238 7.99086C17.2238 8.23599 17.0254 8.43435 16.7803 8.43435Z" fill="#2061D1"/>
<path d="M16.7803 10.7595H11.797C11.5519 10.7595 11.3535 10.5612 11.3535 10.3161C11.3535 10.0709 11.5519 9.87256 11.797 9.87256H16.7803C17.0254 9.87256 17.2238 10.0709 17.2238 10.3161C17.2238 10.5612 17.0254 10.7595 16.7803 10.7595Z" fill="#2061D1"/>
</svg>
