<svg width="96" height="96" viewBox="0 0 96 96" fill="none" xmlns="http://www.w3.org/2000/svg">
<g id="Leave">
<path id="Vector" d="M12 80V24H84V80C84 82.2 82.2 84 80 84H16C13.8 84 12 82.2 12 80Z" fill="url(#paint0_linear_370_9644)"/>
<path id="Vector_2" opacity="0.07" d="M52.296 65.478C51.178 64.458 49.742 63.94 48.026 63.94C46.338 63.94 44.902 64.448 43.758 65.45C42.574 66.486 41.974 67.828 41.974 69.442C41.974 70.99 42.562 72.32 43.72 73.4C44.856 74.462 46.306 75 48.024 75C49.76 75 51.204 74.476 52.316 73.442C53.446 72.39 54.022 71.044 54.022 69.442C54.024 67.856 53.444 66.522 52.296 65.478Z" fill="black"/>
<path id="Vector_3" opacity="0.05" d="M52.97 64.74C52.072 63.918 51.006 63.376 49.784 63.116C51.818 62.998 53.45 61.368 53.544 59.308L54.43 40.184C54.48 39.098 54.078 38.022 53.326 37.236C52.578 36.452 51.524 36 50.436 36H45.506C44.42 36 43.366 36.45 42.616 37.236C41.864 38.02 41.462 39.092 41.51 40.176L42.35 59.3C42.442 61.412 44.146 63.074 46.248 63.124C45.058 63.38 44.004 63.908 43.1 64.7C41.712 65.918 40.976 67.558 40.976 69.444C40.976 71.254 41.69 72.876 43.038 74.132C44.37 75.372 46.046 76 48.028 76C50.026 76 51.7 75.386 52.998 74.174C54.322 72.942 55.024 71.306 55.024 69.442C55.024 67.59 54.314 65.964 52.97 64.74Z" fill="black"/>
<path id="Vector_4" d="M84 16V28H12V16C12 13.8 13.8 12 16 12H80C82.2 12 84 13.8 84 16Z" fill="url(#paint1_linear_370_9644)"/>
<path id="Vector_5" opacity="0.05" d="M71 25C67.686 25 65 22.314 65 19V12H77V19C77 22.314 74.314 25 71 25Z" fill="black"/>
<path id="Vector_6" opacity="0.07" d="M71 23.5C68.514 23.5 66.5 21.486 66.5 19V12H75.5V19C75.5 21.486 73.486 23.5 71 23.5Z" fill="black"/>
<path id="Vector_7" opacity="0.05" d="M25 25C21.686 25 19 22.314 19 19V12H31V19C31 22.314 28.314 25 25 25Z" fill="black"/>
<path id="Vector_8" opacity="0.07" d="M25 23.5C22.514 23.5 20.5 21.486 20.5 19V12H29.5V19C29.5 21.486 27.486 23.5 25 23.5Z" fill="black"/>
<path id="Vector_9" d="M25 22C23.344 22 22 20.656 22 19V11C22 9.344 23.344 8 25 8C26.656 8 28 9.344 28 11V19C28 20.656 26.656 22 25 22Z" fill="#3CCBF4"/>
<path id="Vector_10" d="M71 22C69.344 22 68 20.656 68 19V11C68 9.344 69.344 8 71 8C72.656 8 74 9.344 74 11V19C74 20.656 72.656 22 71 22Z" fill="#3CCBF4"/>
<path id="Vector_11" opacity="0.07" d="M46.346 62.124H49.55C51.158 62.124 52.474 60.868 52.546 59.262L53.432 40.138C53.472 39.312 53.178 38.526 52.606 37.928C52.034 37.33 51.264 37 50.436 37H45.506C44.678 37 43.908 37.33 43.338 37.926C42.766 38.522 42.472 39.306 42.508 40.132L43.348 59.256C43.42 60.864 44.736 62.124 46.346 62.124Z" fill="black"/>
<path id="Vector_12" d="M48.028 74C46.564 74 45.356 73.556 44.404 72.668C43.452 71.78 42.976 70.706 42.976 69.442C42.976 68.124 43.456 67.044 44.418 66.202C45.378 65.36 46.582 64.94 48.028 64.94C49.492 64.94 50.692 65.366 51.624 66.216C52.558 67.068 53.024 68.142 53.024 69.442C53.024 70.76 52.562 71.848 51.638 72.708C50.714 73.568 49.51 74 48.028 74ZM52.432 40.092L51.546 59.216C51.496 60.284 50.616 61.124 49.548 61.124H46.344C45.274 61.124 44.392 60.282 44.346 59.212L43.506 40.088C43.456 38.95 44.366 38 45.506 38H50.436C51.576 38 52.486 38.952 52.432 40.092Z" fill="white"/>
</g>
<defs>
<linearGradient id="paint0_linear_370_9644" x1="12.828" y1="27.324" x2="83.548" y2="78.976" gradientUnits="userSpaceOnUse">
<stop stop-color="#28AFEA"/>
<stop offset="1" stop-color="#047ED6"/>
</linearGradient>
<linearGradient id="paint1_linear_370_9644" x1="12.84" y1="13.216" x2="82.396" y2="27.36" gradientUnits="userSpaceOnUse">
<stop stop-color="#0077D2"/>
<stop offset="1" stop-color="#0B59A2"/>
</linearGradient>
</defs>
</svg>
