<svg width="48" height="48" viewBox="0 0 48 48" fill="none" xmlns="http://www.w3.org/2000/svg">
<path d="M33.895 22.761C33.895 19.877 27.971 17.538 20.664 17.538C13.357 17.538 7.433 19.877 7.433 22.761C7.433 24.25 9.019 25.59 11.55 26.541L10.915 40.518C10.915 40.518 10.959 44 20.664 44C30.369 44 30.413 40.518 30.413 40.518L29.778 26.541C32.309 25.59 33.895 24.25 33.895 22.761Z" fill="#455A64"/>
<path d="M29.941 30.148L29.777 26.541C27.403 27.433 24.199 27.984 20.663 27.984C17.127 27.984 13.923 27.433 11.549 26.541L11.385 30.148C14.19 31.036 17.473 31.465 20.662 31.465C23.851 31.465 27.137 31.036 29.941 30.148Z" fill="#90A4AE"/>
<path d="M20.664 20.324C16.049 20.324 12.308 21.259 12.308 22.413C12.308 23.567 16.049 24.502 20.664 24.502C25.279 24.502 29.02 23.567 29.02 22.413C29.02 21.26 25.279 20.324 20.664 20.324Z" fill="#212121"/>
<path d="M17.787 10.903L18.536 12.65L20.283 13.399L18.536 14.148L17.787 15.895L17.038 14.148L15.291 13.399L17.038 12.65L17.787 10.903Z" fill="#D500F9"/>
<path d="M24.995 15.409L25.366 16.274L26.232 16.645L25.366 17.016L24.995 17.882L24.624 17.016L23.759 16.645L24.624 16.274L24.995 15.409Z" fill="#D500F9"/>
<path d="M19.643 19.5L20.2 20.8L21.5 21.357L20.2 21.914L19.643 23.213L19.086 21.914L17.787 21.357L19.086 20.8L19.643 19.5Z" fill="#D500F9"/>
<path d="M40.212 4.69399L40.518 5.64599C40.687 6.17199 40.398 6.73499 39.873 6.90399L25.353 11.579L24.434 8.72299L38.954 4.04799C39.479 3.87899 40.042 4.16799 40.212 4.69399Z" fill="#607D8B"/>
<path d="M24.433 8.72299L25.352 11.579L23.448 12.192C22.922 12.361 22.359 12.072 22.19 11.547L21.884 10.595C21.715 10.069 22.004 9.50599 22.529 9.33699L24.433 8.72299Z" fill="#FFC107"/>
</svg>
