<svg width="48" height="48" viewBox="0 0 48 48" fill="none" xmlns="http://www.w3.org/2000/svg">
<g clip-path="url(#clip0_7524_11564)">
<path d="M18.6667 40H40L48 48V18.6667C48 17.2522 47.4381 15.8956 46.4379 14.8954C45.4377 13.8952 44.0812 13.3333 42.6667 13.3333H18.6667C17.2522 13.3333 15.8956 13.8952 14.8954 14.8954C13.8952 15.8956 13.3333 17.2522 13.3333 18.6667V34.6667C13.3333 36.0812 13.8952 37.4377 14.8954 38.4379C15.8956 39.4381 17.2522 40 18.6667 40Z" fill="#1565C0"/>
<path d="M30.6667 26.6667H8L0 34.6667V5.33333C0 3.91885 0.561903 2.56229 1.5621 1.5621C2.56229 0.561903 3.91885 0 5.33333 0L30.6667 0C32.0812 0 33.4377 0.561903 34.4379 1.5621C35.4381 2.56229 36 3.91885 36 5.33333V21.3333C36 22.7478 35.4381 24.1044 34.4379 25.1046C33.4377 26.1048 32.0812 26.6667 30.6667 26.6667Z" fill="#2196F3"/>
<path d="M30.6667 5.33334H5.33333V8.00001H30.6667V5.33334Z" fill="#E3F2FD"/>
<path d="M30.6667 12H5.33333V14.6667H30.6667V12Z" fill="#E3F2FD"/>
<path d="M18.6667 18.6667H5.33333V21.3333H18.6667V18.6667Z" fill="#E3F2FD"/>
</g>
<defs>
<clipPath id="clip0_7524_11564">
<rect width="48" height="48" fill="white"/>
</clipPath>
</defs>
</svg>
