<svg width="48" height="48" viewBox="0 0 48 48" fill="none" xmlns="http://www.w3.org/2000/svg">
<path d="M5.999 26C6.041 33.334 11.575 39 18.401 39H20.263C20.601 38.396 21.234 38 21.999 38H22.999C23.764 38 24.399 38.396 24.736 39H26.64C33.466 39 38.999 32.872 38.999 26C38.999 19.127 33.466 14 26.639 14H18.4C11.575 14 6.04 19.589 5.999 26Z" fill="#F8BBD0"/>
<path d="M23.805 38.18C24.519 38.512 24.999 39.255 24.999 40C24.999 41 24.999 43 26.999 43H31.999C32.567 43 32.999 42.569 32.999 42C32.999 42 32.875 37.357 33.976 36.371C33.993 36.356 34.001 36.338 34.016 36.323C31.956 37.98 29.409 39 26.64 39H24.736C24.528 38.629 24.199 38.351 23.805 38.18ZM37.189 32.613C37.203 32.594 37.22 32.586 37.233 32.561C37.999 31 39.901 30.642 40.999 30C42.097 29.358 41.952 29.135 41.999 28V24C41.999 22.864 42.07 22.686 40.999 22C40.027 21.377 38.269 21.206 37.203 19.686C38.335 21.496 38.999 23.641 38.999 26C38.999 28.368 38.33 30.641 37.189 32.613ZM10.999 14C10.999 13.448 10.552 13 9.999 13C7.793 13 5.999 14.794 5.999 17C5.999 18.315 6.645 19.474 7.626 20.203C7.963 19.629 8.345 19.081 8.771 18.567C8.305 18.2 7.999 17.638 7.999 17C7.999 15.897 8.896 15 9.999 15C10.552 15 10.999 14.552 10.999 14ZM10.362 35.917C10.431 36.024 10.524 36.125 10.671 36.211C12.259 37.135 11.999 42 11.999 42C11.999 42.569 12.629 43 12.863 43H17.999C19.999 43 19.999 41 19.999 40C19.999 39.255 20.479 38.512 21.193 38.181C20.799 38.351 20.47 38.629 20.262 39H18.4C15.33 39 12.527 37.847 10.362 35.917ZM36.902 12C36.902 12 32.099 12 30.499 12.801C28.897 13.602 28.097 14.897 28.097 16.803C28.097 18.71 29.782 19.797 32.099 20.006C34.417 20.215 34.426 18.91 34.501 17.604C34.737 13.497 36.902 12 36.902 12Z" fill="#FF80AB"/>
<path d="M35.999 21C35.7338 21 35.4794 21.1054 35.2919 21.2929C35.1044 21.4804 34.999 21.7348 34.999 22C34.999 22.2652 35.1044 22.5196 35.2919 22.7071C35.4794 22.8946 35.7338 23 35.999 23C36.2642 23 36.5186 22.8946 36.7061 22.7071C36.8936 22.5196 36.999 22.2652 36.999 22C36.999 21.7348 36.8936 21.4804 36.7061 21.2929C36.5186 21.1054 36.2642 21 35.999 21Z" fill="#0D47A1"/>
<path d="M16.999 15H26.999V17H16.999V15Z" fill="#880E4F"/>
<path d="M21.999 4C20.4077 4 18.8816 4.63214 17.7564 5.75736C16.6311 6.88258 15.999 8.4087 15.999 10C15.999 11.5913 16.6311 13.1174 17.7564 14.2426C18.8816 15.3679 20.4077 16 21.999 16C23.5903 16 25.1164 15.3679 26.2416 14.2426C27.3669 13.1174 27.999 11.5913 27.999 10C27.999 8.4087 27.3669 6.88258 26.2416 5.75736C25.1164 4.63214 23.5903 4 21.999 4Z" fill="#FFC107"/>
<path d="M16.351 12C17.174 14.328 19.388 16 21.999 16C24.61 16 26.824 14.328 27.647 12H16.351Z" fill="#FF9800"/>
</svg>
