<svg width="96" height="96" viewBox="0 0 96 96" fill="none" xmlns="http://www.w3.org/2000/svg">
<g id="Mortgage">
<path id="Vector" d="M84 80H12V84C12 86.21 13.79 88 16 88H80C82.21 88 84 86.21 84 84V80Z" fill="url(#paint0_linear_370_9789)"/>
<path id="Vector_2" d="M84 80H12V42L48 8L84 42V80Z" fill="url(#paint1_linear_370_9789)"/>
<path id="Vector_3" d="M38 52H58C59.104 52 60 52.896 60 54V88H36V54C36 52.896 36.896 52 38 52Z" fill="#DE490D"/>
<path id="Vector_4" d="M76 52C62.766 52 52 62.766 52 76C52 80.374 53.196 84.466 55.248 88H80C82.21 88 84 86.21 84 84V53.4C81.494 52.51 78.808 52 76 52Z" fill="url(#paint2_radial_370_9789)"/>
<path id="Vector_5" opacity="0.05" d="M48 10C47.052 10 46.104 10.336 45.348 11.006L34.63 20.628L12 42V52.78L48 20.856L84 52.78V42L61.37 20.628L50.652 11.006C49.896 10.336 48.948 10 48 10Z" fill="black"/>
<path id="Vector_6" opacity="0.07" d="M48 8C47.052 8 46.104 8.334 45.348 9L34.63 18.568L12 39.818V50.536L48 18.794L84 50.536V39.818L61.37 18.568L50.652 9C49.896 8.334 48.948 8 48 8Z" fill="black"/>
<path id="Vector_7" d="M88.99 41.014L50.652 7.006C49.896 6.336 48.948 6 48 6C47.052 6 46.104 6.336 45.348 7.006L7.00997 41.014C6.16997 41.762 6.11197 43.054 6.88197 43.874L10.154 47.364C10.892 48.152 12.122 48.212 12.934 47.498L48 16.856L83.066 47.5C83.876 48.212 85.108 48.154 85.846 47.366L89.118 43.876C89.888 43.054 89.83 41.762 88.99 41.014Z" fill="url(#paint3_linear_370_9789)"/>
<path id="Vector_8" d="M76 96C87.0457 96 96 87.0457 96 76C96 64.9543 87.0457 56 76 56C64.9543 56 56 64.9543 56 76C56 87.0457 64.9543 96 76 96Z" fill="url(#paint4_linear_370_9789)"/>
<path id="Vector_9" opacity="0.05" d="M75.5 92.004C74.122 92.004 73 90.882 73 89.504V88.712C71.552 88.454 70.102 88.038 68.914 87.534C67.748 87.034 66.998 85.902 66.998 84.648V82.266C66.998 80.806 68.184 79.616 69.642 79.616C70.054 79.616 70.468 79.716 70.838 79.904C71.44 80.212 73.578 81.21 76 81.21C77.044 81.21 77.288 80.984 77.29 80.98C77.094 80.582 75.358 79.938 74.524 79.63C71.39 78.47 66.65 76.716 66.65 71C66.65 67.068 69.006 64.192 72.998 63.17V62.5C72.998 61.122 74.12 60 75.498 60H76.498C77.876 60 78.998 61.122 78.998 62.5V62.944C80.184 63.08 81.184 63.312 82.038 63.644C82.5 63.826 84 64.586 84 66.792V68.886C84 70.344 82.812 71.53 81.352 71.53C80.958 71.53 80.574 71.444 80.214 71.274C79.45 70.916 77.884 70.314 76 70.314C75.526 70.314 74.724 70.386 74.724 70.65C74.724 71.13 76.676 71.888 77.724 72.294C80.764 73.476 85.35 75.258 85.35 80.694C85.35 83.722 83.668 87.51 79.002 88.658V89.502C79.002 90.88 77.88 92.002 76.502 92.002L75.5 92.004Z" fill="black"/>
<path id="Vector_10" opacity="0.05" d="M75.5 91.004C74.674 91.004 74 90.332 74 89.504V87.856C72.372 87.638 70.67 87.192 69.304 86.612C68.51 86.272 67.998 85.5 67.998 84.648V82.266C67.998 81.356 68.736 80.616 69.642 80.616C69.898 80.616 70.156 80.678 70.384 80.794C71.034 81.128 73.35 82.21 76 82.21C78.276 82.21 78.276 81.266 78.276 80.91C78.276 80.018 76.99 79.478 74.872 78.692C71.826 77.564 67.652 76.018 67.652 70.998C67.652 66.654 70.782 64.562 74 63.972V62.5C74 61.672 74.674 61 75.5 61H76.5C77.326 61 78 61.672 78 62.5V63.856C79.5 63.962 80.708 64.2 81.676 64.576C82.076 64.734 83.002 65.26 83.002 66.792V68.886C83.002 69.792 82.262 70.53 81.354 70.53C81.106 70.53 80.868 70.476 80.642 70.368C79.802 69.974 78.082 69.314 76.002 69.314C74.492 69.314 73.726 69.764 73.726 70.65C73.726 71.736 75.102 72.348 77.364 73.228C80.312 74.374 84.35 75.942 84.35 80.696C84.35 83.584 82.666 87.07 78.002 87.846V89.506C78.002 90.334 77.328 91.006 76.502 91.006L75.5 91.004Z" fill="black"/>
<path id="Vector_11" d="M83.348 80.694C83.348 73.496 72.722 74.902 72.722 70.65C72.722 68.43 75.218 68.312 75.998 68.312C77.874 68.312 79.684 68.816 81.064 69.462C81.5 69.668 82 69.366 82 68.886V66.792C82 66.09 81.736 65.674 81.314 65.508C80.368 65.14 79.01 64.87 77 64.804V62.5C77 62.224 76.776 62 76.5 62H75.5C75.224 62 75 62.224 75 62.5V64.842C71.882 65.146 68.652 66.906 68.652 70.998C68.652 78.46 79.278 76.978 79.278 80.908C79.278 82.144 78.488 83.208 76.002 83.208C73.502 83.208 71.204 82.336 69.934 81.684C69.506 81.466 69.002 81.782 69.002 82.262V84.646C69.002 85.102 69.278 85.51 69.7 85.69C71.206 86.33 73.226 86.814 75.004 86.956V89.502C75.004 89.778 75.228 90.002 75.504 90.002H76.504C76.78 90.002 77.004 89.778 77.004 89.502V86.96C81.664 86.572 83.348 83.45 83.348 80.694Z" fill="white"/>
</g>
<defs>
<linearGradient id="paint0_linear_370_9789" x1="12" y1="84" x2="84" y2="84" gradientUnits="userSpaceOnUse">
<stop stop-color="#C8D3DE"/>
<stop offset="1" stop-color="#C8D3DE"/>
</linearGradient>
<linearGradient id="paint1_linear_370_9789" x1="28.19" y1="22.676" x2="62.77" y2="89.574" gradientUnits="userSpaceOnUse">
<stop stop-color="#FCFCFC"/>
<stop offset="0.495" stop-color="#F4F4F4"/>
<stop offset="0.946" stop-color="#E8E8E8"/>
<stop offset="1" stop-color="#E8E8E8"/>
</linearGradient>
<radialGradient id="paint2_radial_370_9789" cx="0" cy="0" r="1" gradientUnits="userSpaceOnUse" gradientTransform="translate(74.638 74.596) scale(22.19)">
<stop/>
<stop offset="1" stop-opacity="0"/>
</radialGradient>
<linearGradient id="paint3_linear_370_9789" x1="48" y1="5.368" x2="48" y2="49.392" gradientUnits="userSpaceOnUse">
<stop stop-color="#D43A02"/>
<stop offset="1" stop-color="#B9360C"/>
</linearGradient>
<linearGradient id="paint4_linear_370_9789" x1="56" y1="76" x2="96" y2="76" gradientUnits="userSpaceOnUse">
<stop stop-color="#21AD64"/>
<stop offset="1" stop-color="#088242"/>
</linearGradient>
</defs>
</svg>
