<svg width="48" height="48" viewBox="0 0 48 48" fill="none" xmlns="http://www.w3.org/2000/svg">
<path d="M17 42C19.7614 42 22 39.7614 22 37C22 34.2386 19.7614 32 17 32C14.2386 32 12 34.2386 12 37C12 39.7614 14.2386 42 17 42Z" fill="#455A64"/>
<path d="M5 28H14C14.552 28 15 27.552 15 27C15 26.448 14.552 26 14 26H5C4.448 26 4 26.448 4 27C4 27.552 4.448 28 5 28Z" fill="#4DD0E1"/>
<path d="M41 42C43.7614 42 46 39.7614 46 37C46 34.2386 43.7614 32 41 32C38.2386 32 36 34.2386 36 37C36 39.7614 38.2386 42 41 42Z" fill="#455A64"/>
<path d="M41 39C42.1046 39 43 38.1046 43 37C43 35.8954 42.1046 35 41 35C39.8954 35 39 35.8954 39 37C39 38.1046 39.8954 39 41 39Z" fill="#00ACC1"/>
<path d="M17 39C18.1046 39 19 38.1046 19 37C19 35.8954 18.1046 35 17 35C15.8954 35 15 35.8954 15 37C15 38.1046 15.8954 39 17 39Z" fill="#00ACC1"/>
<path d="M41 38C40.6 38 40.3 37.8 40.1 37.4L36.1 29.4C35.9 28.9 36.1 28.3 36.5 28.1C37 27.9 37.6 28.1 37.8 28.5L41.8 36.5C42 37 41.8 37.6 41.4 37.8C41.3 38 41.2 38 41 38Z" fill="#546E7A"/>
<path d="M20 37H34C34 32.1 37.6 30.2 40.7 29.8C42.1 29.7 42 28 42 28C40 21 35 16 33 14H31C33.917 19.64 34.777 34.278 27 34H20V37Z" fill="#00ACC1"/>
<path d="M25 25H15C13 27 11 31 11 34C13 35 20 34 20 34H27C23.125 34 22 28.473 25 25Z" fill="#00ACC1"/>
<path d="M35 11V15C36.1 15 37 14.1 37 13C37 11.9 36.1 11 35 11Z" fill="#FFC107"/>
<path d="M27.25 25.8C27.25 26.058 27.111 26.294 26.88 26.408C26.182 26.751 24.465 27.4 21.45 27.4C17.35 27.4 14.25 26 14.25 26V25.5C14.25 24.119 15.369 23 16.75 23H24.45C25.99 23 27.25 24.26 27.25 25.8Z" fill="#37474F"/>
<path d="M31.008 14.377C32.263 14.782 33.598 14.98 35 15V11C33.607 11.019 32.257 11.243 30.948 11.661C30.373 11.844 30 12.403 30 13.006C30 13.634 30.411 14.185 31.008 14.377Z" fill="#4DD0E1"/>
<path d="M40 34L47.337 33C46.23 30.62 43.839 29 41 29C37.08 29 34 32.08 34 36C34 36.926 34.174 37.804 34.49 38.606" fill="#4DD0E1"/>
<path d="M17 30C13.08 30 9 33 8 37H24C24 33.08 20.92 30 17 30Z" fill="#4DD0E1"/>
<path d="M25 15H32C32.552 15 33 14.552 33 14C33 13.448 32.552 13 32 13H25C24.448 13 24 13.448 24 14C24 14.552 24.448 15 25 15Z" fill="#455A64"/>
<path d="M14 15H1V26H14V15Z" fill="#FFB74D"/>
<path d="M14 14H1V17H14V14Z" fill="#BCAAA4"/>
</svg>
