<svg width="48" height="48" viewBox="0 0 48 48" fill="none" xmlns="http://www.w3.org/2000/svg">
<path d="M4 28V8C4 5.8 5.8 4 8 4H36C38.2 4 40 5.8 40 8V28C40 30.2 38.2 32 36 32H8C5.8 32 4 30.2 4 28Z" fill="#546E7A"/>
<path d="M36 7H8C7.4 7 7 7.4 7 8V28C7 28.6 7.4 29 8 29H36C36.6 29 37 28.6 37 28V8C37 7.4 36.6 7 36 7Z" fill="#BBDEFB"/>
<path d="M38 33H6C3.8 33 2 31.2 2 29H42C42 31.2 40.2 33 38 33Z" fill="#37474F"/>
<path d="M24 40V16C24 13.8 25.8 12 28 12H40C42.2 12 44 13.8 44 16V40C44 42.2 42.2 44 40 44H28C25.8 44 24 42.2 24 40Z" fill="#E38939"/>
<path d="M40 15H28C27.4 15 27 15.4 27 16V38C27 38.6 27.4 39 28 39H40C40.6 39 41 38.6 41 38V16C41 15.4 40.6 15 40 15Z" fill="#FFF3E0"/>
<path d="M34 40C33.6022 40 33.2206 40.158 32.9393 40.4393C32.658 40.7206 32.5 41.1022 32.5 41.5C32.5 41.8978 32.658 42.2794 32.9393 42.5607C33.2206 42.842 33.6022 43 34 43C34.3978 43 34.7794 42.842 35.0607 42.5607C35.342 42.2794 35.5 41.8978 35.5 41.5C35.5 41.1022 35.342 40.7206 35.0607 40.4393C34.7794 40.158 34.3978 40 34 40Z" fill="#A6642A"/>
</svg>
