<svg width="48" height="48" viewBox="0 0 48 48" fill="none" xmlns="http://www.w3.org/2000/svg">
<path d="M19 24C17.8181 24 16.6478 24.2328 15.5558 24.6851C14.4639 25.1374 13.4718 25.8003 12.636 26.636C11.8003 27.4718 11.1374 28.4639 10.6851 29.5558C10.2328 30.6478 10 31.8181 10 33C10 34.1819 10.2328 35.3522 10.6851 36.4442C11.1374 37.5361 11.8003 38.5282 12.636 39.364C13.4718 40.1997 14.4639 40.8626 15.5558 41.3149C16.6478 41.7672 17.8181 42 19 42C20.1819 42 21.3522 41.7672 22.4442 41.3149C23.5361 40.8626 24.5282 40.1997 25.364 39.364C26.1997 38.5282 26.8626 37.5361 27.3149 36.4442C27.7672 35.3522 28 34.1819 28 33C28 31.8181 27.7672 30.6478 27.3149 29.5558C26.8626 28.4639 26.1997 27.4718 25.364 26.636C24.5282 25.8003 23.5361 25.1374 22.4442 24.6851C21.3522 24.2328 20.1819 24 19 24Z" fill="#E91E63"/>
<path d="M24 6V33H28V14L39 17V10L24 6Z" fill="#E91E63"/>
</svg>
