<svg width="48" height="48" viewBox="0 0 48 48" fill="none" xmlns="http://www.w3.org/2000/svg">
<path d="M6 37H32V7C32 5.9 31.1 5 30 5H8C6.9 5 6 5.9 6 7V37Z" fill="#90CAF9"/>
<path d="M32 37H6V39H32V37Z" fill="#64B5F6"/>
<path d="M21 31H17V35H21V31ZM14 31H10V35H14V31ZM21 17H17V21H21V17ZM14 17H10V21H14V17ZM21 24H17V28H21V24ZM14 24H10V28H14V24ZM21 10H17V14H21V10ZM28 10H24V14H28V10ZM14 10H10V14H14V10Z" fill="#1565C0"/>
<path d="M40 17H25C23.9 17 23 17.9 23 19V41H42V19C42 17.9 41.1 17 40 17Z" fill="#1E88E5"/>
<path d="M23 41H42V43H23V41Z" fill="#1976D2"/>
<path d="M31 21H27V25H31V21ZM31 28H27V32H31V28ZM31 35H27V39H31V35ZM34 28H38V32H34V28ZM34 35H38V39H34V35ZM38 21H34V25H38V21Z" fill="#0D47A1"/>
</svg>
