<svg width="48" height="48" viewBox="0 0 48 48" fill="none" xmlns="http://www.w3.org/2000/svg">
<path d="M44 25H29V44H44V25Z" fill="#F57C00"/>
<path d="M44 24H22V26H44V24Z" fill="#FF9800"/>
<path d="M40 24H33V22H40L35.217 11.67L37.032 10.83L41.844 21.229C42.103 21.912 42.017 22.6 41.644 23.139C41.271 23.678 40.656 24 40 24Z" fill="#546E7A"/>
<path d="M32.702 20L30 18.645L37.298 4L40 5.355L32.702 20Z" fill="#78909C"/>
<path d="M23 32H7V28H20C21.657 28 23 29.343 23 31V32Z" fill="#4FC3F7"/>
<path d="M11.385 25L10.015 12.669C9.84599 11.149 8.56199 10 7.03399 10H4.71899L6.38599 25H11.385Z" fill="#81D4FA"/>
<path d="M15 32H13V39H15V32Z" fill="#546E7A"/>
<path d="M7 44C7.55228 44 8 43.5523 8 43C8 42.4477 7.55228 42 7 42C6.44772 42 6 42.4477 6 43C6 43.5523 6.44772 44 7 44Z" fill="#546E7A"/>
<path d="M7 40L13 38H15L21 40V42H7V40Z" fill="#607D8B"/>
<path d="M14 44C14.5523 44 15 43.5523 15 43C15 42.4477 14.5523 42 14 42C13.4477 42 13 42.4477 13 43C13 43.5523 13.4477 44 14 44Z" fill="#546E7A"/>
<path d="M21 44C21.5523 44 22 43.5523 22 43C22 42.4477 21.5523 42 21 42C20.4477 42 20 42.4477 20 43C20 43.5523 20.4477 44 21 44Z" fill="#546E7A"/>
<path d="M8 28H6L4 10H6L8 28Z" fill="#546E7A"/>
<path d="M8 31V28C8 26.343 9.343 26 11 26H18C18 24.895 17.105 24 16 24H11C8.239 24 6 25.239 6 28V31C6 32.105 6.895 33 8 33H23V31H8Z" fill="#78909C"/>
<path d="M21 40H7V42H21V40Z" fill="#78909C"/>
</svg>
