<svg width="48" height="48" viewBox="0 0 48 48" fill="none" xmlns="http://www.w3.org/2000/svg">
<path d="M10 22C8.93913 22 7.92172 22.4214 7.17157 23.1716C6.42143 23.9217 6 24.9391 6 26C6 27.0609 6.42143 28.0783 7.17157 28.8284C7.92172 29.5786 8.93913 30 10 30C11.0609 30 12.0783 29.5786 12.8284 28.8284C13.5786 28.0783 14 27.0609 14 26C14 24.9391 13.5786 23.9217 12.8284 23.1716C12.0783 22.4214 11.0609 22 10 22ZM38 22C36.9391 22 35.9217 22.4214 35.1716 23.1716C34.4214 23.9217 34 24.9391 34 26C34 27.0609 34.4214 28.0783 35.1716 28.8284C35.9217 29.5786 36.9391 30 38 30C39.0609 30 40.0783 29.5786 40.8284 28.8284C41.5786 28.0783 42 27.0609 42 26C42 24.9391 41.5786 23.9217 40.8284 23.1716C40.0783 22.4214 39.0609 22 38 22Z" fill="#FFA726"/>
<path d="M39 19C39 6.3 9 10.7 9 19C9 20.8 9 27.2 9 29C9 37.3 15.7 44 24 44C32.3 44 39 37.3 39 29C39 27.2 39 20.8 39 19Z" fill="#FFB74D"/>
<path d="M24 3C14.6 3 7 10.6 7 20C7 21.2 7 23.4 7 23.4L9 25V22L30 12.2L39 22V25L41 23.4C41 23.4 41 21.3 41 20C41 12 35.3 3 24 3Z" fill="#FF5722"/>
<path d="M31 24C30.4696 24 29.9609 24.2107 29.5858 24.5858C29.2107 24.9609 29 25.4696 29 26C29 26.5304 29.2107 27.0391 29.5858 27.4142C29.9609 27.7893 30.4696 28 31 28C31.5304 28 32.0391 27.7893 32.4142 27.4142C32.7893 27.0391 33 26.5304 33 26C33 25.4696 32.7893 24.9609 32.4142 24.5858C32.0391 24.2107 31.5304 24 31 24ZM17 24C16.4696 24 15.9609 24.2107 15.5858 24.5858C15.2107 24.9609 15 25.4696 15 26C15 26.5304 15.2107 27.0391 15.5858 27.4142C15.9609 27.7893 16.4696 28 17 28C17.5304 28 18.0391 27.7893 18.4142 27.4142C18.7893 27.0391 19 26.5304 19 26C19 25.4696 18.7893 24.9609 18.4142 24.5858C18.0391 24.2107 17.5304 24 17 24Z" fill="#784719"/>
<path d="M43 24C42.4 24 42 24.4 42 25V18C42 9.2 34.8 2 26 2H19C18.4 2 18 2.4 18 3C18 3.6 18.4 4 19 4H26C33.7 4 40 10.3 40 18V28C40 28.6 40.4 29 41 29C41.6 29 42 28.6 42 28V30C42 33.9 38.9 37 35 37H24C23.4 37 23 37.4 23 38C23 38.6 23.4 39 24 39H35C40 39 44 35 44 30V25C44 24.4 43.6 24 43 24Z" fill="#757575"/>
<path d="M43 22H42C40.9 22 40 22.9 40 24V28C40 29.1 40.9 30 42 30H43C44.1 30 45 29.1 45 28V24C45 22.9 44.1 22 43 22ZM24 36C23.4696 36 22.9609 36.2107 22.5858 36.5858C22.2107 36.9609 22 37.4696 22 38C22 38.5304 22.2107 39.0391 22.5858 39.4142C22.9609 39.7893 23.4696 40 24 40C24.5304 40 25.0391 39.7893 25.4142 39.4142C25.7893 39.0391 26 38.5304 26 38C26 37.4696 25.7893 36.9609 25.4142 36.5858C25.0391 36.2107 24.5304 36 24 36Z" fill="#37474F"/>
</svg>
