<svg width="48" height="48" viewBox="0 0 48 48" fill="none" xmlns="http://www.w3.org/2000/svg">
<path d="M45.375 8L38.359 15.016C38.359 15.016 36.187 15.188 34.375 13.375C32.563 11.562 32.734 9.391 32.734 9.391L39.75 2.375C39.75 2.375 38.5 2 36.702 2C33.52 2 30.238 3.322 28.012 5.486C26.379 7.149 25.75 8.871 25.75 10.5C25.75 13 26.761 14.591 26.75 15.625C26.748 15.805 18.46 24.172 13.742 28.921C12.936 28.676 11.877 28.288 10.46 28.288C9.11 28.288 7.681 28.81 6.301 30.165C4.506 32.009 3.41 34.731 3.41 37.37C3.41 38.861 3.721 39.898 3.721 39.898L9.54 34.079C9.54 34.079 11.342 33.936 12.844 35.44C14.347 36.944 14.205 38.744 14.205 38.744L8.386 44.563C8.386 44.563 9.423 44.874 10.914 44.874C13.553 44.874 16.275 43.778 18.122 41.983C19.476 40.604 19.998 39.175 19.998 37.824C19.998 35.956 19.323 34.704 19.195 33.846C24.143 29 31.937 21 32.125 20.998C33.159 20.987 34.75 21.998 37.25 21.998C38.878 21.998 40.601 21.369 42.264 19.735C44.428 17.511 45.75 14.229 45.75 11.047C45.75 9.25 45.375 8 45.375 8Z" fill="#607D8B"/>
</svg>
