<svg width="48" height="48" viewBox="0 0 48 48" fill="none" xmlns="http://www.w3.org/2000/svg">
<path d="M24 4C18.486 4 14 8.486 14 14V18H18V14C18 10.691 20.691 8 24 8C27.309 8 30 10.691 30 14V18H34V14C34 8.486 29.514 4 24 4Z" fill="#424242"/>
<path d="M37 44H11C8.791 44 7 42.209 7 40V22C7 19.791 8.791 18 11 18H37C39.209 18 41 19.791 41 22V40C41 42.209 39.209 44 37 44Z" fill="#8BC34A"/>
<path d="M17 31C17 32.657 15.657 34 14 34C12.343 34 11 32.657 11 31C11 29.343 12.343 28 14 28C15.657 28 17 29.343 17 31ZM37 31C37 32.657 35.657 34 34 34C32.343 34 31 32.657 31 31C31 29.343 32.343 28 34 28C35.657 28 37 29.343 37 31ZM27 31C27 32.657 25.657 34 24 34C22.343 34 21 32.657 21 31C21 29.343 22.343 28 24 28C25.657 28 27 29.343 27 31Z" fill="#F1F8E9"/>
</svg>
