<svg width="48" height="48" viewBox="0 0 48 48" fill="none" xmlns="http://www.w3.org/2000/svg">
<path d="M21 19C21 29 16 31 16 31H32C32 31 27 29 27 19M37 40H11V37C11 34.791 12.791 33 15 33H33C35.209 33 37 34.791 37 37V40ZM24 8C22.6739 8 21.4021 8.52678 20.4645 9.46447C19.5268 10.4021 19 11.6739 19 13C19 14.3261 19.5268 15.5979 20.4645 16.5355C21.4021 17.4732 22.6739 18 24 18C25.3261 18 26.5979 17.4732 27.5355 16.5355C28.4732 15.5979 29 14.3261 29 13C29 11.6739 28.4732 10.4021 27.5355 9.46447C26.5979 8.52678 25.3261 8 24 8Z" fill="#455A64"/>
<path d="M34 32C34 32.553 33.553 33 33 33H15C14.447 33 14 32.553 14 32C14 31.447 14.447 31 15 31H33C33.553 31 34 31.447 34 32ZM29 18C29 18.553 28.553 19 28 19H20C19.447 19 19 18.553 19 18C19 17.447 19.447 17 20 17H28C28.553 17 29 17.447 29 18Z" fill="#FFCA28"/>
</svg>
