<svg width="96" height="96" viewBox="0 0 96 96" fill="none" xmlns="http://www.w3.org/2000/svg">
<g id="Phone Message">
<path id="Vector" d="M15.84 13.746C15.84 13.746 15.204 21.212 18.116 27.062C21.028 32.912 29.046 44.944 32.206 42.926C30.718 40.954 31.716 38.734 32.836 37.652C33.562 36.95 36.97 33.73 39.274 31.554C40.554 30.346 40.856 28.428 40.01 26.884L31.856 12.008C30.972 10.394 29.074 9.62799 27.318 10.174L15.84 13.746Z" fill="#1A9BA1"/>
<path id="Vector_2" d="M82.254 80.16C82.254 80.16 74.788 80.796 68.938 77.884C63.088 74.972 51.056 66.954 53.074 63.794C55.046 65.282 57.266 64.284 58.348 63.164C59.05 62.438 62.27 59.03 64.446 56.726C65.654 55.446 67.572 55.144 69.116 55.99L83.992 64.144C85.606 65.028 86.372 66.926 85.826 68.682L82.254 80.16Z" fill="#1A9BA1"/>
<path id="Vector_3" d="M41.972 54.028C53.804 65.86 67.578 74.532 82.256 80.158L80.116 83.854C79.068 85.664 76.85 86.48 74.906 85.708C60.722 80.07 47.424 71.53 35.946 60.054C24.468 48.578 15.928 35.278 10.29 21.094C9.51798 19.152 10.334 16.934 12.144 15.886L15.84 13.746C21.468 28.422 30.14 42.198 41.972 54.028Z" fill="#37C6D0"/>
<path id="Vector_4" d="M83.47 10H52.53C51.134 10 50 11.134 50 12.53V31.468C50 32.866 51.134 34 52.53 34H58V44.134C58 45.262 59.362 45.826 60.16 45.028L71.188 34H83.468C84.866 34 86 32.866 86 31.47V12.53C86 11.134 84.866 10 83.47 10Z" fill="url(#paint0_linear_370_9801)"/>
</g>
<defs>
<linearGradient id="paint0_linear_370_9801" x1="64.474" y1="8.656" x2="70.32" y2="30.774" gradientUnits="userSpaceOnUse">
<stop stop-color="#21AD64"/>
<stop offset="1" stop-color="#088242"/>
</linearGradient>
</defs>
</svg>
