<svg width="48" height="48" viewBox="0 0 48 48" fill="none" xmlns="http://www.w3.org/2000/svg">
<path d="M7.93698 25.92C3.92098 29.936 3.83098 36.358 7.73698 40.264C11.642 44.168 18.063 44.078 22.08 40.063L31.07 31.071L16.929 16.929L7.93698 25.92Z" fill="#E91E63"/>
<path d="M40.264 7.736C36.357 3.83 29.938 3.92 25.92 7.938L16.929 16.929L31.07 31.07L40.06 22.079C44.078 18.063 44.168 11.642 40.264 7.736Z" fill="#00BCD4"/>
<path d="M31.0708 31.0713L16.9296 16.9296L18.3439 15.5154L32.4851 29.6571L31.0708 31.0713Z" fill="#00838F"/>
<path d="M18.857 18.857L9.66499 28.048C9.66499 28.048 4.52199 33.192 9.66499 38.333C10.112 38.779 10.61 39.145 11.139 39.432C7.09399 35.764 12.236 30.62 12.236 30.62L21.428 21.428L18.857 18.857Z" fill="#FCE4EC"/>
<path d="M31.264 11.593C31.264 11.593 35.764 7.094 39.62 10.95C39.333 10.422 38.971 9.922 38.523 9.475C33.191 4.521 28.691 9.021 28.691 9.021L18.857 18.857L21.428 21.428L31.264 11.593Z" fill="#E0F7FA"/>
<path d="M21.4284 21.4276L18.8574 18.8566L20.2716 17.4424L22.8426 20.0134L21.4284 21.4276Z" fill="#80DEEA"/>
</svg>
