<svg width="48" height="48" viewBox="0 0 48 48" fill="none" xmlns="http://www.w3.org/2000/svg">
<path d="M36 37H34V35H36V37ZM32 37H30V35H32V37ZM28 37H26V35H28V37ZM24 37H22V35H24V37ZM20 37H18V35H20V37ZM16 37H14V35H12V33H14V35H16V37ZM37 34H35V32H37V34ZM14 31H12V29H14V31ZM37 30H35V28H37V30ZM14 27H12V25H14V27ZM37 26H35V24H37V26ZM14 23H12V21H14V23ZM37 22H35V20H37V22ZM14 19H12V17H14V19ZM37 18H35V16H37V18ZM14 15H12V13H14V15ZM37 14H35V12H37V14ZM33 14H31V12H33V14ZM29 14H27V12H29V14ZM25 14H23V12H25V14ZM21 14H19V12H21V14ZM17 14H15V12H17V14Z" fill="#59B4D9"/>
<path d="M23 26H45V41H23V26Z" fill="#546E7A"/>
<path d="M25 28H43V39H25V28Z" fill="#BBDEFB"/>
<path d="M40 43C39.4 43 38.3 43 37 43V41H31V43C29.7 43 28.6 43 28 43C26 43 26 45 26 45H42C42 45 42 43 40 43Z" fill="#455A64"/>
<path d="M22 13C22 17.991 17.991 22 13 22C8.009 22 4 17.991 4 13C4 8.009 8.009 4 13 4C17.991 4 22 8.009 22 13Z" fill="#90CAF9"/>
<path d="M13 23C7.486 23 3 18.514 3 13C3 7.486 7.486 3 13 3C18.514 3 23 7.486 23 13C23 18.514 18.514 23 13 23ZM13 5C8.589 5 5 8.589 5 13C5 17.411 8.589 21 13 21C17.411 21 21 17.411 21 13C21 8.589 17.411 5 13 5Z" fill="#1E88E5"/>
<path d="M13 23C9.916 23 7.5 18.607 7.5 13C7.5 7.393 9.916 3 13 3C16.084 3 18.5 7.393 18.5 13C18.5 18.607 16.084 23 13 23ZM13 5C11.345 5 9.5 8.285 9.5 13C9.5 17.715 11.345 21 13 21C14.655 21 16.5 17.715 16.5 13C16.5 8.285 14.655 5 13 5Z" fill="#1E88E5"/>
<path d="M14 4H12V22H14V4Z" fill="#1E88E5"/>
<path d="M22 12H4V14H22V12Z" fill="#1E88E5"/>
<path d="M20.375 10.021H5.75C5.186 10.021 4.729 9.564 4.729 9C4.729 8.436 5.186 7.979 5.75 7.979H20.375C20.939 7.979 21.396 8.436 21.396 9C21.396 9.564 20.939 10.021 20.375 10.021Z" fill="#1E88E5"/>
<path d="M20.375 18.021H5.75C5.186 18.021 4.729 17.564 4.729 17C4.729 16.436 5.186 15.979 5.75 15.979H20.375C20.939 15.979 21.396 16.436 21.396 17C21.396 17.564 20.939 18.021 20.375 18.021Z" fill="#1E88E5"/>
<path d="M36 15C37.1046 15 38 14.1046 38 13C38 11.8954 37.1046 11 36 11C34.8954 11 34 11.8954 34 13C34 14.1046 34.8954 15 36 15Z" fill="#59B4D9"/>
<path d="M13 38C14.1046 38 15 37.1046 15 36C15 34.8954 14.1046 34 13 34C11.8954 34 11 34.8954 11 36C11 37.1046 11.8954 38 13 38Z" fill="#59B4D9"/>
</svg>
