<svg width="48" height="48" viewBox="0 0 48 48" fill="none" xmlns="http://www.w3.org/2000/svg">
<path d="M20 6L6 42L42 28L20 6Z" fill="#FFD54F"/>
<path d="M15.001 32C12.24 32 10 34.238 10 36.999C10 38.146 10.402 39.191 11.053 40.035L19.957 36.572C19.737 34.015 17.615 32 15.001 32ZM20.501 14C19.3075 14 18.1629 14.4741 17.319 15.318C16.4751 16.1619 16.001 17.3065 16.001 18.5C16.001 19.6935 16.4751 20.8381 17.319 21.682C18.1629 22.5259 19.3075 23 20.501 23C21.6945 23 22.8391 22.5259 23.683 21.682C24.5269 20.8381 25.001 19.6935 25.001 18.5C25.001 17.3065 24.5269 16.1619 23.683 15.318C22.8391 14.4741 21.6945 14 20.501 14Z" fill="#FF3D00"/>
<path d="M28 20C26.345 20 25 21.345 25 23.002C25 24.656 26.345 26 28 26C29.655 26 31 24.656 31 23.002C31 21.345 29.655 20 28 20ZM28 24.5C27.171 24.5 26.5 23.829 26.5 23C26.5 22.171 27.171 21.5 28 21.5C28.829 21.5 29.5 22.171 29.5 23C29.5 23.829 28.829 24.5 28 24.5ZM16 25C14.345 25 13 26.345 13 28.002C13 29.656 14.345 31 16 31C17.655 31 19 29.656 19 28.002C19 26.345 17.655 25 16 25ZM16 29.5C15.171 29.5 14.5 28.829 14.5 28C14.5 27.171 15.171 26.5 16 26.5C16.829 26.5 17.5 27.171 17.5 28C17.5 28.829 16.829 29.5 16 29.5Z" fill="#3E2723"/>
<path d="M29.872 32.522C29.484 31.488 28.331 30.963 27.297 31.352C26.263 31.74 21.057 34.648 21.444 35.682C21.478 35.774 21.569 35.842 21.682 35.901L29.917 32.698C29.902 32.64 29.894 32.58 29.872 32.522Z" fill="#8D6E63"/>
<path d="M25.189 34.278C24.703 32.758 24.882 31.385 24.882 31.385C24.915 31.342 24.916 31.291 24.912 31.239C24.961 31.049 24.971 30.847 24.896 30.648C24.702 30.13 24.125 29.869 23.609 30.063C23.477 30.113 23.362 30.188 23.267 30.28C21.496 31.396 20.681 33.646 21.445 35.682C21.479 35.774 21.53 35.854 21.57 35.943L25.275 34.503C25.248 34.428 25.215 34.357 25.189 34.278Z" fill="#8D6E63"/>
<path d="M26 28.595C26 28.595 25.464 23.223 20 25.152C20.589 30.741 26 28.595 26 28.595ZM33.595 25C33.595 25 28.222 25.535 30.152 31C35.741 30.41 33.595 25 33.595 25Z" fill="#689F38"/>
<path d="M41.858 27.188C40.931 25.009 38.781 18.647 34.072 13.939C29.491 9.35501 23.431 6.83501 20.741 6.10501C19.902 5.87901 19.716 5.83301 19.387 6.66801C19.119 7.34401 18.357 9.65501 17.981 10.737C17.917 10.921 17.882 11.071 17.86 11.207C26.555 14.558 33.47 21.481 36.811 30.182C36.836 30.176 36.858 30.181 36.885 30.172C37.58 29.951 40.356 28.982 41.093 28.736C41.83 28.486 42.231 28.063 41.858 27.188Z" fill="#FF9800"/>
</svg>
