<svg width="48" height="48" viewBox="0 0 48 48" fill="none" xmlns="http://www.w3.org/2000/svg">
<path d="M4 26H44V19C44 16.791 42.209 15 40 15H8C5.791 15 4 16.791 4 19V26Z" fill="#616161"/>
<path d="M9 12H39V15H9V12ZM8 37H40C42.209 37 44 35.209 44 33V25H4V33C4 35.209 5.791 37 8 37Z" fill="#424242"/>
<path d="M39 19C39 19.552 39.448 20 40 20C40.552 20 41 19.552 41 19C41 18.448 40.552 18 40 18C39.448 18 39 18.448 39 19Z" fill="#00E676"/>
<path d="M37.5 32H10.5C9.672 32 9 31.328 9 30.5C9 29.672 9.672 29 10.5 29H37.5C38.328 29 39 29.672 39 30.5C39 31.328 38.328 32 37.5 32Z" fill="#242424"/>
<path d="M11 5H37V15H11V5ZM11 32H37V43H11V32Z" fill="#90CAF9"/>
<path d="M11 30H37V32H11V30Z" fill="#42A5F5"/>
<path d="M16 34H33V36H16V34ZM16 38H29V40H16V38Z" fill="#1976D2"/>
</svg>
