<svg width="96" height="96" viewBox="0 0 96 96" fill="none" xmlns="http://www.w3.org/2000/svg">
<g id="Protect">
<path id="Vector" d="M48 88C46.896 88 46 87.104 46 86C46 84.896 46.896 84 48 84V88Z" fill="#107C42"/>
<path id="Vector_2" d="M50 86C50 87.104 49.104 88 48 88V84C49.104 84 50 84.896 50 86Z" fill="#185C37"/>
<path id="Vector_3" d="M84 24C85.1046 24 86 23.1046 86 22C86 20.8954 85.1046 20 84 20C82.8954 20 82 20.8954 82 22C82 23.1046 82.8954 24 84 24Z" fill="#21A366"/>
<path id="Vector_4" d="M12 24C13.1046 24 14 23.1046 14 22C14 20.8954 13.1046 20 12 20C10.8954 20 10 20.8954 10 22C10 23.1046 10.8954 24 12 24Z" fill="#33C481"/>
<path id="Vector_5" d="M48 86L48.854 87.814C48.854 87.814 79.142 72.014 85.014 48H48V86Z" fill="#185C37"/>
<path id="Vector_6" d="M86 22L84 20C61.756 20 61.444 8 48 8V48H85.014C85.644 45.424 86 42.756 86 40C86 33.712 86 22 86 22Z" fill="#21A366"/>
<path id="Vector_7" d="M48 86L47.146 87.814C47.146 87.814 16.858 72.014 10.986 48H48V86Z" fill="#107C42"/>
<path id="Vector_8" d="M10 22L12 20C34.244 20 34.556 8 48 8V48H10.986C10.356 45.424 10 42.756 10 40C10 33.712 10 22 10 22Z" fill="#33C481"/>
<path id="Vector_9" opacity="0.05" d="M64.344 32.344L44 52.688L33.656 42.344C32.094 40.782 29.562 40.782 28 42.344L25.172 45.172C23.61 46.734 23.61 49.266 25.172 50.828L41.172 66.828C42.734 68.39 45.266 68.39 46.828 66.828L72.828 40.828C74.39 39.266 74.39 36.734 72.828 35.172L70 32.344C68.438 30.782 65.906 30.782 64.344 32.344Z" fill="black"/>
<path id="Vector_10" opacity="0.07" d="M41.878 66.122L25.878 50.122C24.706 48.95 24.706 47.05 25.878 45.88L28.706 43.052C29.878 41.88 31.778 41.88 32.948 43.052L44 54.102L65.05 33.052C66.222 31.88 68.122 31.88 69.292 33.052L72.12 35.88C73.292 37.052 73.292 38.952 72.12 40.122L46.12 66.122C44.95 67.292 43.05 67.292 41.878 66.122Z" fill="black"/>
<path id="Vector_11" d="M42.586 65.414L26.586 49.414C25.804 48.632 25.804 47.366 26.586 46.586L29.414 43.758C30.196 42.976 31.462 42.976 32.242 43.758L44 55.516L65.758 33.758C66.54 32.976 67.806 32.976 68.586 33.758L71.414 36.586C72.196 37.368 72.196 38.634 71.414 39.414L45.414 65.414C44.634 66.196 43.366 66.196 42.586 65.414Z" fill="white"/>
</g>
</svg>
