<svg width="48" height="48" viewBox="0 0 48 48" fill="none" xmlns="http://www.w3.org/2000/svg">
<path d="M17.01 6C17.159 4.729 18 4.087 18 3.1C18 1.553 16.657 1 15 1C13.343 1 12 1.553 12 3.1C12 4.087 12.841 4.729 12.99 6H6V13C7.27 12.85 7.91 12 8.9 12C10.45 12 11 13.34 11 15C11 16.66 10.45 18 8.9 18C7.91 18 7.27 17.15 6 17V24H24V6H17.01Z" fill="#29B6F6"/>
<path d="M17.01 24C17.158 22.729 18 22.087 18 21.1C18 19.553 16.657 19 15 19C13.343 19 12 19.553 12 21.1C12 22.087 12.841 22.729 12.99 24H6V30.99C4.729 30.841 4.087 30 3.1 30C1.553 30 1 31.343 1 33C1 34.657 1.553 36 3.1 36C4.087 36 4.729 35.159 6 35.01V42H24V24H17.01Z" fill="#C62828"/>
<path d="M37 33C37 34.66 37.55 36 39.1 36C40.09 36 40.73 35.15 42 35V42H35.01C35.16 43.27 36 43.91 36 44.9C36 46.45 34.66 47 33 47C31.34 47 30 46.45 30 44.9C30 43.91 30.84 43.27 30.99 42H24V35.01C22.73 35.16 22.09 36 21.1 36C19.55 36 19 34.66 19 33C19 31.34 19.55 30 21.1 30C22.09 30 22.73 30.84 24 30.99V24H42V31C40.73 30.85 40.09 30 39.1 30C37.55 30 37 31.34 37 33Z" fill="#FFC400"/>
<path d="M44.9 12C43.913 12 43.271 12.841 42 12.989V6H24V24H30.99C30.841 25.271 30 25.913 30 26.9C30 28.447 31.343 29 33 29C34.657 29 36 28.447 36 26.9C36 25.913 35.159 25.271 35.01 24H42V17.01C43.271 17.159 43.913 18 44.9 18C46.447 18 47 16.657 47 15C47 13.343 46.447 12 44.9 12Z" fill="#0D47A1"/>
<path d="M26.9 12C25.5 12 24.8 13.7 22 12.7V17.3C24.8 16.3 25.5 18 26.9 18C28.447 18 29 16.657 29 15C29 13.343 28.447 12 26.9 12Z" fill="#29B6F6"/>
</svg>
