<svg width="48" height="48" viewBox="0 0 48 48" fill="none" xmlns="http://www.w3.org/2000/svg">
<path d="M24 8C21.238 8 19 10.238 19 13H29C29 10.238 26.762 8 24 8Z" fill="#263238"/>
<path d="M21 23C21 33 18 36 18 36H30C30 36 27 33 27 23M35 44H13V42C13 39.791 14.791 38 17 38H31C33.209 38 35 39.791 35 42V44ZM27 21C27 21.553 21 21.553 21 21L17 10C17 10 19.501 12 20.501 12C21.501 12 24 10 24 10C24 10 26.334 12 27.334 12C28.334 12 31 10 31 10L27 21Z" fill="#455A64"/>
<path d="M24 4C23.4696 4 22.9609 4.21071 22.5858 4.58579C22.2107 4.96086 22 5.46957 22 6C22 6.53043 22.2107 7.03914 22.5858 7.41421C22.9609 7.78929 23.4696 8 24 8C24.5304 8 25.0391 7.78929 25.4142 7.41421C25.7893 7.03914 26 6.53043 26 6C26 5.46957 25.7893 4.96086 25.4142 4.58579C25.0391 4.21071 24.5304 4 24 4ZM32 37C32 37.553 31.553 38 31 38H17C16.447 38 16 37.553 16 37C16 36.447 16.447 36 17 36H31C31.553 36 32 36.447 32 37ZM29 22C29 22.553 28.553 23 28 23H20C19.447 23 19 22.553 19 22C19 21.447 19.447 21 20 21H28C28.553 21 29 21.447 29 22Z" fill="#FFCA28"/>
</svg>
