<svg width="48" height="48" viewBox="0 0 48 48" fill="none" xmlns="http://www.w3.org/2000/svg">
<path d="M43 11H5C3.897 11 3 11.897 3 13C3 14.103 3.897 15 5 15H43C44.104 15 45 14.103 45 13C45 11.897 44.104 11 43 11ZM43 33H5C3.897 33 3 33.897 3 35C3 36.103 3.897 37 5 37H43C44.104 37 45 36.103 45 35C45 33.897 44.104 33 43 33Z" fill="#7E57C2"/>
<path d="M37.027 9.00001V39.014C37.027 40.659 40 41.999 40 41.999V6.00101C40 6.00101 37.027 7.35501 37.027 9.00001ZM29 9.00001V39.014C29 40.659 31.973 41.999 31.973 41.999V6.00101C31.973 6.00101 29 7.35501 29 9.00001ZM21.027 9.00001V39.014C21.027 40.659 24 41.999 24 41.999V6.00101C24 6.00101 21.027 7.35501 21.027 9.00001ZM13.027 9.00001V39.014C13.027 40.659 16 41.999 16 41.999V6.00101C16 6.00101 13.027 7.35501 13.027 9.00001ZM5.027 9.00001V39.014C5.027 40.658 8 41.999 8 41.999V6.00101C8 6.00101 5.027 7.35501 5.027 9.00001Z" fill="#D1C4E9"/>
<path d="M43 39.014V9C43 7.351 40.014 6 40.014 6L40 6.001V41.999L40.014 42C40.014 42 43 40.663 43 39.014ZM34.973 39.014V9C34.973 7.351 31.987 6 31.987 6L31.973 6.001V41.999L31.986 42C31.986 42 34.973 40.663 34.973 39.014ZM27 39.014V9C27 7.351 24.014 6 24.014 6L24 6.001V41.999L24.014 42C24.014 42 27 40.663 27 39.014ZM19 39.014V9C19 7.351 16.014 6 16.014 6L16 6.001V41.999L16.014 42C16.014 42 19 40.663 19 39.014ZM11 39.014V9C11 7.351 8.014 6 8.014 6L8 6.001V41.999L8.014 42C8.014 42 11 40.663 11 39.014Z" fill="#B39DDB"/>
</svg>
