<svg width="48" height="48" viewBox="0 0 48 48" fill="none" xmlns="http://www.w3.org/2000/svg">
<path d="M44 24C44 35.046 35.046 44 24 44C12.954 44 4 35.046 4 24C4 12.954 12.954 4 24 4C35.046 4 44 12.954 44 24Z" fill="#3F51B5"/>
<path d="M40 24C40 32.837 32.837 40 24 40C15.163 40 8 32.837 8 24C8 15.163 15.163 8 24 8C32.837 8 40 15.163 40 24Z" fill="#EEEEEE"/>
<path d="M38.97 18.393L42.012 15.351C41.71 14.722 41.377 14.113 41.013 13.522L38.1 16.436C38.436 17.063 38.718 17.72 38.97 18.393ZM35.033 12.431L37.861 9.602C37.38 9.138 36.874 8.701 36.348 8.287L33.494 11.142C34.033 11.541 34.549 11.969 35.033 12.431Z" fill="#1A237E"/>
<path d="M13.3984 18.6008L16.9342 15.0669L28.1988 26.3378L24.663 29.8717L13.3984 18.6008Z" fill="#4CAF50"/>
<path d="M21.1301 26.3377L41.5008 5.96634L45.0357 9.5011L24.665 29.8725L21.1301 26.3377Z" fill="#4CAF50"/>
<path d="M11 24C11 23.662 11.025 23.331 11.051 23H8.051C8.029 23.332 8 23.662 8 24C8 24.338 8.029 24.668 8.051 25H11.051C11.025 24.669 11 24.338 11 24ZM24 11C24.338 11 24.669 11.025 25 11.051V8.051C24.668 8.029 24.338 8 24 8C23.662 8 23.332 8.029 23 8.051V11.051C23.331 11.025 23.662 11 24 11ZM24 37C23.662 37 23.331 36.975 23 36.949V39.949C23.332 39.971 23.662 40 24 40C24.338 40 24.668 39.971 25 39.949V36.949C24.669 36.975 24.338 37 24 37ZM39.949 23H36.949C36.975 23.331 37 23.662 37 24C37 24.338 36.975 24.669 36.949 25H39.949C39.971 24.668 40 24.338 40 24C40 23.662 39.971 23.332 39.949 23Z" fill="#90A4AE"/>
</svg>
