<svg width="48" height="48" viewBox="0 0 48 48" fill="none" xmlns="http://www.w3.org/2000/svg">
<path d="M39 37C39 42 35 42 35 42H8V4H39C39 4 39 32 39 37Z" fill="#C5CAE9"/>
<path d="M12 11H15V14H12V11ZM18 11H35V14H18V11ZM12 17H15V20H12V17ZM18 17H35V20H18V17ZM12 23H15V26H12V23ZM18 23H35V26H18V23Z" fill="#7986CB"/>
<path d="M31 37C31 36.287 31 33.207 31 32H15H9H4C4 33.207 4 36.287 4 37C4 39.762 5.238 42 8 42H35C32.238 42 31 39.762 31 37Z" fill="#3F51B5"/>
<path d="M44.916 35C44.916 40.523 40.439 45 34.916 45C29.394 45 24.916 40.523 24.916 35C24.916 29.477 29.393 25 34.916 25C40.439 25 44.916 29.477 44.916 35Z" fill="#4CAF50"/>
<path d="M39.409 30.35L33.719 36.05L30.991 33.33L28.868 35.458L33.723 40.3L41.536 32.473L39.409 30.35Z" fill="#DCEDC8"/>
</svg>
