<svg width="48" height="48" viewBox="0 0 48 48" fill="none" xmlns="http://www.w3.org/2000/svg">
<path d="M35 3L11.38 7.374C9.344 7.751 7.751 9.344 7.374 11.38L3 35L35 3Z" fill="#FFCC80"/>
<path d="M45 13L35 3L3 35L13 45L45 13Z" fill="#FFB74D"/>
<path d="M8 24C7.73478 24 7.48043 24.1054 7.29289 24.2929C7.10536 24.4804 7 24.7348 7 25C7 25.2652 7.10536 25.5196 7.29289 25.7071C7.48043 25.8946 7.73478 26 8 26C8.26522 26 8.51957 25.8946 8.70711 25.7071C8.89464 25.5196 9 25.2652 9 25C9 24.7348 8.89464 24.4804 8.70711 24.2929C8.51957 24.1054 8.26522 24 8 24ZM10 18C9.73478 18 9.48043 18.1054 9.29289 18.2929C9.10536 18.4804 9 18.7348 9 19C9 19.2652 9.10536 19.5196 9.29289 19.7071C9.48043 19.8946 9.73478 20 10 20C10.2652 20 10.5196 19.8946 10.7071 19.7071C10.8946 19.5196 11 19.2652 11 19C11 18.7348 10.8946 18.4804 10.7071 18.2929C10.5196 18.1054 10.2652 18 10 18ZM14 16C13.7348 16 13.4804 16.1054 13.2929 16.2929C13.1054 16.4804 13 16.7348 13 17C13 17.2652 13.1054 17.5196 13.2929 17.7071C13.4804 17.8946 13.7348 18 14 18C14.2652 18 14.5196 17.8946 14.7071 17.7071C14.8946 17.5196 15 17.2652 15 17C15 16.7348 14.8946 16.4804 14.7071 16.2929C14.5196 16.1054 14.2652 16 14 16ZM18 13C17.7348 13 17.4804 13.1054 17.2929 13.2929C17.1054 13.4804 17 13.7348 17 14C17 14.2652 17.1054 14.5196 17.2929 14.7071C17.4804 14.8946 17.7348 15 18 15C18.2652 15 18.5196 14.8946 18.7071 14.7071C18.8946 14.5196 19 14.2652 19 14C19 13.7348 18.8946 13.4804 18.7071 13.2929C18.5196 13.1054 18.2652 13 18 13ZM25 7C24.7348 7 24.4804 7.10536 24.2929 7.29289C24.1054 7.48043 24 7.73478 24 8C24 8.26522 24.1054 8.51957 24.2929 8.70711C24.4804 8.89464 24.7348 9 25 9C25.2652 9 25.5196 8.89464 25.7071 8.70711C25.8946 8.51957 26 8.26522 26 8C26 7.73478 25.8946 7.48043 25.7071 7.29289C25.5196 7.10536 25.2652 7 25 7ZM12 11C11.7348 11 11.4804 11.1054 11.2929 11.2929C11.1054 11.4804 11 11.7348 11 12C11 12.2652 11.1054 12.5196 11.2929 12.7071C11.4804 12.8946 11.7348 13 12 13C12.2652 13 12.5196 12.8946 12.7071 12.7071C12.8946 12.5196 13 12.2652 13 12C13 11.7348 12.8946 11.4804 12.7071 11.2929C12.5196 11.1054 12.2652 11 12 11ZM18 9C17.7348 9 17.4804 9.10536 17.2929 9.29289C17.1054 9.48043 17 9.73478 17 10C17 10.2652 17.1054 10.5196 17.2929 10.7071C17.4804 10.8946 17.7348 11 18 11C18.2652 11 18.5196 10.8946 18.7071 10.7071C18.8946 10.5196 19 10.2652 19 10C19 9.73478 18.8946 9.48043 18.7071 9.29289C18.5196 9.10536 18.2652 9 18 9Z" fill="#FFA726"/>
<path d="M9.5 41.5C11.633 39.367 13.767 39.367 15.9 37.233C18.033 35.1 18.008 32.992 20.167 30.833C22.3 28.7 23.9 29.233 26.567 26.566C29.234 23.899 28.7 22.299 30.834 20.166C32.993 18.007 35.101 18.033 37.234 15.899C39.367 13.766 39.367 11.632 41.501 9.49902L37.501 5.49902C35.368 7.63202 35.368 9.76602 33.234 11.899C31.1 14.032 28.993 14.007 26.834 16.166C24.701 18.299 25.234 19.899 22.567 22.566C19.9 25.233 18.3 24.699 16.167 26.833C14.008 28.992 14.034 31.1 11.9 33.233C9.766 35.366 7.633 35.367 5.5 37.5L9.5 41.5Z" fill="#FFF3E0"/>
<path d="M6.207 38.207L4.793 36.793C5.975 35.611 7.133 35.032 8.253 34.472C9.275 33.96 10.241 33.478 11.192 32.527C12.14 31.579 12.618 30.621 13.123 29.607C13.682 28.485 14.261 27.325 15.458 26.127C16.59 24.995 17.6 24.525 18.577 24.072C19.605 23.593 20.576 23.143 21.859 21.86C23.141 20.578 23.592 19.607 24.07 18.58C24.524 17.602 24.993 16.593 26.126 15.461C27.324 14.263 28.484 13.685 29.606 13.125C30.62 12.619 31.577 12.142 32.525 11.194C33.477 10.242 33.96 9.27601 34.471 8.25401C35.031 7.13401 35.61 5.97601 36.792 4.79401L38.206 6.20801C37.254 7.16001 36.771 8.12601 36.26 9.14801C35.7 10.268 35.121 11.426 33.939 12.608C32.761 13.787 31.61 14.36 30.498 14.915C29.474 15.425 28.507 15.907 27.539 16.875C26.657 17.757 26.298 18.529 25.883 19.423C25.378 20.51 24.805 21.742 23.273 23.275C21.74 24.808 20.507 25.38 19.42 25.886C18.526 26.301 17.754 26.659 16.873 27.541C15.906 28.509 15.424 29.476 14.914 30.499C14.359 31.612 13.786 32.763 12.607 33.941C11.426 35.122 10.268 35.701 9.148 36.261C8.125 36.771 7.159 37.255 6.207 38.207Z" fill="#C74343"/>
<path d="M10.207 42.207L8.793 40.793C9.975 39.611 11.133 39.032 12.253 38.472C13.275 37.96 14.241 37.478 15.192 36.527C16.14 35.579 16.618 34.621 17.123 33.607C17.682 32.485 18.261 31.325 19.458 30.127C20.59 28.995 21.6 28.525 22.577 28.072C23.605 27.593 24.576 27.143 25.859 25.86C27.141 24.578 27.592 23.607 28.07 22.58C28.524 21.602 28.993 20.593 30.126 19.461C31.324 18.263 32.484 17.685 33.606 17.125C34.62 16.619 35.577 16.142 36.525 15.194C37.477 14.242 37.96 13.276 38.471 12.254C39.031 11.134 39.61 9.97601 40.792 8.79401L42.206 10.208C41.254 11.16 40.771 12.126 40.26 13.148C39.7 14.268 39.121 15.426 37.939 16.608C36.761 17.787 35.61 18.36 34.498 18.915C33.474 19.425 32.507 19.907 31.539 20.875C30.657 21.757 30.298 22.529 29.883 23.423C29.378 24.51 28.805 25.742 27.273 27.275C25.74 28.808 24.507 29.38 23.42 29.886C22.526 30.301 21.754 30.659 20.873 31.541C19.906 32.509 19.424 33.476 18.914 34.499C18.359 35.612 17.786 36.763 16.607 37.941C15.426 39.122 14.268 39.701 13.148 40.261C12.125 40.771 11.159 41.255 10.207 42.207Z" fill="#689F38"/>
</svg>
