<svg width="96" height="96" viewBox="0 0 96 96" fill="none" xmlns="http://www.w3.org/2000/svg">
<g id="Season Sale">
<path id="Vector" d="M12 80V24H84V80C84 82.2 82.2 84 80 84H16C13.8 84 12 82.2 12 80Z" fill="#FC92A7"/>
<path id="Vector_2" d="M84 16V28H12V16C12 13.8 13.8 12 16 12H80C82.2 12 84 13.8 84 16Z" fill="url(#paint0_linear_370_9669)"/>
<path id="Vector_3" opacity="0.05" d="M71 25C67.686 25 65 22.314 65 19V12H77V19C77 22.314 74.314 25 71 25Z" fill="black"/>
<path id="Vector_4" opacity="0.07" d="M71 23.5C68.514 23.5 66.5 21.486 66.5 19V12H75.5V19C75.5 21.486 73.486 23.5 71 23.5Z" fill="black"/>
<path id="Vector_5" opacity="0.05" d="M25 25C21.686 25 19 22.314 19 19V12H31V19C31 22.314 28.314 25 25 25Z" fill="black"/>
<path id="Vector_6" opacity="0.07" d="M25 23.5C22.514 23.5 20.5 21.486 20.5 19V12H29.5V19C29.5 21.486 27.486 23.5 25 23.5Z" fill="black"/>
<path id="Vector_7" d="M25 22C23.344 22 22 20.656 22 19V11C22 9.344 23.344 8 25 8C26.656 8 28 9.344 28 11V19C28 20.656 26.656 22 25 22Z" fill="#3CCBF4"/>
<path id="Vector_8" d="M71 22C69.344 22 68 20.656 68 19V11C68 9.344 69.344 8 71 8C72.656 8 74 9.344 74 11V19C74 20.656 72.656 22 71 22Z" fill="#3CCBF4"/>
<path id="Vector_9" opacity="0.05" d="M39.0541 56.696C37.0621 56.696 35.4561 56.066 34.2401 54.802C33.0241 53.538 32.4141 51.84 32.4141 49.704C32.4141 47.374 33.0621 45.524 34.3581 44.158C35.6541 42.792 37.3821 42.108 39.5441 42.108C41.6141 42.108 43.2321 42.728 44.3981 43.964C45.5641 45.2 46.1461 46.938 46.1461 49.178C46.1461 51.482 45.5021 53.312 44.2121 54.666C42.9221 56.02 41.2041 56.696 39.0541 56.696ZM59.5041 42.498L41.2621 70.506H36.4961L54.7001 42.498H59.5041ZM39.4261 45.544C37.5261 45.544 36.5741 46.866 36.5741 49.508C36.5741 52.008 37.4781 53.258 39.2881 53.258C41.1381 53.258 42.0621 51.956 42.0621 49.352C42.0621 46.814 41.1841 45.544 39.4261 45.544ZM56.4961 70.896C54.5041 70.896 52.8981 70.266 51.6821 69.002C50.4661 67.738 49.8561 66.04 49.8561 63.904C49.8561 61.574 50.5041 59.724 51.8001 58.358C53.0961 56.992 54.8241 56.308 56.9861 56.308C59.0701 56.308 60.6921 56.92 61.8501 58.144C63.0081 59.368 63.5881 61.1 63.5881 63.34C63.5881 65.644 62.9441 67.48 61.6541 68.848C60.3641 70.216 58.6441 70.896 56.4961 70.896ZM56.8081 59.744C54.9201 59.744 53.9761 61.066 53.9761 63.708C53.9761 66.208 54.8941 67.458 56.7301 67.458C58.5801 67.458 59.5041 66.156 59.5041 63.552C59.5041 62.342 59.2561 61.404 58.7621 60.74C58.2681 60.076 57.6161 59.744 56.8081 59.744Z" stroke="black" stroke-width="5.32" stroke-miterlimit="10"/>
<path id="Vector_10" opacity="0.07" d="M39.0541 56.696C37.0621 56.696 35.4561 56.066 34.2401 54.802C33.0241 53.538 32.4141 51.84 32.4141 49.704C32.4141 47.374 33.0621 45.524 34.3581 44.158C35.6541 42.792 37.3821 42.108 39.5441 42.108C41.6141 42.108 43.2321 42.728 44.3981 43.964C45.5641 45.2 46.1461 46.938 46.1461 49.178C46.1461 51.482 45.5021 53.312 44.2121 54.666C42.9221 56.02 41.2041 56.696 39.0541 56.696ZM59.5041 42.498L41.2621 70.506H36.4961L54.7001 42.498H59.5041ZM39.4261 45.544C37.5261 45.544 36.5741 46.866 36.5741 49.508C36.5741 52.008 37.4781 53.258 39.2881 53.258C41.1381 53.258 42.0621 51.956 42.0621 49.352C42.0621 46.814 41.1841 45.544 39.4261 45.544ZM56.4961 70.896C54.5041 70.896 52.8981 70.266 51.6821 69.002C50.4661 67.738 49.8561 66.04 49.8561 63.904C49.8561 61.574 50.5041 59.724 51.8001 58.358C53.0961 56.992 54.8241 56.308 56.9861 56.308C59.0701 56.308 60.6921 56.92 61.8501 58.144C63.0081 59.368 63.5881 61.1 63.5881 63.34C63.5881 65.644 62.9441 67.48 61.6541 68.848C60.3641 70.216 58.6441 70.896 56.4961 70.896ZM56.8081 59.744C54.9201 59.744 53.9761 61.066 53.9761 63.708C53.9761 66.208 54.8941 67.458 56.7301 67.458C58.5801 67.458 59.5041 66.156 59.5041 63.552C59.5041 62.342 59.2561 61.404 58.7621 60.74C58.2681 60.076 57.6161 59.744 56.8081 59.744Z" stroke="black" stroke-width="2.66" stroke-miterlimit="10"/>
<path id="Vector_11" d="M39.0541 56.696C37.0621 56.696 35.4561 56.066 34.2401 54.802C33.0241 53.538 32.4141 51.84 32.4141 49.704C32.4141 47.374 33.0621 45.524 34.3581 44.158C35.6541 42.792 37.3821 42.108 39.5441 42.108C41.6141 42.108 43.2321 42.728 44.3981 43.964C45.5641 45.2 46.1461 46.938 46.1461 49.178C46.1461 51.482 45.5021 53.312 44.2121 54.666C42.9221 56.02 41.2041 56.696 39.0541 56.696ZM59.5041 42.498L41.2621 70.506H36.4961L54.7001 42.498H59.5041ZM39.4261 45.544C37.5261 45.544 36.5741 46.866 36.5741 49.508C36.5741 52.008 37.4781 53.258 39.2881 53.258C41.1381 53.258 42.0621 51.956 42.0621 49.352C42.0621 46.814 41.1841 45.544 39.4261 45.544ZM56.4961 70.896C54.5041 70.896 52.8981 70.266 51.6821 69.002C50.4661 67.738 49.8561 66.04 49.8561 63.904C49.8561 61.574 50.5041 59.724 51.8001 58.358C53.0961 56.992 54.8241 56.308 56.9861 56.308C59.0701 56.308 60.6921 56.92 61.8501 58.144C63.0081 59.368 63.5881 61.1 63.5881 63.34C63.5881 65.644 62.9441 67.48 61.6541 68.848C60.3641 70.216 58.6441 70.896 56.4961 70.896ZM56.8081 59.744C54.9201 59.744 53.9761 61.066 53.9761 63.708C53.9761 66.208 54.8941 67.458 56.7301 67.458C58.5801 67.458 59.5041 66.156 59.5041 63.552C59.5041 62.342 59.2561 61.404 58.7621 60.74C58.2681 60.076 57.6161 59.744 56.8081 59.744Z" fill="white"/>
</g>
<defs>
<linearGradient id="paint0_linear_370_9669" x1="12.84" y1="13.216" x2="82.396" y2="27.36" gradientUnits="userSpaceOnUse">
<stop stop-color="#F44F5A"/>
<stop offset="0.443" stop-color="#EE3D4A"/>
<stop offset="1" stop-color="#E52030"/>
</linearGradient>
</defs>
</svg>
