<svg width="48" height="48" viewBox="0 0 48 48" fill="none" xmlns="http://www.w3.org/2000/svg">
<path d="M28.999 32H23.999H18.999C18.999 32 7.99 34.344 7.999 45H39.999C40.186 34.594 28.999 32 28.999 32Z" fill="#CFD8DC"/>
<path d="M23.999 33L18.999 32V26H28.999V32L23.999 33Z" fill="#FF9800"/>
<path d="M34.999 20C34.999 21.105 34.104 22 32.999 22C31.895 22 30.999 21.105 30.999 20C30.999 18.895 31.895 18 32.999 18C34.104 18 34.999 18.895 34.999 20ZM16.999 20C16.999 18.895 16.104 18 14.999 18C13.894 18 12.999 18.895 12.999 20C12.999 21.105 13.894 22 14.999 22C16.104 22 16.999 21.105 16.999 20Z" fill="#FFA726"/>
<path d="M32.999 14C32.999 6.36501 14.999 9.02901 14.999 14V21C14.999 25.971 19.028 30 23.999 30C28.971 30 32.999 25.971 32.999 21V14Z" fill="#FFB74D"/>
<path d="M23.999 5C17.924 5 13.999 9.926 13.999 16V18.286L15.999 20V15L27.999 14.25L31.999 15V20L33.999 18.258V16C33.999 11.975 32.961 7.984 27.999 7L26.999 5H23.999Z" fill="#424242"/>
<path d="M26.999 20C26.999 19.449 27.447 19 27.999 19C28.551 19 28.999 19.449 28.999 20C28.999 20.551 28.551 21 27.999 21C27.447 21 26.999 20.551 26.999 20ZM18.999 20C18.999 20.551 19.447 21 19.999 21C20.551 21 20.999 20.551 20.999 20C20.999 19.449 20.551 19 19.999 19C19.447 19 18.999 19.449 18.999 20Z" fill="#784719"/>
<path d="M36.865 9.199C36.108 11.141 33.999 13 33.999 13C33.999 13 31.626 10.508 24 10.508C16.372 10.508 13.999 13 13.999 13C13.999 13 11.891 11.141 11.135 9.199C11.005 8.867 10.741 8.271 11.689 8.105C18.076 6.981 21.63 2 24 2C27.554 2 29.923 6.981 36.31 8.106C37.258 8.271 36.994 8.867 36.865 9.199Z" fill="#1A237E"/>
<path d="M38.999 36L29.999 32.25V36.25L38.999 40V36ZM8.999 40L17.999 36.25V32.25L8.999 36V40Z" fill="#3F51B5"/>
<path d="M22.999 36L21.999 35L23.999 33L25.999 35L24.999 36L25.999 45H21.999L22.999 36Z" fill="#3F51B5"/>
<path d="M13.999 13V15H33.999V13C33.999 13 31.626 10.508 24 10.508C16.372 10.508 13.999 13 13.999 13Z" fill="#3F51B5"/>
<path d="M33.999 14.998C33.999 14.998 32.239 18 24 18C15.76 18 13.999 14.998 13.999 14.998C13.999 14.998 16.848 13 24 13C31.151 13 33.999 14.998 33.999 14.998Z" fill="#263238"/>
<path d="M25.999 5.961C25.999 5.961 25.104 5 23.999 5C22.895 5 21.999 5.961 21.999 5.961C21.999 7.066 22.896 9 23.999 9C25.104 9 25.999 7.066 25.999 5.961Z" fill="#FFEB3B"/>
<path d="M17.999 42H11.999V45H17.999V42Z" fill="#3F51B5"/>
<path d="M35.999 42H29.999V45H35.999V42Z" fill="#3F51B5"/>
</svg>
