<svg width="48" height="48" viewBox="0 0 48 48" fill="none" xmlns="http://www.w3.org/2000/svg">
<path d="M1.2 31.2C1.2 31.2 4.4 32.1 5.8 32.1C7.2 32.1 40.5 32 42 32C43.5 32 45.4 31.6 46.7 31.3C47.5 31.1 48 30.4 48 29.7V25C48 20.3 36 18 36 18C36 18 29.2 11 19 11C8.8 11 4 19 4 19L1.2 19.8C0.5 19.9 0 20.5 0 21.2V29.8C0 30.5 0.5 31.1 1.2 31.2Z" fill="#9FA8DA"/>
<path d="M6 22H0V25H2L7 23L6 22Z" fill="#FF1744"/>
<path d="M35 20C34.9 19.7 34.6 19.4 34.6 19.4C34.5 19.3 28.2 13 19 13C13.8 13 10.2 15.3 8.10001 17.3L9.00001 20H35Z" fill="#37474F"/>
<path d="M20 13V20H22V13.2C21.4 13.1 20.7 13.1 20 13Z" fill="#212121"/>
<path d="M20 20H22V32H20V20Z" fill="#7986CB"/>
<path d="M5 32C5 29.2 7.2 27 10 27C12.8 27 15 29.2 15 32C15 34.8 12.8 37 10 37C7.2 37 5 34.8 5 32ZM38 37C40.8 37 43 34.8 43 32C43 29.2 40.8 27 38 27C35.2 27 33 29.2 33 32C33 34.8 35.2 37 38 37Z" fill="#37474F"/>
<path d="M8 32C8 30.9 8.9 30 10 30C11.1 30 12 30.9 12 32C12 33.1 11.1 34 10 34C8.9 34 8 33.1 8 32ZM38 34C39.1 34 40 33.1 40 32C40 30.9 39.1 30 38 30C36.9 30 36 30.9 36 32C36 33.1 36.9 34 38 34Z" fill="#90A4AE"/>
<path d="M45 21.2C41.9 20.5 41 21 41 21C41 23.6 48 25 48 25C48 23.5 46.7 22.2 45 21.2Z" fill="#B3E5FC"/>
</svg>
