<svg width="48" height="48" viewBox="0 0 48 48" fill="none" xmlns="http://www.w3.org/2000/svg">
<path d="M18 32C16.9 32 16 31.1 16 30V20H12V30C12 33.3 14.7 36 18 36H37V32H18Z" fill="#009688"/>
<path d="M12.8 10L12.4 8.7C11.8 7.1 10.3 6 8.6 6H5V10H8.6L14.1 26.6C14.4 27.4 15.1 28 16 28H35C35.8 28 36.5 27.5 36.8 26.8L44.4 10H12.8Z" fill="#009688"/>
<path d="M5 6C4.46957 6 3.96086 6.21071 3.58579 6.58579C3.21071 6.96086 3 7.46957 3 8C3 8.53043 3.21071 9.03914 3.58579 9.41421C3.96086 9.78929 4.46957 10 5 10C5.53043 10 6.03914 9.78929 6.41421 9.41421C6.78929 9.03914 7 8.53043 7 8C7 7.46957 6.78929 6.96086 6.41421 6.58579C6.03914 6.21071 5.53043 6 5 6Z" fill="#00695C"/>
<path d="M34 36C33.2044 36 32.4413 36.3161 31.8787 36.8787C31.3161 37.4413 31 38.2044 31 39C31 39.7956 31.3161 40.5587 31.8787 41.1213C32.4413 41.6839 33.2044 42 34 42C34.7956 42 35.5587 41.6839 36.1213 41.1213C36.6839 40.5587 37 39.7956 37 39C37 38.2044 36.6839 37.4413 36.1213 36.8787C35.5587 36.3161 34.7956 36 34 36ZM19 36C18.2044 36 17.4413 36.3161 16.8787 36.8787C16.3161 37.4413 16 38.2044 16 39C16 39.7956 16.3161 40.5587 16.8787 41.1213C17.4413 41.6839 18.2044 42 19 42C19.7956 42 20.5587 41.6839 21.1213 41.1213C21.6839 40.5587 22 39.7956 22 39C22 38.2044 21.6839 37.4413 21.1213 36.8787C20.5587 36.3161 19.7956 36 19 36Z" fill="#37474F"/>
<path d="M34 38C33.7348 38 33.4804 38.1054 33.2929 38.2929C33.1054 38.4804 33 38.7348 33 39C33 39.2652 33.1054 39.5196 33.2929 39.7071C33.4804 39.8946 33.7348 40 34 40C34.2652 40 34.5196 39.8946 34.7071 39.7071C34.8946 39.5196 35 39.2652 35 39C35 38.7348 34.8946 38.4804 34.7071 38.2929C34.5196 38.1054 34.2652 38 34 38ZM19 38C18.7348 38 18.4804 38.1054 18.2929 38.2929C18.1054 38.4804 18 38.7348 18 39C18 39.2652 18.1054 39.5196 18.2929 39.7071C18.4804 39.8946 18.7348 40 19 40C19.2652 40 19.5196 39.8946 19.7071 39.7071C19.8946 39.5196 20 39.2652 20 39C20 38.7348 19.8946 38.4804 19.7071 38.2929C19.5196 38.1054 19.2652 38 19 38Z" fill="#607D8B"/>
</svg>
