<svg width="48" height="48" viewBox="0 0 48 48" fill="none" xmlns="http://www.w3.org/2000/svg">
<path d="M5 19H43V38H5V19Z" fill="#CFD8DC"/>
<path d="M5 38H43V42H5V38Z" fill="#B0BEC5"/>
<path d="M27 24H39V42H27V24Z" fill="#455A64"/>
<path d="M9 24H23V35H9V24Z" fill="#E3F2FD"/>
<path d="M10 25H22V34H10V25Z" fill="#1E88E5"/>
<path d="M36.5 33.5C36.2 33.5 36 33.7 36 34V36C36 36.3 36.2 36.5 36.5 36.5C36.8 36.5 37 36.3 37 36V34C37 33.7 36.8 33.5 36.5 33.5Z" fill="#90A4AE"/>
<path d="M24 16C23.2044 16 22.4413 16.3161 21.8787 16.8787C21.3161 17.4413 21 18.2044 21 19C21 19.7956 21.3161 20.5587 21.8787 21.1213C22.4413 21.6839 23.2044 22 24 22C24.7956 22 25.5587 21.6839 26.1213 21.1213C26.6839 20.5587 27 19.7956 27 19C27 18.2044 26.6839 17.4413 26.1213 16.8787C25.5587 16.3161 24.7956 16 24 16ZM36 16C35.2044 16 34.4413 16.3161 33.8787 16.8787C33.3161 17.4413 33 18.2044 33 19C33 19.7956 33.3161 20.5587 33.8787 21.1213C34.4413 21.6839 35.2044 22 36 22C36.7956 22 37.5587 21.6839 38.1213 21.1213C38.6839 20.5587 39 19.7956 39 19C39 18.2044 38.6839 17.4413 38.1213 16.8787C37.5587 16.3161 36.7956 16 36 16ZM12 16C11.2044 16 10.4413 16.3161 9.87868 16.8787C9.31607 17.4413 9 18.2044 9 19C9 19.7956 9.31607 20.5587 9.87868 21.1213C10.4413 21.6839 11.2044 22 12 22C12.7956 22 13.5587 21.6839 14.1213 21.1213C14.6839 20.5587 15 19.7956 15 19C15 18.2044 14.6839 17.4413 14.1213 16.8787C13.5587 16.3161 12.7956 16 12 16Z" fill="#558B2F"/>
<path d="M40 6H8C6.9 6 6 6.9 6 8V11H42V8C42 6.9 41.1 6 40 6ZM21 11H27V19H21V11ZM37 11H32L33 19H39L37 11ZM11 11H16L15 19H9L11 11Z" fill="#7CB342"/>
<path d="M30 16C29.2044 16 28.4413 16.3161 27.8787 16.8787C27.3161 17.4413 27 18.2044 27 19C27 19.7956 27.3161 20.5587 27.8787 21.1213C28.4413 21.6839 29.2044 22 30 22C30.7956 22 31.5587 21.6839 32.1213 21.1213C32.6839 20.5587 33 19.7956 33 19C33 18.2044 32.6839 17.4413 32.1213 16.8787C31.5587 16.3161 30.7956 16 30 16ZM45 19C45 20.7 43.7 22 42 22C40.3 22 39 20.7 39 19C39 17.3 40.3 16 42 16L45 19ZM18 16C17.2044 16 16.4413 16.3161 15.8787 16.8787C15.3161 17.4413 15 18.2044 15 19C15 19.7956 15.3161 20.5587 15.8787 21.1213C16.4413 21.6839 17.2044 22 18 22C18.7956 22 19.5587 21.6839 20.1213 21.1213C20.6839 20.5587 21 19.7956 21 19C21 18.2044 20.6839 17.4413 20.1213 16.8787C19.5587 16.3161 18.7956 16 18 16ZM3 19C3 20.7 4.3 22 6 22C7.7 22 9 20.7 9 19C9 17.3 7.7 16 6 16L3 19Z" fill="#FFA000"/>
<path d="M32 11H27V19H33L32 11ZM42 11H37L39 19H45L42 11ZM16 11H21V19H15L16 11ZM6 11H11L9 19H3L6 11Z" fill="#FFC107"/>
</svg>
