<svg width="48" height="48" viewBox="0 0 48 48" fill="none" xmlns="http://www.w3.org/2000/svg">
<path d="M44 24C44 35 35 44 24 44C13 44 4 35 4 24C4 13 13 4 24 4C35 4 44 13 44 24Z" fill="#E0DDDC"/>
<path d="M8.69934 19.6202L9.33193 17.7229L17.2058 20.3481L16.5732 22.2455L8.69934 19.6202Z" fill="#BFBFBF"/>
<path d="M23 8H25V16H23V8Z" fill="#BFBFBF"/>
<path d="M13.6172 36.2703L18.7202 28.6152L20.3843 29.7246L15.2814 37.3796L13.6172 36.2703Z" fill="#BFBFBF"/>
<path d="M27.6165 29.7271L29.2806 28.6178L34.3836 36.2728L32.7194 37.3822L27.6165 29.7271Z" fill="#BFBFBF"/>
<path d="M27.7762 21.3533L38.6874 17.7207L39.3192 19.6183L28.408 23.2509L27.7762 21.3533Z" fill="#BFBFBF"/>
<path d="M16 21L24 15L32 21L29 30H19L16 21ZM30 4.9C28.1 4.3 26.1 4 24 4C21.9 4 19.9 4.3 18 4.9L16.4 7.8L24 10L31 8L30 4.9ZM42 26L44 24C44 19 42.2 14.5 39.2 11L37 11.3V19.4L42 26ZM32.2 34.8L27.9 41.6L30.2 43C34.7 41.5 38.5 38.5 40.9 34.6L40.1 31.7L32.2 34.8ZM11.1 19.4L11 11.3L8.8 11C5.8 14.5 4 19 4 24L6 26L11.1 19.4ZM7.9 31.8L7.1 34.7C9.6 38.6 13.3 41.6 17.8 43.1L20 41.5L15.9 34.9L7.9 31.8Z" fill="#546E7A"/>
</svg>
