<svg width="48" height="48" viewBox="0 0 48 48" fill="none" xmlns="http://www.w3.org/2000/svg">
<path d="M34 34C24.8 43.2 11.9 45.2 7.3 40.7C2.7 36.2 4.8 23.2 14 14C23.2 4.8 36.2 2.8 40.7 7.3C45.2 11.8 43.2 24.8 34 34Z" fill="#D84315"/>
<path d="M34 34C24.8 43.2 11.9 45.2 7.3 40.7C14.3 40.7 23.5 30.9 27.2 27.2C30.9 23.5 40.7 13.7 40.7 7.3C45.2 11.8 43.2 24.8 34 34Z" fill="#BF360C"/>
<path d="M17.5 32C17.1 32 16.7 31.9 16.4 31.6C15.8 31 15.8 30.1 16.4 29.5L29.4 16.5C30 15.9 30.9 15.9 31.5 16.5C32.1 17.1 32.1 18 31.5 18.6L18.5 31.6C18.3 31.9 17.9 32 17.5 32Z" fill="#FF8A65"/>
<path d="M29 27C29 28.1 28.1 29 27 29C25.9 29 25 28.1 25 27C25 25.9 25.9 25 27 25C28.1 25 29 25.9 29 27ZM23 21C23 22.1 22.1 23 21 23C19.9 23 19 22.1 19 21C19 19.9 19.9 19 21 19C22.1 19 23 19.9 23 21Z" fill="#872F14"/>
<path d="M27 28C26.7 28 26.5 27.9 26.3 27.7L20.3 21.7C19.9 21.3 19.9 20.7 20.3 20.3C20.7 19.9 21.3 19.9 21.7 20.3L27.7 26.3C28.1 26.7 28.1 27.3 27.7 27.7C27.5 27.9 27.3 28 27 28Z" fill="#FFAB91"/>
<path d="M33 23C33 24.1 32.1 25 31 25C29.9 25 29 24.1 29 23C29 21.9 29.9 21 31 21C32.1 21 33 21.9 33 23ZM27 17C27 18.1 26.1 19 25 19C23.9 19 23 18.1 23 17C23 15.9 23.9 15 25 15C26.1 15 27 15.9 27 17Z" fill="#872F14"/>
<path d="M31 24C30.7 24 30.5 23.9 30.3 23.7L24.3 17.7C23.9 17.3 23.9 16.7 24.3 16.3C24.7 15.9 25.3 15.9 25.7 16.3L31.7 22.3C32.1 22.7 32.1 23.3 31.7 23.7C31.5 23.9 31.3 24 31 24Z" fill="#FFAB91"/>
<path d="M25 31C25 32.1 24.1 33 23 33C21.9 33 21 32.1 21 31C21 29.9 21.9 29 23 29C24.1 29 25 29.9 25 31ZM19 25C19 26.1 18.1 27 17 27C15.9 27 15 26.1 15 25C15 23.9 15.9 23 17 23C18.1 23 19 23.9 19 25Z" fill="#872F14"/>
<path d="M23 32C22.7 32 22.5 31.9 22.3 31.7L16.3 25.7C15.9 25.3 15.9 24.7 16.3 24.3C16.7 23.9 17.3 23.9 17.7 24.3L23.7 30.3C24.1 30.7 24.1 31.3 23.7 31.7C23.5 31.9 23.3 32 23 32Z" fill="#FFAB91"/>
</svg>
