<svg width="96" height="96" viewBox="0 0 96 96" fill="none" xmlns="http://www.w3.org/2000/svg">
<g id="Student Center">
<path id="Vector" d="M84.684 27.398L51.578 10.844C49.326 9.71801 46.674 9.71801 44.422 10.844L11.316 27.398C9.284 28.414 8 30.492 8 32.764V77.056V78C8 80.21 9.79 82 12 82H84C86.21 82 88 80.21 88 78V77.056V32.764C88 30.492 86.716 28.414 84.684 27.398Z" fill="url(#paint0_linear_370_10011)"/>
<path id="Vector_2" d="M78 42H74V60H78V42Z" fill="#3A41AC"/>
<path id="Vector_3" d="M76 69.2C76 69.2 80 64.21 80 62C80 59.79 78.21 58 76 58C73.79 58 72 59.79 72 62C72 64.21 76 69.2 76 69.2Z" fill="#3A41AC"/>
<path id="Vector_4" d="M45.802 55.024L16.878 43.928C15.706 43.478 15.706 41.95 16.878 41.5L45.802 30.406C47.208 29.866 48.792 29.866 50.198 30.406L79.12 41.5C80.292 41.95 80.292 43.478 79.12 43.928L50.198 55.022C48.79 55.564 47.21 55.564 45.802 55.024Z" fill="#5059C9"/>
<path id="Vector_5" d="M48 42C35.85 42 30 44.33 30 47.204V63.524C40 64 48 70 48 70C48 70 56 64 66 63.524V47.204C66 44.33 60.15 42 48 42Z" fill="#7B83EB"/>
</g>
<defs>
<linearGradient id="paint0_linear_370_10011" x1="48" y1="20.468" x2="48" y2="87.788" gradientUnits="userSpaceOnUse">
<stop stop-color="#FFD869"/>
<stop offset="1" stop-color="#FEC52B"/>
</linearGradient>
</defs>
</svg>
