<svg width="48" height="48" viewBox="0 0 48 48" fill="none" xmlns="http://www.w3.org/2000/svg">
<path d="M38 38C38 38 29 35 24 35C19 35 10 38 10 38C10 38 13 28 13 24C13 20 10 10 10 10C10 10 19 13 24 13C29 13 38 10 38 10C38 10 35 20 35 24C35 28 38 38 38 38Z" fill="#FF9800"/>
<path d="M43 24C43 24 34.778 28.778 31.778 31.778C28.778 34.778 24 43 24 43C24 43 19.722 35.278 16.222 31.778C12.722 28.278 5 24 5 24C5 24 13.221 19.223 16.222 16.223C19.223 13.223 24 5 24 5C24 5 28.779 13.223 31.778 16.223C34.777 19.223 43 24 43 24Z" fill="#FF9800"/>
<path d="M14 24C14 29.524 18.477 34 24 34C29.523 34 34 29.524 34 24C34 18.476 29.523 14 24 14C18.477 14 14 18.476 14 24Z" fill="#FFEB3B"/>
</svg>
