<svg width="88" height="85" viewBox="0 0 88 85" fill="none" xmlns="http://www.w3.org/2000/svg">
<rect width="88" height="85" fill="#F5F5F5"/>
<g id="Tax" clip-path="url(#clip0_349_6520)">
<path id="Vector" d="M39.076 65.438V25H49.076V60.85C46.3621 62.97 42.902 64.704 39.076 65.438Z" fill="url(#paint0_radial_349_6520)"/>
<path id="Vector_2" d="M86 85H2C0.896 85 0 84.104 0 83V43C0 41.896 0.896 41 2 41H86C87.104 41 88 41.896 88 43V83C88 84.104 87.104 85 86 85Z" fill="#61E3A7"/>
<path id="Vector_3" d="M10 41V85H78V41H10ZM36 79C27.164 79 20 71.836 20 63C20 54.164 27.164 47 36 47C44.836 47 52 54.164 52 63C52 71.836 44.836 79 36 79ZM73 79C71.344 79 70 77.656 70 76C70 74.344 71.344 73 73 73C74.656 73 76 74.344 76 76C76 77.656 74.656 79 73 79ZM65 79C63.344 79 62 77.656 62 76C62 74.344 63.344 73 65 73C66.656 73 68 74.344 68 76C68 77.656 66.656 79 65 79Z" fill="#33C481"/>
<path id="Vector_4" d="M44 49C42.896 49 42 48.104 42 47V41H46V47C46 48.104 45.104 49 44 49Z" fill="#088242"/>
<path id="Vector_5" d="M44 61C42.896 61 42 60.104 42 59V55C42 53.896 42.896 53 44 53C45.104 53 46 53.896 46 55V59C46 60.104 45.104 61 44 61Z" fill="#088242"/>
<path id="Vector_6" d="M44 73C42.896 73 42 72.104 42 71V67C42 65.896 42.896 65 44 65C45.104 65 46 65.896 46 67V71C46 72.104 45.104 73 44 73Z" fill="#088242"/>
<path id="Vector_7" d="M46 85H42V79C42 77.896 42.896 77 44 77C45.104 77 46 77.896 46 79V85Z" fill="#088242"/>
<path id="Vector_8" d="M49.076 25V11C49.076 8.44 48.1 5.882 46.148 3.928C42.242 0.0220046 35.912 0.0220046 32.006 3.928C28.1 7.834 28.1 14.164 32.006 18.07C33.958 20.024 36.516 21 39.076 21V25H49.076ZM43.318 15.242C40.974 17.586 37.176 17.586 34.832 15.242C32.488 12.898 32.488 9.10001 34.832 6.756C37.176 4.412 40.974 4.412 43.318 6.756C45.662 9.10001 45.662 12.9 43.318 15.242Z" fill="url(#paint1_linear_349_6520)"/>
<path id="Vector_9" d="M72.3099 29.394C76.2159 25.488 76.2159 19.158 72.3099 15.252C68.4039 11.346 62.0739 11.346 58.1679 15.252L48.2679 25.152L55.3399 32.224L58.1679 29.396C62.0739 33.298 68.4039 33.298 72.3099 29.394ZM69.4819 26.564C67.1379 28.908 63.3399 28.908 60.9959 26.564C58.6519 24.22 58.6519 20.422 60.9959 18.078C63.3399 15.734 67.1379 15.734 69.4819 18.078C71.8259 20.422 71.8239 24.222 69.4819 26.564Z" fill="url(#paint2_linear_349_6520)"/>
<path id="Vector_10" d="M17.156 70.406L16.768 70.018C13.076 66.326 13.076 60.342 16.768 56.65L48.268 25.15L55.34 32.222L17.156 70.406Z" fill="url(#paint3_linear_349_6520)"/>
<path id="Vector_11" d="M44.052 38.304C45.0539 38.304 45.866 37.4918 45.866 36.49C45.866 35.4882 45.0539 34.676 44.052 34.676C43.0502 34.676 42.238 35.4882 42.238 36.49C42.238 37.4918 43.0502 38.304 44.052 38.304Z" fill="white"/>
<path id="Vector_12" d="M14.802 67.102L34.126 47.778L36.954 50.606L17.156 70.404L16.768 70.016C15.904 69.154 15.262 68.158 14.802 67.102Z" fill="#E6E6E6"/>
</g>
<defs>
<radialGradient id="paint0_radial_349_6520" cx="0" cy="0" r="1" gradientUnits="userSpaceOnUse" gradientTransform="translate(30.8108 27.4738) rotate(45) scale(39.132)">
<stop offset="0.805" stop-color="#9A9A9A"/>
<stop offset="0.864" stop-color="#929292"/>
<stop offset="0.953" stop-color="#7E7E7E"/>
<stop offset="1" stop-color="#707070"/>
</radialGradient>
<linearGradient id="paint1_linear_349_6520" x1="25.8413" y1="13.0008" x2="49.0542" y2="13.0008" gradientUnits="userSpaceOnUse">
<stop stop-color="#199AE0"/>
<stop offset="1" stop-color="#0782D8"/>
</linearGradient>
<linearGradient id="paint2_linear_349_6520" x1="43.9063" y1="22.3233" x2="75.2114" y2="22.3233" gradientUnits="userSpaceOnUse">
<stop stop-color="#32BDEF"/>
<stop offset="1" stop-color="#1EA2E4"/>
</linearGradient>
<linearGradient id="paint3_linear_349_6520" x1="16.3151" y1="64.1755" x2="51.9052" y2="28.5854" gradientUnits="userSpaceOnUse">
<stop stop-color="#C9C9C9"/>
<stop offset="1" stop-color="#B3B3B3"/>
</linearGradient>
<clipPath id="clip0_349_6520">
<rect width="88" height="85" fill="white"/>
</clipPath>
</defs>
</svg>
