<svg width="48" height="48" viewBox="0 0 48 48" fill="none" xmlns="http://www.w3.org/2000/svg">
<path d="M33 19H28.4V22H33C35.2 22 37 23.8 37 26C37 26 36.9 27.7 35.6 30.3L35.2 31C33.8 34 33.1 35 31.4 35H28.4V38H31.4C35.1 38 36.5 35.1 37.9 32.4L38.3 31.7C39.9 28.5 40 26.2 40 26C40 22.1 36.9 19 33 19Z" fill="#6A1B9A"/>
<path d="M25 14.9L24.7 14.4C24.6 14.2 23.6 12.5 23.6 10.9C23.6 9.90002 24 9.30002 24.2 8.90002C24.4 8.50002 24.6 8.30002 24.6 7.90002C24.6 7.00002 24 5.80002 23.7 5.40002L23.4 5.00002L25.1 3.90002L25.4 4.40002C25.5 4.60002 26.5 6.30002 26.5 7.90002C26.5 8.90002 26.1 9.50002 25.9 9.90002C25.7 10.3 25.5 10.5 25.5 10.9C25.5 11.8 26.1 13 26.4 13.4L26.7 13.9L25 14.9ZM20 14.9L19.7 14.4C19.6 14.2 18.6 12.5 18.6 10.9C18.6 9.90002 19 9.30002 19.2 8.90002C19.4 8.50002 19.6 8.30002 19.6 7.90002C19.6 7.00002 19 5.80002 18.7 5.40002L18.4 5.00002L20.1 3.90002L20.4 4.40002C20.5 4.60002 21.5 6.30002 21.5 7.90002C21.5 8.90002 21.1 9.50002 20.9 9.90002C20.7 10.3 20.5 10.5 20.5 10.9C20.5 11.8 21.1 13 21.4 13.4L21.7 13.9L20 14.9ZM15 14.9L14.7 14.4C14.6 14.2 13.6 12.5 13.6 10.9C13.6 9.90002 14 9.30002 14.2 8.90002C14.4 8.50002 14.6 8.30002 14.6 7.90002C14.6 7.00002 14 5.80002 13.7 5.40002L13.4 5.00002L15.1 3.90002L15.4 4.40002C15.5 4.60002 16.5 6.30002 16.5 7.90002C16.5 8.90002 16.1 9.50002 15.9 9.90002C15.7 10.3 15.5 10.5 15.5 10.9C15.5 11.8 16.1 13 16.4 13.4L16.7 13.9L15 14.9Z" fill="#BCAAA4"/>
<path d="M32 14.5C32 13.7 31.3 13 30.5 13H9.5C8.7 13 8 13.7 8 14.5C8 14.5 8 28 11 44H29C32 28 32 14.5 32 14.5Z" fill="#9C27B0"/>
<path d="M22 26C21.4 26 21 25.6 21 25V13C21 12.4 21.4 12 22 12C22.6 12 23 12.4 23 13V25C23 25.6 22.6 26 22 26Z" fill="#FFE082"/>
<path d="M26 31.5C26 32.3 25.4 33 24.7 33H19.4C18.7 33 18.1 32.3 18.1 31.5V25.5C18.1 24.7 18.7 24 19.4 24H24.7C25.4 24 26 24.7 26 25.5V31.5Z" fill="#FFCA28"/>
</svg>
