<svg width="48" height="48" viewBox="0 0 48 48" fill="none" xmlns="http://www.w3.org/2000/svg">
<path d="M44 5H9V32H44V5Z" fill="#DD7C12"/>
<path d="M42 7H11V31H42V7Z" fill="#009688"/>
<path d="M46 35V33C46 31.9 45.1 31 44 31H9C7.9 31 7 31.9 7 33V35H46Z" fill="#773D04"/>
<path d="M10 19C7.2 19 5 16.8 5 14C5 11.2 7.3 9 10 9C12.8 9 15 11.2 15 14C15 16.8 12.7 19 10 19Z" fill="#FFB74D"/>
<path d="M5 41L2 39V35H5V41Z" fill="#FFB74D"/>
<path d="M28 20.125V23.725L24.625 26.25L23 23.75L28 20.125Z" fill="#FFB74D"/>
<path d="M24.571 22.01L20.999 24.616C20.999 24.616 14.981 21.106 14.5 20.841C14.094 20.618 13.704 20.433 13.338 20.333C13.182 20.29 13.015 20.248 12.84 20.209C12.29 20.089 11.64 19.999 10.97 19.999H9.97C8.93 19.999 8.01 20.099 7.21 20.279C3.09 21.2 2 24.32 2 28V36L5 38V43H15L16 29.625V26.343L20.123 28.73C20.434 28.911 20.78 29 21.125 29C21.54 29 21.954 28.871 22.304 28.615L26.929 25.24L24.571 22.01Z" fill="#455A64"/>
<path d="M12.84 20.21L10.02 24L7.21 20.28C8.01 20.1 8.93 20 9.97 20H10.97C11.64 20 12.29 20.09 12.84 20.21Z" fill="#E3F2FD"/>
<path d="M31 10H18V12H31V10Z" fill="white"/>
<path d="M39 15H18V17H39V15Z" fill="white"/>
<path d="M39 10H33V12H39V10Z" fill="white"/>
</svg>
