<svg width="48" height="48" viewBox="0 0 48 48" fill="none" xmlns="http://www.w3.org/2000/svg">
<path d="M5 39V15H43V39C43 41.209 41.209 43 39 43H9C6.791 43 5 41.209 5 39Z" fill="#CFD8DC"/>
<path d="M5 25H43V33H5V25Z" fill="#ECEFF1"/>
<path d="M13 27H17V31H13V27ZM19 27H23V31H19V27ZM31 27H35V31H31V27Z" fill="#B0BEC5"/>
<path d="M13 21H17V25H13V21ZM19 21H23V25H19V21ZM25 21H29V25H25V21ZM31 21H35V25H31V21ZM13 33H17V37H13V33ZM19 33H23V37H19V33ZM25 33H29V37H25V33ZM31 33H35V37H31V33Z" fill="#90A4AE"/>
<path d="M25 27H29V31H25V27ZM43 11V17H5V11C5 8.791 6.791 7 9 7H39C41.209 7 43 8.791 43 11Z" fill="#F44336"/>
<path d="M36 11C36 12.657 34.657 14 33 14C31.343 14 30 12.657 30 11C30 9.343 31.343 8 33 8C34.657 8 36 9.343 36 11ZM18 11C18 12.657 16.657 14 15 14C13.343 14 12 12.657 12 11C12 9.343 13.343 8 15 8C16.657 8 18 9.343 18 11Z" fill="#B71C1C"/>
<path d="M33 4C31.896 4 31 4.896 31 6V11C31 12.104 31.896 13 33 13C34.104 13 35 12.104 35 11V6C35 4.896 34.104 4 33 4ZM15 4C13.896 4 13 4.896 13 6V11C13 12.104 13.896 13 15 13C16.104 13 17 12.104 17 11V6C17 4.896 16.104 4 15 4Z" fill="#B0BEC5"/>
</svg>
