<svg width="48" height="48" viewBox="0 0 48 48" fill="none" xmlns="http://www.w3.org/2000/svg">
<path d="M27 11C27 11.553 26.553 12 26 12C25.447 12 25 11.553 25 11C24.447 11 24 11 24 11V17H28V11C28 11 27.553 11 27 11Z" fill="#FF9800"/>
<path d="M6.5 26C6.253 26 6.003 25.939 5.772 25.812C5.047 25.41 4.787 24.497 5.189 23.772L9.985 16.532C10.798 15.575 11.912 14.323 12.633 14.725C13.358 15.127 13.807 16.276 13.405 17L7.812 25.229C7.538 25.722 7.026 26 6.5 26ZM21.5 22C21.114 22 20.73 21.852 20.439 21.561L16.439 17.561C15.853 16.975 15.853 16.026 16.439 15.44C17.025 14.854 17.974 14.854 18.56 15.44L21.64 18.52L24.6 16.3C25.265 15.806 26.204 15.937 26.701 16.6C27.198 17.263 27.063 18.204 26.401 18.701L22.401 21.701C22.132 21.901 21.815 22 21.5 22ZM15.5 12C13.568 12 12 10.43 12 8.5C12 6.57 13.568 5 15.5 5C17.432 5 19 6.57 19 8.5C19 10.43 17.432 12 15.5 12ZM36.5 12C34.568 12 33 10.43 33 8.5C33 6.57 34.568 5 36.5 5C38.432 5 40 6.57 40 8.5C40 10.43 38.432 12 36.5 12Z" fill="#FFB74D"/>
<path d="M29 42H6V26H29V42Z" fill="#FFA000"/>
<path d="M37 14.043V14.023C36.854 14.014 36.71 14 36.563 14C36.538 14 36.514 14.004 36.489 14.004C36.471 14.004 36.457 14 36.438 14C36.291 14 36.146 14.014 36 14.023V14.03C34.699 14.148 33.51 14.671 32.537 15.479C32.355 15.584 32.195 15.728 32.068 15.908C31.73 16.247 31.424 16.62 31.161 17.028L28.406 20.406L23.728 23.214C23.017 23.64 22.787 24.562 23.213 25.272C23.494 25.741 23.991 26.001 24.5 26.001C24.763 26.001 25.029 25.933 25.271 25.787L30.271 22.787C30.482 22.66 30.659 22.483 30.786 22.272L32.032 20.715L33 42H36H37H39L39.886 31.365C40.074 31.45 40.281 31.5 40.5 31.5C41.328 31.5 42 30.828 42 30V28V20C42 16.347 40.25 14.264 37 14.043Z" fill="#607D8B"/>
<path d="M39.887 31.365C39.365 31.131 39 30.609 39 30V19C39 19 37 27 37 30C37 31.72 38.164 33.063 39.716 33.408L39.887 31.365Z" fill="#455A64"/>
<path d="M21.641 18.52C21.641 18.52 19.221 15.534 19.219 15.532C18.73 14.942 17.455 14.021 15.5 14.021C12.094 14.021 10.888 15.144 10.354 15.955C9.82 16.766 8.3 19.076 8.3 19.076L10.916 20.689C10.484 22.987 9.978 25.72 9.555 28H20.693C20.395 26.062 19.935 23.074 19.568 20.688L21.641 18.52Z" fill="#E91E63"/>
<path d="M5 26H30V30H5V26Z" fill="#EF6C00"/>
</svg>
