<svg width="48" height="48" viewBox="0 0 48 48" fill="none" xmlns="http://www.w3.org/2000/svg">
<path d="M36 13C38.205 13 40 11.205 40 9C40 6.795 38.205 5 36 5C33.795 5 32 6.795 32 9C32 11.205 33.795 13 36 13Z" fill="#FFB74D"/>
<path d="M7.07444 40.1056L22.074 25.1055L23.4883 26.5197L8.48867 41.5198L7.07444 40.1056Z" fill="#546E7A"/>
<path d="M22 28C21.492 28 20.985 27.809 20.596 27.424C19.809 26.648 19.801 25.382 20.576 24.596L29.826 15.221C30.602 14.432 31.868 14.425 32.654 15.201C33.441 15.977 33.449 17.243 32.674 18.029L23.424 27.404C23.032 27.802 22.517 28 22 28Z" fill="#1976D2"/>
<path d="M14.975 29.025C14.291 28.342 13.396 28 12.5 28C11.604 28 10.709 28.342 10.025 29.025C9.261 29.789 5.793 33.257 5.025 34.025C4.343 34.707 4.001 35.6 4 36.494C3.999 37.392 4.34 38.29 5.025 38.975C6.392 40.342 8 42 8 42L18 32C18 32 15.401 29.451 14.975 29.025Z" fill="#DD2C00"/>
<path d="M9 39C8.46957 39 7.96086 39.2107 7.58579 39.5858C7.21071 39.9609 7 40.4696 7 41C7 41.5304 7.21071 42.0391 7.58579 42.4142C7.96086 42.7893 8.46957 43 9 43C9.53043 43 10.0391 42.7893 10.4142 42.4142C10.7893 42.0391 11 41.5304 11 41C11 40.4696 10.7893 39.9609 10.4142 39.5858C10.0391 39.2107 9.53043 39 9 39Z" fill="#546E7A"/>
<path d="M34.86 21.88L32.91 28.32L31.39 26.47L33.43 19.72L34.86 21.88Z" fill="#1976D2"/>
<path d="M27.743 27L26.144 33.218L22.264 40.008C21.716 40.967 22.049 42.189 23.008 42.737C23.32 42.915 23.662 43 23.998 43C24.692 43 25.367 42.639 25.736 41.992L29.736 34.992C29.816 34.852 29.879 34.704 29.923 34.55L32.077 27H27.743Z" fill="#1976D2"/>
<path d="M42.89 23.21L39.37 21.45L35.442 15.585C35.008 14.924 34.362 14.397 33.547 14.15C33.212 14.049 32.874 14.001 32.541 14C31.033 13.995 29.641 14.97 29.181 16.484L26.15 26.484C25.77 27.739 26.145 29.028 26.988 29.915C28.375 31.374 33.1 34.859 33.1 34.859L34.02 41.279C34.16 42.279 35.02 42.999 36 42.999C36.09 42.999 36.19 42.989 36.28 42.979C37.285 42.833 38.005 41.977 38 40.999C38 40.907 37.994 40.813 37.98 40.719L36.98 33.719C36.93 33.339 36.77 32.989 36.52 32.699L32.91 28.317L34.861 21.879L36.33 24.099C36.53 24.399 36.79 24.629 37.11 24.789L41.11 26.789C41.39 26.93 41.7 27 42 27C42.73 27 43.44 26.6 43.79 25.89C44.28 24.91 43.88 23.71 42.89 23.21Z" fill="#2196F3"/>
</svg>
