<svg width="48" height="48" viewBox="0 0 48 48" fill="none" xmlns="http://www.w3.org/2000/svg">
<g clip-path="url(#clip0_7524_11527)">
<path d="M20.4 47.4H45.6V39.2472H20.4C17.2654 39.2899 14.2418 38.0877 11.9922 35.9043C9.74271 33.7209 8.45086 30.7345 8.4 27.6C8.45086 24.4655 9.74271 21.4791 11.9922 19.2957C14.2418 17.1123 17.2654 15.9101 20.4 15.9528H39.6V7.80001H20.4C15.0713 7.72782 9.9314 9.77161 6.10728 13.4833C2.28315 17.1949 0.0868749 22.2715 0 27.6C0.0868749 32.9285 2.28315 38.0051 6.10728 41.7168C9.9314 45.4284 15.0713 47.4722 20.4 47.4Z" fill="#3F51B5"/>
<path d="M48 12L33.6 0.600006V23.4L48 12Z" fill="#3F51B5"/>
</g>
<defs>
<clipPath id="clip0_7524_11527">
<rect width="48" height="48" fill="white"/>
</clipPath>
</defs>
</svg>
