<svg width="48" height="48" viewBox="0 0 48 48" fill="none" xmlns="http://www.w3.org/2000/svg">
<g clip-path="url(#clip0_7524_11523)">
<path d="M27.6 47.4H2.40002V39.2472H27.6C30.7346 39.2899 33.7582 38.0877 36.0078 35.9043C38.2573 33.7209 39.5492 30.7345 39.6 27.6C39.5492 24.4655 38.2573 21.4791 36.0078 19.2957C33.7582 17.1123 30.7346 15.9101 27.6 15.9528H8.40002V7.80001H27.6C32.9287 7.72782 38.0686 9.77161 41.8927 13.4833C45.7169 17.1949 47.9132 22.2715 48 27.6C47.9132 32.9285 45.7169 38.0051 41.8927 41.7168C38.0686 45.4284 32.9287 47.4722 27.6 47.4Z" fill="#3F51B5"/>
<path d="M0 12L14.4 0.600006V23.4L0 12Z" fill="#3F51B5"/>
</g>
<defs>
<clipPath id="clip0_7524_11523">
<rect width="48" height="48" fill="white"/>
</clipPath>
</defs>
</svg>
