<svg width="96" height="96" viewBox="0 0 96 96" fill="none" xmlns="http://www.w3.org/2000/svg">
<g id="Vial Virus">
<path id="Vector" d="M21.646 81.47C16.87 75.614 14.004 68.14 14.004 59.998C14.004 46.222 22.21 34.35 33.998 29.012L34 11.998H62.002V29.008C73.792 34.35 82.002 46.222 82.002 59.998C82.002 68.14 79.136 75.614 74.36 81.47C69.144 87.856 62.826 87.998 48.002 87.998C33.18 87.998 26.862 87.858 21.646 81.47Z" fill="url(#paint0_linear_370_10024)"/>
<path id="Vector_2" fill-rule="evenodd" clip-rule="evenodd" d="M37.998 1.99597V11.998H58.006V1.99597H37.998Z" fill="#BA6215"/>
<path id="Vector_3" d="M30.004 11.998C30.004 9.79005 31.796 7.99805 34.004 7.99805H61.998C64.206 7.99805 65.998 9.79005 65.998 11.998C65.998 14.206 64.206 15.998 61.998 15.998H34.004C31.796 15.998 30.004 14.206 30.004 11.998Z" fill="#50E6FF"/>
<path id="Vector_4" d="M54.004 79.036C54.004 81.766 51.292 83.978 47.98 83.998C44.668 83.998 42.004 81.788 42.004 79.054C42.004 77.63 42.724 76.324 43.876 75.38C45.268 74.134 46.108 72.61 46.132 70.962C46.132 70.036 45.844 69.132 45.364 68.308H45.388C45.172 68.046 45.052 67.766 45.052 67.444C45.052 66.42 46.396 65.578 48.052 65.578C49.708 65.578 51.052 66.402 51.052 67.444C51.052 67.706 50.932 67.966 50.764 68.21C50.284 69.034 49.948 70.098 49.948 71.002C49.948 72.668 50.788 74.216 52.228 75.46H52.204C53.308 76.382 54.004 77.67 54.004 79.036Z" fill="#5A8DD7"/>
<path id="Vector_5" d="M68.938 75.486C67.124 78.152 63.626 78.8 61.122 76.924C59.84 75.964 59.048 74.548 58.802 73.004C58.538 71.086 57.724 69.438 56.32 68.396C55.544 67.812 54.63 67.478 53.672 67.354L53.694 67.336C53.368 67.354 53.04 67.274 52.776 67.086C51.922 66.44 51.962 64.856 52.88 63.52C53.776 62.186 55.2 61.622 56.056 62.266C56.32 62.456 56.504 62.746 56.584 63.1L56.624 63.038C57.054 63.976 57.664 64.768 58.456 65.352C59.84 66.392 61.614 66.664 63.446 66.288L63.464 66.31C64.91 66.038 66.438 66.352 67.698 67.288C70.198 69.146 70.748 72.818 68.938 75.486Z" fill="#0C53BB"/>
<path id="Vector_6" d="M43.604 52.406C43.436 52.238 43.23 52.124 43.002 52.062L43.028 52.036C42.218 51.758 41.34 51.294 40.726 50.684C39.656 49.614 39.12 48.182 39.064 46.628C39.064 45.43 38.61 44.226 37.71 43.324C35.944 41.558 33.088 41.558 31.326 43.324C29.56 45.086 29.56 47.946 31.326 49.708C32.208 50.59 33.39 51.044 34.568 51.054C36.122 51.112 37.648 51.678 38.714 52.748C39.258 53.292 39.762 54.21 40.064 54.97C40.122 55.21 40.234 55.426 40.41 55.602C41.072 56.264 42.324 56.084 43.204 55.204C44.09 54.318 44.266 53.068 43.604 52.406Z" fill="#5A8DD7"/>
<path id="Vector_7" d="M41.402 65.3259C40.612 64.1599 39.346 63.6699 38.57 64.2299C38.332 64.3999 38.18 64.6559 38.09 64.9519L38.058 64.9039C37.666 65.7179 37.114 66.4139 36.4 66.9299C35.168 67.8199 33.638 68.0599 32.046 67.7679C30.724 67.5139 29.302 67.7819 28.132 68.6259C25.876 70.2579 25.326 73.4679 26.908 75.7959C28.486 78.1259 31.598 78.6919 33.858 77.0599C34.996 76.2379 35.722 74.9899 35.96 73.6599L35.982 73.6379C36.246 71.9479 37 70.5079 38.262 69.5979C38.968 69.0859 39.774 68.7959 40.632 68.6859L40.614 68.6619C40.916 68.6759 41.2 68.6139 41.436 68.4439C42.206 67.8899 42.194 66.4899 41.402 65.3259Z" fill="#3374D3"/>
<path id="Vector_8" d="M38.178 57.996C37.906 57.996 37.648 58.066 37.416 58.186C36.616 58.482 35.574 58.724 34.714 58.724C33.074 58.724 31.562 58.154 30.324 57.202V57.208C29.626 56.464 28.674 56 27.65 56C25.636 56 24.004 57.79 24.004 60C24.004 62.21 25.636 64 27.65 64C28.688 64 29.652 63.522 30.352 62.758C31.576 61.832 33.062 61.276 34.678 61.276C35.614 61.276 36.684 61.54 37.51 61.874V61.856C37.72 61.946 37.944 62 38.182 62C39.19 62 40.008 61.104 40.008 60C40.004 58.892 39.186 57.996 38.178 57.996Z" fill="#0C53BB"/>
<path id="Vector_9" d="M71.708 55.452C70.786 52.73 67.98 51.324 65.444 52.316C64.094 52.844 63.11 53.946 62.606 55.268C61.836 56.802 60.692 57.994 59.204 58.578C58.318 58.924 57.14 58.984 56.218 58.876L56.232 58.908C56.016 58.884 55.8 58.9 55.592 58.98C54.64 59.354 54.24 60.758 54.704 62.118C55.166 63.478 56.312 64.28 57.264 63.908C57.552 63.794 57.784 63.578 57.962 63.302L57.976 63.328C58.61 62.626 59.36 62.074 60.232 61.736C61.784 61.128 63.45 61.272 65.016 61.992L65.01 61.974C66.152 62.56 67.504 62.676 68.786 62.174C71.324 61.182 72.628 58.172 71.708 55.452Z" fill="#3374D3"/>
<path id="Vector_10" d="M54.004 39.246C54.004 36.348 51.766 33.998 49.004 33.998C46.242 33.998 44.004 36.348 44.004 39.246C44.004 40.71 44.578 42.03 45.502 42.982L45.504 43.012C46.698 44.228 47.408 45.716 47.408 47.332C47.408 48.242 47.176 49.106 46.77 49.908H46.8C46.614 50.156 46.502 50.438 46.502 50.742C46.502 51.734 47.622 52.54 49.004 52.54C50.386 52.54 51.502 51.734 51.502 50.742C51.502 50.44 51.39 50.158 51.206 49.908H51.26C50.842 49.094 50.602 48.214 50.602 47.292C50.602 45.692 51.304 44.22 52.474 43.012C53.414 42.054 54.004 40.726 54.004 39.246Z" fill="#3374D3"/>
<path id="Vector_11" d="M64.012 42.756C62.598 41.566 60.17 41.286 58.588 42.284C57.446 43.004 57.014 44.108 56.762 45.366C56.576 46.286 56.412 47.216 56.104 48.104C55.73 49.17 55.12 50.008 54.334 50.802C53.79 51.354 53.192 51.848 52.516 52.218C51.882 52.57 51.164 52.866 50.74 53.49C50.118 54.404 50.466 55.802 51.404 56.38C52.346 56.958 53.69 56.69 54.394 55.838C54.72 55.446 54.914 54.966 55.146 54.512C55.932 52.968 57.22 51.69 58.754 50.886C60.328 50.056 62.25 50.132 63.748 49.152C64.642 48.568 65.276 47.6 65.452 46.544C65.684 45.154 65.084 43.662 64.012 42.756Z" fill="#0C53BB"/>
<path id="Vector_12" d="M48.004 47.998C41.378 47.998 36.004 53.372 36.004 59.998C36.004 66.624 41.378 71.998 48.004 71.998C54.63 71.998 60.004 66.624 60.004 59.998C60.004 53.372 54.63 47.998 48.004 47.998Z" fill="url(#paint1_linear_370_10024)"/>
<path id="Vector_13" d="M46.004 59.998C43.802 59.998 42.004 58.198 42.004 55.998C42.004 53.798 43.804 51.998 46.004 51.998C48.204 51.998 50.004 53.798 50.004 55.998C50.004 58.198 48.204 59.998 46.004 59.998Z" fill="#5A8DD7"/>
<path id="Vector_14" d="M51.004 67.998C49.35 67.998 48.004 66.648 48.004 64.998C48.004 63.348 49.354 61.998 51.004 61.998C52.654 61.998 54.004 63.348 54.004 64.998C54.004 66.65 52.654 67.998 51.004 67.998Z" fill="#5A8DD7"/>
</g>
<defs>
<linearGradient id="paint0_linear_370_10024" x1="26.8878" y1="33.2858" x2="70.1619" y2="80.7421" gradientUnits="userSpaceOnUse">
<stop stop-color="#A3FFFF"/>
<stop offset="0.223" stop-color="#9DF3FF"/>
<stop offset="0.53" stop-color="#8BF1FF"/>
<stop offset="0.885" stop-color="#6EEDFF"/>
<stop offset="1" stop-color="#63DAFF"/>
</linearGradient>
<linearGradient id="paint1_linear_370_10024" x1="48.004" y1="47.998" x2="48.004" y2="71.998" gradientUnits="userSpaceOnUse">
<stop stop-color="#427FDB"/>
<stop offset="0.01" stop-color="#427FDB"/>
<stop offset="0.397" stop-color="#2668CB"/>
<stop offset="0.763" stop-color="#1358BF"/>
<stop offset="1" stop-color="#0C52BB"/>
</linearGradient>
</defs>
</svg>
