<svg width="48" height="48" viewBox="0 0 48 48" fill="none" xmlns="http://www.w3.org/2000/svg">
<path d="M31.5 32.9C30.3 32.9 30.9 30.1 30.9 29.7C31 29.5 30 17.6 30 17.6C30.1 17.2 30.3 16.7 31 16.7C31 16.7 31 16.7 31.1 16.7H31.2C32.8 16.7 34.2 15.4 34.2 13.8C34.2 12.2 32.9 10.9 31.2 10.9C29.6 10.9 28.2 12.2 28.2 13.8C28.2 14.1 28.2 14.4 28.3 14.7C28.3 14.7 28.9 16.2 27.6 16C27.6 16 16.3 19.9 15.8 20C14.4 22.5 10.8 21.2 9.69999 20.4C9.39999 20 8.79999 19.7 8.09999 19.7C6.89999 19.7 5.89999 20.7 5.89999 21.9C5.99999 23 6.99999 24 8.19999 24C8.59999 24 9.09999 23.9 9.39999 23.7C11.2 22.8 14.5 23.4 14.9 25V25.1C15 25.4 17.3 30 17.6 30.4C19.1 33.2 15.4 34.3 15.4 34.3C14.4 34.3 13.5 35.2 13.5 36.3C13.5 37.5 14.5 38.5 15.7 38.5C16.9 38.5 17.9 37.5 17.9 36.3C18.2 34 19.4 32.5 21.6 32.4C21.9 32.5 27.3 32.1 27.7 32C29.3 32.3 28.4 33.6 28.4 35.8C28.4 37.4 29.7 38.7 31.4 38.7C33 38.7 34.4 37.4 34.4 35.8C34.5 34.2 33.2 32.9 31.5 32.9Z" fill="#2E7D32"/>
<path d="M38.1 18.2C37.2 18.2 36.5 18.6 36.2 19.4C35.3 20.7 33.4 21 32.2 20.4C32 19.9 19.4 16.5 19.4 16.6C17.8 17.5 16.3 14.7 16.4 13.4V13.3C16.5 13 16.5 12.7 16.5 12.4C16.5 10.8 15.2 9.5 13.5 9.5C11.9 9.5 10.5 10.8 10.5 12.4C10.5 13.7 11.4 14.7 12.4 15.2C14.1 15.9 16.4 17.9 16.2 19.3C16.9 20.5 15.3 26.7 15.4 27.2C14.5 28.1 12.7 27.9 12 27.6C11.7 27.2 11.1 27 10.5 27C8.9 27 7.5 28.3 7.5 29.9C7.5 31.5 8.8 32.8 10.5 32.8C11.5 32.8 12.3 32.4 12.9 31.6C13.8 30.3 15.3 29.1 16.6 29.1C16.8 29.4 32.9 23.1 32.9 23C33 22.4 35.4 21.8 37.5 22.3H38.1C39.3 22.3 40.3 21.3 40.3 20.1C40.3 18.9 39.3 18.2 38.1 18.2Z" fill="#4CAF50"/>
<path d="M33 24C33 29 29 33 24 33C19 33 15 29 15 24C15 19 19 15 24 15C29 15 33 19 33 24Z" fill="#4CAF50"/>
<path d="M26.3 32.5C26.6 31.9 25.5 31.7 24.6 31.7C23.7 31.7 22.8 32.2 23 32.8C25.4 36.4 23.6 36.9 22.5 37.6C21.6 38 21 39.1 21 40.1C21 41.7 22.3 43 24 43C25.7 43 27 41.7 27 40.1C27.1 37.3 25.3 33.4 26.3 32.5ZM38.9 26.9C38.3 26.9 37.7 27 37.3 27.3C35.5 28 33.9 26.7 32.7 25.9C32.1 25.5 31.4 26.5 31.2 26.8C31 27.1 30.7 28.5 31.9 28.5C33.9 27.8 36.4 31.3 36.4 31.3C36.8 32.3 37.9 32.9 39.1 32.9C40.7 32.9 42.1 31.6 42.1 30C41.8 28.2 40.5 26.9 38.9 26.9ZM21.4 9.5C23.3 13.4 23.2 14.9 22.1 15.3C21.2 16 22.7 16.9 23.8 16.7C24.9 16.5 25.9 16 25.2 15C23.5 12 25.7 10 25.7 10C26.4 9.6 26.9 8.7 26.9 7.8C26.9 6.2 25.6 4.9 23.9 4.9C22.2 4.9 20.9 6.2 20.9 7.8C20.9 8.2 21 8.7 21.2 9.1C21.2 9.4 21.2 9.4 21.4 9.5Z" fill="#8BC34A"/>
<path d="M22.4 24C20.8 24 19.4 22.7 19.4 21.1C19.4 19.5 20.7 18.2 22.4 18.2C24.1 18.2 25.4 19.5 25.4 21.1C25.4 22.7 24.1 24 22.4 24Z" fill="#C5E1A5"/>
<path d="M20.9 28.4C20 28.4 19.4 27.8 19.4 26.9C19.4 26 20 25.4 20.9 25.4C21.8 25.4 22.4 26 22.4 26.9C22.4 27.8 21.8 28.4 20.9 28.4Z" fill="#F1F8E9"/>
<path d="M26.2 30C25 30 24 29 24 27.8C24 26.6 25 25.6 26.2 25.6C27.4 25.6 28.4 26.6 28.4 27.8C28.4 29 27.4 30 26.2 30Z" fill="#DCEDC8"/>
<path d="M3.5643 6.3934L6.39268 3.56492L44.365 41.5359L41.5366 44.3644L3.5643 6.3934Z" fill="#37474F"/>
</svg>
