<svg width="48" height="48" viewBox="0 0 48 48" fill="none" xmlns="http://www.w3.org/2000/svg">
<path d="M38.114 18.154C37.218 18.154 36.471 18.592 36.173 19.322C35.277 20.638 33.335 20.93 32.14 20.346C31.919 19.841 19.294 16.4 19.294 16.545C17.651 17.422 16.157 14.646 16.307 13.329V13.183C16.456 12.891 16.456 12.598 16.456 12.306C16.456 10.699 15.111 9.383 13.469 9.383C11.825 9.383 10.481 10.698 10.481 12.306C10.481 13.621 11.377 14.645 12.423 15.084C14.087 15.762 16.389 17.824 16.235 19.168C16.899 20.359 15.296 26.617 15.411 27.067C14.515 27.944 12.722 27.797 11.975 27.505C11.677 27.067 11.079 26.92 10.481 26.92C8.838 26.92 7.494 28.235 7.494 29.844C7.494 31.451 8.838 32.767 10.481 32.767C11.527 32.767 12.273 32.328 12.871 31.597C13.767 30.283 15.262 29.113 16.606 29.113C16.8 29.397 32.889 23.121 32.889 22.975C33.037 22.39 35.428 21.805 37.519 22.244H38.116C39.311 22.244 40.358 21.221 40.358 20.052C40.358 18.883 39.31 18.154 38.114 18.154Z" fill="#4CAF50"/>
<path d="M31.543 32.915C30.349 32.915 30.946 30.139 30.946 29.7C31.093 29.482 30.05 17.569 30.05 17.569C30.199 17.13 30.349 16.692 31.095 16.692C31.095 16.692 31.095 16.692 31.244 16.692H31.394C33.037 16.692 34.38 15.377 34.38 13.769C34.38 12.161 33.036 10.846 31.394 10.846C29.75 10.846 28.406 12.16 28.406 13.769C28.406 14.061 28.406 14.353 28.554 14.646C28.554 14.646 29.153 16.107 27.808 15.96C27.808 15.96 16.511 19.882 15.962 19.981C14.584 22.505 10.919 21.213 9.884 20.346C9.585 19.907 8.988 19.615 8.24 19.615C7.045 19.615 6 20.639 6 21.808C6 22.978 7.045 24 8.241 24C8.69 24 9.137 23.854 9.436 23.708C11.228 22.83 14.515 23.415 14.963 25.022V25.169C15.03 25.498 17.371 30.019 17.651 30.43C19.145 33.207 15.411 34.376 15.411 34.376C14.365 34.376 13.469 35.253 13.469 36.422C13.469 37.592 14.514 38.614 15.709 38.614C16.904 38.614 17.95 37.592 17.95 36.422C18.249 34.085 19.444 32.622 21.684 32.477C22.03 32.589 27.36 32.184 27.808 32.039C29.452 32.33 28.554 33.646 28.554 35.839C28.554 37.446 29.9 38.762 31.542 38.762C33.186 38.762 34.53 37.447 34.53 35.839C34.531 34.23 33.187 32.915 31.543 32.915Z" fill="#2E7D32"/>
<path d="M24 15C21.6131 15 19.3239 15.9482 17.636 17.636C15.9482 19.3239 15 21.6131 15 24C15 26.3869 15.9482 28.6761 17.636 30.364C19.3239 32.0518 21.6131 33 24 33C26.3869 33 28.6761 32.0518 30.364 30.364C32.0518 28.6761 33 26.3869 33 24C33 21.6131 32.0518 19.3239 30.364 17.636C28.6761 15.9482 26.3869 15 24 15Z" fill="#4CAF50"/>
<path d="M26.315 32.478C26.646 31.833 25.515 31.641 24.625 31.672C23.735 31.703 22.875 32.219 23.038 32.785C25.412 36.424 23.624 36.862 22.58 37.593C21.684 38.031 21.086 39.054 21.086 40.077C21.086 41.684 22.431 43 24.074 43C25.717 43 27.062 41.685 27.062 40.077C27.063 37.3 25.27 33.354 26.315 32.478ZM38.862 26.923C38.264 26.923 37.668 27.069 37.219 27.361C35.437 28.088 33.804 26.793 32.611 25.916C32.015 25.547 31.338 26.483 31.14 26.859C30.942 27.235 30.64 28.562 31.841 28.53C33.874 27.875 36.321 31.307 36.321 31.307C36.77 32.329 37.816 32.914 39.01 32.914C40.655 32.914 41.998 31.599 41.998 29.991C41.85 28.238 40.506 26.923 38.862 26.923ZM21.386 9.53C23.327 13.477 23.178 14.938 22.133 15.377C21.203 16.047 22.703 16.953 23.812 16.813C24.921 16.673 25.921 16.125 25.232 15.159C23.517 12.131 25.717 10.116 25.717 10.116C26.464 9.678 26.911 8.801 26.911 7.924C26.912 6.315 25.568 5 23.925 5C22.282 5 20.938 6.315 20.938 7.923C20.938 8.361 21.087 8.8 21.237 9.238C21.237 9.385 21.237 9.385 21.386 9.53Z" fill="#8BC34A"/>
<path d="M22.432 24C20.788 24 19.445 22.685 19.445 21.077C19.445 19.469 20.789 18.154 22.432 18.154C24.075 18.154 25.419 19.469 25.419 21.077C25.419 22.685 24.075 24 22.432 24Z" fill="#C5E1A5"/>
<path d="M20.938 28.385C20.042 28.385 19.444 27.8 19.444 26.923C19.444 26.046 20.041 25.461 20.938 25.461C21.834 25.461 22.432 26.046 22.432 26.923C22.432 27.8 21.834 28.385 20.938 28.385Z" fill="#F1F8E9"/>
<path d="M26.166 29.992C24.971 29.992 23.925 28.97 23.925 27.8C23.925 26.63 24.97 25.608 26.166 25.608C27.36 25.608 28.406 26.63 28.406 27.8C28.406 28.97 27.36 29.992 26.166 29.992Z" fill="#DCEDC8"/>
</svg>
