<svg width="48" height="48" viewBox="0 0 48 48" fill="none" xmlns="http://www.w3.org/2000/svg">
<path d="M34.515 28.025C34.358 28.025 34.198 28 34.04 27.949L28.525 25.424C28.076 25.274 27.724 24.922 27.576 24.473L24 16C23.739 15.215 25.055 14.711 25.842 14.451C26.628 14.191 27.477 14.617 27.737 15.404L30.188 22.816L34.99 25.101C35.776 25.363 36.2 26.214 35.938 26.999C35.728 27.629 35.143 28.025 34.515 28.025Z" fill="#FFB74D"/>
<path d="M26.788 22.606L29.645 21.177L27.736 15.404C27.476 14.617 26.628 14.191 25.842 14.451C25.055 14.711 23.739 15.215 24 16L26.788 22.606Z" fill="#606FC4"/>
<path d="M26.5 4C28.433 4 30 5.567 30 7.5C30 9.432 28.433 11 26.5 11C24.567 11 23 9.432 23 7.5C23 5.567 24.567 4 26.5 4Z" fill="#FFB74D"/>
<path d="M12.999 44C12.548 44 12.094 43.848 11.72 43.535C10.871 42.828 10.757 41.568 11.464 40.718L16.202 35.035L19.084 25.426C19.402 24.367 20.519 23.766 21.574 24.084C22.633 24.402 24.317 25.941 24 27L19.916 36.574C19.838 36.831 19.709 37.074 19.536 37.281L14.536 43.281C14.141 43.754 13.572 44 12.999 44Z" fill="#B2AEAD"/>
<path d="M22.004 30.5C21.796 30.5 21.586 30.482 21.374 30.443C19.472 30.097 18.211 28.275 18.557 26.374L21.057 15.874C21.403 13.972 23.224 12.706 25.126 13.058C27.028 13.402 28.289 15.226 27.943 17.126L25.443 27.624C25.136 29.316 23.663 30.5 22.004 30.5Z" fill="#7E8CCF"/>
<path d="M13.516 29C13.441 29 13.366 28.994 13.289 28.984C12.471 28.859 11.907 28.093 12.031 27.273L13.611 19.742C13.67 19.359 13.875 19.014 14.182 18.777L20.994 13.558C22 13 23 13 24.609 13C25.437 13 23.658 16.496 23 17L16.486 20.793L14.997 27.727C14.884 28.469 14.244 29 13.516 29Z" fill="#FFB74D"/>
<path d="M29.297 34.734C29.276 34.703 29.255 34.675 29.232 34.644L25.299 28.146C25.357 27.977 25.41 27.805 25.443 27.624L25.502 27.375L18.721 25.68L18.556 26.374C18.313 27.708 18.873 28.993 19.88 29.766L26 37L29.336 43.109C29.722 43.688 30.355 44 31.002 44C31.383 44 31.769 43.891 32.109 43.664C33.028 43.051 33.276 41.809 32.664 40.891L29.297 34.734Z" fill="#D2CCC9"/>
<path d="M24.609 13C23 13 22 13 20.994 13.559L16.687 16.859L18.771 19.463L23 17C23.658 16.496 25.438 13 24.609 13Z" fill="#7E8CCF"/>
<path d="M34.515 28.025C34.358 28.025 34.198 28 34.04 27.949L28.525 25.424C28.076 25.274 27.724 24.922 27.576 24.473L24 16C23.739 15.215 25.055 14.711 25.842 14.451C26.628 14.191 27.477 14.617 27.737 15.404L30.188 22.816L34.99 25.101C35.776 25.363 36.2 26.214 35.938 26.999C35.728 27.629 35.143 28.025 34.515 28.025Z" fill="#FFAA45"/>
<path d="M26.788 22.606L29.645 21.177L27.736 15.404C27.476 14.617 26.628 14.191 25.842 14.451C25.055 14.711 23.739 15.215 24 16L26.788 22.606Z" fill="#606FC4"/>
<path d="M26.5 4C28.433 4 30 5.567 30 7.5C30 9.432 28.433 11 26.5 11C24.567 11 23 9.432 23 7.5C23 5.567 24.567 4 26.5 4Z" fill="#FFAA45"/>
<path d="M12.999 44C12.548 44 12.094 43.848 11.72 43.535C10.871 42.828 10.757 41.568 11.464 40.718L16.202 35.035L19.084 25.426C19.402 24.367 20.519 23.766 21.574 24.084C22.633 24.402 24.317 25.941 24 27L19.916 36.574C19.838 36.831 19.709 37.074 19.536 37.281L14.536 43.281C14.141 43.754 13.572 44 12.999 44Z" fill="#B2AEAD"/>
<path d="M22.004 30.5C21.796 30.5 21.586 30.482 21.374 30.443C19.472 30.097 18.211 28.275 18.557 26.374L21.057 15.874C21.403 13.972 23.224 12.706 25.126 13.058C27.028 13.402 28.289 15.226 27.943 17.126L25.443 27.624C25.136 29.316 23.663 30.5 22.004 30.5Z" fill="#7E8CCF"/>
<path d="M13.516 29C13.441 29 13.366 28.994 13.289 28.984C12.471 28.859 11.907 28.093 12.031 27.273L13.611 19.742C13.67 19.359 13.875 19.014 14.182 18.777L20.994 13.558C22 13 23 13 24.609 13C25.437 13 23.658 16.496 23 17L16.486 20.793L14.997 27.727C14.884 28.469 14.244 29 13.516 29Z" fill="#FFAA45"/>
<path d="M29.297 34.734C29.276 34.703 29.255 34.675 29.232 34.644L25.299 28.146C25.357 27.977 25.41 27.805 25.443 27.624L25.502 27.375L18.721 25.68L18.556 26.374C18.313 27.708 18.873 28.993 19.88 29.766L26 37L29.336 43.109C29.722 43.688 30.355 44 31.002 44C31.383 44 31.769 43.891 32.109 43.664C33.028 43.051 33.276 41.809 32.664 40.891L29.297 34.734Z" fill="#D2CCC9"/>
<path d="M24.609 13C23 13 22 13 20.994 13.559L16.687 16.859L18.771 19.463L23 17C23.658 16.496 25.438 13 24.609 13Z" fill="#7E8CCF"/>
</svg>
