<svg width="48" height="48" viewBox="0 0 48 48" fill="none" xmlns="http://www.w3.org/2000/svg">
<path d="M3 12V36C3 38.209 4.791 40 7 40C7 40 39 40 40 40C41 40 41 39.004 41 39.004V12H3Z" fill="#F57C00"/>
<path d="M40 8H7C4.791 8 3 9.79 3 11.999C3 14.208 4.791 16 7 16C7 16 39 16 40 16C41 16 41 17 41 17V9C41 8.448 40.553 8 40 8Z" fill="#942A09"/>
<path d="M7 12V16C14.303 16 39.147 16 40 16C41 16 41 17.002 41 17.002V38H43V16V13V12H7Z" fill="#4CAF50"/>
<path d="M7 14V16C12.509 16 28.052 16 35.683 16C35.387 15.378 35.186 14.705 35.082 14H7Z" fill="#C8E6C9"/>
<path d="M45 23H36C33.791 23 32 24.791 32 27C32 29.209 33.791 31 36 31H45V23Z" fill="#BF360C"/>
<path d="M36 25C35.4696 25 34.9609 25.2107 34.5858 25.5858C34.2107 25.9609 34 26.4696 34 27C34 27.5304 34.2107 28.0391 34.5858 28.4142C34.9609 28.7893 35.4696 29 36 29C36.5304 29 37.0391 28.7893 37.4142 28.4142C37.7893 28.0391 38 27.5304 38 27C38 26.4696 37.7893 25.9609 37.4142 25.5858C37.0391 25.2107 36.5304 25 36 25Z" fill="#FFECB3"/>
</svg>
