<svg width="48" height="48" viewBox="0 0 48 48" fill="none" xmlns="http://www.w3.org/2000/svg">
<path d="M39.989 12C39.989 12 40.988 35 24.173 44C7.01199 35 8.01099 12 8.01099 12C16.006 12 24 4 24 4C24 4 30.995 12 39.989 12Z" fill="#FFC107"/>
<path d="M22 32.142C22 31.873 22.047 31.627 22.143 31.396C22.237 31.168 22.372 30.97 22.546 30.804C22.717 30.636 22.928 30.505 23.17 30.411C23.414 30.319 23.688 30.27 23.994 30.27C24.3 30.27 24.576 30.319 24.822 30.411C25.072 30.505 25.283 30.636 25.454 30.804C25.629 30.97 25.764 31.168 25.857 31.396C25.953 31.627 26 31.873 26 32.142C26 32.412 25.953 32.658 25.857 32.882C25.763 33.107 25.628 33.301 25.454 33.47C25.283 33.636 25.072 33.766 24.822 33.862C24.576 33.954 24.3 34 23.994 34C23.687 34 23.414 33.954 23.17 33.861C22.928 33.765 22.717 33.635 22.546 33.469C22.371 33.3 22.236 33.106 22.143 32.881C22.047 32.657 22 32.411 22 32.142ZM25.48 28H22.507L22.086 16H25.9L25.48 28Z" fill="#5D4037"/>
</svg>
