<svg width="96" height="96" viewBox="0 0 96 96" fill="none" xmlns="http://www.w3.org/2000/svg">
<g id="Web Advertising">
<path id="Vector" d="M8 76V30H88V76C88 78.2 86.2 80 84 80H12C9.8 80 8 78.2 8 76Z" fill="#199BE2"/>
<path id="Vector_2" d="M88 20V30H8V20C8 17.8 9.8 16 12 16H84C86.2 16 88 17.8 88 20Z" fill="url(#paint0_linear_370_9758)"/>
<path id="Vector_3" d="M33 26H83C83.552 26 84 25.552 84 25V21C84 20.448 83.552 20 83 20H33C32.448 20 32 20.448 32 21V25C32 25.552 32.448 26 33 26Z" fill="url(#paint1_linear_370_9758)"/>
<path id="Vector_4" d="M15 26C16.6569 26 18 24.6569 18 23C18 21.3431 16.6569 20 15 20C13.3431 20 12 21.3431 12 23C12 24.6569 13.3431 26 15 26Z" fill="url(#paint2_linear_370_9758)"/>
<path id="Vector_5" d="M25 26C26.6569 26 28 24.6569 28 23C28 21.3431 26.6569 20 25 20C23.3431 20 22 21.3431 22 23C22 24.6569 23.3431 26 25 26Z" fill="url(#paint3_linear_370_9758)"/>
<path id="Vector_6" opacity="0.05" d="M64 49.532V40.472C64 38.006 61.994 36 59.528 36C57.824 36 56.29 36.948 55.528 38.47L54.51 40.508L43.106 46.21C42.428 46.55 42 47.242 42 48C42 46.896 41.104 46 40 46H34C30.692 46 28 48.692 28 52V56C28 59.308 30.692 62 34 62V68C34 70.206 35.794 72 38 72C40.206 72 42 70.206 42 68V60C42 60.758 42.428 61.45 43.106 61.79L54.51 67.492L55.53 69.532C56.292 71.056 57.826 72.002 59.53 72.002C61.994 72 64 69.994 64 67.528V58.464C65.252 57.34 65.996 55.718 66 54C66 52.282 65.254 50.658 64 49.532Z" fill="black"/>
<path id="Vector_7" opacity="0.07" d="M34 47H41V68C41 69.654 39.654 71 38 71C36.346 71 35 69.654 35 68V61H34C31.244 61 29 58.756 29 56V52C29 49.244 31.244 47 34 47ZM63 50.004V40.472C63 38.558 61.442 37 59.528 37C58.204 37 57.014 37.736 56.422 38.918L55.256 41.254L43 47.382V60.618L55.254 66.744L56.42 69.08C57.012 70.264 58.204 70.998 59.526 70.998C61.44 70.998 62.998 69.44 62.998 67.526V57.99C64.242 57.056 64.996 55.576 64.998 53.996C65 52.422 64.246 50.94 63 50.004Z" fill="black"/>
<path id="Vector_8" d="M57.316 39.366L56 42L44 48V60L56 66L57.316 68.634C57.736 69.47 58.592 70 59.528 70C60.894 70 62 68.894 62 67.528V57.458C63.236 56.744 63.998 55.428 64 54C63.998 52.572 63.236 51.254 62 50.54V40.474C62 39.106 60.894 38 59.528 38C58.592 38 57.736 38.53 57.316 39.366ZM34 48C31.8 48 30 49.8 30 52V56C30 58.2 31.8 60 34 60H36V68C36 69.104 36.896 70 38 70C39.104 70 40 69.104 40 68V56V48H34Z" fill="white"/>
</g>
<defs>
<linearGradient id="paint0_linear_370_9758" x1="9.228" y1="15.482" x2="85.872" y2="31.066" gradientUnits="userSpaceOnUse">
<stop stop-color="#0077D2"/>
<stop offset="1" stop-color="#0B59A2"/>
</linearGradient>
<linearGradient id="paint1_linear_370_9758" x1="32" y1="23" x2="84" y2="23" gradientUnits="userSpaceOnUse">
<stop stop-color="#7DD8F3"/>
<stop offset="1" stop-color="#45B0D0"/>
</linearGradient>
<linearGradient id="paint2_linear_370_9758" x1="13.502" y1="20.832" x2="16.064" y2="24.538" gradientUnits="userSpaceOnUse">
<stop stop-color="#75DAFF"/>
<stop offset="1" stop-color="#49BEF1"/>
</linearGradient>
<linearGradient id="paint3_linear_370_9758" x1="23.502" y1="20.832" x2="26.064" y2="24.538" gradientUnits="userSpaceOnUse">
<stop stop-color="#75DAFF"/>
<stop offset="1" stop-color="#49BEF1"/>
</linearGradient>
</defs>
</svg>
