<svg width="48" height="48" viewBox="0 0 48 48" fill="none" xmlns="http://www.w3.org/2000/svg">
<path d="M23 11.9H25V36.1H23V11.9Z" fill="#536DFE"/>
<path d="M12.6877 18.8239L13.6634 17.078L35.225 29.1274L34.2493 30.8732L12.6877 18.8239Z" fill="#536DFE"/>
<path d="M12.6894 29.1769L34.2489 17.1237L35.2248 18.8694L13.6653 30.9226L12.6894 29.1769Z" fill="#536DFE"/>
<path d="M17.1087 14.1248L18.8237 13.0958L31.8402 34.7905L30.1252 35.8195L17.1087 14.1248Z" fill="#536DFE"/>
<path d="M16.1069 34.8746L29.1268 13.1819L30.8416 14.2111L17.8218 35.9038L16.1069 34.8746Z" fill="#536DFE"/>
<path d="M11 23H37V25H11V23Z" fill="#536DFE"/>
<path d="M20 14.5C20 15.3 19.3 16 18.5 16C17.7 16 17 15.3 17 14.5C17 13.7 17.7 13 18.5 13C19.3 13 20 13.7 20 14.5ZM38 24C38 24.8 37.3 25.5 36.5 25.5C35.7 25.5 35 24.8 35 24C35 23.2 35.7 22.5 36.5 22.5C37.3 22.5 38 23.2 38 24ZM13 24C13 24.8 12.3 25.5 11.5 25.5C10.7 25.5 10 24.8 10 24C10 23.2 10.7 22.5 11.5 22.5C12.3 22.5 13 23.2 13 24ZM32 34.5C32 35.3 31.3 36 30.5 36C29.7 36 29 35.3 29 34.5C29 33.7 29.7 33 30.5 33C31.3 33 32 33.7 32 34.5ZM31 14.5C31 15.3 30.3 16 29.5 16C28.7 16 28 15.3 28 14.5C28 13.7 28.7 13 29.5 13C30.3 13 31 13.7 31 14.5ZM19 34.5C19 35.3 18.3 36 17.5 36C16.7 36 16 35.3 16 34.5C16 33.7 16.7 33 17.5 33C18.3 33 19 33.7 19 34.5Z" fill="#448AFF"/>
<path d="M5.58569 33.1072L13.6044 28.5972L14.5848 30.3404L6.56613 34.8504L5.58569 33.1072Z" fill="#8C9EFF"/>
<path d="M33.8452 17.3348L41.4307 13.0745L42.4101 14.8183L34.8246 19.0786L33.8452 17.3348Z" fill="#8C9EFF"/>
<path d="M41.3 21.4L32.7 19.2L35 10.7L36.9 11.3L35.2 17.7L41.8 19.5L41.3 21.4ZM13 37.3L11.1 36.7L12.8 30.3L6.20001 28.5L6.70001 26.6L15.3 28.8L13 37.3ZM23 4H25V13H23V4Z" fill="#8C9EFF"/>
<path d="M24 14.3L17.7 8.19999L19.1 6.79999L24 11.5L28.9 6.79999L30.3 8.19999L24 14.3ZM23 35H25V44H23V35Z" fill="#8C9EFF"/>
<path d="M28.9 41.2L24 36.5L19.1 41.2L17.7 39.8L24 33.7L30.3 39.8L28.9 41.2ZM41.4 34.9L40.5 34.4C38.3 33.2 36.2 32 34 30.7L33.1 30.2L34.1 28.5L35 29C37.2 30.2 39.3 31.4 41.5 32.7L42.4 33.2L41.4 34.9Z" fill="#8C9EFF"/>
<path d="M35 37.3L32.7 28.8L41.3 26.6L41.8 28.5L35.2 30.3L36.9 36.7L35 37.3Z" fill="#8C9EFF"/>
<path d="M5.61975 14.8432L6.59556 13.0974L14.7135 17.635L13.7377 19.3808L5.61975 14.8432Z" fill="#8C9EFF"/>
<path d="M6.70001 21.4L6.20001 19.5L12.8 17.7L11.1 11.3L13 10.7L15.3 19.2L6.70001 21.4Z" fill="#8C9EFF"/>
</svg>
