<svg width="48" height="48" viewBox="0 0 48 48" fill="none" xmlns="http://www.w3.org/2000/svg">
<path d="M34.9 14.4C36.8 11.2 35.7 8 35.7 8C35.7 8 34.8 4 29 4C14.8 4 9 39 9 39C9 39 11 42 24 42C37 42 39 39 39 39C36.5 26.2 29.6 12.4 29.6 12.4C29.6 12.4 27.8 9 30.7 9C32.7 9 33 14 33 14" fill="#673AB7"/>
<path d="M35 14C35 14.6 34.6 15 34 15C33.4 15 33 14.6 33 14C33 13.4 33.4 13 34 13C34.6 13 35 13.4 35 14Z" fill="#673AB7"/>
<path d="M24 44C12 44 8.50001 42.1 7.90001 41.7C7.00001 41.1 6.70001 39.8 7.30001 38.9C7.90001 38 9.10001 37.7 10 38.3C10.2 38.4 13.4 40 24 40C34.8 40 37.9 38.3 38 38.3C38.9 37.7 40.1 38 40.7 38.9C41.3 39.8 41 41.1 40.1 41.7C39.5 42.1 36 44 24 44Z" fill="#CE93D8"/>
<path d="M20.8 17L21.8 19L24 19.3L22.4 20.8L22.8 23L20.9 22L19 23L19.4 20.8L17.8 19.3L20 19L20.8 17ZM17.2 26L18.2 28L20.4 28.3L18.8 29.8L19.2 32L17.3 31L15.4 32L15.8 29.8L14 28.3L16.2 28L17.2 26ZM27.5 27.5C27.5 24.9 29.4 22.9 31.9 22.6C31.2 22.2 30.4 22 29.5 22C26.5 22 24 24.5 24 27.5C24 30.5 26.5 33 29.5 33C30.4 33 31.2 32.8 31.9 32.4C29.4 32.1 27.5 30.1 27.5 27.5Z" fill="#FDD835"/>
<path d="M35 14C35 14.6 34.6 15 34 15C33.4 15 33 14.6 33 14C33 13.4 33.4 13 34 13C34.6 13 35 13.4 35 14Z" fill="#673AB7"/>
<path d="M29.6 12.4C29.6 12.4 27.8 9 30.7 9C32.7 9 33 14 33 14C33 14.6 33.4 15 34 15C34.4 15 34.7 14.8 34.9 14.4C35.7 13.1 35.9 11.9 36 10.8C35.9 8.4 33.4 6 31 6C28.5 6 28 7.5 28 9C28 11 29.8 13.5 30.6 14.6C30 13.2 29.6 12.4 29.6 12.4Z" fill="#311B92"/>
</svg>
