<svg width="48" height="48" viewBox="0 0 48 48" fill="none" xmlns="http://www.w3.org/2000/svg">
<path d="M8 10H44V36H8V10Z" fill="#546E7A"/>
<path d="M10 12H42V33H10V12Z" fill="#BBDEFB"/>
<path d="M23 36H29V39H23V36ZM35 39C33 39 19 39 17 39C15 39 15 41 15 41V42H37V41C37 41 37 39 35 39Z" fill="#455A64"/>
<path d="M4 4H22V44H4V4Z" fill="#3F51B5"/>
<path d="M6 6H20V10H6V6ZM6 12H20V14H6V12ZM6 16H20V18H6V16ZM6 20H20V22H6V20ZM6 24H20V26H6V24Z" fill="#9FA8DA"/>
<path d="M13 36C12.4696 36 11.9609 36.2107 11.5858 36.5858C11.2107 36.9609 11 37.4696 11 38C11 38.5304 11.2107 39.0391 11.5858 39.4142C11.9609 39.7893 12.4696 40 13 40C13.5304 40 14.0391 39.7893 14.4142 39.4142C14.7893 39.0391 15 38.5304 15 38C15 37.4696 14.7893 36.9609 14.4142 36.5858C14.0391 36.2107 13.5304 36 13 36Z" fill="#CDDC39"/>
</svg>
