<svg width="48" height="48" viewBox="0 0 48 48" fill="none" xmlns="http://www.w3.org/2000/svg">
<path d="M41 18L33.98 15.414L14.021 15.413L7 18V38H41V18Z" fill="#8A5100"/>
<path d="M24 27C30.6274 27 36 21.6274 36 15C36 8.37258 30.6274 3 24 3C17.3726 3 12 8.37258 12 15C12 21.6274 17.3726 27 24 27Z" fill="#1976D2"/>
<path d="M24 20.1C24 21.75 23.39 21.64 23 22C22.73 22.25 21.3 24.78 21.02 26.63C19.95 26.36 18.93 25.94 18 25.4V24.12C18 22.92 17 21.41 17 19.38C17 18.17 15.48 17.36 15 17C14.28 16.46 13.39 15.71 13 15C12.84 14.71 12.47 13.76 12.17 12.98C12.96 8.28999 16.48 4.52 21.04 3.37C20.04 4.25 19 5.28 19 6.5C19 7.22 19.98 8 21 8C22 8 22 9 22 9V11C22 12 21 12 21 12C19.08 12 19 13 19 14C19 14.72 19 15 18.38 15C18 15 18.15 13 17.25 13H16.5C16.22 13 16 13.22 16 13.5V15.25C16 15.55 16.12 16 16.75 16C17.23 16 17.64 17 18 17H20C20.42 17 21 17.82 21.36 18.18C22.12 19 22.65 19 23.38 19C23.73 19 24 19.86 24 20.1Z" fill="#7CB342"/>
<path d="M36 15C36 18.99 34.06 22.52 31.07 24.71C30.55 24.09 30 23.35 30 23C30 22 29 21 29 21C28 21 26 21 26 18.5C26 17 27 16 29 16C30.8 16 34 16 34 14.375C34 13.375 34 11 32.12 11C31 11 31 12 30 12C29.375 12 29 12.439 29 13C29 13.331 28.625 14 28 14H26.5C26.224 14 26 13.776 26 13.5V12C26 11 28 11.375 28 10.5C28 9.5 27 10 27 9.38C27 8 28.5 8 30 8C30.5 8 31 7.5 31 7C31 6.5 30.5 6 30 6C29.38 6 29.75 6 29 6C28 6 28 5.38 28 5C28 4.76 28.3 4.32 28.81 4C33.04 5.85 36 10.08 36 15Z" fill="#7CB342"/>
<path d="M7 18V38L24 45V25L7 18Z" fill="#FF9800"/>
<path d="M19 34L24 25L7 18L2 26L19 34Z" fill="#FFCC80"/>
<path d="M24 45L41 38V18L24 25V45Z" fill="#D17A00"/>
<path d="M46 26L41 18L24 25L29 34L46 26Z" fill="#FFB74D"/>
</svg>
