<svg width="10" height="12" viewBox="0 0 10 12" fill="none" xmlns="http://www.w3.org/2000/svg">
<path d="M8.35967 11.7681C8.6565 12.015 9.07204 12.0712 9.42511 11.9056C9.77817 11.74 10 11.3869 10 10.9995V1.00134C10 0.613911 9.77504 0.260851 9.42511 0.0952558C9.07517 -0.070339 8.65962 -0.0172236 8.35967 0.232731L2.36077 5.23182L2.00146 5.53176V1.00134C2.00146 0.448316 1.55467 0.00152292 1.00164 0.00152292C0.44862 0.00152292 0.00182629 0.448316 0.00182629 1.00134V10.9995C0.00182629 11.5525 0.44862 11.9993 1.00164 11.9993C1.55467 11.9993 2.00146 11.5525 2.00146 10.9995V6.46909L2.36077 6.76904L8.35967 11.7681Z" fill="#556271"/>
</svg>
