<svg width="12" height="12" viewBox="0 0 12 12" fill="none" xmlns="http://www.w3.org/2000/svg">
<path d="M2.64033 11.7681C2.3435 12.015 1.92796 12.0712 1.57489 11.9056C1.22183 11.74 1 11.3869 1 10.9995V1.00134C1 0.613911 1.22496 0.260851 1.57489 0.0952558C1.92483 -0.070339 2.34038 -0.0172236 2.64033 0.232731L8.63923 5.23182L8.99854 5.53176V1.00134C8.99854 0.448316 9.44533 0.00152292 9.99836 0.00152292C10.5514 0.00152292 10.9982 0.448316 10.9982 1.00134V10.9995C10.9982 11.5525 10.5514 11.9993 9.99836 11.9993C9.44533 11.9993 8.99854 11.5525 8.99854 10.9995V6.46909L8.63923 6.76904L2.64033 11.7681Z" fill="#556271"/>
</svg>
