<svg width="24" height="24" viewBox="0 0 24 24" fill="none" xmlns="http://www.w3.org/2000/svg">
<g id="Frame 1171275567">
<path id="Vector" d="M9.2 16.2L10.8333 14.5375L8.29583 12L10.8333 9.4625L9.2 7.8L5 12L9.2 16.2ZM14.8 16.2L19 12L14.8 7.8L13.1667 9.4625L15.7042 12L13.1667 14.5375L14.8 16.2ZM3.83333 22.5C3.19167 22.5 2.64217 22.2713 2.18484 21.814C1.7275 21.3567 1.49922 20.8076 1.5 20.1667V3.83333C1.5 3.19167 1.72867 2.64217 2.186 2.18484C2.64334 1.7275 3.19245 1.49922 3.83333 1.5H20.1667C20.8083 1.5 21.3578 1.72867 21.8152 2.186C22.2725 2.64334 22.5008 3.19245 22.5 3.83333V20.1667C22.5 20.8083 22.2713 21.3578 21.814 21.8152C21.3567 22.2725 20.8076 22.5008 20.1667 22.5H3.83333Z" fill="#1572C2"/>
</g>
</svg>
