<svg width="24" height="24" viewBox="0 0 24 24" fill="none" xmlns="http://www.w3.org/2000/svg">
<g id="Frame 1171275565">
<path id="Vector" d="M4.66667 1C3.69421 1 2.76158 1.36875 2.07394 2.02513C1.38631 2.6815 1 3.57174 1 4.5V18.5C1 19.4283 1.38631 20.3185 2.07394 20.9749C2.76158 21.6313 3.69421 22 4.66667 22H19.3333C20.3058 22 21.2384 21.6313 21.9261 20.9749C22.6137 20.3185 23 19.4283 23 18.5V4.5C23 3.57174 22.6137 2.6815 21.9261 2.02513C21.2384 1.36875 20.3058 1 19.3333 1H4.66667ZM13.6304 16.2308C14.5104 16.9075 15.388 17.24 16.2656 17.2318C16.8033 17.2318 17.2164 17.1385 17.5024 16.9495C17.636 16.8668 17.7446 16.7522 17.8177 16.6172C17.8908 16.4822 17.9258 16.3313 17.9192 16.1795C17.921 16.0139 17.8847 15.8499 17.8129 15.6991C17.7411 15.5484 17.6356 15.4145 17.5037 15.3068C17.2164 15.0677 16.6738 14.8285 15.8757 14.5882C14.9174 14.3233 14.1768 13.9815 13.6573 13.5615C13.1464 13.1415 12.8873 12.5558 12.8776 11.8033C12.8776 11.0928 13.2002 10.499 13.8456 10.0195C14.4738 9.54117 15.2756 9.30083 16.2533 9.30083C17.6149 9.30083 18.7088 9.617 19.5326 10.2505L18.5914 11.6493C18.2526 11.3978 17.8639 11.2144 17.4487 11.1103C17.0755 10.9912 16.6858 10.9263 16.2924 10.9178C15.828 10.9178 15.4552 10.9995 15.1766 11.1617C14.8991 11.325 14.761 11.5385 14.761 11.8033C14.761 12.095 14.9309 12.3423 15.2707 12.5477C15.6129 12.7448 16.1947 12.963 17.0184 13.2022C18.0133 13.4845 18.7222 13.8613 19.1427 14.3315C19.5643 14.8017 19.7746 15.4013 19.7746 16.1282C19.7746 16.8725 19.4751 17.5142 18.8738 18.0532C18.2822 18.584 17.4218 18.8617 16.2924 18.8873C14.8136 18.8873 13.5767 18.4638 12.5818 17.6168L13.6304 16.2308ZM6.87156 16.9752C7.15878 17.1467 7.50344 17.2318 7.90678 17.2318C8.32844 17.2318 8.67678 17.1163 8.95544 16.8853C9.23289 16.6462 9.37222 16.2308 9.37222 15.6405V9.45483H11.1872V15.9742C11.1603 16.9833 10.856 17.7113 10.273 18.1558C9.9549 18.414 9.58406 18.6063 9.184 18.7205C8.81346 18.8283 8.42857 18.8845 8.04122 18.8873C7.369 18.8873 6.77256 18.7765 6.25311 18.5537C5.697 18.3145 5.23133 17.891 4.85489 17.2832L6.11867 16.295C6.35089 16.5948 6.60267 16.8212 6.87156 16.9752Z" fill="#1572C2"/>
</g>
</svg>
