<svg width="24" height="25" viewBox="0 0 24 25" fill="none" xmlns="http://www.w3.org/2000/svg">
<g id="Frame 1171275564">
<path id="Vector" d="M10.2 3.8771C7.4948 3.8771 4.90039 4.95174 2.98751 6.86462C1.07464 8.77749 0 11.3719 0 14.0771C0 16.7823 1.07464 19.3767 2.98751 21.2896C4.90039 23.2025 7.4948 24.2771 10.2 24.2771C11.5395 24.2771 12.8659 24.0133 14.1034 23.5007C15.3409 22.9881 16.4653 22.2368 17.4125 21.2896C18.3597 20.3425 19.111 19.218 19.6236 17.9805C20.1362 16.743 20.4 15.4166 20.4 14.0771C20.4 11.3719 19.3254 8.77749 17.4125 6.86462C15.4996 4.95174 12.9052 3.8771 10.2 3.8771ZM13.8 13.4771C13.0044 13.4771 12.2413 13.161 11.6787 12.5984C11.1161 12.0358 10.8 11.2728 10.8 10.4771C10.8 9.68146 11.1161 8.9184 11.6787 8.35579C12.2413 7.79318 13.0044 7.47711 13.8 7.47711C14.5957 7.47711 15.3587 7.79318 15.9213 8.35579C16.4839 8.9184 16.8 9.68146 16.8 10.4771C16.8 11.2728 16.4839 12.0358 15.9213 12.5984C15.3587 13.161 14.5957 13.4771 13.8 13.4771ZM21 0.2771C20.2044 0.2771 19.4413 0.59317 18.8787 1.15578C18.3161 1.71839 18 2.48145 18 3.2771C18 4.07275 18.3161 4.83581 18.8787 5.39842C19.4413 5.96103 20.2044 6.27711 21 6.27711C21.394 6.27711 21.7841 6.19951 22.1481 6.04874C22.512 5.89798 22.8428 5.677 23.1213 5.39842C23.3999 5.11985 23.6209 4.78913 23.7717 4.42515C23.9224 4.06118 24 3.67107 24 3.2771C24 2.48145 23.684 1.71839 23.1213 1.15578C22.5587 0.59317 21.7957 0.2771 21 0.2771Z" fill="#1572C2"/>
</g>
</svg>
