<svg width="25" height="25" viewBox="0 0 25 25" fill="none" xmlns="http://www.w3.org/2000/svg">
<g id="Frame 1171275566">
<g id="Subtract">
<path d="M7.02752 10.748C7.57952 10.748 7.93952 10.844 8.13152 11.06C8.32352 11.252 8.34752 11.612 8.25152 12.092C8.15552 12.596 7.96352 12.98 7.67552 13.196C7.38752 13.412 6.95552 13.532 6.37952 13.532H5.49152L6.01952 10.748H7.02752Z" fill="#1572C2"/>
<path d="M19.8195 11.06C19.6275 10.844 19.2675 10.748 18.7155 10.748H17.7075L17.1795 13.532H18.0675C18.6435 13.532 19.0755 13.412 19.3635 13.196C19.6515 12.98 19.8435 12.596 19.9395 12.092C20.0355 11.612 20.0115 11.252 19.8195 11.06Z" fill="#1572C2"/>
<path fill-rule="evenodd" clip-rule="evenodd" d="M24.3795 12.5C24.3795 19.1274 19.0069 24.5 12.3795 24.5C5.7521 24.5 0.379517 19.1274 0.379517 12.5C0.379517 5.87258 5.7521 0.5 12.3795 0.5C19.0069 0.5 24.3795 5.87258 24.3795 12.5ZM11.2035 7.94H12.6435L12.3075 9.716H13.5795C14.3715 9.716 14.9475 9.86 15.2355 10.148C15.5475 10.436 15.6435 10.892 15.4995 11.516L14.8995 14.612H13.4355L14.0115 11.684C14.0835 11.348 14.0595 11.132 13.9395 11.012C13.8195 10.892 13.5795 10.82 13.2195 10.82H12.0675L11.3235 14.612H9.88352L11.2035 7.94ZM3.49952 16.34H4.93952L5.27552 14.564H6.52352C7.07552 14.564 7.50752 14.516 7.86752 14.396C8.22752 14.276 8.53952 14.084 8.82752 13.82C9.06752 13.604 9.25952 13.34 9.42752 13.076C9.57152 12.812 9.69152 12.5 9.73952 12.188C9.88352 11.396 9.78752 10.796 9.40352 10.34C9.01952 9.908 8.41952 9.692 7.57952 9.692H4.79552L3.49952 16.34ZM16.6275 16.34H15.1875L16.4835 9.692H19.2675C20.1075 9.692 20.7075 9.908 21.0915 10.34C21.4755 10.796 21.5715 11.396 21.4275 12.188C21.3795 12.5 21.2595 12.812 21.1155 13.076C20.9475 13.34 20.7555 13.604 20.5155 13.82C20.2275 14.084 19.9155 14.276 19.5555 14.396C19.1955 14.516 18.7635 14.564 18.2115 14.564H16.9635L16.6275 16.34Z" fill="#1572C2"/>
</g>
</g>
</svg>
