<svg width="144" height="125" viewBox="0 0 144 125" fill="none" xmlns="http://www.w3.org/2000/svg">
<path d="M79.2268 7.40474C79.2268 7.40474 67.3963 33.9577 36.1103 27.8749C4.82419 21.7921 -14.0256 64.5872 15.5527 80.1912C45.131 95.7952 24.6325 113.721 44.3592 122.877C66.7801 133.283 75.1408 98.4855 91.6584 101.717C128.113 108.85 150.664 96.6172 140.692 80.1547C123.189 51.257 110.481 52.3208 115.645 33.6594C120.81 14.998 91.6433 -13.6505 79.2268 7.40474Z" fill="#DEEFFF"/>
<path d="M73.5161 68.008C70.7671 73.2763 70.0735 76.0763 61.7348 81.3039C61.6701 81.3461 61.6215 81.409 61.5971 81.4824C60.2649 85.6125 58.0098 89.385 55.0027 92.5139C54.9622 92.5556 54.9337 92.6074 54.9203 92.664C54.9068 92.7205 54.9089 92.7797 54.9262 92.8351C55.8595 95.9411 56.8697 101.541 54.0592 106.131C49.9281 112.889 46.8684 108.809 47.5056 107.279C48.0513 105.968 52.7128 103.153 51.6367 96.1197C51.6276 96.0634 51.6042 96.0104 51.5688 95.9658C51.5333 95.9212 51.487 95.8864 51.4342 95.8649C51.3814 95.8434 51.324 95.8358 51.2675 95.8429C51.2109 95.85 51.1571 95.8715 51.1113 95.9054C47.7325 98.3578 43.8545 100.035 39.7535 100.817C39.7079 100.825 39.6645 100.842 39.626 100.867C39.5876 100.893 39.555 100.926 39.5304 100.965C39.5058 101.004 39.4898 101.048 39.4834 101.094C39.477 101.139 39.4804 101.186 39.4933 101.23C40.5389 104.974 41.0336 110.824 36.6679 116.204C34.3372 119.009 31.2465 114.909 34.3372 112.114C36.2547 110.385 36.1068 105.413 35.2092 101.582C35.1921 101.508 35.1497 101.442 35.0892 101.395C35.0287 101.349 34.9539 101.325 34.8777 101.327C34.6993 101.332 34.5155 101.332 34.3372 101.332C28.0289 101.342 21.8958 99.2573 16.8999 95.4056C16.8542 95.3699 16.8 95.3467 16.7426 95.3383C16.6852 95.3299 16.6266 95.3366 16.5726 95.3577C16.5186 95.3787 16.471 95.4135 16.4345 95.4586C16.398 95.5037 16.3738 95.5575 16.3644 95.6147C15.1658 103.53 19.9245 106.269 20.6025 108.299C21.3574 110.568 19.6233 112.588 17.4864 112.017C17.4401 112.003 17.3968 111.98 17.3589 111.95C10.3922 106.718 10.9991 95.7524 11.7641 90.4739C11.7711 90.4307 11.7688 90.3865 11.7574 90.3443C11.7459 90.3021 11.7256 90.2628 11.6978 90.2291C7.80182 85.2156 5.69263 79.0442 5.70513 72.6949C5.70513 61.0514 12.6566 51.0296 22.6375 46.5569C22.6382 46.5569 22.6389 46.5568 22.6395 46.5565C22.6401 46.5563 22.6407 46.5559 22.6412 46.5555C22.6416 46.555 22.642 46.5544 22.6423 46.5538C22.6425 46.5532 22.6426 46.5525 22.6426 46.5518C24.1777 44.6084 26.0495 41.8597 26.3352 39.9319C26.3446 39.8666 26.3733 39.8056 26.4175 39.7567C26.4618 39.7077 26.5197 39.6731 26.5837 39.6572C26.6478 39.6413 26.7151 39.6449 26.7771 39.6675C26.8391 39.6901 26.893 39.7306 26.9318 39.784C27.6663 40.7734 28.8036 42.6604 28.5537 44.6495C28.5435 44.7157 28.5384 44.782 28.5282 44.8483C28.5078 44.9606 28.4823 45.0677 28.4568 45.1799C28.4313 45.2666 28.4109 45.3533 28.3803 45.44C28.737 45.1424 29.0773 44.8257 29.3998 44.4913C30.1495 43.7213 31.0981 42.5635 31.5062 41.3242C31.5255 41.2581 31.5648 41.1996 31.6187 41.1568C31.6726 41.1139 31.7385 41.0888 31.8073 41.0849C31.8761 41.0811 31.9443 41.0986 32.0027 41.1351C32.0611 41.1716 32.1068 41.2254 32.1334 41.2889C32.3984 41.9417 32.7097 42.8546 32.8168 43.7879C32.826 43.8716 32.8661 43.9489 32.9293 44.0045C32.9926 44.0602 33.0743 44.0902 33.1585 44.0888C33.5512 44.0735 33.9439 44.0633 34.3366 44.0633C50.152 44.0633 62.9737 56.885 62.9737 72.6953C62.9737 73.0575 62.9686 73.4144 62.9532 73.7713C62.9509 73.8258 62.962 73.8801 62.9855 73.9293C63.0089 73.9786 63.044 74.0214 63.0877 74.0541C63.1314 74.0867 63.1824 74.1082 63.2362 74.1167C63.2901 74.1252 63.3453 74.1205 63.3969 74.1029C65.1003 73.5061 67.2475 72.0679 68.5429 68.6458C70.9655 62.2706 71.2205 60.4857 70.4555 55.513C69.6905 50.5403 73.3884 50.7957 74.153 52.4529C74.9177 54.1102 76.5759 62.1428 73.5161 68.008Z" fill="#0E84E5"/>
<path d="M23.1519 75.2068C23.0544 75.2067 22.9597 75.1743 22.8825 75.1147C22.8053 75.0551 22.75 74.9716 22.7252 74.8772C22.5329 74.0373 22.4916 73.1698 22.6032 72.3154C22.8543 70.4584 23.8649 69.0934 25.5258 68.3679C26.6111 67.8938 27.6371 67.8664 28.5751 68.2869C30.4976 69.1486 31.316 71.5918 31.3499 71.6953C31.3828 71.8056 31.3713 71.9244 31.318 72.0263C31.2646 72.1283 31.1735 72.2054 31.0641 72.2412C30.9547 72.277 30.8357 72.2688 30.7323 72.2181C30.629 72.1675 30.5495 72.0785 30.5107 71.9701C30.5038 71.9489 29.7758 69.7905 28.2111 69.0917C27.5106 68.7789 26.7262 68.8077 25.8797 69.1775C24.5054 69.7782 23.6989 70.8647 23.4826 72.4075C23.3838 73.1563 23.4169 73.9166 23.5803 74.654C23.6097 74.7674 23.5929 74.8878 23.5336 74.9889C23.4743 75.0899 23.3774 75.1633 23.2641 75.1929C23.2274 75.2022 23.1898 75.2069 23.1519 75.2068Z" fill="white"/>
<path d="M36.467 71.1622C36.3745 71.1621 36.2843 71.133 36.2092 71.0789C36.1341 71.0248 36.0779 70.9485 36.0485 70.8608C35.802 70.0386 35.7044 69.1791 35.7605 68.3226C35.8908 66.4609 36.8109 65.0387 38.4214 64.2099C39.4758 63.6675 40.4993 63.5739 41.4641 63.9335C43.434 64.6667 44.4077 67.0361 44.4482 67.1365C44.4906 67.2449 44.4886 67.3657 44.4425 67.4725C44.3964 67.5794 44.3099 67.6638 44.202 67.7073C44.094 67.7508 43.9732 67.7499 43.8659 67.7049C43.7585 67.6598 43.6734 67.5742 43.6288 67.4666C43.62 67.446 42.7561 65.3546 41.1526 64.7602C40.4314 64.4927 39.6487 64.5719 38.8258 64.9955C37.4935 65.681 36.7594 66.8121 36.6438 68.3578C36.5939 69.1074 36.6761 69.86 36.8866 70.5813C36.9085 70.6477 36.9144 70.7183 36.9037 70.7874C36.893 70.8565 36.8661 70.9221 36.8252 70.9788C36.7843 71.0355 36.7305 71.0817 36.6683 71.1135C36.606 71.1454 36.5371 71.1621 36.4672 71.1622H36.467Z" fill="white"/>
<path d="M35.3429 80.4026C32.3366 80.4026 30.0444 78.4018 29.9297 78.3002C29.8863 78.2617 29.8509 78.215 29.8256 78.1628C29.8003 78.1106 29.7855 78.054 29.782 77.9961C29.7786 77.9382 29.7866 77.8801 29.8056 77.8253C29.8246 77.7705 29.8542 77.72 29.8927 77.6766C29.9312 77.6332 29.9779 77.5979 30.03 77.5725C30.0822 77.5472 30.1389 77.5324 30.1968 77.529C30.2547 77.5255 30.3127 77.5335 30.3675 77.5525C30.4223 77.5715 30.4729 77.6011 30.5162 77.6396C30.5464 77.6661 33.5734 80.2971 36.9815 79.2812C40.3737 78.2704 41.304 73.9632 41.3131 73.9199C41.3378 73.8063 41.4064 73.7071 41.5038 73.6437C41.6013 73.5803 41.7198 73.5579 41.8337 73.5813C41.9476 73.6048 42.0476 73.6722 42.1121 73.7689C42.1766 73.8656 42.2004 73.9839 42.1783 74.098C41.9683 74.9902 41.6393 75.8501 41.2003 76.6546C40.2305 78.4425 38.8593 79.6436 37.2339 80.1278C36.6202 80.3107 35.9832 80.4033 35.3429 80.4026Z" fill="white"/>
<path d="M130.556 60.7427C130.518 61.7018 130.421 62.6575 130.264 63.6044C128.135 76.6306 115.855 85.4601 102.828 83.3305C89.8074 81.2019 80.9728 68.9209 83.1025 55.8947C83.2383 55.0643 83.4177 54.2516 83.6299 53.459C73.9689 46.8981 74.5332 34.2465 76.3852 32.8439C78.2555 31.4236 80.2976 32.6204 80.0842 36.5492C79.8647 42.2548 83.3774 46.9732 85.3257 49.0284C89.8871 39.9346 99.9684 34.4406 110.538 36.1685C120.796 37.8453 128.448 45.8195 130.201 55.4906C132.113 54.7955 135.49 52.7894 138.225 47.087C138.607 45.9505 138.713 45.1151 138.733 44.6119C138.747 44.1419 138.931 43.6927 139.25 43.3476C139.848 42.7219 140.908 42.0579 142.276 43.0775C142.587 43.3101 142.838 43.614 143.007 43.9636C143.177 44.3132 143.26 44.6984 143.25 45.0867C143.164 48.1686 140.698 55.667 130.556 60.7427Z" fill="#69B7FF"/>
<path d="M116.346 64.9676C115.743 68.657 110.669 70.8972 105.016 69.9733C99.359 69.0485 95.2625 65.309 95.8655 61.6197C95.9803 60.9327 96.2488 60.2804 96.6509 59.7116C96.7608 59.5576 96.9256 59.4516 97.1113 59.4155C97.297 59.3793 97.4895 59.4158 97.6491 59.5173C99.6743 60.7852 102.88 61.9033 106.578 62.5079C109.982 63.0644 113.132 63.0727 115.424 62.6378C115.61 62.602 115.804 62.6394 115.964 62.7423C116.123 62.8451 116.237 63.0054 116.282 63.1901C116.42 63.7726 116.442 64.3767 116.346 64.9676Z" fill="white"/>
<path d="M105.62 57.6475C105.556 57.6475 105.493 57.6337 105.435 57.6068C105.376 57.58 105.325 57.5408 105.283 57.492C105.242 57.4432 105.211 57.3859 105.194 57.3242C105.177 57.2625 105.173 57.1977 105.184 57.1345C105.332 56.2275 105.114 55.2988 104.577 54.5527C104.041 53.8066 103.23 53.3041 102.323 53.1559C101.416 53.0076 100.487 53.2257 99.7412 53.7622C98.9951 54.2987 98.4926 55.1096 98.3444 56.0166C98.3255 56.1322 98.2614 56.2355 98.1663 56.3039C98.0712 56.3723 97.9528 56.4001 97.8372 56.3812C97.7216 56.3623 97.6182 56.2982 97.5499 56.2031C97.4815 56.108 97.4537 55.9896 97.4726 55.874C97.6586 54.7358 98.2892 53.7182 99.2256 53.0449C100.162 52.3717 101.327 52.098 102.466 52.284C103.604 52.4701 104.621 53.1006 105.295 54.037C105.968 54.9734 106.242 56.1388 106.055 57.277C106.039 57.3803 105.986 57.4743 105.906 57.5421C105.826 57.61 105.725 57.6473 105.62 57.6475Z" fill="white"/>
<path d="M116.215 59.3797C116.151 59.3796 116.088 59.3657 116.03 59.3388C115.972 59.3119 115.92 59.2727 115.879 59.2239C115.837 59.1751 115.807 59.1179 115.79 59.0562C115.772 58.9945 115.769 58.9298 115.779 58.8666C115.924 57.9613 115.703 57.0356 115.167 56.2923C114.63 55.5489 113.821 55.0485 112.916 54.9006C112.012 54.7527 111.085 54.9694 110.34 55.5032C109.594 56.0371 109.091 56.8445 108.94 57.7487C108.931 57.8061 108.91 57.8611 108.88 57.9106C108.849 57.9601 108.809 58.0031 108.762 58.0371C108.715 58.0711 108.662 58.0954 108.605 58.1088C108.548 58.1221 108.49 58.1242 108.432 58.1148C108.375 58.1054 108.32 58.0848 108.271 58.0541C108.221 58.0235 108.179 57.9834 108.145 57.9361C108.111 57.8889 108.087 57.8354 108.073 57.7788C108.06 57.7222 108.058 57.6635 108.068 57.6062C108.257 56.4709 108.889 55.457 109.824 54.7866C110.76 54.1162 111.923 53.844 113.059 54.0296C114.195 54.2153 115.211 54.8437 115.884 55.7771C116.557 56.7105 116.833 57.8728 116.651 59.0092C116.634 59.1125 116.581 59.2065 116.501 59.2744C116.421 59.3423 116.32 59.3796 116.215 59.3797Z" fill="white"/>
</svg>
