<svg width="16" height="16" viewBox="0 0 16 16" fill="none" xmlns="http://www.w3.org/2000/svg">
<path d="M8.99811 13.8367L8.35398 14.4808C8.08124 14.7535 7.64022 14.7535 7.37039 14.4808L1.72994 8.84324C1.45721 8.5705 1.45721 8.12948 1.72994 7.85964L7.37039 2.2192C7.64312 1.94646 8.08415 1.94646 8.35398 2.2192L8.99811 2.86333C9.27374 3.13896 9.26794 3.58869 8.9865 3.85853L5.49024 7.1894H13.829C14.2149 7.1894 14.5254 7.49986 14.5254 7.88576V8.81422C14.5254 9.20012 14.2149 9.51057 13.829 9.51057H5.49024L8.9865 12.8415C9.27084 13.1113 9.27665 13.561 8.99811 13.8367Z" fill="#6A7888"/>
</svg>
