<svg width="16" height="16" viewBox="0 0 16 16" fill="none" xmlns="http://www.w3.org/2000/svg">
  <path d="M6.52729 13.822L7.17141 14.4661C7.44415 14.7389 7.88517 14.7389 8.155 14.4661L13.7954 8.82859C14.0682 8.55585 14.0682 8.11483 13.7954 7.84499L8.155 2.20455C7.88227 1.93182 7.44125 1.93182 7.17141 2.20455L6.52729 2.84868C6.25165 3.12432 6.25745 3.57404 6.53889 3.84388L10.0352 7.17476H1.69635C1.31046 7.17476 1 7.48521 1 7.87111V8.79957C1 9.18547 1.31046 9.49592 1.69635 9.49592H10.0352L6.53889 12.8268C6.25455 13.0966 6.24874 13.5464 6.52729 13.822Z" fill="#6A7888"/>
</svg>