<svg width="111" height="57" viewBox="0 0 111 57" fill="none" xmlns="http://www.w3.org/2000/svg">
<g clip-path="url(#clip0_888_263320)">
<path d="M47.5 0C44.1875 0 41.5 2.6875 41.5 6V26C41.5 29.3125 44.1875 32 47.5 32H65.5H67.5C68.6063 32 69.5 31.1063 69.5 30C69.5 28.8937 68.6063 28 67.5 28V24C68.6063 24 69.5 23.1063 69.5 22V2C69.5 0.89375 68.6063 0 67.5 0H65.5H47.5ZM47.5 24H63.5V28H47.5C46.3938 28 45.5 27.1063 45.5 26C45.5 24.8937 46.3938 24 47.5 24ZM49.5 9C49.5 8.45 49.95 8 50.5 8H62.5C63.05 8 63.5 8.45 63.5 9C63.5 9.55 63.05 10 62.5 10H50.5C49.95 10 49.5 9.55 49.5 9ZM50.5 12H62.5C63.05 12 63.5 12.45 63.5 13C63.5 13.55 63.05 14 62.5 14H50.5C49.95 14 49.5 13.55 49.5 13C49.5 12.45 49.95 12 50.5 12Z" fill="#1572C2"/>
</g>
<path d="M31.645 46.9072C31.645 48.0329 31.44 48.974 31.0298 49.7305C30.6196 50.4824 30.0249 51.0498 29.2456 51.4326C28.4709 51.8109 27.5298 52 26.4224 52H23.7085V42.0059H26.7232C27.7394 42.0059 28.6144 42.1927 29.3482 42.5664C30.0819 42.9355 30.647 43.4847 31.0435 44.2139C31.4445 44.9385 31.645 45.8363 31.645 46.9072ZM30.4214 46.9482C30.4214 46.0505 30.271 45.3099 29.9702 44.7266C29.674 44.1432 29.2365 43.7103 28.6577 43.4277C28.0835 43.1406 27.3794 42.9971 26.5454 42.9971H24.8706V51.002H26.2857C27.662 51.002 28.6942 50.6624 29.3823 49.9834C30.0751 49.3044 30.4214 48.2926 30.4214 46.9482ZM39.8758 48.2402C39.8758 48.8555 39.796 49.4046 39.6365 49.8877C39.477 50.3708 39.2469 50.7786 38.9461 51.1113C38.6453 51.444 38.2807 51.6992 37.8523 51.877C37.4285 52.0501 36.9477 52.1367 36.41 52.1367C35.9087 52.1367 35.4484 52.0501 35.0291 51.877C34.6144 51.6992 34.2544 51.444 33.949 51.1113C33.6482 50.7786 33.4135 50.3708 33.2449 49.8877C33.0809 49.4046 32.9988 48.8555 32.9988 48.2402C32.9988 47.4199 33.1378 46.7227 33.4158 46.1484C33.6938 45.5697 34.0903 45.1299 34.6053 44.8291C35.1248 44.5238 35.7423 44.3711 36.4578 44.3711C37.1414 44.3711 37.7384 44.5238 38.2488 44.8291C38.7638 45.1344 39.1626 45.5765 39.4451 46.1553C39.7322 46.7295 39.8758 47.4245 39.8758 48.2402ZM34.1746 48.2402C34.1746 48.8418 34.2544 49.3636 34.4139 49.8057C34.5734 50.2477 34.8195 50.5895 35.1521 50.8311C35.4848 51.0726 35.9132 51.1934 36.4373 51.1934C36.9568 51.1934 37.3829 51.0726 37.7156 50.8311C38.0529 50.5895 38.3012 50.2477 38.4607 49.8057C38.6202 49.3636 38.7 48.8418 38.7 48.2402C38.7 47.6432 38.6202 47.1283 38.4607 46.6953C38.3012 46.2578 38.0551 45.9206 37.7225 45.6836C37.3898 45.4466 36.9591 45.3281 36.4305 45.3281C35.6512 45.3281 35.0792 45.5856 34.7146 46.1006C34.3546 46.6156 34.1746 47.3288 34.1746 48.2402ZM44.5587 52.1367C43.8842 52.1367 43.2895 51.9977 42.7745 51.7197C42.2595 51.4417 41.8585 51.0179 41.5714 50.4482C41.2843 49.8786 41.1407 49.1608 41.1407 48.2949C41.1407 47.388 41.2911 46.6475 41.5919 46.0732C41.8972 45.4945 42.3165 45.0661 42.8497 44.7881C43.3829 44.5101 43.989 44.3711 44.668 44.3711C45.0417 44.3711 45.4018 44.4098 45.7481 44.4873C46.099 44.5602 46.3861 44.6536 46.6095 44.7676L46.2677 45.7178C46.0398 45.6266 45.7755 45.5446 45.4747 45.4717C45.1785 45.3988 44.9005 45.3623 44.6407 45.3623C44.1212 45.3623 43.6882 45.474 43.3419 45.6973C43.0001 45.9206 42.7426 46.2487 42.5694 46.6816C42.4008 47.1146 42.3165 47.6478 42.3165 48.2812C42.3165 48.8874 42.3985 49.4046 42.5626 49.833C42.7312 50.2614 42.9796 50.5895 43.3077 50.8174C43.6404 51.0407 44.0551 51.1523 44.5518 51.1523C44.9483 51.1523 45.3061 51.1113 45.6251 51.0293C45.9441 50.9427 46.2335 50.8424 46.4932 50.7285V51.7402C46.2426 51.8678 45.9623 51.9658 45.6524 52.0342C45.3471 52.1025 44.9825 52.1367 44.5587 52.1367ZM54.1771 44.5078V52H53.2474L53.0834 50.9473H53.0218C52.8669 51.207 52.6664 51.4258 52.4203 51.6035C52.1742 51.7812 51.8962 51.9134 51.5863 52C51.2809 52.0911 50.9551 52.1367 50.6087 52.1367C50.0163 52.1367 49.5196 52.041 49.1185 51.8496C48.7175 51.6582 48.4144 51.362 48.2093 50.9609C48.0088 50.5599 47.9086 50.0449 47.9086 49.416V44.5078H49.057V49.334C49.057 49.9583 49.1983 50.4255 49.4808 50.7354C49.7634 51.0407 50.194 51.1934 50.7728 51.1934C51.3288 51.1934 51.7709 51.0885 52.099 50.8789C52.4317 50.6693 52.6709 50.3617 52.8168 49.9561C52.9626 49.5459 53.0355 49.0446 53.0355 48.4521V44.5078H54.1771ZM64.4313 44.3711C65.2562 44.3711 65.8782 44.5876 66.2975 45.0205C66.7168 45.4489 66.9264 46.1393 66.9264 47.0918V52H65.8053V47.1465C65.8053 46.5404 65.6732 46.0869 65.4088 45.7861C65.1491 45.4808 64.7617 45.3281 64.2467 45.3281C63.5221 45.3281 62.9957 45.5378 62.6676 45.957C62.3395 46.3763 62.1754 46.9938 62.1754 47.8096V52H61.0475V47.1465C61.0475 46.7409 60.9883 46.4036 60.8698 46.1348C60.7558 45.8659 60.5827 45.6654 60.3502 45.5332C60.1224 45.3965 59.833 45.3281 59.4821 45.3281C58.9853 45.3281 58.5866 45.4307 58.2858 45.6357C57.985 45.8408 57.7663 46.1462 57.6295 46.5518C57.4974 46.9528 57.4313 47.4473 57.4313 48.0352V52H56.2965V44.5078H57.2125L57.3834 45.5674H57.445C57.5954 45.3076 57.7845 45.0889 58.0123 44.9111C58.2402 44.7334 58.4954 44.599 58.778 44.5078C59.0605 44.4167 59.3613 44.3711 59.6803 44.3711C60.25 44.3711 60.7262 44.4782 61.109 44.6924C61.4964 44.902 61.7767 45.2233 61.9498 45.6562H62.0114C62.2575 45.2233 62.5947 44.902 63.0231 44.6924C63.4515 44.4782 63.9209 44.3711 64.4313 44.3711ZM71.8622 44.3711C72.5002 44.3711 73.0471 44.5124 73.5029 44.7949C73.9586 45.0775 74.3072 45.474 74.5488 45.9844C74.7903 46.4902 74.9111 47.0827 74.9111 47.7617V48.4658H69.7363C69.7499 49.3454 69.9687 50.0153 70.3925 50.4756C70.8163 50.9359 71.4133 51.166 72.1835 51.166C72.6575 51.166 73.0767 51.1227 73.4413 51.0361C73.8059 50.9495 74.1842 50.8219 74.5761 50.6533V51.6514C74.1978 51.82 73.8219 51.943 73.4482 52.0205C73.079 52.098 72.6415 52.1367 72.1357 52.1367C71.4156 52.1367 70.7867 51.9909 70.2489 51.6992C69.7157 51.403 69.301 50.9701 69.0048 50.4004C68.7086 49.8307 68.5605 49.1335 68.5605 48.3086C68.5605 47.502 68.6949 46.8047 68.9638 46.2168C69.2372 45.6243 69.62 45.1686 70.1122 44.8496C70.609 44.5306 71.1923 44.3711 71.8622 44.3711ZM71.8486 45.3008C71.2424 45.3008 70.7594 45.499 70.3993 45.8955C70.0393 46.292 69.8251 46.8457 69.7568 47.5566H73.7216C73.717 47.11 73.6464 46.7181 73.5097 46.3809C73.3775 46.0391 73.1747 45.7747 72.9013 45.5879C72.6279 45.3965 72.2769 45.3008 71.8486 45.3008ZM80.1066 44.3711C80.9953 44.3711 81.6675 44.5898 82.1232 45.0273C82.579 45.4603 82.8068 46.1576 82.8068 47.1191V52H81.6857V47.1943C81.6857 46.57 81.5422 46.1029 81.2551 45.793C80.9725 45.4831 80.5373 45.3281 79.9494 45.3281C79.12 45.3281 78.5367 45.5628 78.1994 46.0322C77.8622 46.5016 77.6936 47.1829 77.6936 48.0762V52H76.5588V44.5078H77.4748L77.6457 45.5879H77.7072C77.8667 45.3236 78.0695 45.1025 78.3156 44.9248C78.5617 44.7425 78.8374 44.6058 79.1428 44.5146C79.4481 44.4189 79.7694 44.3711 80.1066 44.3711ZM87.2847 51.207C87.4715 51.207 87.6629 51.1911 87.8589 51.1592C88.0548 51.1273 88.2143 51.0885 88.3374 51.043V51.9248C88.2052 51.984 88.0207 52.0342 87.7837 52.0752C87.5513 52.1162 87.3234 52.1367 87.1001 52.1367C86.7036 52.1367 86.3436 52.0684 86.02 51.9316C85.6964 51.7904 85.4367 51.5534 85.2407 51.2207C85.0493 50.888 84.9536 50.4277 84.9536 49.8398V45.3965H83.8872V44.8428L84.9604 44.3984L85.4116 42.7715H86.0952V44.5078H88.2895V45.3965H86.0952V49.8057C86.0952 50.2751 86.2023 50.626 86.4165 50.8584C86.6352 51.0908 86.9246 51.207 87.2847 51.207Z" fill="#51585E"/>
<defs>
<clipPath id="clip0_888_263320">
<rect width="28" height="32" fill="white" transform="translate(41.5)"/>
</clipPath>
</defs>
</svg>