<svg width="119" height="122" viewBox="0 0 119 122" fill="none" xmlns="http://www.w3.org/2000/svg">
<g id="Group">
<path id="Vector" d="M12.504 53.4167C12.504 53.4167 33.2713 52.5851 37.7591 18.4481C41.7444 -11.8688 76.7635 1.93037 86.8862 14.0154C99.9993 29.6706 93.0091 56.6007 109.972 60.0028C126.936 63.4048 115.858 101.23 90.109 97.6092C58.0776 93.1055 65.8274 111.823 56.2117 119.745C49.3108 125.431 21.0144 119.958 20.0713 99.3176C19.2777 81.9492 11.9514 82.0042 6.75842 80.0348C-0.731026 77.1945 -5.4502 56.624 12.504 53.4167Z" fill="#DEEFFF"/>
<g id="Group_2">
<path id="Subtract" fill-rule="evenodd" clip-rule="evenodd" d="M34.8885 35.8763C29.7508 35.8767 25.5863 40.042 25.5867 45.1796L25.5892 77.7384C25.5896 82.8761 29.7548 87.0406 34.8925 87.0402L81.4051 87.0366C86.5427 87.0362 90.7073 82.871 90.7069 77.7333L90.7043 45.1745C90.7039 40.0368 86.5387 35.8723 81.4011 35.8727L34.8885 35.8763ZM81.4022 49.8265L34.8896 49.8301L34.8899 54.4814L81.4025 54.4777L81.4022 49.8265ZM81.4029 59.129L34.8903 59.1327L34.8907 63.7839L81.4033 63.7803L81.4029 59.129ZM34.891 68.4352L81.4036 68.4315L81.404 73.0828L34.8914 73.0864L34.891 68.4352Z" fill="#4599E6"/>
</g>
</g>
</svg>
