<svg width="65" height="65" viewBox="0 0 65 65" fill="none" xmlns="http://www.w3.org/2000/svg">
  <circle cx="32.5" cy="32.5" r="32.5" fill="#4EA075"/>
  <circle cx="32.5" cy="32.5" r="32.5" fill="white" fill-opacity="0.7"/>
  <path d="M50.4375 32C50.4375 41.6305 42.6305 49.4375 33 49.4375C23.3695 49.4375 15.5625 41.6305 15.5625 32C15.5625 22.3695 23.3695 14.5625 33 14.5625C42.6305 14.5625 50.4375 22.3695 50.4375 32ZM30.983 41.233L43.9205 28.2955C44.3598 27.8562 44.3598 27.1439 43.9205 26.7046L42.3296 25.1136C41.8902 24.6742 41.1779 24.6742 40.7385 25.1136L30.1875 35.6645L25.2615 30.7385C24.8222 30.2992 24.1098 30.2992 23.6704 30.7385L22.0795 32.3295C21.6402 32.7688 21.6402 33.4811 22.0795 33.9204L29.392 41.2329C29.8314 41.6723 30.5436 41.6723 30.983 41.233Z" fill="#00875A"/>
</svg>
