<svg width="16" height="14" viewBox="0 0 16 14" fill="none" xmlns="http://www.w3.org/2000/svg">
<g clip-path="url(#clip0_1803_310685)">
<path d="M9.82035 0.7411C9.39535 0.6186 8.95285 0.866101 8.83035 1.2911L5.63035 12.4911C5.50785 12.9161 5.75535 13.3586 6.18035 13.4811C6.60535 13.6036 7.04785 13.3561 7.17035 12.9311L10.3704 1.7311C10.4929 1.3061 10.2454 0.8636 9.82035 0.7411ZM11.8354 3.7436C11.5229 4.0561 11.5229 4.5636 11.8354 4.8761L14.0679 7.1111L11.8329 9.3461C11.5204 9.6586 11.5204 10.1661 11.8329 10.4786C12.1454 10.7911 12.6529 10.7911 12.9654 10.4786L15.7654 7.6786C16.0779 7.3661 16.0779 6.8586 15.7654 6.5461L12.9654 3.7461C12.6529 3.4336 12.1454 3.4336 11.8329 3.7461L11.8354 3.7436ZM4.16785 3.7436C3.85535 3.4311 3.34785 3.4311 3.03535 3.7436L0.235352 6.5436C-0.0771484 6.8561 -0.0771484 7.3636 0.235352 7.6761L3.03535 10.4761C3.34785 10.7886 3.85535 10.7886 4.16785 10.4761C4.48035 10.1636 4.48035 9.6561 4.16785 9.3436L1.93285 7.1111L4.16785 4.8761C4.48035 4.5636 4.48035 4.0561 4.16785 3.7436Z" fill="#595959"/>
</g>
<defs>
<clipPath id="clip0_1803_310685">
<rect width="16" height="12.8" fill="white" transform="translate(0 0.711105)"/>
</clipPath>
</defs>
</svg>
