<svg width="17" height="16" viewBox="0 0 17 16" fill="none" xmlns="http://www.w3.org/2000/svg">
<path fill-rule="evenodd" clip-rule="evenodd" d="M7.78776 1.1146C7.78776 0.730405 8.09921 0.418951 8.48341 0.418951C8.86761 0.418951 9.17906 0.730405 9.17906 1.1146V2.17465C9.17906 2.55885 8.86761 2.8703 8.48341 2.8703C8.09921 2.8703 7.78776 2.55885 7.78776 2.17465V1.1146ZM0.5 9.46344C1.62629 7.71879 4.80642 4.22947 8.51656 4.22947C12.2267 4.22947 15.3847 7.71879 16.5 9.46344V9.89408C16.3012 10.2364 15.8163 10.9446 15.5393 11.2523C15.2412 11.5835 14.7112 12.1136 14.4793 12.3123C14.8768 13.1184 15.705 14.7902 15.8375 15.0287C16.0031 15.3268 15.7381 16.155 14.9099 15.8237C14.2474 15.5587 12.3813 14.852 11.5311 14.5318C10.9569 14.7968 9.5501 15.3136 8.51656 15.2606C7.22464 15.1943 5.86646 15.0618 3.58075 13.273C1.75217 11.8419 0.76501 10.4241 0.5 9.89408V9.46344ZM8.51663 12.942C10.273 12.942 11.6968 11.5182 11.6968 9.76183C11.6968 8.00549 10.273 6.58169 8.51663 6.58169C6.7603 6.58169 5.33651 8.00549 5.33651 9.76183C5.33651 11.5182 6.7603 12.942 8.51663 12.942ZM14.3134 2.78699C14.0445 2.51264 13.604 2.50827 13.3297 2.77723L12.5727 3.51932C12.2983 3.78828 12.294 4.22872 12.5629 4.50308C12.8319 4.77743 13.2723 4.7818 13.5467 4.51284L14.3036 3.77075C14.578 3.50179 14.5824 3.06134 14.3134 2.78699ZM3.75961 2.76077C3.48526 2.49181 3.04482 2.49618 2.77586 2.77053C2.5069 3.04488 2.51127 3.48532 2.78562 3.75429L3.54259 4.49638C3.81694 4.76534 4.25738 4.76097 4.52634 4.48661C4.7953 4.21226 4.79093 3.77182 4.51658 3.50286L3.75961 2.76077ZM8.51657 8.50124C8.51657 9.19646 7.95299 9.76005 7.25778 9.76005C6.96424 9.76005 6.69417 9.65957 6.48007 9.49114C6.46858 9.5791 6.46265 9.66881 6.46265 9.75991C6.46265 10.8942 7.38218 11.8137 8.51648 11.8137C9.65078 11.8137 10.5703 10.8942 10.5703 9.75991C10.5703 8.62561 9.65078 7.70608 8.51648 7.70608C8.42536 7.70608 8.33563 7.71201 8.24765 7.72351C8.41609 7.93761 8.51657 8.20769 8.51657 8.50124Z" fill="#000"/>
</svg>
