<svg width="16" height="16" viewBox="0 0 16 16" fill="none" xmlns="http://www.w3.org/2000/svg">
<path d="M11.7053 5.89474C11.607 5.3193 11.4175 4.78597 11.1368 4.29474C10.8561 3.80351 10.5123 3.36842 10.1053 2.98947V5.05263H8.42105V0H13.4737V1.68421H11.1789C11.7825 2.21754 12.2773 2.84211 12.6636 3.5579C13.0498 4.27368 13.2988 5.05263 13.4105 5.89474H11.7053ZM8.8421 12.6316C8.49123 12.6316 8.19312 12.5089 7.94779 12.2636C7.70246 12.0182 7.57951 11.7199 7.57895 11.3684V8.8421C7.57895 8.49123 7.70189 8.19312 7.94779 7.94779C8.19368 7.70246 8.49179 7.57951 8.8421 7.57895H13.8947C14.2456 7.57895 14.544 7.70189 14.7899 7.94779C15.0358 8.19368 15.1585 8.49179 15.1579 8.8421V11.3684C15.1579 11.7193 15.0352 12.0177 14.7899 12.2636C14.5446 12.5095 14.2462 12.6321 13.8947 12.6316H8.8421ZM0 13.4737V11.7895H2.29474C1.57895 11.1719 1.01754 10.4281 0.610526 9.55789C0.203509 8.68772 0 7.74737 0 6.73684C0 5.16491 0.477193 3.77909 1.43158 2.57937C2.38596 1.37965 3.59298 0.590035 5.05263 0.210526V1.97895C4.07018 2.32982 3.26316 2.93698 2.63158 3.80042C2 4.66386 1.68421 5.64267 1.68421 6.73684C1.68421 7.49474 1.83523 8.19312 2.13726 8.832C2.4393 9.47088 2.84968 10.0216 3.36842 10.4842V8.42105H5.05263V13.4737H0ZM6.73684 15.1579V13.4737H16V15.1579H6.73684Z" fill="#FFFFFF"/>
</svg>
