<svg width="171" height="121" viewBox="0 0 171 121" fill="none" xmlns="http://www.w3.org/2000/svg">
<path d="M24.6261 72.2374C19.9042 74.4134 15.6898 78.086 13.7976 82.9283C11.0023 90.0585 13.7976 98.4788 19.0441 104.052C24.2907 109.626 31.567 112.834 38.8606 115.165C63.4593 123.043 90.9048 122.45 114.652 112.283C130.744 105.394 144.721 94.4621 158.491 83.6594C162.559 80.4684 166.765 77.1055 168.967 72.418C172.433 65.0384 169.509 55.3452 162.654 50.9329C158.233 48.0946 152.806 47.3893 147.937 45.4283C132.937 39.3905 125.326 22.6187 112.226 13.1405C103.522 6.84459 92.3755 4.01489 81.719 5.39104C74.0728 6.38014 66.1943 9.95812 62.6336 16.7959C59.7179 22.3864 60.1823 29.0522 59.4942 35.3222C58.4363 45.0069 54.3337 54.3044 48.0378 61.7184C45.5607 64.6427 42.9289 67.6445 39.1875 68.754C34.3279 70.1903 29.3824 70.0355 24.6261 72.2202V72.2374Z" fill="#B0DAF9"/>
<path d="M138.657 39.227V113.814H28.1095V39.227C28.1095 37.8939 29.1932 36.8102 30.5263 36.8102H136.232C137.573 36.8102 138.657 37.8939 138.657 39.227Z" fill="#3F6AFF"/>
<path d="M157.906 113.814C158.121 113.814 158.284 113.986 158.284 114.193V116.807C158.284 118.76 156.693 120.351 154.741 120.351H12.0258C10.0733 120.351 8.48218 118.76 8.48218 116.807V114.193C8.48218 113.978 8.6542 113.814 8.86062 113.814H157.906Z" fill="#7196FF"/>
<path d="M134.709 40.715H32.0573V109.522H134.709V40.715Z" fill="#EAF6FF"/>
<path d="M66.9512 113.814H99.8153V115.173C99.8153 116.042 99.11 116.747 98.2413 116.747H68.5338C67.6651 116.747 66.9598 116.042 66.9598 115.173V113.814H66.9512Z" fill="#C2D5FF"/>
<path d="M124.939 88.6221H42.1978C40.9532 88.6221 39.9443 89.631 39.9443 90.8755V103.338C39.9443 104.583 40.9532 105.592 42.1978 105.592H124.939C126.183 105.592 127.192 104.583 127.192 103.338V90.8755C127.192 89.631 126.183 88.6221 124.939 88.6221Z" fill="#C2D5FF"/>
<path d="M43.1181 87.0997H125.859C127.097 87.0997 128.112 88.1061 128.112 89.3532V101.825C128.112 103.063 127.106 104.078 125.859 104.078H43.1181C41.8795 104.078 40.8646 103.072 40.8646 101.825V89.3532C40.8646 88.1147 41.8709 87.0997 43.1181 87.0997Z" fill="white"/>
<path d="M57.4105 97.0201C58.2713 93.387 56.024 89.744 52.391 88.8832C48.7579 88.0224 45.115 90.2697 44.2541 93.9027C43.3933 97.5358 45.6406 101.179 49.2737 102.04C52.9067 102.9 56.5497 100.653 57.4105 97.0201Z" fill="#71A5FF"/>
<path d="M46.2832 96.3543L49.7752 99.8979L55.942 93.7139L54.4713 92.3205L49.844 97.0682L47.84 94.8578L46.2832 96.3543Z" fill="#C2D5FF"/>
<path d="M46.2832 96.0103L49.7752 99.5539L55.942 93.3698L54.4713 91.9765L49.844 96.7242L47.84 94.5137L46.2832 96.0103Z" fill="white"/>
<path d="M122.806 90.9444H60.3199V93.0172H122.806V90.9444Z" fill="#EAF6FF"/>
<path d="M122.806 94.7288H60.3199V96.8016H122.806V94.7288Z" fill="#EAF6FF"/>
<path d="M122.806 98.5218H60.3199V100.595H122.806V98.5218Z" fill="#EAF6FF"/>
<path d="M11.5269 99.8979C7.17484 100.517 6.66739 101.016 6.04812 105.377C5.42885 101.025 4.93 100.517 0.569336 99.8979C4.9214 99.2786 5.42885 98.7798 6.04812 94.4191C6.66739 98.7712 7.16624 99.2786 11.5269 99.8979Z" fill="#3F6AFF"/>
<path d="M112.502 7.54126C108.15 8.16052 107.642 8.65938 107.023 13.02C106.404 8.66798 105.905 8.16052 101.544 7.54126C105.896 6.92199 106.404 6.42314 107.023 2.06247C107.642 6.41454 108.141 6.92199 112.502 7.54126Z" fill="#3F6AFF"/>
<path d="M154.904 108.456C152.453 108.808 152.169 109.084 151.816 111.544C151.464 109.092 151.189 108.808 148.729 108.456C151.18 108.103 151.464 107.828 151.816 105.368C152.169 107.819 152.444 108.103 154.904 108.456Z" fill="#3F6AFF"/>
<path d="M164.658 60.9444C161.226 61.4346 160.83 61.8302 160.34 65.262C159.85 61.8302 159.454 61.4346 156.022 60.9444C159.454 60.4541 159.85 60.0585 160.34 56.6267C160.83 60.0585 161.226 60.4541 164.658 60.9444Z" fill="#3F6AFF"/>
<path d="M96.1169 30.5487C93.4765 30.5487 91.3262 28.3985 91.3262 25.758C91.3262 23.1175 93.4765 20.9673 96.1169 20.9673C98.7574 20.9673 100.908 23.1175 100.908 25.758C100.908 28.3985 98.7574 30.5487 96.1169 30.5487ZM96.1169 21.6898C93.8721 21.6898 92.0487 23.5132 92.0487 25.758C92.0487 28.0028 93.8721 29.8262 96.1169 29.8262C98.3618 29.8262 100.185 28.0028 100.185 25.758C100.185 23.5132 98.3618 21.6898 96.1169 21.6898Z" fill="#EAF6FF"/>
<path d="M161.475 98.1003C159.721 98.1003 158.293 96.6726 158.293 94.918C158.293 93.1634 159.721 91.7356 161.475 91.7356C163.23 91.7356 164.658 93.1634 164.658 94.918C164.658 96.6726 163.23 98.1003 161.475 98.1003ZM161.475 92.2087C159.987 92.2087 158.775 93.4214 158.775 94.9094C158.775 96.3973 159.987 97.6101 161.475 97.6101C162.963 97.6101 164.176 96.3973 164.176 94.9094C164.176 93.4214 162.963 92.2087 161.475 92.2087Z" fill="#EAF6FF"/>
<path d="M18.8721 94.1267C17.9948 94.1267 17.2809 93.4128 17.2809 92.5355C17.2809 91.6582 17.9948 90.9444 18.8721 90.9444C19.7494 90.9444 20.4633 91.6582 20.4633 92.5355C20.4633 93.4128 19.7494 94.1267 18.8721 94.1267ZM18.8721 91.1852C18.1238 91.1852 17.5217 91.7959 17.5217 92.5355C17.5217 93.2752 18.1324 93.8859 18.8721 93.8859C19.6118 93.8859 20.2224 93.2752 20.2224 92.5355C20.2224 91.7959 19.6204 91.1852 18.8721 91.1852Z" fill="#EAF6FF"/>
<path d="M144.927 24.4077L146.243 23.9002L146.088 22.051L144.798 21.9306C144.729 21.664 144.643 21.3973 144.54 21.1479L145.426 20.0556L144.368 18.5246L143.19 19.0665C143.001 18.8687 142.794 18.6881 142.579 18.516L142.803 17.1227L141.126 16.3314V16.3486L140.377 17.3893C140.119 17.3119 139.844 17.2603 139.569 17.2173L139.061 15.9014L137.212 16.0562L137.092 17.3463C136.825 17.4151 136.558 17.5011 136.309 17.6043L135.217 16.7184L133.686 17.7764L134.228 18.9547C134.03 19.1439 133.849 19.3503 133.677 19.5653L132.284 19.3417L131.493 21.0189L132.55 21.7672C132.473 22.0252 132.421 22.3004 132.378 22.5757L131.062 23.0831L131.217 24.9323L132.507 25.0527C132.576 25.3194 132.662 25.586 132.765 25.8354L131.88 26.9277L132.937 28.4587L134.116 27.9168C134.305 28.1147 134.511 28.2953 134.726 28.4673L134.503 29.8606L136.111 30.6175L136.189 30.6519L136.816 29.766L136.937 29.594C136.937 29.594 136.988 29.6112 137.023 29.6198C137.255 29.68 137.496 29.7316 137.745 29.766L138.253 31.082L140.102 30.9272L140.222 29.637C140.489 29.5682 140.756 29.4822 141.005 29.379L142.097 30.2649L143.628 29.207L143.087 28.0286C143.284 27.8394 143.465 27.633 143.637 27.418L145.03 27.6416L145.822 25.9644L144.764 25.2161C144.841 24.9581 144.893 24.6829 144.936 24.4077H144.927ZM134.073 23.496C134.073 20.9587 136.128 18.9031 138.666 18.9031C141.203 18.9031 143.259 20.9587 143.259 23.496C143.259 26.0332 141.203 28.0889 138.666 28.0889C136.128 28.0889 134.073 26.0332 134.073 23.496Z" fill="#EAF6FF"/>
<path d="M150.285 80.2706L151.146 79.9438L151.051 78.731L150.208 78.6536C150.165 78.4816 150.105 78.3096 150.045 78.1376L150.621 77.4237L149.933 76.426L149.167 76.7786C149.038 76.6496 148.909 76.5292 148.772 76.4174L148.918 75.5143L147.826 74.9983L147.344 75.6863C147.172 75.6347 147 75.6003 146.819 75.5745L146.492 74.7144L145.288 74.809L145.211 75.6519C145.039 75.6949 144.867 75.7551 144.704 75.8153L143.99 75.2391L142.992 75.9272L143.345 76.6926C143.216 76.8216 143.095 76.9507 142.983 77.0883L142.08 76.9421L141.564 78.0344L142.252 78.5246C142.201 78.6966 142.166 78.8687 142.14 79.0493L141.28 79.3761L141.384 80.5802L142.226 80.6577C142.269 80.8297 142.33 81.0017 142.39 81.1651L141.814 81.879L142.502 82.8767L143.267 82.5241C143.388 82.6531 143.525 82.7735 143.663 82.8853L143.517 83.7884L144.566 84.2872L144.617 84.313L145.022 83.7368L145.099 83.625C145.099 83.625 145.134 83.6336 145.151 83.6422C145.306 83.6852 145.46 83.7196 145.624 83.7368L145.951 84.5969L147.163 84.4937L147.241 83.6508C147.413 83.6078 147.585 83.5476 147.757 83.4874L148.471 84.0636L149.468 83.3755L149.116 82.6101C149.245 82.4811 149.365 82.352 149.477 82.2144L150.38 82.3606L150.896 81.2683L150.208 80.7781C150.26 80.6061 150.294 80.434 150.32 80.2534L150.285 80.2706ZM143.198 79.6772C143.198 78.0258 144.54 76.684 146.191 76.684C147.843 76.684 149.185 78.0258 149.185 79.6772C149.185 81.3285 147.843 82.6703 146.191 82.6703C144.54 82.6703 143.198 81.3285 143.198 79.6772Z" fill="#EAF6FF"/>
<path d="M115.624 26.2741C115.624 27.0997 114.953 27.7792 114.119 27.7792C113.284 27.7792 112.613 27.1083 112.613 26.2741C112.613 25.4398 113.284 24.7689 114.119 24.7689C114.953 24.7689 115.624 25.4398 115.624 26.2741Z" fill="#71A5FF"/>
<path d="M96.7964 1.3142C96.7964 1.72704 96.461 2.06248 96.0481 2.06248C95.6353 2.06248 95.2998 1.72704 95.2998 1.3142C95.2998 0.901354 95.6353 0.565918 96.0481 0.565918C96.461 0.565918 96.7964 0.901354 96.7964 1.3142Z" fill="#71A5FF"/>
<path d="M12.6966 108.447C13.1099 108.447 13.4449 108.112 13.4449 107.699C13.4449 107.286 13.1099 106.951 12.6966 106.951C12.2834 106.951 11.9484 107.286 11.9484 107.699C11.9484 108.112 12.2834 108.447 12.6966 108.447Z" fill="#71A5FF"/>
<path d="M79.973 48.4386C84.1616 48.4386 87.559 51.836 87.559 56.0246C87.559 60.2133 84.1616 63.6106 79.973 63.6106C75.7844 63.6106 72.387 60.2133 72.387 56.0246C72.387 51.836 75.7844 48.4386 79.973 48.4386ZM77.2637 66.4661H82.6823C83.379 66.4661 84.067 66.535 84.7293 66.664C84.6089 67.7649 85.168 68.7712 86.0194 69.3216C85.0389 69.9495 84.4369 71.1966 84.8325 72.4782C85.0733 73.2437 85.3916 73.9919 85.8044 74.7058C86.2173 75.4197 86.7075 76.0734 87.2494 76.6582C88.1783 77.6559 89.5974 77.7505 90.6381 77.1743V77.2259C90.6381 77.7677 90.8016 78.3268 91.1026 78.7827H68.4392C67.4673 78.7827 66.676 78 66.676 77.0281C66.676 71.188 71.4065 66.4575 77.2465 66.4575L77.2637 66.4661ZM92.5389 61.3744C92.5389 60.9616 92.8056 60.5831 93.2098 60.4971C93.8291 60.3509 94.4827 60.2735 95.145 60.2735C95.8073 60.2735 96.461 60.3509 97.0802 60.4971C97.4845 60.5831 97.7511 60.9616 97.7511 61.3744V63.1892C98.2155 63.387 98.6628 63.645 99.0756 63.9461L100.555 63.0946C100.916 62.8882 101.363 62.9312 101.656 63.2408C102.103 63.7225 102.507 64.2643 102.851 64.8492C103.195 65.434 103.462 66.0619 103.651 66.6898C103.772 67.0854 103.583 67.4983 103.221 67.7133L101.742 68.5648C101.768 68.8056 101.785 69.0464 101.785 69.2959C101.785 69.5453 101.776 69.7861 101.742 70.0269L103.221 70.8784C103.583 71.0848 103.763 71.4977 103.651 71.9019C103.453 72.5298 103.187 73.1491 102.851 73.7425C102.516 74.336 102.112 74.8778 101.656 75.3509C101.372 75.6519 100.916 75.7035 100.555 75.4971L99.0756 74.6456C98.6628 74.9466 98.2242 75.2047 97.7511 75.4025V77.2173C97.7511 77.6301 97.4845 78.0086 97.0802 78.0946C96.461 78.2408 95.8073 78.3182 95.145 78.3182C94.4827 78.3182 93.8291 78.2408 93.2098 78.0946C92.8056 78.0086 92.5389 77.6301 92.5389 77.2173V75.4111C92.0659 75.2133 91.61 74.9552 91.2058 74.6456L89.7436 75.4971C89.3824 75.7035 88.9352 75.6605 88.6427 75.3509C88.1955 74.8692 87.7912 74.3274 87.4472 73.7425C87.1032 73.1577 86.8365 72.5298 86.6473 71.9019C86.5269 71.5063 86.7161 71.0934 87.0774 70.8784L88.5481 70.0269C88.5223 69.7861 88.5051 69.5367 88.5051 69.2959C88.5051 69.055 88.5137 68.8056 88.5481 68.5648L87.0688 67.7133C86.7075 67.5069 86.5269 67.094 86.6387 66.6898C86.8365 66.0619 87.0946 65.4426 87.4386 64.8492C87.7826 64.2557 88.1783 63.7139 88.6341 63.2408C88.918 62.9398 89.3652 62.8882 89.735 63.0946L91.2058 63.9461C91.6186 63.645 92.0659 63.387 92.5389 63.1806V61.3744ZM98.0005 69.2872C98.0693 67.7133 96.8566 66.3801 95.2826 66.3113C93.7087 66.2425 92.3755 67.4552 92.3067 69.0292C92.3067 69.1152 92.3067 69.2012 92.3067 69.2872C92.2379 70.8612 93.4506 72.1944 95.0246 72.2632C96.5986 72.332 97.9317 71.1192 98.0005 69.5453C98.0005 69.4593 98.0005 69.3733 98.0005 69.2872Z" fill="#3F6AFF"/>
</svg>
