<svg width="14" height="18" viewBox="0 0 14 18" fill="none" xmlns="http://www.w3.org/2000/svg">
<path d="M13.25 10.875V8.6875C13.25 7.1342 11.9908 5.875 10.4375 5.875H9.1875C8.66973 5.875 8.25 5.45527 8.25 4.9375V3.6875C8.25 2.1342 6.9908 0.875 5.4375 0.875H3.875M4.5 10.875L7 13.375M7 13.375L9.5 10.875M7 13.375L7 8.375M5.75 0.875H1.6875C1.16973 0.875 0.75 1.29473 0.75 1.8125V16.1875C0.75 16.7053 1.16973 17.125 1.6875 17.125H12.3125C12.8303 17.125 13.25 16.7053 13.25 16.1875V8.375C13.25 4.23286 9.89214 0.875 5.75 0.875Z" stroke="#596372" stroke-width="1.25" stroke-linecap="round" stroke-linejoin="round"/>
</svg>
