<svg width="14" height="19" viewBox="0 0 14 19" fill="none" xmlns="http://www.w3.org/2000/svg">
<path d="M13.25 11.375V9.1875C13.25 7.6342 11.9908 6.375 10.4375 6.375H9.1875C8.66973 6.375 8.25 5.95527 8.25 5.4375V4.1875C8.25 2.6342 6.9908 1.375 5.4375 1.375H3.875M4.5 11.375L7 13.875M7 13.875L9.5 11.375M7 13.875L7 8.875M5.75 1.375H1.6875C1.16973 1.375 0.75 1.79473 0.75 2.3125V16.6875C0.75 17.2053 1.16973 17.625 1.6875 17.625H12.3125C12.8303 17.625 13.25 17.2053 13.25 16.6875V8.875C13.25 4.73286 9.89214 1.375 5.75 1.375Z" stroke="white" stroke-width="1.25" stroke-linecap="round" stroke-linejoin="round"/>
</svg>
