<svg width="18" height="14" viewBox="0 0 18 14" fill="none" xmlns="http://www.w3.org/2000/svg">
<path d="M0.696293 7.26867C0.638724 7.09594 0.638669 6.90895 0.696136 6.73619C1.85311 3.2581 5.13399 0.75 9.00067 0.75C12.8656 0.75 16.1452 3.25577 17.3036 6.73134C17.3612 6.90406 17.3612 7.09106 17.3038 7.26381C16.1468 10.7419 12.8659 13.25 8.99922 13.25C5.13433 13.25 1.8547 10.7442 0.696293 7.26867Z" stroke="#596372" stroke-width="1.25" stroke-linecap="round" stroke-linejoin="round"/>
<path d="M11.5 7C11.5 8.38071 10.3807 9.5 9 9.5C7.61929 9.5 6.5 8.38071 6.5 7C6.5 5.61929 7.61929 4.5 9 4.5C10.3807 4.5 11.5 5.61929 11.5 7Z" stroke="#596372" stroke-width="1.25" stroke-linecap="round" stroke-linejoin="round"/>
</svg>
