<?xml version="1.0" encoding="UTF-8" standalone="no"?>
<!DOCTYPE svg PUBLIC "-//W3C//DTD SVG 1.1//EN" "http://www.w3.org/Graphics/SVG/1.1/DTD/svg11.dtd">
<svg width="100%" height="100%" viewBox="0 0 47 54" version="1.1" xmlns="http://www.w3.org/2000/svg" xmlns:xlink="http://www.w3.org/1999/xlink" xml:space="preserve" xmlns:serif="http://www.serif.com/" style="fill-rule:evenodd;clip-rule:evenodd;stroke-linejoin:round;stroke-miterlimit:2;">
    <g transform="matrix(1,0,0,1,-0.366211,-0.321899)">
        <path d="M40.345,31.511C39.795,31.631 39.215,31.691 38.655,31.701C36.485,31.721 34.315,31.701 32.145,31.701C32.095,31.701 32.045,31.701 31.965,31.691C32.115,31.511 32.255,31.351 32.375,31.191C33.235,30.061 33.645,28.791 33.645,27.371L33.645,8.591C33.625,5.531 32.475,2.971 30.185,0.931C30.065,0.831 29.945,0.731 29.825,0.631C29.705,0.541 29.595,0.451 29.435,0.331L29.605,0.331C31.435,0.331 33.275,0.311 35.105,0.331C40.745,0.391 45.535,4.401 46.585,9.941C46.675,10.431 46.735,10.931 46.775,11.441L46.775,23.271C46.915,27.131 44.275,30.661 40.355,31.511L40.345,31.511Z" style="fill:url(#_Linear1);fill-rule:nonzero;"/>
        <path d="M46.735,35.171C46.675,40.811 42.665,45.601 37.125,46.651C36.635,46.741 36.135,46.801 35.625,46.841L23.785,46.841L22.755,46.811L15.375,46.811L15.375,33.691L19.055,33.691C19.265,33.711 19.475,33.721 19.685,33.721L38.465,33.721C41.525,33.701 44.085,32.551 46.125,30.261C46.225,30.141 46.325,30.021 46.425,29.901C46.515,29.781 46.605,29.671 46.725,29.511L46.725,29.681C46.725,31.511 46.735,33.351 46.725,35.181L46.735,35.171Z" style="fill:url(#_Linear2);fill-rule:nonzero;"/>
        <path d="M31.545,6.851C31.665,7.401 31.725,7.981 31.735,8.541C31.755,10.711 31.735,12.881 31.735,15.051C31.735,15.101 31.735,15.151 31.725,15.231C31.545,15.081 31.385,14.941 31.225,14.821C30.095,13.961 28.825,13.551 27.405,13.551L8.635,13.551C5.575,13.571 3.015,14.721 0.975,17.011C0.875,17.131 0.775,17.251 0.675,17.371C0.585,17.491 0.495,17.601 0.375,17.761L0.375,17.591C0.375,15.761 0.355,13.921 0.375,12.091C0.435,6.461 4.445,1.661 9.975,0.621C10.465,0.531 10.965,0.471 11.475,0.431L23.305,0.431C27.165,0.291 30.695,2.931 31.545,6.851Z" style="fill:url(#_Linear3);fill-rule:nonzero;"/>
        <path d="M13.545,19.681L13.545,39.921C13.545,40.181 13.555,40.421 13.575,40.671L13.575,45.761C13.585,46.101 13.575,46.451 13.545,46.791C13.525,47.061 13.485,47.321 13.435,47.581C13.395,47.781 13.345,47.981 13.295,48.181C12.525,51.011 10.225,53.331 7.145,53.991C6.595,54.111 6.015,54.171 5.455,54.181L5.085,54.181C3.555,54.191 2.025,54.181 0.495,54.181L0.495,42.601L0.465,42.601L0.465,29.351C0.465,29.131 0.455,28.911 0.455,28.911L0.455,23.801C0.375,21.651 1.155,19.601 2.545,18.061C3.645,16.831 5.135,15.921 6.885,15.541C7.435,15.421 8.015,15.361 8.575,15.351C10.745,15.331 12.915,15.351 15.085,15.351C15.135,15.351 15.185,15.351 15.265,15.361C15.115,15.541 14.975,15.701 14.855,15.871C14.015,16.981 13.595,18.231 13.585,19.611L13.585,19.691L13.545,19.681Z" style="fill:url(#_Linear4);fill-rule:nonzero;"/>
        <path d="M24.345,33.681L24.345,33.711L19.675,33.711C19.465,33.711 19.245,33.711 19.045,33.681L24.345,33.681Z" style="fill:url(#_Linear5);fill-rule:nonzero;"/>
    </g>
    <defs>
        <linearGradient id="_Linear1" x1="0" y1="0" x2="1" y2="0" gradientUnits="userSpaceOnUse" gradientTransform="matrix(29.48,35.23,-35.23,29.48,15.9051,-8.27921)"><stop offset="0" style="stop-color:rgb(8,160,250);stop-opacity:1"/><stop offset="1" style="stop-color:rgb(2,127,255);stop-opacity:1"/></linearGradient>
        <linearGradient id="_Linear2" x1="0" y1="0" x2="1" y2="0" gradientUnits="userSpaceOnUse" gradientTransform="matrix(29.49,35.24,-35.24,29.49,1.955,3.3808)"><stop offset="0" style="stop-color:rgb(8,160,250);stop-opacity:1"/><stop offset="1" style="stop-color:rgb(2,127,255);stop-opacity:1"/></linearGradient>
        <linearGradient id="_Linear3" x1="0" y1="0" x2="1" y2="0" gradientUnits="userSpaceOnUse" gradientTransform="matrix(29.49,35.24,-35.24,29.49,6.1551,-0.129212)"><stop offset="0" style="stop-color:rgb(8,160,250);stop-opacity:1"/><stop offset="1" style="stop-color:rgb(2,127,255);stop-opacity:1"/></linearGradient>
        <linearGradient id="_Linear4" x1="0" y1="0" x2="1" y2="0" gradientUnits="userSpaceOnUse" gradientTransform="matrix(20.25,24.2,-24.2,20.25,-2.61493,22.2508)"><stop offset="0" style="stop-color:rgb(8,160,250);stop-opacity:1"/><stop offset="1" style="stop-color:rgb(2,127,255);stop-opacity:1"/></linearGradient>
        <linearGradient id="_Linear5" x1="0" y1="0" x2="1" y2="0" gradientUnits="userSpaceOnUse" gradientTransform="matrix(29.4886,35.2297,-35.2297,29.4886,-1.34483,6.1519)"><stop offset="0" style="stop-color:rgb(8,160,250);stop-opacity:1"/><stop offset="1" style="stop-color:rgb(2,127,255);stop-opacity:1"/></linearGradient>
    </defs>
</svg>
