<svg id="Layer_1" data-name="Layer 1" xmlns="http://www.w3.org/2000/svg" xmlns:xlink="http://www.w3.org/1999/xlink" viewBox="0 0 85.15 101.28"><defs><style>.cls-1{fill:url(#linear-gradient);}.cls-2{fill:url(#linear-gradient-2);}.cls-3{fill:url(#linear-gradient-3);}.cls-4{fill:url(#linear-gradient-4);}</style><linearGradient id="linear-gradient" x1="78.82" y1="16.29" x2="6.73" y2="16.29" gradientUnits="userSpaceOnUse"><stop offset="0" stop-color="#323790"/><stop offset="0.47" stop-color="#33a7ee"/><stop offset="0.89" stop-color="#3bebf4"/></linearGradient><linearGradient id="linear-gradient-2" x1="16.29" y1="-8.52" x2="16.29" y2="107.79" xlink:href="#linear-gradient"/><linearGradient id="linear-gradient-3" x1="69.63" y1="77.97" x2="68.27" y2="14.03" xlink:href="#linear-gradient"/><linearGradient id="linear-gradient-4" x1="-35.46" y1="71.23" x2="117.56" y2="68.51" xlink:href="#linear-gradient"/></defs><path class="cls-1" d="M52,0H22.85A22.84,22.84,0,0,0,0,21.86H0v10a7.6,7.6,0,0,1,7.6-7.6h45a8.3,8.3,0,0,1,8.29,8.3V8.86A8.86,8.86,0,0,0,52,0Z"/><path class="cls-2" d="M32.58,24.29a8.3,8.3,0,0,0-8.29,8.3V60.87c0,.27,0,.55,0,.83V85.08A15.91,15.91,0,0,1,8.36,101H0V31.89a7.6,7.6,0,0,1,7.6-7.6Z"/><path class="cls-3" d="M61.58,0H52a8.86,8.86,0,0,1,8.86,8.86V52.58a8.29,8.29,0,0,1-8.29,8.29H77.7a7.44,7.44,0,0,0,7.45-7.45V23.57A23.57,23.57,0,0,0,61.58,0Z"/><path class="cls-4" d="M24.29,60.87V85.16h38A22.91,22.91,0,0,0,85.15,62.25V53.42a7.44,7.44,0,0,1-7.45,7.45Z"/></svg>