<svg width="16" height="16" viewBox="0 0 16 16" fill="none" xmlns="http://www.w3.org/2000/svg">
  <path d="M15.1211 9.92257L13.7469 9.12903C13.8856 8.38064 13.8856 7.6129 13.7469 6.86452L15.1211 6.07097C15.2792 5.98065 15.3502 5.79356 15.2985 5.61936C14.9405 4.47098 14.3308 3.43228 13.534 2.56776C13.4115 2.4355 13.2115 2.40325 13.0566 2.49357L11.6824 3.28711C11.105 2.79034 10.4405 2.40647 9.72114 2.15486V0.570996C9.72114 0.390351 9.59533 0.232287 9.41791 0.193578C8.23405 -0.0709372 7.02115 -0.0580341 5.89534 0.193578C5.71792 0.232287 5.59212 0.390351 5.59212 0.570996V2.15809C4.87599 2.41292 4.21148 2.79679 3.63083 3.29034L2.25987 2.49679C2.1018 2.40647 1.90503 2.4355 1.78245 2.57099C0.985678 3.43228 0.376003 4.47098 0.0179393 5.62259C-0.0368993 5.79678 0.0372941 5.98388 0.195358 6.0742L1.56955 6.86775C1.43084 7.61613 1.43084 8.38387 1.56955 9.13225L0.195358 9.9258C0.0372941 10.0161 -0.0336735 10.2032 0.0179393 10.3774C0.376003 11.5258 0.985678 12.5645 1.78245 13.429C1.90503 13.5613 2.10503 13.5935 2.25987 13.5032L3.63406 12.7097C4.21148 13.2064 4.87599 13.5903 5.59534 13.8419V15.429C5.59534 15.6096 5.72115 15.7677 5.89857 15.8064C7.08244 16.0709 8.29534 16.058 9.42114 15.8064C9.59856 15.7677 9.72436 15.6096 9.72436 15.429V13.8419C10.4405 13.5871 11.105 13.2032 11.6856 12.7097L13.0598 13.5032C13.2179 13.5935 13.4147 13.5645 13.5373 13.429C14.334 12.5677 14.9437 11.529 15.3018 10.3774C15.3502 10.2 15.2792 10.0129 15.1211 9.92257ZM7.65663 10.5774C6.23405 10.5774 5.07599 9.41935 5.07599 7.99677C5.07599 6.5742 6.23405 5.41614 7.65663 5.41614C9.0792 5.41614 10.2373 6.5742 10.2373 7.99677C10.2373 9.41935 9.0792 10.5774 7.65663 10.5774Z" fill="#6A7888"/>
</svg>