<svg width="1280" height="189" viewBox="0 0 1280 189" fill="none" xmlns="http://www.w3.org/2000/svg">
<path d="M182.647 149.255H62.0898L223.284 64.4785L182.647 149.255Z" fill="url(#paint0_linear_2356_24826)"/>
<path d="M209.914 92.7793L182.686 149.254H1280V0H464.502L209.914 92.7793Z" fill="#0B3961"/>
<path d="M207.762 94.3284L221.471 66.0299L350.338 0H466.866L207.762 94.3284Z" fill="url(#paint1_linear_2356_24826)"/>
<g filter="url(#filter0_d_2356_24826)">
<path d="M351.045 0L0 180.299V0H351.045Z" fill="url(#paint2_linear_2356_24826)"/>
</g>
<path d="M151.37 81.8087V72.662C151.37 69.5116 149.889 67.7855 147.362 67.7855C144.966 67.7855 143.398 69.4257 143.398 72.532V81.8087C143.398 84.959 144.879 86.5981 147.362 86.5981C149.889 86.5981 151.37 84.959 151.37 81.8087ZM139.912 65.1104H143.223V67.6996C143.789 66.5342 145.532 64.8516 148.451 64.8516C152.547 64.8516 154.856 67.5696 154.856 73.1357V82.0251C154.856 86.9864 152.46 89.5761 148.451 89.5761C145.532 89.5761 143.92 88.0219 143.398 86.8575V97.4719H139.912V65.1104Z" fill="white"/>
<path d="M159.566 65.1101H162.877V68.174C163.575 65.4554 166.145 64.5059 168.541 64.8512V68.3029C164.533 67.8716 163.052 70.2449 163.052 75.4232V89.3164H159.566V65.1101Z" fill="white"/>
<path d="M181.92 82.2404V72.2302C181.92 69.4686 180.308 68.0009 177.955 68.0009C175.515 68.0009 173.947 69.4686 173.947 72.2302V82.2404C173.947 85.045 175.559 86.5122 177.955 86.5122C180.264 86.5122 181.92 85.045 181.92 82.2404ZM170.504 81.7657V72.618C170.504 67.9149 173.206 64.8516 177.955 64.8516C182.617 64.8516 185.405 67.9149 185.405 72.618V81.7657C185.405 86.6411 182.617 89.662 177.955 89.662C173.206 89.662 170.504 86.6411 170.504 81.7657Z" fill="white"/>
<path d="M189.113 81.7657V72.618C189.113 67.9149 191.815 64.8086 196.564 64.8086C201.27 64.8086 204.015 67.7855 204.015 72.575V72.8339H200.529V72.618C200.529 69.5981 199.222 68.0009 196.564 68.0009C194.124 68.0009 192.556 69.4686 192.556 72.2302V82.2404C192.556 85.045 194.168 86.5122 196.564 86.5122C199.048 86.5122 200.529 84.959 200.529 81.9381V81.6797H204.015V81.9381C204.015 86.7281 201.226 89.6621 196.564 89.6621C191.815 89.6621 189.113 86.6411 189.113 81.7657Z" fill="white"/>
<path d="M218.789 75.8113V72.1002C218.789 69.3817 217.177 67.7855 214.824 67.7855C212.472 67.7855 210.816 69.2528 210.816 72.0573V75.8113H218.789ZM207.373 81.6797V72.532C207.373 67.829 210.074 64.7656 214.824 64.7656C219.486 64.7656 222.274 67.829 222.274 72.532V78.357H210.816V81.5933C210.816 84.7437 212.166 86.6851 214.824 86.6851C217.177 86.6851 218.789 85.2174 218.789 83.0605V82.2834H222.274V82.6722C222.274 86.5122 219.703 89.662 214.824 89.662C210.074 89.662 207.373 86.5552 207.373 81.6797Z" fill="white"/>
<path d="M225.373 82.3699H228.858C228.858 85.0885 230.471 86.6851 232.997 86.6851C235.002 86.6851 236.874 85.3473 236.874 83.1465C236.874 80.6013 234.783 79.4789 232.473 78.357C229.425 76.8903 225.895 75.4665 225.895 71.1078C225.895 67.5696 228.422 64.7656 232.822 64.7656C237.616 64.7656 240.142 67.4402 240.142 72.0573H236.787C236.787 69.1663 235.262 67.9149 232.911 67.9149C230.644 67.9149 229.294 69.2528 229.294 71.0648C229.294 73.3521 231.385 74.3441 233.781 75.4665C236.831 76.8473 240.317 78.4005 240.317 82.9741C240.317 86.2533 238.182 89.662 232.997 89.662C228.248 89.662 225.373 86.8146 225.373 82.3699Z" fill="white"/>
<path d="M243.152 82.3699H246.638C246.638 85.0885 248.251 86.6851 250.778 86.6851C252.783 86.6851 254.656 85.3473 254.656 83.1465C254.656 80.6013 252.565 79.4789 250.254 78.357C247.205 76.8903 243.676 75.4665 243.676 71.1078C243.676 67.5696 246.203 64.7656 250.603 64.7656C255.396 64.7656 257.923 67.4402 257.923 72.0573H254.568C254.568 69.1663 253.043 67.9149 250.691 67.9149C248.425 67.9149 247.075 69.2528 247.075 71.0648C247.075 73.3521 249.166 74.3441 251.562 75.4665C254.612 76.8473 258.098 78.4005 258.098 82.9741C258.098 86.2533 255.962 89.662 250.778 89.662C246.029 89.662 243.152 86.8146 243.152 82.3699Z" fill="white"/>
<path d="M262.284 65.1104H265.595V67.2248C266.119 66.3618 267.382 64.8086 269.996 64.8086C272.131 64.8086 273.961 65.844 274.875 67.872C275.572 66.3618 277.359 64.8086 280.017 64.8086C283.895 64.8086 285.42 67.6561 285.42 72.705V89.3167H281.935V72.3167C281.935 69.4687 281.281 67.9149 279.015 67.9149C276.487 67.9149 275.617 69.3817 275.617 72.1867V89.3167H272.131V72.3167C272.131 69.3387 271.347 67.6561 268.95 67.6561C266.989 67.6561 265.77 69.0369 265.77 71.7549V89.3167H262.284V65.1104Z" fill="white"/>
<path d="M301.111 81.8087V72.4456C301.111 69.3387 299.586 67.7425 297.145 67.7425C294.619 67.7425 293.181 69.4257 293.181 72.575V81.8087C293.181 85.045 294.619 86.6851 297.145 86.6851C299.63 86.6851 301.111 85.002 301.111 81.8087ZM289.695 82.0251V72.3596C289.695 67.3108 292.223 64.8086 296.057 64.8086C298.977 64.8086 300.762 66.4912 301.328 67.6131V65.1104H304.596V89.3167H301.328V86.8146C300.762 87.9359 298.977 89.6621 296.057 89.6621C292.135 89.6621 289.695 87.0729 289.695 82.0251Z" fill="white"/>
<path d="M309.612 56.7393H313.141V75.5954H314.884L320.548 65.1104H324.557L317.76 77.0196L324.6 89.3167H320.591L314.884 78.5299H313.141V89.3167H309.612V56.7393Z" fill="white"/>
<path d="M337.719 75.8113V72.1002C337.719 69.3817 336.107 67.7855 333.754 67.7855C331.402 67.7855 329.746 69.2528 329.746 72.0573V75.8113H337.719ZM326.304 81.6797V72.532C326.304 67.829 329.005 64.7656 333.754 64.7656C338.417 64.7656 341.205 67.829 341.205 72.532V78.357H329.746V81.5933C329.746 84.7437 331.097 86.6851 333.754 86.6851C336.107 86.6851 337.719 85.2174 337.719 83.0605V82.2834H341.205V82.6722C341.205 86.5122 338.634 89.662 333.754 89.662C329.005 89.662 326.304 86.5552 326.304 81.6797Z" fill="white"/>
<path d="M345.653 65.1101H348.964V68.174C349.661 65.4554 352.231 64.5059 354.627 64.8512V68.3029C350.62 67.8716 349.139 70.2449 349.139 75.4232V89.3164H345.653V65.1101Z" fill="white"/>
<path d="M66.2539 68.5805C66.2539 68.4213 66.2539 68.2421 66.3946 68.063C66.6225 67.1871 67.1448 66.4141 67.8755 65.8714C68.6061 65.3287 69.5017 65.0486 70.4146 65.0772H82.1327L81.9317 65.4156C81.034 66.6486 80.5618 68.1355 80.585 69.6554C80.585 81.5986 80.585 93.5418 80.585 105.485C80.6244 107.514 80.0133 109.502 78.8395 111.166C77.6658 112.829 75.9899 114.08 74.0526 114.741C73.2019 115.025 72.316 115.192 71.4195 115.239C69.7312 115.239 68.0227 115.239 66.3343 115.239L66.2539 68.5805Z" fill="white"/>
<path d="M122.838 90.4555C122.838 91.1323 122.658 91.7892 122.557 92.446C122.001 95.4849 120.478 98.268 118.21 100.388C115.943 102.508 113.05 103.855 109.955 104.23C109.392 104.26 108.829 104.26 108.266 104.23H83.1816V90.2365H118.618C120.001 90.2802 121.366 89.9127 122.537 89.1816C122.644 89.1277 122.76 89.0939 122.879 89.082L122.838 90.4555Z" fill="white"/>
<path d="M101.77 48.377C102.658 48.5644 103.491 48.9527 104.202 49.5116C104.724 49.9399 105.147 50.4745 105.442 51.079C105.736 51.6835 105.896 52.3437 105.911 53.0149C105.911 56.5779 105.911 60.1211 105.911 63.6842C105.918 63.7835 105.918 63.8833 105.911 63.9827C105.065 63.3354 104.082 62.8863 103.036 62.669C102.439 62.5601 101.834 62.5002 101.227 62.4898H70.5352C68.9965 62.502 67.4999 62.989 66.2539 63.8832V61.8927L66.4348 60.7581C66.8279 57.9228 68.0702 55.2694 70.0014 53.1404C71.9326 51.0114 74.464 49.5047 77.2686 48.8149C78.0726 48.6357 78.8766 48.5163 79.6805 48.377H101.77Z" fill="white"/>
<path d="M122.83 84.0871C122.691 84.6182 122.51 85.1375 122.287 85.6397C121.998 86.2365 121.545 86.7402 120.979 87.0925C120.414 87.4448 119.759 87.6312 119.091 87.6303H107.031C107.031 87.4909 107.152 87.3914 107.212 87.3118C108.068 86.0863 108.505 84.6212 108.458 83.1317C108.458 73.2321 108.458 63.3391 108.458 53.4528C108.495 51.7027 107.92 49.9938 106.83 48.6158C106.776 48.5407 106.729 48.4607 106.689 48.377H108.84L109.825 48.5362C112.964 48.9848 115.881 50.4012 118.161 52.5843C120.441 54.7675 121.969 57.6065 122.528 60.6983C122.629 61.3552 122.709 62.0121 122.809 62.6889L122.83 84.0871Z" fill="white"/>
<defs>
<filter id="filter0_d_2356_24826" x="-4" y="0" width="359.045" height="188.299" filterUnits="userSpaceOnUse" color-interpolation-filters="sRGB">
<feFlood flood-opacity="0" result="BackgroundImageFix"/>
<feColorMatrix in="SourceAlpha" type="matrix" values="0 0 0 0 0 0 0 0 0 0 0 0 0 0 0 0 0 0 127 0" result="hardAlpha"/>
<feOffset dy="4"/>
<feGaussianBlur stdDeviation="2"/>
<feComposite in2="hardAlpha" operator="out"/>
<feColorMatrix type="matrix" values="0 0 0 0 0 0 0 0 0 0 0 0 0 0 0 0 0 0 0.25 0"/>
<feBlend mode="normal" in2="BackgroundImageFix" result="effect1_dropShadow_2356_24826"/>
<feBlend mode="normal" in="SourceGraphic" in2="effect1_dropShadow_2356_24826" result="shape"/>
</filter>
<linearGradient id="paint0_linear_2356_24826" x1="215.156" y1="92.7372" x2="88.1079" y2="149.88" gradientUnits="userSpaceOnUse">
<stop stop-color="#2433B8"/>
<stop offset="0.988598" stop-color="#5B9FDE"/>
</linearGradient>
<linearGradient id="paint1_linear_2356_24826" x1="350.338" y1="-1.34755" x2="222.913" y2="88.2935" gradientUnits="userSpaceOnUse">
<stop stop-color="#2433B8"/>
<stop offset="1" stop-color="#5B9FDE"/>
</linearGradient>
<linearGradient id="paint2_linear_2356_24826" x1="234.94" y1="-29.6012" x2="-11.9901" y2="175.873" gradientUnits="userSpaceOnUse">
<stop stop-color="#5B9FDE"/>
<stop offset="1" stop-color="#2433B8"/>
</linearGradient>
</defs>
</svg>
