<svg width="117" height="118" viewBox="0 0 117 118" fill="none" xmlns="http://www.w3.org/2000/svg">
  <path d="M37.9086 115.096C46.113 120.041 51.966 117.988 54.2068 114.022C58.5401 106.354 72.9482 90.6717 95.7808 85.3714C126.021 78.3513 119.706 59.712 101.116 49.931C82.5259 40.1499 68.6257 26.616 70.7295 11.9003C72.8333 -2.81541 51.9888 -7.88839 42.7189 20.4197C36.7286 38.7135 25.9934 43.6144 19.1478 44.7925C12.6959 45.9028 5.63836 47.2959 2.19676 52.8649C-1.97939 59.6221 -0.522111 66.4574 16.9625 71.1455C41.7399 77.789 19.5189 104.011 37.9086 115.096Z" fill="#DEEFFF"/>
  <path d="M46.922 108.024C43.4117 111.534 37.7051 111.534 34.176 108.024L16.8872 90.7161C13.3769 87.2058 13.3769 81.4992 16.8872 77.9701L26.4045 68.4528L32.2754 74.3237C33.4392 75.4875 35.3539 75.4875 36.5178 74.3237C37.6816 73.1598 37.6816 71.2451 36.5178 70.0813L30.6469 64.2104L38.4184 56.4389L47.4289 65.4493C48.5927 66.6132 50.5075 66.6132 51.6713 65.4493C52.8352 64.2855 52.8352 62.3708 51.6713 61.2069L42.6608 52.1965L50.4324 44.4249L56.3032 50.2958C57.4671 51.4597 59.3818 51.4597 60.5457 50.2958C61.7095 49.132 61.7095 47.2172 60.5457 46.0534L54.6748 40.1825L62.4463 32.411L71.4568 41.4215C72.6206 42.5853 74.5353 42.5853 75.6992 41.4215C76.863 40.2576 76.863 38.3429 75.6992 37.179L66.6887 28.1686L76.206 18.6513C79.7163 15.141 85.423 15.141 88.9521 18.6513L106.241 35.9401C109.751 39.4504 109.751 45.157 106.241 48.6861L46.922 108.024Z" fill="#1572C2"/>
</svg>