<svg width="32" height="32" viewBox="0 0 32 32" fill="none" xmlns="http://www.w3.org/2000/svg">
<g clip-path="url(#clip0_1709_283228)">
<path d="M1.49999 3.5C1.49999 2.66875 2.16874 2 2.99999 2H4.99999C5.83124 2 6.49999 2.66875 6.49999 3.5V11H7.49999C8.33124 11 8.99999 11.6687 8.99999 12.5C8.99999 13.3313 8.33124 14 7.49999 14H2.49999C1.66874 14 0.999994 13.3313 0.999994 12.5C0.999994 11.6687 1.66874 11 2.49999 11H3.49999V5H2.99999C2.16874 5 1.49999 4.33125 1.49999 3.5ZM5.41874 21.325C5.01249 20.8625 4.27499 20.8937 3.91874 21.4L3.21874 22.3687C2.73749 23.0437 1.79999 23.2 1.12499 22.7188C0.449994 22.2375 0.293744 21.3 0.774994 20.625L1.46874 19.65C2.94999 17.575 5.98749 17.425 7.66874 19.3438C8.99999 20.8687 8.96874 23.15 7.59999 24.6375L5.42499 27H7.49999C8.33124 27 8.99999 27.6688 8.99999 28.5C8.99999 29.3312 8.33124 30 7.49999 30H1.99999C1.40624 30 0.862494 29.65 0.624994 29.1C0.387494 28.55 0.493744 27.9188 0.893744 27.4813L5.39374 22.6063C5.72499 22.2438 5.73124 21.6938 5.41249 21.325H5.41874ZM14 4H30C31.1062 4 32 4.89375 32 6C32 7.10625 31.1062 8 30 8H14C12.8937 8 12 7.10625 12 6C12 4.89375 12.8937 4 14 4ZM14 14H30C31.1062 14 32 14.8938 32 16C32 17.1062 31.1062 18 30 18H14C12.8937 18 12 17.1062 12 16C12 14.8938 12.8937 14 14 14ZM14 24H30C31.1062 24 32 24.8937 32 26C32 27.1063 31.1062 28 30 28H14C12.8937 28 12 27.1063 12 26C12 24.8937 12.8937 24 14 24Z" fill="#1572C2"/>
</g>
<defs>
<clipPath id="clip0_1709_283228">
<rect width="32" height="32" fill="white"/>
</clipPath>
</defs>
</svg>