<svg width="91" height="37" viewBox="0 0 91 37" fill="none" xmlns="http://www.w3.org/2000/svg">
<g clip-path="url(#clip0_1709_283208)">
<path d="M34.5981 17.1468C34.5981 25.3559 26.8541 32.0075 17.2991 32.0075C14.7921 32.0075 12.4134 31.5503 10.2646 30.7287C9.46045 31.3502 8.14951 32.2004 6.5953 32.9149C4.97352 33.6579 3.02062 34.2938 1.08124 34.2938C0.642006 34.2938 0.250076 34.0152 0.0811399 33.5865C-0.0877957 33.1578 0.00680821 32.672 0.310892 32.3433L0.331165 32.3219C0.351437 32.3005 0.378467 32.2719 0.419011 32.2219C0.493343 32.1361 0.608219 32.0004 0.750125 31.8146C1.02718 31.4574 1.39884 30.9287 1.77725 30.2714C2.453 29.0854 3.09495 27.5279 3.22334 25.7775C1.19612 23.3483 5.07967e-05 20.369 5.07967e-05 17.1468C5.07967e-05 8.93773 7.74406 2.28613 17.2991 2.28613C26.8541 2.28613 34.5981 8.93773 34.5981 17.1468Z" fill="#1572C2"/>
</g>
<path d="M53.3081 18.7149C53.9188 18.1043 53.9188 17.1126 53.3081 16.502L46.9232 10.1172C46.3126 9.50652 45.3209 9.50652 44.7103 10.1172C44.0997 10.7278 44.0997 11.7194 44.7103 12.3301L48.4328 16.0477L39.2436 16.0477C38.3789 16.0477 37.9316 16.9041 37.9316 17.5695C37.9316 18.2349 38.3789 19.1741 39.2436 19.1741L48.428 19.1741L44.7103 22.8966C44.0997 23.5073 44.0997 24.4989 44.7103 25.1096C45.3209 25.7202 46.3126 25.7202 46.9232 25.1096L53.313 18.7198L53.3081 18.7149Z" fill="#69B7FF"/>
<path d="M78.6257 12.9511V10.4323H77.3884C76.7321 10.4323 76.1027 10.6977 75.6386 11.17C75.1746 11.6424 74.9139 12.283 74.9139 12.9511V23.0261C74.9139 23.6941 75.1746 24.3348 75.6386 24.8072C76.1027 25.2795 76.7321 25.5449 77.3884 25.5449H78.6257V23.0261C78.6257 22.3581 78.8864 21.7174 79.3505 21.2451C79.8146 20.7727 80.444 20.5074 81.1003 20.5074H88.524C89.1803 20.5074 89.8098 20.7727 90.2738 21.2451C90.7379 21.7174 90.9986 22.3581 90.9986 23.0261V30.5824C90.9986 31.2505 90.7379 31.8911 90.2738 32.3635C89.8098 32.8358 89.1803 33.1012 88.524 33.1012H81.1003C80.444 33.1012 79.8146 32.8358 79.3505 32.3635C78.8864 31.8911 78.6257 31.2505 78.6257 30.5824V28.0637H77.3884C76.0758 28.0637 74.817 27.5329 73.8889 26.5882C72.9607 25.6435 72.4393 24.3622 72.4393 23.0261V19.248H67.4901V20.5074C67.4901 21.1754 67.2294 21.816 66.7653 22.2884C66.3013 22.7608 65.6718 23.0261 65.0155 23.0261H60.0664C59.4101 23.0261 58.7807 22.7608 58.3166 22.2884C57.8525 21.816 57.5918 21.1754 57.5918 20.5074V15.4698C57.5918 14.8018 57.8525 14.1611 58.3166 13.6888C58.7807 13.2164 59.4101 12.9511 60.0664 12.9511H65.0155C65.6718 12.9511 66.3013 13.2164 66.7653 13.6888C67.2294 14.1611 67.4901 14.8018 67.4901 15.4698V16.7292H72.4393V12.9511C72.4393 11.615 72.9607 10.3337 73.8889 9.38897C74.817 8.44425 76.0758 7.91351 77.3884 7.91351H78.6257V5.39475C78.6257 4.72673 78.8864 4.08607 79.3505 3.61371C79.8146 3.14135 80.444 2.87598 81.1003 2.87598H88.524C89.1803 2.87598 89.8098 3.14135 90.2738 3.61371C90.7379 4.08607 90.9986 4.72673 90.9986 5.39475V12.9511C90.9986 13.6191 90.7379 14.2597 90.2738 14.7321C89.8098 15.2044 89.1803 15.4698 88.524 15.4698H81.1003C80.444 15.4698 79.8146 15.2044 79.3505 14.7321C78.8864 14.2597 78.6257 13.6191 78.6257 12.9511Z" fill="#1572C2"/>
<path d="M71.8856 6.85501C71.8862 6.93871 71.8608 7.02053 71.8128 7.08909C71.7648 7.15766 71.6966 7.20957 71.6178 7.23761L69.9996 7.82605L69.4114 9.44393C69.3824 9.52203 69.3303 9.58939 69.2619 9.63696C69.1935 9.68453 69.1121 9.71002 69.0288 9.71002C68.9455 9.71002 68.8642 9.68453 68.7958 9.63696C68.7274 9.58939 68.6752 9.52203 68.6462 9.44393L68.0578 7.82426L66.4399 7.23761C66.3618 7.20862 66.2945 7.15642 66.2469 7.08803C66.1993 7.01963 66.1738 6.93832 66.1738 6.85501C66.1738 6.7717 66.1993 6.69039 66.2469 6.622C66.2945 6.5536 66.3618 6.5014 66.4399 6.47241L68.0596 5.88398L68.6462 4.26609C68.6752 4.18799 68.7274 4.12063 68.7958 4.07306C68.8642 4.0255 68.9455 4 69.0288 4C69.1121 4 69.1935 4.0255 69.2619 4.07306C69.3303 4.12063 69.3824 4.18799 69.4114 4.26609L69.9999 5.88576L71.6178 6.47241C71.6966 6.50045 71.7648 6.55236 71.8128 6.62093C71.8608 6.6895 71.8862 6.77132 71.8856 6.85501Z" fill="#69B7FF"/>
<path d="M72.0023 30.0291C72.003 30.1161 71.9765 30.2013 71.9265 30.2726C71.8766 30.344 71.8057 30.398 71.7236 30.4272L70.0397 31.0395L69.4277 32.7231C69.3975 32.8044 69.3432 32.8745 69.272 32.924C69.2008 32.9735 69.1162 33 69.0295 33C68.9428 33 68.8582 32.9735 68.7871 32.924C68.7159 32.8745 68.6616 32.8044 68.6314 32.7231L68.0191 31.0377L66.3355 30.4272C66.2542 30.397 66.1841 30.3427 66.1346 30.2715C66.0851 30.2004 66.0586 30.1157 66.0586 30.0291C66.0586 29.9424 66.0851 29.8577 66.1346 29.7866C66.1841 29.7154 66.2542 29.6611 66.3355 29.6309L68.0209 29.0186L68.6314 27.335C68.6616 27.2537 68.7159 27.1836 68.7871 27.1341C68.8582 27.0846 68.9428 27.0581 69.0295 27.0581C69.1162 27.0581 69.2008 27.0846 69.272 27.1341C69.3432 27.1836 69.3975 27.2537 69.4277 27.335L70.04 29.0204L71.7236 29.6309C71.8057 29.6601 71.8766 29.7141 71.9265 29.7855C71.9765 29.8568 72.003 29.942 72.0023 30.0291Z" fill="#69B7FF"/>
<defs>
<clipPath id="clip0_1709_283208">
<rect width="34.598" height="36.5802" fill="white"/>
</clipPath>
</defs>
</svg>
