<svg width="119" height="105" viewBox="0 0 119 105" fill="none" xmlns="http://www.w3.org/2000/svg">
<path d="M62.5388 6.67235C62.5388 6.67235 54.0018 29.1327 27.9014 25.5577C1.8009 21.9827 -11.7788 58.1716 13.3525 69.6829C38.4838 81.1942 22.3948 96.9346 39.0978 103.58C58.082 111.132 63.3744 82.0281 77.1553 83.9323C107.57 88.1348 125.615 76.9973 116.626 63.8718C100.846 40.8317 90.4069 42.2968 93.8071 26.6573C97.2073 11.0178 71.813 -11.2776 62.5388 6.67235Z" fill="#DEE9FF"/>
<path d="M33.1153 45.1957C33.0483 45.3942 32.907 45.5591 32.721 45.6555C32.535 45.752 32.3188 45.7725 32.1179 45.7129L24.5088 43.6138C24.4024 43.5866 24.3026 43.5384 24.2153 43.4718C24.128 43.4053 24.055 43.3218 24.0006 43.2265C23.9462 43.1311 23.9116 43.0258 23.8988 42.9167C23.886 42.8077 23.8953 42.6972 23.9261 42.5918L24.1166 41.9897C24.1519 41.8859 24.2078 41.7904 24.2809 41.7087C24.3541 41.6271 24.443 41.5612 24.5423 41.5148C24.6416 41.4684 24.7493 41.4426 24.8588 41.439C24.9684 41.4353 25.0775 41.4538 25.1797 41.4935L32.5983 44.1947C32.7968 44.2628 32.9614 44.4049 33.0577 44.5914C33.154 44.7779 33.1746 44.9943 33.1153 45.1957Z" fill="#418DF9"/>
<path d="M32.9863 48.9817C32.996 49.1177 32.9513 49.252 32.862 49.355C32.7727 49.4581 32.6461 49.5214 32.5101 49.5311L27.3915 49.9933C27.2457 50.0074 27.1003 49.9631 26.9871 49.8701C26.874 49.7772 26.8023 49.6431 26.7879 49.4973L26.7552 49.0818C26.7502 49.0107 26.7601 48.9393 26.7841 48.8721C26.8082 48.805 26.8459 48.7436 26.8948 48.6917C26.9438 48.6399 27.003 48.5988 27.0687 48.571C27.1343 48.5432 27.2051 48.5293 27.2764 48.5302L32.4276 48.4835C32.5663 48.4812 32.7008 48.5311 32.8043 48.6234C32.9078 48.7157 32.9728 48.8436 32.9863 48.9817Z" fill="#418DF9"/>
<path d="M35.3063 51.6151C35.5818 51.9577 35.4596 52.4994 35.0293 52.8431L27.3895 58.9459C26.9332 59.3105 26.3093 59.3114 26.0171 58.948L25.6098 58.4415C25.3176 58.0781 25.4746 57.4966 25.9555 57.1623L34.0025 51.5661C34.4557 51.2509 35.0308 51.2725 35.3063 51.6151Z" fill="#418DF9"/>
<path d="M39.2279 24.5531L43.4098 84.2373C43.5391 86.0829 45.1401 87.4743 46.9857 87.345L84.3029 84.7302C86.1485 84.6009 87.5398 82.9999 87.4105 81.1543L83.2286 21.4701C83.0993 19.6244 81.4983 18.2331 79.6527 18.3624L42.3355 20.9771C40.4899 21.1064 39.0986 22.7075 39.2279 24.5531Z" fill="#699CFF"/>
<path d="M43.3402 26.8719L43.828 33.8338C43.9056 34.9412 44.8662 35.776 45.9736 35.6984L52.9355 35.2106C54.0429 35.133 54.8777 34.1724 54.8001 33.065L54.3123 26.1031C54.2347 24.9957 53.2741 24.1609 52.1667 24.2385L45.2048 24.7263C44.0974 24.8039 43.2626 25.7645 43.3402 26.8719Z" fill="white"/>
<path d="M69.3996 41.3632L46.2423 42.9857C46.176 42.9904 46.126 43.0479 46.1306 43.1142L46.3705 46.5383C46.3752 46.6047 46.4327 46.6547 46.499 46.65L69.6563 45.0275C69.7226 45.0228 69.7726 44.9653 69.768 44.8989L69.5281 41.4749C69.5234 41.4085 69.4659 41.3585 69.3996 41.3632Z" fill="white"/>
<path d="M69.3996 55.3632L46.2423 56.9857C46.176 56.9904 46.126 57.0479 46.1306 57.1142L46.3705 60.5383C46.3752 60.6047 46.4327 60.6547 46.499 60.65L69.6563 59.0275C69.7226 59.0228 69.7726 58.9653 69.768 58.8989L69.5281 55.4749C69.5234 55.4085 69.4659 55.3585 69.3996 55.3632Z" fill="white"/>
<path d="M79.787 47.7463L46.7377 50.0619C46.6713 50.0665 46.6213 50.1241 46.626 50.1904L46.8659 53.6145C46.8705 53.6808 46.9281 53.7308 46.9944 53.7262L80.0437 51.4105C80.1101 51.4059 80.1601 51.3484 80.1554 51.282L79.9155 47.858C79.9109 47.7916 79.8533 47.7416 79.787 47.7463Z" fill="white"/>
<path d="M79.787 61.7453L46.7377 64.0609C46.6713 64.0656 46.6213 64.1231 46.626 64.1894L46.8659 67.6135C46.8705 67.6798 46.9281 67.7298 46.9944 67.7252L80.0437 65.4096C80.1101 65.4049 80.1601 65.3474 80.1554 65.2811L79.9155 61.857C79.9109 61.7907 79.8533 61.7406 79.787 61.7453Z" fill="white"/>
</svg>
