<svg width="221" height="228" viewBox="0 0 221 228" fill="none" xmlns="http://www.w3.org/2000/svg">
<path d="M23.1835 100.029C23.1835 100.029 61.9544 98.4764 70.3329 34.7453C77.7732 -21.854 143.151 3.90794 162.049 26.4698C186.53 55.6968 173.48 105.973 205.15 112.325C236.819 118.676 216.138 189.292 168.066 182.533C108.266 174.125 122.734 209.069 104.783 223.859C91.899 234.474 39.0719 224.256 37.3112 185.722C35.8296 153.297 22.1519 153.4 12.457 149.723C-1.52521 144.42 -10.3355 106.017 23.1835 100.029Z" fill="#DEE9FF"/>
<path d="M154.982 170.806L116.891 133.167L109.348 140.8L147.439 178.439L154.982 170.806Z" fill="#699CFF"/>
<path d="M169.533 180.92L139.898 151.637C139.733 151.473 139.467 151.475 139.304 151.64L128.088 162.991C127.925 163.156 127.926 163.422 128.091 163.585L157.726 192.869C157.891 193.032 158.157 193.03 158.32 192.865L169.537 181.514C169.7 181.349 169.698 181.083 169.533 180.92Z" fill="#0E84E5"/>
<path d="M83.1311 152.097C109.337 152.097 130.581 130.853 130.581 104.647C130.581 78.4416 109.337 57.1978 83.1311 57.1978C56.9255 57.1978 35.6816 78.4416 35.6816 104.647C35.6816 130.853 56.9255 152.097 83.1311 152.097Z" fill="#0E84E5"/>
<path d="M83.131 144.355C105.061 144.355 122.838 126.577 122.838 104.648C122.838 82.718 105.061 64.9404 83.131 64.9404C61.2014 64.9404 43.4238 82.718 43.4238 104.648C43.4238 126.577 61.2014 144.355 83.131 144.355Z" fill="#D4E5FF"/>
</svg>
