<svg width="20" height="16" viewBox="0 0 20 16" fill="none" xmlns="http://www.w3.org/2000/svg">
  <path d="M16.249 6.91455L12.249 2.91455L3.56445 11.5981L3.16797 15.1665C3.11426 15.645 3.51855 16.0474 3.99512 15.9946L7.5625 15.6021L16.249 6.91455Z" fill="#6A7888"/>
  <path d="M16.8457 0.439941L18.7236 2.31885C19.3096 2.90479 19.3096 3.854 18.7236 4.43994L16.9561 6.20752L12.9561 2.20752L14.7227 0.439941C15.3086 -0.145996 16.2598 -0.145996 16.8457 0.439941Z" fill="#6A7888"/>
  <path d="M1 1.00049C0.447266 1.00049 0 1.44775 0 2.00049C0 2.55322 0.447266 3.00049 1 3.00049H9C9.26758 3.00049 9.51074 2.89502 9.69043 2.72314C9.88086 2.5415 10 2.28564 10 2.00049C10 1.44775 9.55273 1.00049 9 1.00049H1Z" fill="#6A7888"/>
  <path d="M0 5.50049C0 4.94775 0.447266 4.50049 1 4.50049H6C6.09082 4.50049 6.17871 4.51221 6.26172 4.53564L6.37305 4.57275C6.74023 4.72119 7 5.08057 7 5.50049C7 5.61572 6.98047 5.7251 6.94531 5.82666C6.89941 5.95947 6.82617 6.08057 6.73242 6.18018C6.5498 6.37744 6.28906 6.50049 6 6.50049H1C0.447266 6.50049 0 6.05322 0 5.50049Z" fill="#6A7888"/>
  <path d="M1 8.00049C0.447266 8.00049 0 8.44775 0 9.00049C0 9.55322 0.447266 10.0005 1 10.0005H3C3.31445 10.0005 3.59375 9.85596 3.77637 9.62939C3.91602 9.45752 4 9.23877 4 9.00049C4 8.44775 3.55273 8.00049 3 8.00049H1Z" fill="#6A7888"/>
</svg>