<?xml version="1.0" encoding="UTF-8" standalone="no"?>
<!DOCTYPE svg PUBLIC "-//W3C//DTD SVG 1.1//EN" "http://www.w3.org/Graphics/SVG/1.1/DTD/svg11.dtd">
<svg width="100%" height="100%" viewBox="0 0 150 40" version="1.1" xmlns="http://www.w3.org/2000/svg" xmlns:xlink="http://www.w3.org/1999/xlink" xml:space="preserve" xmlns:serif="http://www.serif.com/" style="fill-rule:evenodd;clip-rule:evenodd;stroke-linejoin:round;stroke-miterlimit:2;">
    <rect id="processmaker-logo" x="0" y="0" width="150" height="40" style="fill:none;"/>
    <g id="White" transform="matrix(0.959598,0,0,0.959598,6.06032,3.73041)">
        <g id="text" transform="matrix(0.629541,0,0,0.629541,-0.230545,-0.202649)">
            <path d="M58.185,19.201L60.895,19.201L60.895,21.351C61.125,21.001 61.425,20.671 61.785,20.361C62.145,20.051 62.545,19.781 62.975,19.561C63.415,19.341 63.875,19.161 64.375,19.041C64.875,18.921 65.365,18.851 65.875,18.851C66.865,18.851 67.785,19.041 68.625,19.421C69.465,19.801 70.205,20.331 70.835,21.021C71.465,21.711 71.965,22.521 72.315,23.461C72.675,24.401 72.855,25.431 72.855,26.561C72.855,27.691 72.675,28.721 72.315,29.661C71.955,30.601 71.465,31.411 70.835,32.091C70.205,32.771 69.465,33.301 68.625,33.691C67.785,34.081 66.865,34.271 65.875,34.271C65.395,34.271 64.905,34.211 64.415,34.101C63.925,33.991 63.475,33.821 63.035,33.601C62.595,33.391 62.205,33.141 61.855,32.841C61.505,32.551 61.225,32.241 61.015,31.911L61.015,39.741L58.195,39.741L58.195,19.201L58.185,19.201ZM60.835,26.561C60.835,27.321 60.955,28.011 61.195,28.641C61.435,29.271 61.775,29.811 62.195,30.271C62.625,30.731 63.115,31.081 63.665,31.321C64.215,31.561 64.795,31.681 65.395,31.681C65.995,31.681 66.605,31.561 67.155,31.321C67.705,31.081 68.195,30.731 68.615,30.271C69.035,29.811 69.365,29.271 69.615,28.641C69.865,28.011 69.995,27.321 69.995,26.561C69.995,25.801 69.865,25.111 69.615,24.481C69.365,23.851 69.025,23.311 68.615,22.851C68.205,22.391 67.715,22.041 67.155,21.801C66.605,21.561 66.015,21.441 65.395,21.441C64.775,21.441 64.215,21.561 63.665,21.801C63.115,22.041 62.625,22.391 62.195,22.831C61.765,23.281 61.435,23.811 61.195,24.441C60.955,25.071 60.835,25.781 60.835,26.551L60.835,26.561Z" style="fill:white;fill-rule:nonzero;"/>
            <path d="M78.495,21.781C78.665,21.331 78.895,20.931 79.175,20.561C79.455,20.191 79.775,19.881 80.135,19.631C80.495,19.381 80.895,19.181 81.325,19.051C81.765,18.911 82.225,18.851 82.705,18.851C82.875,18.851 83.045,18.861 83.215,18.881C83.375,18.901 83.505,18.931 83.605,18.971L83.605,21.731C83.545,21.711 83.455,21.701 83.345,21.691C83.225,21.691 83.125,21.671 83.025,21.671C81.665,21.671 80.585,22.121 79.765,23.011C78.955,23.901 78.545,25.101 78.545,26.621L78.545,33.921L75.725,33.921L75.725,19.201L78.485,19.201L78.485,21.791L78.495,21.781Z" style="fill:white;fill-rule:nonzero;"/>
            <path d="M94.875,19.441C95.805,19.841 96.615,20.381 97.295,21.071C97.975,21.761 98.505,22.571 98.895,23.511C99.285,24.451 99.475,25.461 99.475,26.551C99.475,27.641 99.285,28.651 98.895,29.591C98.505,30.531 97.975,31.351 97.295,32.031C96.615,32.721 95.815,33.261 94.875,33.661C93.945,34.061 92.935,34.261 91.845,34.261C90.755,34.261 89.755,34.061 88.815,33.661C87.885,33.261 87.075,32.721 86.395,32.031C85.715,31.341 85.185,30.531 84.795,29.591C84.405,28.651 84.215,27.641 84.215,26.551C84.215,25.461 84.405,24.451 84.795,23.511C85.185,22.571 85.715,21.751 86.395,21.071C87.075,20.381 87.875,19.841 88.815,19.441C89.745,19.041 90.755,18.841 91.845,18.841C92.935,18.841 93.935,19.041 94.875,19.441ZM89.925,21.931C89.345,22.201 88.845,22.561 88.425,23.021C88.005,23.481 87.685,24.011 87.445,24.621C87.205,25.231 87.095,25.881 87.095,26.561C87.095,27.241 87.215,27.881 87.445,28.501C87.675,29.121 88.005,29.651 88.425,30.101C88.845,30.561 89.345,30.921 89.925,31.191C90.505,31.461 91.145,31.601 91.845,31.601C92.545,31.601 93.185,31.461 93.765,31.191C94.345,30.921 94.845,30.561 95.265,30.101C95.685,29.641 96.005,29.111 96.245,28.501C96.485,27.891 96.595,27.241 96.595,26.561C96.595,25.881 96.475,25.241 96.245,24.621C96.015,24.001 95.685,23.471 95.265,23.021C94.845,22.571 94.345,22.201 93.765,21.931C93.185,21.661 92.545,21.521 91.845,21.521C91.145,21.521 90.505,21.661 89.925,21.931Z" style="fill:white;fill-rule:nonzero;"/>
            <path d="M112.375,33.441C111.315,33.991 110.135,34.271 108.845,34.271C107.775,34.271 106.775,34.071 105.845,33.671C104.915,33.271 104.095,32.731 103.405,32.021C102.705,31.321 102.155,30.501 101.755,29.561C101.355,28.621 101.155,27.611 101.155,26.521C101.155,25.431 101.355,24.431 101.755,23.491C102.155,22.561 102.695,21.751 103.405,21.061C104.105,20.371 104.915,19.831 105.845,19.431C106.775,19.031 107.775,18.831 108.845,18.831C110.165,18.831 111.305,19.111 112.275,19.661C113.245,20.211 114.055,20.961 114.715,21.921L112.855,23.721C112.405,23.061 111.845,22.521 111.165,22.091C110.485,21.661 109.705,21.451 108.805,21.451C108.105,21.451 107.465,21.581 106.885,21.841C106.305,22.101 105.805,22.461 105.385,22.921C104.965,23.381 104.635,23.911 104.395,24.531C104.155,25.151 104.035,25.821 104.035,26.541C104.035,27.261 104.155,27.931 104.395,28.551C104.635,29.171 104.965,29.711 105.385,30.161C105.805,30.621 106.305,30.971 106.885,31.241C107.465,31.511 108.095,31.631 108.775,31.631C109.705,31.631 110.535,31.431 111.265,31.021C111.995,30.611 112.585,30.071 113.055,29.391L114.945,31.171C114.285,32.121 113.425,32.881 112.375,33.431L112.375,33.441Z" style="fill:white;fill-rule:nonzero;"/>
            <path d="M126.315,19.381C127.155,19.741 127.875,20.231 128.465,20.851C129.055,21.471 129.505,22.191 129.815,23.021C130.125,23.851 130.275,24.731 130.275,25.681C130.275,25.951 130.255,26.231 130.235,26.511C130.205,26.791 130.175,27.051 130.135,27.281L118.995,27.281C119.055,27.981 119.225,28.601 119.515,29.141C119.805,29.681 120.175,30.141 120.625,30.521C121.075,30.901 121.585,31.191 122.155,31.381C122.725,31.571 123.335,31.671 123.975,31.671C124.845,31.671 125.635,31.501 126.335,31.161C127.035,30.821 127.635,30.371 128.135,29.811L129.855,31.791C129.025,32.641 128.115,33.271 127.145,33.671C126.175,34.071 125.095,34.271 123.915,34.271C122.735,34.271 121.655,34.071 120.685,33.671C119.715,33.271 118.885,32.731 118.195,32.041C117.505,31.351 116.975,30.541 116.595,29.611C116.215,28.681 116.025,27.671 116.025,26.581C116.025,25.491 116.205,24.481 116.565,23.541C116.925,22.601 117.435,21.781 118.095,21.081C118.755,20.381 119.535,19.831 120.455,19.431C121.365,19.031 122.375,18.831 123.485,18.831C124.535,18.831 125.475,19.011 126.325,19.371L126.315,19.381ZM121.925,21.621C121.425,21.791 120.995,22.021 120.615,22.331C120.235,22.641 119.915,23.021 119.655,23.461C119.395,23.911 119.205,24.411 119.085,24.971L127.525,24.971L127.525,24.941C127.465,24.401 127.325,23.901 127.105,23.461C126.885,23.011 126.595,22.641 126.245,22.331C125.895,22.021 125.485,21.781 125.025,21.621C124.565,21.461 124.055,21.371 123.515,21.371C122.945,21.371 122.425,21.451 121.925,21.611L121.925,21.621Z" style="fill:white;fill-rule:nonzero;"/>
            <path d="M135.705,34.041C135.125,33.891 134.575,33.671 134.075,33.391C133.575,33.111 133.115,32.771 132.725,32.371C132.325,31.971 132.005,31.521 131.745,31.021L133.815,29.541C134.045,29.891 134.295,30.201 134.545,30.471C134.795,30.741 135.075,30.971 135.385,31.171C135.695,31.361 136.025,31.511 136.375,31.621C136.725,31.731 137.105,31.781 137.505,31.781C137.905,31.781 138.315,31.741 138.635,31.661C138.955,31.581 139.245,31.471 139.475,31.331C139.705,31.191 139.885,31.011 140.015,30.811C140.145,30.611 140.205,30.381 140.205,30.131C140.205,29.861 140.165,29.621 140.075,29.421C139.985,29.221 139.825,29.021 139.575,28.841C139.335,28.661 138.995,28.471 138.575,28.291C138.145,28.111 137.595,27.911 136.915,27.691C136.155,27.461 135.495,27.201 134.925,26.921C134.355,26.641 133.875,26.321 133.485,25.961C133.095,25.601 132.805,25.191 132.615,24.721C132.425,24.261 132.325,23.721 132.325,23.121C132.325,22.561 132.455,22.021 132.715,21.511C132.975,21.001 133.345,20.551 133.805,20.161C134.265,19.771 134.825,19.461 135.475,19.231C136.125,19.001 136.825,18.881 137.585,18.881C138.165,18.881 138.715,18.941 139.235,19.071C139.745,19.201 140.215,19.391 140.645,19.641C141.075,19.891 141.455,20.191 141.795,20.541C142.135,20.891 142.425,21.291 142.685,21.731L140.645,23.241C140.475,22.951 140.275,22.691 140.045,22.451C139.825,22.221 139.585,22.021 139.315,21.851C139.045,21.681 138.775,21.561 138.475,21.471C138.175,21.381 137.845,21.341 137.475,21.341C137.125,21.341 136.805,21.381 136.495,21.471C136.195,21.561 135.945,21.671 135.735,21.821C135.535,21.971 135.375,22.151 135.255,22.361C135.135,22.571 135.085,22.811 135.085,23.061C135.085,23.291 135.135,23.501 135.235,23.691C135.335,23.881 135.495,24.051 135.735,24.231C135.975,24.411 136.275,24.581 136.665,24.751C137.055,24.921 137.535,25.111 138.125,25.301C138.935,25.571 139.645,25.861 140.255,26.161C140.855,26.461 141.365,26.791 141.765,27.161C142.165,27.531 142.475,27.951 142.685,28.411C142.885,28.871 142.995,29.431 142.995,30.071C142.995,30.671 142.855,31.231 142.585,31.741C142.315,32.251 141.935,32.701 141.465,33.081C140.985,33.461 140.415,33.751 139.745,33.971C139.075,34.181 138.345,34.291 137.545,34.291C136.895,34.291 136.285,34.201 135.705,34.051L135.705,34.041Z" style="fill:white;fill-rule:nonzero;"/>
            <path d="M148.415,34.041C147.835,33.891 147.285,33.671 146.785,33.391C146.285,33.111 145.825,32.771 145.435,32.371C145.035,31.971 144.715,31.521 144.455,31.021L146.525,29.541C146.755,29.891 147.005,30.201 147.255,30.471C147.505,30.741 147.785,30.971 148.095,31.171C148.405,31.361 148.735,31.511 149.085,31.621C149.435,31.731 149.815,31.781 150.215,31.781C150.615,31.781 151.025,31.741 151.345,31.661C151.665,31.581 151.955,31.471 152.185,31.331C152.415,31.191 152.595,31.011 152.725,30.811C152.855,30.611 152.915,30.381 152.915,30.131C152.915,29.861 152.875,29.621 152.785,29.421C152.695,29.221 152.535,29.021 152.285,28.841C152.045,28.661 151.705,28.471 151.285,28.291C150.855,28.111 150.305,27.911 149.625,27.691C148.865,27.461 148.205,27.201 147.635,26.921C147.065,26.641 146.585,26.321 146.195,25.961C145.805,25.601 145.515,25.191 145.325,24.721C145.135,24.261 145.035,23.721 145.035,23.121C145.035,22.561 145.165,22.021 145.425,21.511C145.685,21.001 146.055,20.551 146.515,20.161C146.975,19.771 147.535,19.461 148.185,19.231C148.835,19.001 149.535,18.881 150.295,18.881C150.875,18.881 151.425,18.941 151.945,19.071C152.455,19.201 152.925,19.391 153.355,19.641C153.785,19.891 154.165,20.191 154.505,20.541C154.845,20.891 155.135,21.291 155.395,21.731L153.355,23.241C153.185,22.951 152.985,22.691 152.755,22.451C152.535,22.221 152.295,22.021 152.025,21.851C151.755,21.681 151.485,21.561 151.185,21.471C150.885,21.381 150.555,21.341 150.185,21.341C149.835,21.341 149.515,21.381 149.205,21.471C148.905,21.561 148.655,21.671 148.445,21.821C148.245,21.971 148.085,22.151 147.965,22.361C147.845,22.571 147.795,22.811 147.795,23.061C147.795,23.291 147.845,23.501 147.945,23.691C148.045,23.881 148.205,24.051 148.445,24.231C148.685,24.411 148.985,24.581 149.375,24.751C149.765,24.921 150.245,25.111 150.835,25.301C151.645,25.571 152.355,25.861 152.965,26.161C153.565,26.461 154.075,26.791 154.475,27.161C154.875,27.531 155.185,27.951 155.395,28.411C155.595,28.871 155.705,29.431 155.705,30.071C155.705,30.671 155.565,31.231 155.295,31.741C155.025,32.251 154.645,32.701 154.175,33.081C153.695,33.461 153.125,33.751 152.455,33.971C151.785,34.181 151.055,34.291 150.255,34.291C149.605,34.291 148.995,34.201 148.415,34.051L148.415,34.041Z" style="fill:white;fill-rule:nonzero;"/>
            <path d="M161.305,19.201L161.305,21.411C161.515,21.021 161.765,20.671 162.065,20.361C162.355,20.051 162.695,19.781 163.095,19.561C163.495,19.341 163.935,19.161 164.435,19.041C164.935,18.921 165.475,18.851 166.085,18.851C166.695,18.851 167.215,18.921 167.735,19.051C168.245,19.191 168.725,19.381 169.165,19.651C169.605,19.911 169.985,20.231 170.325,20.611C170.665,20.991 170.955,21.421 171.185,21.901C171.535,21.381 171.895,20.921 172.265,20.531C172.635,20.141 173.035,19.831 173.455,19.591C173.885,19.351 174.345,19.161 174.855,19.041C175.365,18.921 175.915,18.851 176.515,18.851C177.345,18.851 178.115,18.991 178.815,19.271C179.515,19.551 180.115,19.951 180.615,20.481C181.115,21.011 181.515,21.651 181.795,22.421C182.075,23.191 182.215,24.051 182.215,25.031L182.215,33.931L179.395,33.931L179.395,25.141C179.395,24.521 179.305,23.981 179.115,23.531C178.925,23.071 178.685,22.691 178.375,22.381C178.065,22.071 177.695,21.841 177.265,21.681C176.835,21.531 176.395,21.451 175.925,21.451C175.165,21.451 174.525,21.611 173.985,21.931C173.445,22.251 173.025,22.651 172.705,23.141C172.385,23.631 172.155,24.161 172.005,24.751C171.855,25.341 171.785,25.911 171.785,26.451L171.785,33.931L168.965,33.931L168.965,25.141C168.965,24.521 168.875,23.981 168.685,23.531C168.495,23.071 168.255,22.691 167.945,22.381C167.635,22.071 167.265,21.841 166.835,21.681C166.405,21.531 165.965,21.451 165.495,21.451C164.735,21.451 164.095,21.611 163.555,21.931C163.015,22.251 162.595,22.651 162.275,23.141C161.955,23.631 161.725,24.161 161.575,24.751C161.425,25.341 161.355,25.911 161.355,26.451L161.355,33.931L158.535,33.931L158.535,19.211L161.305,19.211L161.305,19.201Z" style="fill:white;fill-rule:nonzero;"/>
            <path d="M193.225,22.151C192.625,21.621 191.785,21.351 190.695,21.351C190.305,21.351 189.925,21.391 189.545,21.481C189.165,21.571 188.805,21.691 188.455,21.841C188.105,21.991 187.775,22.191 187.465,22.441C187.155,22.681 186.865,22.951 186.595,23.241L185.135,21.381C185.505,20.951 185.905,20.591 186.325,20.271C186.755,19.961 187.205,19.701 187.695,19.481C188.175,19.271 188.695,19.111 189.235,19.001C189.775,18.891 190.345,18.841 190.955,18.841C191.865,18.841 192.695,18.971 193.425,19.231C194.165,19.491 194.795,19.871 195.315,20.361C195.835,20.861 196.245,21.451 196.525,22.151C196.805,22.851 196.945,23.631 196.945,24.511L196.945,33.911L194.325,33.911L194.325,31.641C193.805,32.511 193.125,33.171 192.305,33.601C191.485,34.031 190.555,34.251 189.525,34.251C188.845,34.251 188.215,34.141 187.635,33.931C187.055,33.721 186.545,33.421 186.125,33.041C185.695,32.661 185.365,32.211 185.125,31.691C184.885,31.171 184.765,30.601 184.765,30.001C184.765,28.841 185.165,27.891 185.975,27.151C186.785,26.411 187.965,25.891 189.535,25.581L194.135,24.681L194.135,24.391C194.135,23.421 193.835,22.671 193.235,22.141L193.225,22.151ZM191.665,31.551C192.175,31.331 192.625,31.031 193.005,30.651C193.385,30.271 193.685,29.841 193.905,29.361C194.125,28.881 194.235,28.371 194.235,27.851L194.235,26.921L190.015,27.731C189.125,27.901 188.485,28.161 188.095,28.501C187.705,28.841 187.515,29.291 187.515,29.851C187.515,30.141 187.575,30.411 187.705,30.661C187.835,30.911 187.995,31.131 188.215,31.311C188.425,31.501 188.685,31.641 188.985,31.731C189.285,31.831 189.615,31.881 189.985,31.881C190.585,31.881 191.145,31.771 191.665,31.551Z" style="fill:white;fill-rule:nonzero;"/>
            <path d="M200.645,33.921L200.645,13.371L203.465,13.371L203.465,26.261L209.635,19.191L213.015,19.191L207.805,25.361L213.535,33.911L210.275,33.911L205.905,27.131L203.465,29.981L203.465,33.911L200.645,33.911L200.645,33.921Z" style="fill:white;fill-rule:nonzero;"/>
            <path d="M223.965,19.381C224.805,19.741 225.525,20.231 226.115,20.851C226.705,21.471 227.155,22.191 227.465,23.021C227.775,23.841 227.925,24.731 227.925,25.681C227.925,25.951 227.905,26.231 227.885,26.511C227.855,26.791 227.825,27.051 227.785,27.281L216.645,27.281C216.705,27.981 216.875,28.601 217.165,29.141C217.455,29.681 217.825,30.141 218.275,30.521C218.725,30.901 219.235,31.191 219.805,31.381C220.375,31.571 220.985,31.671 221.625,31.671C222.495,31.671 223.285,31.501 223.985,31.161C224.685,30.821 225.285,30.371 225.785,29.811L227.505,31.791C226.675,32.641 225.765,33.271 224.795,33.671C223.825,34.071 222.745,34.271 221.565,34.271C220.385,34.271 219.305,34.071 218.335,33.671C217.365,33.271 216.535,32.731 215.845,32.041C215.155,31.351 214.625,30.541 214.245,29.611C213.865,28.681 213.675,27.671 213.675,26.581C213.675,25.491 213.855,24.481 214.215,23.541C214.575,22.601 215.085,21.781 215.745,21.081C216.405,20.381 217.185,19.831 218.105,19.431C219.015,19.031 220.025,18.831 221.135,18.831C222.185,18.831 223.125,19.011 223.975,19.371L223.965,19.381ZM219.575,21.621C219.075,21.791 218.645,22.021 218.265,22.331C217.885,22.641 217.565,23.021 217.305,23.461C217.045,23.911 216.855,24.411 216.735,24.971L225.175,24.971L225.175,24.941C225.115,24.401 224.975,23.901 224.755,23.461C224.535,23.011 224.245,22.641 223.895,22.331C223.545,22.021 223.135,21.781 222.675,21.621C222.215,21.461 221.705,21.371 221.165,21.371C220.595,21.371 220.075,21.451 219.575,21.611L219.575,21.621Z" style="fill:white;fill-rule:nonzero;"/>
            <path d="M233.525,21.781C233.695,21.331 233.925,20.931 234.205,20.561C234.485,20.191 234.805,19.881 235.165,19.631C235.525,19.381 235.925,19.181 236.355,19.051C236.795,18.911 237.255,18.851 237.735,18.851C237.905,18.851 238.075,18.861 238.245,18.881C238.405,18.901 238.535,18.931 238.635,18.971L238.635,21.731C238.575,21.711 238.485,21.701 238.375,21.691C238.255,21.691 238.155,21.671 238.055,21.671C236.695,21.671 235.615,22.121 234.795,23.011C233.985,23.901 233.575,25.101 233.575,26.621L233.575,33.921L230.755,33.921L230.755,19.201L233.515,19.201L233.515,21.791L233.525,21.781Z" style="fill:white;fill-rule:nonzero;"/>
        </g>
        <g id="icon" transform="matrix(0.629541,0,0,0.629541,-0.230545,-0.202649)">
            <path d="M40.345,31.511C39.795,31.631 39.215,31.691 38.655,31.701C36.485,31.721 34.315,31.701 32.145,31.701C32.095,31.701 32.045,31.701 31.965,31.691C32.115,31.511 32.255,31.351 32.375,31.191C33.235,30.061 33.645,28.791 33.645,27.371L33.645,8.591C33.625,5.531 32.475,2.971 30.185,0.931C30.065,0.831 29.945,0.731 29.825,0.631C29.705,0.541 29.595,0.451 29.435,0.331L29.605,0.331C31.435,0.331 33.275,0.311 35.105,0.331C40.745,0.391 45.535,4.401 46.585,9.941C46.675,10.431 46.735,10.931 46.775,11.441L46.775,23.271C46.915,27.131 44.275,30.661 40.355,31.511L40.345,31.511Z" style="fill:white;fill-rule:nonzero;"/>
            <path d="M46.735,35.171C46.675,40.811 42.665,45.601 37.125,46.651C36.635,46.741 36.135,46.801 35.625,46.841L23.785,46.841L22.755,46.811L15.375,46.811L15.375,33.691L19.055,33.691C19.265,33.711 19.475,33.721 19.685,33.721L38.465,33.721C41.525,33.701 44.085,32.551 46.125,30.261C46.225,30.141 46.325,30.021 46.425,29.901C46.515,29.781 46.605,29.671 46.725,29.511L46.725,29.681C46.725,31.511 46.735,33.351 46.725,35.181L46.735,35.171Z" style="fill:white;fill-rule:nonzero;"/>
            <path d="M31.545,6.851C31.665,7.401 31.725,7.981 31.735,8.541C31.755,10.711 31.735,12.881 31.735,15.051C31.735,15.101 31.735,15.151 31.725,15.231C31.545,15.081 31.385,14.941 31.225,14.821C30.095,13.961 28.825,13.551 27.405,13.551L8.635,13.551C5.575,13.571 3.015,14.721 0.975,17.011C0.875,17.131 0.775,17.251 0.675,17.371C0.585,17.491 0.495,17.601 0.375,17.761L0.375,17.591C0.375,15.761 0.355,13.921 0.375,12.091C0.435,6.461 4.445,1.661 9.975,0.621C10.465,0.531 10.965,0.471 11.475,0.431L23.305,0.431C27.165,0.291 30.695,2.931 31.545,6.851Z" style="fill:white;fill-rule:nonzero;"/>
            <path d="M13.545,19.681L13.545,39.921C13.545,40.181 13.555,40.421 13.575,40.671L13.575,45.761C13.585,46.101 13.575,46.451 13.545,46.791C13.525,47.061 13.485,47.321 13.435,47.581C13.395,47.781 13.345,47.981 13.295,48.181C12.525,51.011 10.225,53.331 7.145,53.991C6.595,54.111 6.015,54.171 5.455,54.181L5.085,54.181C3.555,54.191 2.025,54.181 0.495,54.181L0.495,42.601L0.465,42.601L0.465,29.351C0.465,29.131 0.455,28.911 0.455,28.911L0.455,23.801C0.375,21.651 1.155,19.601 2.545,18.061C3.645,16.831 5.135,15.921 6.885,15.541C7.435,15.421 8.015,15.361 8.575,15.351C10.745,15.331 12.915,15.351 15.085,15.351C15.135,15.351 15.185,15.351 15.265,15.361C15.115,15.541 14.975,15.701 14.855,15.871C14.015,16.981 13.595,18.231 13.585,19.611L13.585,19.691L13.545,19.681Z" style="fill:white;fill-rule:nonzero;"/>
            <path d="M24.345,33.681L24.345,33.711L19.675,33.711C19.465,33.711 19.245,33.711 19.045,33.681L24.345,33.681Z" style="fill:white;fill-rule:nonzero;"/>
        </g>
    </g>
</svg>
