<svg id="Layer_1" data-name="Layer 1" xmlns="http://www.w3.org/2000/svg" viewBox="0 0 150 40"><defs><style>.cls-1{fill:#fff;}</style></defs><g id="Iz0nnH.tif"><path class="cls-1" d="M6,13.36c0-.08,0-.17.07-.26a2,2,0,0,1,2-1.5h5.83l-.1.17a3.55,3.55,0,0,0-.67,2.13q0,9,0,18a4.82,4.82,0,0,1-3.25,4.65,4.9,4.9,0,0,1-1.31.25c-.84,0-1.69,0-2.53,0Z"/><path class="cls-1" d="M34.15,24.35c0,.34-.09.67-.14,1a7.27,7.27,0,0,1-6.27,5.92,7.87,7.87,0,0,1-.84,0H14.42V24.24H32.05A3.45,3.45,0,0,0,34,23.71a.48.48,0,0,1,.17-.05Z"/><path class="cls-1" d="M23.67,3.21a2.93,2.93,0,0,1,1.21.57,2.35,2.35,0,0,1,.85,1.76c0,1.79,0,3.57,0,5.36a1,1,0,0,1,0,.15,3.52,3.52,0,0,0-1.43-.66,5.49,5.49,0,0,0-.9-.09H8.13A3.68,3.68,0,0,0,6,11V10l.09-.57a7.19,7.19,0,0,1,5.39-6c.4-.09.8-.15,1.2-.22Z"/><path class="cls-1" d="M34.15,21.15a5.13,5.13,0,0,1-.27.78,1.76,1.76,0,0,1-1.59,1h-6c0-.07.06-.12.09-.16A3.5,3.5,0,0,0,27,20.67q0-7.46,0-14.91a3.81,3.81,0,0,0-.81-2.43.75.75,0,0,1-.07-.12h1.07l.49.08A7.51,7.51,0,0,1,34,9.4c.05.33.09.66.14,1Z"/></g><path class="cls-1" d="M43,11.9h1.65v1.3a2.86,2.86,0,0,1,2.6-1.43c2,0,3.18,1.37,3.18,4.16V20.4c0,2.49-1.19,3.79-3.18,3.79a2.64,2.64,0,0,1-2.52-1.37v5.33H43Zm5.7,8.39V15.7c0-1.59-.74-2.45-2-2.45s-2,.82-2,2.38v4.66c0,1.58.74,2.4,2,2.4S48.67,21.87,48.67,20.29Z"/><path class="cls-1" d="M52.74,11.9h1.65v1.54a2.38,2.38,0,0,1,2.82-1.67v1.74c-2-.22-2.73,1-2.73,3.57v7H52.74Z"/><path class="cls-1" d="M58.18,20.27v-4.6c0-2.36,1.35-3.9,3.71-3.9s3.7,1.54,3.7,3.9v4.6c0,2.45-1.38,4-3.7,4S58.18,22.72,58.18,20.27Zm5.68.24v-5a2,2,0,1,0-4,0v5a2,2,0,1,0,4,0Z"/><path class="cls-1" d="M67.44,20.27v-4.6c0-2.36,1.34-3.92,3.7-3.92s3.71,1.5,3.71,3.9v.13H73.11v-.11c0-1.51-.65-2.31-2-2.31a1.88,1.88,0,0,0-2,2.12v5a1.9,1.9,0,0,0,2,2.14c1.24,0,2-.78,2-2.3v-.13h1.74v.13c0,2.41-1.39,3.88-3.71,3.88S67.44,22.72,67.44,20.27Z"/><path class="cls-1" d="M76.52,20.22V15.63c0-2.36,1.34-3.9,3.7-3.9s3.71,1.54,3.71,3.9v2.93h-5.7v1.62c0,1.58.67,2.56,2,2.56a1.81,1.81,0,0,0,2-1.82v-.39h1.74v.19a3.4,3.4,0,0,1-3.71,3.51C77.86,24.23,76.52,22.67,76.52,20.22Zm5.67-2.94V15.41a1.93,1.93,0,0,0-2-2.16,1.9,1.9,0,0,0-2,2.14v1.89Z"/><path class="cls-1" d="M85.47,20.57H87.2a2,2,0,0,0,2.06,2.17A1.82,1.82,0,0,0,91.19,21c0-1.28-1-1.84-2.19-2.4-1.52-.74-3.27-1.46-3.27-3.64a3.14,3.14,0,0,1,3.44-3.19c2.39,0,3.64,1.34,3.64,3.66H91.14c0-1.45-.75-2.08-1.92-2.08a1.6,1.6,0,0,0-1.8,1.58c0,1.15,1,1.65,2.23,2.21,1.52.7,3.25,1.48,3.25,3.77a3.29,3.29,0,0,1-3.64,3.36A3.46,3.46,0,0,1,85.47,20.57Z"/><path class="cls-1" d="M94.31,20.57H96a2,2,0,0,0,2.06,2.17A1.82,1.82,0,0,0,100,21c0-1.28-1-1.84-2.19-2.4-1.52-.74-3.27-1.46-3.27-3.64A3.15,3.15,0,0,1,98,11.73c2.39,0,3.64,1.34,3.64,3.66H100c0-1.45-.76-2.08-1.93-2.08a1.6,1.6,0,0,0-1.8,1.58c0,1.15,1,1.65,2.23,2.21,1.52.7,3.25,1.48,3.25,3.77a3.29,3.29,0,0,1-3.64,3.36A3.46,3.46,0,0,1,94.31,20.57Z"/><path class="cls-1" d="M103.82,11.9h1.65V13a2.43,2.43,0,0,1,2.19-1.22,2.53,2.53,0,0,1,2.42,1.54,2.77,2.77,0,0,1,2.56-1.54c1.93,0,2.69,1.43,2.69,4v8.34h-1.74V15.52c0-1.43-.32-2.21-1.45-2.21s-1.69.74-1.69,2.15v8.6h-1.73V15.52c0-1.49-.39-2.34-1.58-2.34-1,0-1.58.7-1.58,2.06v8.82h-1.74Z"/><path class="cls-1" d="M117.45,20.4V15.54c0-2.53,1.26-3.79,3.17-3.79a2.92,2.92,0,0,1,2.62,1.41V11.9h1.62V24.06h-1.62V22.8a2.91,2.91,0,0,1-2.62,1.43C118.67,24.23,117.45,22.93,117.45,20.4Zm5.68-.11v-4.7c0-1.56-.76-2.36-2-2.36s-2,.84-2,2.42v4.64c0,1.62.71,2.45,2,2.45S123.13,21.89,123.13,20.29Z"/><path class="cls-1" d="M127.36,7.7h1.75v9.47H130l2.82-5.27h2l-3.38,6,3.4,6.18h-2L130,18.64h-.87v5.42h-1.75Z"/><path class="cls-1" d="M135.66,20.22V15.63c0-2.36,1.34-3.9,3.7-3.9s3.71,1.54,3.71,3.9v2.93h-5.7v1.62c0,1.58.67,2.56,2,2.56a1.81,1.81,0,0,0,2-1.82v-.39h1.74v.19a3.4,3.4,0,0,1-3.71,3.51C137,24.23,135.66,22.67,135.66,20.22Zm5.67-2.94V15.41a1.93,1.93,0,0,0-2-2.16,1.9,1.9,0,0,0-2,2.14v1.89Z"/><path class="cls-1" d="M145.28,11.9h1.65v1.54a2.36,2.36,0,0,1,2.81-1.67v1.74c-2-.22-2.73,1-2.73,3.57v7h-1.73Z"/></svg>