<?xml version="1.0" encoding="UTF-8" standalone="no"?>
<!DOCTYPE svg PUBLIC "-//W3C//DTD SVG 1.1//EN" "http://www.w3.org/Graphics/SVG/1.1/DTD/svg11.dtd">
<svg width="100%" height="100%" viewBox="0 0 40 40" version="1.1" xmlns="http://www.w3.org/2000/svg" xmlns:xlink="http://www.w3.org/1999/xlink" xml:space="preserve" xmlns:serif="http://www.serif.com/" style="fill-rule:evenodd;clip-rule:evenodd;stroke-linejoin:round;stroke-miterlimit:2;">
    <g id="processmaker-icon" transform="matrix(1.19073,0,0,0.998099,-1.04007,4.13069)">
        <rect x="0.873" y="-4.139" width="33.593" height="40.076" style="fill:none;"/>
    </g>
    <g id="White" transform="matrix(0.959598,0,0,0.959598,6.06032,3.73041)">
        <g id="text" transform="matrix(0.629541,0,0,0.629541,-0.230545,-0.202649)">
            <path d="M58.185,19.201L60.895,19.201L60.895,21.351C61.125,21.001 61.425,20.671 61.785,20.361C62.145,20.051 62.545,19.781 62.975,19.561C63.415,19.341 63.875,19.161 64.375,19.041C64.875,18.921 65.365,18.851 65.875,18.851C66.865,18.851 67.785,19.041 68.625,19.421C69.465,19.801 70.205,20.331 70.835,21.021C71.465,21.711 71.965,22.521 72.315,23.461C72.675,24.401 72.855,25.431 72.855,26.561C72.855,27.691 72.675,28.721 72.315,29.661C71.955,30.601 71.465,31.411 70.835,32.091C70.205,32.771 69.465,33.301 68.625,33.691C67.785,34.081 66.865,34.271 65.875,34.271C65.395,34.271 64.905,34.211 64.415,34.101C63.925,33.991 63.475,33.821 63.035,33.601C62.595,33.391 62.205,33.141 61.855,32.841C61.505,32.551 61.225,32.241 61.015,31.911L61.015,39.741L58.195,39.741L58.195,19.201L58.185,19.201ZM60.835,26.561C60.835,27.321 60.955,28.011 61.195,28.641C61.435,29.271 61.775,29.811 62.195,30.271C62.625,30.731 63.115,31.081 63.665,31.321C64.215,31.561 64.795,31.681 65.395,31.681C65.995,31.681 66.605,31.561 67.155,31.321C67.705,31.081 68.195,30.731 68.615,30.271C69.035,29.811 69.365,29.271 69.615,28.641C69.865,28.011 69.995,27.321 69.995,26.561C69.995,25.801 69.865,25.111 69.615,24.481C69.365,23.851 69.025,23.311 68.615,22.851C68.205,22.391 67.715,22.041 67.155,21.801C66.605,21.561 66.015,21.441 65.395,21.441C64.775,21.441 64.215,21.561 63.665,21.801C63.115,22.041 62.625,22.391 62.195,22.831C61.765,23.281 61.435,23.811 61.195,24.441C60.955,25.071 60.835,25.781 60.835,26.551L60.835,26.561Z" style="fill:white;fill-rule:nonzero;"/>
        </g>
        <g id="icon" transform="matrix(0.629541,0,0,0.629541,-0.230545,-0.202649)">
            <path d="M40.345,31.511C39.795,31.631 39.215,31.691 38.655,31.701C36.485,31.721 34.315,31.701 32.145,31.701C32.095,31.701 32.045,31.701 31.965,31.691C32.115,31.511 32.255,31.351 32.375,31.191C33.235,30.061 33.645,28.791 33.645,27.371L33.645,8.591C33.625,5.531 32.475,2.971 30.185,0.931C30.065,0.831 29.945,0.731 29.825,0.631C29.705,0.541 29.595,0.451 29.435,0.331L29.605,0.331C31.435,0.331 33.275,0.311 35.105,0.331C40.745,0.391 45.535,4.401 46.585,9.941C46.675,10.431 46.735,10.931 46.775,11.441L46.775,23.271C46.915,27.131 44.275,30.661 40.355,31.511L40.345,31.511Z" style="fill:white;fill-rule:nonzero;"/>
            <path d="M46.735,35.171C46.675,40.811 42.665,45.601 37.125,46.651C36.635,46.741 36.135,46.801 35.625,46.841L23.785,46.841L22.755,46.811L15.375,46.811L15.375,33.691L19.055,33.691C19.265,33.711 19.475,33.721 19.685,33.721L38.465,33.721C41.525,33.701 44.085,32.551 46.125,30.261C46.225,30.141 46.325,30.021 46.425,29.901C46.515,29.781 46.605,29.671 46.725,29.511L46.725,29.681C46.725,31.511 46.735,33.351 46.725,35.181L46.735,35.171Z" style="fill:white;fill-rule:nonzero;"/>
            <path d="M31.545,6.851C31.665,7.401 31.725,7.981 31.735,8.541C31.755,10.711 31.735,12.881 31.735,15.051C31.735,15.101 31.735,15.151 31.725,15.231C31.545,15.081 31.385,14.941 31.225,14.821C30.095,13.961 28.825,13.551 27.405,13.551L8.635,13.551C5.575,13.571 3.015,14.721 0.975,17.011C0.875,17.131 0.775,17.251 0.675,17.371C0.585,17.491 0.495,17.601 0.375,17.761L0.375,17.591C0.375,15.761 0.355,13.921 0.375,12.091C0.435,6.461 4.445,1.661 9.975,0.621C10.465,0.531 10.965,0.471 11.475,0.431L23.305,0.431C27.165,0.291 30.695,2.931 31.545,6.851Z" style="fill:white;fill-rule:nonzero;"/>
            <path d="M13.545,19.681L13.545,39.921C13.545,40.181 13.555,40.421 13.575,40.671L13.575,45.761C13.585,46.101 13.575,46.451 13.545,46.791C13.525,47.061 13.485,47.321 13.435,47.581C13.395,47.781 13.345,47.981 13.295,48.181C12.525,51.011 10.225,53.331 7.145,53.991C6.595,54.111 6.015,54.171 5.455,54.181L5.085,54.181C3.555,54.191 2.025,54.181 0.495,54.181L0.495,42.601L0.465,42.601L0.465,29.351C0.465,29.131 0.455,28.911 0.455,28.911L0.455,23.801C0.375,21.651 1.155,19.601 2.545,18.061C3.645,16.831 5.135,15.921 6.885,15.541C7.435,15.421 8.015,15.361 8.575,15.351C10.745,15.331 12.915,15.351 15.085,15.351C15.135,15.351 15.185,15.351 15.265,15.361C15.115,15.541 14.975,15.701 14.855,15.871C14.015,16.981 13.595,18.231 13.585,19.611L13.585,19.691L13.545,19.681Z" style="fill:white;fill-rule:nonzero;"/>
            <path d="M24.345,33.681L24.345,33.711L19.675,33.711C19.465,33.711 19.245,33.711 19.045,33.681L24.345,33.681Z" style="fill:white;fill-rule:nonzero;"/>
        </g>
    </g>
</svg>
