<svg id="processmaker-logo" data-name="ProcessMaker Logo" xmlns="http://www.w3.org/2000/svg" viewBox="0 0 150 40"><defs><style>.cls-1{fill:#fff;}</style></defs><path class="cls-1" d="M20.35,2.77a17.21,17.21,0,0,0-10.46,31V19.36a10.36,10.36,0,0,1,20.7.4A10.21,10.21,0,0,1,20.35,30a8.67,8.67,0,0,1-2.64-.37V25.37a5.55,5.55,0,0,0,2.63.62,6.15,6.15,0,1,0-.07-12.29A6.23,6.23,0,0,0,14,19.88V36A17.25,17.25,0,1,0,20.35,2.77Z"/><path class="cls-1" d="M47.42,13.19a3.63,3.63,0,0,1,1.46.3,3.94,3.94,0,0,1,1.22.81,3.81,3.81,0,0,1,.83,1.19,3.63,3.63,0,0,1,.3,1.46,3.71,3.71,0,0,1-.3,1.49,3.94,3.94,0,0,1-.83,1.22,3.87,3.87,0,0,1-1.21.82,3.6,3.6,0,0,1-1.46.3H45.6a.1.1,0,0,0-.11.11V25a.24.24,0,0,1-.24.24H43.67a.22.22,0,0,1-.17-.07.31.31,0,0,1-.07-.17V13.43a.28.28,0,0,1,.07-.16.23.23,0,0,1,.17-.08Zm-.16,5.65A2,2,0,0,0,48,18.7a1.78,1.78,0,0,0,.6-.41,2,2,0,0,0,.42-.6,1.86,1.86,0,0,0,.15-.75,1.71,1.71,0,0,0-.15-.71,1.92,1.92,0,0,0-.42-.56,2,2,0,0,0-.6-.36,1.78,1.78,0,0,0-.72-.14H45.6c-.07,0-.11,0-.11.1v3.47c0,.07,0,.1.11.1Z"/><path class="cls-1" d="M52.64,17.37a.25.25,0,0,1,.08-.18.27.27,0,0,1,.16-.06h.86c.15,0,.23.05.24.17l0,.31a1.79,1.79,0,0,1,0,.23.93.93,0,0,1,0,.13c0,.1.07.12.14.05a2.49,2.49,0,0,1,.28-.34,2.22,2.22,0,0,1,.43-.36,2.53,2.53,0,0,1,.55-.26,2,2,0,0,1,.66-.11,3.89,3.89,0,0,1,.47,0,1.85,1.85,0,0,1,.45.11.86.86,0,0,1,.31.19.2.2,0,0,1,0,.25l-.63,1.13c-.07.12-.21.14-.42.07a1.17,1.17,0,0,0-.76,0,1.36,1.36,0,0,0-.56.38,1.6,1.6,0,0,0-.33.6,2,2,0,0,0-.11.67V25q0,.24-.33.24H52.88a.23.23,0,0,1-.16-.07.27.27,0,0,1-.08-.17Z"/><path class="cls-1" d="M65,18.82a2.74,2.74,0,0,1,.51,1,4.12,4.12,0,0,1-.09,3,4,4,0,0,1-.89,1.31,4.37,4.37,0,0,1-1.33.89,4.28,4.28,0,0,1-1.64.32A3.56,3.56,0,0,1,60.05,25a4.21,4.21,0,0,1-1.24-.89A4.55,4.55,0,0,1,58,22.81a4.2,4.2,0,0,1,1.62-5.18,3.85,3.85,0,0,1,1.9-.57,3.89,3.89,0,0,1,2.06.49A5.84,5.84,0,0,1,65,18.89c.11.16-1.38,1.39-1.43,1.3a2.36,2.36,0,0,0-1.11-1.06,2.5,2.5,0,0,0-.94-.17,1.86,1.86,0,0,0-.79.17,2.11,2.11,0,0,0-.63.48,2.24,2.24,0,0,0-.41.71,2.52,2.52,0,0,0-.14.87,2.28,2.28,0,0,0,.55,1.59,1.83,1.83,0,0,0,1.42.63,2.44,2.44,0,0,0,.9-.16,2.13,2.13,0,0,0,.73-.47,2.16,2.16,0,0,0,.67-1.59,2.08,2.08,0,0,0-.09-.6,3,3,0,0,0-.24-.55.37.37,0,0,1,.12-.49l1-.93C64.69,18.56,64.9,18.77,65,18.82Z"/><path class="cls-1" d="M72.81,24.44a.25.25,0,0,1,0,.27.41.41,0,0,1-.2.19,4.27,4.27,0,0,1-.81.3,3.85,3.85,0,0,1-1.08.13A3.48,3.48,0,0,1,69.31,25a4.08,4.08,0,0,1-1.24-.89,4.25,4.25,0,0,1-1.17-2.93h0v0a4.13,4.13,0,0,1,.32-1.61,4.22,4.22,0,0,1,.85-1.32,4.05,4.05,0,0,1,1.24-.88A3.34,3.34,0,0,1,70.76,17a4.5,4.5,0,0,1,1.89.43l.17.15a.2.2,0,0,1,0,.23L72.22,19a.45.45,0,0,1-.23.2.28.28,0,0,1-.28,0,2.55,2.55,0,0,0-.95-.17,1.84,1.84,0,0,0-.77.17,2,2,0,0,0-.62.48,2.35,2.35,0,0,0-.43.7,2.6,2.6,0,0,0,0,1.74,2.28,2.28,0,0,0,.43.71,1.89,1.89,0,0,0,.62.46,1.7,1.7,0,0,0,.77.17,2.37,2.37,0,0,0,.95-.17.28.28,0,0,1,.28,0,.43.43,0,0,1,.23.19Z"/><path class="cls-1" d="M77.6,17.07a4.18,4.18,0,0,1,1.57.3,3.88,3.88,0,0,1,1.3.88,4,4,0,0,1,.85,1.43,5.65,5.65,0,0,1,.26,2,.48.48,0,0,1,0,.24.29.29,0,0,1-.22.06c-1,0-1.88,0-2.68,0H75.56l0,0v0a2.6,2.6,0,0,0,.13.32,2,2,0,0,0,.35.51,2.52,2.52,0,0,0,1.63.8,3.6,3.6,0,0,0,.93,0,3.51,3.51,0,0,0,.73-.2,2.63,2.63,0,0,0,.55-.31,4.74,4.74,0,0,0,.39-.35.11.11,0,0,1,.15,0l.93.79a.26.26,0,0,1,.07.12.13.13,0,0,1,0,.1,5.21,5.21,0,0,1-.42.43,3.54,3.54,0,0,1-.74.54,4.85,4.85,0,0,1-1.09.43,5,5,0,0,1-1.46.17A4,4,0,0,1,76.06,25a4.27,4.27,0,0,1-1.29-.9,4.2,4.2,0,0,1-.88-1.3,4,4,0,0,1-.33-1.61,4.19,4.19,0,0,1,1.19-2.93A4,4,0,0,1,76,17.4,3.77,3.77,0,0,1,77.6,17.07Zm2.14,3.25s0,0,0-.05a4,4,0,0,0-.23-.47,2.05,2.05,0,0,0-.39-.5,2.28,2.28,0,0,0-.62-.4,2.18,2.18,0,0,0-.89-.16,1.93,1.93,0,0,0-.9.2,2,2,0,0,0-.6.45,1.93,1.93,0,0,0-.34.52,2.85,2.85,0,0,0-.15.36v.05a.05.05,0,0,0,0,0h4S79.74,20.33,79.74,20.32Z"/><path class="cls-1" d="M86.61,20.18c.48.08.93.17,1.34.28a3.75,3.75,0,0,1,1.08.43,2,2,0,0,1,.71.7A2.06,2.06,0,0,1,90,22.65a2.4,2.4,0,0,1-.25,1.06,2.35,2.35,0,0,1-.71.83,3.37,3.37,0,0,1-1.09.54,4.45,4.45,0,0,1-1.41.2,4.4,4.4,0,0,1-1.09-.14,3.48,3.48,0,0,1-1-.43,2.94,2.94,0,0,1-.75-.7,2.76,2.76,0,0,1-.49-.93.31.31,0,0,1,0-.37.36.36,0,0,1,.33-.16h1.21a.43.43,0,0,1,.35.16,1.49,1.49,0,0,0,.68.58,2.2,2.2,0,0,0,.78.15,2.25,2.25,0,0,0,1-.17.55.55,0,0,0,.37-.5.73.73,0,0,0-.07-.3.71.71,0,0,0-.25-.23,1.85,1.85,0,0,0-.51-.18l-.82-.16c-.29,0-.61-.11-1-.2a3.76,3.76,0,0,1-1-.38,2.41,2.41,0,0,1-.77-.68,1.75,1.75,0,0,1-.31-1.08,2.26,2.26,0,0,1,.2-.91,2.41,2.41,0,0,1,.61-.82,2.82,2.82,0,0,1,1-.58A3.59,3.59,0,0,1,86.41,17a3.73,3.73,0,0,1,2,.53A3,3,0,0,1,89.65,19a.38.38,0,0,1-.07.36.25.25,0,0,1-.13.14.41.41,0,0,1-.21.05H88a.32.32,0,0,1-.19-.05.49.49,0,0,1-.18-.14,1,1,0,0,0-.48-.33,2.27,2.27,0,0,0-.74-.15,1.76,1.76,0,0,0-.55,0,.64.64,0,0,0-.32.15.54.54,0,0,0-.15.23,1.12,1.12,0,0,0,0,.24.42.42,0,0,0,.25.41A4.87,4.87,0,0,0,86.61,20.18Z"/><path class="cls-1" d="M94.48,20.18c.48.08.92.17,1.34.28a3.58,3.58,0,0,1,1.07.43,2,2,0,0,1,.71.7,2.06,2.06,0,0,1,.26,1.06,2.27,2.27,0,0,1-.25,1.06,2.43,2.43,0,0,1-.7.83,3.58,3.58,0,0,1-1.09.54,4.54,4.54,0,0,1-1.41.2,4.34,4.34,0,0,1-1.09-.14,3.48,3.48,0,0,1-1-.43,2.82,2.82,0,0,1-.76-.7,3.17,3.17,0,0,1-.49-.93.31.31,0,0,1,0-.37.36.36,0,0,1,.33-.16h1.22a.41.41,0,0,1,.34.16,1.51,1.51,0,0,0,.69.58,2.15,2.15,0,0,0,.77.15,2.25,2.25,0,0,0,1-.17.53.53,0,0,0,.37-.5.6.6,0,0,0-.07-.3.63.63,0,0,0-.25-.23,1.9,1.9,0,0,0-.5-.18l-.83-.16c-.28,0-.6-.11-1-.2a3.9,3.9,0,0,1-1-.38,2.64,2.64,0,0,1-.77-.68,1.82,1.82,0,0,1-.31-1.08,2.12,2.12,0,0,1,.21-.91,2.52,2.52,0,0,1,.6-.82,2.91,2.91,0,0,1,1-.58A3.63,3.63,0,0,1,94.27,17a3.76,3.76,0,0,1,2,.53A3.09,3.09,0,0,1,97.52,19a.41.41,0,0,1-.07.36.27.27,0,0,1-.14.14.41.41,0,0,1-.21.05H95.87a.35.35,0,0,1-.2-.05.73.73,0,0,1-.18-.14A1,1,0,0,0,95,19a2.27,2.27,0,0,0-.74-.15,1.78,1.78,0,0,0-.55,0,.68.68,0,0,0-.32.15.51.51,0,0,0-.14.23.75.75,0,0,0,0,.24.43.43,0,0,0,.25.41A5,5,0,0,0,94.48,20.18Z"/><path class="cls-1" d="M112.85,25.21h-1.59a.21.21,0,0,1-.16-.07A.34.34,0,0,1,111,25l-1-6.56a.08.08,0,0,0-.06-.09.1.1,0,0,0-.11.05l-3.11,6.84a.2.2,0,0,1-.2.13h-.31a.23.23,0,0,1-.21-.13l0-.05s0-.1-.1-.24l-.27-.6-.52-1.16-.87-1.91c-.35-.77-.78-1.73-1.28-2.88a.09.09,0,0,0-.1-.05.11.11,0,0,0-.09.09L101.66,25a.26.26,0,0,1-.08.13.2.2,0,0,1-.15.06H99.87a.24.24,0,0,1-.17-.09.2.2,0,0,1,0-.22l2-11.69a.2.2,0,0,1,.22-.19h.5a.23.23,0,0,1,.22.12l3.64,8.21c.06.1.12.1.19,0C107,20,107.55,18.84,108,17.9s.77-1.71,1-2.32.48-1.07.63-1.4l.33-.72c.07-.15.11-.24.13-.27l0,0a.23.23,0,0,1,.23-.12h.48a.2.2,0,0,1,.22.19c.25,1.47.47,2.76.67,3.87s.36,2.09.5,2.91.25,1.52.35,2.08.18,1,.25,1.39l.26,1.48C113.11,25.12,113,25.21,112.85,25.21Z"/><path class="cls-1" d="M122.44,24.78a.39.39,0,0,1-.13.31.45.45,0,0,1-.32.12h-1.13a.45.45,0,0,1-.32-.12.42.42,0,0,1-.13-.31V22.53c0-.2,0-.39,0-.55s0-.3,0-.41V21.4a2.49,2.49,0,0,0-.31-1.31,2.3,2.3,0,0,0-.88-.84,2.39,2.39,0,0,0-.85-.26,2.23,2.23,0,0,0-.86.08,2.31,2.31,0,0,0-.77.38,2.27,2.27,0,0,0-.57.66,1.9,1.9,0,0,0-.25,1.25,2.6,2.6,0,0,0,.47,1.18,2.27,2.27,0,0,0,1,.79,1.83,1.83,0,0,0,1.31.06.35.35,0,0,1,.29,0,.7.7,0,0,1,.21.21l.46,1.27c0,.1,0,.16-.12.21a4.15,4.15,0,0,1-1.79.22,4.09,4.09,0,0,1-1.58-.46,4,4,0,0,1-1.24-1,4.13,4.13,0,0,1-.77-1.37,4.25,4.25,0,0,1-.2-1.6,4.45,4.45,0,0,1,.48-1.68,4.09,4.09,0,0,1,1-1.24,4.24,4.24,0,0,1,1.43-.74,3.83,3.83,0,0,1,1.58-.15,3.18,3.18,0,0,1,1.49.57.23.23,0,0,0,.23.1c.08,0,.12-.1.12-.22a.42.42,0,0,1,.13-.31.39.39,0,0,1,.3-.14H122a.43.43,0,0,1,.32.14.42.42,0,0,1,.13.31Z"/><path class="cls-1" d="M131.73,17.24a.28.28,0,0,1,0,.25l-3.21,3.12a.16.16,0,0,0,0,.22c.28.35.57.71.86,1.09s.59.74.86,1.1.53.7.77,1l.62.81a.26.26,0,0,1,0,.24.19.19,0,0,1-.2.12h-1.8a.25.25,0,0,1-.24-.1l-3-4.09V25a.25.25,0,0,1-.07.17.23.23,0,0,1-.17.07h-1.49a.24.24,0,0,1-.18-.07.27.27,0,0,1-.08-.17V13.31a.29.29,0,0,1,.08-.18.24.24,0,0,1,.18-.07h1.49a.23.23,0,0,1,.17.07.27.27,0,0,1,.07.18v7.11l3.22-3.12a1.09,1.09,0,0,1,.17-.13.32.32,0,0,1,.2-.06h1.62A.17.17,0,0,1,131.73,17.24Z"/><path class="cls-1" d="M136.63,17.07a4.18,4.18,0,0,1,1.57.3,3.88,3.88,0,0,1,1.3.88,4,4,0,0,1,.85,1.43,5.43,5.43,0,0,1,.26,2,.39.39,0,0,1-.05.24.29.29,0,0,1-.22.06c-1,0-1.88,0-2.68,0h-3.07l0,0v0a2.6,2.6,0,0,0,.13.32,2.33,2.33,0,0,0,.35.51,2.85,2.85,0,0,0,.64.5,2.63,2.63,0,0,0,1,.3,3.6,3.6,0,0,0,.93,0,3.35,3.35,0,0,0,.73-.2,2.4,2.4,0,0,0,.55-.31,3.52,3.52,0,0,0,.39-.35.11.11,0,0,1,.15,0l.93.79a.19.19,0,0,1,.07.12.11.11,0,0,1,0,.1,5.21,5.21,0,0,1-.42.43,3.54,3.54,0,0,1-.74.54,4.85,4.85,0,0,1-1.09.43,5,5,0,0,1-1.46.17,4.08,4.08,0,0,1-1.57-.35,4.39,4.39,0,0,1-1.29-.9,4.2,4.2,0,0,1-.88-1.3,4,4,0,0,1-.32-1.61,4.13,4.13,0,0,1,1.18-2.93,4.28,4.28,0,0,1,1.29-.88A3.77,3.77,0,0,1,136.63,17.07Zm2.15,3.25a.07.07,0,0,0,0-.05,2.87,2.87,0,0,0-.23-.47,2.05,2.05,0,0,0-.39-.5,2.28,2.28,0,0,0-.62-.4,2.18,2.18,0,0,0-.89-.16,1.93,1.93,0,0,0-.9.2,2.36,2.36,0,0,0-.6.45,1.93,1.93,0,0,0-.34.52c-.08.17-.12.29-.15.36v.05l0,0h4S138.78,20.33,138.78,20.32Z"/><path class="cls-1" d="M142.23,17.37a.25.25,0,0,1,.08-.18.27.27,0,0,1,.17-.06h.85c.15,0,.23.05.24.17l0,.31a1.79,1.79,0,0,1,0,.23.93.93,0,0,1,0,.13c0,.1.07.12.14.05a2.49,2.49,0,0,1,.28-.34,2.56,2.56,0,0,1,.43-.36,2.53,2.53,0,0,1,.55-.26,2,2,0,0,1,.66-.11,4.23,4.23,0,0,1,.48,0,1.89,1.89,0,0,1,.44.11.78.78,0,0,1,.31.19.19.19,0,0,1,0,.25l-.63,1.13c-.07.12-.21.14-.41.07a1.2,1.2,0,0,0-.77,0,1.36,1.36,0,0,0-.56.38,1.75,1.75,0,0,0-.33.6,2.29,2.29,0,0,0-.11.67V25q0,.24-.33.24h-1.35a.23.23,0,0,1-.17-.07.27.27,0,0,1-.08-.17Z"/></svg>
