<svg id="Layer_1" data-name="Layer 1" xmlns="http://www.w3.org/2000/svg" xmlns:xlink="http://www.w3.org/1999/xlink" viewBox="0 0 223 52"><defs><style>.cls-1{fill:url(#linear-gradient);}.cls-2{fill:url(#linear-gradient-2);}.cls-3{fill:url(#linear-gradient-3);}.cls-4{fill:url(#linear-gradient-4);}.cls-5{fill:#0c0c23;}</style><linearGradient id="linear-gradient" x1="40.59" y1="8.39" x2="3.46" y2="8.39" gradientUnits="userSpaceOnUse"><stop offset="0" stop-color="#323790"/><stop offset="0.47" stop-color="#33a7ee"/><stop offset="0.89" stop-color="#3bebf4"/></linearGradient><linearGradient id="linear-gradient-2" x1="8.39" y1="-4.39" x2="8.39" y2="55.5" xlink:href="#linear-gradient"/><linearGradient id="linear-gradient-3" x1="35.85" y1="40.15" x2="35.15" y2="7.23" xlink:href="#linear-gradient"/><linearGradient id="linear-gradient-4" x1="-18.26" y1="36.68" x2="60.54" y2="35.28" xlink:href="#linear-gradient"/></defs><path class="cls-1" d="M26.78,0h-15A11.77,11.77,0,0,0,0,11.26H0v5.16H0a3.91,3.91,0,0,1,3.91-3.91H27.07a4.27,4.27,0,0,1,4.27,4.27V4.56A4.56,4.56,0,0,0,26.78,0Z"/><path class="cls-2" d="M16.78,12.51a4.27,4.27,0,0,0-4.27,4.27V31.34c0,.14,0,.29,0,.43v12A8.19,8.19,0,0,1,4.31,52H0V16.42a3.91,3.91,0,0,1,3.91-3.91Z"/><path class="cls-3" d="M31.71,0H26.78a4.56,4.56,0,0,1,4.56,4.56V27.07a4.27,4.27,0,0,1-4.27,4.27H40a3.83,3.83,0,0,0,3.84-3.83V12.14A12.14,12.14,0,0,0,31.71,0Z"/><path class="cls-4" d="M12.51,31.34V43.85H32.05a11.8,11.8,0,0,0,11.8-11.8V27.51A3.83,3.83,0,0,1,40,31.34Z"/><path class="cls-5" d="M57.25,13.39H59.8v2a4.38,4.38,0,0,1,4-2.21c3.16,0,4.93,2.11,4.93,6.44v6.91c0,3.86-1.84,5.87-4.93,5.87a4.08,4.08,0,0,1-3.89-2.11v8.25H57.25Zm8.82,13V19.26c0-2.45-1.14-3.79-3.09-3.79s-3,1.27-3,3.69v7.21c0,2.45,1.14,3.72,3,3.72S66.07,28.82,66.07,26.37Z"/><path class="cls-5" d="M72.38,13.39h2.55v2.38a3.66,3.66,0,0,1,4.36-2.58v2.68c-3.09-.34-4.23,1.51-4.23,5.54v10.8H72.38Z"/><path class="cls-5" d="M80.8,26.34V19.22c0-3.65,2.08-6,5.74-6s5.74,2.38,5.74,6v7.12c0,3.79-2.15,6.14-5.74,6.14S80.8,30.13,80.8,26.34Zm8.79.37V18.92c0-2.14-1.24-3.29-3-3.29s-3.09,1.15-3.09,3.29v7.79c0,2.18,1.24,3.32,3.09,3.32S89.59,28.89,89.59,26.71Z"/><path class="cls-5" d="M95.13,26.34V19.22c0-3.65,2.08-6.07,5.74-6.07s5.73,2.32,5.73,6v.2h-2.68v-.17c0-2.34-1-3.59-3-3.59-1.88,0-3.09,1.15-3.09,3.29v7.79c0,2.18,1.24,3.32,3.09,3.32s3-1.21,3-3.56v-.2h2.68v.2c0,3.72-2.14,6-5.73,6S95.13,30.13,95.13,26.34Z"/><path class="cls-5" d="M109.19,26.27V19.16c0-3.66,2.08-6,5.74-6s5.73,2.38,5.73,6v4.53h-8.82V26.2c0,2.45,1,4,3.09,4a2.8,2.8,0,0,0,3-2.82v-.6h2.68V27c0,3-2,5.44-5.73,5.44S109.19,30.06,109.19,26.27ZM118,21.71V18.82c0-2.11-1.24-3.35-3-3.35s-3.09,1.14-3.09,3.32v2.92Z"/><path class="cls-5" d="M123.05,26.81h2.68a3,3,0,0,0,3.19,3.35,2.81,2.81,0,0,0,3-2.75c0-2-1.61-2.85-3.38-3.72-2.35-1.14-5.07-2.25-5.07-5.64,0-2.75,2-4.93,5.33-4.93,3.7,0,5.64,2.08,5.64,5.67h-2.58c0-2.25-1.18-3.22-3-3.22A2.48,2.48,0,0,0,126.07,18c0,1.78,1.61,2.55,3.45,3.42,2.35,1.07,5,2.28,5,5.84,0,2.55-1.65,5.2-5.64,5.2C125.26,32.48,123.05,30.26,123.05,26.81Z"/><path class="cls-5" d="M136.74,26.81h2.68a3,3,0,0,0,3.19,3.35,2.82,2.82,0,0,0,3-2.75c0-2-1.61-2.85-3.39-3.72-2.35-1.14-5.07-2.25-5.07-5.64,0-2.75,2-4.93,5.34-4.93,3.69,0,5.63,2.08,5.63,5.67h-2.58c0-2.25-1.18-3.22-3-3.22A2.48,2.48,0,0,0,139.76,18c0,1.78,1.61,2.55,3.45,3.42,2.35,1.07,5,2.28,5,5.84,0,2.55-1.65,5.2-5.64,5.2C139,32.48,136.74,30.26,136.74,26.81Z"/><path class="cls-5" d="M151.47,13.39H154V15a3.78,3.78,0,0,1,3.39-1.88,4,4,0,0,1,3.76,2.38,4.27,4.27,0,0,1,4-2.38c3,0,4.16,2.22,4.16,6.14V32.21H166.6V19c0-2.21-.5-3.42-2.25-3.42-1.94,0-2.61,1.14-2.61,3.32V32.21h-2.69V19c0-2.32-.6-3.62-2.45-3.62-1.51,0-2.45,1.07-2.45,3.18V32.21h-2.68Z"/><path class="cls-5" d="M172.58,26.54V19c0-3.92,1.94-5.87,4.89-5.87a4.51,4.51,0,0,1,4.06,2.18V13.39h2.52V32.21h-2.52V30.26a4.53,4.53,0,0,1-4.06,2.22C174.45,32.48,172.58,30.46,172.58,26.54Zm8.79-.17V19.09c0-2.42-1.18-3.66-3.06-3.66s-3.05,1.31-3.05,3.76v7.18c0,2.52,1.11,3.79,3.05,3.79S181.37,28.85,181.37,26.37Z"/><path class="cls-5" d="M187.91,6.88h2.72V21.54H192l4.36-8.15h3.09l-5.23,9.26,5.26,9.56h-3.08L192,23.82h-1.34v8.39h-2.72Z"/><path class="cls-5" d="M200.76,26.27V19.16c0-3.66,2.08-6,5.74-6s5.74,2.38,5.74,6v4.53h-8.83V26.2c0,2.45,1,4,3.09,4a2.8,2.8,0,0,0,3.05-2.82v-.6h2.69V27c0,3-2,5.44-5.74,5.44S200.76,30.06,200.76,26.27Zm8.79-4.56V18.82c0-2.11-1.24-3.35-3.05-3.35s-3.09,1.14-3.09,3.32v2.92Z"/><path class="cls-5" d="M215.66,13.39h2.55v2.38a3.66,3.66,0,0,1,4.36-2.58v2.68c-3.08-.34-4.22,1.51-4.22,5.54v10.8h-2.69Z"/></svg>