<svg width="133" height="114" viewBox="0 0 133 114" fill="none" xmlns="http://www.w3.org/2000/svg">
<path fill-rule="evenodd" clip-rule="evenodd" d="M101.207 24.4512C101.931 24.9585 102.656 25.4667 103.356 26.0145C108.069 29.6702 111.773 34.4864 114.114 40.0017C117.551 48.0931 117.379 57.7133 117.219 66.6787L117.219 66.6805C117.191 68.217 117.164 69.7343 117.155 71.2214C117.152 71.8663 117.15 72.5231 117.148 73.1895C117.126 82.4292 117.098 93.5395 111.557 101.131C108.765 104.958 105.05 107.468 100.608 108.928C99.0461 109.44 97.4343 109.737 95.8233 110.034L95.8222 110.035C95.4448 110.104 95.0676 110.174 94.691 110.246C91.1321 110.93 87.5595 111.537 83.9598 111.971C80.934 112.336 77.9044 112.684 74.8689 112.965C73.124 113.126 71.3728 113.227 69.6215 113.327L69.6208 113.328L69.6202 113.328C68.9952 113.364 68.3701 113.4 67.7453 113.438C67.4794 113.453 67.2117 113.448 66.944 113.443C66.8102 113.441 66.6764 113.438 66.5428 113.438C66.5221 113.239 66.5117 113.038 66.5116 112.837C66.5114 113.038 66.4786 113.438 66.4786 113.438C66.3462 113.438 66.2135 113.441 66.0805 113.444H66.0799H66.0792H66.079C65.8117 113.45 65.5434 113.455 65.276 113.438C64.6496 113.399 64.0227 113.363 63.3957 113.327H63.3955C61.6466 113.226 59.8969 113.125 58.1524 112.965C55.1189 112.684 52.0892 112.336 49.0615 111.971C45.4637 111.537 41.8893 110.93 38.3304 110.246C37.9517 110.173 37.5722 110.103 37.1925 110.033C35.5842 109.737 33.9735 109.44 32.4151 108.928C27.9728 107.468 24.2582 104.958 21.466 101.131C15.9236 93.5375 15.8959 82.4234 15.8728 73.1824L15.8728 73.1815L15.8728 73.1806C15.8712 72.5172 15.8695 71.8635 15.8659 71.2214C15.8576 69.7288 15.8305 68.2057 15.8031 66.6633C15.6437 57.7023 15.4728 48.0885 18.9092 40.0017C21.2486 34.4838 24.9532 29.6654 29.6676 26.0087C30.3334 25.4879 31.0278 25.0007 31.7228 24.5131L31.7232 24.5129C32.0375 24.2923 32.3521 24.0716 32.6641 23.8477C32.7557 23.7824 32.8498 23.7197 32.962 23.6448L33.0436 23.5904C32.7475 22.7306 32.4571 21.8791 32.1684 21.0327L32.168 21.0314L32.1678 21.0309L32.1673 21.0294L32.1663 21.0265C31.9511 20.3956 31.7369 19.7675 31.5219 19.1408C31.2839 18.4425 31.0444 17.7473 30.8054 17.0535L30.8047 17.0516L30.8042 17.0501C30.5688 16.367 27.7924 8.24763 27.5599 7.56592C26.805 5.33819 27.8207 3.23618 30.0175 2.47003C31.5443 1.93045 33.0724 1.39873 34.6019 0.874867C35.0777 0.710729 35.5809 0.643351 36.0827 0.676622C36.5844 0.709894 37.0747 0.843156 37.5251 1.06872C37.9756 1.29428 38.3773 1.60767 38.7072 1.99081C39.037 2.37395 39.2884 2.81925 39.4469 3.30101L44.3235 17.5476C44.3653 17.6687 44.4082 17.7899 44.454 17.9189L44.4547 17.9209L44.4554 17.9228C44.4923 18.0269 44.5311 18.1362 44.5725 18.2548C51.7234 15.974 59.0241 14.9741 66.5116 14.8837C74.003 14.9741 81.3076 15.974 88.441 18.2607C88.473 18.1691 88.5035 18.083 88.5326 18.0006C88.5884 17.8426 88.6395 17.698 88.6881 17.5535C89.4664 15.2825 93.1479 5.45024 93.9263 3.18191C94.085 2.70031 94.3365 2.25519 94.6665 1.87219C94.9964 1.48919 95.3981 1.1759 95.8485 0.95037C96.2988 0.724841 96.789 0.591537 97.2906 0.55814C97.7923 0.524743 98.2955 0.591916 98.7714 0.755782C100.299 1.28489 101.828 1.8166 103.356 2.35095C105.553 3.12496 106.568 5.21909 105.813 7.44682C105.484 8.42084 102.247 16.9517 101.913 17.9181L101.913 17.9196C101.771 18.3288 101.63 18.7377 101.49 19.1467L99.97 23.5963C100.13 23.6964 100.246 23.7731 100.359 23.8536C100.64 24.0541 100.923 24.2525 101.207 24.4509L101.207 24.451L101.207 24.4512ZM104.004 91.1689C104.424 89.1887 104.714 87.1848 104.961 85.1732C105.266 82.7114 105.432 80.2341 105.459 77.7533C105.476 76.3216 105.405 74.888 105.335 73.4582L105.335 73.4578L105.335 73.4569L105.331 73.3744C105.194 70.803 104.842 68.2479 104.278 65.7365C104.019 64.457 103.537 63.2339 102.856 62.1238C101.698 60.3008 100.065 59.0749 98.1195 58.2164C96.5294 57.5339 94.8593 57.0598 93.1499 56.8059C92.2913 56.6682 91.4279 56.5621 90.5645 56.4561L90.5638 56.456C90.3316 56.4275 90.0994 56.3989 89.8673 56.3698C89.3322 56.3043 88.7975 56.2338 88.2629 56.1633C87.1935 56.0223 86.1242 55.8813 85.0514 55.7805C82.8429 55.5742 80.6402 55.3974 78.4356 55.2756C75.8956 55.1349 73.3538 55.0494 70.8119 54.964L70.8114 54.9639L70.557 54.9554C69.7345 54.9324 68.9101 54.9299 68.0864 54.9274H68.0861H68.0859L68.083 54.9273L68.0802 54.9273C67.7076 54.9262 67.3351 54.925 66.9631 54.922C66.8988 54.9211 66.835 54.9138 66.7712 54.9065C66.6862 54.8967 66.6011 54.8869 66.5155 54.8925C66.4653 54.8958 66.415 54.9002 66.3649 54.9046C66.2655 54.9133 66.1662 54.922 66.068 54.922C65.6867 54.9251 65.3054 54.9254 64.9241 54.9258H64.9237C64.1066 54.9265 63.2899 54.9272 62.4741 54.9554L62.2039 54.9645C59.6688 55.0498 57.1303 55.1352 54.5955 55.2756C52.3811 55.3974 50.1784 55.5742 47.9797 55.7805C46.9058 55.8827 45.8346 56.0235 44.7636 56.1642L44.7622 56.1644C44.2287 56.2344 43.6954 56.3045 43.1618 56.3698C42.9255 56.3995 42.6889 56.4286 42.4522 56.4577L42.45 56.458C41.5921 56.5634 40.7327 56.669 39.8792 56.8059C38.1705 57.0601 36.501 57.5342 34.9116 58.2164C32.9735 59.0749 31.3332 60.3008 30.1754 62.1238C29.4924 63.2331 29.0107 64.4565 28.7531 65.7365C28.1863 68.2483 27.8315 70.8041 27.6926 73.3764L27.6884 73.4605C27.6178 74.8902 27.5469 76.3237 27.5622 77.7553C27.5881 80.2359 27.7525 82.7131 28.0545 85.1751C28.3036 87.1868 28.5915 89.1907 29.0138 91.1709C29.403 92.9507 30.1132 94.5714 31.3488 95.9288C32.3691 97.0157 33.6141 97.8622 34.9952 98.408C36.6582 99.0758 38.3936 99.5427 40.1653 99.7989C42.3303 100.147 44.5005 100.458 46.676 100.732C48.1879 100.921 49.7076 101.046 51.2292 101.15C53.6478 101.317 56.0704 101.484 58.4929 101.577C60.2527 101.642 62.0144 101.662 63.776 101.682H63.7763C64.5039 101.691 65.2316 101.699 65.959 101.71H66.463C66.4824 101.781 66.498 102.196 66.5116 102.832C66.509 102.458 66.5253 102.083 66.5603 101.71H67.0643C67.7917 101.699 68.5191 101.691 69.2465 101.682C71.0078 101.662 72.7691 101.642 74.5303 101.577C76.9529 101.484 79.3735 101.317 81.7941 101.15C83.3138 101.046 84.8354 100.928 86.3473 100.732C88.5214 100.457 90.6917 100.146 92.858 99.7989C94.6271 99.5416 96.3599 99.0741 98.0203 98.4061C99.402 97.8602 100.648 97.0138 101.669 95.9269C102.908 94.5694 103.624 92.9487 104.004 91.1689ZM12.6117 64.137C12.6117 62.3768 12.6039 60.6173 12.5884 58.8584C12.5902 58.6391 12.5674 58.4203 12.5203 58.2062C12.205 56.8782 11.1037 56.0747 9.63851 56.0943C9.20351 56.1 8.76788 56.1081 8.33233 56.1163L8.33145 56.1163L8.33056 56.1164L8.32968 56.1164C8.00434 56.1225 7.67905 56.1286 7.35412 56.1336C7.00312 56.1344 6.6557 56.205 6.33173 56.3414C6.00776 56.4778 5.71359 56.6773 5.46603 56.9285C5.21846 57.1797 5.02235 57.4777 4.88892 57.8055C4.75548 58.1333 4.68733 58.4844 4.68835 58.8387C4.68835 58.9454 4.682 59.0528 4.67488 59.1734C4.67085 59.2416 4.66657 59.3139 4.66305 59.3927C4.46656 59.3927 4.27249 59.3909 4.08033 59.3892C3.70161 59.3857 3.3303 59.3823 2.96241 59.3927C2.6339 59.395 2.307 59.4392 1.9895 59.5243C1.43162 59.6905 0.94332 60.0373 0.599804 60.5112C0.256289 60.9851 0.0766114 61.5598 0.0884393 62.1469V62.1482C0.0884393 63.3874 0.0884393 64.6285 0.102056 65.8696C0.116325 69.4188 0.12995 72.9687 0.142922 76.5191V76.5197C0.142922 77.4782 0.142922 78.4367 0.168213 79.3952C0.165735 79.887 0.301316 80.3694 0.559253 80.7866C0.817189 81.2039 1.18693 81.5388 1.62563 81.7526C2.11666 81.9973 2.6633 82.1057 3.20953 82.0669C3.53396 82.0604 3.85839 82.0624 4.20373 82.0646H4.20447H4.20522H4.20599C4.38604 82.0657 4.57178 82.0669 4.76618 82.0669C4.76618 82.2692 4.76435 82.4624 4.76257 82.6499C4.75916 83.0086 4.75596 83.3463 4.76618 83.6856C4.78253 84.4005 5.07799 85.0799 5.58821 85.5759C6.09844 86.0719 6.78211 86.3443 7.49033 86.3337C8.28227 86.3004 9.07812 86.3102 9.87006 86.3337C10.2396 86.3423 10.607 86.2753 10.9503 86.1368C11.2935 85.9983 11.6055 85.7912 11.8674 85.5278C12.1293 85.2645 12.3358 84.9504 12.4744 84.6045C12.613 84.2585 12.6809 83.8878 12.674 83.5147C12.6457 81.3184 12.6426 79.1211 12.6395 76.9242V76.924C12.6381 75.9475 12.6367 74.971 12.6331 73.9948C12.6344 70.7049 12.6273 67.419 12.6117 64.137ZM48.3787 67.7354C46.143 67.6887 43.9438 68.3128 42.0596 69.5287C40.1754 70.7446 38.6909 72.4976 37.7941 74.5657C36.8973 76.6339 36.6285 78.9241 37.0217 81.1466C37.4149 83.3691 38.4525 85.4238 40.003 87.0506C41.5535 88.6774 43.5473 89.8032 45.7319 90.2853C47.9165 90.7675 50.1937 90.5843 52.2752 89.7591C54.3566 88.9339 56.1488 87.5037 57.4247 85.6496C58.7006 83.7955 59.4028 81.6008 59.4426 79.3435C59.5477 72.7566 54.294 67.8512 48.3787 67.7354ZM131.017 59.5243C130.703 59.44 130.38 59.3958 130.054 59.3927C129.686 59.3784 129.317 59.383 128.939 59.3878C128.746 59.3903 128.551 59.3927 128.352 59.3927C128.35 59.363 128.349 59.3341 128.348 59.3059L128.344 59.2174L128.344 59.2167C128.337 59.0765 128.331 58.9541 128.328 58.8387C128.33 58.1232 128.05 57.4363 127.55 56.9291C127.05 56.4218 126.371 56.1357 125.663 56.1336C125.335 56.1286 125.009 56.1224 124.682 56.1163C124.247 56.1081 123.812 56.1 123.376 56.0943C121.913 56.0747 120.812 56.8801 120.496 58.2062C120.448 58.4201 120.425 58.639 120.428 58.8584C120.419 60.123 120.414 61.3786 120.409 62.6353V62.6383C120.407 63.1375 120.405 63.6368 120.403 64.137L120.362 73.9869C120.359 74.9633 120.357 75.9399 120.356 76.9166V76.9195C120.353 79.1153 120.35 81.3116 120.321 83.5068C120.314 83.88 120.382 84.2506 120.521 84.5966C120.659 84.9426 120.866 85.2566 121.128 85.52C121.39 85.7833 121.702 85.9904 122.045 86.1289C122.388 86.2674 122.756 86.3344 123.125 86.3259C123.919 86.3062 124.715 86.2964 125.507 86.3259C126.215 86.337 126.899 86.0647 127.41 85.5686C127.92 85.0725 128.215 84.3928 128.231 83.6778C128.244 83.3381 128.24 82.9984 128.236 82.6391C128.233 82.452 128.231 82.2595 128.231 82.059H129.788C130.334 82.0981 130.881 81.9896 131.372 81.7447C131.81 81.531 132.181 81.1962 132.439 80.779C132.697 80.3618 132.833 79.8793 132.831 79.3873C132.85 78.6087 132.852 77.8301 132.854 77.0515V77.0501C132.855 76.8705 132.856 76.6909 132.856 76.5113L132.897 65.8618C132.897 65.3559 132.901 64.85 132.904 64.3442C132.909 63.6087 132.915 62.8736 132.909 62.1391C132.919 61.5546 132.74 60.9825 132.399 60.5104C132.057 60.0383 131.572 59.692 131.017 59.5243ZM76.5834 83.5465C78.3995 81.9001 84.8362 78.5247 93.1708 82.3285L96.5844 74.7049C84.7541 69.3057 74.8702 73.8552 71.0467 77.3215L76.5834 83.5465Z" fill="#212529"/>
</svg>
