<svg id="ProcessMaker_Login" data-name="ProcessMaker Login" xmlns="http://www.w3.org/2000/svg" viewBox="0 0 292 52"><defs><style>.cls-1{fill:#231f20;}.cls-2{fill:#4195d1;}</style></defs><g id="ProcessMaker"><path class="cls-1" d="M72.73,12.89a8.11,8.11,0,0,1,3.21.65A9.13,9.13,0,0,1,78.6,15.3a8,8,0,0,1,1.79,2.61,7.81,7.81,0,0,1,.66,3.18,8,8,0,0,1-.66,3.24A8.37,8.37,0,0,1,78.6,27,8.84,8.84,0,0,1,76,28.79a7.86,7.86,0,0,1-3.19.66h-4a.19.19,0,0,0-.22.22v8.92a.59.59,0,0,1-.53.52H64.57a.5.5,0,0,1-.38-.17.52.52,0,0,1-.15-.35V13.41a.52.52,0,0,1,.15-.35.47.47,0,0,1,.38-.17ZM72.4,25.21A4,4,0,0,0,74,24.9a4.29,4.29,0,0,0,2.21-2.2,4,4,0,0,0,.34-1.64,3.62,3.62,0,0,0-.34-1.54,3.76,3.76,0,0,0-.9-1.22A4.23,4.23,0,0,0,74,17.5a4.18,4.18,0,0,0-1.57-.3H68.76a.19.19,0,0,0-.22.22V25a.19.19,0,0,0,.22.22Z"/><path class="cls-1" d="M84.14,22a.45.45,0,0,1,.17-.37.52.52,0,0,1,.35-.15h1.87c.33,0,.5.12.53.37l.07.68a4.53,4.53,0,0,1,.06.5c0,.16,0,.26,0,.28q.08.35.3.12a4.69,4.69,0,0,1,.62-.75,5.28,5.28,0,0,1,2.13-1.35,4.44,4.44,0,0,1,1.44-.23,7.49,7.49,0,0,1,1,.08,4.39,4.39,0,0,1,1,.24,1.87,1.87,0,0,1,.67.41.43.43,0,0,1,.1.55l-1.39,2.47q-.23.38-.9.15a2.6,2.6,0,0,0-1.67,0,2.86,2.86,0,0,0-1.21.83,3.58,3.58,0,0,0-.73,1.31,4.48,4.48,0,0,0-.25,1.46v10c0,.35-.23.52-.71.52h-3a.51.51,0,0,1-.35-.17.47.47,0,0,1-.17-.35Z"/><path class="cls-1" d="M111,25.16a6.38,6.38,0,0,1,1.11,2.17,8.94,8.94,0,0,1-2.14,9.4,9.2,9.2,0,0,1-2.9,1.93,8.9,8.9,0,0,1-3.58.71,7.37,7.37,0,0,1-3.18-.71,8.78,8.78,0,0,1-2.7-1.93,9.33,9.33,0,0,1-1.85-2.86,8.88,8.88,0,0,1-.7-3.52,9,9,0,0,1,1.18-4.61,8.9,8.9,0,0,1,3-3.17,8.48,8.48,0,0,1,4.14-1.25,8.35,8.35,0,0,1,4.49,1.08,12.87,12.87,0,0,1,3.18,2.91c.23.36-3,3-3.13,2.83a4.73,4.73,0,0,0-4.47-2.66,3.94,3.94,0,0,0-1.72.37,4.3,4.3,0,0,0-1.37,1,4.68,4.68,0,0,0-.9,1.55,5.77,5.77,0,0,0-.32,1.92,5,5,0,0,0,1.22,3.46,4,4,0,0,0,3.09,1.37,5.35,5.35,0,0,0,2-.36,4.69,4.69,0,0,0,1.59-1,4.9,4.9,0,0,0,1.07-1.54,4.67,4.67,0,0,0,.39-1.92,4.61,4.61,0,0,0-.2-1.33,6.08,6.08,0,0,0-.51-1.18.83.83,0,0,1,.26-1.09l2.25-2C110.43,24.6,110.89,25.06,111,25.16Z"/><path class="cls-1" d="M128.13,37.43a.55.55,0,0,1,.1.58,1,1,0,0,1-.43.43,10.85,10.85,0,0,1-1.78.65,8.65,8.65,0,0,1-2.35.28,7.41,7.41,0,0,1-3.18-.71,8.9,8.9,0,0,1-2.7-1.93,9.33,9.33,0,0,1-1.85-2.86,9.05,9.05,0,0,1-.69-3.52v-.08a9,9,0,0,1,.69-3.52,9.5,9.5,0,0,1,1.85-2.87,9.07,9.07,0,0,1,2.7-1.93,7.55,7.55,0,0,1,3.18-.71,9.83,9.83,0,0,1,4.13.94l.35.32a.47.47,0,0,1,.06.5l-1.35,2.48a1.12,1.12,0,0,1-.51.43.66.66,0,0,1-.62-.06,5.26,5.26,0,0,0-2.06-.37,3.82,3.82,0,0,0-1.68.37,4.19,4.19,0,0,0-1.37,1,5,5,0,0,0-.92,1.54,5.29,5.29,0,0,0-.33,1.89,5.52,5.52,0,0,0,.33,1.91,4.66,4.66,0,0,0,.92,1.53,4.31,4.31,0,0,0,1.37,1,3.82,3.82,0,0,0,1.68.37,5.26,5.26,0,0,0,2.06-.37.63.63,0,0,1,.62-.06,1.12,1.12,0,0,1,.51.43Z"/><path class="cls-1" d="M138.58,21.35A9,9,0,0,1,142,22a8,8,0,0,1,2.83,1.91,8.45,8.45,0,0,1,1.85,3.13,12,12,0,0,1,.58,4.34.89.89,0,0,1-.11.53.58.58,0,0,1-.48.15c-2.15,0-4.1,0-5.85,0h-6.7a.13.13,0,0,0-.08,0v0a4.59,4.59,0,0,0,1,1.82,5.49,5.49,0,0,0,1.39,1.08,5.39,5.39,0,0,0,2.17.66,6.82,6.82,0,0,0,2,0,7.33,7.33,0,0,0,1.59-.43,4.59,4.59,0,0,0,1.2-.68,6.57,6.57,0,0,0,.85-.76.24.24,0,0,1,.33,0l2,1.72a.47.47,0,0,1,.15.26.3.3,0,0,1-.08.23c-.2.22-.51.54-.92.94a8.07,8.07,0,0,1-1.61,1.16,10.82,10.82,0,0,1-2.38,1,11,11,0,0,1-3.18.36,8.8,8.8,0,0,1-3.43-.77,9.28,9.28,0,0,1-2.83-2,9.46,9.46,0,0,1-1.91-2.84,8.77,8.77,0,0,1-.71-3.51A9,9,0,0,1,132.37,24a8.71,8.71,0,0,1,2.8-1.93A8.28,8.28,0,0,1,138.58,21.35Zm4.69,7.08a.16.16,0,0,0,0-.11,10.43,10.43,0,0,0-.5-1,4.3,4.3,0,0,0-.86-1.08,5.06,5.06,0,0,0-1.35-.87,4.89,4.89,0,0,0-1.93-.35,4.1,4.1,0,0,0-2,.43,4.9,4.9,0,0,0-1.31,1,4.1,4.1,0,0,0-.75,1.13c-.16.37-.27.63-.32.78v.11a.1.1,0,0,0,.08,0h8.76C143.23,28.47,143.27,28.46,143.27,28.43Z"/><path class="cls-1" d="M158.25,28.14c1.05.17,2,.37,2.92.59a8.6,8.6,0,0,1,2.34.94,4.18,4.18,0,0,1,2.12,3.86,5,5,0,0,1-.54,2.3,5.28,5.28,0,0,1-1.54,1.82,7.68,7.68,0,0,1-2.38,1.18,10.22,10.22,0,0,1-3.07.43,8.93,8.93,0,0,1-2.38-.32,7.64,7.64,0,0,1-2.1-.93A6.78,6.78,0,0,1,152,36.49a6.63,6.63,0,0,1-1.07-2,.7.7,0,0,1,.11-.83.8.8,0,0,1,.71-.33h2.66a1,1,0,0,1,.75.33,3.29,3.29,0,0,0,1.5,1.28,4.7,4.7,0,0,0,1.69.33,5.05,5.05,0,0,0,2.11-.37,1.18,1.18,0,0,0,.81-1.09,1.33,1.33,0,0,0-.15-.65,1.31,1.31,0,0,0-.55-.51,4.17,4.17,0,0,0-1.1-.39c-.48-.12-1.08-.23-1.8-.36s-1.32-.24-2.1-.43a8.89,8.89,0,0,1-2.17-.84,5.35,5.35,0,0,1-1.69-1.48,3.84,3.84,0,0,1-.67-2.34,4.81,4.81,0,0,1,.45-2A5.58,5.58,0,0,1,152.78,23a6.61,6.61,0,0,1,2.12-1.27,7.83,7.83,0,0,1,2.9-.49,8.13,8.13,0,0,1,4.42,1.15,6.6,6.6,0,0,1,2.66,3.09.83.83,0,0,1-.15.78.55.55,0,0,1-.3.3.93.93,0,0,1-.45.11h-2.7a.86.86,0,0,1-.43-.11,1.7,1.7,0,0,1-.39-.3,2.11,2.11,0,0,0-1.05-.73,5.3,5.3,0,0,0-1.61-.32,4.22,4.22,0,0,0-1.2.08,1.49,1.49,0,0,0-.69.34,1,1,0,0,0-.32.5,2,2,0,0,0-.07.51.93.93,0,0,0,.54.9A11.79,11.79,0,0,0,158.25,28.14Z"/><path class="cls-1" d="M175.41,28.14c1.05.17,2,.37,2.92.59a8.6,8.6,0,0,1,2.34.94,4.18,4.18,0,0,1,2.12,3.86,4.91,4.91,0,0,1-.55,2.3,5.15,5.15,0,0,1-1.53,1.82,7.79,7.79,0,0,1-2.38,1.18,10.22,10.22,0,0,1-3.07.43,8.88,8.88,0,0,1-2.38-.32,7.64,7.64,0,0,1-2.1-.93,6.82,6.82,0,0,1-1.65-1.52,6.61,6.61,0,0,1-1.06-2,.69.69,0,0,1,.11-.83.79.79,0,0,1,.71-.33h2.66a1,1,0,0,1,.75.33,3.24,3.24,0,0,0,1.5,1.28,4.64,4.64,0,0,0,1.68.33,5.07,5.07,0,0,0,2.12-.37,1.17,1.17,0,0,0,.8-1.09,1.22,1.22,0,0,0-.69-1.16,4.17,4.17,0,0,0-1.1-.39c-.48-.12-1.08-.23-1.8-.36s-1.33-.24-2.1-.43a8.89,8.89,0,0,1-2.17-.84,5.24,5.24,0,0,1-1.69-1.48,3.84,3.84,0,0,1-.67-2.34,4.81,4.81,0,0,1,.45-2A5.44,5.44,0,0,1,169.94,23a6.67,6.67,0,0,1,2.11-1.27,7.92,7.92,0,0,1,2.91-.49,8.15,8.15,0,0,1,4.42,1.15A6.6,6.6,0,0,1,182,25.48a.88.88,0,0,1-.15.78.55.55,0,0,1-.3.3.93.93,0,0,1-.45.11h-2.7a.84.84,0,0,1-.43-.11,1.36,1.36,0,0,1-.39-.3,2.11,2.11,0,0,0-1.05-.73,5.3,5.3,0,0,0-1.61-.32,4.22,4.22,0,0,0-1.2.08,1.49,1.49,0,0,0-.69.34,1,1,0,0,0-.32.5,2.05,2.05,0,0,0-.08.51.92.92,0,0,0,.55.9A11.79,11.79,0,0,0,175.41,28.14Z"/><path class="cls-1" d="M215.5,39.11H212a.46.46,0,0,1-.33-.15.63.63,0,0,1-.19-.3l-2.25-14.31a.18.18,0,0,0-.15-.19.19.19,0,0,0-.22.12l-6.78,14.91a.48.48,0,0,1-.45.3H201a.48.48,0,0,1-.45-.3.63.63,0,0,1-.07-.12s-.1-.21-.23-.5-.31-.73-.58-1.31-.64-1.43-1.14-2.53l-1.89-4.18c-.76-1.68-1.69-3.78-2.79-6.27a.2.2,0,0,0-.23-.12.23.23,0,0,0-.18.19L191.07,38.7a.56.56,0,0,1-.17.28.4.4,0,0,1-.31.13h-3.41a.55.55,0,0,1-.38-.2.48.48,0,0,1-.11-.47l4.38-25.51a.45.45,0,0,1,.49-.42h1.09a.51.51,0,0,1,.48.27l8,17.9c.12.23.26.23.41,0q2-4.45,3.37-7.53l2.27-5c.58-1.33,1-2.35,1.36-3.06s.56-1.23.71-1.57a3.91,3.91,0,0,1,.29-.58.31.31,0,0,0,0-.11.48.48,0,0,1,.49-.27h1.05a.45.45,0,0,1,.48.42c.55,3.19,1,6,1.47,8.44s.78,4.56,1.08,6.35.56,3.31.77,4.54.39,2.23.54,3l.56,3.22Q216.1,39.11,215.5,39.11Z"/><path class="cls-1" d="M236.41,38.17a.88.88,0,0,1-.28.68,1,1,0,0,1-.69.26H233a1,1,0,0,1-.7-.26.92.92,0,0,1-.28-.68V33.25c0-.44,0-.84,0-1.2s0-.66,0-.88v-.38a5.55,5.55,0,0,0-.68-2.86,4.79,4.79,0,0,0-1.91-1.82,4.85,4.85,0,0,0-1.87-.58,5.07,5.07,0,0,0-1.87.17,5.36,5.36,0,0,0-1.67.84A4.61,4.61,0,0,0,222.78,28a4.09,4.09,0,0,0-.55,2.71,5.82,5.82,0,0,0,1,2.59A5.16,5.16,0,0,0,225.42,35a4.05,4.05,0,0,0,2.86.13.74.74,0,0,1,.64.06,1.56,1.56,0,0,1,.45.47l1,2.77c.08.2,0,.35-.26.45a9.3,9.3,0,0,1-3.92.48,9.1,9.1,0,0,1-7.83-6.18A9.18,9.18,0,0,1,219,26a8.34,8.34,0,0,1,2.25-2.7,9.38,9.38,0,0,1,3.11-1.63,8.72,8.72,0,0,1,3.45-.32,7,7,0,0,1,3.26,1.24c.17.2.34.27.5.22s.24-.21.24-.48a1,1,0,0,1,.29-.68.85.85,0,0,1,.65-.3h2.7a.92.92,0,0,1,.69.3,1,1,0,0,1,.28.68Z"/><path class="cls-1" d="M256.68,21.71a.64.64,0,0,1-.06.54l-7,6.82a.35.35,0,0,0,0,.49c.6.75,1.23,1.53,1.87,2.36s1.28,1.63,1.88,2.42L255,36.55c.53.68,1,1.28,1.35,1.77a.63.63,0,0,1,.06.53.41.41,0,0,1-.43.26h-3.94a.57.57,0,0,1-.52-.22L244.94,30v8.62a.59.59,0,0,1-.53.52h-3.26a.54.54,0,0,1-.39-.17.51.51,0,0,1-.17-.35V13.15a.54.54,0,0,1,.17-.39.5.5,0,0,1,.39-.17h3.26a.47.47,0,0,1,.36.17.54.54,0,0,1,.17.39V28.66l7-6.82.38-.28a.73.73,0,0,1,.45-.13h3.52A.37.37,0,0,1,256.68,21.71Z"/><path class="cls-1" d="M267.38,21.35a9,9,0,0,1,3.42.66,8,8,0,0,1,2.83,1.91,8.6,8.6,0,0,1,1.86,3.13,12.18,12.18,0,0,1,.58,4.34.88.88,0,0,1-.12.53q-.1.15-.48.15c-2.15,0-4.1,0-5.85,0h-6.7a.13.13,0,0,0-.08,0v0a4.54,4.54,0,0,0,.28.71,4.86,4.86,0,0,0,.77,1.11,5.55,5.55,0,0,0,3.56,1.74,6.82,6.82,0,0,0,2,0,7.59,7.59,0,0,0,1.6-.43,4.69,4.69,0,0,0,1.19-.68,6.57,6.57,0,0,0,.85-.76.25.25,0,0,1,.34,0l2,1.72a.42.42,0,0,1,.15.26.3.3,0,0,1-.08.23c-.2.22-.5.54-.91.94A8.17,8.17,0,0,1,273,38.14a10.93,10.93,0,0,1-2.37,1,11.16,11.16,0,0,1-3.19.36,8.8,8.8,0,0,1-3.43-.77,9.4,9.4,0,0,1-2.83-2,9.65,9.65,0,0,1-1.91-2.84,9.12,9.12,0,0,1,0-7A8.91,8.91,0,0,1,261.16,24,8.75,8.75,0,0,1,264,22.07,8.25,8.25,0,0,1,267.38,21.35Zm4.68,7.08a.16.16,0,0,0,0-.11c-.13-.3-.3-.64-.51-1a4.3,4.3,0,0,0-.86-1.08,4.76,4.76,0,0,0-1.35-.87,4.89,4.89,0,0,0-1.93-.35,4.13,4.13,0,0,0-2,.43,5.06,5.06,0,0,0-1.31,1,4.61,4.61,0,0,0-.75,1.13c-.16.37-.26.63-.31.78v.11a.09.09,0,0,0,.07,0H272C272,28.47,272.06,28.46,272.06,28.43Z"/><path class="cls-1" d="M279.6,22a.48.48,0,0,1,.17-.37.53.53,0,0,1,.36-.15H282c.33,0,.5.12.53.37l.07.68c0,.17,0,.34.06.5s0,.26,0,.28q.07.35.3.12a4.57,4.57,0,0,1,.61-.75,5.61,5.61,0,0,1,.94-.77,5.13,5.13,0,0,1,1.2-.58,4.44,4.44,0,0,1,1.44-.23,7.49,7.49,0,0,1,1,.08,4.54,4.54,0,0,1,1,.24,2,2,0,0,1,.67.41.44.44,0,0,1,.09.55l-1.38,2.47q-.22.38-.9.15A2.6,2.6,0,0,0,286,25a2.89,2.89,0,0,0-1.22.83,3.89,3.89,0,0,0-.73,1.31,4.75,4.75,0,0,0-.24,1.46v10c0,.35-.24.52-.71.52h-3a.59.59,0,0,1-.53-.52Z"/></g><g id="Logo"><path class="cls-2" d="M26.1,1A24.95,24.95,0,0,0,10.94,45.93V25.08a15,15,0,0,1,30,.58A14.79,14.79,0,0,1,26.1,40.45a13,13,0,0,1-3.83-.53V33.78a8,8,0,0,0,3.82.9A8.91,8.91,0,1,0,26,16.86a9,9,0,0,0-9.08,9V49.24A25,25,0,1,0,26.1,1Z"/></g></svg>