<svg width="194" height="48" viewBox="0 0 194 48" fill="none" xmlns="http://www.w3.org/2000/svg">
<g clip-path="url(#clip0_151_9790)">
<path d="M23.5057 0.458031H10.3289C7.66499 0.454411 5.10277 1.48062 3.17784 3.32215C1.25292 5.16367 0.114299 7.67796 0 10.3394L0 14.8598C0 13.9486 0.361947 13.0748 1.00622 12.4305C1.65049 11.7863 2.52431 11.4243 3.43544 11.4243H23.7769C24.7711 11.4255 25.7243 11.8213 26.4269 12.5248C27.1296 13.2283 27.5242 14.1819 27.5242 15.1762V4.46303C27.5242 3.93594 27.4202 3.41404 27.2181 2.92725C27.0159 2.44045 26.7197 1.99834 26.3464 1.62626C25.973 1.25419 25.5299 0.959463 25.0425 0.758992C24.555 0.558521 24.0327 0.456246 23.5057 0.458031Z" fill="url(#paint0_linear_151_9790)"/>
<path d="M14.7272 11.438C13.7329 11.4392 12.7798 11.835 12.0771 12.5385C11.3745 13.242 10.9799 14.1956 10.9799 15.1899V27.9733C10.9799 28.0954 10.9799 28.2219 10.9799 28.3485V38.917C10.9804 39.8626 10.7946 40.799 10.4328 41.6727C10.0711 42.5463 9.54066 43.3401 8.87182 44.0085C8.20298 44.6769 7.40889 45.2069 6.535 45.5681C5.66111 45.9292 4.72457 46.1145 3.77899 46.1133H0V14.8734C0 13.9623 0.361947 13.0885 1.00622 12.4442C1.65049 11.7999 2.52431 11.438 3.43544 11.438H14.7272Z" fill="url(#paint1_linear_151_9790)"/>
<path d="M27.8383 0.457031H23.5078C24.57 0.457031 25.5887 0.878985 26.3398 1.63007C27.0909 2.38115 27.5128 3.39984 27.5128 4.46203V24.2249C27.5128 25.2187 27.118 26.1719 26.4152 26.8746C25.7125 27.5774 24.7593 27.9722 23.7655 27.9722H35.125C35.5674 27.9728 36.0056 27.8861 36.4145 27.7171C36.8233 27.548 37.1948 27.3 37.5076 26.9872C37.8205 26.6743 38.0685 26.3029 38.2375 25.894C38.4066 25.4852 38.4933 25.047 38.4927 24.6046V11.1114C38.4927 8.2857 37.3702 5.57571 35.3721 3.57763C33.374 1.57954 30.664 0.457031 27.8383 0.457031Z" fill="url(#paint2_linear_151_9790)"/>
<path d="M10.9844 27.9721V38.952H28.1616C30.9043 38.946 33.5326 37.8523 35.4698 35.9108C37.4071 33.9693 38.495 31.3386 38.495 28.5959V24.6045C38.4956 25.0469 38.4089 25.4851 38.2399 25.8939C38.0709 26.3028 37.8228 26.6743 37.51 26.9871C37.1972 27.2999 36.8257 27.548 36.4168 27.717C36.008 27.886 35.5698 27.9727 35.1274 27.9721H10.9844Z" fill="url(#paint3_linear_151_9790)"/>
</g>
<g clip-path="url(#clip1_151_9790)">
<path d="M140.045 13.4393C140.185 13.2648 140.316 13.1077 140.438 12.9507C140.961 12.2789 141.633 11.8775 142.453 11.6768C143.221 11.4849 143.98 11.5285 144.731 11.7205C145.516 11.9211 146.066 12.4534 146.467 13.1426C146.921 13.9191 146.999 14.7916 147.113 15.6554C147.322 17.2346 147.278 18.8225 147.278 20.4018C147.287 22.8884 147.287 25.375 147.287 27.8616C147.287 27.9488 147.278 28.0361 147.27 28.1146C146.929 28.2542 145.498 28.2891 144.713 28.1757C144.713 27.8877 144.704 27.5824 144.704 27.2857C144.704 24.4937 144.722 21.7018 144.713 18.9098C144.713 17.889 144.67 16.8769 144.635 15.8561C144.608 15.2279 144.417 14.6608 143.972 14.1983C143.815 14.0326 143.64 13.9191 143.422 13.8755C142.881 13.7708 142.323 13.7534 141.834 13.9802C141.223 14.2594 140.743 14.7306 140.7 15.4634C140.647 16.3621 140.604 17.2608 140.595 18.1682C140.578 21.2481 140.586 24.3367 140.578 27.4166C140.578 27.6609 140.578 27.9052 140.578 28.1931C139.74 28.1931 138.92 28.1931 138.074 28.1931C138.065 28.1146 138.056 28.0186 138.056 27.9226C138.056 24.04 138.056 20.1575 138.047 16.2661C138.047 15.9869 138.004 15.7165 138.004 15.4373C137.986 14.748 137.594 14.2769 137.07 13.893C136.948 13.8057 136.782 13.7359 136.634 13.7185C136.023 13.6748 135.404 13.6487 134.871 14.0151C134.461 14.2943 134.208 14.7218 134.121 15.2017C134.043 15.6379 133.99 16.0916 133.99 16.5453C133.982 19.9306 133.982 23.3246 133.982 26.7099C133.982 27.085 133.99 27.4689 133.99 27.8441C133.99 27.9575 133.973 28.071 133.955 28.2106C133.135 28.2106 132.341 28.2106 131.521 28.2106C131.504 27.9052 131.469 27.5911 131.469 27.2683C131.469 22.3474 131.469 17.4353 131.477 12.5144C131.477 12.2701 131.512 12.0258 131.53 11.7466C132.315 11.7466 133.065 11.7466 133.859 11.7466C133.886 12.0782 133.903 12.3836 133.92 12.7151C134.2 12.6802 134.365 12.5581 134.505 12.3836C134.889 11.9211 135.395 11.7554 135.971 11.6158C136.651 11.45 137.288 11.6158 137.943 11.6856C138.004 11.6943 138.056 11.7117 138.108 11.7379C138.815 12.0869 139.496 12.4708 139.88 13.2124C139.914 13.2735 139.958 13.3346 140.002 13.3956C139.993 13.3956 140.002 13.4044 140.045 13.4393Z" fill="white"/>
<path d="M51.6517 11.738C51.6517 12.2178 51.6517 12.6454 51.6517 13.1514C51.7913 13.0729 51.8785 13.038 51.9483 12.9769C52.1141 12.8373 52.2624 12.6803 52.4195 12.5319C53.0302 11.9212 53.7718 11.6595 54.6182 11.6682C55.0806 11.6682 55.5517 11.6769 56.0141 11.6682C56.7121 11.6595 57.2793 11.9736 57.8028 12.3749C58.5095 12.9333 58.9195 13.6924 59.1813 14.5474C59.4343 15.3937 59.5216 16.24 59.5128 17.13C59.4867 19.4246 59.5303 21.728 59.5041 24.0227C59.4954 25.0697 59.1987 26.073 58.588 26.9281C58.1605 27.5214 57.5497 27.9314 56.8605 28.2194C56.0839 28.5334 55.2725 28.5596 54.4611 28.4724C53.8329 28.4113 53.2484 28.1932 52.7423 27.7918C52.7161 27.7744 52.6987 27.7569 52.6725 27.7395C52.3497 27.5475 52.0181 27.3556 51.8785 26.8757C51.7389 27.12 51.7477 27.3032 51.7477 27.4777C51.7564 28.0885 51.7738 28.6992 51.7738 29.3012C51.7826 30.6274 51.7738 31.9449 51.7826 33.2711C51.7826 33.4281 51.8 33.5852 51.8087 33.7946C50.9886 33.7946 50.2034 33.7946 49.3658 33.7946C49.357 33.716 49.3396 33.6114 49.3309 33.4979C49.3221 29.467 49.3134 25.4187 49.3047 21.379C49.3047 18.3951 49.3047 15.4112 49.3047 12.436C49.3047 12.2091 49.3047 11.9736 49.3047 11.738C50.1161 11.738 50.8577 11.738 51.6517 11.738ZM56.9739 20.0354H56.9652C56.9652 18.8575 56.9739 17.6796 56.9564 16.5018C56.9564 16.1877 56.8954 15.8649 56.8343 15.5595C56.6772 14.8702 56.1886 14.4165 55.6739 13.989C55.5866 13.9192 55.4645 13.8843 55.3511 13.8669C55.0719 13.8058 54.7665 13.8843 54.5222 13.6836C54.4873 13.6575 54.4088 13.6662 54.3564 13.6836C54.051 13.7622 53.7282 13.8232 53.4316 13.9367C52.7249 14.1897 52.2537 14.7132 52.053 15.4024C51.8873 15.9696 51.8262 16.5716 51.8 17.1649C51.7564 18.0025 51.7913 18.8488 51.7913 19.6864C51.7913 20.2186 51.8175 20.7595 51.8175 21.2918C51.8262 21.7716 51.8087 22.2515 51.8175 22.7314C51.8175 23.0193 51.8262 23.3072 51.8524 23.5864C51.8698 23.7696 51.9134 23.9529 51.9571 24.1361C52.0269 24.4327 52.0356 24.7643 52.1926 25.0086C52.4718 25.4623 52.8383 25.8462 53.3443 26.0905C53.798 26.3173 54.2604 26.3522 54.7403 26.3173C55.3947 26.2737 55.9531 25.9421 56.3544 25.471C56.7645 24.9824 56.9913 24.3717 56.9826 23.6998C56.9652 22.4696 56.9739 21.2481 56.9739 20.0354Z" fill="white"/>
<path d="M163.275 6.22464C163.563 6.05886 163.816 6.04141 164.104 6.10249C164.296 6.14611 164.505 6.11121 164.706 6.09376C165.038 6.06759 165.369 6.00651 165.744 6.12866C165.771 6.20719 165.84 6.31189 165.849 6.41659C165.867 7.11458 165.867 7.81257 165.867 8.50184C165.867 11.4945 165.867 14.4959 165.867 17.4885C165.867 17.8113 165.858 18.1254 165.867 18.4482C165.867 18.5704 165.91 18.7013 165.928 18.7972C165.989 18.8321 166.015 18.8496 166.041 18.8583C166.599 18.9892 166.94 18.7449 167.184 18.2476C167.559 17.4623 167.969 16.6945 168.379 15.918C168.545 15.5952 168.763 15.2986 168.938 14.9845C169.295 14.3214 169.644 13.6495 169.993 12.9777C170.212 12.5677 170.421 12.1576 170.63 11.7475C171.564 11.7475 172.489 11.7475 173.492 11.7475C173.187 12.3146 172.925 12.8294 172.646 13.3267C172.236 14.0596 171.817 14.7925 171.407 15.5254C170.84 16.52 170.273 17.5147 169.706 18.5093C169.505 18.8583 169.33 19.2248 169.13 19.5825C168.999 19.8093 168.999 20.0187 169.13 20.2369C169.4 20.6993 169.653 21.1704 169.915 21.6416C170.587 22.8631 171.259 24.0845 171.93 25.306C172.384 26.1175 172.838 26.9289 173.291 27.7403C173.361 27.8624 173.414 27.9933 173.483 28.1329C172.986 28.3598 172.524 28.194 172.07 28.2114C171.608 28.2289 171.145 28.2114 170.622 28.2114C170.543 28.0631 170.438 27.8973 170.342 27.7228C169.906 26.8852 169.487 26.0389 169.051 25.2013C168.406 23.9537 167.751 22.706 167.088 21.4671C166.8 20.9348 166.591 20.8738 165.893 21.057C165.84 23.404 165.893 25.7685 165.867 28.1416C165.404 28.2987 164.985 28.2027 164.567 28.2027C164.165 28.2114 163.755 28.2027 163.293 28.2027C163.284 28.0718 163.258 27.9497 163.258 27.8275C163.258 22.2872 163.258 16.7469 163.258 11.1978C163.258 9.68843 163.258 8.17029 163.258 6.66088C163.258 6.53001 163.267 6.38169 163.275 6.22464Z" fill="white"/>
<path d="M157.749 28.2106C157.627 27.8616 157.705 27.5475 157.714 27.1898C157.618 27.216 157.513 27.2073 157.444 27.2596C157.191 27.4254 156.946 27.6173 156.702 27.7918C155.821 28.4288 154.835 28.6294 153.771 28.5335C153.203 28.4811 152.654 28.3939 152.139 28.1147C151.415 27.722 150.874 27.1462 150.525 26.4046C149.975 25.2616 149.905 24.0227 149.897 22.7837C149.888 20.7596 149.87 18.7441 149.897 16.7199C149.905 15.6904 150.028 14.6521 150.499 13.7098C151.092 12.532 152.034 11.834 153.36 11.6158C154.085 11.4937 154.774 11.5722 155.472 11.6856C156.013 11.7729 156.475 12.0521 156.885 12.4098C157.103 12.6018 157.278 12.8286 157.636 12.9333C157.662 12.532 157.679 12.1568 157.705 11.7467C158.473 11.6944 159.224 11.6944 160.009 11.7467C160.009 17.2172 160.009 22.6616 160.009 28.1583C159.276 28.2717 158.526 28.2019 157.749 28.2106ZM157.548 20.2448C157.557 20.2448 157.566 20.2448 157.575 20.2448C157.575 19.0669 157.583 17.8891 157.575 16.7112C157.575 16.3971 157.548 16.0655 157.479 15.7602C157.365 15.2105 157.138 14.7045 156.72 14.3118C156.152 13.7796 155.463 13.6487 154.704 13.7011C153.762 13.7709 153.151 14.2508 152.741 15.0622C152.427 15.6816 152.401 16.3447 152.357 17.0078C152.322 17.4441 152.348 17.8803 152.348 18.3166C152.34 19.8609 152.322 21.3965 152.34 22.9408C152.348 23.3509 152.488 23.7609 152.514 24.1797C152.593 25.1395 153.134 25.7415 153.945 26.1603C154.346 26.361 154.765 26.2999 155.184 26.3261C155.725 26.3697 156.152 26.1254 156.536 25.82C157.182 25.2878 157.531 24.5723 157.54 23.726C157.557 22.5743 157.548 21.4052 157.548 20.2448Z" fill="white"/>
<path d="M104.79 20.8825C104.528 20.8912 104.31 20.9087 104.1 20.9087C101.963 20.9174 99.825 20.9174 97.6874 20.9261C97.5129 20.9261 97.3472 20.9436 97.1378 20.9523C97.1291 21.1268 97.1116 21.2664 97.1116 21.406C97.1116 22.1302 97.1203 22.8631 97.129 23.5872C97.1378 24.3812 97.4519 25.0705 97.9579 25.6463C98.3069 26.0389 98.7693 26.3007 99.3277 26.3094C99.4324 26.3094 99.5371 26.3094 99.6331 26.3269C100.261 26.4403 100.802 26.1873 101.317 25.8732C101.884 25.5242 102.137 24.9483 102.277 24.3289C102.347 24.0322 102.355 23.7268 102.399 23.404C103.202 23.404 103.978 23.404 104.737 23.404C104.885 23.6919 104.833 23.9537 104.79 24.2067C104.728 24.5906 104.65 24.9832 104.545 25.3584C104.31 26.2047 103.83 26.9114 103.141 27.4524C101.989 28.351 100.663 28.5866 99.2405 28.5168C98.5512 28.4819 97.8881 28.3161 97.2686 28.0369C96.5358 27.7141 95.9512 27.1906 95.5411 26.5014C95.2794 26.0564 95.0874 25.5678 94.8606 25.0966C94.8431 25.0617 94.8344 25.0094 94.8257 24.9658C94.7995 24.3725 94.625 23.8054 94.625 23.1946C94.6512 20.9698 94.6337 18.7449 94.6337 16.5201C94.6337 15.316 94.9653 14.2167 95.672 13.2482C96.2653 12.4455 97.068 11.9046 98.0626 11.6952C98.813 11.5381 99.572 11.4247 100.349 11.5207C101.692 11.6777 102.844 12.1838 103.699 13.2482C104.153 13.8066 104.449 14.4522 104.598 15.159C104.685 15.569 104.755 15.9878 104.824 16.3979C104.842 16.4852 104.859 16.5724 104.851 16.6596C104.842 17.9248 104.824 19.1899 104.807 20.455C104.833 20.5859 104.807 20.6993 104.79 20.8825ZM102.285 18.9805C102.303 18.7275 102.338 18.4744 102.338 18.2127C102.338 17.7764 102.32 17.3402 102.32 16.9039C102.329 16.4503 102.259 16.014 102.146 15.569C101.98 14.9059 101.587 14.4173 101.038 14.0771C100.514 13.7455 99.9385 13.5623 99.3016 13.7717C99.1532 13.8241 98.9875 13.8328 98.8304 13.859C98.5338 13.9113 98.2895 14.0509 98.0539 14.2341C97.4519 14.7227 97.1639 15.3771 97.1203 16.1274C97.0767 16.8778 97.0942 17.6368 97.0942 18.3959C97.0942 18.5791 97.1203 18.7624 97.1465 18.9805C98.8653 18.9805 100.54 18.9805 102.285 18.9805Z" fill="white"/>
<path d="M184.67 20.9347C183.37 20.9347 182.087 20.926 180.813 20.9347C179.557 20.9435 178.292 20.8998 177 20.9435C177 21.4321 177 21.877 177 22.3307C177 22.7844 176.992 23.2468 176.983 23.7005C176.983 23.7354 177.009 23.7703 177.018 23.8052C177.088 24.1106 177.157 24.416 177.219 24.7301C177.253 24.922 177.332 25.0791 177.489 25.21C177.707 25.3757 177.698 25.716 177.986 25.8469C178.231 25.9603 178.449 26.1261 178.789 26.3355C179.199 26.3355 179.74 26.3878 180.264 26.318C180.752 26.2569 181.18 25.9603 181.529 25.6026C181.921 25.21 182.148 24.7388 182.139 24.163C182.139 23.9099 182.192 23.6482 182.227 23.4126C183.029 23.465 183.788 23.4737 184.582 23.369C184.766 23.8838 184.67 24.3549 184.539 24.8348C184.504 24.9569 184.443 25.0791 184.417 25.2012C184.076 26.8415 182.986 27.7576 181.485 28.2898C180.368 28.6825 179.217 28.6737 178.091 28.4207C176.887 28.1502 175.927 27.4697 175.308 26.3704C174.802 25.4804 174.531 24.5381 174.531 23.5086C174.54 21.2663 174.531 19.0327 174.54 16.7904C174.54 16.5461 174.549 16.2931 174.557 16.0488C174.584 14.8098 175.063 13.7541 175.919 12.8904C176.564 12.236 177.358 11.7823 178.309 11.6514C179.251 11.5293 180.185 11.5206 181.127 11.7038C181.241 11.7212 181.354 11.7649 181.459 11.8085C182.541 12.236 183.448 12.8642 183.989 13.9461C184.155 14.2776 184.286 14.6005 184.39 14.9494C184.547 15.5253 184.713 16.0924 184.722 16.6944C184.731 17.279 184.722 17.8548 184.722 18.4394C184.722 19.1985 184.722 19.9488 184.722 20.7079C184.713 20.7341 184.696 20.7951 184.67 20.9347ZM182.174 18.9978C182.174 18.5441 182.174 18.1515 182.174 17.7676C182.174 17.5756 182.157 17.3924 182.148 17.2005C182.122 16.7206 182.157 16.2407 182.061 15.7783C181.878 14.8447 181.337 14.1904 180.421 13.8676C180.176 13.7803 179.897 13.8414 179.679 13.6669C179.627 13.6233 179.487 13.632 179.426 13.6756C179.138 13.8676 178.815 13.9025 178.484 13.9025C178.414 13.9025 178.335 13.9286 178.274 13.9635C177.821 14.2689 177.402 14.6005 177.227 15.1414C177.079 15.5864 176.974 16.0313 176.983 16.5025C177 17.2092 176.983 17.9246 176.992 18.6314C176.992 18.7361 177.027 18.8495 177.061 18.9978C178.772 18.9978 180.438 18.9978 182.174 18.9978Z" fill="white"/>
<path d="M69.8828 20.0705C69.8828 18.7792 69.8828 17.4792 69.8828 16.1879C69.8828 15.455 70.1533 14.8007 70.4238 14.1376C70.5285 13.8758 70.6942 13.6228 70.8775 13.3959C71.7499 12.2704 72.8929 11.6771 74.3238 11.651C74.76 11.6422 75.1963 11.6597 75.6325 11.651C76.252 11.6335 76.8453 11.7644 77.395 12.061C78.4071 12.602 79.1661 13.3698 79.6198 14.4691C80.0212 15.4463 80.0735 16.4497 80.091 17.4618C80.1259 19.1631 80.1084 20.8645 80.0997 22.5658C80.0997 23.133 80.0561 23.7001 80.0212 24.2585C80.0124 24.4155 79.9514 24.5726 79.9077 24.7209C79.803 25.0524 79.7071 25.3927 79.5762 25.7068C79.2621 26.4484 78.8608 27.1464 78.154 27.5827C77.648 27.8968 77.1158 28.2021 76.5574 28.3679C75.9554 28.5511 75.3097 28.6297 74.6641 28.5424C74.507 28.5162 74.35 28.5075 74.1842 28.4988C73.111 28.4464 72.1862 28.0102 71.3922 27.3122C70.9124 26.8934 70.6244 26.3263 70.3627 25.7592C70.0399 25.0524 69.8741 24.3108 69.9003 23.5168C69.9352 22.3652 69.909 21.2222 69.909 20.0705C69.8915 20.0705 69.8915 20.0705 69.8828 20.0705ZM77.4909 20.0443C77.4822 18.753 77.4909 17.453 77.4822 16.1617C77.4735 15.4027 77.1419 14.7919 76.5312 14.347C76.1124 14.0416 75.65 13.8933 75.1178 13.8671C74.3761 13.8322 73.748 13.9892 73.1896 14.4778C72.7882 14.8268 72.509 15.2369 72.4567 15.7691C72.3956 16.3362 72.3432 16.8946 72.3345 17.4618C72.3171 18.5785 72.3258 19.7041 72.3171 20.8208C72.3083 21.9551 72.3171 23.0806 72.4479 24.2148C72.5352 24.9477 72.9104 25.4451 73.4949 25.829C74.0097 26.1779 74.5855 26.2303 75.1963 26.2216C76.5399 26.1867 77.5258 24.939 77.4997 23.796C77.4648 22.5484 77.4909 21.3007 77.4909 20.0443Z" fill="white"/>
<path d="M128.803 16.5107C127.931 16.563 127.11 16.5718 126.264 16.5107C126.264 16.3711 126.255 16.2577 126.264 16.1442C126.334 15.4637 126.055 14.9053 125.584 14.4691C124.65 13.6227 123.367 13.5704 122.294 14.2422C121.396 14.8006 121.3 16.1442 121.727 16.8335C122.12 17.4704 122.687 17.8805 123.315 18.2121C123.978 18.561 124.685 18.8402 125.357 19.1805C126.221 19.6255 127.093 20.0705 127.747 20.8295C128.184 21.3356 128.533 21.9114 128.664 22.5832C128.681 22.653 128.698 22.7228 128.725 22.7926C128.951 23.4121 128.986 24.0403 128.803 24.6772C128.69 25.0698 128.637 25.4712 128.489 25.8464C128.018 27.0504 127.137 27.8095 125.924 28.2195C124.746 28.6122 123.551 28.6558 122.355 28.394C121.317 28.1672 120.384 27.7135 119.712 26.8235C119.11 26.0209 118.778 25.1222 118.691 24.1275C118.682 23.9792 118.691 23.8396 118.708 23.6913C118.717 23.6215 118.743 23.5517 118.769 23.4557C119.529 23.2812 120.296 23.4645 121.09 23.3161C121.125 23.5953 121.16 23.8222 121.186 24.049C121.291 25.0349 121.823 25.7068 122.696 26.1256C122.914 26.2303 123.167 26.2652 123.402 26.3088C123.586 26.335 123.786 26.3001 123.969 26.3262C124.851 26.4484 126.046 25.6195 126.325 24.5987C126.456 24.1188 126.439 23.6215 126.221 23.1504C125.941 22.5571 125.479 22.1208 124.964 21.7282C124.301 21.2221 123.533 20.9081 122.783 20.5591C121.814 20.1141 120.907 19.5906 120.131 18.849C119.755 18.4912 119.476 18.0463 119.31 17.5751C118.874 16.2926 118.883 15.01 119.502 13.7623C120.104 12.5758 121.09 11.9214 122.373 11.6422C123.001 11.5026 123.647 11.4502 124.275 11.52C125.13 11.6073 126.011 11.712 126.744 12.2355C127.494 12.7677 128.096 13.4308 128.402 14.312C128.655 15.01 128.637 15.7516 128.803 16.5107Z" fill="white"/>
<path d="M116.834 16.4846C115.996 16.6067 115.22 16.5369 114.417 16.5805C114.382 16.3188 114.356 16.1094 114.338 15.8913C114.269 15.0886 113.832 14.504 113.195 14.0765C112.969 13.9282 112.654 13.8933 112.367 13.8409C111.634 13.7013 110.953 13.8148 110.334 14.2597C109.775 14.6611 109.444 15.2107 109.47 15.8826C109.496 16.4759 109.749 17.0255 110.22 17.4007C110.622 17.7322 111.066 18.0202 111.52 18.2645C112.384 18.7269 113.291 19.137 114.155 19.5994C114.574 19.8262 114.967 20.1141 115.342 20.4021C115.996 20.8994 116.415 21.5625 116.659 22.3477C116.912 23.1504 117.026 23.9531 116.851 24.7907C116.467 26.7276 114.984 28.1236 113.152 28.4203C112.157 28.5773 111.171 28.5511 110.203 28.3679C109.365 28.2021 108.65 27.7397 108.039 27.1377C107.306 26.4048 106.852 25.5323 106.8 24.4766C106.783 24.1189 106.73 23.7612 106.695 23.3685C107.542 23.4296 108.327 23.3162 109.164 23.4122C109.217 23.639 109.295 23.831 109.287 24.0229C109.278 24.6162 109.513 25.131 109.897 25.5236C110.307 25.9511 110.831 26.2652 111.459 26.3001C112.087 26.335 112.698 26.3001 113.274 25.9773C114.277 25.4189 114.853 24.0055 114.077 22.8189C113.693 22.2343 113.195 21.7981 112.593 21.4491C111.677 20.9081 110.7 20.5068 109.766 20.0094C108.754 19.4772 107.934 18.7356 107.402 17.7061C107.332 17.5752 107.28 17.4443 107.245 17.296C107.044 16.345 106.992 15.3852 107.262 14.4429C107.542 13.457 108.117 12.6805 109.034 12.1657C109.81 11.7295 110.639 11.5375 111.529 11.5026C112.332 11.4765 113.134 11.5375 113.885 11.7906C115.228 12.2443 116.11 13.2127 116.52 14.5476C116.712 15.1671 116.729 15.804 116.834 16.4846Z" fill="white"/>
<path d="M90.1492 17.0687C90.0881 16.8593 90.0183 16.6586 89.9834 16.4492C89.9136 16.0915 89.8787 15.7338 89.8089 15.376C89.7828 15.2364 89.7217 15.0881 89.6344 14.9834C89.4425 14.7653 89.2418 14.5559 89.015 14.3727C88.1774 13.727 87.2613 13.7009 86.3103 14.0935C86.1881 14.1458 86.066 14.1895 85.9525 14.2505C85.8478 14.3029 85.7257 14.3465 85.6646 14.4338C85.272 14.9747 84.8881 15.4982 84.8968 16.2311C84.923 18.7351 84.9055 21.2305 84.9055 23.7345C84.9055 23.9265 84.8968 24.1184 84.9404 24.3016C85.1237 25.0171 85.4988 25.5755 86.1707 25.9419C86.7552 26.256 87.3834 26.2996 87.9942 26.1949C88.5351 26.099 89.1022 25.9157 89.3989 25.3486C89.4338 25.2701 89.5123 25.2178 89.5734 25.1567C89.7915 24.9386 89.8962 24.6855 89.9049 24.3802C89.9311 23.9177 89.9573 23.4553 90.2452 22.9754C90.9519 22.8969 91.711 23.054 92.4526 22.9405C92.6009 23.2808 92.5573 23.5862 92.5224 23.8828C92.4177 24.7815 92.217 25.6627 91.7284 26.4392C91.1788 27.3117 90.4197 27.9225 89.4163 28.254C88.2385 28.6466 87.0431 28.6205 85.8478 28.4111C85.5686 28.3674 85.3069 28.2104 85.0451 28.0883C84.2773 27.7393 83.6753 27.1983 83.2129 26.4741C82.6632 25.6104 82.4015 24.6681 82.3928 23.6734C82.3666 21.2915 82.4015 18.9009 82.3753 16.519C82.3666 15.7338 82.5411 15.0009 82.8465 14.3203C83.2827 13.3606 83.9109 12.5317 84.9317 12.0693C85.4552 11.8337 85.9874 11.6592 86.5545 11.6243C86.6941 11.6156 86.8425 11.5807 86.9821 11.5545C87.3136 11.4935 87.6364 11.4586 87.9593 11.5894C88.0901 11.6418 88.2472 11.668 88.3868 11.6505C89.1284 11.572 89.7479 11.8948 90.3324 12.2874C91.3184 12.9505 92.0163 13.8405 92.2781 15.0183C92.3828 15.4895 92.47 15.9606 92.5486 16.4318C92.5747 16.6237 92.5398 16.8331 92.5311 17.0687C91.7371 17.0687 90.9955 17.0687 90.1492 17.0687Z" fill="white"/>
<path d="M187.574 11.7471C188.325 11.7471 189.066 11.7471 189.843 11.7471C189.878 12.0612 189.904 12.3404 189.93 12.6109C189.886 12.7941 189.843 12.9773 189.799 13.1605C189.825 13.1693 189.852 13.178 189.869 13.1867C189.982 13.0558 190.087 12.925 190.201 12.7941C190.392 12.5847 190.593 12.3666 190.803 12.1659C191.335 11.6424 192.033 11.6337 192.705 11.5464C192.975 11.5115 193.254 11.5115 193.577 11.4854C193.621 11.6598 193.699 11.8518 193.699 12.0437C193.69 12.637 193.656 13.2303 193.629 13.8324C193.629 13.9196 193.603 13.9981 193.577 14.129C193.437 14.1028 193.324 14.0767 193.202 14.0505C193.106 14.0243 193.001 13.972 192.914 13.9807C192.26 14.0679 191.631 14.2337 191.134 14.7048C190.419 15.3679 190.174 16.2404 190.078 17.1565C190.017 17.7498 190.043 18.3431 190.043 18.9452C190.043 21.8855 190.043 24.817 190.043 27.7573C190.043 27.8882 190.035 28.0103 190.026 28.1499C189.598 28.2983 189.197 28.1936 188.796 28.2023C188.394 28.211 187.993 28.2023 187.583 28.2023C187.478 27.7835 187.47 12.2182 187.574 11.7471Z" fill="white"/>
<path d="M65.032 28.1585C64.9011 28.2021 64.8487 28.2283 64.7964 28.2283C64.0897 28.2283 63.3742 28.2283 62.6762 28.2283C62.5715 27.8793 62.5366 12.3576 62.6413 11.7294C63.3742 11.6771 64.1246 11.7469 64.9098 11.712C64.9273 12.1657 64.9534 12.5932 64.9796 13.1167C65.1279 13.0033 65.2326 12.9684 65.2588 12.8986C65.4595 12.3489 65.9655 12.1133 66.3843 11.7905C66.4192 11.7643 66.4629 11.7469 66.5065 11.7382C67.126 11.6596 67.7454 11.5724 68.3649 11.5026C68.4783 11.4939 68.5917 11.5375 68.7488 11.5637C68.7488 12.3838 68.7488 13.1778 68.7488 14.0241C68.2078 13.9543 67.6669 14.0154 67.1347 14.1811C66.1662 14.4865 65.6078 15.1671 65.3548 16.1006C65.1105 16.9818 65.0232 17.8892 65.032 18.8141C65.0581 21.4141 65.032 24.0229 65.032 26.6229C65.032 26.9893 65.0407 27.3471 65.0407 27.7135C65.0407 27.8531 65.032 27.9927 65.032 28.1585Z" fill="white"/>
</g>
<path d="M133.371 34.4126C134.469 34.4126 135.432 34.5982 136.261 34.9695C137.099 35.3408 137.743 35.8717 138.192 36.5625C138.651 37.2445 138.88 38.0389 138.88 38.9454C138.88 39.852 138.651 40.6463 138.192 41.3284C137.743 42.0019 137.099 42.5242 136.261 42.8955C135.432 43.2668 134.469 43.4524 133.371 43.4524H129.719V34.4126H133.371ZM133.297 41.9112C134.394 41.9112 135.243 41.6522 135.842 41.1342C136.44 40.6161 136.74 39.8866 136.74 38.9454C136.74 38.0043 136.44 37.2705 135.842 36.7438C135.243 36.2085 134.394 35.9408 133.297 35.9408H131.815V41.9112H133.297Z" fill="#EE9F82"/>
<path d="M143.833 43.569C143.034 43.569 142.316 43.4179 141.677 43.1157C141.038 42.8048 140.534 42.3688 140.165 41.8076C139.806 41.2464 139.626 40.5989 139.626 39.865C139.626 39.1311 139.811 38.4835 140.18 37.9223C140.559 37.3611 141.073 36.9294 141.722 36.6272C142.37 36.3164 143.094 36.161 143.892 36.161C144.691 36.161 145.414 36.3164 146.063 36.6272C146.712 36.9294 147.221 37.3611 147.59 37.9223C147.969 38.4835 148.159 39.1311 148.159 39.865C148.159 40.5989 147.964 41.2464 147.575 41.8076C147.196 42.3688 146.677 42.8048 146.018 43.1157C145.369 43.4179 144.641 43.569 143.833 43.569ZM143.833 41.9889C144.212 41.9889 144.566 41.9112 144.895 41.7558C145.235 41.5918 145.504 41.35 145.704 41.0306C145.903 40.7111 146.003 40.3226 146.003 39.865C146.003 39.1829 145.794 38.6605 145.374 38.2979C144.965 37.9266 144.461 37.741 143.862 37.741C143.264 37.741 142.76 37.9266 142.35 38.2979C141.951 38.6605 141.752 39.1829 141.752 39.865C141.752 40.5471 141.946 41.0737 142.336 41.445C142.735 41.8076 143.234 41.9889 143.833 41.9889Z" fill="#EE9F82"/>
<path d="M162.964 36.1739C163.982 36.1739 164.8 36.4459 165.419 36.9898C166.048 37.5252 166.362 38.2763 166.362 39.2433V43.4524H164.266V39.4894C164.266 38.9282 164.102 38.5008 163.772 38.2072C163.443 37.9051 162.994 37.754 162.425 37.754C161.856 37.754 161.402 37.9051 161.063 38.2072C160.733 38.5008 160.569 38.9282 160.569 39.4894V43.4524H158.473V39.4894C158.473 38.9282 158.308 38.5008 157.979 38.2072C157.65 37.9051 157.2 37.754 156.632 37.754C156.053 37.754 155.594 37.9051 155.254 38.2072C154.925 38.5008 154.76 38.9282 154.76 39.4894V43.4524H152.665V36.2775H154.76V37.1453C155.03 36.8431 155.374 36.6056 155.793 36.433C156.222 36.2603 156.691 36.1739 157.2 36.1739C157.849 36.1739 158.428 36.2948 158.937 36.5366C159.446 36.7697 159.84 37.1064 160.12 37.5467C160.389 37.1323 160.778 36.7999 161.287 36.5495C161.806 36.2991 162.365 36.1739 162.964 36.1739Z" fill="#EE9F82"/>
<path d="M171.734 43.569C170.936 43.569 170.217 43.4179 169.579 43.1157C168.94 42.8048 168.436 42.3688 168.067 41.8076C167.707 41.2464 167.528 40.5989 167.528 39.865C167.528 39.1311 167.712 38.4835 168.082 37.9223C168.461 37.3611 168.975 36.9294 169.623 36.6272C170.272 36.3164 170.996 36.161 171.794 36.161C172.593 36.161 173.316 36.3164 173.965 36.6272C174.613 36.9294 175.122 37.3611 175.492 37.9223C175.871 38.4835 176.061 39.1311 176.061 39.865C176.061 40.5989 175.866 41.2464 175.477 41.8076C175.098 42.3688 174.579 42.8048 173.92 43.1157C173.271 43.4179 172.543 43.569 171.734 43.569ZM171.734 41.9889C172.113 41.9889 172.468 41.9112 172.797 41.7558C173.136 41.5918 173.406 41.35 173.605 41.0306C173.805 40.7111 173.905 40.3226 173.905 39.865C173.905 39.1829 173.695 38.6605 173.276 38.2979C172.867 37.9266 172.363 37.741 171.764 37.741C171.165 37.741 170.661 37.9266 170.252 38.2979C169.853 38.6605 169.653 39.1829 169.653 39.865C169.653 40.5471 169.848 41.0737 170.237 41.445C170.636 41.8076 171.135 41.9889 171.734 41.9889Z" fill="#EE9F82"/>
<path d="M179.394 37.3913C179.664 37.0114 180.013 36.7136 180.442 36.4977C180.881 36.2819 181.38 36.1739 181.939 36.1739V38.0777H181.385C180.727 38.0777 180.228 38.2116 179.888 38.4792C179.559 38.7469 179.394 39.2131 179.394 39.8779V43.4524H177.299V36.2775H179.394V37.3913Z" fill="#EE9F82"/>
<path d="M190.761 39.7096C190.761 39.9686 190.741 40.2017 190.701 40.4089H184.638C184.688 40.9269 184.898 41.3327 185.267 41.6263C185.636 41.9199 186.09 42.0666 186.629 42.0666C187.408 42.0666 187.962 41.7774 188.291 41.1989H190.552C190.312 41.8896 189.853 42.4595 189.174 42.9085C188.496 43.3488 187.662 43.569 186.674 43.569C185.876 43.569 185.157 43.4179 184.519 43.1157C183.89 42.8048 183.396 42.3688 183.037 41.8076C182.687 41.2464 182.513 40.5989 182.513 39.865C182.513 39.1224 182.687 38.4706 183.037 37.9094C183.386 37.3482 183.875 36.9165 184.504 36.6143C185.132 36.3121 185.856 36.161 186.674 36.161C187.463 36.161 188.166 36.3078 188.785 36.6013C189.414 36.8949 189.898 37.3136 190.237 37.8576C190.586 38.3929 190.761 39.0102 190.761 39.7096ZM188.59 39.1915C188.58 38.7253 188.386 38.354 188.007 38.0777C187.627 37.7928 187.163 37.6503 186.614 37.6503C186.095 37.6503 185.656 37.7885 185.297 38.0648C184.948 38.3324 184.733 38.708 184.653 39.1915H188.59Z" fill="#EE9F82"/>
<defs>
<linearGradient id="paint0_linear_151_9790" x1="35.6291" y1="7.82163" x2="3.04217" y2="7.82163" gradientUnits="userSpaceOnUse">
<stop stop-color="#323790"/>
<stop offset="0.47" stop-color="#33A7EE"/>
<stop offset="0.89" stop-color="#3BEBF4"/>
</linearGradient>
<linearGradient id="paint1_linear_151_9790" x1="7.3636" y1="-3.39317" x2="7.3636" y2="49.1826" gradientUnits="userSpaceOnUse">
<stop stop-color="#323790"/>
<stop offset="0.47" stop-color="#33A7EE"/>
<stop offset="0.89" stop-color="#3BEBF4"/>
</linearGradient>
<linearGradient id="paint2_linear_151_9790" x1="31.4771" y1="35.7019" x2="30.8624" y2="6.79903" gradientUnits="userSpaceOnUse">
<stop stop-color="#323790"/>
<stop offset="0.47" stop-color="#33A7EE"/>
<stop offset="0.89" stop-color="#3BEBF4"/>
</linearGradient>
<linearGradient id="paint3_linear_151_9790" x1="-16.0245" y1="32.6552" x2="53.1454" y2="31.4257" gradientUnits="userSpaceOnUse">
<stop stop-color="#323790"/>
<stop offset="0.47" stop-color="#33A7EE"/>
<stop offset="0.89" stop-color="#3BEBF4"/>
</linearGradient>
<clipPath id="clip0_151_9790">
<rect width="38.4905" height="45.7818" fill="white" transform="translate(0 0.458008)"/>
</clipPath>
<clipPath id="clip1_151_9790">
<rect width="144.389" height="27.754" fill="white" transform="translate(49.3047 6.0498)"/>
</clipPath>
</defs>
</svg>
