<svg width="640px" height="512px" viewBox="0 0 640 512" version="1.1" xmlns="http://www.w3.org/2000/svg" xmlns:xlink="http://www.w3.org/1999/xlink">
    <g id="Page-1" stroke="none" stroke-width="1" fill="none" fill-rule="evenodd">
        <path d="M496,224 C416.4,224 352,288.4 352,368 C352,447.6 416.4,512 496,512 C575.6,512 640,447.6 640,368 C640,288.4 575.6,224 496,224 Z M496.16879,276.00015 C520.752452,276.044295 543.072839,285.731738 559.551968,301.480048 L572.801081,288.230946 C578.410113,282.622289 588,286.594609 588,294.526635 L588,344.258159 C588,349.175332 584.013952,353.161377 579.096774,353.161377 L529.36521,353.161377 C521.433177,353.161377 517.460855,343.571498 523.069516,337.96247 L538.557419,322.47458 C527.107871,311.753991 512.292532,305.815545 496.552742,305.679771 C462.276065,305.383739 433.383242,333.122829 433.679645,368.537236 C433.960839,402.132418 461.19729,430.322605 496,430.322605 C511.25679,430.322605 525.676306,424.877545 537.03979,414.906682 C538.79929,413.363086 541.456532,413.456941 543.11179,415.111827 L557.825113,429.825137 C559.632468,431.632491 559.543065,434.579085 557.646306,436.292213 C541.333,451.027411 519.714484,460 496,460 C445.190032,460 404.000371,418.810372 404,368.000817 C403.999629,317.249132 445.417065,275.909263 496.16879,276.00015 Z M320,368 C320,340.2 326.7,313.9 338.2,290.5 C330.2,289 322,288 313.6,288 L296.9,288 C274.7,298.2 250,304 224,304 C198,304 173.4,298.2 151.1,288 L134.4,288 C60.2,288 0,348.2 0,422.4 L0,464 C0,490.5 21.5,512 48,512 L395.1,512 C349.8,480.1 320,427.5 320,368 Z M224,256 C294.7,256 352,198.7 352,128 C352,57.3 294.7,-1.42108547e-14 224,-1.42108547e-14 C153.3,-1.42108547e-14 96,57.3 96,128 C96,198.7 153.3,256 224,256 Z" id="Shape" fill="#000000" fill-rule="nonzero"></path>
    </g>
</svg>
