<svg width="214" height="195" viewBox="0 0 214 195" fill="none" xmlns="http://www.w3.org/2000/svg">
<g id="Frame 2786">
<path id="Vector" d="M111.5 28.7962C111.5 28.7962 80.3424 77.5972 33.26 79.2162C-13.8224 80.8351 -9.74177 135.032 38.0544 147.286C85.8506 159.539 64.8593 187.108 96.3193 193.531C132.076 200.831 129.965 153.588 154.829 152.762C209.705 150.938 211.336 138.761 214 120.642C214 87.9716 173.703 65.1496 174.921 37.3699C177.078 -11.816 133.5 -7.20312 111.5 28.7962Z" fill="#DEEDFF"/>
<path id="Vector 294" d="M43.1274 73.2978C43.5274 75.2978 57.9608 131.464 65.1274 159.298L174.627 132.297C170.794 109.963 163.027 64.7961 162.627 62.7961C162.127 60.2961 159.127 56.2961 153.127 57.7961C147.127 59.2961 104.627 69.7961 100.627 70.7961C96.627 71.7961 95.127 69.2961 94.627 67.7961C94.127 66.2961 93.627 64.2978 92.627 61.2978C91.627 58.2978 89.627 57.2978 87.627 57.7978L45.6274 68.2978C43.6274 68.7978 42.6274 70.7978 43.1274 73.2978Z" fill="#418CD1"/>
<path id="Vector 293" d="M68.6273 97.795C68.2273 102.995 65.7939 136.628 64.6273 152.795C63.7605 164.793 73.1273 169.797 81.1273 167.797C89.1273 165.797 165.627 145.797 171.627 143.797C177.627 141.797 179.127 137.797 179.627 132.297C180.127 126.797 183.127 78.295 183.127 73.795C183.127 69.295 178.627 64.295 173.127 65.795C167.627 67.295 79.6273 88.295 77.6273 88.795C75.6273 89.295 69.1273 91.295 68.6273 97.795Z" fill="#6FB5F7"/>
</g>
</svg>
