<svg width="244" height="219" viewBox="0 0 244 219" fill="none" xmlns="http://www.w3.org/2000/svg">
<g id="Group">
<path id="Vector" d="M109.873 17.7115C109.873 17.7115 100.654 65.2052 47.6423 67.0816C-5.36911 68.958 -19.8755 145.421 33.9396 159.624C87.7546 173.826 61.2433 210.583 96.665 218.028C136.924 226.489 137.424 166.928 165.419 165.97C227.206 163.857 259.18 135.56 236.835 112.608C197.611 72.3195 177.403 78.8138 178.775 46.6171C180.148 14.4204 122.105 -21.0875 109.873 17.7115Z" fill="#DEEDFF"/>
<g id="Group_2">
<path id="Vector_2" d="M170.664 51.9137L44.8239 77.8846C40.8146 78.712 38.2352 82.633 39.0627 86.6423L55.2711 165.179C56.0985 169.188 60.0195 171.768 64.0288 170.94L189.869 144.969C193.878 144.142 196.457 140.221 195.63 136.212L179.422 57.675C178.594 53.6657 174.673 51.0863 170.664 51.9137Z" fill="#4EA1EE"/>
<path id="Vector_3" d="M67.6428 82.0514L53.1497 85.0425C50.7441 85.5389 49.1964 87.8915 49.6929 90.2971L52.684 104.79C53.1804 107.196 55.533 108.743 57.9386 108.247L72.4318 105.256C74.8374 104.759 76.385 102.407 75.8886 100.001L72.8975 85.5081C72.401 83.1026 70.0484 81.5549 67.6428 82.0514Z" fill="white"/>
<path id="Vector_4" d="M108.961 122.52L60.0589 132.612C59.8986 132.645 59.7954 132.802 59.8285 132.962L61.308 140.131C61.3411 140.291 61.4979 140.395 61.6583 140.361L110.56 130.269C110.72 130.236 110.824 130.079 110.79 129.919L109.311 122.75C109.278 122.59 109.121 122.487 108.961 122.52Z" fill="white"/>
<path id="Vector_5" d="M132.97 133.163L63.1478 147.573C62.9874 147.606 62.8843 147.763 62.9174 147.923L64.3968 155.092C64.4299 155.252 64.5868 155.355 64.7471 155.322L134.569 140.913C134.73 140.879 134.833 140.723 134.8 140.562L133.32 133.394C133.287 133.233 133.13 133.13 132.97 133.163Z" fill="white"/>
<path id="Vector_6" d="M193.818 165.339C205.479 165.339 214.933 155.886 214.933 144.224C214.933 132.563 205.479 123.109 193.818 123.109C182.157 123.109 172.703 132.563 172.703 144.224C172.703 155.886 182.157 165.339 193.818 165.339Z" fill="#3293E7" stroke="white" stroke-width="12.4573" stroke-miterlimit="10"/>
<path id="Vector_7" d="M187.423 146.304L192.335 149.893C192.82 150.248 193.502 150.155 193.874 149.681L201.285 140.27C201.667 139.782 201.584 139.08 201.097 138.697C200.611 138.315 199.909 138.398 199.526 138.883L192.784 147.449L188.744 144.496C188.245 144.132 187.544 144.241 187.179 144.74C186.815 145.24 186.924 145.939 187.423 146.304Z" fill="white"/>
</g>
</g>
</svg>
