<svg width="16" height="16" viewBox="0 0 16 16" fill="none" xmlns="http://www.w3.org/2000/svg">
<g clip-path="url(#clip0_8485_6793)">
<path d="M13 6.49878C13 7.93315 12.5344 9.25815 11.75 10.3332L15.7063 14.2925C16.0969 14.6832 16.0969 15.3175 15.7063 15.7082C15.3156 16.0988 14.6812 16.0988 14.2906 15.7082L10.3344 11.7488C9.25938 12.5363 7.93437 12.9988 6.5 12.9988C2.90937 12.9988 0 10.0894 0 6.49878C0 2.90815 2.90937 -0.0012207 6.5 -0.0012207C10.0906 -0.0012207 13 2.90815 13 6.49878ZM6.5 10.9988C7.09095 10.9988 7.67611 10.8824 8.22208 10.6562C8.76804 10.4301 9.26412 10.0986 9.68198 9.68076C10.0998 9.2629 10.4313 8.76682 10.6575 8.22085C10.8836 7.67489 11 7.08973 11 6.49878C11 5.90783 10.8836 5.32267 10.6575 4.7767C10.4313 4.23074 10.0998 3.73466 9.68198 3.3168C9.26412 2.89894 8.76804 2.56747 8.22208 2.34132C7.67611 2.11518 7.09095 1.99878 6.5 1.99878C5.90905 1.99878 5.32389 2.11518 4.77792 2.34132C4.23196 2.56747 3.73588 2.89894 3.31802 3.3168C2.90016 3.73466 2.56869 4.23074 2.34254 4.7767C2.1164 5.32267 2 5.90783 2 6.49878C2 7.08973 2.1164 7.67489 2.34254 8.22085C2.56869 8.76682 2.90016 9.2629 3.31802 9.68076C3.73588 10.0986 4.23196 10.4301 4.77792 10.6562C5.32389 10.8824 5.90905 10.9988 6.5 10.9988Z" fill="#6A7888"/>
</g>
<defs>
<clipPath id="clip0_8485_6793">
<rect width="16" height="16" fill="white"/>
</clipPath>
</defs>
</svg>
