<svg width="522" height="113" viewBox="0 0 522 113" fill="none" xmlns="http://www.w3.org/2000/svg">
<path d="M15.6885 41.4013C13.0515 41.4013 10.7202 40.9427 8.69467 40.0255C6.70737 39.1082 5.14045 37.8279 3.99392 36.1846C2.8474 34.5412 2.23592 32.7068 2.15949 30.6813H6.40163C6.59271 32.6304 7.45261 34.3502 8.9813 35.8406C10.51 37.2929 12.7457 38.019 15.6885 38.019C18.4019 38.019 20.5421 37.3311 22.109 35.9553C23.7141 34.5412 24.5167 32.7641 24.5167 30.624C24.5167 28.9042 24.0772 27.5283 23.1982 26.4965C22.3192 25.4264 21.23 24.6429 19.9306 24.1461C18.6312 23.6111 16.835 23.0378 14.5419 22.4263C11.8667 21.7002 9.74565 20.9932 8.17874 20.3052C6.61182 19.6173 5.27421 18.5472 4.1659 17.095C3.0576 15.6427 2.50344 13.6745 2.50344 11.1904C2.50344 9.12663 3.03849 7.29219 4.10858 5.68706C5.17867 4.04371 6.68826 2.76342 8.63735 1.8462C10.5864 0.928983 12.8222 0.470374 15.3445 0.470374C19.0516 0.470374 22.0326 1.38759 24.2874 3.22203C26.5805 5.01825 27.899 7.34952 28.2429 10.2158H23.8861C23.6186 8.57248 22.7205 7.12021 21.1918 5.85904C19.6631 4.55964 17.5993 3.90995 15.0006 3.90995C12.5929 3.90995 10.5864 4.55964 8.9813 5.85904C7.37617 7.12021 6.5736 8.85911 6.5736 11.0757C6.5736 12.7573 7.0131 14.114 7.89211 15.1459C8.77111 16.1778 9.86031 16.9612 11.1597 17.4963C12.4973 18.0313 14.2935 18.6046 16.5484 19.216C19.1472 19.9422 21.2491 20.6683 22.8542 21.3944C24.4594 22.0824 25.8161 23.1524 26.9244 24.6047C28.0327 26.057 28.5869 28.0061 28.5869 30.452C28.5869 32.3246 28.09 34.1017 27.0964 35.7833C26.1027 37.4649 24.6314 38.8216 22.6823 39.8535C20.7332 40.8853 18.4019 41.4013 15.6885 41.4013ZM72.4566 9.12663C76.1255 9.12663 79.1065 10.2923 81.3995 12.6235C83.7308 14.9166 84.8964 18.2606 84.8964 22.6556V41H80.9409V23.1142C80.9409 19.7129 80.1192 17.1141 78.4759 15.3179C76.8325 13.5216 74.5968 12.6235 71.7687 12.6235C68.826 12.6235 66.4756 13.5981 64.7176 15.5472C62.9596 17.4963 62.0806 20.3243 62.0806 24.0314V41H58.1251V23.1142C58.1251 19.7129 57.3034 17.1141 55.6601 15.3179C54.0167 13.5216 51.7619 12.6235 48.8956 12.6235C45.9528 12.6235 43.6025 13.5981 41.8444 15.5472C40.0864 17.4963 39.2074 20.3243 39.2074 24.0314V41H35.1946V9.69989H39.2074V15.0886C40.2011 13.1395 41.6151 11.6681 43.4496 10.6744C45.284 9.64256 47.3287 9.12663 49.5835 9.12663C52.2969 9.12663 54.6664 9.77633 56.6919 11.0757C58.7557 12.3751 60.2462 14.286 61.1634 16.8083C62.0042 14.3242 63.4373 12.4324 65.4628 11.133C67.5266 9.79543 69.8579 9.12663 72.4566 9.12663ZM90.8274 25.2926C90.8274 22.0824 91.458 19.2734 92.7192 16.8657C94.0186 14.4197 95.7957 12.5471 98.0506 11.2477C100.344 9.91009 102.923 9.24128 105.79 9.24128C108.771 9.24128 111.331 9.9292 113.471 11.305C115.65 12.6809 117.217 14.4389 118.172 16.579V9.69989H122.185V41H118.172V34.0635C117.178 36.2037 115.592 37.9808 113.414 39.3949C111.274 40.7707 108.713 41.4586 105.732 41.4586C102.904 41.4586 100.344 40.7898 98.0506 39.4522C95.7957 38.1146 94.0186 36.2228 92.7192 33.7769C91.458 31.331 90.8274 28.5029 90.8274 25.2926ZM118.172 25.3499C118.172 22.8276 117.656 20.611 116.624 18.7001C115.592 16.7892 114.178 15.3179 112.382 14.286C110.624 13.2541 108.675 12.7382 106.535 12.7382C104.318 12.7382 102.331 13.235 100.573 14.2287C98.8149 15.2223 97.42 16.6746 96.3881 18.5855C95.3944 20.4581 94.8976 22.6938 94.8976 25.2926C94.8976 27.8532 95.3944 30.108 96.3881 32.0571C97.42 33.968 98.8149 35.4394 100.573 36.4712C102.331 37.4649 104.318 37.9617 106.535 37.9617C108.675 37.9617 110.624 37.4458 112.382 36.4139C114.178 35.382 115.592 33.9107 116.624 31.9998C117.656 30.0889 118.172 27.8723 118.172 25.3499ZM134.212 15.2605C135.091 13.3114 136.429 11.8019 138.225 10.7318C140.059 9.66167 142.295 9.12663 144.932 9.12663V13.3114H143.843C140.938 13.3114 138.607 14.0949 136.849 15.6618C135.091 17.2287 134.212 19.8466 134.212 23.5155V41H130.199V9.69989H134.212V15.2605ZM155.039 13.0821V32.5157C155.039 34.4266 155.402 35.7451 156.128 36.4712C156.854 37.1974 158.135 37.5604 159.969 37.5604H163.638V41H159.339C156.51 41 154.408 40.3503 153.033 39.0509C151.657 37.7133 150.969 35.5349 150.969 32.5157V13.0821H146.612V9.69989H150.969V1.8462H155.039V9.69989H163.638V13.0821H155.039ZM197.429 23.7448C197.429 25.1206 197.39 26.1716 197.314 26.8978H171.345C171.46 29.2672 172.033 31.2928 173.065 32.9743C174.097 34.6559 175.454 35.9362 177.135 36.8152C178.817 37.656 180.651 38.0764 182.639 38.0764C185.237 38.0764 187.416 37.4458 189.174 36.1846C190.97 34.9234 192.155 33.2227 192.728 31.0826H196.97C196.206 34.14 194.562 36.6432 192.04 38.5923C189.556 40.5032 186.422 41.4586 182.639 41.4586C179.696 41.4586 177.059 40.8089 174.727 39.5095C172.396 38.1719 170.562 36.2993 169.224 33.8916C167.925 31.4456 167.275 28.5984 167.275 25.3499C167.275 22.1015 167.925 19.2543 169.224 16.8083C170.524 14.3624 172.339 12.4898 174.67 11.1904C177.001 9.89098 179.658 9.24128 182.639 9.24128C185.619 9.24128 188.218 9.89098 190.435 11.1904C192.69 12.4898 194.409 14.2478 195.594 16.4644C196.817 18.6428 197.429 21.0696 197.429 23.7448ZM193.359 23.6302C193.397 21.2989 192.919 19.3116 191.925 17.6682C190.97 16.0249 189.651 14.7828 187.97 13.942C186.288 13.1012 184.454 12.6809 182.467 12.6809C179.486 12.6809 176.944 13.6363 174.842 15.5472C172.74 17.458 171.575 20.1524 171.345 23.6302H193.359ZM207.637 15.2605C208.516 13.3114 209.853 11.8019 211.65 10.7318C213.484 9.66167 215.72 9.12663 218.357 9.12663V13.3114H217.268C214.363 13.3114 212.032 14.0949 210.274 15.6618C208.516 17.2287 207.637 19.8466 207.637 23.5155V41H203.624V9.69989H207.637V15.2605ZM241.787 16.579C242.781 14.4771 244.348 12.7382 246.488 11.3624C248.666 9.94831 251.246 9.24128 254.227 9.24128C257.055 9.24128 259.596 9.91009 261.851 11.2477C264.144 12.5471 265.921 14.4197 267.183 16.8657C268.482 19.2734 269.132 22.0824 269.132 25.2926C269.132 28.5029 268.482 31.331 267.183 33.7769C265.921 36.2228 264.144 38.1146 261.851 39.4522C259.596 40.7898 257.055 41.4586 254.227 41.4586C251.284 41.4586 248.724 40.7707 246.545 39.3949C244.367 37.9808 242.781 36.2228 241.787 34.1209V55.7902H237.832V9.69989H241.787V16.579ZM265.061 25.2926C265.061 22.6938 264.546 20.4581 263.514 18.5855C262.52 16.6746 261.144 15.2223 259.386 14.2287C257.628 13.235 255.641 12.7382 253.424 12.7382C251.284 12.7382 249.316 13.2541 247.52 14.286C245.762 15.3179 244.367 16.7892 243.335 18.7001C242.303 20.611 241.787 22.8276 241.787 25.3499C241.787 27.8723 242.303 30.0889 243.335 31.9998C244.367 33.9107 245.762 35.382 247.52 36.4139C249.316 37.4458 251.284 37.9617 253.424 37.9617C255.641 37.9617 257.628 37.4649 259.386 36.4712C261.144 35.4394 262.52 33.968 263.514 32.0571C264.546 30.108 265.061 27.8532 265.061 25.2926ZM279.382 15.2605C280.261 13.3114 281.598 11.8019 283.395 10.7318C285.229 9.66167 287.465 9.12663 290.102 9.12663V13.3114H289.013C286.108 13.3114 283.777 14.0949 282.019 15.6618C280.261 17.2287 279.382 19.8466 279.382 23.5155V41H275.369V9.69989H279.382V15.2605ZM308.693 41.4586C305.75 41.4586 303.094 40.8089 300.725 39.5095C298.393 38.1719 296.54 36.2993 295.164 33.8916C293.826 31.4456 293.158 28.5984 293.158 25.3499C293.158 22.1015 293.846 19.2734 295.221 16.8657C296.597 14.4197 298.47 12.5471 300.839 11.2477C303.209 9.91009 305.865 9.24128 308.808 9.24128C311.75 9.24128 314.407 9.91009 316.776 11.2477C319.184 12.5471 321.056 14.4197 322.394 16.8657C323.77 19.2734 324.458 22.1015 324.458 25.3499C324.458 28.5602 323.77 31.3883 322.394 33.8342C321.018 36.2801 319.126 38.1719 316.719 39.5095C314.311 40.8089 311.636 41.4586 308.693 41.4586ZM308.693 37.9617C310.757 37.9617 312.668 37.5031 314.426 36.5859C316.184 35.6304 317.598 34.2164 318.668 32.3437C319.776 30.4329 320.33 28.1016 320.33 25.3499C320.33 22.5983 319.795 20.2861 318.725 18.4135C317.655 16.5026 316.241 15.0886 314.483 14.1713C312.725 13.2159 310.814 12.7382 308.75 12.7382C306.687 12.7382 304.776 13.2159 303.018 14.1713C301.26 15.0886 299.846 16.5026 298.776 18.4135C297.744 20.2861 297.228 22.5983 297.228 25.3499C297.228 28.1016 297.744 30.4329 298.776 32.3437C299.846 34.2164 301.241 35.6304 302.96 36.5859C304.718 37.5031 306.629 37.9617 308.693 37.9617ZM328.792 25.3499C328.792 22.1015 329.441 19.2734 330.741 16.8657C332.04 14.4197 333.836 12.5471 336.129 11.2477C338.422 9.91009 341.04 9.24128 343.983 9.24128C347.843 9.24128 351.015 10.1967 353.499 12.1076C356.022 14.0185 357.646 16.6173 358.372 19.904H354.073C353.537 17.6491 352.372 15.8911 350.576 14.6299C348.818 13.3306 346.62 12.6809 343.983 12.6809C341.881 12.6809 339.989 13.1586 338.308 14.114C336.626 15.0694 335.289 16.5026 334.295 18.4135C333.34 20.2861 332.862 22.5983 332.862 25.3499C332.862 28.1016 333.34 30.4329 334.295 32.3437C335.289 34.2546 336.626 35.6878 338.308 36.6432C339.989 37.5986 341.881 38.0764 343.983 38.0764C346.62 38.0764 348.818 37.4458 350.576 36.1846C352.372 34.8852 353.537 33.089 354.073 30.7959H358.372C357.646 34.0062 356.022 36.5859 353.499 38.535C350.977 40.4841 347.805 41.4586 343.983 41.4586C341.04 41.4586 338.422 40.8089 336.129 39.5095C333.836 38.1719 332.04 36.2993 330.741 33.8916C329.441 31.4456 328.792 28.5984 328.792 25.3499ZM392.956 23.7448C392.956 25.1206 392.918 26.1716 392.841 26.8978H366.872C366.987 29.2672 367.56 31.2928 368.592 32.9743C369.624 34.6559 370.981 35.9362 372.662 36.8152C374.344 37.656 376.178 38.0764 378.166 38.0764C380.764 38.0764 382.943 37.4458 384.701 36.1846C386.497 34.9234 387.682 33.2227 388.255 31.0826H392.497C391.733 34.14 390.089 36.6432 387.567 38.5923C385.083 40.5032 381.949 41.4586 378.166 41.4586C375.223 41.4586 372.586 40.8089 370.255 39.5095C367.923 38.1719 366.089 36.2993 364.751 33.8916C363.452 31.4456 362.802 28.5984 362.802 25.3499C362.802 22.1015 363.452 19.2543 364.751 16.8083C366.051 14.3624 367.866 12.4898 370.197 11.1904C372.529 9.89098 375.185 9.24128 378.166 9.24128C381.147 9.24128 383.745 9.89098 385.962 11.1904C388.217 12.4898 389.937 14.2478 391.121 16.4644C392.344 18.6428 392.956 21.0696 392.956 23.7448ZM388.886 23.6302C388.924 21.2989 388.446 19.3116 387.452 17.6682C386.497 16.0249 385.179 14.7828 383.497 13.942C381.815 13.1012 379.981 12.6809 377.994 12.6809C375.013 12.6809 372.471 13.6363 370.369 15.5472C368.267 17.458 367.102 20.1524 366.872 23.6302H388.886ZM409.928 41.4586C406.336 41.4586 403.393 40.6369 401.1 38.9936C398.845 37.312 397.584 35.0381 397.317 32.1718H401.444C401.635 33.9298 402.457 35.3629 403.909 36.4712C405.4 37.5413 407.387 38.0764 409.871 38.0764C412.049 38.0764 413.75 37.5604 414.973 36.5286C416.234 35.4967 416.865 34.2164 416.865 32.6877C416.865 31.6176 416.521 30.7386 415.833 30.0507C415.145 29.3628 414.266 28.8277 413.196 28.4456C412.164 28.0252 410.75 27.5857 408.954 27.1271C406.623 26.5156 404.731 25.9041 403.279 25.2926C401.826 24.6811 400.584 23.783 399.552 22.5983C398.559 21.3753 398.062 19.7511 398.062 17.7256C398.062 16.1969 398.52 14.7828 399.438 13.4834C400.355 12.184 401.654 11.1522 403.336 10.3878C405.017 9.62346 406.928 9.24128 409.069 9.24128C412.432 9.24128 415.145 10.1012 417.209 11.821C419.273 13.5025 420.381 15.8338 420.534 18.8148H416.521C416.406 16.9803 415.68 15.5089 414.343 14.4006C413.043 13.2541 411.247 12.6809 408.954 12.6809C406.928 12.6809 405.285 13.1586 404.024 14.114C402.763 15.0694 402.132 16.2542 402.132 17.6682C402.132 18.8912 402.495 19.904 403.221 20.7065C403.986 21.4709 404.922 22.0824 406.03 22.541C407.139 22.9614 408.629 23.4391 410.502 23.9741C412.756 24.5856 414.553 25.178 415.89 25.7512C417.228 26.3245 418.374 27.1653 419.33 28.2736C420.285 29.3819 420.782 30.8533 420.82 32.6877C420.82 34.3693 420.362 35.8789 419.445 37.2165C418.527 38.5159 417.247 39.5477 415.604 40.3121C413.96 41.0764 412.069 41.4586 409.928 41.4586ZM438.005 41.4586C434.412 41.4586 431.47 40.6369 429.177 38.9936C426.922 37.312 425.661 35.0381 425.393 32.1718H429.521C429.712 33.9298 430.533 35.3629 431.986 36.4712C433.476 37.5413 435.463 38.0764 437.947 38.0764C440.126 38.0764 441.827 37.5604 443.049 36.5286C444.311 35.4967 444.941 34.2164 444.941 32.6877C444.941 31.6176 444.597 30.7386 443.909 30.0507C443.221 29.3628 442.342 28.8277 441.272 28.4456C440.241 28.0252 438.826 27.5857 437.03 27.1271C434.699 26.5156 432.807 25.9041 431.355 25.2926C429.903 24.6811 428.661 23.783 427.629 22.5983C426.635 21.3753 426.138 19.7511 426.138 17.7256C426.138 16.1969 426.597 14.7828 427.514 13.4834C428.431 12.184 429.731 11.1522 431.412 10.3878C433.094 9.62346 435.005 9.24128 437.145 9.24128C440.508 9.24128 443.221 10.1012 445.285 11.821C447.349 13.5025 448.457 15.8338 448.61 18.8148H444.597C444.483 16.9803 443.757 15.5089 442.419 14.4006C441.12 13.2541 439.323 12.6809 437.03 12.6809C435.005 12.6809 433.361 13.1586 432.1 14.114C430.839 15.0694 430.208 16.2542 430.208 17.6682C430.208 18.8912 430.571 19.904 431.298 20.7065C432.062 21.4709 432.998 22.0824 434.107 22.541C435.215 22.9614 436.705 23.4391 438.578 23.9741C440.833 24.5856 442.629 25.178 443.967 25.7512C445.304 26.3245 446.451 27.1653 447.406 28.2736C448.362 29.3819 448.859 30.8533 448.897 32.6877C448.897 34.3693 448.438 35.8789 447.521 37.2165C446.604 38.5159 445.323 39.5477 443.68 40.3121C442.037 41.0764 440.145 41.4586 438.005 41.4586ZM483.623 23.7448C483.623 25.1206 483.585 26.1716 483.508 26.8978H457.54C457.654 29.2672 458.228 31.2928 459.259 32.9743C460.291 34.6559 461.648 35.9362 463.33 36.8152C465.011 37.656 466.846 38.0764 468.833 38.0764C471.432 38.0764 473.61 37.4458 475.368 36.1846C477.164 34.9234 478.349 33.2227 478.922 31.0826H483.164C482.4 34.14 480.757 36.6432 478.234 38.5923C475.75 40.5032 472.616 41.4586 468.833 41.4586C465.89 41.4586 463.253 40.8089 460.922 39.5095C458.591 38.1719 456.756 36.2993 455.419 33.8916C454.119 31.4456 453.469 28.5984 453.469 25.3499C453.469 22.1015 454.119 19.2543 455.419 16.8083C456.718 14.3624 458.533 12.4898 460.865 11.1904C463.196 9.89098 465.852 9.24128 468.833 9.24128C471.814 9.24128 474.413 9.89098 476.629 11.1904C478.884 12.4898 480.604 14.2478 481.789 16.4644C483.012 18.6428 483.623 21.0696 483.623 23.7448ZM479.553 23.6302C479.591 21.2989 479.113 19.3116 478.12 17.6682C477.164 16.0249 475.846 14.7828 474.164 13.942C472.483 13.1012 470.648 12.6809 468.661 12.6809C465.68 12.6809 463.138 13.6363 461.036 15.5472C458.935 17.458 457.769 20.1524 457.54 23.6302H479.553ZM500.596 41.4586C497.003 41.4586 494.06 40.6369 491.767 38.9936C489.513 37.312 488.251 35.0381 487.984 32.1718H492.111C492.302 33.9298 493.124 35.3629 494.576 36.4712C496.067 37.5413 498.054 38.0764 500.538 38.0764C502.717 38.0764 504.417 37.5604 505.64 36.5286C506.901 35.4967 507.532 34.2164 507.532 32.6877C507.532 31.6176 507.188 30.7386 506.5 30.0507C505.812 29.3628 504.933 28.8277 503.863 28.4456C502.831 28.0252 501.417 27.5857 499.621 27.1271C497.29 26.5156 495.398 25.9041 493.946 25.2926C492.493 24.6811 491.251 23.783 490.22 22.5983C489.226 21.3753 488.729 19.7511 488.729 17.7256C488.729 16.1969 489.188 14.7828 490.105 13.4834C491.022 12.184 492.322 11.1522 494.003 10.3878C495.685 9.62346 497.596 9.24128 499.736 9.24128C503.099 9.24128 505.812 10.1012 507.876 11.821C509.94 13.5025 511.048 15.8338 511.201 18.8148H507.188C507.073 16.9803 506.347 15.5089 505.01 14.4006C503.71 13.2541 501.914 12.6809 499.621 12.6809C497.596 12.6809 495.952 13.1586 494.691 14.114C493.43 15.0694 492.799 16.2542 492.799 17.6682C492.799 18.8912 493.162 19.904 493.888 20.7065C494.653 21.4709 495.589 22.0824 496.697 22.541C497.806 22.9614 499.296 23.4391 501.169 23.9741C503.424 24.5856 505.22 25.178 506.558 25.7512C507.895 26.3245 509.042 27.1653 509.997 28.2736C510.953 29.3819 511.449 30.8533 511.488 32.6877C511.488 34.3693 511.029 35.8789 510.112 37.2165C509.195 38.5159 507.914 39.5477 506.271 40.3121C504.628 41.0764 502.736 41.4586 500.596 41.4586ZM521.564 34.3502L515.602 49.3696H512.85L517.092 34.3502H521.564Z" fill="white"/>
<path d="M32.4277 95.4327C32.4277 96.5793 32.3513 97.6111 32.1984 98.5283H8.9813C9.17239 100.821 9.97496 102.618 11.389 103.917C12.8031 105.216 14.5419 105.866 16.6057 105.866C19.5867 105.866 21.7077 104.586 22.9689 102.025H31.6252C30.7079 105.083 28.9499 107.605 26.3511 109.592C23.7524 111.541 20.5612 112.516 16.7777 112.516C13.7203 112.516 10.9686 111.847 8.5227 110.51C6.11499 109.134 4.22323 107.204 2.8474 104.72C1.50979 102.235 0.840983 99.3691 0.840983 96.1206C0.840983 92.8339 1.50979 89.9485 2.8474 87.4644C4.18501 84.9802 6.05767 83.0694 8.46537 81.7318C10.8731 80.3942 13.6438 79.7253 16.7777 79.7253C19.7968 79.7253 22.4912 80.375 24.8607 81.6744C27.2684 82.9738 29.1219 84.8274 30.4213 87.2351C31.7589 89.6046 32.4277 92.3371 32.4277 95.4327ZM24.1154 93.1397C24.0772 91.0759 23.332 89.4326 21.8797 88.2096C20.4274 86.9484 18.6503 86.3179 16.5484 86.3179C14.5611 86.3179 12.8795 86.9293 11.5037 88.1523C10.166 89.337 9.34437 90.9995 9.03863 93.1397H24.1154ZM35.0755 96.006C35.0755 92.7957 35.7061 89.9485 36.9672 87.4644C38.2666 84.9802 40.0055 83.0694 42.1839 81.7318C44.4005 80.3942 46.8656 79.7253 49.579 79.7253C51.9485 79.7253 54.0122 80.2031 55.7702 81.1585C57.5665 82.1139 58.9996 83.3178 60.0697 84.7701V80.2413H68.1527V112H60.0697V107.357C59.0378 108.847 57.6047 110.089 55.7702 111.083C53.974 112.038 51.8912 112.516 49.5217 112.516C46.8465 112.516 44.4005 111.828 42.1839 110.452C40.0055 109.076 38.2666 107.146 36.9672 104.662C35.7061 102.14 35.0755 99.2545 35.0755 96.006ZM60.0697 96.1206C60.0697 94.1716 59.6875 92.5091 58.9232 91.1333C58.1588 89.7192 57.127 88.6491 55.8276 87.923C54.5282 87.1586 53.1332 86.7765 51.6428 86.7765C50.1523 86.7765 48.7764 87.1395 47.5153 87.8657C46.2541 88.5918 45.2222 89.6619 44.4196 91.0759C43.6553 92.4518 43.2731 94.0951 43.2731 96.006C43.2731 97.9169 43.6553 99.5984 44.4196 101.051C45.2222 102.465 46.2541 103.554 47.5153 104.318C48.8147 105.083 50.1905 105.465 51.6428 105.465C53.1332 105.465 54.5282 105.102 55.8276 104.376C57.127 103.611 58.1588 102.541 58.9232 101.165C59.6875 99.7513 60.0697 98.0697 60.0697 96.1206ZM86.9978 112.516C84.399 112.516 82.0677 112.057 80.004 111.14C77.9402 110.185 76.2969 108.904 75.0739 107.299C73.8892 105.694 73.2395 103.917 73.1248 101.968H81.2078C81.3607 103.191 81.9531 104.204 82.985 105.006C84.055 105.809 85.3735 106.21 86.9405 106.21C88.4692 106.21 89.6539 105.904 90.4947 105.293C91.3737 104.681 91.8132 103.898 91.8132 102.942C91.8132 101.911 91.2781 101.146 90.2081 100.649C89.1762 100.114 87.5137 99.5411 85.2207 98.9296C82.8512 98.3564 80.9021 97.764 79.3734 97.1525C77.8829 96.541 76.5835 95.6047 75.4752 94.3435C74.4051 93.0824 73.8701 91.3817 73.8701 89.2415C73.8701 87.4835 74.3669 85.8784 75.3606 84.4261C76.3924 82.9738 77.8447 81.8273 79.7174 80.9865C81.6282 80.1457 83.864 79.7253 86.4245 79.7253C90.2081 79.7253 93.2272 80.6808 95.4821 82.5917C97.7369 84.4643 98.979 87.0058 99.2083 90.216H91.5266C91.4119 88.9549 90.8769 87.9612 89.9214 87.2351C89.0042 86.4707 87.7621 86.0886 86.1952 86.0886C84.743 86.0886 83.6155 86.3561 82.813 86.8911C82.0486 87.4262 81.6664 88.1714 81.6664 89.1268C81.6664 90.1969 82.2015 91.0186 83.2716 91.5919C84.3417 92.1269 86.0041 92.6811 88.259 93.2543C90.552 93.8276 92.4438 94.42 93.9343 95.0314C95.4247 95.6429 96.705 96.5984 97.7751 97.8978C98.8834 99.1589 99.4567 100.84 99.4949 102.942C99.4949 104.777 98.979 106.42 97.9471 107.873C96.9534 109.325 95.5012 110.471 93.5903 111.312C91.7176 112.115 89.5201 112.516 86.9978 112.516ZM109.007 76.4578C107.593 76.4578 106.408 76.0183 105.452 75.1393C104.535 74.222 104.077 73.0946 104.077 71.757C104.077 70.4194 104.535 69.3111 105.452 68.4321C106.408 67.5149 107.593 67.0563 109.007 67.0563C110.421 67.0563 111.586 67.5149 112.503 68.4321C113.459 69.3111 113.937 70.4194 113.937 71.757C113.937 73.0946 113.459 74.222 112.503 75.1393C111.586 76.0183 110.421 76.4578 109.007 76.4578ZM112.962 80.2413V112H104.936V80.2413H112.962ZM149.268 95.4327C149.268 96.5793 149.191 97.6111 149.039 98.5283H125.822C126.013 100.821 126.815 102.618 128.229 103.917C129.643 105.216 131.382 105.866 133.446 105.866C136.427 105.866 138.548 104.586 139.809 102.025H148.465C147.548 105.083 145.79 107.605 143.191 109.592C140.593 111.541 137.401 112.516 133.618 112.516C130.56 112.516 127.809 111.847 125.363 110.51C122.955 109.134 121.063 107.204 119.688 104.72C118.35 102.235 117.681 99.3691 117.681 96.1206C117.681 92.8339 118.35 89.9485 119.688 87.4644C121.025 84.9802 122.898 83.0694 125.306 81.7318C127.713 80.3942 130.484 79.7253 133.618 79.7253C136.637 79.7253 139.331 80.375 141.701 81.6744C144.109 82.9738 145.962 84.8274 147.262 87.2351C148.599 89.6046 149.268 92.3371 149.268 95.4327ZM140.956 93.1397C140.917 91.0759 140.172 89.4326 138.72 88.2096C137.268 86.9484 135.491 86.3179 133.389 86.3179C131.401 86.3179 129.72 86.9293 128.344 88.1523C127.006 89.337 126.185 90.9995 125.879 93.1397H140.956ZM162.005 85.1713C163.037 83.4898 164.375 82.1713 166.018 81.2158C167.699 80.2604 169.61 79.7827 171.751 79.7827V88.2096H169.629C167.107 88.2096 165.196 88.802 163.897 89.9867C162.636 91.1715 162.005 93.2352 162.005 96.178V112H153.979V80.2413H162.005V85.1713ZM197.867 86.8338V102.197C197.867 103.267 198.116 104.051 198.612 104.548C199.147 105.006 200.026 105.236 201.249 105.236H204.976V112H199.931C193.166 112 189.784 108.713 189.784 102.14V86.8338H186.001V80.2413H189.784V72.3876H197.867V80.2413H204.976V86.8338H197.867ZM227.487 79.7827C229.895 79.7827 232.035 80.3177 233.908 81.3878C235.78 82.4197 237.233 83.9675 238.265 86.0312C239.335 88.0568 239.87 90.5027 239.87 93.369V112H231.844V94.4582C231.844 91.9358 231.213 90.0058 229.952 88.6682C228.691 87.2924 226.971 86.6045 224.793 86.6045C222.576 86.6045 220.818 87.2924 219.519 88.6682C218.258 90.0058 217.627 91.9358 217.627 94.4582V112H209.602V69.5786H217.627V84.1968C218.659 82.821 220.035 81.7509 221.755 80.9865C223.474 80.184 225.385 79.7827 227.487 79.7827ZM244.291 96.006C244.291 92.7957 244.922 89.9485 246.183 87.4644C247.483 84.9802 249.222 83.0694 251.4 81.7318C253.617 80.3942 256.082 79.7253 258.795 79.7253C261.164 79.7253 263.228 80.2031 264.986 81.1585C266.782 82.1139 268.216 83.3178 269.286 84.7701V80.2413H277.369V112H269.286V107.357C268.254 108.847 266.821 110.089 264.986 111.083C263.19 112.038 261.107 112.516 258.738 112.516C256.062 112.516 253.617 111.828 251.4 110.452C249.222 109.076 247.483 107.146 246.183 104.662C244.922 102.14 244.291 99.2545 244.291 96.006ZM269.286 96.1206C269.286 94.1716 268.904 92.5091 268.139 91.1333C267.375 89.7192 266.343 88.6491 265.044 87.923C263.744 87.1586 262.349 86.7765 260.859 86.7765C259.368 86.7765 257.992 87.1395 256.731 87.8657C255.47 88.5918 254.438 89.6619 253.636 91.0759C252.871 92.4518 252.489 94.0951 252.489 96.006C252.489 97.9169 252.871 99.5984 253.636 101.051C254.438 102.465 255.47 103.554 256.731 104.318C258.031 105.083 259.406 105.465 260.859 105.465C262.349 105.465 263.744 105.102 265.044 104.376C266.343 103.611 267.375 102.541 268.139 101.165C268.904 99.7513 269.286 98.0697 269.286 96.1206ZM301.66 79.7827C305.443 79.7827 308.501 80.9865 310.832 83.3942C313.163 85.7637 314.329 89.0886 314.329 93.369V112H306.303V94.4582C306.303 91.9358 305.673 90.0058 304.411 88.6682C303.15 87.2924 301.43 86.6045 299.252 86.6045C297.035 86.6045 295.277 87.2924 293.978 88.6682C292.717 90.0058 292.086 91.9358 292.086 94.4582V112H284.061V80.2413H292.086V84.1968C293.156 82.821 294.513 81.7509 296.156 80.9865C297.838 80.184 299.672 79.7827 301.66 79.7827ZM362.851 95.4327C362.851 96.5793 362.774 97.6111 362.621 98.5283H339.404C339.595 100.821 340.398 102.618 341.812 103.917C343.226 105.216 344.965 105.866 347.029 105.866C350.01 105.866 352.131 104.586 353.392 102.025H362.048C361.131 105.083 359.373 107.605 356.774 109.592C354.175 111.541 350.984 112.516 347.201 112.516C344.143 112.516 341.391 111.847 338.946 110.51C336.538 109.134 334.646 107.204 333.27 104.72C331.933 102.235 331.264 99.3691 331.264 96.1206C331.264 92.8339 331.933 89.9485 333.27 87.4644C334.608 84.9802 336.481 83.0694 338.888 81.7318C341.296 80.3942 344.067 79.7253 347.201 79.7253C350.22 79.7253 352.914 80.375 355.284 81.6744C357.691 82.9738 359.545 84.8274 360.844 87.2351C362.182 89.6046 362.851 92.3371 362.851 95.4327ZM354.538 93.1397C354.5 91.0759 353.755 89.4326 352.303 88.2096C350.85 86.9484 349.073 86.3179 346.971 86.3179C344.984 86.3179 343.302 86.9293 341.927 88.1523C340.589 89.337 339.767 90.9995 339.461 93.1397H354.538ZM380.804 104.605L388.83 80.2413H397.372L385.62 112H375.874L364.18 80.2413H372.779L380.804 104.605ZM430.256 95.4327C430.256 96.5793 430.179 97.6111 430.027 98.5283H406.809C407.001 100.821 407.803 102.618 409.217 103.917C410.631 105.216 412.37 105.866 414.434 105.866C417.415 105.866 419.536 104.586 420.797 102.025H429.453C428.536 105.083 426.778 107.605 424.179 109.592C421.581 111.541 418.389 112.516 414.606 112.516C411.548 112.516 408.797 111.847 406.351 110.51C403.943 109.134 402.051 107.204 400.676 104.72C399.338 102.235 398.669 99.3691 398.669 96.1206C398.669 92.8339 399.338 89.9485 400.676 87.4644C402.013 84.9802 403.886 83.0694 406.294 81.7318C408.701 80.3942 411.472 79.7253 414.606 79.7253C417.625 79.7253 420.319 80.375 422.689 81.6744C425.097 82.9738 426.95 84.8274 428.249 87.2351C429.587 89.6046 430.256 92.3371 430.256 95.4327ZM421.944 93.1397C421.905 91.0759 421.16 89.4326 419.708 88.2096C418.256 86.9484 416.478 86.3179 414.377 86.3179C412.389 86.3179 410.708 86.9293 409.332 88.1523C407.994 89.337 407.173 90.9995 406.867 93.1397H421.944ZM442.993 85.1713C444.025 83.4898 445.363 82.1713 447.006 81.2158C448.687 80.2604 450.598 79.7827 452.739 79.7827V88.2096H450.617C448.095 88.2096 446.184 88.802 444.885 89.9867C443.624 91.1715 442.993 93.2352 442.993 96.178V112H434.967V80.2413H442.993V85.1713Z" fill="#FFCA2B"/>
</svg>
