<svg width="647" height="248" viewBox="0 0 647 248" fill="none" xmlns="http://www.w3.org/2000/svg">
<path d="M9.62808 24.0506V32.1124H20.4539V37.2259H9.62808V45.7483H21.8359V51H3.17865V18.7989H21.8359V24.0506H9.62808ZM40.9183 25.1101C43.9587 25.1101 46.4156 26.0776 48.289 28.0124C50.1624 29.9165 51.0991 32.5884 51.0991 36.0281V51H44.6497V36.9034C44.6497 34.8764 44.143 33.3255 43.1295 32.2506C42.116 31.145 40.734 30.5922 38.9834 30.5922C37.2022 30.5922 35.7894 31.145 34.7452 32.2506C33.7317 33.3255 33.225 34.8764 33.225 36.9034V51H26.7756V25.4787H33.225V28.6573C34.0849 27.5517 35.1752 26.6918 36.4958 26.0776C37.8471 25.4326 39.3212 25.1101 40.9183 25.1101ZM63.8198 30.7764V43.1225C63.8198 43.9824 64.0195 44.612 64.4187 45.0112C64.8487 45.3798 65.555 45.5641 66.5378 45.5641H69.5322V51H65.4783C60.0423 51 57.3243 48.3588 57.3243 43.0764V30.7764H54.2839V25.4787H57.3243V19.1675H63.8198V25.4787H69.5322V30.7764H63.8198ZM96.9743 37.6865C96.9743 38.6079 96.9129 39.4371 96.79 40.1742H78.1328C78.2863 42.0169 78.9313 43.4603 80.0676 44.5045C81.2039 45.5487 82.6013 46.0708 84.2597 46.0708C86.6552 46.0708 88.3597 45.042 89.3732 42.9843H96.3294C95.5923 45.4412 94.1796 47.4682 92.0912 49.0652C90.0028 50.6315 87.4384 51.4146 84.3979 51.4146C81.941 51.4146 79.7298 50.8772 77.7642 49.8022C75.8294 48.6966 74.3092 47.1457 73.2035 45.1494C72.1286 43.1532 71.5912 40.8498 71.5912 38.2393C71.5912 35.5981 72.1286 33.2794 73.2035 31.2832C74.2785 29.2869 75.7833 27.7513 77.7182 26.6764C79.653 25.6015 81.8796 25.0641 84.3979 25.0641C86.8241 25.0641 88.9893 25.5862 90.8934 26.6304C92.8282 27.6746 94.3178 29.1641 95.3619 31.0989C96.4369 33.003 96.9743 35.1989 96.9743 37.6865ZM90.2945 35.8438C90.2638 34.1854 89.665 32.8648 88.4979 31.882C87.3309 30.8686 85.9028 30.3618 84.2136 30.3618C82.6166 30.3618 81.2653 30.8532 80.1597 31.836C79.0848 32.788 78.4245 34.124 78.1788 35.8438H90.2945ZM107.21 29.4405C108.039 28.0892 109.114 27.0296 110.435 26.2618C111.786 25.494 113.321 25.1101 115.041 25.1101V31.882H113.337C111.31 31.882 109.774 32.3581 108.73 33.3101C107.717 34.2622 107.21 35.9206 107.21 38.2854V51H100.76V25.4787H107.21V29.4405ZM136.029 30.7764V43.1225C136.029 43.9824 136.228 44.612 136.627 45.0112C137.057 45.3798 137.764 45.5641 138.747 45.5641H141.741V51H137.687C132.251 51 129.533 48.3588 129.533 43.0764V30.7764H126.493V25.4787H129.533V19.1675H136.029V25.4787H141.741V30.7764H136.029ZM159.831 25.1101C161.766 25.1101 163.486 25.5401 164.991 26.4C166.496 27.2292 167.663 28.4731 168.492 30.1315C169.352 31.7592 169.782 33.7247 169.782 36.0281V51H163.333V36.9034C163.333 34.8764 162.826 33.3255 161.812 32.2506C160.799 31.145 159.417 30.5922 157.666 30.5922C155.885 30.5922 154.472 31.145 153.428 32.2506C152.415 33.3255 151.908 34.8764 151.908 36.9034V51H145.458V16.9102H151.908V28.6573C152.737 27.5517 153.843 26.6918 155.225 26.0776C156.607 25.4326 158.142 25.1101 159.831 25.1101ZM198.718 37.6865C198.718 38.6079 198.657 39.4371 198.534 40.1742H179.877C180.03 42.0169 180.675 43.4603 181.812 44.5045C182.948 45.5487 184.345 46.0708 186.004 46.0708C188.399 46.0708 190.104 45.042 191.117 42.9843H198.073C197.336 45.4412 195.924 47.4682 193.835 49.0652C191.747 50.6315 189.182 51.4146 186.142 51.4146C183.685 51.4146 181.474 50.8772 179.508 49.8022C177.573 48.6966 176.053 47.1457 174.948 45.1494C173.873 43.1532 173.335 40.8498 173.335 38.2393C173.335 35.5981 173.873 33.2794 174.948 31.2832C176.023 29.2869 177.527 27.7513 179.462 26.6764C181.397 25.6015 183.624 25.0641 186.142 25.0641C188.568 25.0641 190.733 25.5862 192.637 26.6304C194.572 27.6746 196.062 29.1641 197.106 31.0989C198.181 33.003 198.718 35.1989 198.718 37.6865ZM192.039 35.8438C192.008 34.1854 191.409 32.8648 190.242 31.882C189.075 30.8686 187.647 30.3618 185.958 30.3618C184.361 30.3618 183.009 30.8532 181.904 31.836C180.829 32.788 180.169 34.124 179.923 35.8438H192.039ZM236.285 37.6865C236.285 38.6079 236.223 39.4371 236.101 40.1742H217.443C217.597 42.0169 218.242 43.4603 219.378 44.5045C220.514 45.5487 221.912 46.0708 223.57 46.0708C225.966 46.0708 227.67 45.042 228.684 42.9843H235.64C234.903 45.4412 233.49 47.4682 231.402 49.0652C229.313 50.6315 226.749 51.4146 223.708 51.4146C221.252 51.4146 219.04 50.8772 217.075 49.8022C215.14 48.6966 213.62 47.1457 212.514 45.1494C211.439 43.1532 210.902 40.8498 210.902 38.2393C210.902 35.5981 211.439 33.2794 212.514 31.2832C213.589 29.2869 215.094 27.7513 217.029 26.6764C218.964 25.6015 221.19 25.0641 223.708 25.0641C226.135 25.0641 228.3 25.5862 230.204 26.6304C232.139 27.6746 233.628 29.1641 234.673 31.0989C235.747 33.003 236.285 35.1989 236.285 37.6865ZM229.605 35.8438C229.574 34.1854 228.976 32.8648 227.808 31.882C226.641 30.8686 225.213 30.3618 223.524 30.3618C221.927 30.3618 220.576 30.8532 219.47 31.836C218.395 32.788 217.735 34.124 217.489 35.8438H229.605ZM246.52 29.4405C247.35 28.0892 248.425 27.0296 249.745 26.2618C251.096 25.494 252.632 25.1101 254.352 25.1101V31.882H252.647C250.62 31.882 249.085 32.3581 248.041 33.3101C247.027 34.2622 246.52 35.9206 246.52 38.2854V51H240.071V25.4787H246.52V29.4405ZM256.116 38.1472C256.116 35.5674 256.623 33.2794 257.636 31.2832C258.681 29.2869 260.078 27.7513 261.828 26.6764C263.61 25.6015 265.591 25.0641 267.771 25.0641C269.675 25.0641 271.334 25.448 272.746 26.2158C274.19 26.9836 275.342 27.951 276.202 29.118V25.4787H282.697V51H276.202V47.2685C275.372 48.4663 274.221 49.4644 272.746 50.2629C271.303 51.0307 269.629 51.4146 267.725 51.4146C265.575 51.4146 263.61 50.8618 261.828 49.7562C260.078 48.6506 258.681 47.0996 257.636 45.1034C256.623 43.0764 256.116 40.7577 256.116 38.1472ZM276.202 38.2393C276.202 36.6731 275.894 35.3371 275.28 34.2315C274.666 33.0952 273.837 32.2352 272.793 31.6517C271.748 31.0375 270.627 30.7304 269.43 30.7304C268.232 30.7304 267.126 31.0221 266.113 31.6056C265.099 32.1892 264.27 33.0491 263.625 34.1854C263.011 35.291 262.704 36.6116 262.704 38.1472C262.704 39.6828 263.011 41.0341 263.625 42.2011C264.27 43.3375 265.099 44.2127 266.113 44.827C267.157 45.4412 268.263 45.7483 269.43 45.7483C270.627 45.7483 271.748 45.4566 272.793 44.873C273.837 44.2588 274.666 43.3989 275.28 42.2933C275.894 41.1569 276.202 39.8056 276.202 38.2393ZM309.463 51.4146C307.006 51.4146 304.795 50.8772 302.829 49.8022C300.864 48.6966 299.313 47.1457 298.176 45.1494C297.071 43.1532 296.518 40.8498 296.518 38.2393C296.518 35.6289 297.086 33.3255 298.222 31.3292C299.389 29.333 300.971 27.7974 302.967 26.7225C304.964 25.6169 307.19 25.0641 309.647 25.0641C312.104 25.0641 314.331 25.6169 316.327 26.7225C318.323 27.7974 319.889 29.333 321.026 31.3292C322.193 33.3255 322.776 35.6289 322.776 38.2393C322.776 40.8498 322.177 43.1532 320.98 45.1494C319.813 47.1457 318.216 48.6966 316.189 49.8022C314.192 50.8772 311.95 51.4146 309.463 51.4146ZM309.463 45.7944C310.63 45.7944 311.72 45.518 312.734 44.9652C313.778 44.3817 314.607 43.5217 315.221 42.3854C315.835 41.2491 316.143 39.8671 316.143 38.2393C316.143 35.8131 315.498 33.9551 314.208 32.6652C312.949 31.3446 311.398 30.6843 309.555 30.6843C307.712 30.6843 306.161 31.3446 304.902 32.6652C303.674 33.9551 303.059 35.8131 303.059 38.2393C303.059 40.6656 303.658 42.539 304.856 43.8596C306.085 45.1494 307.62 45.7944 309.463 45.7944ZM338.287 30.7764H333.818V51H327.277V30.7764H324.375V25.4787H327.277V24.1888C327.277 21.0562 328.168 18.7528 329.949 17.2787C331.73 15.8045 334.417 15.1135 338.011 15.2057V20.6416C336.444 20.6109 335.354 20.8719 334.74 21.4248C334.126 21.9776 333.818 22.9757 333.818 24.4191V25.4787H338.287V30.7764Z" fill="white"/>
<path d="M40.1674 93.7333V137H31.4892V118.59H12.9552V137H4.27708V93.7333H12.9552V111.523H31.4892V93.7333H40.1674ZM80.3221 102.659L59.0607 153.241H49.8247L57.2631 136.132L43.502 102.659H53.2339L62.098 126.648L71.0861 102.659H80.3221ZM92.4386 107.618C93.5543 106.048 95.0833 104.746 97.0256 103.713C99.0092 102.639 101.261 102.102 103.782 102.102C106.716 102.102 109.361 102.825 111.716 104.271C114.113 105.717 115.994 107.784 117.357 110.47C118.762 113.114 119.465 116.193 119.465 119.706C119.465 123.218 118.762 126.338 117.357 129.066C115.994 131.752 114.113 133.839 111.716 135.326C109.361 136.814 106.716 137.558 103.782 137.558C101.261 137.558 99.0298 137.041 97.0876 136.008C95.1866 134.975 93.637 133.673 92.4386 132.103V153.364H83.7604V102.659H92.4386V107.618ZM110.601 119.706C110.601 117.639 110.167 115.863 109.299 114.375C108.472 112.846 107.357 111.689 105.952 110.904C104.588 110.118 103.1 109.726 101.489 109.726C99.9183 109.726 98.4306 110.139 97.0256 110.966C95.6619 111.751 94.5461 112.908 93.6783 114.437C92.8518 115.966 92.4386 117.763 92.4386 119.83C92.4386 121.896 92.8518 123.694 93.6783 125.223C94.5461 126.752 95.6619 127.929 97.0256 128.756C98.4306 129.541 99.9183 129.934 101.489 129.934C103.1 129.934 104.588 129.52 105.952 128.694C107.357 127.867 108.472 126.69 109.299 125.161C110.167 123.632 110.601 121.813 110.601 119.706ZM156.454 119.086C156.454 120.326 156.372 121.441 156.206 122.433H131.102C131.308 124.913 132.176 126.855 133.705 128.26C135.234 129.665 137.114 130.367 139.346 130.367C142.569 130.367 144.863 128.983 146.227 126.214H155.587C154.595 129.52 152.694 132.248 149.884 134.397C147.074 136.504 143.623 137.558 139.532 137.558C136.226 137.558 133.251 136.835 130.606 135.388C128.002 133.901 125.957 131.814 124.469 129.128C123.023 126.442 122.3 123.342 122.3 119.83C122.3 116.276 123.023 113.156 124.469 110.47C125.916 107.784 127.94 105.717 130.544 104.271C133.147 102.825 136.143 102.102 139.532 102.102C142.797 102.102 145.71 102.804 148.272 104.209C150.876 105.614 152.88 107.618 154.285 110.222C155.731 112.784 156.454 115.739 156.454 119.086ZM147.466 116.606C147.425 114.375 146.619 112.598 145.049 111.276C143.478 109.912 141.557 109.23 139.284 109.23C137.135 109.23 135.317 109.891 133.829 111.214C132.383 112.495 131.494 114.292 131.164 116.606H147.466ZM170.227 107.99C171.343 106.172 172.789 104.746 174.566 103.713C176.384 102.68 178.451 102.163 180.765 102.163V111.276H178.471C175.744 111.276 173.678 111.916 172.273 113.197C170.909 114.478 170.227 116.71 170.227 119.892V137H161.549V102.659H170.227V107.99ZM211.776 111.214V118.528H185.494V111.214H211.776ZM251.82 107.122C251.82 109.437 251.262 111.606 250.147 113.631C249.072 115.656 247.357 117.288 245.002 118.528C242.688 119.768 239.754 120.388 236.2 120.388H228.947V137H220.269V93.7333H236.2C239.547 93.7333 242.398 94.3119 244.754 95.4689C247.109 96.626 248.866 98.217 250.023 100.242C251.221 102.267 251.82 104.56 251.82 107.122ZM235.828 113.383C238.225 113.383 240.002 112.846 241.159 111.771C242.316 110.656 242.894 109.106 242.894 107.122C242.894 102.907 240.539 100.8 235.828 100.8H228.947V113.383H235.828ZM265.42 107.99C266.536 106.172 267.982 104.746 269.759 103.713C271.577 102.68 273.644 102.163 275.958 102.163V111.276H273.664C270.937 111.276 268.871 111.916 267.466 113.197C266.102 114.478 265.42 116.71 265.42 119.892V137H256.742V102.659H265.42V107.99ZM295.812 137.558C292.506 137.558 289.531 136.835 286.886 135.388C284.241 133.901 282.154 131.814 280.625 129.128C279.138 126.442 278.394 123.342 278.394 119.83C278.394 116.317 279.158 113.218 280.687 110.532C282.258 107.846 284.386 105.779 287.072 104.333C289.758 102.845 292.754 102.102 296.06 102.102C299.366 102.102 302.362 102.845 305.048 104.333C307.734 105.779 309.842 107.846 311.371 110.532C312.941 113.218 313.726 116.317 313.726 119.83C313.726 123.342 312.92 126.442 311.309 129.128C309.738 131.814 307.589 133.901 304.862 135.388C302.176 136.835 299.159 137.558 295.812 137.558ZM295.812 129.996C297.382 129.996 298.849 129.624 300.213 128.88C301.618 128.095 302.734 126.937 303.56 125.408C304.387 123.879 304.8 122.02 304.8 119.83C304.8 116.565 303.932 114.065 302.197 112.329C300.502 110.552 298.415 109.664 295.936 109.664C293.456 109.664 291.37 110.552 289.675 112.329C288.022 114.065 287.196 116.565 287.196 119.83C287.196 123.094 288.002 125.615 289.613 127.392C291.266 129.128 293.332 129.996 295.812 129.996ZM316.621 119.706C316.621 116.234 317.302 113.156 318.666 110.47C320.071 107.784 321.972 105.717 324.369 104.271C326.766 102.825 329.431 102.102 332.365 102.102C334.597 102.102 336.725 102.597 338.75 103.589C340.775 104.54 342.386 105.821 343.585 107.432V91.1299H352.387V137H343.585V131.917C342.51 133.611 341.002 134.975 339.06 136.008C337.117 137.041 334.865 137.558 332.303 137.558C329.41 137.558 326.766 136.814 324.369 135.326C321.972 133.839 320.071 131.752 318.666 129.066C317.302 126.338 316.621 123.218 316.621 119.706ZM343.647 119.83C343.647 117.722 343.234 115.925 342.407 114.437C341.581 112.908 340.465 111.751 339.06 110.966C337.655 110.139 336.146 109.726 334.535 109.726C332.923 109.726 331.435 110.118 330.072 110.904C328.708 111.689 327.592 112.846 326.724 114.375C325.898 115.863 325.485 117.639 325.485 119.706C325.485 121.772 325.898 123.59 326.724 125.161C327.592 126.69 328.708 127.867 330.072 128.694C331.477 129.52 332.964 129.934 334.535 129.934C336.146 129.934 337.655 129.541 339.06 128.756C340.465 127.929 341.581 126.772 342.407 125.285C343.234 123.756 343.647 121.937 343.647 119.83ZM392.042 102.659V137H383.302V132.661C382.186 134.149 380.719 135.326 378.901 136.194C377.124 137.021 375.181 137.434 373.074 137.434C370.388 137.434 368.012 136.876 365.945 135.76C363.879 134.603 362.247 132.93 361.049 130.739C359.891 128.508 359.313 125.863 359.313 122.805V102.659H367.991V121.565C367.991 124.293 368.673 126.4 370.037 127.888C371.4 129.334 373.26 130.057 375.615 130.057C378.012 130.057 379.892 129.334 381.256 127.888C382.62 126.4 383.302 124.293 383.302 121.565V102.659H392.042ZM397.133 119.83C397.133 116.276 397.856 113.176 399.303 110.532C400.749 107.846 402.753 105.779 405.315 104.333C407.877 102.845 410.811 102.102 414.117 102.102C418.374 102.102 421.886 103.176 424.655 105.325C427.465 107.432 429.345 110.408 430.296 114.251H420.936C420.44 112.763 419.593 111.606 418.394 110.78C417.237 109.912 415.791 109.478 414.055 109.478C411.576 109.478 409.613 110.387 408.167 112.205C406.72 113.982 405.997 116.524 405.997 119.83C405.997 123.094 406.72 125.636 408.167 127.454C409.613 129.231 411.576 130.119 414.055 130.119C417.568 130.119 419.861 128.549 420.936 125.408H430.296C429.345 129.128 427.465 132.082 424.655 134.273C421.845 136.463 418.332 137.558 414.117 137.558C410.811 137.558 407.877 136.835 405.315 135.388C402.753 133.901 400.749 131.834 399.303 129.19C397.856 126.504 397.133 123.384 397.133 119.83ZM445.517 109.788V126.4C445.517 127.557 445.786 128.405 446.323 128.942C446.902 129.438 447.852 129.686 449.175 129.686H453.204V137H447.749C440.435 137 436.777 133.446 436.777 126.338V109.788H432.686V102.659H436.777V94.1672H445.517V102.659H453.204V109.788H445.517ZM462.607 98.5683C461.078 98.5683 459.797 98.093 458.764 97.1426C457.772 96.1508 457.276 94.9317 457.276 93.4854C457.276 92.039 457.772 90.8406 458.764 89.8901C459.797 88.8984 461.078 88.4025 462.607 88.4025C464.136 88.4025 465.396 88.8984 466.388 89.8901C467.421 90.8406 467.938 92.039 467.938 93.4854C467.938 94.9317 467.421 96.1508 466.388 97.1426C465.396 98.093 464.136 98.5683 462.607 98.5683ZM466.884 102.659V137H458.206V102.659H466.884ZM488.537 129.004L497.215 102.659H506.451L493.744 137H483.206L470.561 102.659H479.859L488.537 129.004ZM514.487 98.5683C512.958 98.5683 511.677 98.093 510.644 97.1426C509.652 96.1508 509.156 94.9317 509.156 93.4854C509.156 92.039 509.652 90.8406 510.644 89.8901C511.677 88.8984 512.958 88.4025 514.487 88.4025C516.016 88.4025 517.276 88.8984 518.268 89.8901C519.301 90.8406 519.818 92.039 519.818 93.4854C519.818 94.9317 519.301 96.1508 518.268 97.1426C517.276 98.093 516.016 98.5683 514.487 98.5683ZM518.764 102.659V137H510.086V102.659H518.764ZM536.202 109.788V126.4C536.202 127.557 536.471 128.405 537.008 128.942C537.586 129.438 538.537 129.686 539.859 129.686H543.888V137H538.434C531.119 137 527.462 133.446 527.462 126.338V109.788H523.371V102.659H527.462V94.1672H536.202V102.659H543.888V109.788H536.202ZM581.743 102.659L560.482 153.241H551.246L558.684 136.132L544.923 102.659H554.655L563.519 126.648L572.507 102.659H581.743Z" fill="#FFC107"/>
<path d="M592.823 102.511H604.678V105.254H600.514V119.756H596.987L597.036 105.254H592.823V102.511ZM627.116 102.511V119.756H623.834L623.785 107.263L618.445 119.756H615.946L610.655 107.067V119.756H607.422V102.511H611.978L617.318 115.591L622.805 102.511H627.116Z" fill="white"/>
<path d="M19.3816 188.839L15.2747 202H13.0171L9.8469 191.553L6.67668 202H4.4191L0.288202 188.839H2.52177L5.54789 199.887L8.81417 188.839H11.0477L14.242 199.911L17.2201 188.839H19.3816ZM22.199 186.701C21.7828 186.701 21.4305 186.557 21.1423 186.269C20.8541 185.981 20.71 185.629 20.71 185.212C20.71 184.796 20.8541 184.444 21.1423 184.155C21.4305 183.867 21.7828 183.723 22.199 183.723C22.5993 183.723 22.9356 183.867 23.2078 184.155C23.496 184.444 23.6401 184.796 23.6401 185.212C23.6401 185.629 23.496 185.981 23.2078 186.269C22.9356 186.557 22.5993 186.701 22.199 186.701ZM23.2558 188.839V202H21.0703V188.839H23.2558ZM29.1662 190.64V198.397C29.1662 199.038 29.3023 199.494 29.5745 199.766C29.8467 200.023 30.319 200.151 30.9915 200.151H32.6006V202H30.6312C29.4144 202 28.5017 201.72 27.8933 201.159C27.2849 200.599 26.9806 199.678 26.9806 198.397V190.64H25.2755V188.839H26.9806V185.524H29.1662V188.839H32.6006V190.64H29.1662ZM41.3009 188.599C42.2936 188.599 43.1902 188.815 43.9908 189.247C44.7913 189.663 45.4157 190.296 45.8641 191.144C46.3284 191.993 46.5606 193.026 46.5606 194.243V202H44.399V194.555C44.399 193.242 44.0708 192.241 43.4143 191.553C42.7579 190.848 41.8613 190.496 40.7245 190.496C39.5717 190.496 38.651 190.856 37.9625 191.577C37.2901 192.297 36.9538 193.346 36.9538 194.723V202H34.7683V184.228H36.9538V190.712C37.3861 190.04 37.9785 189.519 38.7311 189.151C39.4996 188.783 40.3562 188.599 41.3009 188.599ZM58.2387 190.64V198.397C58.2387 199.038 58.3748 199.494 58.647 199.766C58.9192 200.023 59.3915 200.151 60.064 200.151H61.6731V202H59.7038C58.4869 202 57.5743 201.72 56.9658 201.159C56.3574 200.599 56.0532 199.678 56.0532 198.397V190.64H54.348V188.839H56.0532V185.524H58.2387V188.839H61.6731V190.64H58.2387ZM70.3734 188.599C71.3661 188.599 72.2627 188.815 73.0633 189.247C73.8639 189.663 74.4883 190.296 74.9366 191.144C75.4009 191.993 75.6331 193.026 75.6331 194.243V202H73.4716V194.555C73.4716 193.242 73.1434 192.241 72.4869 191.553C71.8304 190.848 70.9338 190.496 69.797 190.496C68.6442 190.496 67.7236 190.856 67.0351 191.577C66.3626 192.297 66.0264 193.346 66.0264 194.723V202H63.8408V184.228H66.0264V190.712C66.4587 190.04 67.0511 189.519 67.8036 189.151C68.5722 188.783 69.4288 188.599 70.3734 188.599ZM90.7312 194.915C90.7312 195.331 90.7072 195.772 90.6592 196.236H80.1398C80.2199 197.533 80.6602 198.55 81.4607 199.286C82.2773 200.007 83.262 200.367 84.4148 200.367C85.3595 200.367 86.144 200.151 86.7685 199.718C87.4089 199.27 87.8572 198.678 88.1134 197.941H90.4671C90.1148 199.206 89.4103 200.239 88.3536 201.039C87.2968 201.824 85.9839 202.216 84.4148 202.216C83.1659 202.216 82.0452 201.936 81.0525 201.376C80.0758 200.815 79.3072 200.023 78.7468 198.998C78.1865 197.957 77.9063 196.756 77.9063 195.395C77.9063 194.034 78.1784 192.842 78.7228 191.817C79.2672 190.792 80.0277 190.008 81.0044 189.463C81.9971 188.903 83.1339 188.623 84.4148 188.623C85.6637 188.623 86.7685 188.895 87.7291 189.439C88.6898 189.984 89.4263 190.736 89.9387 191.697C90.4671 192.641 90.7312 193.714 90.7312 194.915ZM88.4737 194.459C88.4737 193.626 88.2895 192.914 87.9213 192.321C87.553 191.713 87.0487 191.256 86.4082 190.952C85.7838 190.632 85.0873 190.472 84.3188 190.472C83.214 190.472 82.2693 190.824 81.4848 191.529C80.7162 192.233 80.2759 193.21 80.1638 194.459H88.4737ZM101.724 190.64V198.397C101.724 199.038 101.86 199.494 102.132 199.766C102.405 200.023 102.877 200.151 103.549 200.151H105.159V202H103.189C101.972 202 101.06 201.72 100.451 201.159C99.8429 200.599 99.5387 199.678 99.5387 198.397V190.64H97.8335V188.839H99.5387V185.524H101.724V188.839H105.159V190.64H101.724ZM109.512 190.976C109.896 190.224 110.44 189.639 111.145 189.223C111.865 188.807 112.738 188.599 113.763 188.599V190.856H113.186C110.737 190.856 109.512 192.185 109.512 194.843V202H107.326V188.839H109.512V190.976ZM114.989 195.371C114.989 194.026 115.261 192.85 115.805 191.841C116.35 190.816 117.094 190.024 118.039 189.463C119 188.903 120.064 188.623 121.233 188.623C122.386 188.623 123.387 188.871 124.235 189.367C125.084 189.863 125.716 190.488 126.133 191.24V188.839H128.342V202H126.133V199.55C125.7 200.319 125.052 200.959 124.187 201.472C123.339 201.968 122.346 202.216 121.209 202.216C120.04 202.216 118.984 201.928 118.039 201.352C117.094 200.775 116.35 199.967 115.805 198.926C115.261 197.885 114.989 196.7 114.989 195.371ZM126.133 195.395C126.133 194.403 125.932 193.538 125.532 192.802C125.132 192.065 124.588 191.505 123.899 191.12C123.227 190.72 122.482 190.52 121.665 190.52C120.849 190.52 120.104 190.712 119.432 191.096C118.759 191.481 118.223 192.041 117.823 192.778C117.422 193.514 117.222 194.379 117.222 195.371C117.222 196.38 117.422 197.261 117.823 198.013C118.223 198.75 118.759 199.318 119.432 199.718C120.104 200.103 120.849 200.295 121.665 200.295C122.482 200.295 123.227 200.103 123.899 199.718C124.588 199.318 125.132 198.75 125.532 198.013C125.932 197.261 126.133 196.388 126.133 195.395ZM137.968 188.599C139.569 188.599 140.866 189.087 141.858 190.064C142.851 191.024 143.347 192.417 143.347 194.243V202H141.186V194.555C141.186 193.242 140.858 192.241 140.201 191.553C139.545 190.848 138.648 190.496 137.511 190.496C136.359 190.496 135.438 190.856 134.749 191.577C134.077 192.297 133.741 193.346 133.741 194.723V202H131.555V188.839H133.741V190.712C134.173 190.04 134.757 189.519 135.494 189.151C136.246 188.783 137.071 188.599 137.968 188.599ZM151.096 202.216C150.088 202.216 149.183 202.048 148.383 201.712C147.582 201.36 146.949 200.879 146.485 200.271C146.021 199.646 145.765 198.934 145.717 198.133H147.974C148.038 198.79 148.342 199.326 148.887 199.742C149.447 200.159 150.176 200.367 151.072 200.367C151.905 200.367 152.561 200.183 153.042 199.814C153.522 199.446 153.762 198.982 153.762 198.421C153.762 197.845 153.506 197.421 152.994 197.149C152.481 196.86 151.689 196.58 150.616 196.308C149.639 196.052 148.839 195.796 148.214 195.539C147.606 195.267 147.078 194.875 146.629 194.363C146.197 193.834 145.981 193.146 145.981 192.297C145.981 191.625 146.181 191.008 146.581 190.448C146.982 189.888 147.55 189.447 148.286 189.127C149.023 188.791 149.864 188.623 150.808 188.623C152.265 188.623 153.442 188.991 154.339 189.727C155.235 190.464 155.716 191.473 155.78 192.754H153.594C153.546 192.065 153.266 191.513 152.754 191.096C152.257 190.68 151.585 190.472 150.736 190.472C149.952 190.472 149.327 190.64 148.863 190.976C148.399 191.313 148.166 191.753 148.166 192.297C148.166 192.73 148.302 193.09 148.575 193.378C148.863 193.65 149.215 193.874 149.631 194.05C150.064 194.211 150.656 194.395 151.409 194.603C152.353 194.859 153.122 195.115 153.714 195.371C154.307 195.612 154.811 195.98 155.227 196.476C155.66 196.972 155.884 197.621 155.9 198.421C155.9 199.142 155.7 199.79 155.299 200.367C154.899 200.943 154.331 201.4 153.594 201.736C152.874 202.056 152.041 202.216 151.096 202.216ZM163.86 190.64H161.098V202H158.913V190.64H157.208V188.839H158.913V187.902C158.913 186.429 159.289 185.356 160.042 184.684C160.81 183.995 162.035 183.651 163.716 183.651V185.476C162.756 185.476 162.075 185.669 161.675 186.053C161.291 186.421 161.098 187.038 161.098 187.902V188.839H163.86V190.64ZM171.668 202.216C170.435 202.216 169.315 201.936 168.306 201.376C167.313 200.815 166.529 200.023 165.952 198.998C165.392 197.957 165.112 196.756 165.112 195.395C165.112 194.05 165.4 192.866 165.976 191.841C166.569 190.8 167.369 190.008 168.378 189.463C169.387 188.903 170.516 188.623 171.764 188.623C173.013 188.623 174.142 188.903 175.151 189.463C176.159 190.008 176.952 190.792 177.528 191.817C178.121 192.842 178.417 194.034 178.417 195.395C178.417 196.756 178.113 197.957 177.504 198.998C176.912 200.023 176.103 200.815 175.079 201.376C174.054 201.936 172.917 202.216 171.668 202.216ZM171.668 200.295C172.453 200.295 173.189 200.111 173.878 199.742C174.566 199.374 175.119 198.822 175.535 198.085C175.967 197.349 176.183 196.452 176.183 195.395C176.183 194.339 175.975 193.442 175.559 192.705C175.143 191.969 174.598 191.425 173.926 191.072C173.253 190.704 172.525 190.52 171.74 190.52C170.94 190.52 170.203 190.704 169.531 191.072C168.874 191.425 168.346 191.969 167.946 192.705C167.545 193.442 167.345 194.339 167.345 195.395C167.345 196.468 167.537 197.373 167.922 198.109C168.322 198.846 168.85 199.398 169.507 199.766C170.163 200.119 170.884 200.295 171.668 200.295ZM182.996 190.976C183.38 190.224 183.924 189.639 184.629 189.223C185.349 188.807 186.222 188.599 187.247 188.599V190.856H186.67C184.221 190.856 182.996 192.185 182.996 194.843V202H180.81V188.839H182.996V190.976ZM205.116 188.599C206.141 188.599 207.054 188.815 207.854 189.247C208.655 189.663 209.287 190.296 209.752 191.144C210.216 191.993 210.448 193.026 210.448 194.243V202H208.287V194.555C208.287 193.242 207.958 192.241 207.302 191.553C206.662 190.848 205.789 190.496 204.684 190.496C203.547 190.496 202.643 190.864 201.97 191.601C201.298 192.321 200.962 193.37 200.962 194.747V202H198.8V194.555C198.8 193.242 198.472 192.241 197.815 191.553C197.175 190.848 196.302 190.496 195.197 190.496C194.061 190.496 193.156 190.864 192.484 191.601C191.811 192.321 191.475 193.37 191.475 194.747V202H189.289V188.839H191.475V190.736C191.907 190.048 192.484 189.519 193.204 189.151C193.941 188.783 194.749 188.599 195.63 188.599C196.735 188.599 197.711 188.847 198.56 189.343C199.408 189.839 200.041 190.568 200.457 191.529C200.825 190.6 201.434 189.88 202.282 189.367C203.131 188.855 204.076 188.599 205.116 188.599ZM212.736 195.371C212.736 194.026 213.009 192.85 213.553 191.841C214.097 190.816 214.842 190.024 215.786 189.463C216.747 188.903 217.812 188.623 218.981 188.623C220.134 188.623 221.134 188.871 221.983 189.367C222.831 189.863 223.464 190.488 223.88 191.24V188.839H226.09V202H223.88V199.55C223.448 200.319 222.799 200.959 221.935 201.472C221.086 201.968 220.093 202.216 218.957 202.216C217.788 202.216 216.731 201.928 215.786 201.352C214.842 200.775 214.097 199.967 213.553 198.926C213.009 197.885 212.736 196.7 212.736 195.371ZM223.88 195.395C223.88 194.403 223.68 193.538 223.28 192.802C222.879 192.065 222.335 191.505 221.647 191.12C220.974 190.72 220.23 190.52 219.413 190.52C218.596 190.52 217.852 190.712 217.179 191.096C216.507 191.481 215.971 192.041 215.57 192.778C215.17 193.514 214.97 194.379 214.97 195.371C214.97 196.38 215.17 197.261 215.57 198.013C215.971 198.75 216.507 199.318 217.179 199.718C217.852 200.103 218.596 200.295 219.413 200.295C220.23 200.295 220.974 200.103 221.647 199.718C222.335 199.318 222.879 198.75 223.28 198.013C223.68 197.261 223.88 196.388 223.88 195.395ZM231.969 190.64V198.397C231.969 199.038 232.105 199.494 232.377 199.766C232.649 200.023 233.121 200.151 233.794 200.151H235.403V202H233.434C232.217 202 231.304 201.72 230.696 201.159C230.087 200.599 229.783 199.678 229.783 198.397V190.64H228.078V188.839H229.783V185.524H231.969V188.839H235.403V190.64H231.969ZM238.699 186.701C238.283 186.701 237.931 186.557 237.643 186.269C237.355 185.981 237.21 185.629 237.21 185.212C237.21 184.796 237.355 184.444 237.643 184.155C237.931 183.867 238.283 183.723 238.699 183.723C239.1 183.723 239.436 183.867 239.708 184.155C239.996 184.444 240.14 184.796 240.14 185.212C240.14 185.629 239.996 185.981 239.708 186.269C239.436 186.557 239.1 186.701 238.699 186.701ZM239.756 188.839V202H237.571V188.839H239.756ZM247.9 199.983L251.983 188.839H254.313L249.149 202H246.603L241.44 188.839H243.793L247.9 199.983ZM267.991 194.915C267.991 195.331 267.967 195.772 267.919 196.236H257.4C257.48 197.533 257.92 198.55 258.721 199.286C259.537 200.007 260.522 200.367 261.675 200.367C262.62 200.367 263.404 200.151 264.029 199.718C264.669 199.27 265.117 198.678 265.374 197.941H267.727C267.375 199.206 266.67 200.239 265.614 201.039C264.557 201.824 263.244 202.216 261.675 202.216C260.426 202.216 259.305 201.936 258.313 201.376C257.336 200.815 256.567 200.023 256.007 198.998C255.447 197.957 255.166 196.756 255.166 195.395C255.166 194.034 255.439 192.842 255.983 191.817C256.527 190.792 257.288 190.008 258.265 189.463C259.257 188.903 260.394 188.623 261.675 188.623C262.924 188.623 264.029 188.895 264.989 189.439C265.95 189.984 266.686 190.736 267.199 191.697C267.727 192.641 267.991 193.714 267.991 194.915ZM265.734 194.459C265.734 193.626 265.55 192.914 265.181 192.321C264.813 191.713 264.309 191.256 263.668 190.952C263.044 190.632 262.347 190.472 261.579 190.472C260.474 190.472 259.529 190.824 258.745 191.529C257.976 192.233 257.536 193.21 257.424 194.459H265.734ZM278.504 191.264C278.936 190.512 279.577 189.888 280.425 189.391C281.29 188.879 282.291 188.623 283.427 188.623C284.596 188.623 285.653 188.903 286.598 189.463C287.558 190.024 288.311 190.816 288.855 191.841C289.4 192.85 289.672 194.026 289.672 195.371C289.672 196.7 289.4 197.885 288.855 198.926C288.311 199.967 287.558 200.775 286.598 201.352C285.653 201.928 284.596 202.216 283.427 202.216C282.307 202.216 281.314 201.968 280.449 201.472C279.601 200.959 278.952 200.327 278.504 199.574V208.244H276.318V188.839H278.504V191.264ZM287.438 195.371C287.438 194.379 287.238 193.514 286.838 192.778C286.438 192.041 285.893 191.481 285.205 191.096C284.532 190.712 283.788 190.52 282.971 190.52C282.171 190.52 281.426 190.72 280.738 191.12C280.065 191.505 279.521 192.073 279.104 192.826C278.704 193.562 278.504 194.419 278.504 195.395C278.504 196.388 278.704 197.261 279.104 198.013C279.521 198.75 280.065 199.318 280.738 199.718C281.426 200.103 282.171 200.295 282.971 200.295C283.788 200.295 284.532 200.103 285.205 199.718C285.893 199.318 286.438 198.75 286.838 198.013C287.238 197.261 287.438 196.38 287.438 195.371ZM297.808 202.216C296.575 202.216 295.455 201.936 294.446 201.376C293.453 200.815 292.669 200.023 292.092 198.998C291.532 197.957 291.252 196.756 291.252 195.395C291.252 194.05 291.54 192.866 292.116 191.841C292.709 190.8 293.509 190.008 294.518 189.463C295.527 188.903 296.655 188.623 297.904 188.623C299.153 188.623 300.282 188.903 301.291 189.463C302.299 190.008 303.092 190.792 303.668 191.817C304.261 192.842 304.557 194.034 304.557 195.395C304.557 196.756 304.253 197.957 303.644 198.998C303.052 200.023 302.243 200.815 301.219 201.376C300.194 201.936 299.057 202.216 297.808 202.216ZM297.808 200.295C298.593 200.295 299.329 200.111 300.018 199.742C300.706 199.374 301.259 198.822 301.675 198.085C302.107 197.349 302.323 196.452 302.323 195.395C302.323 194.339 302.115 193.442 301.699 192.705C301.283 191.969 300.738 191.425 300.066 191.072C299.393 190.704 298.665 190.52 297.88 190.52C297.08 190.52 296.343 190.704 295.671 191.072C295.014 191.425 294.486 191.969 294.086 192.705C293.685 193.442 293.485 194.339 293.485 195.395C293.485 196.468 293.677 197.373 294.062 198.109C294.462 198.846 294.99 199.398 295.647 199.766C296.303 200.119 297.024 200.295 297.808 200.295ZM324.482 188.839L320.376 202H318.118L314.948 191.553L311.778 202H309.52L305.389 188.839H307.623L310.649 199.887L313.915 188.839H316.149L319.343 199.911L322.321 188.839H324.482ZM338.18 194.915C338.18 195.331 338.156 195.772 338.108 196.236H327.588C327.668 197.533 328.109 198.55 328.909 199.286C329.726 200.007 330.71 200.367 331.863 200.367C332.808 200.367 333.592 200.151 334.217 199.718C334.857 199.27 335.306 198.678 335.562 197.941H337.915C337.563 199.206 336.859 200.239 335.802 201.039C334.745 201.824 333.432 202.216 331.863 202.216C330.614 202.216 329.493 201.936 328.501 201.376C327.524 200.815 326.756 200.023 326.195 198.998C325.635 197.957 325.355 196.756 325.355 195.395C325.355 194.034 325.627 192.842 326.171 191.817C326.716 190.792 327.476 190.008 328.453 189.463C329.445 188.903 330.582 188.623 331.863 188.623C333.112 188.623 334.217 188.895 335.177 189.439C336.138 189.984 336.875 190.736 337.387 191.697C337.915 192.641 338.18 193.714 338.18 194.915ZM335.922 194.459C335.922 193.626 335.738 192.914 335.37 192.321C335.001 191.713 334.497 191.256 333.857 190.952C333.232 190.632 332.536 190.472 331.767 190.472C330.662 190.472 329.718 190.824 328.933 191.529C328.165 192.233 327.724 193.21 327.612 194.459H335.922ZM342.77 190.976C343.154 190.224 343.698 189.639 344.403 189.223C345.123 188.807 345.996 188.599 347.021 188.599V190.856H346.444C343.994 190.856 342.77 192.185 342.77 194.843V202H340.584V188.839H342.77V190.976ZM360.726 202.216C359.493 202.216 358.372 201.936 357.363 201.376C356.371 200.815 355.586 200.023 355.01 198.998C354.449 197.957 354.169 196.756 354.169 195.395C354.169 194.05 354.457 192.866 355.034 191.841C355.626 190.8 356.427 190.008 357.435 189.463C358.444 188.903 359.573 188.623 360.822 188.623C362.071 188.623 363.199 188.903 364.208 189.463C365.217 190.008 366.009 190.792 366.586 191.817C367.178 192.842 367.474 194.034 367.474 195.395C367.474 196.756 367.17 197.957 366.562 198.998C365.969 200.023 365.161 200.815 364.136 201.376C363.111 201.936 361.975 202.216 360.726 202.216ZM360.726 200.295C361.51 200.295 362.247 200.111 362.935 199.742C363.624 199.374 364.176 198.822 364.592 198.085C365.025 197.349 365.241 196.452 365.241 195.395C365.241 194.339 365.033 193.442 364.616 192.705C364.2 191.969 363.656 191.425 362.983 191.072C362.311 190.704 361.582 190.52 360.798 190.52C359.997 190.52 359.261 190.704 358.588 191.072C357.932 191.425 357.403 191.969 357.003 192.705C356.603 193.442 356.403 194.339 356.403 195.395C356.403 196.468 356.595 197.373 356.979 198.109C357.379 198.846 357.908 199.398 358.564 199.766C359.221 200.119 359.941 200.295 360.726 200.295ZM375.223 190.64H372.462V202H370.276V190.64H368.571V188.839H370.276V187.902C370.276 186.429 370.652 185.356 371.405 184.684C372.173 183.995 373.398 183.651 375.079 183.651V185.476C374.119 185.476 373.438 185.669 373.038 186.053C372.654 186.421 372.462 187.038 372.462 187.902V188.839H375.223V190.64ZM4.03483 221.26V238H1.8493V221.26H4.03483ZM13.6918 224.599C15.293 224.599 16.5899 225.087 17.5826 226.064C18.5753 227.024 19.0716 228.417 19.0716 230.243V238H16.9101V230.555C16.9101 229.242 16.5819 228.241 15.9254 227.553C15.2689 226.848 14.3723 226.496 13.2355 226.496C12.0827 226.496 11.1621 226.856 10.4736 227.577C9.80112 228.297 9.46488 229.346 9.46488 230.723V238H7.27935V224.839H9.46488V226.712C9.89718 226.04 10.4816 225.519 11.2181 225.151C11.9706 224.783 12.7952 224.599 13.6918 224.599ZM24.8272 226.64V234.397C24.8272 235.038 24.9633 235.494 25.2355 235.766C25.5077 236.023 25.98 236.151 26.6525 236.151H28.2616V238H26.2922C25.0754 238 24.1627 237.72 23.5543 237.159C22.9459 236.599 22.6417 235.678 22.6417 234.397V226.64H20.9365V224.839H22.6417V221.524H24.8272V224.839H28.2616V226.64H24.8272ZM42.4377 230.915C42.4377 231.331 42.4137 231.772 42.3657 232.236H31.8463C31.9264 233.533 32.3667 234.55 33.1672 235.286C33.9838 236.007 34.9685 236.367 36.1213 236.367C37.066 236.367 37.8505 236.151 38.475 235.718C39.1154 235.27 39.5637 234.678 39.8199 233.941H42.1735C41.8213 235.206 41.1168 236.239 40.0601 237.039C39.0033 237.824 37.6904 238.216 36.1213 238.216C34.8724 238.216 33.7516 237.936 32.7589 237.376C31.7823 236.815 31.0137 236.023 30.4533 234.998C29.8929 233.957 29.6127 232.756 29.6127 231.395C29.6127 230.034 29.8849 228.842 30.4293 227.817C30.9737 226.792 31.7342 226.008 32.7109 225.463C33.7036 224.903 34.8404 224.623 36.1213 224.623C37.3702 224.623 38.475 224.895 39.4356 225.439C40.3963 225.984 41.1328 226.736 41.6452 227.697C42.1735 228.641 42.4377 229.714 42.4377 230.915ZM40.1801 230.459C40.1801 229.626 39.996 228.914 39.6278 228.321C39.2595 227.713 38.7551 227.256 38.1147 226.952C37.4903 226.632 36.7938 226.472 36.0252 226.472C34.9205 226.472 33.9758 226.824 33.1912 227.529C32.4227 228.233 31.9824 229.21 31.8703 230.459H40.1801ZM47.0278 220.228V238H44.8422V220.228H47.0278ZM52.4578 220.228V238H50.2723V220.228H52.4578ZM56.8311 222.701C56.4148 222.701 56.0626 222.557 55.7744 222.269C55.4862 221.981 55.3421 221.629 55.3421 221.212C55.3421 220.796 55.4862 220.444 55.7744 220.155C56.0626 219.867 56.4148 219.723 56.8311 219.723C57.2314 219.723 57.5676 219.867 57.8398 220.155C58.128 220.444 58.2721 220.796 58.2721 221.212C58.2721 221.629 58.128 221.981 57.8398 222.269C57.5676 222.557 57.2314 222.701 56.8311 222.701ZM57.8879 224.839V238H55.7023V224.839H57.8879ZM66.5602 224.623C67.697 224.623 68.6897 224.871 69.5383 225.367C70.4029 225.863 71.0433 226.488 71.4596 227.24V224.839H73.6692V238.288C73.6692 239.489 73.413 240.554 72.9006 241.482C72.3883 242.427 71.6518 243.164 70.6911 243.692C69.7464 244.22 68.6416 244.485 67.3768 244.485C65.6475 244.485 64.2065 244.076 63.0537 243.26C61.9009 242.443 61.2204 241.33 61.0123 239.921H63.1738C63.414 240.722 63.9103 241.362 64.6629 241.843C65.4154 242.339 66.32 242.587 67.3768 242.587C68.5776 242.587 69.5543 242.211 70.3068 241.458C71.0753 240.706 71.4596 239.649 71.4596 238.288V235.526C71.0273 236.295 70.3869 236.935 69.5383 237.448C68.6897 237.96 67.697 238.216 66.5602 238.216C65.3914 238.216 64.3266 237.928 63.3659 237.352C62.4213 236.775 61.6768 235.967 61.1324 234.926C60.588 233.885 60.3158 232.7 60.3158 231.371C60.3158 230.026 60.588 228.85 61.1324 227.841C61.6768 226.816 62.4213 226.024 63.3659 225.463C64.3266 224.903 65.3914 224.623 66.5602 224.623ZM71.4596 231.395C71.4596 230.403 71.2595 229.538 70.8592 228.802C70.4589 228.065 69.9145 227.505 69.2261 227.12C68.5536 226.72 67.8091 226.52 66.9925 226.52C66.1759 226.52 65.4314 226.712 64.7589 227.096C64.0865 227.481 63.5501 228.041 63.1498 228.778C62.7495 229.514 62.5494 230.379 62.5494 231.371C62.5494 232.38 62.7495 233.261 63.1498 234.013C63.5501 234.75 64.0865 235.318 64.7589 235.718C65.4314 236.103 66.1759 236.295 66.9925 236.295C67.8091 236.295 68.5536 236.103 69.2261 235.718C69.9145 235.318 70.4589 234.75 70.8592 234.013C71.2595 233.261 71.4596 232.388 71.4596 231.395ZM88.8906 230.915C88.8906 231.331 88.8666 231.772 88.8185 232.236H78.2992C78.3792 233.533 78.8195 234.55 79.6201 235.286C80.4367 236.007 81.4213 236.367 82.5742 236.367C83.5188 236.367 84.3034 236.151 84.9278 235.718C85.5682 235.27 86.0166 234.678 86.2727 233.941H88.6264C88.2741 235.206 87.5696 236.239 86.5129 237.039C85.4562 237.824 84.1432 238.216 82.5742 238.216C81.3253 238.216 80.2045 237.936 79.2118 237.376C78.2351 236.815 77.4666 236.023 76.9062 234.998C76.3458 233.957 76.0656 232.756 76.0656 231.395C76.0656 230.034 76.3378 228.842 76.8822 227.817C77.4265 226.792 78.1871 226.008 79.1638 225.463C80.1565 224.903 81.2933 224.623 82.5742 224.623C83.823 224.623 84.9278 224.895 85.8885 225.439C86.8491 225.984 87.5857 226.736 88.098 227.697C88.6264 228.641 88.8906 229.714 88.8906 230.915ZM86.633 230.459C86.633 229.626 86.4489 228.914 86.0806 228.321C85.7123 227.713 85.208 227.256 84.5675 226.952C83.9431 226.632 83.2466 226.472 82.4781 226.472C81.3733 226.472 80.4286 226.824 79.6441 227.529C78.8756 228.233 78.4353 229.21 78.3232 230.459H86.633ZM97.7076 224.599C99.3087 224.599 100.606 225.087 101.598 226.064C102.591 227.024 103.087 228.417 103.087 230.243V238H100.926V230.555C100.926 229.242 100.598 228.241 99.9411 227.553C99.2847 226.848 98.388 226.496 97.2512 226.496C96.0984 226.496 95.1778 226.856 94.4893 227.577C93.8168 228.297 93.4806 229.346 93.4806 230.723V238H91.2951V224.839H93.4806V226.712C93.9129 226.04 94.4973 225.519 95.2338 225.151C95.9864 224.783 96.8109 224.599 97.7076 224.599ZM108.843 226.64V234.397C108.843 235.038 108.979 235.494 109.251 235.766C109.523 236.023 109.996 236.151 110.668 236.151H112.277V238H110.308C109.091 238 108.178 237.72 107.57 237.159C106.962 236.599 106.657 235.678 106.657 234.397V226.64H104.952V224.839H106.657V221.524H108.843V224.839H112.277V226.64H108.843ZM130.263 234.277H122.961L121.616 238H119.311L125.363 221.356H127.885L133.913 238H131.607L130.263 234.277ZM129.638 232.5L126.612 224.046L123.586 232.5H129.638ZM147.743 224.839V238H145.557V236.055C145.141 236.727 144.556 237.255 143.804 237.64C143.067 238.008 142.251 238.192 141.354 238.192C140.329 238.192 139.409 237.984 138.592 237.568C137.776 237.135 137.127 236.495 136.647 235.646C136.183 234.798 135.95 233.765 135.95 232.548V224.839H138.112V232.26C138.112 233.557 138.44 234.558 139.097 235.262C139.753 235.951 140.65 236.295 141.787 236.295C142.955 236.295 143.876 235.935 144.548 235.214C145.221 234.494 145.557 233.445 145.557 232.068V224.839H147.743ZM153.618 226.64V234.397C153.618 235.038 153.754 235.494 154.027 235.766C154.299 236.023 154.771 236.151 155.444 236.151H157.053V238H155.083C153.867 238 152.954 237.72 152.345 237.159C151.737 236.599 151.433 235.678 151.433 234.397V226.64H149.728V224.839H151.433V221.524H153.618V224.839H157.053V226.64H153.618ZM164.96 238.216C163.728 238.216 162.607 237.936 161.598 237.376C160.605 236.815 159.821 236.023 159.244 234.998C158.684 233.957 158.404 232.756 158.404 231.395C158.404 230.05 158.692 228.866 159.268 227.841C159.861 226.8 160.661 226.008 161.67 225.463C162.679 224.903 163.808 224.623 165.057 224.623C166.305 224.623 167.434 224.903 168.443 225.463C169.452 226.008 170.244 226.792 170.821 227.817C171.413 228.842 171.709 230.034 171.709 231.395C171.709 232.756 171.405 233.957 170.797 234.998C170.204 236.023 169.396 236.815 168.371 237.376C167.346 237.936 166.209 238.216 164.96 238.216ZM164.96 236.295C165.745 236.295 166.482 236.111 167.17 235.742C167.859 235.374 168.411 234.822 168.827 234.085C169.259 233.349 169.476 232.452 169.476 231.395C169.476 230.339 169.268 229.442 168.851 228.705C168.435 227.969 167.891 227.425 167.218 227.072C166.546 226.704 165.817 226.52 165.033 226.52C164.232 226.52 163.495 226.704 162.823 227.072C162.167 227.425 161.638 227.969 161.238 228.705C160.838 229.442 160.637 230.339 160.637 231.395C160.637 232.468 160.83 233.373 161.214 234.109C161.614 234.846 162.143 235.398 162.799 235.766C163.455 236.119 164.176 236.295 164.96 236.295ZM189.93 224.599C190.954 224.599 191.867 224.815 192.667 225.247C193.468 225.663 194.1 226.296 194.565 227.144C195.029 227.993 195.261 229.026 195.261 230.243V238H193.1V230.555C193.1 229.242 192.772 228.241 192.115 227.553C191.475 226.848 190.602 226.496 189.497 226.496C188.36 226.496 187.456 226.864 186.783 227.601C186.111 228.321 185.775 229.37 185.775 230.747V238H183.613V230.555C183.613 229.242 183.285 228.241 182.628 227.553C181.988 226.848 181.115 226.496 180.011 226.496C178.874 226.496 177.969 226.864 177.297 227.601C176.624 228.321 176.288 229.37 176.288 230.747V238H174.102V224.839H176.288V226.736C176.72 226.048 177.297 225.519 178.017 225.151C178.754 224.783 179.562 224.599 180.443 224.599C181.548 224.599 182.524 224.847 183.373 225.343C184.222 225.839 184.854 226.568 185.27 227.529C185.639 226.6 186.247 225.88 187.096 225.367C187.944 224.855 188.889 224.599 189.93 224.599ZM197.549 231.371C197.549 230.026 197.822 228.85 198.366 227.841C198.91 226.816 199.655 226.024 200.6 225.463C201.56 224.903 202.625 224.623 203.794 224.623C204.947 224.623 205.947 224.871 206.796 225.367C207.645 225.863 208.277 226.488 208.693 227.24V224.839H210.903V238H208.693V235.55C208.261 236.319 207.612 236.959 206.748 237.472C205.899 237.968 204.907 238.216 203.77 238.216C202.601 238.216 201.544 237.928 200.6 237.352C199.655 236.775 198.91 235.967 198.366 234.926C197.822 233.885 197.549 232.7 197.549 231.371ZM208.693 231.395C208.693 230.403 208.493 229.538 208.093 228.802C207.693 228.065 207.148 227.505 206.46 227.12C205.787 226.72 205.043 226.52 204.226 226.52C203.41 226.52 202.665 226.712 201.993 227.096C201.32 227.481 200.784 228.041 200.383 228.778C199.983 229.514 199.783 230.379 199.783 231.371C199.783 232.38 199.983 233.261 200.383 234.013C200.784 234.75 201.32 235.318 201.993 235.718C202.665 236.103 203.41 236.295 204.226 236.295C205.043 236.295 205.787 236.103 206.46 235.718C207.148 235.318 207.693 234.75 208.093 234.013C208.493 233.261 208.693 232.388 208.693 231.395ZM216.782 226.64V234.397C216.782 235.038 216.918 235.494 217.19 235.766C217.462 236.023 217.934 236.151 218.607 236.151H220.216V238H218.247C217.03 238 216.117 237.72 215.509 237.159C214.9 236.599 214.596 235.678 214.596 234.397V226.64H212.891V224.839H214.596V221.524H216.782V224.839H220.216V226.64H216.782ZM223.513 222.701C223.096 222.701 222.744 222.557 222.456 222.269C222.168 221.981 222.024 221.629 222.024 221.212C222.024 220.796 222.168 220.444 222.456 220.155C222.744 219.867 223.096 219.723 223.513 219.723C223.913 219.723 224.249 219.867 224.521 220.155C224.809 220.444 224.954 220.796 224.954 221.212C224.954 221.629 224.809 221.981 224.521 222.269C224.249 222.557 223.913 222.701 223.513 222.701ZM224.569 224.839V238H222.384V224.839H224.569ZM233.554 238.216C232.321 238.216 231.2 237.936 230.191 237.376C229.199 236.815 228.414 236.023 227.838 234.998C227.277 233.957 226.997 232.756 226.997 231.395C226.997 230.05 227.285 228.866 227.862 227.841C228.454 226.8 229.255 226.008 230.264 225.463C231.272 224.903 232.401 224.623 233.65 224.623C234.899 224.623 236.028 224.903 237.036 225.463C238.045 226.008 238.838 226.792 239.414 227.817C240.006 228.842 240.303 230.034 240.303 231.395C240.303 232.756 239.998 233.957 239.39 234.998C238.798 236.023 237.989 236.815 236.964 237.376C235.94 237.936 234.803 238.216 233.554 238.216ZM233.554 236.295C234.338 236.295 235.075 236.111 235.763 235.742C236.452 235.374 237.004 234.822 237.421 234.085C237.853 233.349 238.069 232.452 238.069 231.395C238.069 230.339 237.861 229.442 237.445 228.705C237.028 227.969 236.484 227.425 235.811 227.072C235.139 226.704 234.41 226.52 233.626 226.52C232.825 226.52 232.089 226.704 231.416 227.072C230.76 227.425 230.232 227.969 229.831 228.705C229.431 229.442 229.231 230.339 229.231 231.395C229.231 232.468 229.423 233.373 229.807 234.109C230.207 234.846 230.736 235.398 231.392 235.766C232.049 236.119 232.769 236.295 233.554 236.295ZM249.108 224.599C250.709 224.599 252.006 225.087 252.999 226.064C253.992 227.024 254.488 228.417 254.488 230.243V238H252.327V230.555C252.327 229.242 251.998 228.241 251.342 227.553C250.685 226.848 249.789 226.496 248.652 226.496C247.499 226.496 246.579 226.856 245.89 227.577C245.218 228.297 244.881 229.346 244.881 230.723V238H242.696V224.839H244.881V226.712C245.314 226.04 245.898 225.519 246.635 225.151C247.387 224.783 248.212 224.599 249.108 224.599ZM258.274 238.144C257.858 238.144 257.506 238 257.218 237.712C256.929 237.424 256.785 237.071 256.785 236.655C256.785 236.239 256.929 235.887 257.218 235.598C257.506 235.31 257.858 235.166 258.274 235.166C258.675 235.166 259.011 235.31 259.283 235.598C259.571 235.887 259.715 236.239 259.715 236.655C259.715 237.071 259.571 237.424 259.283 237.712C259.011 238 258.675 238.144 258.274 238.144Z" fill="white"/>
</svg>
