<svg width="434" height="79" viewBox="0 0 434 79" fill="none" xmlns="http://www.w3.org/2000/svg">
<path d="M0.825652 8.88663C0.825652 7.50064 1.13818 6.25733 1.76323 5.15669C2.38828 4.04247 3.23754 3.17283 4.311 2.54778C5.39805 1.92272 6.6006 1.6102 7.91864 1.6102C9.46769 1.6102 10.8197 1.98387 11.9747 2.73121C13.1297 3.47856 13.9721 4.53843 14.5021 5.91083H12.2804C11.8864 5.05478 11.3157 4.39576 10.5683 3.93376C9.83457 3.47177 8.95134 3.24077 7.91864 3.24077C6.92671 3.24077 6.03669 3.47177 5.24858 3.93376C4.46047 4.39576 3.84221 5.05478 3.3938 5.91083C2.9454 6.75329 2.72119 7.74523 2.72119 8.88663C2.72119 10.0144 2.9454 11.0064 3.3938 11.8624C3.84221 12.7049 4.46047 13.3571 5.24858 13.8191C6.03669 14.2811 6.92671 14.5121 7.91864 14.5121C8.95134 14.5121 9.83457 14.2879 10.5683 13.8395C11.3157 13.3775 11.8864 12.7185 12.2804 11.8624H14.5021C13.9721 13.2212 13.1297 14.2743 11.9747 15.0217C10.8197 15.7554 9.46769 16.1223 7.91864 16.1223C6.6006 16.1223 5.39805 15.8166 4.311 15.2051C3.23754 14.58 2.38828 13.7172 1.76323 12.6166C1.13818 11.5159 0.825652 10.2726 0.825652 8.88663ZM18.7102 6.64459C19.0363 6.00595 19.4983 5.50998 20.0962 5.15669C20.7077 4.8034 21.4482 4.62676 22.3178 4.62676V6.54268H21.8287C19.7497 6.54268 18.7102 7.67049 18.7102 9.92612V16H16.8554V4.83058H18.7102V6.64459ZM34.2424 9.98726C34.2424 10.3406 34.222 10.7142 34.1812 11.1083H25.2538C25.3218 12.2089 25.6954 13.0718 26.3748 13.6968C27.0678 14.3083 27.9035 14.614 28.8819 14.614C29.6835 14.614 30.3494 14.4306 30.8793 14.0637C31.4228 13.6832 31.8033 13.1805 32.0207 12.5554H34.0182C33.7192 13.6289 33.1213 14.5053 32.2245 15.1847C31.3277 15.8505 30.2135 16.1834 28.8819 16.1834C27.822 16.1834 26.8708 15.9456 26.0283 15.4701C25.1995 14.9945 24.5472 14.3219 24.0717 13.4522C23.5961 12.569 23.3583 11.5499 23.3583 10.3949C23.3583 9.23992 23.5893 8.2276 24.0513 7.35796C24.5133 6.48833 25.1587 5.82251 25.9876 5.36051C26.83 4.88493 27.7948 4.64714 28.8819 4.64714C29.9417 4.64714 30.8793 4.87814 31.6946 5.34013C32.5099 5.80213 33.1349 6.44077 33.5697 7.25605C34.0182 8.05775 34.2424 8.96816 34.2424 9.98726ZM32.3264 9.6C32.3264 8.89342 32.1702 8.28875 31.8576 7.78599C31.5451 7.26964 31.1171 6.88238 30.5736 6.62421C30.0436 6.35244 29.4526 6.21656 28.8003 6.21656C27.8627 6.21656 27.061 6.5155 26.3952 7.11338C25.743 7.71126 25.3693 8.54013 25.2742 9.6H32.3264ZM35.59 10.3745C35.59 9.23312 35.821 8.2344 36.283 7.37835C36.745 6.50871 37.3768 5.8361 38.1785 5.36051C38.9938 4.88493 39.8974 4.64714 40.8893 4.64714C41.8677 4.64714 42.7169 4.85775 43.4371 5.27898C44.1573 5.70022 44.694 6.23015 45.0473 6.86879V4.83058H46.9225V16H45.0473V13.921C44.6804 14.5732 44.1301 15.1168 43.3963 15.5516C42.6762 15.9728 41.8337 16.1834 40.869 16.1834C39.877 16.1834 38.9802 15.9389 38.1785 15.4497C37.3768 14.9605 36.745 14.2743 36.283 13.3911C35.821 12.5079 35.59 11.5023 35.59 10.3745ZM45.0473 10.3949C45.0473 9.55244 44.8774 8.81869 44.5377 8.19363C44.198 7.56858 43.736 7.093 43.1518 6.76688C42.5811 6.42718 41.9492 6.25733 41.2562 6.25733C40.5632 6.25733 39.9314 6.42039 39.3607 6.7465C38.79 7.07261 38.3348 7.5482 37.9951 8.17325C37.6554 8.7983 37.4855 9.53206 37.4855 10.3745C37.4855 11.2306 37.6554 11.9779 37.9951 12.6166C38.3348 13.2416 38.79 13.724 39.3607 14.0637C39.9314 14.3898 40.5632 14.5529 41.2562 14.5529C41.9492 14.5529 42.5811 14.3898 43.1518 14.0637C43.736 13.724 44.198 13.2416 44.5377 12.6166C44.8774 11.9779 45.0473 11.2374 45.0473 10.3949ZM51.9116 6.35924V12.9427C51.9116 13.4862 52.0271 13.8735 52.2581 14.1045C52.4891 14.3219 52.89 14.4306 53.4607 14.4306H54.8263V16H53.1549C52.1222 16 51.3477 15.7622 50.8314 15.2866C50.315 14.811 50.0568 14.0297 50.0568 12.9427V6.35924H48.6097V4.83058H50.0568V2.01784H51.9116V4.83058H54.8263V6.35924H51.9116ZM66.857 9.98726C66.857 10.3406 66.8366 10.7142 66.7959 11.1083H57.8685C57.9364 12.2089 58.3101 13.0718 58.9895 13.6968C59.6825 14.3083 60.5181 14.614 61.4965 14.614C62.2982 14.614 62.964 14.4306 63.4939 14.0637C64.0375 13.6832 64.4179 13.1805 64.6353 12.5554H66.6328C66.3339 13.6289 65.736 14.5053 64.8392 15.1847C63.9423 15.8505 62.8281 16.1834 61.4965 16.1834C60.4366 16.1834 59.4855 15.9456 58.643 15.4701C57.8141 14.9945 57.1619 14.3219 56.6863 13.4522C56.2107 12.569 55.9729 11.5499 55.9729 10.3949C55.9729 9.23992 56.2039 8.2276 56.6659 7.35796C57.1279 6.48833 57.7733 5.82251 58.6022 5.36051C59.4447 4.88493 60.4094 4.64714 61.4965 4.64714C62.5564 4.64714 63.4939 4.87814 64.3092 5.34013C65.1245 5.80213 65.7496 6.44077 66.1844 7.25605C66.6328 8.05775 66.857 8.96816 66.857 9.98726ZM64.9411 9.6C64.9411 8.89342 64.7848 8.28875 64.4723 7.78599C64.1598 7.26964 63.7317 6.88238 63.1882 6.62421C62.6583 6.35244 62.0672 6.21656 61.415 6.21656C60.4774 6.21656 59.6757 6.5155 59.0099 7.11338C58.3576 7.71126 57.984 8.54013 57.8888 9.6H64.9411ZM75.7786 6.88917C76.1455 6.25053 76.6891 5.7206 77.4092 5.29937C78.143 4.86455 78.9922 4.64714 79.957 4.64714C80.9489 4.64714 81.8457 4.88493 82.6474 5.36051C83.4627 5.8361 84.1014 6.50871 84.5634 7.37835C85.0254 8.2344 85.2564 9.23312 85.2564 10.3745C85.2564 11.5023 85.0254 12.5079 84.5634 13.3911C84.1014 14.2743 83.4627 14.9605 82.6474 15.4497C81.8457 15.9389 80.9489 16.1834 79.957 16.1834C79.0058 16.1834 78.1634 15.9728 77.4296 15.5516C76.7094 15.1168 76.1591 14.58 75.7786 13.9414V21.2994H73.9239V4.83058H75.7786V6.88917ZM83.3608 10.3745C83.3608 9.53206 83.191 8.7983 82.8513 8.17325C82.5116 7.5482 82.0496 7.07261 81.4653 6.7465C80.8946 6.42039 80.2627 6.25733 79.5697 6.25733C78.8903 6.25733 78.2585 6.42718 77.6742 6.76688C77.1035 7.093 76.6415 7.57537 76.2882 8.21401C75.9485 8.83907 75.7786 9.56603 75.7786 10.3949C75.7786 11.2374 75.9485 11.9779 76.2882 12.6166C76.6415 13.2416 77.1035 13.724 77.6742 14.0637C78.2585 14.3898 78.8903 14.5529 79.5697 14.5529C80.2627 14.5529 80.8946 14.3898 81.4653 14.0637C82.0496 13.724 82.5116 13.2416 82.8513 12.6166C83.191 11.9779 83.3608 11.2306 83.3608 10.3745ZM89.1449 6.64459C89.471 6.00595 89.933 5.50998 90.5309 5.15669C91.1423 4.8034 91.8829 4.62676 92.7525 4.62676V6.54268H92.2634C90.1844 6.54268 89.1449 7.67049 89.1449 9.92612V16H87.2901V4.83058H89.1449V6.64459ZM99.3573 16.1834C98.311 16.1834 97.3599 15.9456 96.5038 15.4701C95.6613 14.9945 94.9955 14.3219 94.5064 13.4522C94.0308 12.569 93.793 11.5499 93.793 10.3949C93.793 9.25351 94.0376 8.24799 94.5267 7.37835C95.0295 6.49512 95.7089 5.82251 96.5649 5.36051C97.421 4.88493 98.379 4.64714 99.4388 4.64714C100.499 4.64714 101.457 4.88493 102.313 5.36051C103.169 5.82251 103.841 6.48833 104.331 7.35796C104.833 8.2276 105.085 9.23992 105.085 10.3949C105.085 11.5499 104.827 12.569 104.31 13.4522C103.807 14.3219 103.121 14.9945 102.252 15.4701C101.382 15.9456 100.417 16.1834 99.3573 16.1834ZM99.3573 14.5529C100.023 14.5529 100.648 14.3966 101.232 14.0841C101.817 13.7716 102.286 13.3028 102.639 12.6777C103.006 12.0527 103.189 11.2917 103.189 10.3949C103.189 9.49809 103.013 8.73716 102.659 8.1121C102.306 7.48705 101.844 7.02506 101.273 6.72612C100.703 6.41359 100.084 6.25733 99.4185 6.25733C98.739 6.25733 98.114 6.41359 97.5433 6.72612C96.9862 7.02506 96.5378 7.48705 96.1981 8.1121C95.8584 8.73716 95.6885 9.49809 95.6885 10.3949C95.6885 11.3053 95.8516 12.073 96.1777 12.6981C96.5174 13.3231 96.9658 13.7919 97.5229 14.1045C98.08 14.4034 98.6915 14.5529 99.3573 14.5529ZM106.423 10.3949C106.423 9.23992 106.654 8.2344 107.116 7.37835C107.578 6.50871 108.216 5.8361 109.032 5.36051C109.861 4.88493 110.805 4.64714 111.865 4.64714C113.237 4.64714 114.365 4.98005 115.248 5.64586C116.145 6.31168 116.736 7.23567 117.021 8.41784H115.024C114.834 7.73843 114.46 7.2017 113.903 6.80765C113.359 6.41359 112.68 6.21656 111.865 6.21656C110.805 6.21656 109.949 6.58344 109.297 7.3172C108.644 8.03737 108.318 9.06327 108.318 10.3949C108.318 11.7401 108.644 12.7796 109.297 13.5134C109.949 14.2471 110.805 14.614 111.865 14.614C112.68 14.614 113.359 14.4238 113.903 14.0433C114.447 13.6628 114.82 13.1193 115.024 12.4127H117.021C116.723 13.5541 116.125 14.4713 115.228 15.1643C114.331 15.8437 113.21 16.1834 111.865 16.1834C110.805 16.1834 109.861 15.9456 109.032 15.4701C108.216 14.9945 107.578 14.3219 107.116 13.4522C106.654 12.5826 106.423 11.5635 106.423 10.3949ZM129.28 9.98726C129.28 10.3406 129.259 10.7142 129.219 11.1083H120.291C120.359 12.2089 120.733 13.0718 121.412 13.6968C122.105 14.3083 122.941 14.614 123.919 14.614C124.721 14.614 125.387 14.4306 125.917 14.0637C126.46 13.6832 126.841 13.1805 127.058 12.5554H129.056C128.757 13.6289 128.159 14.5053 127.262 15.1847C126.365 15.8505 125.251 16.1834 123.919 16.1834C122.859 16.1834 121.908 15.9456 121.066 15.4701C120.237 14.9945 119.585 14.3219 119.109 13.4522C118.633 12.569 118.396 11.5499 118.396 10.3949C118.396 9.23992 118.627 8.2276 119.089 7.35796C119.551 6.48833 120.196 5.82251 121.025 5.36051C121.867 4.88493 122.832 4.64714 123.919 4.64714C124.979 4.64714 125.917 4.87814 126.732 5.34013C127.547 5.80213 128.172 6.44077 128.607 7.25605C129.056 8.05775 129.28 8.96816 129.28 9.98726ZM127.364 9.6C127.364 8.89342 127.208 8.28875 126.895 7.78599C126.583 7.26964 126.154 6.88238 125.611 6.62421C125.081 6.35244 124.49 6.21656 123.838 6.21656C122.9 6.21656 122.098 6.5155 121.433 7.11338C120.78 7.71126 120.407 8.54013 120.312 9.6H127.364ZM135.274 16.1834C134.418 16.1834 133.651 16.0408 132.971 15.7554C132.292 15.4565 131.755 15.0488 131.361 14.5325C130.967 14.0025 130.75 13.3979 130.709 12.7185H132.625C132.679 13.2756 132.937 13.7308 133.399 14.0841C133.875 14.4374 134.493 14.614 135.254 14.614C135.961 14.614 136.518 14.4577 136.925 14.1452C137.333 13.8327 137.537 13.4386 137.537 12.9631C137.537 12.4739 137.319 12.1138 136.885 11.8828C136.45 11.6382 135.777 11.4004 134.867 11.1694C134.038 10.952 133.359 10.7346 132.829 10.5172C132.312 10.2862 131.864 9.95329 131.483 9.51847C131.117 9.07007 130.933 8.48578 130.933 7.76561C130.933 7.19491 131.103 6.67177 131.443 6.19618C131.782 5.7206 132.265 5.34692 132.89 5.07516C133.515 4.78981 134.228 4.64714 135.03 4.64714C136.266 4.64714 137.265 4.95966 138.026 5.58472C138.787 6.20977 139.195 7.06582 139.249 8.15287H137.394C137.353 7.56858 137.116 7.09979 136.681 6.7465C136.26 6.39321 135.689 6.21656 134.969 6.21656C134.303 6.21656 133.773 6.35924 133.379 6.64459C132.985 6.92994 132.788 7.30361 132.788 7.76561C132.788 8.13249 132.903 8.43822 133.134 8.6828C133.379 8.9138 133.678 9.10404 134.031 9.2535C134.398 9.38939 134.901 9.54565 135.539 9.72229C136.341 9.9397 136.993 10.1571 137.496 10.3745C137.999 10.5783 138.427 10.8909 138.78 11.3121C139.147 11.7333 139.337 12.2837 139.351 12.9631C139.351 13.5745 139.181 14.1248 138.841 14.614C138.502 15.1032 138.019 15.4904 137.394 15.7758C136.783 16.0476 136.076 16.1834 135.274 16.1834ZM145.516 16.1834C144.66 16.1834 143.892 16.0408 143.213 15.7554C142.533 15.4565 141.996 15.0488 141.602 14.5325C141.208 14.0025 140.991 13.3979 140.95 12.7185H142.866C142.92 13.2756 143.179 13.7308 143.641 14.0841C144.116 14.4374 144.734 14.614 145.495 14.614C146.202 14.614 146.759 14.4577 147.167 14.1452C147.574 13.8327 147.778 13.4386 147.778 12.9631C147.778 12.4739 147.561 12.1138 147.126 11.8828C146.691 11.6382 146.018 11.4004 145.108 11.1694C144.279 10.952 143.6 10.7346 143.07 10.5172C142.554 10.2862 142.105 9.95329 141.725 9.51847C141.358 9.07007 141.174 8.48578 141.174 7.76561C141.174 7.19491 141.344 6.67177 141.684 6.19618C142.024 5.7206 142.506 5.34692 143.131 5.07516C143.756 4.78981 144.469 4.64714 145.271 4.64714C146.508 4.64714 147.506 4.95966 148.267 5.58472C149.028 6.20977 149.436 7.06582 149.49 8.15287H147.635C147.595 7.56858 147.357 7.09979 146.922 6.7465C146.501 6.39321 145.93 6.21656 145.21 6.21656C144.544 6.21656 144.014 6.35924 143.62 6.64459C143.226 6.92994 143.029 7.30361 143.029 7.76561C143.029 8.13249 143.145 8.43822 143.376 8.6828C143.62 8.9138 143.919 9.10404 144.272 9.2535C144.639 9.38939 145.142 9.54565 145.781 9.72229C146.582 9.9397 147.235 10.1571 147.737 10.3745C148.24 10.5783 148.668 10.8909 149.021 11.3121C149.388 11.7333 149.579 12.2837 149.592 12.9631C149.592 13.5745 149.422 14.1248 149.083 14.614C148.743 15.1032 148.261 15.4904 147.635 15.7758C147.024 16.0476 146.317 16.1834 145.516 16.1834ZM161.994 9.98726C161.994 10.3406 161.974 10.7142 161.933 11.1083H153.005C153.073 12.2089 153.447 13.0718 154.126 13.6968C154.819 14.3083 155.655 14.614 156.633 14.614C157.435 14.614 158.101 14.4306 158.631 14.0637C159.174 13.6832 159.555 13.1805 159.772 12.5554H161.77C161.471 13.6289 160.873 14.5053 159.976 15.1847C159.079 15.8505 157.965 16.1834 156.633 16.1834C155.574 16.1834 154.622 15.9456 153.78 15.4701C152.951 14.9945 152.299 14.3219 151.823 13.4522C151.348 12.569 151.11 11.5499 151.11 10.3949C151.11 9.23992 151.341 8.2276 151.803 7.35796C152.265 6.48833 152.91 5.82251 153.739 5.36051C154.582 4.88493 155.546 4.64714 156.633 4.64714C157.693 4.64714 158.631 4.87814 159.446 5.34013C160.261 5.80213 160.886 6.44077 161.321 7.25605C161.77 8.05775 161.994 8.96816 161.994 9.98726ZM160.078 9.6C160.078 8.89342 159.922 8.28875 159.609 7.78599C159.297 7.26964 158.869 6.88238 158.325 6.62421C157.795 6.35244 157.204 6.21656 156.552 6.21656C155.614 6.21656 154.813 6.5155 154.147 7.11338C153.495 7.71126 153.121 8.54013 153.026 9.6H160.078ZM167.989 16.1834C167.133 16.1834 166.365 16.0408 165.685 15.7554C165.006 15.4565 164.469 15.0488 164.075 14.5325C163.681 14.0025 163.464 13.3979 163.423 12.7185H165.339C165.393 13.2756 165.651 13.7308 166.113 14.0841C166.589 14.4374 167.207 14.614 167.968 14.614C168.675 14.614 169.232 14.4577 169.64 14.1452C170.047 13.8327 170.251 13.4386 170.251 12.9631C170.251 12.4739 170.034 12.1138 169.599 11.8828C169.164 11.6382 168.491 11.4004 167.581 11.1694C166.752 10.952 166.073 10.7346 165.543 10.5172C165.026 10.2862 164.578 9.95329 164.198 9.51847C163.831 9.07007 163.647 8.48578 163.647 7.76561C163.647 7.19491 163.817 6.67177 164.157 6.19618C164.497 5.7206 164.979 5.34692 165.604 5.07516C166.229 4.78981 166.942 4.64714 167.744 4.64714C168.981 4.64714 169.979 4.95966 170.74 5.58472C171.501 6.20977 171.909 7.06582 171.963 8.15287H170.108C170.068 7.56858 169.83 7.09979 169.395 6.7465C168.974 6.39321 168.403 6.21656 167.683 6.21656C167.017 6.21656 166.487 6.35924 166.093 6.64459C165.699 6.92994 165.502 7.30361 165.502 7.76561C165.502 8.13249 165.618 8.43822 165.849 8.6828C166.093 8.9138 166.392 9.10404 166.745 9.2535C167.112 9.38939 167.615 9.54565 168.254 9.72229C169.055 9.9397 169.708 10.1571 170.21 10.3745C170.713 10.5783 171.141 10.8909 171.494 11.3121C171.861 11.7333 172.051 12.2837 172.065 12.9631C172.065 13.5745 171.895 14.1248 171.556 14.614C171.216 15.1032 170.733 15.4904 170.108 15.7758C169.497 16.0476 168.79 16.1834 167.989 16.1834ZM183.847 6.35924H181.503V16H179.649V6.35924H178.201V4.83058H179.649V4.03567C179.649 2.78557 179.968 1.87516 180.606 1.30446C181.259 0.720174 182.298 0.42803 183.725 0.42803V1.97707C182.91 1.97707 182.332 2.14013 181.992 2.46625C181.666 2.77877 181.503 3.30191 181.503 4.03567V4.83058H183.847V6.35924ZM187.457 6.64459C187.783 6.00595 188.245 5.50998 188.843 5.15669C189.454 4.8034 190.195 4.62676 191.065 4.62676V6.54268H190.575C188.496 6.54268 187.457 7.67049 187.457 9.92612V16H185.602V4.83058H187.457V6.64459ZM197.669 16.1834C196.623 16.1834 195.672 15.9456 194.816 15.4701C193.973 14.9945 193.308 14.3219 192.818 13.4522C192.343 12.569 192.105 11.5499 192.105 10.3949C192.105 9.25351 192.35 8.24799 192.839 7.37835C193.342 6.49512 194.021 5.82251 194.877 5.36051C195.733 4.88493 196.691 4.64714 197.751 4.64714C198.811 4.64714 199.769 4.88493 200.625 5.36051C201.481 5.82251 202.153 6.48833 202.643 7.35796C203.145 8.2276 203.397 9.23992 203.397 10.3949C203.397 11.5499 203.139 12.569 202.622 13.4522C202.119 14.3219 201.433 14.9945 200.564 15.4701C199.694 15.9456 198.729 16.1834 197.669 16.1834ZM197.669 14.5529C198.335 14.5529 198.96 14.3966 199.545 14.0841C200.129 13.7716 200.598 13.3028 200.951 12.6777C201.318 12.0527 201.501 11.2917 201.501 10.3949C201.501 9.49809 201.325 8.73716 200.971 8.1121C200.618 7.48705 200.156 7.02506 199.585 6.72612C199.015 6.41359 198.396 6.25733 197.731 6.25733C197.051 6.25733 196.426 6.41359 195.855 6.72612C195.298 7.02506 194.85 7.48705 194.51 8.1121C194.17 8.73716 194.001 9.49809 194.001 10.3949C194.001 11.3053 194.164 12.073 194.49 12.6981C194.829 13.3231 195.278 13.7919 195.835 14.1045C196.392 14.4034 197.004 14.5529 197.669 14.5529ZM218.86 4.62676C219.729 4.62676 220.504 4.81019 221.183 5.17707C221.863 5.53036 222.399 6.06709 222.793 6.78726C223.187 7.50743 223.384 8.38387 223.384 9.41656V16H221.55V9.68153C221.55 8.56731 221.272 7.71805 220.714 7.13376C220.171 6.53588 219.43 6.23695 218.493 6.23695C217.528 6.23695 216.76 6.54947 216.19 7.17452C215.619 7.78599 215.334 8.67601 215.334 9.84459V16H213.499V9.68153C213.499 8.56731 213.221 7.71805 212.663 7.13376C212.12 6.53588 211.379 6.23695 210.442 6.23695C209.477 6.23695 208.709 6.54947 208.139 7.17452C207.568 7.78599 207.283 8.67601 207.283 9.84459V16H205.428V4.83058H207.283V6.44077C207.649 5.85648 208.139 5.40807 208.75 5.09554C209.375 4.78302 210.061 4.62676 210.809 4.62676C211.746 4.62676 212.575 4.83737 213.295 5.2586C214.015 5.67983 214.552 6.29809 214.906 7.11338C215.218 6.32527 215.734 5.7138 216.455 5.27898C217.175 4.84416 217.976 4.62676 218.86 4.62676ZM230.353 10.3745C230.353 9.23312 230.584 8.2344 231.046 7.37835C231.508 6.50871 232.139 5.8361 232.941 5.36051C233.756 4.88493 234.66 4.64714 235.652 4.64714C236.63 4.64714 237.48 4.85775 238.2 5.27898C238.92 5.70022 239.457 6.23015 239.81 6.86879V4.83058H241.685V16H239.81V13.921C239.443 14.5732 238.893 15.1168 238.159 15.5516C237.439 15.9728 236.596 16.1834 235.632 16.1834C234.64 16.1834 233.743 15.9389 232.941 15.4497C232.139 14.9605 231.508 14.2743 231.046 13.3911C230.584 12.5079 230.353 11.5023 230.353 10.3745ZM239.81 10.3949C239.81 9.55244 239.64 8.81869 239.3 8.19363C238.961 7.56858 238.499 7.093 237.914 6.76688C237.344 6.42718 236.712 6.25733 236.019 6.25733C235.326 6.25733 234.694 6.42039 234.123 6.7465C233.553 7.07261 233.097 7.5482 232.758 8.17325C232.418 8.7983 232.248 9.53206 232.248 10.3745C232.248 11.2306 232.418 11.9779 232.758 12.6166C233.097 13.2416 233.553 13.724 234.123 14.0637C234.694 14.3898 235.326 14.5529 236.019 14.5529C236.712 14.5529 237.344 14.3898 237.914 14.0637C238.499 13.724 238.961 13.2416 239.3 12.6166C239.64 11.9779 239.81 11.2374 239.81 10.3949ZM264.317 4.83058L260.832 16H258.916L256.225 7.13376L253.535 16H251.619L248.113 4.83058H250.009L252.577 14.2064L255.349 4.83058H257.245L259.955 14.2268L262.483 4.83058H264.317ZM267.605 6.64459C267.931 6.00595 268.393 5.50998 268.991 5.15669C269.602 4.8034 270.343 4.62676 271.213 4.62676V6.54268H270.723C268.645 6.54268 267.605 7.67049 267.605 9.92612V16H265.75V4.83058H267.605V6.64459ZM273.904 3.01656C273.551 3.01656 273.252 2.89427 273.007 2.64969C272.763 2.4051 272.64 2.10616 272.64 1.75287C272.64 1.39958 272.763 1.10064 273.007 0.856056C273.252 0.61147 273.551 0.489177 273.904 0.489177C274.244 0.489177 274.529 0.61147 274.76 0.856056C275.005 1.10064 275.127 1.39958 275.127 1.75287C275.127 2.10616 275.005 2.4051 274.76 2.64969C274.529 2.89427 274.244 3.01656 273.904 3.01656ZM274.801 4.83058V16H272.946V4.83058H274.801ZM279.817 6.35924V12.9427C279.817 13.4862 279.932 13.8735 280.163 14.1045C280.394 14.3219 280.795 14.4306 281.366 14.4306H282.731V16H281.06C280.027 16 279.253 15.7622 278.737 15.2866C278.22 14.811 277.962 14.0297 277.962 12.9427V6.35924H276.515V4.83058H277.962V2.01784H279.817V4.83058H282.731V6.35924H279.817ZM286.834 6.35924V12.9427C286.834 13.4862 286.949 13.8735 287.18 14.1045C287.411 14.3219 287.812 14.4306 288.383 14.4306H289.748V16H288.077C287.044 16 286.27 15.7622 285.753 15.2866C285.237 14.811 284.979 14.0297 284.979 12.9427V6.35924H283.532V4.83058H284.979V2.01784H286.834V4.83058H289.748V6.35924H286.834ZM301.779 9.98726C301.779 10.3406 301.758 10.7142 301.718 11.1083H292.79C292.858 12.2089 293.232 13.0718 293.911 13.6968C294.604 14.3083 295.44 14.614 296.418 14.614C297.22 14.614 297.886 14.4306 298.416 14.0637C298.959 13.6832 299.34 13.1805 299.557 12.5554H301.555C301.256 13.6289 300.658 14.5053 299.761 15.1847C298.864 15.8505 297.75 16.1834 296.418 16.1834C295.358 16.1834 294.407 15.9456 293.565 15.4701C292.736 14.9945 292.084 14.3219 291.608 13.4522C291.133 12.569 290.895 11.5499 290.895 10.3949C290.895 9.23992 291.126 8.2276 291.588 7.35796C292.05 6.48833 292.695 5.82251 293.524 5.36051C294.367 4.88493 295.331 4.64714 296.418 4.64714C297.478 4.64714 298.416 4.87814 299.231 5.34013C300.046 5.80213 300.671 6.44077 301.106 7.25605C301.555 8.05775 301.779 8.96816 301.779 9.98726ZM299.863 9.6C299.863 8.89342 299.707 8.28875 299.394 7.78599C299.082 7.26964 298.654 6.88238 298.11 6.62421C297.58 6.35244 296.989 6.21656 296.337 6.21656C295.399 6.21656 294.598 6.5155 293.932 7.11338C293.28 7.71126 292.906 8.54013 292.811 9.6H299.863ZM309.262 4.62676C310.62 4.62676 311.721 5.04119 312.563 5.87007C313.406 6.68535 313.827 7.86752 313.827 9.41656V16H311.993V9.68153C311.993 8.56731 311.714 7.71805 311.157 7.13376C310.6 6.53588 309.839 6.23695 308.874 6.23695C307.896 6.23695 307.115 6.54268 306.53 7.15414C305.96 7.76561 305.674 8.65563 305.674 9.82421V16H303.819V4.83058H305.674V6.42039C306.041 5.84968 306.537 5.40807 307.162 5.09554C307.801 4.78302 308.501 4.62676 309.262 4.62676ZM320.783 10.3745C320.783 9.23312 321.014 8.2344 321.476 7.37835C321.938 6.50871 322.569 5.8361 323.371 5.36051C324.186 4.88493 325.097 4.64714 326.102 4.64714C326.972 4.64714 327.78 4.85096 328.528 5.2586C329.275 5.65266 329.846 6.1758 330.24 6.82803V0.917203H332.115V16H330.24V13.9006C329.873 14.5665 329.329 15.1168 328.609 15.5516C327.889 15.9728 327.047 16.1834 326.082 16.1834C325.09 16.1834 324.186 15.9389 323.371 15.4497C322.569 14.9605 321.938 14.2743 321.476 13.3911C321.014 12.5079 320.783 11.5023 320.783 10.3745ZM330.24 10.3949C330.24 9.55244 330.07 8.81869 329.73 8.19363C329.391 7.56858 328.929 7.093 328.344 6.76688C327.774 6.42718 327.142 6.25733 326.449 6.25733C325.756 6.25733 325.124 6.42039 324.553 6.7465C323.983 7.07261 323.527 7.5482 323.188 8.17325C322.848 8.7983 322.678 9.53206 322.678 10.3745C322.678 11.2306 322.848 11.9779 323.188 12.6166C323.527 13.2416 323.983 13.724 324.553 14.0637C325.124 14.3898 325.756 14.5529 326.449 14.5529C327.142 14.5529 327.774 14.3898 328.344 14.0637C328.929 13.724 329.391 13.2416 329.73 12.6166C330.07 11.9779 330.24 11.2374 330.24 10.3949ZM345.033 9.98726C345.033 10.3406 345.012 10.7142 344.972 11.1083H336.044C336.112 12.2089 336.486 13.0718 337.165 13.6968C337.858 14.3083 338.694 14.614 339.672 14.614C340.474 14.614 341.14 14.4306 341.67 14.0637C342.213 13.6832 342.594 13.1805 342.811 12.5554H344.809C344.51 13.6289 343.912 14.5053 343.015 15.1847C342.118 15.8505 341.004 16.1834 339.672 16.1834C338.612 16.1834 337.661 15.9456 336.819 15.4701C335.99 14.9945 335.338 14.3219 334.862 13.4522C334.387 12.569 334.149 11.5499 334.149 10.3949C334.149 9.23992 334.38 8.2276 334.842 7.35796C335.304 6.48833 335.949 5.82251 336.778 5.36051C337.621 4.88493 338.585 4.64714 339.672 4.64714C340.732 4.64714 341.67 4.87814 342.485 5.34013C343.3 5.80213 343.925 6.44077 344.36 7.25605C344.809 8.05775 345.033 8.96816 345.033 9.98726ZM343.117 9.6C343.117 8.89342 342.961 8.28875 342.648 7.78599C342.336 7.26964 341.908 6.88238 341.364 6.62421C340.834 6.35244 340.243 6.21656 339.591 6.21656C338.653 6.21656 337.852 6.5155 337.186 7.11338C336.533 7.71126 336.16 8.54013 336.065 9.6H343.117ZM351.028 16.1834C350.172 16.1834 349.404 16.0408 348.724 15.7554C348.045 15.4565 347.508 15.0488 347.114 14.5325C346.72 14.0025 346.503 13.3979 346.462 12.7185H348.378C348.432 13.2756 348.69 13.7308 349.152 14.0841C349.628 14.4374 350.246 14.614 351.007 14.614C351.714 14.614 352.271 14.4577 352.679 14.1452C353.086 13.8327 353.29 13.4386 353.29 12.9631C353.29 12.4739 353.073 12.1138 352.638 11.8828C352.203 11.6382 351.53 11.4004 350.62 11.1694C349.791 10.952 349.112 10.7346 348.582 10.5172C348.065 10.2862 347.617 9.95329 347.237 9.51847C346.87 9.07007 346.686 8.48578 346.686 7.76561C346.686 7.19491 346.856 6.67177 347.196 6.19618C347.535 5.7206 348.018 5.34692 348.643 5.07516C349.268 4.78981 349.981 4.64714 350.783 4.64714C352.02 4.64714 353.018 4.95966 353.779 5.58472C354.54 6.20977 354.948 7.06582 355.002 8.15287H353.147C353.107 7.56858 352.869 7.09979 352.434 6.7465C352.013 6.39321 351.442 6.21656 350.722 6.21656C350.056 6.21656 349.526 6.35924 349.132 6.64459C348.738 6.92994 348.541 7.30361 348.541 7.76561C348.541 8.13249 348.656 8.43822 348.887 8.6828C349.132 8.9138 349.431 9.10404 349.784 9.2535C350.151 9.38939 350.654 9.54565 351.293 9.72229C352.094 9.9397 352.746 10.1571 353.249 10.3745C353.752 10.5783 354.18 10.8909 354.533 11.3121C354.9 11.7333 355.09 12.2837 355.104 12.9631C355.104 13.5745 354.934 14.1248 354.594 14.614C354.255 15.1032 353.772 15.4904 353.147 15.7758C352.536 16.0476 351.829 16.1834 351.028 16.1834ZM356.622 10.3949C356.622 9.23992 356.853 8.2344 357.315 7.37835C357.777 6.50871 358.415 5.8361 359.231 5.36051C360.059 4.88493 361.004 4.64714 362.064 4.64714C363.436 4.64714 364.564 4.98005 365.447 5.64586C366.344 6.31168 366.935 7.23567 367.22 8.41784H365.223C365.033 7.73843 364.659 7.2017 364.102 6.80765C363.558 6.41359 362.879 6.21656 362.064 6.21656C361.004 6.21656 360.148 6.58344 359.496 7.3172C358.843 8.03737 358.517 9.06327 358.517 10.3949C358.517 11.7401 358.843 12.7796 359.496 13.5134C360.148 14.2471 361.004 14.614 362.064 14.614C362.879 14.614 363.558 14.4238 364.102 14.0433C364.645 13.6628 365.019 13.1193 365.223 12.4127H367.22C366.921 13.5541 366.324 14.4713 365.427 15.1643C364.53 15.8437 363.409 16.1834 362.064 16.1834C361.004 16.1834 360.059 15.9456 359.231 15.4701C358.415 14.9945 357.777 14.3219 357.315 13.4522C356.853 12.5826 356.622 11.5635 356.622 10.3949ZM371.142 6.64459C371.469 6.00595 371.931 5.50998 372.528 5.15669C373.14 4.8034 373.88 4.62676 374.75 4.62676V6.54268H374.261C372.182 6.54268 371.142 7.67049 371.142 9.92612V16H369.288V4.83058H371.142V6.64459ZM377.441 3.01656C377.088 3.01656 376.789 2.89427 376.545 2.64969C376.3 2.4051 376.178 2.10616 376.178 1.75287C376.178 1.39958 376.3 1.10064 376.545 0.856056C376.789 0.61147 377.088 0.489177 377.441 0.489177C377.781 0.489177 378.067 0.61147 378.298 0.856056C378.542 1.10064 378.664 1.39958 378.664 1.75287C378.664 2.10616 378.542 2.4051 378.298 2.64969C378.067 2.89427 377.781 3.01656 377.441 3.01656ZM378.338 4.83058V16H376.483V4.83058H378.338ZM382.947 6.88917C383.313 6.25053 383.857 5.7206 384.577 5.29937C385.311 4.86455 386.16 4.64714 387.125 4.64714C388.117 4.64714 389.014 4.88493 389.815 5.36051C390.631 5.8361 391.269 6.50871 391.731 7.37835C392.193 8.2344 392.424 9.23312 392.424 10.3745C392.424 11.5023 392.193 12.5079 391.731 13.3911C391.269 14.2743 390.631 14.9605 389.815 15.4497C389.014 15.9389 388.117 16.1834 387.125 16.1834C386.174 16.1834 385.331 15.9728 384.597 15.5516C383.877 15.1168 383.327 14.58 382.947 13.9414V21.2994H381.092V4.83058H382.947V6.88917ZM390.529 10.3745C390.529 9.53206 390.359 8.7983 390.019 8.17325C389.679 7.5482 389.217 7.07261 388.633 6.7465C388.062 6.42039 387.431 6.25733 386.738 6.25733C386.058 6.25733 385.426 6.42718 384.842 6.76688C384.271 7.093 383.809 7.57537 383.456 8.21401C383.116 8.83907 382.947 9.56603 382.947 10.3949C382.947 11.2374 383.116 11.9779 383.456 12.6166C383.809 13.2416 384.271 13.724 384.842 14.0637C385.426 14.3898 386.058 14.5529 386.738 14.5529C387.431 14.5529 388.062 14.3898 388.633 14.0637C389.217 13.724 389.679 13.2416 390.019 12.6166C390.359 11.9779 390.529 11.2306 390.529 10.3745ZM396.72 6.35924V12.9427C396.72 13.4862 396.836 13.8735 397.067 14.1045C397.298 14.3219 397.699 14.4306 398.269 14.4306H399.635V16H397.964C396.931 16 396.157 15.7622 395.64 15.2866C395.124 14.811 394.866 14.0297 394.866 12.9427V6.35924H393.419V4.83058H394.866V2.01784H396.72V4.83058H399.635V6.35924H396.72ZM402.433 3.01656C402.079 3.01656 401.78 2.89427 401.536 2.64969C401.291 2.4051 401.169 2.10616 401.169 1.75287C401.169 1.39958 401.291 1.10064 401.536 0.856056C401.78 0.61147 402.079 0.489177 402.433 0.489177C402.772 0.489177 403.058 0.61147 403.289 0.856056C403.533 1.10064 403.656 1.39958 403.656 1.75287C403.656 2.10616 403.533 2.4051 403.289 2.64969C403.058 2.89427 402.772 3.01656 402.433 3.01656ZM403.329 4.83058V16H401.475V4.83058H403.329ZM410.954 16.1834C409.908 16.1834 408.957 15.9456 408.101 15.4701C407.258 14.9945 406.593 14.3219 406.103 13.4522C405.628 12.569 405.39 11.5499 405.39 10.3949C405.39 9.25351 405.635 8.24799 406.124 7.37835C406.627 6.49512 407.306 5.82251 408.162 5.36051C409.018 4.88493 409.976 4.64714 411.036 4.64714C412.096 4.64714 413.054 4.88493 413.91 5.36051C414.766 5.82251 415.438 6.48833 415.928 7.35796C416.43 8.2276 416.682 9.23992 416.682 10.3949C416.682 11.5499 416.424 12.569 415.907 13.4522C415.404 14.3219 414.718 14.9945 413.849 15.4701C412.979 15.9456 412.014 16.1834 410.954 16.1834ZM410.954 14.5529C411.62 14.5529 412.245 14.3966 412.829 14.0841C413.414 13.7716 413.883 13.3028 414.236 12.6777C414.603 12.0527 414.786 11.2917 414.786 10.3949C414.786 9.49809 414.61 8.73716 414.256 8.1121C413.903 7.48705 413.441 7.02506 412.87 6.72612C412.3 6.41359 411.681 6.25733 411.015 6.25733C410.336 6.25733 409.711 6.41359 409.14 6.72612C408.583 7.02506 408.135 7.48705 407.795 8.1121C407.455 8.73716 407.286 9.49809 407.286 10.3949C407.286 11.3053 407.449 12.073 407.775 12.6981C408.114 13.3231 408.563 13.7919 409.12 14.1045C409.677 14.4034 410.288 14.5529 410.954 14.5529ZM424.155 4.62676C425.514 4.62676 426.614 5.04119 427.457 5.87007C428.299 6.68535 428.72 7.86752 428.72 9.41656V16H426.886V9.68153C426.886 8.56731 426.607 7.71805 426.05 7.13376C425.493 6.53588 424.732 6.23695 423.768 6.23695C422.789 6.23695 422.008 6.54268 421.424 7.15414C420.853 7.76561 420.568 8.65563 420.568 9.82421V16H418.713V4.83058H420.568V6.42039C420.934 5.84968 421.43 5.40807 422.055 5.09554C422.694 4.78302 423.394 4.62676 424.155 4.62676ZM431.934 16.1223C431.58 16.1223 431.281 16 431.037 15.7554C430.792 15.5108 430.67 15.2119 430.67 14.8586C430.67 14.5053 430.792 14.2064 431.037 13.9618C431.281 13.7172 431.58 13.5949 431.934 13.5949C432.273 13.5949 432.559 13.7172 432.79 13.9618C433.034 14.2064 433.157 14.5053 433.157 14.8586C433.157 15.2119 433.034 15.5108 432.79 15.7554C432.559 16 432.273 16.1223 431.934 16.1223ZM10.2626 32.7936V34.3019H6.38998V47H4.5352V34.3019H0.642212V32.7936H10.2626ZM13.9928 37.6446C14.319 37.0059 14.781 36.51 15.3788 36.1567C15.9903 35.8034 16.7308 35.6268 17.6005 35.6268V37.5427H17.1113C15.0323 37.5427 13.9928 38.6705 13.9928 40.9261V47H12.1381V35.8306H13.9928V37.6446ZM18.6409 41.3745C18.6409 40.2331 18.8719 39.2344 19.3339 38.3783C19.7959 37.5087 20.4278 36.8361 21.2295 36.3605C22.0448 35.8849 22.9484 35.6471 23.9403 35.6471C24.9186 35.6471 25.7679 35.8578 26.4881 36.279C27.2082 36.7002 27.745 37.2302 28.0983 37.8688V35.8306H29.9734V47H28.0983V44.921C27.7314 45.5732 27.1811 46.1168 26.4473 46.5516C25.7271 46.9728 24.8847 47.1834 23.9199 47.1834C22.928 47.1834 22.0312 46.9389 21.2295 46.4497C20.4278 45.9605 19.7959 45.2743 19.3339 44.3911C18.8719 43.5079 18.6409 42.5023 18.6409 41.3745ZM28.0983 41.3949C28.0983 40.5524 27.9284 39.8187 27.5887 39.1936C27.249 38.5686 26.787 38.093 26.2027 37.7669C25.632 37.4272 25.0002 37.2573 24.3072 37.2573C23.6142 37.2573 22.9823 37.4204 22.4116 37.7465C21.8409 38.0726 21.3857 38.5482 21.046 39.1733C20.7063 39.7983 20.5365 40.5321 20.5365 41.3745C20.5365 42.2306 20.7063 42.9779 21.046 43.6166C21.3857 44.2416 21.8409 44.724 22.4116 45.0637C22.9823 45.3898 23.6142 45.5529 24.3072 45.5529C25.0002 45.5529 25.632 45.3898 26.2027 45.0637C26.787 44.724 27.249 44.2416 27.5887 43.6166C27.9284 42.9779 28.0983 42.2374 28.0983 41.3949ZM38.1422 35.6268C39.501 35.6268 40.6016 36.0412 41.4441 36.8701C42.2866 37.6854 42.7078 38.8675 42.7078 40.4166V47H40.8734V40.6815C40.8734 39.5673 40.5949 38.718 40.0377 38.1338C39.4806 37.5359 38.7197 37.2369 37.7549 37.2369C36.7766 37.2369 35.9953 37.5427 35.411 38.1541C34.8403 38.7656 34.5549 39.6556 34.5549 40.8242V47H32.7002V35.8306H34.5549V37.4204C34.9218 36.8497 35.4178 36.4081 36.0428 36.0955C36.6815 35.783 37.3813 35.6268 38.1422 35.6268ZM49.2841 47.1834C48.428 47.1834 47.6603 47.0408 46.9809 46.7554C46.3015 46.4565 45.7648 46.0488 45.3707 45.5325C44.9766 45.0025 44.7592 44.3979 44.7185 43.7185H46.6344C46.6887 44.2756 46.9469 44.7308 47.4089 45.0841C47.8845 45.4374 48.5028 45.614 49.2637 45.614C49.9703 45.614 50.5274 45.4577 50.935 45.1452C51.3427 44.8327 51.5465 44.4386 51.5465 43.9631C51.5465 43.4739 51.3291 43.1138 50.8943 42.8828C50.4594 42.6382 49.7868 42.4004 48.8764 42.1694C48.0476 41.952 47.3682 41.7346 46.8382 41.5172C46.3219 41.2862 45.8735 40.9533 45.493 40.5185C45.1261 40.0701 44.9427 39.4858 44.9427 38.7656C44.9427 38.1949 45.1125 37.6718 45.4522 37.1962C45.7919 36.7206 46.2743 36.3469 46.8994 36.0752C47.5244 35.7898 48.2378 35.6471 49.0395 35.6471C50.276 35.6471 51.2747 35.9597 52.0357 36.5847C52.7966 37.2098 53.2042 38.0658 53.2586 39.1529H51.4038C51.3631 38.5686 51.1253 38.0998 50.6904 37.7465C50.2692 37.3932 49.6985 37.2166 48.9783 37.2166C48.3125 37.2166 47.7826 37.3592 47.3885 37.6446C46.9945 37.9299 46.7975 38.3036 46.7975 38.7656C46.7975 39.1325 46.913 39.4382 47.1439 39.6828C47.3885 39.9138 47.6875 40.104 48.0408 40.2535C48.4076 40.3894 48.9104 40.5456 49.549 40.7223C50.3507 40.9397 51.003 41.1571 51.5057 41.3745C52.0085 41.5783 52.4365 41.8909 52.7898 42.3121C53.1567 42.7333 53.3469 43.2837 53.3605 43.9631C53.3605 44.5745 53.1907 45.1248 52.851 45.614C52.5112 46.1032 52.0289 46.4904 51.4038 46.7758C50.7924 47.0476 50.0858 47.1834 49.2841 47.1834ZM57.4259 31.9172V47H55.5712V31.9172H57.4259ZM59.4865 41.3745C59.4865 40.2331 59.7175 39.2344 60.1794 38.3783C60.6414 37.5087 61.2733 36.8361 62.075 36.3605C62.8903 35.8849 63.7939 35.6471 64.7858 35.6471C65.7642 35.6471 66.6134 35.8578 67.3336 36.279C68.0538 36.7002 68.5905 37.2302 68.9438 37.8688V35.8306H70.8189V47H68.9438V44.921C68.5769 45.5732 68.0266 46.1168 67.2928 46.5516C66.5727 46.9728 65.7302 47.1834 64.7654 47.1834C63.7735 47.1834 62.8767 46.9389 62.075 46.4497C61.2733 45.9605 60.6414 45.2743 60.1794 44.3911C59.7175 43.5079 59.4865 42.5023 59.4865 41.3745ZM68.9438 41.3949C68.9438 40.5524 68.7739 39.8187 68.4342 39.1936C68.0945 38.5686 67.6325 38.093 67.0482 37.7669C66.4775 37.4272 65.8457 37.2573 65.1527 37.2573C64.4597 37.2573 63.8279 37.4204 63.2572 37.7465C62.6865 38.0726 62.2313 38.5482 61.8916 39.1733C61.5518 39.7983 61.382 40.5321 61.382 41.3745C61.382 42.2306 61.5518 42.9779 61.8916 43.6166C62.2313 44.2416 62.6865 44.724 63.2572 45.0637C63.8279 45.3898 64.4597 45.5529 65.1527 45.5529C65.8457 45.5529 66.4775 45.3898 67.0482 45.0637C67.6325 44.724 68.0945 44.2416 68.4342 43.6166C68.7739 42.9779 68.9438 42.2374 68.9438 41.3949ZM75.8081 37.3592V43.9427C75.8081 44.4862 75.9236 44.8735 76.1546 45.1045C76.3856 45.3219 76.7865 45.4306 77.3572 45.4306H78.7228V47H77.0514C76.0187 47 75.2442 46.7622 74.7279 46.2866C74.2115 45.811 73.9533 45.0297 73.9533 43.9427V37.3592H72.5062V35.8306H73.9533V33.0178H75.8081V35.8306H78.7228V37.3592H75.8081ZM90.7535 40.9873C90.7535 41.3406 90.7331 41.7142 90.6923 42.1083H81.765C81.8329 43.2089 82.2066 44.0718 82.886 44.6968C83.579 45.3083 84.4146 45.614 85.393 45.614C86.1947 45.614 86.8605 45.4306 87.3904 45.0637C87.934 44.6832 88.3144 44.1805 88.5318 43.5554H90.5293C90.2303 44.6289 89.6325 45.5053 88.7357 46.1847C87.8388 46.8505 86.7246 47.1834 85.393 47.1834C84.3331 47.1834 83.3819 46.9456 82.5395 46.4701C81.7106 45.9945 81.0584 45.3219 80.5828 44.4522C80.1072 43.569 79.8694 42.5499 79.8694 41.3949C79.8694 40.2399 80.1004 39.2276 80.5624 38.358C81.0244 37.4883 81.6698 36.8225 82.4987 36.3605C83.3412 35.8849 84.3059 35.6471 85.393 35.6471C86.4529 35.6471 87.3904 35.8781 88.2057 36.3401C89.021 36.8021 89.6461 37.4408 90.0809 38.2561C90.5293 39.0578 90.7535 39.9682 90.7535 40.9873ZM88.8376 40.6C88.8376 39.8934 88.6813 39.2887 88.3688 38.786C88.0562 38.2696 87.6282 37.8824 87.0847 37.6242C86.5548 37.3524 85.9637 37.2166 85.3115 37.2166C84.3739 37.2166 83.5722 37.5155 82.9064 38.1134C82.2541 38.7113 81.8805 39.5401 81.7853 40.6H88.8376ZM98.7783 34.0166C98.425 34.0166 98.1261 33.8943 97.8815 33.6497C97.6369 33.4051 97.5146 33.1062 97.5146 32.7529C97.5146 32.3996 97.6369 32.1006 97.8815 31.8561C98.1261 31.6115 98.425 31.4892 98.7783 31.4892C99.118 31.4892 99.4034 31.6115 99.6344 31.8561C99.879 32.1006 100.001 32.3996 100.001 32.7529C100.001 33.1062 99.879 33.4051 99.6344 33.6497C99.4034 33.8943 99.118 34.0166 98.7783 34.0166ZM99.6751 35.8306V47H97.8204V35.8306H99.6751ZM107.871 35.6268C109.229 35.6268 110.33 36.0412 111.173 36.8701C112.015 37.6854 112.436 38.8675 112.436 40.4166V47H110.602V40.6815C110.602 39.5673 110.323 38.718 109.766 38.1338C109.209 37.5359 108.448 37.2369 107.483 37.2369C106.505 37.2369 105.724 37.5427 105.139 38.1541C104.569 38.7656 104.283 39.6556 104.283 40.8242V47H102.429V35.8306H104.283V37.4204C104.65 36.8497 105.146 36.4081 105.771 36.0955C106.41 35.783 107.11 35.6268 107.871 35.6268ZM117.321 37.3592V43.9427C117.321 44.4862 117.436 44.8735 117.667 45.1045C117.898 45.3219 118.299 45.4306 118.87 45.4306H120.235V47H118.564C117.531 47 116.757 46.7622 116.241 46.2866C115.724 45.811 115.466 45.0297 115.466 43.9427V37.3592H114.019V35.8306H115.466V33.0178H117.321V35.8306H120.235V37.3592H117.321ZM126.946 47.1834C125.9 47.1834 124.949 46.9456 124.093 46.4701C123.251 45.9945 122.585 45.3219 122.096 44.4522C121.62 43.569 121.382 42.5499 121.382 41.3949C121.382 40.2535 121.627 39.248 122.116 38.3783C122.619 37.4951 123.298 36.8225 124.154 36.3605C125.01 35.8849 125.968 35.6471 127.028 35.6471C128.088 35.6471 129.046 35.8849 129.902 36.3605C130.758 36.8225 131.431 37.4883 131.92 38.358C132.422 39.2276 132.674 40.2399 132.674 41.3949C132.674 42.5499 132.416 43.569 131.899 44.4522C131.397 45.3219 130.71 45.9945 129.841 46.4701C128.971 46.9456 128.006 47.1834 126.946 47.1834ZM126.946 45.5529C127.612 45.5529 128.237 45.3966 128.822 45.0841C129.406 44.7716 129.875 44.3028 130.228 43.6777C130.595 43.0527 130.778 42.2917 130.778 41.3949C130.778 40.4981 130.602 39.7372 130.248 39.1121C129.895 38.4871 129.433 38.0251 128.862 37.7261C128.292 37.4136 127.673 37.2573 127.008 37.2573C126.328 37.2573 125.703 37.4136 125.132 37.7261C124.575 38.0251 124.127 38.4871 123.787 39.1121C123.448 39.7372 123.278 40.4981 123.278 41.3949C123.278 42.3053 123.441 43.073 123.767 43.6981C124.107 44.3231 124.555 44.7919 125.112 45.1045C125.669 45.4034 126.281 45.5529 126.946 45.5529ZM153.163 35.6268C154.033 35.6268 154.807 35.8102 155.487 36.1771C156.166 36.5304 156.703 37.0671 157.097 37.7873C157.491 38.5074 157.688 39.3839 157.688 40.4166V47H155.853V40.6815C155.853 39.5673 155.575 38.718 155.018 38.1338C154.474 37.5359 153.734 37.2369 152.796 37.2369C151.831 37.2369 151.064 37.5495 150.493 38.1745C149.922 38.786 149.637 39.676 149.637 40.8446V47H147.803V40.6815C147.803 39.5673 147.524 38.718 146.967 38.1338C146.423 37.5359 145.683 37.2369 144.745 37.2369C143.78 37.2369 143.013 37.5495 142.442 38.1745C141.871 38.786 141.586 39.676 141.586 40.8446V47H139.731V35.8306H141.586V37.4408C141.953 36.8565 142.442 36.4081 143.053 36.0955C143.679 35.783 144.365 35.6268 145.112 35.6268C146.05 35.6268 146.879 35.8374 147.599 36.2586C148.319 36.6798 148.856 37.2981 149.209 38.1134C149.521 37.3253 150.038 36.7138 150.758 36.279C151.478 35.8442 152.28 35.6268 153.163 35.6268ZM170.228 35.8306V47H168.374V45.349C168.02 45.9197 167.524 46.3682 166.886 46.6943C166.261 47.0068 165.568 47.1631 164.807 47.1631C163.937 47.1631 163.156 46.9864 162.463 46.6331C161.77 46.2662 161.22 45.7227 160.812 45.0025C160.418 44.2824 160.221 43.4059 160.221 42.3732V35.8306H162.055V42.1287C162.055 43.2293 162.334 44.0786 162.891 44.6764C163.448 45.2607 164.209 45.5529 165.174 45.5529C166.166 45.5529 166.947 45.2471 167.518 44.6357C168.088 44.0242 168.374 43.1342 168.374 41.9656V35.8306H170.228ZM174.807 31.9172V47H172.952V31.9172H174.807ZM179.823 37.3592V43.9427C179.823 44.4862 179.939 44.8735 180.17 45.1045C180.401 45.3219 180.802 45.4306 181.372 45.4306H182.738V47H181.067C180.034 47 179.259 46.7622 178.743 46.2866C178.227 45.811 177.968 45.0297 177.968 43.9427V37.3592H176.521V35.8306H177.968V33.0178H179.823V35.8306H182.738V37.3592H179.823ZM185.535 34.0166C185.182 34.0166 184.883 33.8943 184.639 33.6497C184.394 33.4051 184.272 33.1062 184.272 32.7529C184.272 32.3996 184.394 32.1006 184.639 31.8561C184.883 31.6115 185.182 31.4892 185.535 31.4892C185.875 31.4892 186.161 31.6115 186.392 31.8561C186.636 32.1006 186.758 32.3996 186.758 32.7529C186.758 33.1062 186.636 33.4051 186.392 33.6497C186.161 33.8943 185.875 34.0166 185.535 34.0166ZM186.432 35.8306V47H184.577V35.8306H186.432ZM191.041 37.8892C191.407 37.2505 191.951 36.7206 192.671 36.2994C193.405 35.8645 194.254 35.6471 195.219 35.6471C196.211 35.6471 197.108 35.8849 197.909 36.3605C198.725 36.8361 199.363 37.5087 199.825 38.3783C200.287 39.2344 200.518 40.2331 200.518 41.3745C200.518 42.5023 200.287 43.5079 199.825 44.3911C199.363 45.2743 198.725 45.9605 197.909 46.4497C197.108 46.9389 196.211 47.1834 195.219 47.1834C194.268 47.1834 193.425 46.9728 192.692 46.5516C191.971 46.1168 191.421 45.58 191.041 44.9414V52.2994H189.186V35.8306H191.041V37.8892ZM198.623 41.3745C198.623 40.5321 198.453 39.7983 198.113 39.1733C197.773 38.5482 197.311 38.0726 196.727 37.7465C196.156 37.4204 195.525 37.2573 194.832 37.2573C194.152 37.2573 193.52 37.4272 192.936 37.7669C192.365 38.093 191.903 38.5754 191.55 39.214C191.21 39.8391 191.041 40.566 191.041 41.3949C191.041 42.2374 191.21 42.9779 191.55 43.6166C191.903 44.2416 192.365 44.724 192.936 45.0637C193.52 45.3898 194.152 45.5529 194.832 45.5529C195.525 45.5529 196.156 45.3898 196.727 45.0637C197.311 44.724 197.773 44.2416 198.113 43.6166C198.453 42.9779 198.623 42.2306 198.623 41.3745ZM204.407 31.9172V47H202.552V31.9172H204.407ZM217.351 40.9873C217.351 41.3406 217.331 41.7142 217.29 42.1083H208.363C208.431 43.2089 208.804 44.0718 209.484 44.6968C210.177 45.3083 211.013 45.614 211.991 45.614C212.793 45.614 213.458 45.4306 213.988 45.0637C214.532 44.6832 214.912 44.1805 215.13 43.5554H217.127C216.828 44.6289 216.23 45.5053 215.334 46.1847C214.437 46.8505 213.322 47.1834 211.991 47.1834C210.931 47.1834 209.98 46.9456 209.137 46.4701C208.308 45.9945 207.656 45.3219 207.181 44.4522C206.705 43.569 206.467 42.5499 206.467 41.3949C206.467 40.2399 206.698 39.2276 207.16 38.358C207.622 37.4883 208.268 36.8225 209.097 36.3605C209.939 35.8849 210.904 35.6471 211.991 35.6471C213.051 35.6471 213.988 35.8781 214.804 36.3401C215.619 36.8021 216.244 37.4408 216.679 38.2561C217.127 39.0578 217.351 39.9682 217.351 40.9873ZM215.435 40.6C215.435 39.8934 215.279 39.2887 214.967 38.786C214.654 38.2696 214.226 37.8824 213.683 37.6242C213.153 37.3524 212.562 37.2166 211.909 37.2166C210.972 37.2166 210.17 37.5155 209.504 38.1134C208.852 38.7113 208.478 39.5401 208.383 40.6H215.435ZM226.273 31.9172V47H224.418V31.9172H226.273ZM228.334 41.3745C228.334 40.2331 228.565 39.2344 229.027 38.3783C229.489 37.5087 230.12 36.8361 230.922 36.3605C231.737 35.8849 232.641 35.6471 233.633 35.6471C234.611 35.6471 235.46 35.8578 236.181 36.279C236.901 36.7002 237.438 37.2302 237.791 37.8688V35.8306H239.666V47H237.791V44.921C237.424 45.5732 236.874 46.1168 236.14 46.5516C235.42 46.9728 234.577 47.1834 233.613 47.1834C232.621 47.1834 231.724 46.9389 230.922 46.4497C230.12 45.9605 229.489 45.2743 229.027 44.3911C228.565 43.5079 228.334 42.5023 228.334 41.3745ZM237.791 41.3949C237.791 40.5524 237.621 39.8187 237.281 39.1936C236.942 38.5686 236.48 38.093 235.895 37.7669C235.325 37.4272 234.693 37.2573 234 37.2573C233.307 37.2573 232.675 37.4204 232.104 37.7465C231.534 38.0726 231.078 38.5482 230.739 39.1733C230.399 39.7983 230.229 40.5321 230.229 41.3745C230.229 42.2306 230.399 42.9779 230.739 43.6166C231.078 44.2416 231.534 44.724 232.104 45.0637C232.675 45.3898 233.307 45.5529 234 45.5529C234.693 45.5529 235.325 45.3898 235.895 45.0637C236.48 44.724 236.942 44.2416 237.281 43.6166C237.621 42.9779 237.791 42.2374 237.791 41.3949ZM247.835 35.6268C249.194 35.6268 250.294 36.0412 251.137 36.8701C251.979 37.6854 252.4 38.8675 252.4 40.4166V47H250.566V40.6815C250.566 39.5673 250.287 38.718 249.73 38.1338C249.173 37.5359 248.412 37.2369 247.448 37.2369C246.469 37.2369 245.688 37.5427 245.104 38.1541C244.533 38.7656 244.248 39.6556 244.248 40.8242V47H242.393V35.8306H244.248V37.4204C244.614 36.8497 245.11 36.4081 245.735 36.0955C246.374 35.783 247.074 35.6268 247.835 35.6268ZM259.629 35.6471C260.594 35.6471 261.436 35.8578 262.156 36.279C262.89 36.7002 263.434 37.2302 263.787 37.8688V35.8306H265.662V47.2446C265.662 48.2637 265.445 49.1673 265.01 49.9554C264.575 50.7571 263.95 51.3822 263.135 51.8306C262.333 52.279 261.395 52.5032 260.322 52.5032C258.854 52.5032 257.631 52.1567 256.653 51.4637C255.675 50.7707 255.097 49.8263 254.921 48.6306H256.755C256.959 49.31 257.38 49.8535 258.019 50.2611C258.657 50.6824 259.425 50.893 260.322 50.893C261.341 50.893 262.17 50.5737 262.809 49.935C263.461 49.2964 263.787 48.3996 263.787 47.2446V44.9006C263.42 45.5529 262.876 46.0964 262.156 46.5312C261.436 46.966 260.594 47.1834 259.629 47.1834C258.637 47.1834 257.733 46.9389 256.918 46.4497C256.116 45.9605 255.485 45.2743 255.023 44.3911C254.561 43.5079 254.33 42.5023 254.33 41.3745C254.33 40.2331 254.561 39.2344 255.023 38.3783C255.485 37.5087 256.116 36.8361 256.918 36.3605C257.733 35.8849 258.637 35.6471 259.629 35.6471ZM263.787 41.3949C263.787 40.5524 263.617 39.8187 263.277 39.1936C262.938 38.5686 262.476 38.093 261.891 37.7669C261.321 37.4272 260.689 37.2573 259.996 37.2573C259.303 37.2573 258.671 37.4204 258.1 37.7465C257.53 38.0726 257.074 38.5482 256.735 39.1733C256.395 39.7983 256.225 40.5321 256.225 41.3745C256.225 42.2306 256.395 42.9779 256.735 43.6166C257.074 44.2416 257.53 44.724 258.1 45.0637C258.671 45.3898 259.303 45.5529 259.996 45.5529C260.689 45.5529 261.321 45.3898 261.891 45.0637C262.476 44.724 262.938 44.2416 263.277 43.6166C263.617 42.9779 263.787 42.2374 263.787 41.3949ZM278.294 35.8306V47H276.44V45.349C276.086 45.9197 275.59 46.3682 274.952 46.6943C274.327 47.0068 273.634 47.1631 272.873 47.1631C272.003 47.1631 271.222 46.9864 270.529 46.6331C269.836 46.2662 269.286 45.7227 268.878 45.0025C268.484 44.2824 268.287 43.4059 268.287 42.3732V35.8306H270.121V42.1287C270.121 43.2293 270.4 44.0786 270.957 44.6764C271.514 45.2607 272.275 45.5529 273.24 45.5529C274.232 45.5529 275.013 45.2471 275.584 44.6357C276.154 44.0242 276.44 43.1342 276.44 41.9656V35.8306H278.294ZM280.326 41.3745C280.326 40.2331 280.557 39.2344 281.019 38.3783C281.481 37.5087 282.112 36.8361 282.914 36.3605C283.729 35.8849 284.633 35.6471 285.625 35.6471C286.603 35.6471 287.453 35.8578 288.173 36.279C288.893 36.7002 289.43 37.2302 289.783 37.8688V35.8306H291.658V47H289.783V44.921C289.416 45.5732 288.866 46.1168 288.132 46.5516C287.412 46.9728 286.569 47.1834 285.605 47.1834C284.613 47.1834 283.716 46.9389 282.914 46.4497C282.112 45.9605 281.481 45.2743 281.019 44.3911C280.557 43.5079 280.326 42.5023 280.326 41.3745ZM289.783 41.3949C289.783 40.5524 289.613 39.8187 289.273 39.1936C288.934 38.5686 288.472 38.093 287.887 37.7669C287.317 37.4272 286.685 37.2573 285.992 37.2573C285.299 37.2573 284.667 37.4204 284.096 37.7465C283.526 38.0726 283.07 38.5482 282.731 39.1733C282.391 39.7983 282.221 40.5321 282.221 41.3745C282.221 42.2306 282.391 42.9779 282.731 43.6166C283.07 44.2416 283.526 44.724 284.096 45.0637C284.667 45.3898 285.299 45.5529 285.992 45.5529C286.685 45.5529 287.317 45.3898 287.887 45.0637C288.472 44.724 288.934 44.2416 289.273 43.6166C289.613 42.9779 289.783 42.2374 289.783 41.3949ZM298.991 35.6471C299.956 35.6471 300.798 35.8578 301.519 36.279C302.252 36.7002 302.796 37.2302 303.149 37.8688V35.8306H305.024V47.2446C305.024 48.2637 304.807 49.1673 304.372 49.9554C303.937 50.7571 303.312 51.3822 302.497 51.8306C301.695 52.279 300.758 52.5032 299.684 52.5032C298.217 52.5032 296.994 52.1567 296.015 51.4637C295.037 50.7707 294.459 49.8263 294.283 48.6306H296.117C296.321 49.31 296.742 49.8535 297.381 50.2611C298.02 50.6824 298.787 50.893 299.684 50.893C300.703 50.893 301.532 50.5737 302.171 49.935C302.823 49.2964 303.149 48.3996 303.149 47.2446V44.9006C302.782 45.5529 302.239 46.0964 301.519 46.5312C300.798 46.966 299.956 47.1834 298.991 47.1834C297.999 47.1834 297.096 46.9389 296.28 46.4497C295.479 45.9605 294.847 45.2743 294.385 44.3911C293.923 43.5079 293.692 42.5023 293.692 41.3745C293.692 40.2331 293.923 39.2344 294.385 38.3783C294.847 37.5087 295.479 36.8361 296.28 36.3605C297.096 35.8849 297.999 35.6471 298.991 35.6471ZM303.149 41.3949C303.149 40.5524 302.979 39.8187 302.64 39.1936C302.3 38.5686 301.838 38.093 301.254 37.7669C300.683 37.4272 300.051 37.2573 299.358 37.2573C298.665 37.2573 298.033 37.4204 297.462 37.7465C296.892 38.0726 296.437 38.5482 296.097 39.1733C295.757 39.7983 295.587 40.5321 295.587 41.3745C295.587 42.2306 295.757 42.9779 296.097 43.6166C296.437 44.2416 296.892 44.724 297.462 45.0637C298.033 45.3898 298.665 45.5529 299.358 45.5529C300.051 45.5529 300.683 45.3898 301.254 45.0637C301.838 44.724 302.3 44.2416 302.64 43.6166C302.979 42.9779 303.149 42.2374 303.149 41.3949ZM317.942 40.9873C317.942 41.3406 317.922 41.7142 317.881 42.1083H308.954C309.021 43.2089 309.395 44.0718 310.075 44.6968C310.768 45.3083 311.603 45.614 312.582 45.614C313.383 45.614 314.049 45.4306 314.579 45.0637C315.123 44.6832 315.503 44.1805 315.72 43.5554H317.718C317.419 44.6289 316.821 45.5053 315.924 46.1847C315.027 46.8505 313.913 47.1834 312.582 47.1834C311.522 47.1834 310.571 46.9456 309.728 46.4701C308.899 45.9945 308.247 45.3219 307.771 44.4522C307.296 43.569 307.058 42.5499 307.058 41.3949C307.058 40.2399 307.289 39.2276 307.751 38.358C308.213 37.4883 308.858 36.8225 309.687 36.3605C310.53 35.8849 311.495 35.6471 312.582 35.6471C313.641 35.6471 314.579 35.8781 315.394 36.3401C316.21 36.8021 316.835 37.4408 317.269 38.2561C317.718 39.0578 317.942 39.9682 317.942 40.9873ZM316.026 40.6C316.026 39.8934 315.87 39.2887 315.557 38.786C315.245 38.2696 314.817 37.8824 314.273 37.6242C313.743 37.3524 313.152 37.2166 312.5 37.2166C311.562 37.2166 310.761 37.5155 310.095 38.1134C309.443 38.7113 309.069 39.5401 308.974 40.6H316.026ZM323.937 47.1834C323.081 47.1834 322.313 47.0408 321.634 46.7554C320.954 46.4565 320.418 46.0488 320.023 45.5325C319.629 45.0025 319.412 44.3979 319.371 43.7185H321.287C321.342 44.2756 321.6 44.7308 322.062 45.0841C322.537 45.4374 323.156 45.614 323.916 45.614C324.623 45.614 325.18 45.4577 325.588 45.1452C325.995 44.8327 326.199 44.4386 326.199 43.9631C326.199 43.4739 325.982 43.1138 325.547 42.8828C325.112 42.6382 324.44 42.4004 323.529 42.1694C322.7 41.952 322.021 41.7346 321.491 41.5172C320.975 41.2862 320.526 40.9533 320.146 40.5185C319.779 40.0701 319.595 39.4858 319.595 38.7656C319.595 38.1949 319.765 37.6718 320.105 37.1962C320.445 36.7206 320.927 36.3469 321.552 36.0752C322.177 35.7898 322.891 35.6471 323.692 35.6471C324.929 35.6471 325.927 35.9597 326.688 36.5847C327.449 37.2098 327.857 38.0658 327.911 39.1529H326.057C326.016 38.5686 325.778 38.0998 325.343 37.7465C324.922 37.3932 324.351 37.2166 323.631 37.2166C322.965 37.2166 322.435 37.3592 322.041 37.6446C321.647 37.9299 321.45 38.3036 321.45 38.7656C321.45 39.1325 321.566 39.4382 321.797 39.6828C322.041 39.9138 322.34 40.104 322.694 40.2535C323.06 40.3894 323.563 40.5456 324.202 40.7223C325.004 40.9397 325.656 41.1571 326.158 41.3745C326.661 41.5783 327.089 41.8909 327.443 42.3121C327.809 42.7333 328 43.2837 328.013 43.9631C328.013 44.5745 327.843 45.1248 327.504 45.614C327.164 46.1032 326.682 46.4904 326.057 46.7758C325.445 47.0476 324.739 47.1834 323.937 47.1834ZM330.815 47.1223C330.462 47.1223 330.163 47 329.918 46.7554C329.674 46.5108 329.551 46.2119 329.551 45.8586C329.551 45.5053 329.674 45.2064 329.918 44.9618C330.163 44.7172 330.462 44.5949 330.815 44.5949C331.155 44.5949 331.44 44.7172 331.671 44.9618C331.916 45.2064 332.038 45.5053 332.038 45.8586C332.038 46.2119 331.916 46.5108 331.671 46.7554C331.44 47 331.155 47.1223 330.815 47.1223ZM6.0231 78.1427C5.08552 78.1427 4.24306 77.9796 3.49571 77.6535C2.76196 77.3138 2.18446 76.8518 1.76323 76.2675C1.342 75.6696 1.12459 74.9834 1.111 74.2089H3.08807C3.15601 74.8747 3.42777 75.4386 3.90336 75.9006C4.39253 76.349 5.09911 76.5732 6.0231 76.5732C6.90633 76.5732 7.59932 76.3558 8.10208 75.921C8.61843 75.4726 8.8766 74.9019 8.8766 74.2089C8.8766 73.6654 8.72714 73.2238 8.4282 72.8841C8.12926 72.5444 7.75559 72.2862 7.30718 72.1096C6.85877 71.9329 6.2541 71.7427 5.49317 71.5389C4.55559 71.2943 3.80145 71.0497 3.23075 70.8051C2.67363 70.5605 2.19126 70.18 1.78361 69.6637C1.38956 69.1338 1.19253 68.4272 1.19253 67.544C1.19253 66.7694 1.38956 66.0832 1.78361 65.4854C2.17767 64.8875 2.72799 64.4255 3.43457 64.0994C4.15474 63.7733 4.97682 63.6102 5.90081 63.6102C7.23244 63.6102 8.31949 63.9431 9.16195 64.6089C10.018 65.2747 10.5004 66.158 10.6091 67.2586H8.57087C8.50293 66.7151 8.21758 66.2395 7.71482 65.8319C7.21206 65.4106 6.54624 65.2 5.71737 65.2C4.94285 65.2 4.311 65.4038 3.82183 65.8115C3.33266 66.2055 3.08807 66.7626 3.08807 67.4828C3.08807 67.9992 3.23075 68.4204 3.5161 68.7465C3.81504 69.0726 4.17512 69.324 4.59635 69.5006C5.03117 69.6637 5.63584 69.8539 6.41036 70.0713C7.34794 70.3295 8.10208 70.5877 8.67278 70.8459C9.24348 71.0904 9.73266 71.4777 10.1403 72.0076C10.5479 72.524 10.7518 73.2306 10.7518 74.1274C10.7518 74.8204 10.5683 75.4726 10.2014 76.0841C9.83457 76.6955 9.29104 77.1915 8.57087 77.572C7.8507 77.9524 7.00145 78.1427 6.0231 78.1427ZM23.2647 71.9873C23.2647 72.3406 23.2443 72.7142 23.2035 73.1083H14.2761C14.3441 74.2089 14.7177 75.0718 15.3971 75.6968C16.0901 76.3083 16.9258 76.614 17.9041 76.614C18.7058 76.614 19.3717 76.4306 19.9016 76.0637C20.4451 75.6832 20.8256 75.1805 21.043 74.5554H23.0405C22.7415 75.6289 22.1436 76.5053 21.2468 77.1847C20.35 77.8505 19.2358 78.1834 17.9041 78.1834C16.8443 78.1834 15.8931 77.9456 15.0506 77.4701C14.2218 76.9945 13.5695 76.3219 13.094 75.4522C12.6184 74.569 12.3806 73.5499 12.3806 72.3949C12.3806 71.2399 12.6116 70.2276 13.0736 69.358C13.5356 68.4883 14.181 67.8225 15.0099 67.3605C15.8523 66.8849 16.8171 66.6471 17.9041 66.6471C18.964 66.6471 19.9016 66.8781 20.7169 67.3401C21.5322 67.8021 22.1572 68.4408 22.592 69.2561C23.0405 70.0578 23.2647 70.9682 23.2647 71.9873ZM21.3487 71.6C21.3487 70.8934 21.1925 70.2887 20.8799 69.786C20.5674 69.2696 20.1394 68.8824 19.5959 68.6242C19.0659 68.3524 18.4748 68.2166 17.8226 68.2166C16.885 68.2166 16.0833 68.5155 15.4175 69.1134C14.7653 69.7113 14.3916 70.5401 14.2965 71.6H21.3487ZM24.6123 72.3745C24.6123 71.2331 24.8433 70.2344 25.3053 69.3783C25.7673 68.5087 26.3991 67.8361 27.2008 67.3605C28.0161 66.8849 28.9197 66.6471 29.9116 66.6471C30.89 66.6471 31.7392 66.8578 32.4594 67.279C33.1796 67.7002 33.7163 68.2302 34.0696 68.8688V66.8306H35.9447V78H34.0696V75.921C33.7027 76.5732 33.1524 77.1168 32.4186 77.5516C31.6985 77.9728 30.856 78.1834 29.8912 78.1834C28.8993 78.1834 28.0025 77.9389 27.2008 77.4497C26.3991 76.9605 25.7673 76.2743 25.3053 75.3911C24.8433 74.5079 24.6123 73.5023 24.6123 72.3745ZM34.0696 72.3949C34.0696 71.5524 33.8997 70.8187 33.56 70.1936C33.2203 69.5686 32.7583 69.093 32.174 68.7669C31.6033 68.4272 30.9715 68.2573 30.2785 68.2573C29.5855 68.2573 28.9537 68.4204 28.383 68.7465C27.8123 69.0726 27.3571 69.5482 27.0174 70.1733C26.6777 70.7983 26.5078 71.5321 26.5078 72.3745C26.5078 73.2306 26.6777 73.9779 27.0174 74.6166C27.3571 75.2416 27.8123 75.724 28.383 76.0637C28.9537 76.3898 29.5855 76.5529 30.2785 76.5529C30.9715 76.5529 31.6033 76.3898 32.174 76.0637C32.7583 75.724 33.2203 75.2416 33.56 74.6166C33.8997 73.9779 34.0696 73.2374 34.0696 72.3949ZM40.5263 68.6446C40.8524 68.0059 41.3144 67.51 41.9123 67.1567C42.5237 66.8034 43.2643 66.6268 44.1339 66.6268V68.5427H43.6447C41.5658 68.5427 40.5263 69.6705 40.5263 71.9261V78H38.6715V66.8306H40.5263V68.6446ZM45.1744 72.3949C45.1744 71.2399 45.4054 70.2344 45.8674 69.3783C46.3293 68.5087 46.968 67.8361 47.7833 67.3605C48.6122 66.8849 49.5565 66.6471 50.6164 66.6471C51.9888 66.6471 53.1166 66.98 53.9998 67.6459C54.8967 68.3117 55.4877 69.2357 55.7731 70.4178H53.7756C53.5854 69.7384 53.2117 69.2017 52.6546 68.8076C52.1111 68.4136 51.4317 68.2166 50.6164 68.2166C49.5565 68.2166 48.7005 68.5834 48.0482 69.3172C47.396 70.0374 47.0699 71.0633 47.0699 72.3949C47.0699 73.7401 47.396 74.7796 48.0482 75.5134C48.7005 76.2471 49.5565 76.614 50.6164 76.614C51.4317 76.614 52.1111 76.4238 52.6546 76.0433C53.1981 75.6628 53.5718 75.1193 53.7756 74.4127H55.7731C55.4741 75.5541 54.8763 76.4713 53.9795 77.1643C53.0826 77.8437 51.9616 78.1834 50.6164 78.1834C49.5565 78.1834 48.6122 77.9456 47.7833 77.4701C46.968 76.9945 46.3293 76.3219 45.8674 75.4522C45.4054 74.5826 45.1744 73.5635 45.1744 72.3949ZM63.3842 66.6268C64.2267 66.6268 64.9876 66.8102 65.667 67.1771C66.3464 67.5304 66.8764 68.0671 67.2568 68.7873C67.6509 69.5074 67.8479 70.3839 67.8479 71.4166V78H66.0135V71.6815C66.0135 70.5673 65.735 69.718 65.1779 69.1338C64.6207 68.5359 63.8598 68.2369 62.8951 68.2369C61.9167 68.2369 61.1354 68.5427 60.5511 69.1541C59.9804 69.7656 59.6951 70.6556 59.6951 71.8242V78H57.8403V62.9172H59.6951V68.4204C60.0619 67.8497 60.5647 67.4081 61.2033 67.0955C61.8556 66.783 62.5825 66.6268 63.3842 66.6268ZM80.0415 68.3592H77.6976V78H75.8428V68.3592H74.3957V66.8306H75.8428V66.0357C75.8428 64.7856 76.1621 63.8752 76.8008 63.3045C77.453 62.7202 78.4925 62.428 79.9192 62.428V63.9771C79.104 63.9771 78.5265 64.1401 78.1868 64.4662C77.8607 64.7788 77.6976 65.3019 77.6976 66.0357V66.8306H80.0415V68.3592ZM81.1035 72.3745C81.1035 71.2331 81.3345 70.2344 81.7965 69.3783C82.2585 68.5087 82.8903 67.8361 83.692 67.3605C84.5073 66.8849 85.4109 66.6471 86.4029 66.6471C87.3812 66.6471 88.2305 66.8578 88.9506 67.279C89.6708 67.7002 90.2075 68.2302 90.5608 68.8688V66.8306H92.436V78H90.5608V75.921C90.1939 76.5732 89.6436 77.1168 88.9099 77.5516C88.1897 77.9728 87.3472 78.1834 86.3825 78.1834C85.3905 78.1834 84.4937 77.9389 83.692 77.4497C82.8903 76.9605 82.2585 76.2743 81.7965 75.3911C81.3345 74.5079 81.1035 73.5023 81.1035 72.3745ZM90.5608 72.3949C90.5608 71.5524 90.391 70.8187 90.0513 70.1936C89.7116 69.5686 89.2496 69.093 88.6653 68.7669C88.0946 68.4272 87.4627 68.2573 86.7697 68.2573C86.0767 68.2573 85.4449 68.4204 84.8742 68.7465C84.3035 69.0726 83.8483 69.5482 83.5086 70.1733C83.1689 70.7983 82.999 71.5321 82.999 72.3745C82.999 73.2306 83.1689 73.9779 83.5086 74.6166C83.8483 75.2416 84.3035 75.724 84.8742 76.0637C85.4449 76.3898 86.0767 76.5529 86.7697 76.5529C87.4627 76.5529 88.0946 76.3898 88.6653 76.0637C89.2496 75.724 89.7116 75.2416 90.0513 74.6166C90.391 73.9779 90.5608 73.2374 90.5608 72.3949ZM99.1169 78.1834C98.2608 78.1834 97.4931 78.0408 96.8137 77.7554C96.1343 77.4565 95.5975 77.0488 95.2035 76.5325C94.8094 76.0025 94.592 75.3979 94.5513 74.7185H96.4672C96.5215 75.2756 96.7797 75.7308 97.2417 76.0841C97.7173 76.4374 98.3355 76.614 99.0965 76.614C99.8031 76.614 100.36 76.4577 100.768 76.1452C101.175 75.8327 101.379 75.4386 101.379 74.9631C101.379 74.4739 101.162 74.1138 100.727 73.8828C100.292 73.6382 99.6196 73.4004 98.7092 73.1694C97.8803 72.952 97.2009 72.7346 96.671 72.5172C96.1547 72.2862 95.7062 71.9533 95.3258 71.5185C94.9589 71.0701 94.7755 70.4858 94.7755 69.7656C94.7755 69.1949 94.9453 68.6718 95.285 68.1962C95.6247 67.7206 96.1071 67.3469 96.7321 67.0752C97.3572 66.7898 98.0706 66.6471 98.8723 66.6471C100.109 66.6471 101.108 66.9597 101.868 67.5847C102.629 68.2098 103.037 69.0658 103.091 70.1529H101.237C101.196 69.5686 100.958 69.0998 100.523 68.7465C100.102 68.3932 99.5313 68.2166 98.8111 68.2166C98.1453 68.2166 97.6154 68.3592 97.2213 68.6446C96.8273 68.9299 96.6302 69.3036 96.6302 69.7656C96.6302 70.1325 96.7457 70.4382 96.9767 70.6828C97.2213 70.9138 97.5203 71.104 97.8735 71.2535C98.2404 71.3894 98.7432 71.5456 99.3818 71.7223C100.184 71.9397 100.836 72.1571 101.339 72.3745C101.841 72.5783 102.269 72.8909 102.623 73.3121C102.989 73.7333 103.18 74.2837 103.193 74.9631C103.193 75.5745 103.023 76.1248 102.684 76.614C102.344 77.1032 101.862 77.4904 101.237 77.7758C100.625 78.0476 99.9186 78.1834 99.1169 78.1834ZM107.666 68.3592V74.9427C107.666 75.4862 107.782 75.8735 108.013 76.1045C108.244 76.3219 108.645 76.4306 109.215 76.4306H110.581V78H108.91C107.877 78 107.102 77.7622 106.586 77.2866C106.07 76.811 105.812 76.0297 105.812 74.9427V68.3592H104.364V66.8306H105.812V64.0178H107.666V66.8306H110.581V68.3592H107.666ZM122.612 71.9873C122.612 72.3406 122.591 72.7142 122.551 73.1083H113.623C113.691 74.2089 114.065 75.0718 114.744 75.6968C115.437 76.3083 116.273 76.614 117.251 76.614C118.053 76.614 118.719 76.4306 119.249 76.0637C119.792 75.6832 120.173 75.1805 120.39 74.5554H122.388C122.089 75.6289 121.491 76.5053 120.594 77.1847C119.697 77.8505 118.583 78.1834 117.251 78.1834C116.191 78.1834 115.24 77.9456 114.398 77.4701C113.569 76.9945 112.917 76.3219 112.441 75.4522C111.965 74.569 111.728 73.5499 111.728 72.3949C111.728 71.2399 111.959 70.2276 112.421 69.358C112.883 68.4883 113.528 67.8225 114.357 67.3605C115.199 66.8849 116.164 66.6471 117.251 66.6471C118.311 66.6471 119.249 66.8781 120.064 67.3401C120.879 67.8021 121.504 68.4408 121.939 69.2561C122.388 70.0578 122.612 70.9682 122.612 71.9873ZM120.696 71.6C120.696 70.8934 120.54 70.2887 120.227 69.786C119.915 69.2696 119.486 68.8824 118.943 68.6242C118.413 68.3524 117.822 68.2166 117.17 68.2166C116.232 68.2166 115.43 68.5155 114.765 69.1134C114.112 69.7113 113.739 70.5401 113.644 71.6H120.696ZM126.507 68.6446C126.833 68.0059 127.295 67.51 127.893 67.1567C128.505 66.8034 129.245 66.6268 130.115 66.6268V68.5427H129.626C127.547 68.5427 126.507 69.6705 126.507 71.9261V78H124.652V66.8306H126.507V68.6446ZM132.439 78.1223C132.086 78.1223 131.787 78 131.542 77.7554C131.298 77.5108 131.176 77.2119 131.176 76.8586C131.176 76.5053 131.298 76.2064 131.542 75.9618C131.787 75.7172 132.086 75.5949 132.439 75.5949C132.779 75.5949 133.064 75.7172 133.295 75.9618C133.54 76.2064 133.662 76.5053 133.662 76.8586C133.662 77.2119 133.54 77.5108 133.295 77.7554C133.064 78 132.779 78.1223 132.439 78.1223Z" fill="white"/>
</svg>
