<svg width="536" height="315" viewBox="0 0 536 315" fill="none" xmlns="http://www.w3.org/2000/svg">
<path d="M20.2897 51.8225C18.0477 51.8225 16.0208 51.4386 14.2088 50.6708C12.4275 49.903 11.0148 48.7974 9.97058 47.3539C8.92639 45.9105 8.38894 44.206 8.35822 42.2405H15.2683C15.3605 43.5611 15.8211 44.6053 16.6503 45.373C17.5103 46.1408 18.6773 46.5247 20.1515 46.5247C21.6563 46.5247 22.8387 46.1715 23.6987 45.4652C24.5586 44.7281 24.9885 43.776 24.9885 42.609C24.9885 41.6569 24.6968 40.8738 24.1133 40.2596C23.5297 39.6453 22.7927 39.1693 21.902 38.8315C21.0421 38.4629 19.8444 38.0637 18.3088 37.6337C16.2204 37.0195 14.5159 36.4206 13.1953 35.8371C11.9054 35.2229 10.7844 34.3169 9.83238 33.1191C8.91103 31.8907 8.45036 30.2629 8.45036 28.236C8.45036 26.3319 8.92639 24.6734 9.87845 23.2607C10.8305 21.848 12.1665 20.7731 13.8863 20.036C15.6062 19.2682 17.5717 18.8843 19.7829 18.8843C23.0998 18.8843 25.787 19.6982 27.8447 21.3259C29.9331 22.9229 31.0848 25.1648 31.2998 28.0517H24.2054C24.144 26.9461 23.6679 26.0401 22.7773 25.3337C21.9174 24.5967 20.7657 24.2281 19.3223 24.2281C18.0631 24.2281 17.0496 24.5506 16.2818 25.1955C15.5447 25.8405 15.1762 26.7772 15.1762 28.0056C15.1762 28.8656 15.4526 29.5873 16.0054 30.1708C16.5889 30.7236 17.2953 31.1843 18.1245 31.5528C18.9844 31.8907 20.1822 32.2899 21.7178 32.7506C23.8061 33.3648 25.5106 33.979 26.8312 34.5933C28.1518 35.2075 29.2882 36.1289 30.2402 37.3573C31.1923 38.5858 31.6683 40.1981 31.6683 42.1944C31.6683 43.9142 31.223 45.5112 30.3324 46.9854C29.4417 48.4596 28.1365 49.6419 26.4166 50.5326C24.6968 51.3925 22.6545 51.8225 20.2897 51.8225ZM60.4316 25.9787V51.5H53.9361V48.2753C53.1069 49.3809 52.0166 50.2562 50.6653 50.9011C49.3447 51.5154 47.9013 51.8225 46.335 51.8225C44.3387 51.8225 42.5728 51.4079 41.0373 50.5787C39.5017 49.7187 38.2886 48.4749 37.3979 46.8472C36.538 45.1888 36.108 43.2232 36.108 40.9506V25.9787H42.5575V40.0292C42.5575 42.0562 43.0642 43.6225 44.0777 44.7281C45.0912 45.803 46.4732 46.3405 48.2238 46.3405C50.005 46.3405 51.4024 45.803 52.4159 44.7281C53.4294 43.6225 53.9361 42.0562 53.9361 40.0292V25.9787H60.4316ZM72.3231 29.6641C73.1523 28.497 74.2886 27.5296 75.7321 26.7618C77.2062 25.9633 78.88 25.5641 80.7534 25.5641C82.934 25.5641 84.8995 26.1015 86.6501 27.1764C88.4313 28.2513 89.8287 29.7869 90.8422 31.7832C91.8864 33.7487 92.4085 36.0367 92.4085 38.6472C92.4085 41.2577 91.8864 43.5764 90.8422 45.6034C89.8287 47.5996 88.4313 49.1506 86.6501 50.2562C84.8995 51.3618 82.934 51.9146 80.7534 51.9146C78.88 51.9146 77.2216 51.5307 75.7782 50.7629C74.3654 49.9951 73.2137 49.0277 72.3231 47.8607V63.6618H65.8737V25.9787H72.3231V29.6641ZM85.8208 38.6472C85.8208 37.1116 85.4984 35.791 84.8534 34.6854C84.2392 33.5491 83.41 32.6892 82.3658 32.1056C81.3523 31.5221 80.2467 31.2304 79.0489 31.2304C77.8819 31.2304 76.7763 31.5375 75.7321 32.1517C74.7186 32.7352 73.8894 33.5952 73.2445 34.7315C72.6302 35.8678 72.3231 37.2038 72.3231 38.7393C72.3231 40.2749 72.6302 41.6109 73.2445 42.7472C73.8894 43.8835 74.7186 44.7588 75.7321 45.373C76.7763 45.9566 77.8819 46.2483 79.0489 46.2483C80.2467 46.2483 81.3523 45.9412 82.3658 45.327C83.41 44.7127 84.2392 43.8375 84.8534 42.7011C85.4984 41.5648 85.8208 40.2135 85.8208 38.6472ZM119.898 38.1865C119.898 39.1079 119.837 39.9371 119.714 40.6742H101.057C101.21 42.5169 101.855 43.9603 102.992 45.0045C104.128 46.0487 105.525 46.5708 107.184 46.5708C109.579 46.5708 111.284 45.542 112.297 43.4843H119.254C118.516 45.9412 117.104 47.9682 115.015 49.5652C112.927 51.1315 110.363 51.9146 107.322 51.9146C104.865 51.9146 102.654 51.3772 100.688 50.3022C98.7535 49.1966 97.2333 47.6457 96.1277 45.6494C95.0528 43.6532 94.5153 41.3498 94.5153 38.7393C94.5153 36.0981 95.0528 33.7794 96.1277 31.7832C97.2026 29.7869 98.7075 28.2513 100.642 27.1764C102.577 26.1015 104.804 25.5641 107.322 25.5641C109.748 25.5641 111.913 26.0862 113.818 27.1304C115.752 28.1746 117.242 29.6641 118.286 31.5989C119.361 33.503 119.898 35.6989 119.898 38.1865ZM113.219 36.3438C113.188 34.6854 112.589 33.3648 111.422 32.382C110.255 31.3686 108.827 30.8618 107.138 30.8618C105.541 30.8618 104.189 31.3532 103.084 32.336C102.009 33.288 101.349 34.624 101.103 36.3438H113.219ZM130.134 29.9405C130.963 28.5892 132.038 27.5296 133.359 26.7618C134.71 25.994 136.246 25.6101 137.965 25.6101V32.382H136.261C134.234 32.382 132.698 32.8581 131.654 33.8101C130.641 34.7622 130.134 36.4206 130.134 38.7854V51.5H123.685V25.9787H130.134V29.9405ZM139.73 38.7393C139.73 36.0981 140.267 33.7948 141.342 31.8292C142.417 29.833 143.906 28.2974 145.811 27.2225C147.715 26.1169 149.895 25.5641 152.352 25.5641C155.515 25.5641 158.126 26.3626 160.184 27.9596C162.272 29.5259 163.669 31.7371 164.376 34.5933H157.42C157.051 33.4877 156.421 32.6277 155.531 32.0135C154.671 31.3686 153.596 31.0461 152.306 31.0461C150.463 31.0461 149.005 31.7217 147.93 33.0731C146.855 34.3937 146.317 36.2824 146.317 38.7393C146.317 41.1656 146.855 43.0543 147.93 44.4056C149.005 45.7262 150.463 46.3865 152.306 46.3865C154.917 46.3865 156.621 45.2195 157.42 42.8854H164.376C163.669 45.6494 162.272 47.8453 160.184 49.473C158.095 51.1007 155.485 51.9146 152.352 51.9146C149.895 51.9146 147.715 51.3772 145.811 50.3022C143.906 49.1966 142.417 47.6611 141.342 45.6955C140.267 43.6993 139.73 41.3805 139.73 38.7393ZM182.552 25.6101C184.487 25.6101 186.207 26.0401 187.712 26.9C189.217 27.7292 190.384 28.9731 191.213 30.6315C192.073 32.2592 192.503 34.2247 192.503 36.5281V51.5H186.053V37.4034C186.053 35.3764 185.547 33.8255 184.533 32.7506C183.52 31.645 182.138 31.0922 180.387 31.0922C178.606 31.0922 177.193 31.645 176.149 32.7506C175.135 33.8255 174.629 35.3764 174.629 37.4034V51.5H168.179V17.4102H174.629V29.1573C175.458 28.0517 176.563 27.1918 177.945 26.5776C179.327 25.9326 180.863 25.6101 182.552 25.6101ZM196.056 38.6472C196.056 36.0674 196.563 33.7794 197.576 31.7832C198.62 29.7869 200.018 28.2513 201.768 27.1764C203.55 26.1015 205.531 25.5641 207.711 25.5641C209.615 25.5641 211.274 25.948 212.686 26.7158C214.13 27.4836 215.282 28.451 216.141 29.618V25.9787H222.637V51.5H216.141V47.7685C215.312 48.9663 214.161 49.9644 212.686 50.7629C211.243 51.5307 209.569 51.9146 207.665 51.9146C205.515 51.9146 203.55 51.3618 201.768 50.2562C200.018 49.1506 198.62 47.5996 197.576 45.6034C196.563 43.5764 196.056 41.2577 196.056 38.6472ZM216.141 38.7393C216.141 37.1731 215.834 35.8371 215.22 34.7315C214.606 33.5952 213.777 32.7352 212.732 32.1517C211.688 31.5375 210.567 31.2304 209.37 31.2304C208.172 31.2304 207.066 31.5221 206.053 32.1056C205.039 32.6892 204.21 33.5491 203.565 34.6854C202.951 35.791 202.644 37.1116 202.644 38.6472C202.644 40.1828 202.951 41.5341 203.565 42.7011C204.21 43.8375 205.039 44.7127 206.053 45.327C207.097 45.9412 208.202 46.2483 209.37 46.2483C210.567 46.2483 211.688 45.9566 212.732 45.373C213.777 44.7588 214.606 43.8989 215.22 42.7933C215.834 41.6569 216.141 40.3056 216.141 38.7393ZM234.464 29.9405C235.293 28.5892 236.368 27.5296 237.689 26.7618C239.04 25.994 240.576 25.6101 242.295 25.6101V32.382H240.591C238.564 32.382 237.028 32.8581 235.984 33.8101C234.971 34.7622 234.464 36.4206 234.464 38.7854V51.5H228.015V25.9787H234.464V29.9405ZM255.715 25.5641C257.619 25.5641 259.293 25.948 260.736 26.7158C262.18 27.4528 263.316 28.4203 264.145 29.618V25.9787H270.641V51.6843C270.641 54.0491 270.165 56.1528 269.212 57.9955C268.26 59.8689 266.832 61.3431 264.928 62.418C263.024 63.5236 260.721 64.0764 258.018 64.0764C254.394 64.0764 251.415 63.2318 249.081 61.5427C246.778 59.8535 245.472 57.5502 245.165 54.6326H251.569C251.907 55.7996 252.628 56.721 253.734 57.3966C254.87 58.103 256.237 58.4562 257.834 58.4562C259.707 58.4562 261.227 57.888 262.395 56.7517C263.562 55.6461 264.145 53.9569 264.145 51.6843V47.7225C263.316 48.9202 262.164 49.9184 260.69 50.7169C259.247 51.5154 257.588 51.9146 255.715 51.9146C253.565 51.9146 251.599 51.3618 249.818 50.2562C248.037 49.1506 246.624 47.5996 245.58 45.6034C244.566 43.5764 244.06 41.2577 244.06 38.6472C244.06 36.0674 244.566 33.7794 245.58 31.7832C246.624 29.7869 248.021 28.2513 249.772 27.1764C251.553 26.1015 253.534 25.5641 255.715 25.5641ZM264.145 38.7393C264.145 37.1731 263.838 35.8371 263.224 34.7315C262.609 33.5952 261.78 32.7352 260.736 32.1517C259.692 31.5375 258.571 31.2304 257.373 31.2304C256.175 31.2304 255.07 31.5221 254.056 32.1056C253.043 32.6892 252.214 33.5491 251.569 34.6854C250.954 35.791 250.647 37.1116 250.647 38.6472C250.647 40.1828 250.954 41.5341 251.569 42.7011C252.214 43.8375 253.043 44.7127 254.056 45.327C255.101 45.9412 256.206 46.2483 257.373 46.2483C258.571 46.2483 259.692 45.9566 260.736 45.373C261.78 44.7588 262.609 43.8989 263.224 42.7933C263.838 41.6569 264.145 40.3056 264.145 38.7393ZM299.743 38.1865C299.743 39.1079 299.681 39.9371 299.559 40.6742H280.901C281.055 42.5169 281.7 43.9603 282.836 45.0045C283.972 46.0487 285.37 46.5708 287.028 46.5708C289.424 46.5708 291.128 45.542 292.142 43.4843H299.098C298.361 45.9412 296.948 47.9682 294.86 49.5652C292.771 51.1315 290.207 51.9146 287.166 51.9146C284.71 51.9146 282.498 51.3772 280.533 50.3022C278.598 49.1966 277.078 47.6457 275.972 45.6494C274.897 43.6532 274.36 41.3498 274.36 38.7393C274.36 36.0981 274.897 33.7794 275.972 31.7832C277.047 29.7869 278.552 28.2513 280.487 27.1764C282.422 26.1015 284.648 25.5641 287.166 25.5641C289.593 25.5641 291.758 26.0862 293.662 27.1304C295.597 28.1746 297.086 29.6641 298.131 31.5989C299.205 33.503 299.743 35.6989 299.743 38.1865ZM293.063 36.3438C293.032 34.6854 292.434 33.3648 291.266 32.382C290.099 31.3686 288.671 30.8618 286.982 30.8618C285.385 30.8618 284.034 31.3532 282.928 32.336C281.853 33.288 281.193 34.624 280.947 36.3438H293.063ZM339.152 19.345L328.28 40.3056V51.5H321.831V40.3056L310.913 19.345H318.191L325.102 34.0405L331.966 19.345H339.152ZM353.283 51.9146C350.826 51.9146 348.615 51.3772 346.649 50.3022C344.684 49.1966 343.133 47.6457 341.996 45.6494C340.891 43.6532 340.338 41.3498 340.338 38.7393C340.338 36.1289 340.906 33.8255 342.042 31.8292C343.209 29.833 344.791 28.2974 346.787 27.2225C348.784 26.1169 351.01 25.5641 353.467 25.5641C355.924 25.5641 358.151 26.1169 360.147 27.2225C362.143 28.2974 363.709 29.833 364.846 31.8292C366.013 33.8255 366.596 36.1289 366.596 38.7393C366.596 41.3498 365.997 43.6532 364.8 45.6494C363.633 47.6457 362.036 49.1966 360.009 50.3022C358.012 51.3772 355.771 51.9146 353.283 51.9146ZM353.283 46.2944C354.45 46.2944 355.54 46.018 356.554 45.4652C357.598 44.8817 358.427 44.0217 359.041 42.8854C359.656 41.7491 359.963 40.3671 359.963 38.7393C359.963 36.3131 359.318 34.4551 358.028 33.1652C356.769 31.8446 355.218 31.1843 353.375 31.1843C351.532 31.1843 349.981 31.8446 348.722 33.1652C347.494 34.4551 346.88 36.3131 346.88 38.7393C346.88 41.1656 347.478 43.039 348.676 44.3596C349.905 45.6494 351.44 46.2944 353.283 46.2944ZM394.499 25.9787V51.5H388.004V48.2753C387.174 49.3809 386.084 50.2562 384.733 50.9011C383.412 51.5154 381.969 51.8225 380.402 51.8225C378.406 51.8225 376.64 51.4079 375.105 50.5787C373.569 49.7187 372.356 48.4749 371.465 46.8472C370.606 45.1888 370.176 43.2232 370.176 40.9506V25.9787H376.625V40.0292C376.625 42.0562 377.132 43.6225 378.145 44.7281C379.159 45.803 380.541 46.3405 382.291 46.3405C384.073 46.3405 385.47 45.803 386.483 44.7281C387.497 43.6225 388.004 42.0562 388.004 40.0292V25.9787H394.499ZM406.391 29.9405C407.22 28.5892 408.295 27.5296 409.615 26.7618C410.967 25.994 412.502 25.6101 414.222 25.6101V32.382H412.518C410.491 32.382 408.955 32.8581 407.911 33.8101C406.897 34.7622 406.391 36.4206 406.391 38.7854V51.5H399.941V25.9787H406.391V29.9405Z" fill="white"/>
<path d="M35.8283 92.1752C35.8283 94.4893 35.2704 96.6589 34.1546 98.6838C33.0802 100.709 31.3653 102.341 29.0098 103.581C26.6956 104.82 23.7616 105.44 20.2077 105.44H12.9552V122.053H4.27708V78.786H20.2077C23.5549 78.786 26.4063 79.3646 28.7618 80.5217C31.1173 81.6788 32.8736 83.2697 34.0307 85.2946C35.2291 87.3195 35.8283 89.613 35.8283 92.1752ZM19.8357 98.4358C22.2325 98.4358 24.0095 97.8986 25.1666 96.8242C26.3237 95.7084 26.9022 94.1587 26.9022 92.1752C26.9022 87.9601 24.5467 85.8525 19.8357 85.8525H12.9552V98.4358H19.8357ZM49.4281 93.043C50.5438 91.2247 51.9902 89.799 53.7671 88.7659C55.5854 87.7328 57.6516 87.2162 59.9658 87.2162V96.3283H57.6723C54.9449 96.3283 52.8787 96.9688 51.4736 98.2499C50.1099 99.5309 49.4281 101.762 49.4281 104.944V122.053H40.7499V87.7121H49.4281V93.043ZM79.8199 122.611C76.514 122.611 73.5386 121.887 70.8939 120.441C68.2491 118.953 66.1622 116.867 64.6332 114.18C63.1455 111.494 62.4017 108.395 62.4017 104.882C62.4017 101.37 63.1662 98.2705 64.6952 95.5844C66.2655 92.8983 68.3937 90.8321 71.0798 89.3858C73.7659 87.8981 76.7619 87.1542 80.0679 87.1542C83.3738 87.1542 86.3699 87.8981 89.0559 89.3858C91.742 90.8321 93.8496 92.8983 95.3786 95.5844C96.9489 98.2705 97.7341 101.37 97.7341 104.882C97.7341 108.395 96.9282 111.494 95.3166 114.18C93.7463 116.867 91.5974 118.953 88.87 120.441C86.1839 121.887 83.1672 122.611 79.8199 122.611ZM79.8199 115.048C81.3903 115.048 82.8573 114.676 84.221 113.932C85.626 113.147 86.7418 111.99 87.5683 110.461C88.3948 108.932 88.808 107.073 88.808 104.882C88.808 101.618 87.9402 99.1177 86.2046 97.382C84.5103 95.6051 82.4234 94.7166 79.9439 94.7166C77.4644 94.7166 75.3776 95.6051 73.6833 97.382C72.0303 99.1177 71.2038 101.618 71.2038 104.882C71.2038 108.147 72.0096 110.668 73.6213 112.445C75.2742 114.18 77.3405 115.048 79.8199 115.048ZM100.629 104.882C100.629 101.329 101.352 98.2292 102.798 95.5844C104.244 92.8983 106.249 90.8321 108.811 89.3858C111.373 87.8981 114.307 87.1542 117.613 87.1542C121.869 87.1542 125.382 88.2287 128.151 90.3776C130.961 92.4851 132.841 95.4605 133.791 99.3036H124.431C123.936 97.816 123.088 96.6589 121.89 95.8324C120.733 94.9646 119.287 94.5307 117.551 94.5307C115.071 94.5307 113.109 95.4398 111.662 97.2581C110.216 99.035 109.493 101.576 109.493 104.882C109.493 108.147 110.216 110.689 111.662 112.507C113.109 114.284 115.071 115.172 117.551 115.172C121.063 115.172 123.357 113.602 124.431 110.461H133.791C132.841 114.18 130.961 117.135 128.151 119.325C125.341 121.516 121.828 122.611 117.613 122.611C114.307 122.611 111.373 121.887 108.811 120.441C106.249 118.953 104.244 116.887 102.798 114.242C101.352 111.556 100.629 108.436 100.629 104.882ZM170.832 104.139C170.832 105.378 170.75 106.494 170.584 107.486H145.48C145.686 109.965 146.554 111.908 148.083 113.313C149.612 114.718 151.492 115.42 153.724 115.42C156.947 115.42 159.241 114.036 160.605 111.267H169.965C168.973 114.573 167.072 117.3 164.262 119.449C161.452 121.557 158.001 122.611 153.91 122.611C150.604 122.611 147.629 121.887 144.984 120.441C142.38 118.953 140.335 116.867 138.847 114.18C137.401 111.494 136.678 108.395 136.678 104.882C136.678 101.329 137.401 98.2085 138.847 95.5224C140.294 92.8364 142.318 90.7701 144.922 89.3238C147.525 87.8774 150.521 87.1542 153.91 87.1542C157.175 87.1542 160.088 87.8568 162.65 89.2618C165.254 90.6668 167.258 92.6711 168.663 95.2745C170.109 97.8366 170.832 100.791 170.832 104.139ZM161.844 101.659C161.803 99.4276 160.997 97.6507 159.427 96.3283C157.856 94.9646 155.935 94.2827 153.662 94.2827C151.513 94.2827 149.695 94.9439 148.207 96.2663C146.761 97.5473 145.872 99.345 145.542 101.659H161.844ZM189.068 122.611C186.258 122.611 183.737 122.115 181.506 121.123C179.274 120.09 177.497 118.705 176.175 116.97C174.894 115.234 174.191 113.313 174.067 111.205H182.807C182.973 112.527 183.613 113.623 184.729 114.49C185.886 115.358 187.312 115.792 189.006 115.792C190.659 115.792 191.94 115.461 192.849 114.8C193.8 114.139 194.275 113.292 194.275 112.259C194.275 111.143 193.696 110.317 192.539 109.779C191.424 109.201 189.626 108.581 187.146 107.92C184.584 107.3 182.477 106.659 180.824 105.998C179.212 105.337 177.807 104.325 176.609 102.961C175.452 101.597 174.873 99.7582 174.873 97.444C174.873 95.5431 175.41 93.8075 176.485 92.2372C177.6 90.6668 179.171 89.4271 181.196 88.518C183.262 87.6088 185.679 87.1542 188.448 87.1542C192.539 87.1542 195.804 88.1874 198.242 90.2536C200.68 92.2785 202.023 95.0266 202.271 98.4978H193.965C193.841 97.1341 193.262 96.0597 192.229 95.2745C191.238 94.448 189.895 94.0348 188.2 94.0348C186.63 94.0348 185.411 94.324 184.543 94.9026C183.717 95.4811 183.303 96.2869 183.303 97.3201C183.303 98.4771 183.882 99.3656 185.039 99.9855C186.196 100.564 187.994 101.163 190.432 101.783C192.911 102.403 194.957 103.043 196.568 103.705C198.18 104.366 199.564 105.399 200.722 106.804C201.92 108.168 202.54 109.986 202.581 112.259C202.581 114.242 202.023 116.019 200.907 117.59C199.833 119.16 198.263 120.4 196.196 121.309C194.172 122.177 191.795 122.611 189.068 122.611ZM221.606 122.611C218.796 122.611 216.275 122.115 214.044 121.123C211.812 120.09 210.035 118.705 208.713 116.97C207.432 115.234 206.729 113.313 206.605 111.205H215.346C215.511 112.527 216.151 113.623 217.267 114.49C218.424 115.358 219.85 115.792 221.544 115.792C223.197 115.792 224.478 115.461 225.387 114.8C226.338 114.139 226.813 113.292 226.813 112.259C226.813 111.143 226.235 110.317 225.077 109.779C223.962 109.201 222.164 108.581 219.685 107.92C217.122 107.3 215.015 106.659 213.362 105.998C211.75 105.337 210.345 104.325 209.147 102.961C207.99 101.597 207.411 99.7582 207.411 97.444C207.411 95.5431 207.948 93.8075 209.023 92.2372C210.139 90.6668 211.709 89.4271 213.734 88.518C215.8 87.6088 218.218 87.1542 220.986 87.1542C225.077 87.1542 228.342 88.1874 230.78 90.2536C233.218 92.2785 234.561 95.0266 234.809 98.4978H226.503C226.379 97.1341 225.801 96.0597 224.767 95.2745C223.776 94.448 222.433 94.0348 220.738 94.0348C219.168 94.0348 217.949 94.324 217.081 94.9026C216.255 95.4811 215.841 96.2869 215.841 97.3201C215.841 98.4771 216.42 99.3656 217.577 99.9855C218.734 100.564 220.532 101.163 222.97 101.783C225.449 102.403 227.495 103.043 229.107 103.705C230.718 104.366 232.103 105.399 233.26 106.804C234.458 108.168 235.078 109.986 235.119 112.259C235.119 114.242 234.561 116.019 233.446 117.59C232.371 119.16 230.801 120.4 228.735 121.309C226.71 122.177 224.334 122.611 221.606 122.611ZM272.926 104.139C272.926 105.378 272.844 106.494 272.678 107.486H247.574C247.78 109.965 248.648 111.908 250.177 113.313C251.706 114.718 253.586 115.42 255.818 115.42C259.041 115.42 261.335 114.036 262.698 111.267H272.058C271.067 114.573 269.166 117.3 266.356 119.449C263.546 121.557 260.095 122.611 256.004 122.611C252.698 122.611 249.723 121.887 247.078 120.441C244.474 118.953 242.429 116.867 240.941 114.18C239.495 111.494 238.772 108.395 238.772 104.882C238.772 101.329 239.495 98.2085 240.941 95.5224C242.388 92.8364 244.412 90.7701 247.016 89.3238C249.619 87.8774 252.615 87.1542 256.004 87.1542C259.269 87.1542 262.182 87.8568 264.744 89.2618C267.347 90.6668 269.352 92.6711 270.757 95.2745C272.203 97.8366 272.926 100.791 272.926 104.139ZM263.938 101.659C263.897 99.4276 263.091 97.6507 261.521 96.3283C259.95 94.9646 258.029 94.2827 255.756 94.2827C253.607 94.2827 251.789 94.9439 250.301 96.2663C248.855 97.5473 247.966 99.345 247.636 101.659H263.938ZM291.162 122.611C288.352 122.611 285.831 122.115 283.6 121.123C281.368 120.09 279.591 118.705 278.269 116.97C276.988 115.234 276.285 113.313 276.161 111.205H284.901C285.067 112.527 285.707 113.623 286.823 114.49C287.98 115.358 289.406 115.792 291.1 115.792C292.753 115.792 294.034 115.461 294.943 114.8C295.894 114.139 296.369 113.292 296.369 112.259C296.369 111.143 295.79 110.317 294.633 109.779C293.517 109.201 291.72 108.581 289.24 107.92C286.678 107.3 284.571 106.659 282.918 105.998C281.306 105.337 279.901 104.325 278.703 102.961C277.546 101.597 276.967 99.7582 276.967 97.444C276.967 95.5431 277.504 93.8075 278.579 92.2372C279.694 90.6668 281.265 89.4271 283.29 88.518C285.356 87.6088 287.773 87.1542 290.542 87.1542C294.633 87.1542 297.898 88.1874 300.336 90.2536C302.774 92.2785 304.117 95.0266 304.365 98.4978H296.059C295.935 97.1341 295.356 96.0597 294.323 95.2745C293.332 94.448 291.988 94.0348 290.294 94.0348C288.724 94.0348 287.505 94.324 286.637 94.9026C285.81 95.4811 285.397 96.2869 285.397 97.3201C285.397 98.4771 285.976 99.3656 287.133 99.9855C288.29 100.564 290.088 101.163 292.526 101.783C295.005 102.403 297.051 103.043 298.662 103.705C300.274 104.366 301.658 105.399 302.815 106.804C304.014 108.168 304.634 109.986 304.675 112.259C304.675 114.242 304.117 116.019 303.001 117.59C301.927 119.16 300.357 120.4 298.29 121.309C296.266 122.177 293.889 122.611 291.162 122.611ZM493.758 113.809H476.526L473.674 122.053H464.562L480.121 78.7241H490.225L505.784 122.053H496.61L493.758 113.809ZM491.403 106.866L485.142 88.7659L478.881 106.866H491.403ZM519.038 78.786V122.053H510.359V78.786H519.038Z" fill="#FFC107"/>
<path d="M371.695 87.7121L361.653 122.053H352.293L346.033 98.0639L339.772 122.053H330.35L320.246 87.7121H329.048L335.123 113.87L341.694 87.7121H350.868L357.314 113.809L363.389 87.7121H371.695ZM379.552 83.621C378.023 83.621 376.742 83.1458 375.709 82.1953C374.717 81.2035 374.221 79.9845 374.221 78.5381C374.221 77.0917 374.717 75.8933 375.709 74.9429C376.742 73.9511 378.023 73.4552 379.552 73.4552C381.081 73.4552 382.341 73.9511 383.333 74.9429C384.366 75.8933 384.883 77.0917 384.883 78.5381C384.883 79.9845 384.366 81.2035 383.333 82.1953C382.341 83.1458 381.081 83.621 379.552 83.621ZM383.829 87.7121V122.053H375.151V87.7121H383.829ZM401.267 94.8406V111.453C401.267 112.61 401.536 113.457 402.073 113.994C402.652 114.49 403.602 114.738 404.924 114.738H408.954V122.053H403.499C396.184 122.053 392.527 118.499 392.527 111.391V94.8406H388.436V87.7121H392.527V79.22H401.267V87.7121H408.954V94.8406H401.267ZM433.295 87.2162C435.899 87.2162 438.213 87.7948 440.238 88.9519C442.263 90.0676 443.833 91.7413 444.949 93.9728C446.106 96.163 446.685 98.8077 446.685 101.907V122.053H438.006V103.085C438.006 100.357 437.325 98.2705 435.961 96.8242C434.597 95.3365 432.738 94.5926 430.382 94.5926C427.985 94.5926 426.084 95.3365 424.679 96.8242C423.316 98.2705 422.634 100.357 422.634 103.085V122.053H413.956V76.1826H422.634V91.9892C423.749 90.5015 425.237 89.3444 427.097 88.518C428.956 87.6501 431.023 87.2162 433.295 87.2162ZM530.215 122.487C528.645 122.487 527.343 122.011 526.31 121.061C525.318 120.069 524.822 118.85 524.822 117.404C524.822 115.957 525.318 114.759 526.31 113.809C527.343 112.817 528.645 112.321 530.215 112.321C531.744 112.321 533.004 112.817 533.996 113.809C534.988 114.759 535.484 115.957 535.484 117.404C535.484 118.85 534.988 120.069 533.996 121.061C533.004 122.011 531.744 122.487 530.215 122.487Z" fill="white"/>
<path d="M12.1525 164.313V166.09H7.58932V181.053H5.40379V166.09H0.816572V164.313H12.1525ZM20.895 167.651C21.8877 167.651 22.7843 167.867 23.5849 168.3C24.3855 168.716 25.0099 169.349 25.4582 170.197C25.9225 171.046 26.1547 172.078 26.1547 173.295V181.053H23.9932V173.608C23.9932 172.295 23.665 171.294 23.0085 170.605C22.352 169.901 21.4554 169.549 20.3186 169.549C19.1658 169.549 18.2452 169.909 17.5567 170.629C16.8842 171.35 16.548 172.399 16.548 173.776V181.053H14.3624V163.28H16.548V169.765C16.9803 169.092 17.5727 168.572 18.3252 168.204C19.0938 167.835 19.9504 167.651 20.895 167.651ZM41.2528 173.968C41.2528 174.384 41.2288 174.824 41.1808 175.289H30.6614C30.7415 176.586 31.1818 177.602 31.9823 178.339C32.7989 179.059 33.7836 179.42 34.9364 179.42C35.8811 179.42 36.6656 179.203 37.2901 178.771C37.9305 178.323 38.3788 177.73 38.635 176.994H40.9886C40.6364 178.259 39.9319 179.292 38.8752 180.092C37.8184 180.877 36.5055 181.269 34.9364 181.269C33.6875 181.269 32.5667 180.989 31.5741 180.428C30.5974 179.868 29.8288 179.075 29.2684 178.051C28.708 177.01 28.4278 175.809 28.4278 174.448C28.4278 173.087 28.7 171.894 29.2444 170.87C29.7888 169.845 30.5493 169.06 31.526 168.516C32.5187 167.956 33.6555 167.675 34.9364 167.675C36.1853 167.675 37.2901 167.948 38.2507 168.492C39.2114 169.036 39.9479 169.789 40.4603 170.75C40.9886 171.694 41.2528 172.767 41.2528 173.968ZM38.9953 173.511C38.9953 172.679 38.8111 171.966 38.4429 171.374C38.0746 170.766 37.5703 170.309 36.9298 170.005C36.3054 169.685 35.6089 169.525 34.8403 169.525C33.7356 169.525 32.7909 169.877 32.0064 170.581C31.2378 171.286 30.7975 172.263 30.6854 173.511H38.9953ZM51.7654 163.28V181.053H49.5799V163.28H51.7654ZM60.75 181.269C59.5171 181.269 58.3963 180.989 57.3876 180.428C56.3949 179.868 55.6104 179.075 55.034 178.051C54.4736 177.01 54.1934 175.809 54.1934 174.448C54.1934 173.103 54.4816 171.918 55.058 170.894C55.6504 169.853 56.451 169.06 57.4597 168.516C58.4684 167.956 59.5972 167.675 60.8461 167.675C62.0949 167.675 63.2237 167.956 64.2324 168.516C65.2411 169.06 66.0337 169.845 66.6101 170.87C67.2025 171.894 67.4987 173.087 67.4987 174.448C67.4987 175.809 67.1945 177.01 66.5861 178.051C65.9937 179.075 65.1851 179.868 64.1604 180.428C63.1357 180.989 61.9989 181.269 60.75 181.269ZM60.75 179.348C61.5345 179.348 62.2711 179.163 62.9595 178.795C63.648 178.427 64.2004 177.875 64.6167 177.138C65.049 176.401 65.2652 175.505 65.2652 174.448C65.2652 173.391 65.057 172.495 64.6407 171.758C64.2244 171.022 63.68 170.477 63.0076 170.125C62.3351 169.757 61.6066 169.573 60.822 169.573C60.0215 169.573 59.285 169.757 58.6125 170.125C57.956 170.477 57.4277 171.022 57.0274 171.758C56.6271 172.495 56.427 173.391 56.427 174.448C56.427 175.521 56.6191 176.425 57.0034 177.162C57.4036 177.899 57.932 178.451 58.5885 178.819C59.2449 179.171 59.9654 179.348 60.75 179.348ZM87.4242 167.892L83.3174 181.053H81.0598L77.8896 170.605L74.7193 181.053H72.4618L68.3309 167.892H70.5644L73.5905 178.939L76.8568 167.892H79.0904L82.2846 178.963L85.2627 167.892H87.4242ZM98.2393 171.326V173.175H88.6566V171.326H98.2393ZM101.044 174.448C101.044 173.087 101.316 171.902 101.861 170.894C102.405 169.869 103.158 169.076 104.118 168.516C105.095 167.956 106.208 167.675 107.457 167.675C109.074 167.675 110.403 168.068 111.443 168.852C112.5 169.637 113.197 170.726 113.533 172.118H111.179C110.955 171.318 110.515 170.685 109.858 170.221C109.218 169.757 108.417 169.525 107.457 169.525C106.208 169.525 105.199 169.957 104.43 170.822C103.662 171.67 103.278 172.879 103.278 174.448C103.278 176.033 103.662 177.258 104.43 178.123C105.199 178.987 106.208 179.42 107.457 179.42C108.417 179.42 109.218 179.195 109.858 178.747C110.499 178.299 110.939 177.658 111.179 176.826H113.533C113.181 178.171 112.476 179.251 111.419 180.068C110.363 180.869 109.042 181.269 107.457 181.269C106.208 181.269 105.095 180.989 104.118 180.428C103.158 179.868 102.405 179.075 101.861 178.051C101.316 177.026 101.044 175.825 101.044 174.448ZM121.709 181.269C120.476 181.269 119.355 180.989 118.346 180.428C117.354 179.868 116.569 179.075 115.993 178.051C115.432 177.01 115.152 175.809 115.152 174.448C115.152 173.103 115.44 171.918 116.017 170.894C116.609 169.853 117.41 169.06 118.418 168.516C119.427 167.956 120.556 167.675 121.805 167.675C123.054 167.675 124.182 167.956 125.191 168.516C126.2 169.06 126.992 169.845 127.569 170.87C128.161 171.894 128.457 173.087 128.457 174.448C128.457 175.809 128.153 177.01 127.545 178.051C126.952 179.075 126.144 179.868 125.119 180.428C124.094 180.989 122.957 181.269 121.709 181.269ZM121.709 179.348C122.493 179.348 123.23 179.163 123.918 178.795C124.607 178.427 125.159 177.875 125.575 177.138C126.008 176.401 126.224 175.505 126.224 174.448C126.224 173.391 126.016 172.495 125.599 171.758C125.183 171.022 124.639 170.477 123.966 170.125C123.294 169.757 122.565 169.573 121.781 169.573C120.98 169.573 120.244 169.757 119.571 170.125C118.915 170.477 118.386 171.022 117.986 171.758C117.586 172.495 117.386 173.391 117.386 174.448C117.386 175.521 117.578 176.425 117.962 177.162C118.362 177.899 118.891 178.451 119.547 178.819C120.204 179.171 120.924 179.348 121.709 179.348ZM130.034 174.424C130.034 173.079 130.306 171.902 130.851 170.894C131.395 169.869 132.139 169.076 133.084 168.516C134.045 167.956 135.118 167.675 136.302 167.675C137.327 167.675 138.28 167.916 139.16 168.396C140.041 168.86 140.714 169.477 141.178 170.245V163.28H143.387V181.053H141.178V178.579C140.746 179.364 140.105 180.012 139.256 180.524C138.408 181.021 137.415 181.269 136.278 181.269C135.11 181.269 134.045 180.981 133.084 180.404C132.139 179.828 131.395 179.019 130.851 177.979C130.306 176.938 130.034 175.753 130.034 174.424ZM141.178 174.448C141.178 173.455 140.978 172.591 140.577 171.854C140.177 171.118 139.633 170.557 138.944 170.173C138.272 169.773 137.527 169.573 136.711 169.573C135.894 169.573 135.15 169.765 134.477 170.149C133.805 170.533 133.268 171.094 132.868 171.83C132.468 172.567 132.268 173.431 132.268 174.424C132.268 175.433 132.468 176.313 132.868 177.066C133.268 177.802 133.805 178.371 134.477 178.771C135.15 179.155 135.894 179.348 136.711 179.348C137.527 179.348 138.272 179.155 138.944 178.771C139.633 178.371 140.177 177.802 140.577 177.066C140.978 176.313 141.178 175.441 141.178 174.448ZM158.609 173.968C158.609 174.384 158.585 174.824 158.537 175.289H148.017C148.097 176.586 148.538 177.602 149.338 178.339C150.155 179.059 151.14 179.42 152.292 179.42C153.237 179.42 154.022 179.203 154.646 178.771C155.286 178.323 155.735 177.73 155.991 176.994H158.345C157.992 178.259 157.288 179.292 156.231 180.092C155.174 180.877 153.861 181.269 152.292 181.269C151.043 181.269 149.923 180.989 148.93 180.428C147.953 179.868 147.185 179.075 146.624 178.051C146.064 177.01 145.784 175.809 145.784 174.448C145.784 173.087 146.056 171.894 146.6 170.87C147.145 169.845 147.905 169.06 148.882 168.516C149.875 167.956 151.011 167.675 152.292 167.675C153.541 167.675 154.646 167.948 155.607 168.492C156.567 169.036 157.304 169.789 157.816 170.75C158.345 171.694 158.609 172.767 158.609 173.968ZM156.351 173.511C156.351 172.679 156.167 171.966 155.799 171.374C155.431 170.766 154.926 170.309 154.286 170.005C153.661 169.685 152.965 169.525 152.196 169.525C151.092 169.525 150.147 169.877 149.362 170.581C148.594 171.286 148.153 172.263 148.041 173.511H156.351ZM169.602 169.693V177.45C169.602 178.091 169.738 178.547 170.01 178.819C170.282 179.075 170.755 179.203 171.427 179.203H173.036V181.053H171.067C169.85 181.053 168.937 180.773 168.329 180.212C167.72 179.652 167.416 178.731 167.416 177.45V169.693H165.711V167.892H167.416V164.577H169.602V167.892H173.036V169.693H169.602ZM180.944 181.269C179.711 181.269 178.59 180.989 177.582 180.428C176.589 179.868 175.804 179.075 175.228 178.051C174.667 177.01 174.387 175.809 174.387 174.448C174.387 173.103 174.675 171.918 175.252 170.894C175.844 169.853 176.645 169.06 177.654 168.516C178.662 167.956 179.791 167.675 181.04 167.675C182.289 167.675 183.418 167.956 184.426 168.516C185.435 169.06 186.228 169.845 186.804 170.87C187.396 171.894 187.693 173.087 187.693 174.448C187.693 175.809 187.388 177.01 186.78 178.051C186.188 179.075 185.379 179.868 184.354 180.428C183.33 180.989 182.193 181.269 180.944 181.269ZM180.944 179.348C181.728 179.348 182.465 179.163 183.153 178.795C183.842 178.427 184.394 177.875 184.811 177.138C185.243 176.401 185.459 175.505 185.459 174.448C185.459 173.391 185.251 172.495 184.835 171.758C184.418 171.022 183.874 170.477 183.201 170.125C182.529 169.757 181.8 169.573 181.016 169.573C180.215 169.573 179.479 169.757 178.806 170.125C178.15 170.477 177.622 171.022 177.221 171.758C176.821 172.495 176.621 173.391 176.621 174.448C176.621 175.521 176.813 176.425 177.197 177.162C177.598 177.899 178.126 178.451 178.782 178.819C179.439 179.171 180.159 179.348 180.944 179.348ZM195.826 181.269C194.593 181.269 193.472 180.989 192.464 180.428C191.471 179.868 190.686 179.075 190.11 178.051C189.549 177.01 189.269 175.809 189.269 174.448C189.269 173.103 189.557 171.918 190.134 170.894C190.726 169.853 191.527 169.06 192.536 168.516C193.544 167.956 194.673 167.675 195.922 167.675C197.171 167.675 198.3 167.956 199.308 168.516C200.317 169.06 201.11 169.845 201.686 170.87C202.278 171.894 202.575 173.087 202.575 174.448C202.575 175.809 202.27 177.01 201.662 178.051C201.07 179.075 200.261 179.868 199.236 180.428C198.212 180.989 197.075 181.269 195.826 181.269ZM195.826 179.348C196.61 179.348 197.347 179.163 198.035 178.795C198.724 178.427 199.276 177.875 199.693 177.138C200.125 176.401 200.341 175.505 200.341 174.448C200.341 173.391 200.133 172.495 199.717 171.758C199.3 171.022 198.756 170.477 198.083 170.125C197.411 169.757 196.682 169.573 195.898 169.573C195.097 169.573 194.361 169.757 193.688 170.125C193.032 170.477 192.504 171.022 192.103 171.758C191.703 172.495 191.503 173.391 191.503 174.448C191.503 175.521 191.695 176.425 192.079 177.162C192.48 177.899 193.008 178.451 193.664 178.819C194.321 179.171 195.041 179.348 195.826 179.348ZM207.153 163.28V181.053H204.968V163.28H207.153ZM218.986 169.693V177.45C218.986 178.091 219.122 178.547 219.395 178.819C219.667 179.075 220.139 179.203 220.812 179.203H222.421V181.053H220.451C219.234 181.053 218.322 180.773 217.713 180.212C217.105 179.652 216.801 178.731 216.801 177.45V169.693H215.096V167.892H216.801V164.577H218.986V167.892H222.421V169.693H218.986ZM231.121 167.651C232.114 167.651 233.01 167.867 233.811 168.3C234.611 168.716 235.236 169.349 235.684 170.197C236.149 171.046 236.381 172.078 236.381 173.295V181.053H234.219V173.608C234.219 172.295 233.891 171.294 233.235 170.605C232.578 169.901 231.681 169.549 230.545 169.549C229.392 169.549 228.471 169.909 227.783 170.629C227.11 171.35 226.774 172.399 226.774 173.776V181.053H224.588V163.28H226.774V169.765C227.206 169.092 227.799 168.572 228.551 168.204C229.32 167.835 230.176 167.651 231.121 167.651ZM238.654 174.424C238.654 173.079 238.926 171.902 239.47 170.894C240.015 169.869 240.759 169.076 241.704 168.516C242.665 167.956 243.729 167.675 244.898 167.675C246.051 167.675 247.052 167.924 247.9 168.42C248.749 168.916 249.381 169.541 249.798 170.293V167.892H252.007V181.053H249.798V178.603C249.365 179.372 248.717 180.012 247.852 180.524C247.004 181.021 246.011 181.269 244.874 181.269C243.705 181.269 242.649 180.981 241.704 180.404C240.759 179.828 240.015 179.019 239.47 177.979C238.926 176.938 238.654 175.753 238.654 174.424ZM249.798 174.448C249.798 173.455 249.598 172.591 249.197 171.854C248.797 171.118 248.253 170.557 247.564 170.173C246.892 169.773 246.147 169.573 245.331 169.573C244.514 169.573 243.769 169.765 243.097 170.149C242.424 170.533 241.888 171.094 241.488 171.83C241.088 172.567 240.887 173.431 240.887 174.424C240.887 175.433 241.088 176.313 241.488 177.066C241.888 177.802 242.424 178.371 243.097 178.771C243.769 179.155 244.514 179.348 245.331 179.348C246.147 179.348 246.892 179.155 247.564 178.771C248.253 178.371 248.797 177.802 249.197 177.066C249.598 176.313 249.798 175.441 249.798 174.448ZM257.886 169.693V177.45C257.886 178.091 258.022 178.547 258.294 178.819C258.567 179.075 259.039 179.203 259.711 179.203H261.32V181.053H259.351C258.134 181.053 257.222 180.773 256.613 180.212C256.005 179.652 255.701 178.731 255.701 177.45V169.693H253.995V167.892H255.701V164.577H257.886V167.892H261.32V169.693H257.886ZM275.943 167.651C276.936 167.651 277.833 167.867 278.633 168.3C279.434 168.716 280.058 169.349 280.507 170.197C280.971 171.046 281.203 172.078 281.203 173.295V181.053H279.042V173.608C279.042 172.295 278.713 171.294 278.057 170.605C277.4 169.901 276.504 169.549 275.367 169.549C274.214 169.549 273.293 169.909 272.605 170.629C271.933 171.35 271.596 172.399 271.596 173.776V181.053H269.411V163.28H271.596V169.765C272.029 169.092 272.621 168.572 273.374 168.204C274.142 167.835 274.999 167.651 275.943 167.651ZM283.476 174.424C283.476 173.079 283.748 171.902 284.293 170.894C284.837 169.869 285.582 169.076 286.526 168.516C287.487 167.956 288.552 167.675 289.721 167.675C290.873 167.675 291.874 167.924 292.723 168.42C293.571 168.916 294.204 169.541 294.62 170.293V167.892H296.83V181.053H294.62V178.603C294.188 179.372 293.539 180.012 292.675 180.524C291.826 181.021 290.833 181.269 289.697 181.269C288.528 181.269 287.471 180.981 286.526 180.404C285.582 179.828 284.837 179.019 284.293 177.979C283.748 176.938 283.476 175.753 283.476 174.424ZM294.62 174.448C294.62 173.455 294.42 172.591 294.02 171.854C293.619 171.118 293.075 170.557 292.386 170.173C291.714 169.773 290.969 169.573 290.153 169.573C289.336 169.573 288.592 169.765 287.919 170.149C287.247 170.533 286.71 171.094 286.31 171.83C285.91 172.567 285.71 173.431 285.71 174.424C285.71 175.433 285.91 176.313 286.31 177.066C286.71 177.802 287.247 178.371 287.919 178.771C288.592 179.155 289.336 179.348 290.153 179.348C290.969 179.348 291.714 179.155 292.386 178.771C293.075 178.371 293.619 177.802 294.02 177.066C294.42 176.313 294.62 175.441 294.62 174.448ZM304.702 181.269C303.693 181.269 302.788 181.101 301.988 180.765C301.187 180.412 300.555 179.932 300.091 179.324C299.626 178.699 299.37 177.987 299.322 177.186H301.58C301.644 177.842 301.948 178.379 302.492 178.795C303.053 179.211 303.781 179.42 304.678 179.42C305.51 179.42 306.167 179.235 306.647 178.867C307.127 178.499 307.368 178.035 307.368 177.474C307.368 176.898 307.111 176.474 306.599 176.201C306.087 175.913 305.294 175.633 304.221 175.361C303.245 175.105 302.444 174.848 301.82 174.592C301.211 174.32 300.683 173.928 300.235 173.415C299.802 172.887 299.586 172.199 299.586 171.35C299.586 170.677 299.786 170.061 300.187 169.501C300.587 168.94 301.155 168.5 301.892 168.18C302.628 167.843 303.469 167.675 304.414 167.675C305.871 167.675 307.047 168.044 307.944 168.78C308.841 169.517 309.321 170.525 309.385 171.806H307.2C307.152 171.118 306.871 170.565 306.359 170.149C305.863 169.733 305.19 169.525 304.342 169.525C303.557 169.525 302.933 169.693 302.468 170.029C302.004 170.365 301.772 170.806 301.772 171.35C301.772 171.782 301.908 172.142 302.18 172.431C302.468 172.703 302.82 172.927 303.237 173.103C303.669 173.263 304.261 173.447 305.014 173.656C305.959 173.912 306.727 174.168 307.32 174.424C307.912 174.664 308.416 175.033 308.833 175.529C309.265 176.025 309.489 176.674 309.505 177.474C309.505 178.195 309.305 178.843 308.905 179.42C308.504 179.996 307.936 180.452 307.2 180.789C306.479 181.109 305.646 181.269 304.702 181.269ZM320.699 169.693V177.45C320.699 178.091 320.835 178.547 321.107 178.819C321.379 179.075 321.851 179.203 322.524 179.203H324.133V181.053H322.164C320.947 181.053 320.034 180.773 319.426 180.212C318.817 179.652 318.513 178.731 318.513 177.45V169.693H316.808V167.892H318.513V164.577H320.699V167.892H324.133V169.693H320.699ZM332.833 167.651C333.826 167.651 334.723 167.867 335.523 168.3C336.324 168.716 336.948 169.349 337.396 170.197C337.861 171.046 338.093 172.078 338.093 173.295V181.053H335.931V173.608C335.931 172.295 335.603 171.294 334.947 170.605C334.29 169.901 333.394 169.549 332.257 169.549C331.104 169.549 330.183 169.909 329.495 170.629C328.822 171.35 328.486 172.399 328.486 173.776V181.053H326.301V163.28H328.486V169.765C328.918 169.092 329.511 168.572 330.263 168.204C331.032 167.835 331.889 167.651 332.833 167.651ZM353.191 173.968C353.191 174.384 353.167 174.824 353.119 175.289H342.6C342.68 176.586 343.12 177.602 343.921 178.339C344.737 179.059 345.722 179.42 346.875 179.42C347.819 179.42 348.604 179.203 349.228 178.771C349.869 178.323 350.317 177.73 350.573 176.994H352.927C352.575 178.259 351.87 179.292 350.813 180.092C349.757 180.877 348.444 181.269 346.875 181.269C345.626 181.269 344.505 180.989 343.512 180.428C342.536 179.868 341.767 179.075 341.207 178.051C340.646 177.01 340.366 175.809 340.366 174.448C340.366 173.087 340.638 171.894 341.183 170.87C341.727 169.845 342.488 169.06 343.464 168.516C344.457 167.956 345.594 167.675 346.875 167.675C348.123 167.675 349.228 167.948 350.189 168.492C351.15 169.036 351.886 169.789 352.398 170.75C352.927 171.694 353.191 172.767 353.191 173.968ZM350.933 173.511C350.933 172.679 350.749 171.966 350.381 171.374C350.013 170.766 349.508 170.309 348.868 170.005C348.244 169.685 347.547 169.525 346.779 169.525C345.674 169.525 344.729 169.877 343.945 170.581C343.176 171.286 342.736 172.263 342.624 173.511H350.933ZM363.704 170.341C364.152 169.557 364.808 168.916 365.673 168.42C366.538 167.924 367.522 167.675 368.627 167.675C369.812 167.675 370.877 167.956 371.821 168.516C372.766 169.076 373.51 169.869 374.055 170.894C374.599 171.902 374.871 173.079 374.871 174.424C374.871 175.753 374.599 176.938 374.055 177.979C373.51 179.019 372.758 179.828 371.797 180.404C370.853 180.981 369.796 181.269 368.627 181.269C367.49 181.269 366.49 181.021 365.625 180.524C364.776 180.028 364.136 179.396 363.704 178.627V181.053H361.518V163.28H363.704V170.341ZM372.638 174.424C372.638 173.431 372.438 172.567 372.037 171.83C371.637 171.094 371.093 170.533 370.404 170.149C369.732 169.765 368.987 169.573 368.171 169.573C367.37 169.573 366.626 169.773 365.937 170.173C365.265 170.557 364.72 171.126 364.304 171.878C363.904 172.615 363.704 173.471 363.704 174.448C363.704 175.441 363.904 176.313 364.304 177.066C364.72 177.802 365.265 178.371 365.937 178.771C366.626 179.155 367.37 179.348 368.171 179.348C368.987 179.348 369.732 179.155 370.404 178.771C371.093 178.371 371.637 177.802 372.037 177.066C372.438 176.313 372.638 175.433 372.638 174.424ZM389.276 173.968C389.276 174.384 389.252 174.824 389.204 175.289H378.685C378.765 176.586 379.205 177.602 380.006 178.339C380.822 179.059 381.807 179.42 382.96 179.42C383.905 179.42 384.689 179.203 385.314 178.771C385.954 178.323 386.402 177.73 386.658 176.994H389.012C388.66 178.259 387.955 179.292 386.899 180.092C385.842 180.877 384.529 181.269 382.96 181.269C381.711 181.269 380.59 180.989 379.598 180.428C378.621 179.868 377.852 179.075 377.292 178.051C376.731 177.01 376.451 175.809 376.451 174.448C376.451 173.087 376.723 171.894 377.268 170.87C377.812 169.845 378.573 169.06 379.549 168.516C380.542 167.956 381.679 167.675 382.96 167.675C384.209 167.675 385.314 167.948 386.274 168.492C387.235 169.036 387.971 169.789 388.484 170.75C389.012 171.694 389.276 172.767 389.276 173.968ZM387.019 173.511C387.019 172.679 386.835 171.966 386.466 171.374C386.098 170.766 385.594 170.309 384.953 170.005C384.329 169.685 383.632 169.525 382.864 169.525C381.759 169.525 380.814 169.877 380.03 170.581C379.261 171.286 378.821 172.263 378.709 173.511H387.019ZM396.34 181.269C395.331 181.269 394.427 181.101 393.626 180.765C392.826 180.412 392.193 179.932 391.729 179.324C391.264 178.699 391.008 177.987 390.96 177.186H393.218C393.282 177.842 393.586 178.379 394.13 178.795C394.691 179.211 395.419 179.42 396.316 179.42C397.149 179.42 397.805 179.235 398.285 178.867C398.766 178.499 399.006 178.035 399.006 177.474C399.006 176.898 398.75 176.474 398.237 176.201C397.725 175.913 396.932 175.633 395.86 175.361C394.883 175.105 394.082 174.848 393.458 174.592C392.85 174.32 392.321 173.928 391.873 173.415C391.441 172.887 391.224 172.199 391.224 171.35C391.224 170.677 391.425 170.061 391.825 169.501C392.225 168.94 392.794 168.5 393.53 168.18C394.267 167.843 395.107 167.675 396.052 167.675C397.509 167.675 398.686 168.044 399.582 168.78C400.479 169.517 400.959 170.525 401.023 171.806H398.838C398.79 171.118 398.51 170.565 397.997 170.149C397.501 169.733 396.828 169.525 395.98 169.525C395.195 169.525 394.571 169.693 394.106 170.029C393.642 170.365 393.41 170.806 393.41 171.35C393.41 171.782 393.546 172.142 393.818 172.431C394.106 172.703 394.459 172.927 394.875 173.103C395.307 173.263 395.9 173.447 396.652 173.656C397.597 173.912 398.365 174.168 398.958 174.424C399.55 174.664 400.055 175.033 400.471 175.529C400.903 176.025 401.127 176.674 401.143 177.474C401.143 178.195 400.943 178.843 400.543 179.42C400.143 179.996 399.574 180.452 398.838 180.789C398.117 181.109 397.285 181.269 396.34 181.269ZM406.414 169.693V177.45C406.414 178.091 406.55 178.547 406.822 178.819C407.095 179.075 407.567 179.203 408.239 179.203H409.849V181.053H407.879C406.662 181.053 405.75 180.773 405.141 180.212C404.533 179.652 404.229 178.731 404.229 177.45V169.693H402.523V167.892H404.229V164.577H406.414V167.892H409.849V169.693H406.414ZM4.51516 205.693V213.45C4.51516 214.091 4.65126 214.547 4.92345 214.819C5.19564 215.075 5.66797 215.203 6.34044 215.203H7.94957V217.053H5.98019C4.76334 217.053 3.8507 216.773 3.24227 216.212C2.63384 215.652 2.32963 214.731 2.32963 213.45V205.693H0.624437V203.892H2.32963V200.577H4.51516V203.892H7.94957V205.693H4.51516ZM9.3007 210.424C9.3007 209.079 9.57289 207.902 10.1173 206.894C10.6617 205.869 11.4062 205.076 12.3508 204.516C13.3115 203.956 14.3763 203.675 15.5451 203.675C16.6979 203.675 17.6986 203.924 18.5472 204.42C19.3958 204.916 20.0282 205.541 20.4445 206.293V203.892H22.6541V217.053H20.4445V214.603C20.0122 215.372 19.3638 216.012 18.4991 216.524C17.6506 217.021 16.6579 217.269 15.5211 217.269C14.3522 217.269 13.2955 216.981 12.3508 216.404C11.4062 215.828 10.6617 215.019 10.1173 213.979C9.57289 212.938 9.3007 211.753 9.3007 210.424ZM20.4445 210.448C20.4445 209.455 20.2444 208.591 19.8441 207.854C19.4438 207.118 18.8994 206.557 18.2109 206.173C17.5385 205.773 16.794 205.573 15.9774 205.573C15.1608 205.573 14.4163 205.765 13.7438 206.149C13.0713 206.533 12.535 207.094 12.1347 207.83C11.7344 208.567 11.5343 209.431 11.5343 210.424C11.5343 211.433 11.7344 212.313 12.1347 213.066C12.535 213.802 13.0713 214.371 13.7438 214.771C14.4163 215.155 15.1608 215.348 15.9774 215.348C16.794 215.348 17.5385 215.155 18.2109 214.771C18.8994 214.371 19.4438 213.802 19.8441 213.066C20.2444 212.313 20.4445 211.441 20.4445 210.448ZM31.2949 203.675C32.4317 203.675 33.4244 203.924 34.2729 204.42C35.1376 204.916 35.778 205.541 36.1943 206.293V203.892H38.4038V217.341C38.4038 218.542 38.1477 219.607 37.6353 220.535C37.1229 221.48 36.3864 222.216 35.4258 222.745C34.4811 223.273 33.3763 223.537 32.1114 223.537C30.3822 223.537 28.9412 223.129 27.7884 222.312C26.6356 221.496 25.9551 220.383 25.747 218.974H27.9085C28.1487 219.775 28.645 220.415 29.3975 220.895C30.1501 221.392 31.0547 221.64 32.1114 221.64C33.3123 221.64 34.289 221.264 35.0415 220.511C35.81 219.759 36.1943 218.702 36.1943 217.341V214.579C35.762 215.348 35.1215 215.988 34.2729 216.5C33.4244 217.013 32.4317 217.269 31.2949 217.269C30.126 217.269 29.0613 216.981 28.1006 216.404C27.156 215.828 26.4114 215.019 25.8671 213.979C25.3227 212.938 25.0505 211.753 25.0505 210.424C25.0505 209.079 25.3227 207.902 25.8671 206.894C26.4114 205.869 27.156 205.076 28.1006 204.516C29.0613 203.956 30.126 203.675 31.2949 203.675ZM36.1943 210.448C36.1943 209.455 35.9942 208.591 35.5939 207.854C35.1936 207.118 34.6492 206.557 33.9607 206.173C33.2883 205.773 32.5437 205.573 31.7272 205.573C30.9106 205.573 30.1661 205.765 29.4936 206.149C28.8211 206.533 28.2848 207.094 27.8845 207.83C27.4842 208.567 27.284 209.431 27.284 210.424C27.284 211.433 27.4842 212.313 27.8845 213.066C28.2848 213.802 28.8211 214.371 29.4936 214.771C30.1661 215.155 30.9106 215.348 31.7272 215.348C32.5437 215.348 33.2883 215.155 33.9607 214.771C34.6492 214.371 35.1936 213.802 35.5939 213.066C35.9942 212.313 36.1943 211.441 36.1943 210.448ZM43.8024 199.28V217.053H41.6168V199.28H43.8024ZM48.1757 201.754C47.7594 201.754 47.4071 201.61 47.1189 201.322C46.8307 201.034 46.6866 200.681 46.6866 200.265C46.6866 199.849 46.8307 199.496 47.1189 199.208C47.4071 198.92 47.7594 198.776 48.1757 198.776C48.576 198.776 48.9122 198.92 49.1844 199.208C49.4726 199.496 49.6167 199.849 49.6167 200.265C49.6167 200.681 49.4726 201.034 49.1844 201.322C48.9122 201.61 48.576 201.754 48.1757 201.754ZM49.2324 203.892V217.053H47.0469V203.892H49.2324ZM58.8894 203.651C60.4906 203.651 61.7875 204.14 62.7802 205.116C63.7729 206.077 64.2692 207.47 64.2692 209.295V217.053H62.1077V209.608C62.1077 208.295 61.7795 207.294 61.123 206.605C60.4665 205.901 59.5699 205.549 58.4331 205.549C57.2803 205.549 56.3597 205.909 55.6712 206.629C54.9987 207.35 54.6625 208.399 54.6625 209.776V217.053H52.4769V203.892H54.6625V205.765C55.0948 205.092 55.6792 204.572 56.4157 204.204C57.1682 203.835 57.9928 203.651 58.8894 203.651ZM79.3673 209.968C79.3673 210.384 79.3433 210.824 79.2953 211.289H68.7759C68.856 212.586 69.2963 213.602 70.0968 214.339C70.9134 215.059 71.8981 215.42 73.0509 215.42C73.9956 215.42 74.7801 215.203 75.4046 214.771C76.045 214.323 76.4933 213.73 76.7495 212.994H79.1032C78.7509 214.259 78.0464 215.292 76.9897 216.092C75.9329 216.877 74.62 217.269 73.0509 217.269C71.802 217.269 70.6813 216.989 69.6886 216.428C68.7119 215.868 67.9433 215.075 67.3829 214.051C66.8226 213.01 66.5424 211.809 66.5424 210.448C66.5424 209.087 66.8146 207.894 67.3589 206.87C67.9033 205.845 68.6638 205.06 69.6405 204.516C70.6332 203.956 71.77 203.675 73.0509 203.675C74.2998 203.675 75.4046 203.948 76.3652 204.492C77.3259 205.036 78.0624 205.789 78.5748 206.75C79.1032 207.694 79.3673 208.767 79.3673 209.968ZM77.1098 209.511C77.1098 208.679 76.9256 207.966 76.5574 207.374C76.1891 206.766 75.6848 206.309 75.0443 206.005C74.4199 205.685 73.7234 205.525 72.9549 205.525C71.8501 205.525 70.9054 205.877 70.1209 206.581C69.3523 207.286 68.912 208.263 68.7999 209.511H77.1098ZM92.3537 217.269C91.345 217.269 90.4403 217.101 89.6398 216.765C88.8392 216.412 88.2068 215.932 87.7425 215.324C87.2781 214.699 87.022 213.987 86.9739 213.186H89.2315C89.2955 213.842 89.5998 214.379 90.1441 214.795C90.7045 215.211 91.433 215.42 92.3297 215.42C93.1623 215.42 93.8187 215.235 94.2991 214.867C94.7794 214.499 95.0196 214.035 95.0196 213.474C95.0196 212.898 94.7634 212.474 94.251 212.201C93.7387 211.913 92.9461 211.633 91.8734 211.361C90.8967 211.105 90.0961 210.848 89.4717 210.592C88.8632 210.32 88.3349 209.928 87.8866 209.415C87.4543 208.887 87.2381 208.199 87.2381 207.35C87.2381 206.677 87.4382 206.061 87.8385 205.501C88.2388 204.94 88.8072 204.5 89.5437 204.18C90.2802 203.843 91.1208 203.675 92.0655 203.675C93.5225 203.675 94.6993 204.044 95.596 204.78C96.4926 205.517 96.9729 206.525 97.037 207.806H94.8514C94.8034 207.118 94.5232 206.565 94.0109 206.149C93.5145 205.733 92.842 205.525 91.9934 205.525C91.2089 205.525 90.5845 205.693 90.1201 206.029C89.6558 206.365 89.4236 206.806 89.4236 207.35C89.4236 207.782 89.5597 208.142 89.8319 208.431C90.1201 208.703 90.4724 208.927 90.8887 209.103C91.321 209.263 91.9134 209.447 92.6659 209.656C93.6106 209.912 94.3791 210.168 94.9715 210.424C95.5639 210.664 96.0683 211.033 96.4846 211.529C96.9169 212.025 97.141 212.674 97.1571 213.474C97.1571 214.195 96.9569 214.843 96.5566 215.42C96.1564 215.996 95.588 216.452 94.8514 216.789C94.1309 217.109 93.2984 217.269 92.3537 217.269ZM105.502 217.269C104.269 217.269 103.148 216.989 102.14 216.428C101.147 215.868 100.362 215.075 99.786 214.051C99.2256 213.01 98.9454 211.809 98.9454 210.448C98.9454 209.103 99.2336 207.918 99.81 206.894C100.402 205.853 101.203 205.06 102.212 204.516C103.22 203.956 104.349 203.675 105.598 203.675C106.847 203.675 107.976 203.956 108.984 204.516C109.993 205.06 110.786 205.845 111.362 206.87C111.954 207.894 112.251 209.087 112.251 210.448C112.251 211.809 111.946 213.01 111.338 214.051C110.746 215.075 109.937 215.868 108.912 216.428C107.888 216.989 106.751 217.269 105.502 217.269ZM105.502 215.348C106.287 215.348 107.023 215.163 107.712 214.795C108.4 214.427 108.952 213.875 109.369 213.138C109.801 212.401 110.017 211.505 110.017 210.448C110.017 209.391 109.809 208.495 109.393 207.758C108.976 207.022 108.432 206.477 107.76 206.125C107.087 205.757 106.359 205.573 105.574 205.573C104.773 205.573 104.037 205.757 103.364 206.125C102.708 206.477 102.18 207.022 101.779 207.758C101.379 208.495 101.179 209.391 101.179 210.448C101.179 211.521 101.371 212.425 101.755 213.162C102.156 213.899 102.684 214.451 103.34 214.819C103.997 215.171 104.717 215.348 105.502 215.348ZM121.695 201.754C121.279 201.754 120.927 201.61 120.639 201.322C120.35 201.034 120.206 200.681 120.206 200.265C120.206 199.849 120.35 199.496 120.639 199.208C120.927 198.92 121.279 198.776 121.695 198.776C122.096 198.776 122.432 198.92 122.704 199.208C122.992 199.496 123.136 199.849 123.136 200.265C123.136 200.681 122.992 201.034 122.704 201.322C122.432 201.61 122.096 201.754 121.695 201.754ZM122.752 203.892V217.053H120.567V203.892H122.752ZM141.824 203.651C142.848 203.651 143.761 203.867 144.562 204.3C145.362 204.716 145.995 205.349 146.459 206.197C146.923 207.046 147.155 208.078 147.155 209.295V217.053H144.994V209.608C144.994 208.295 144.666 207.294 144.009 206.605C143.369 205.901 142.496 205.549 141.391 205.549C140.255 205.549 139.35 205.917 138.677 206.653C138.005 207.374 137.669 208.423 137.669 209.8V217.053H135.507V209.608C135.507 208.295 135.179 207.294 134.523 206.605C133.882 205.901 133.009 205.549 131.905 205.549C130.768 205.549 129.863 205.917 129.191 206.653C128.518 207.374 128.182 208.423 128.182 209.8V217.053H125.997V203.892H128.182V205.789C128.614 205.1 129.191 204.572 129.911 204.204C130.648 203.835 131.456 203.651 132.337 203.651C133.442 203.651 134.418 203.9 135.267 204.396C136.116 204.892 136.748 205.621 137.164 206.581C137.533 205.653 138.141 204.932 138.99 204.42C139.838 203.908 140.783 203.651 141.824 203.651ZM149.444 210.424C149.444 209.079 149.716 207.902 150.26 206.894C150.805 205.869 151.549 205.076 152.494 204.516C153.454 203.956 154.519 203.675 155.688 203.675C156.841 203.675 157.841 203.924 158.69 204.42C159.539 204.916 160.171 205.541 160.587 206.293V203.892H162.797V217.053H160.587V214.603C160.155 215.372 159.507 216.012 158.642 216.524C157.793 217.021 156.801 217.269 155.664 217.269C154.495 217.269 153.438 216.981 152.494 216.404C151.549 215.828 150.805 215.019 150.26 213.979C149.716 212.938 149.444 211.753 149.444 210.424ZM160.587 210.448C160.587 209.455 160.387 208.591 159.987 207.854C159.587 207.118 159.042 206.557 158.354 206.173C157.681 205.773 156.937 205.573 156.12 205.573C155.304 205.573 154.559 205.765 153.887 206.149C153.214 206.533 152.678 207.094 152.278 207.83C151.877 208.567 151.677 209.431 151.677 210.424C151.677 211.433 151.877 212.313 152.278 213.066C152.678 213.802 153.214 214.371 153.887 214.771C154.559 215.155 155.304 215.348 156.12 215.348C156.937 215.348 157.681 215.155 158.354 214.771C159.042 214.371 159.587 213.802 159.987 213.066C160.387 212.313 160.587 211.441 160.587 210.448ZM171.438 203.675C172.575 203.675 173.567 203.924 174.416 204.42C175.28 204.916 175.921 205.541 176.337 206.293V203.892H178.547V217.341C178.547 218.542 178.291 219.607 177.778 220.535C177.266 221.48 176.529 222.216 175.569 222.745C174.624 223.273 173.519 223.537 172.254 223.537C170.525 223.537 169.084 223.129 167.931 222.312C166.778 221.496 166.098 220.383 165.89 218.974H168.051C168.292 219.775 168.788 220.415 169.54 220.895C170.293 221.392 171.198 221.64 172.254 221.64C173.455 221.64 174.432 221.264 175.184 220.511C175.953 219.759 176.337 218.702 176.337 217.341V214.579C175.905 215.348 175.264 215.988 174.416 216.5C173.567 217.013 172.575 217.269 171.438 217.269C170.269 217.269 169.204 216.981 168.243 216.404C167.299 215.828 166.554 215.019 166.01 213.979C165.466 212.938 165.193 211.753 165.193 210.424C165.193 209.079 165.466 207.902 166.01 206.894C166.554 205.869 167.299 205.076 168.243 204.516C169.204 203.956 170.269 203.675 171.438 203.675ZM176.337 210.448C176.337 209.455 176.137 208.591 175.737 207.854C175.336 207.118 174.792 206.557 174.104 206.173C173.431 205.773 172.687 205.573 171.87 205.573C171.053 205.573 170.309 205.765 169.636 206.149C168.964 206.533 168.428 207.094 168.027 207.83C167.627 208.567 167.427 209.431 167.427 210.424C167.427 211.433 167.627 212.313 168.027 213.066C168.428 213.802 168.964 214.371 169.636 214.771C170.309 215.155 171.053 215.348 171.87 215.348C172.687 215.348 173.431 215.155 174.104 214.771C174.792 214.371 175.336 213.802 175.737 213.066C176.137 212.313 176.337 211.441 176.337 210.448ZM182.888 201.754C182.472 201.754 182.12 201.61 181.832 201.322C181.544 201.034 181.399 200.681 181.399 200.265C181.399 199.849 181.544 199.496 181.832 199.208C182.12 198.92 182.472 198.776 182.888 198.776C183.289 198.776 183.625 198.92 183.897 199.208C184.185 199.496 184.329 199.849 184.329 200.265C184.329 200.681 184.185 201.034 183.897 201.322C183.625 201.61 183.289 201.754 182.888 201.754ZM183.945 203.892V217.053H181.76V203.892H183.945ZM193.602 203.651C195.203 203.651 196.5 204.14 197.493 205.116C198.486 206.077 198.982 207.47 198.982 209.295V217.053H196.82V209.608C196.82 208.295 196.492 207.294 195.836 206.605C195.179 205.901 194.283 205.549 193.146 205.549C191.993 205.549 191.072 205.909 190.384 206.629C189.712 207.35 189.375 208.399 189.375 209.776V217.053H187.19V203.892H189.375V205.765C189.808 205.092 190.392 204.572 191.128 204.204C191.881 203.835 192.706 203.651 193.602 203.651ZM214.08 209.968C214.08 210.384 214.056 210.824 214.008 211.289H203.489C203.569 212.586 204.009 213.602 204.81 214.339C205.626 215.059 206.611 215.42 207.764 215.42C208.708 215.42 209.493 215.203 210.117 214.771C210.758 214.323 211.206 213.73 211.462 212.994H213.816C213.464 214.259 212.759 215.292 211.702 216.092C210.646 216.877 209.333 217.269 207.764 217.269C206.515 217.269 205.394 216.989 204.401 216.428C203.425 215.868 202.656 215.075 202.096 214.051C201.535 213.01 201.255 211.809 201.255 210.448C201.255 209.087 201.527 207.894 202.072 206.87C202.616 205.845 203.377 205.06 204.353 204.516C205.346 203.956 206.483 203.675 207.764 203.675C209.013 203.675 210.117 203.948 211.078 204.492C212.039 205.036 212.775 205.789 213.288 206.75C213.816 207.694 214.08 208.767 214.08 209.968ZM211.823 209.511C211.823 208.679 211.638 207.966 211.27 207.374C210.902 206.766 210.398 206.309 209.757 206.005C209.133 205.685 208.436 205.525 207.668 205.525C206.563 205.525 205.618 205.877 204.834 206.581C204.065 207.286 203.625 208.263 203.513 209.511H211.823ZM223.536 201.754C223.12 201.754 222.767 201.61 222.479 201.322C222.191 201.034 222.047 200.681 222.047 200.265C222.047 199.849 222.191 199.496 222.479 199.208C222.767 198.92 223.12 198.776 223.536 198.776C223.936 198.776 224.273 198.92 224.545 199.208C224.833 199.496 224.977 199.849 224.977 200.265C224.977 200.681 224.833 201.034 224.545 201.322C224.273 201.61 223.936 201.754 223.536 201.754ZM224.593 203.892V217.053H222.407V203.892H224.593ZM230.503 205.693V213.45C230.503 214.091 230.639 214.547 230.911 214.819C231.184 215.075 231.656 215.203 232.328 215.203H233.938V217.053H231.968C230.751 217.053 229.839 216.773 229.23 216.212C228.622 215.652 228.318 214.731 228.318 213.45V205.693H226.612V203.892H228.318V200.577H230.503V203.892H233.938V205.693H230.503ZM248.56 203.651C249.553 203.651 250.45 203.867 251.25 204.3C252.051 204.716 252.675 205.349 253.124 206.197C253.588 207.046 253.82 208.078 253.82 209.295V217.053H251.659V209.608C251.659 208.295 251.33 207.294 250.674 206.605C250.017 205.901 249.121 205.549 247.984 205.549C246.831 205.549 245.911 205.909 245.222 206.629C244.55 207.35 244.213 208.399 244.213 209.776V217.053H242.028V199.28H244.213V205.765C244.646 205.092 245.238 204.572 245.991 204.204C246.759 203.835 247.616 203.651 248.56 203.651ZM268.918 209.968C268.918 210.384 268.894 210.824 268.846 211.289H258.327C258.407 212.586 258.847 213.602 259.648 214.339C260.464 215.059 261.449 215.42 262.602 215.42C263.546 215.42 264.331 215.203 264.955 214.771C265.596 214.323 266.044 213.73 266.3 212.994H268.654C268.302 214.259 267.597 215.292 266.541 216.092C265.484 216.877 264.171 217.269 262.602 217.269C261.353 217.269 260.232 216.989 259.239 216.428C258.263 215.868 257.494 215.075 256.934 214.051C256.373 213.01 256.093 211.809 256.093 210.448C256.093 209.087 256.365 207.894 256.91 206.87C257.454 205.845 258.215 205.06 259.191 204.516C260.184 203.956 261.321 203.675 262.602 203.675C263.851 203.675 264.955 203.948 265.916 204.492C266.877 205.036 267.613 205.789 268.126 206.75C268.654 207.694 268.918 208.767 268.918 209.968ZM266.661 209.511C266.661 208.679 266.477 207.966 266.108 207.374C265.74 206.766 265.236 206.309 264.595 206.005C263.971 205.685 263.274 205.525 262.506 205.525C261.401 205.525 260.456 205.877 259.672 206.581C258.903 207.286 258.463 208.263 258.351 209.511H266.661ZM273.508 206.029C273.893 205.276 274.437 204.692 275.141 204.276C275.862 203.859 276.735 203.651 277.759 203.651V205.909H277.183C274.733 205.909 273.508 207.238 273.508 209.896V217.053H271.323V203.892H273.508V206.029ZM291.81 209.968C291.81 210.384 291.786 210.824 291.738 211.289H281.219C281.299 212.586 281.739 213.602 282.54 214.339C283.356 215.059 284.341 215.42 285.494 215.42C286.438 215.42 287.223 215.203 287.847 214.771C288.488 214.323 288.936 213.73 289.192 212.994H291.546C291.194 214.259 290.489 215.292 289.433 216.092C288.376 216.877 287.063 217.269 285.494 217.269C284.245 217.269 283.124 216.989 282.131 216.428C281.155 215.868 280.386 215.075 279.826 214.051C279.265 213.01 278.985 211.809 278.985 210.448C278.985 209.087 279.257 207.894 279.802 206.87C280.346 205.845 281.107 205.06 282.083 204.516C283.076 203.956 284.213 203.675 285.494 203.675C286.743 203.675 287.847 203.948 288.808 204.492C289.769 205.036 290.505 205.789 291.018 206.75C291.546 207.694 291.81 208.767 291.81 209.968ZM289.553 209.511C289.553 208.679 289.369 207.966 289 207.374C288.632 206.766 288.128 206.309 287.487 206.005C286.863 205.685 286.166 205.525 285.398 205.525C284.293 205.525 283.348 205.877 282.564 206.581C281.795 207.286 281.355 208.263 281.243 209.511H289.553ZM294.911 217.197C294.495 217.197 294.143 217.053 293.854 216.765C293.566 216.476 293.422 216.124 293.422 215.708C293.422 215.292 293.566 214.939 293.854 214.651C294.143 214.363 294.495 214.219 294.911 214.219C295.311 214.219 295.648 214.363 295.92 214.651C296.208 214.939 296.352 215.292 296.352 215.708C296.352 216.124 296.208 216.476 295.92 216.765C295.648 217.053 295.311 217.197 294.911 217.197Z" fill="white"/>
<g clip-path="url(#clip0_151_9784)">
<path d="M23.5057 267.458H10.3289C7.66499 267.454 5.10277 268.481 3.17784 270.322C1.25292 272.164 0.114299 274.678 0 277.339L0 281.86C0 280.949 0.361947 280.075 1.00622 279.431C1.65049 278.786 2.52431 278.424 3.43544 278.424H23.7769C24.7711 278.426 25.7243 278.821 26.4269 279.525C27.1296 280.228 27.5242 281.182 27.5242 282.176V271.463C27.5242 270.936 27.4202 270.414 27.2181 269.927C27.0159 269.44 26.7197 268.998 26.3464 268.626C25.973 268.254 25.5299 267.959 25.0425 267.759C24.555 267.559 24.0327 267.456 23.5057 267.458Z" fill="url(#paint0_linear_151_9784)"/>
<path d="M14.7272 278.438C13.7329 278.439 12.7798 278.835 12.0771 279.538C11.3745 280.242 10.9799 281.196 10.9799 282.19V294.973C10.9799 295.095 10.9799 295.222 10.9799 295.348V305.917C10.9804 306.863 10.7946 307.799 10.4328 308.673C10.0711 309.546 9.54066 310.34 8.87182 311.009C8.20298 311.677 7.40889 312.207 6.535 312.568C5.66111 312.929 4.72457 313.115 3.77899 313.113H0V281.873C0 280.962 0.361947 280.088 1.00622 279.444C1.65049 278.8 2.52431 278.438 3.43544 278.438H14.7272Z" fill="url(#paint1_linear_151_9784)"/>
<path d="M27.8383 267.457H23.5078C24.57 267.457 25.5887 267.879 26.3398 268.63C27.0909 269.381 27.5128 270.4 27.5128 271.462V291.225C27.5128 292.219 27.118 293.172 26.4152 293.875C25.7125 294.577 24.7593 294.972 23.7655 294.972H35.125C35.5674 294.973 36.0056 294.886 36.4145 294.717C36.8233 294.548 37.1948 294.3 37.5076 293.987C37.8205 293.674 38.0685 293.303 38.2375 292.894C38.4066 292.485 38.4933 292.047 38.4927 291.605V278.111C38.4927 275.286 37.3702 272.576 35.3721 270.578C33.374 268.58 30.664 267.457 27.8383 267.457Z" fill="url(#paint2_linear_151_9784)"/>
<path d="M10.9844 294.972V305.952H28.1616C30.9043 305.946 33.5326 304.852 35.4698 302.911C37.4071 300.969 38.495 298.339 38.495 295.596V291.604C38.4956 292.047 38.4089 292.485 38.2399 292.894C38.0709 293.303 37.8228 293.674 37.51 293.987C37.1972 294.3 36.8257 294.548 36.4168 294.717C36.008 294.886 35.5698 294.973 35.1274 294.972H10.9844Z" fill="url(#paint3_linear_151_9784)"/>
</g>
<g clip-path="url(#clip1_151_9784)">
<path d="M140.045 280.439C140.185 280.265 140.316 280.108 140.438 279.951C140.961 279.279 141.633 278.878 142.453 278.677C143.221 278.485 143.98 278.529 144.731 278.72C145.516 278.921 146.066 279.453 146.467 280.143C146.921 280.919 146.999 281.792 147.113 282.655C147.322 284.235 147.278 285.823 147.278 287.402C147.287 289.888 147.287 292.375 147.287 294.862C147.287 294.949 147.278 295.036 147.27 295.115C146.929 295.254 145.498 295.289 144.713 295.176C144.713 294.888 144.704 294.582 144.704 294.286C144.704 291.494 144.722 288.702 144.713 285.91C144.713 284.889 144.67 283.877 144.635 282.856C144.608 282.228 144.417 281.661 143.972 281.198C143.815 281.033 143.64 280.919 143.422 280.876C142.881 280.771 142.323 280.753 141.834 280.98C141.223 281.259 140.743 281.731 140.7 282.463C140.647 283.362 140.604 284.261 140.595 285.168C140.578 288.248 140.586 291.337 140.578 294.417C140.578 294.661 140.578 294.905 140.578 295.193C139.74 295.193 138.92 295.193 138.074 295.193C138.065 295.115 138.056 295.019 138.056 294.923C138.056 291.04 138.056 287.157 138.047 283.266C138.047 282.987 138.004 282.716 138.004 282.437C137.986 281.748 137.594 281.277 137.07 280.893C136.948 280.806 136.782 280.736 136.634 280.718C136.023 280.675 135.404 280.649 134.871 281.015C134.461 281.294 134.208 281.722 134.121 282.202C134.043 282.638 133.99 283.092 133.99 283.545C133.982 286.931 133.982 290.325 133.982 293.71C133.982 294.085 133.99 294.469 133.99 294.844C133.99 294.958 133.973 295.071 133.955 295.211C133.135 295.211 132.341 295.211 131.521 295.211C131.504 294.905 131.469 294.591 131.469 294.268C131.469 289.347 131.469 284.435 131.477 279.514C131.477 279.27 131.512 279.026 131.53 278.747C132.315 278.747 133.065 278.747 133.859 278.747C133.886 279.078 133.903 279.384 133.92 279.715C134.2 279.68 134.365 279.558 134.505 279.384C134.889 278.921 135.395 278.755 135.971 278.616C136.651 278.45 137.288 278.616 137.943 278.686C138.004 278.694 138.056 278.712 138.108 278.738C138.815 279.087 139.496 279.471 139.88 280.212C139.914 280.273 139.958 280.335 140.002 280.396C139.993 280.396 140.002 280.404 140.045 280.439Z" fill="white"/>
<path d="M51.6517 278.738C51.6517 279.218 51.6517 279.645 51.6517 280.151C51.7913 280.073 51.8785 280.038 51.9483 279.977C52.1141 279.837 52.2624 279.68 52.4195 279.532C53.0302 278.921 53.7718 278.659 54.6182 278.668C55.0806 278.668 55.5517 278.677 56.0141 278.668C56.7121 278.659 57.2793 278.974 57.8028 279.375C58.5095 279.933 58.9195 280.692 59.1813 281.547C59.4343 282.394 59.5216 283.24 59.5128 284.13C59.4867 286.425 59.5303 288.728 59.5041 291.023C59.4954 292.07 59.1987 293.073 58.588 293.928C58.1605 294.521 57.5497 294.931 56.8605 295.219C56.0839 295.533 55.2725 295.56 54.4611 295.472C53.8329 295.411 53.2484 295.193 52.7423 294.792C52.7161 294.774 52.6987 294.757 52.6725 294.739C52.3497 294.548 52.0181 294.356 51.8785 293.876C51.7389 294.12 51.7477 294.303 51.7477 294.478C51.7564 295.088 51.7738 295.699 51.7738 296.301C51.7826 297.627 51.7738 298.945 51.7826 300.271C51.7826 300.428 51.8 300.585 51.8087 300.795C50.9886 300.795 50.2034 300.795 49.3658 300.795C49.357 300.716 49.3396 300.611 49.3309 300.498C49.3221 296.467 49.3134 292.419 49.3047 288.379C49.3047 285.395 49.3047 282.411 49.3047 279.436C49.3047 279.209 49.3047 278.974 49.3047 278.738C50.1161 278.738 50.8577 278.738 51.6517 278.738ZM56.9739 287.035H56.9652C56.9652 285.858 56.9739 284.68 56.9564 283.502C56.9564 283.188 56.8954 282.865 56.8343 282.559C56.6772 281.87 56.1886 281.417 55.6739 280.989C55.5866 280.919 55.4645 280.884 55.3511 280.867C55.0719 280.806 54.7665 280.884 54.5222 280.684C54.4873 280.657 54.4088 280.666 54.3564 280.684C54.051 280.762 53.7282 280.823 53.4316 280.937C52.7249 281.19 52.2537 281.713 52.053 282.402C51.8873 282.97 51.8262 283.572 51.8 284.165C51.7564 285.002 51.7913 285.849 51.7913 286.686C51.7913 287.219 51.8175 287.76 51.8175 288.292C51.8262 288.772 51.8087 289.252 51.8175 289.731C51.8175 290.019 51.8262 290.307 51.8524 290.586C51.8698 290.77 51.9134 290.953 51.9571 291.136C52.0269 291.433 52.0356 291.764 52.1926 292.009C52.4718 292.462 52.8383 292.846 53.3443 293.09C53.798 293.317 54.2604 293.352 54.7403 293.317C55.3947 293.274 55.9531 292.942 56.3544 292.471C56.7645 291.982 56.9913 291.372 56.9826 290.7C56.9652 289.47 56.9739 288.248 56.9739 287.035Z" fill="white"/>
<path d="M163.275 273.225C163.563 273.059 163.816 273.041 164.104 273.102C164.296 273.146 164.505 273.111 164.706 273.094C165.038 273.068 165.369 273.007 165.744 273.129C165.771 273.207 165.84 273.312 165.849 273.417C165.867 274.115 165.867 274.813 165.867 275.502C165.867 278.494 165.867 281.496 165.867 284.489C165.867 284.811 165.858 285.125 165.867 285.448C165.867 285.57 165.91 285.701 165.928 285.797C165.989 285.832 166.015 285.85 166.041 285.858C166.599 285.989 166.94 285.745 167.184 285.248C167.559 284.462 167.969 283.695 168.379 282.918C168.545 282.595 168.763 282.299 168.938 281.984C169.295 281.321 169.644 280.65 169.993 279.978C170.212 279.568 170.421 279.158 170.63 278.748C171.564 278.748 172.489 278.748 173.492 278.748C173.187 279.315 172.925 279.829 172.646 280.327C172.236 281.06 171.817 281.793 171.407 282.525C170.84 283.52 170.273 284.515 169.706 285.509C169.505 285.858 169.33 286.225 169.13 286.582C168.999 286.809 168.999 287.019 169.13 287.237C169.4 287.699 169.653 288.17 169.915 288.642C170.587 289.863 171.259 291.085 171.93 292.306C172.384 293.117 172.838 293.929 173.291 294.74C173.361 294.862 173.414 294.993 173.483 295.133C172.986 295.36 172.524 295.194 172.07 295.211C171.608 295.229 171.145 295.211 170.622 295.211C170.543 295.063 170.438 294.897 170.342 294.723C169.906 293.885 169.487 293.039 169.051 292.201C168.406 290.954 167.751 289.706 167.088 288.467C166.8 287.935 166.591 287.874 165.893 288.057C165.84 290.404 165.893 292.768 165.867 295.142C165.404 295.299 164.985 295.203 164.567 295.203C164.165 295.211 163.755 295.203 163.293 295.203C163.284 295.072 163.258 294.95 163.258 294.828C163.258 289.287 163.258 283.747 163.258 278.198C163.258 276.688 163.258 275.17 163.258 273.661C163.258 273.53 163.267 273.382 163.275 273.225Z" fill="white"/>
<path d="M157.749 295.211C157.627 294.862 157.705 294.548 157.714 294.19C157.618 294.216 157.513 294.207 157.444 294.26C157.191 294.425 156.946 294.617 156.702 294.792C155.821 295.429 154.835 295.629 153.771 295.533C153.203 295.481 152.654 295.394 152.139 295.115C151.415 294.722 150.874 294.146 150.525 293.405C149.975 292.262 149.905 291.023 149.897 289.784C149.888 287.76 149.87 285.744 149.897 283.72C149.905 282.69 150.028 281.652 150.499 280.71C151.092 279.532 152.034 278.834 153.36 278.616C154.085 278.494 154.774 278.572 155.472 278.686C156.013 278.773 156.475 279.052 156.885 279.41C157.103 279.602 157.278 279.829 157.636 279.933C157.662 279.532 157.679 279.157 157.705 278.747C158.473 278.694 159.224 278.694 160.009 278.747C160.009 284.217 160.009 289.662 160.009 295.158C159.276 295.272 158.526 295.202 157.749 295.211ZM157.548 287.245C157.557 287.245 157.566 287.245 157.575 287.245C157.575 286.067 157.583 284.889 157.575 283.711C157.575 283.397 157.548 283.066 157.479 282.76C157.365 282.211 157.138 281.704 156.72 281.312C156.152 280.78 155.463 280.649 154.704 280.701C153.762 280.771 153.151 281.251 152.741 282.062C152.427 282.682 152.401 283.345 152.357 284.008C152.322 284.444 152.348 284.88 152.348 285.317C152.34 286.861 152.322 288.396 152.34 289.941C152.348 290.351 152.488 290.761 152.514 291.18C152.593 292.139 153.134 292.741 153.945 293.16C154.346 293.361 154.765 293.3 155.184 293.326C155.725 293.37 156.152 293.125 156.536 292.82C157.182 292.288 157.531 291.572 157.54 290.726C157.557 289.574 157.548 288.405 157.548 287.245Z" fill="white"/>
<path d="M104.79 287.883C104.528 287.891 104.31 287.909 104.1 287.909C101.963 287.917 99.825 287.917 97.6874 287.926C97.5129 287.926 97.3472 287.944 97.1378 287.952C97.1291 288.127 97.1116 288.266 97.1116 288.406C97.1116 289.13 97.1203 289.863 97.129 290.587C97.1378 291.381 97.4519 292.07 97.9579 292.646C98.3069 293.039 98.7693 293.301 99.3277 293.309C99.4324 293.309 99.5371 293.309 99.6331 293.327C100.261 293.44 100.802 293.187 101.317 292.873C101.884 292.524 102.137 291.948 102.277 291.329C102.347 291.032 102.355 290.727 102.399 290.404C103.202 290.404 103.978 290.404 104.737 290.404C104.885 290.692 104.833 290.954 104.79 291.207C104.728 291.591 104.65 291.983 104.545 292.358C104.31 293.205 103.83 293.911 103.141 294.452C101.989 295.351 100.663 295.587 99.2405 295.517C98.5512 295.482 97.8881 295.316 97.2686 295.037C96.5358 294.714 95.9512 294.191 95.5411 293.501C95.2794 293.056 95.0874 292.568 94.8606 292.097C94.8431 292.062 94.8344 292.009 94.8257 291.966C94.7995 291.372 94.625 290.805 94.625 290.195C94.6512 287.97 94.6337 285.745 94.6337 283.52C94.6337 282.316 94.9653 281.217 95.672 280.248C96.2653 279.446 97.068 278.905 98.0626 278.695C98.813 278.538 99.572 278.425 100.349 278.521C101.692 278.678 102.844 279.184 103.699 280.248C104.153 280.807 104.449 281.452 104.598 282.159C104.685 282.569 104.755 282.988 104.824 283.398C104.842 283.485 104.859 283.572 104.851 283.66C104.842 284.925 104.824 286.19 104.807 287.455C104.833 287.586 104.807 287.699 104.79 287.883ZM102.285 285.98C102.303 285.727 102.338 285.474 102.338 285.213C102.338 284.776 102.32 284.34 102.32 283.904C102.329 283.45 102.259 283.014 102.146 282.569C101.98 281.906 101.587 281.417 101.038 281.077C100.514 280.746 99.9385 280.562 99.3016 280.772C99.1532 280.824 98.9875 280.833 98.8304 280.859C98.5338 280.911 98.2895 281.051 98.0539 281.234C97.4519 281.723 97.1639 282.377 97.1203 283.127C97.0767 283.878 97.0942 284.637 97.0942 285.396C97.0942 285.579 97.1203 285.762 97.1465 285.98C98.8653 285.98 100.54 285.98 102.285 285.98Z" fill="white"/>
<path d="M184.67 287.935C183.37 287.935 182.087 287.926 180.813 287.935C179.557 287.943 178.292 287.9 177 287.943C177 288.432 177 288.877 177 289.331C177 289.784 176.992 290.247 176.983 290.701C176.983 290.735 177.009 290.77 177.018 290.805C177.088 291.111 177.157 291.416 177.219 291.73C177.253 291.922 177.332 292.079 177.489 292.21C177.707 292.376 177.698 292.716 177.986 292.847C178.231 292.96 178.449 293.126 178.789 293.335C179.199 293.335 179.74 293.388 180.264 293.318C180.752 293.257 181.18 292.96 181.529 292.603C181.921 292.21 182.148 291.739 182.139 291.163C182.139 290.91 182.192 290.648 182.227 290.413C183.029 290.465 183.788 290.474 184.582 290.369C184.766 290.884 184.67 291.355 184.539 291.835C184.504 291.957 184.443 292.079 184.417 292.201C184.076 293.842 182.986 294.758 181.485 295.29C180.368 295.682 179.217 295.674 178.091 295.421C176.887 295.15 175.927 294.47 175.308 293.37C174.802 292.48 174.531 291.538 174.531 290.509C174.54 288.266 174.531 286.033 174.54 283.79C174.54 283.546 174.549 283.293 174.557 283.049C174.584 281.81 175.063 280.754 175.919 279.89C176.564 279.236 177.358 278.782 178.309 278.651C179.251 278.529 180.185 278.521 181.127 278.704C181.241 278.721 181.354 278.765 181.459 278.808C182.541 279.236 183.448 279.864 183.989 280.946C184.155 281.278 184.286 281.6 184.39 281.949C184.547 282.525 184.713 283.092 184.722 283.694C184.731 284.279 184.722 284.855 184.722 285.439C184.722 286.198 184.722 286.949 184.722 287.708C184.713 287.734 184.696 287.795 184.67 287.935ZM182.174 285.998C182.174 285.544 182.174 285.151 182.174 284.768C182.174 284.576 182.157 284.392 182.148 284.2C182.122 283.721 182.157 283.241 182.061 282.778C181.878 281.845 181.337 281.19 180.421 280.868C180.176 280.78 179.897 280.841 179.679 280.667C179.627 280.623 179.487 280.632 179.426 280.676C179.138 280.868 178.815 280.902 178.484 280.902C178.414 280.902 178.335 280.929 178.274 280.964C177.821 281.269 177.402 281.6 177.227 282.141C177.079 282.586 176.974 283.031 176.983 283.502C177 284.209 176.983 284.925 176.992 285.631C176.992 285.736 177.027 285.849 177.061 285.998C178.772 285.998 180.438 285.998 182.174 285.998Z" fill="white"/>
<path d="M69.8828 287.071C69.8828 285.779 69.8828 284.479 69.8828 283.188C69.8828 282.455 70.1533 281.801 70.4238 281.138C70.5285 280.876 70.6942 280.623 70.8775 280.396C71.7499 279.27 72.8929 278.677 74.3238 278.651C74.76 278.642 75.1963 278.66 75.6325 278.651C76.252 278.634 76.8453 278.764 77.395 279.061C78.4071 279.602 79.1661 280.37 79.6198 281.469C80.0212 282.446 80.0735 283.45 80.091 284.462C80.1259 286.163 80.1084 287.864 80.0997 289.566C80.0997 290.133 80.0561 290.7 80.0212 291.258C80.0124 291.416 79.9514 291.573 79.9077 291.721C79.803 292.052 79.7071 292.393 79.5762 292.707C79.2621 293.448 78.8608 294.146 78.154 294.583C77.648 294.897 77.1158 295.202 76.5574 295.368C75.9554 295.551 75.3097 295.63 74.6641 295.542C74.507 295.516 74.35 295.507 74.1842 295.499C73.111 295.446 72.1862 295.01 71.3922 294.312C70.9124 293.893 70.6244 293.326 70.3627 292.759C70.0399 292.052 69.8741 291.311 69.9003 290.517C69.9352 289.365 69.909 288.222 69.909 287.071C69.8915 287.071 69.8915 287.071 69.8828 287.071ZM77.4909 287.044C77.4822 285.753 77.4909 284.453 77.4822 283.162C77.4735 282.403 77.1419 281.792 76.5312 281.347C76.1124 281.042 75.65 280.893 75.1178 280.867C74.3761 280.832 73.748 280.989 73.1896 281.478C72.7882 281.827 72.509 282.237 72.4567 282.769C72.3956 283.336 72.3432 283.895 72.3345 284.462C72.3171 285.579 72.3258 286.704 72.3171 287.821C72.3083 288.955 72.3171 290.081 72.4479 291.215C72.5352 291.948 72.9104 292.445 73.4949 292.829C74.0097 293.178 74.5855 293.23 75.1963 293.222C76.5399 293.187 77.5258 291.939 77.4997 290.796C77.4648 289.548 77.4909 288.301 77.4909 287.044Z" fill="white"/>
<path d="M128.803 283.511C127.931 283.563 127.11 283.572 126.264 283.511C126.264 283.371 126.255 283.258 126.264 283.144C126.334 282.464 126.055 281.905 125.584 281.469C124.65 280.623 123.367 280.57 122.294 281.242C121.396 281.801 121.3 283.144 121.727 283.834C122.12 284.47 122.687 284.881 123.315 285.212C123.978 285.561 124.685 285.84 125.357 286.181C126.221 286.625 127.093 287.07 127.747 287.83C128.184 288.336 128.533 288.911 128.664 289.583C128.681 289.653 128.698 289.723 128.725 289.793C128.951 290.412 128.986 291.04 128.803 291.677C128.69 292.07 128.637 292.471 128.489 292.846C128.018 294.05 127.137 294.809 125.924 295.22C124.746 295.612 123.551 295.656 122.355 295.394C121.317 295.167 120.384 294.713 119.712 293.824C119.11 293.021 118.778 292.122 118.691 291.128C118.682 290.979 118.691 290.84 118.708 290.691C118.717 290.622 118.743 290.552 118.769 290.456C119.529 290.281 120.296 290.464 121.09 290.316C121.125 290.595 121.16 290.822 121.186 291.049C121.291 292.035 121.823 292.707 122.696 293.126C122.914 293.23 123.167 293.265 123.402 293.309C123.586 293.335 123.786 293.3 123.969 293.326C124.851 293.448 126.046 292.62 126.325 291.599C126.456 291.119 126.439 290.622 126.221 290.15C125.941 289.557 125.479 289.121 124.964 288.728C124.301 288.222 123.533 287.908 122.783 287.559C121.814 287.114 120.907 286.591 120.131 285.849C119.755 285.491 119.476 285.046 119.31 284.575C118.874 283.293 118.883 282.01 119.502 280.762C120.104 279.576 121.09 278.921 122.373 278.642C123.001 278.503 123.647 278.45 124.275 278.52C125.13 278.607 126.011 278.712 126.744 279.235C127.494 279.768 128.096 280.431 128.402 281.312C128.655 282.01 128.637 282.752 128.803 283.511Z" fill="white"/>
<path d="M116.834 283.485C115.996 283.607 115.22 283.537 114.417 283.581C114.382 283.319 114.356 283.109 114.338 282.891C114.269 282.089 113.832 281.504 113.195 281.076C112.969 280.928 112.654 280.893 112.367 280.841C111.634 280.701 110.953 280.815 110.334 281.26C109.775 281.661 109.444 282.211 109.47 282.883C109.496 283.476 109.749 284.026 110.22 284.401C110.622 284.732 111.066 285.02 111.52 285.264C112.384 285.727 113.291 286.137 114.155 286.599C114.574 286.826 114.967 287.114 115.342 287.402C115.996 287.899 116.415 288.562 116.659 289.348C116.912 290.15 117.026 290.953 116.851 291.791C116.467 293.728 114.984 295.124 113.152 295.42C112.157 295.577 111.171 295.551 110.203 295.368C109.365 295.202 108.65 294.74 108.039 294.138C107.306 293.405 106.852 292.532 106.8 291.477C106.783 291.119 106.73 290.761 106.695 290.369C107.542 290.43 108.327 290.316 109.164 290.412C109.217 290.639 109.295 290.831 109.287 291.023C109.278 291.616 109.513 292.131 109.897 292.524C110.307 292.951 110.831 293.265 111.459 293.3C112.087 293.335 112.698 293.3 113.274 292.977C114.277 292.419 114.853 291.005 114.077 289.819C113.693 289.234 113.195 288.798 112.593 288.449C111.677 287.908 110.7 287.507 109.766 287.009C108.754 286.477 107.934 285.736 107.402 284.706C107.332 284.575 107.28 284.444 107.245 284.296C107.044 283.345 106.992 282.385 107.262 281.443C107.542 280.457 108.117 279.681 109.034 279.166C109.81 278.729 110.639 278.538 111.529 278.503C112.332 278.476 113.134 278.538 113.885 278.791C115.228 279.244 116.11 280.213 116.52 281.548C116.712 282.167 116.729 282.804 116.834 283.485Z" fill="white"/>
<path d="M90.1492 284.069C90.0881 283.859 90.0183 283.659 89.9834 283.449C89.9136 283.091 89.8787 282.734 89.8089 282.376C89.7828 282.236 89.7217 282.088 89.6344 281.983C89.4425 281.765 89.2418 281.556 89.015 281.373C88.1774 280.727 87.2613 280.701 86.3103 281.093C86.1881 281.146 86.066 281.189 85.9525 281.251C85.8478 281.303 85.7257 281.347 85.6646 281.434C85.272 281.975 84.8881 282.498 84.8968 283.231C84.923 285.735 84.9055 288.23 84.9055 290.735C84.9055 290.926 84.8968 291.118 84.9404 291.302C85.1237 292.017 85.4988 292.575 86.1707 292.942C86.7552 293.256 87.3834 293.3 87.9942 293.195C88.5351 293.099 89.1022 292.916 89.3989 292.349C89.4338 292.27 89.5123 292.218 89.5734 292.157C89.7915 291.939 89.8962 291.686 89.9049 291.38C89.9311 290.918 89.9573 290.455 90.2452 289.975C90.9519 289.897 91.711 290.054 92.4526 289.941C92.6009 290.281 92.5573 290.586 92.5224 290.883C92.4177 291.782 92.217 292.663 91.7284 293.439C91.1788 294.312 90.4197 294.922 89.4163 295.254C88.2385 295.647 87.0431 295.62 85.8478 295.411C85.5686 295.367 85.3069 295.21 85.0451 295.088C84.2773 294.739 83.6753 294.198 83.2129 293.474C82.6632 292.61 82.4015 291.668 82.3928 290.673C82.3666 288.292 82.4015 285.901 82.3753 283.519C82.3666 282.734 82.5411 282.001 82.8465 281.32C83.2827 280.361 83.9109 279.532 84.9317 279.069C85.4552 278.834 85.9874 278.659 86.5545 278.624C86.6941 278.616 86.8425 278.581 86.9821 278.555C87.3136 278.493 87.6364 278.459 87.9593 278.589C88.0901 278.642 88.2472 278.668 88.3868 278.651C89.1284 278.572 89.7479 278.895 90.3324 279.287C91.3184 279.951 92.0163 280.84 92.2781 282.018C92.3828 282.489 92.47 282.961 92.5486 283.432C92.5747 283.624 92.5398 283.833 92.5311 284.069C91.7371 284.069 90.9955 284.069 90.1492 284.069Z" fill="white"/>
<path d="M187.574 278.747C188.325 278.747 189.066 278.747 189.843 278.747C189.878 279.061 189.904 279.34 189.93 279.611C189.886 279.794 189.843 279.977 189.799 280.161C189.825 280.169 189.852 280.178 189.869 280.187C189.982 280.056 190.087 279.925 190.201 279.794C190.392 279.585 190.593 279.367 190.803 279.166C191.335 278.642 192.033 278.634 192.705 278.546C192.975 278.512 193.254 278.512 193.577 278.485C193.621 278.66 193.699 278.852 193.699 279.044C193.69 279.637 193.656 280.23 193.629 280.832C193.629 280.92 193.603 280.998 193.577 281.129C193.437 281.103 193.324 281.077 193.202 281.05C193.106 281.024 193.001 280.972 192.914 280.981C192.26 281.068 191.631 281.234 191.134 281.705C190.419 282.368 190.174 283.24 190.078 284.157C190.017 284.75 190.043 285.343 190.043 285.945C190.043 288.885 190.043 291.817 190.043 294.757C190.043 294.888 190.035 295.01 190.026 295.15C189.598 295.298 189.197 295.194 188.796 295.202C188.394 295.211 187.993 295.202 187.583 295.202C187.478 294.783 187.47 279.218 187.574 278.747Z" fill="white"/>
<path d="M65.032 295.158C64.9011 295.202 64.8487 295.228 64.7964 295.228C64.0897 295.228 63.3742 295.228 62.6762 295.228C62.5715 294.879 62.5366 279.358 62.6413 278.729C63.3742 278.677 64.1246 278.747 64.9098 278.712C64.9273 279.166 64.9534 279.593 64.9796 280.117C65.1279 280.003 65.2326 279.968 65.2588 279.899C65.4595 279.349 65.9655 279.113 66.3843 278.791C66.4192 278.764 66.4629 278.747 66.5065 278.738C67.126 278.66 67.7454 278.572 68.3649 278.503C68.4783 278.494 68.5917 278.537 68.7488 278.564C68.7488 279.384 68.7488 280.178 68.7488 281.024C68.2078 280.954 67.6669 281.015 67.1347 281.181C66.1662 281.487 65.6078 282.167 65.3548 283.101C65.1105 283.982 65.0232 284.889 65.032 285.814C65.0581 288.414 65.032 291.023 65.032 293.623C65.032 293.989 65.0407 294.347 65.0407 294.713C65.0407 294.853 65.032 294.993 65.032 295.158Z" fill="white"/>
</g>
<path d="M133.371 301.413C134.469 301.413 135.432 301.598 136.261 301.969C137.099 302.341 137.743 302.872 138.192 303.562C138.651 304.245 138.88 305.039 138.88 305.945C138.88 306.852 138.651 307.646 138.192 308.328C137.743 309.002 137.099 309.524 136.261 309.896C135.432 310.267 134.469 310.452 133.371 310.452H129.719V301.413H133.371ZM133.297 308.911C134.394 308.911 135.243 308.652 135.842 308.134C136.44 307.616 136.74 306.887 136.74 305.945C136.74 305.004 136.44 304.27 135.842 303.744C135.243 303.208 134.394 302.941 133.297 302.941H131.815V308.911H133.297Z" fill="#EE9F82"/>
<path d="M143.833 310.569C143.034 310.569 142.316 310.418 141.677 310.116C141.038 309.805 140.534 309.369 140.165 308.808C139.806 308.246 139.626 307.599 139.626 306.865C139.626 306.131 139.811 305.484 140.18 304.922C140.559 304.361 141.073 303.929 141.722 303.627C142.37 303.316 143.094 303.161 143.892 303.161C144.691 303.161 145.414 303.316 146.063 303.627C146.712 303.929 147.221 304.361 147.59 304.922C147.969 305.484 148.159 306.131 148.159 306.865C148.159 307.599 147.964 308.246 147.575 308.808C147.196 309.369 146.677 309.805 146.018 310.116C145.369 310.418 144.641 310.569 143.833 310.569ZM143.833 308.989C144.212 308.989 144.566 308.911 144.895 308.756C145.235 308.592 145.504 308.35 145.704 308.031C145.903 307.711 146.003 307.323 146.003 306.865C146.003 306.183 145.794 305.661 145.374 305.298C144.965 304.927 144.461 304.741 143.862 304.741C143.264 304.741 142.76 304.927 142.35 305.298C141.951 305.661 141.752 306.183 141.752 306.865C141.752 307.547 141.946 308.074 142.336 308.445C142.735 308.808 143.234 308.989 143.833 308.989Z" fill="#EE9F82"/>
<path d="M162.964 303.174C163.982 303.174 164.8 303.446 165.419 303.99C166.048 304.525 166.362 305.276 166.362 306.243V310.452H164.266V306.489C164.266 305.928 164.102 305.501 163.772 305.207C163.443 304.905 162.994 304.754 162.425 304.754C161.856 304.754 161.402 304.905 161.063 305.207C160.733 305.501 160.569 305.928 160.569 306.489V310.452H158.473V306.489C158.473 305.928 158.308 305.501 157.979 305.207C157.65 304.905 157.2 304.754 156.632 304.754C156.053 304.754 155.594 304.905 155.254 305.207C154.925 305.501 154.76 305.928 154.76 306.489V310.452H152.665V303.278H154.76V304.145C155.03 303.843 155.374 303.606 155.793 303.433C156.222 303.26 156.691 303.174 157.2 303.174C157.849 303.174 158.428 303.295 158.937 303.537C159.446 303.77 159.84 304.106 160.12 304.547C160.389 304.132 160.778 303.8 161.287 303.55C161.806 303.299 162.365 303.174 162.964 303.174Z" fill="#EE9F82"/>
<path d="M171.734 310.569C170.936 310.569 170.217 310.418 169.579 310.116C168.94 309.805 168.436 309.369 168.067 308.808C167.707 308.246 167.528 307.599 167.528 306.865C167.528 306.131 167.712 305.484 168.082 304.922C168.461 304.361 168.975 303.929 169.623 303.627C170.272 303.316 170.996 303.161 171.794 303.161C172.593 303.161 173.316 303.316 173.965 303.627C174.613 303.929 175.122 304.361 175.492 304.922C175.871 305.484 176.061 306.131 176.061 306.865C176.061 307.599 175.866 308.246 175.477 308.808C175.098 309.369 174.579 309.805 173.92 310.116C173.271 310.418 172.543 310.569 171.734 310.569ZM171.734 308.989C172.113 308.989 172.468 308.911 172.797 308.756C173.136 308.592 173.406 308.35 173.605 308.031C173.805 307.711 173.905 307.323 173.905 306.865C173.905 306.183 173.695 305.661 173.276 305.298C172.867 304.927 172.363 304.741 171.764 304.741C171.165 304.741 170.661 304.927 170.252 305.298C169.853 305.661 169.653 306.183 169.653 306.865C169.653 307.547 169.848 308.074 170.237 308.445C170.636 308.808 171.135 308.989 171.734 308.989Z" fill="#EE9F82"/>
<path d="M179.394 304.391C179.664 304.011 180.013 303.714 180.442 303.498C180.881 303.282 181.38 303.174 181.939 303.174V305.078H181.385C180.727 305.078 180.228 305.212 179.888 305.479C179.559 305.747 179.394 306.213 179.394 306.878V310.452H177.299V303.278H179.394V304.391Z" fill="#EE9F82"/>
<path d="M190.761 306.71C190.761 306.969 190.741 307.202 190.701 307.409H184.638C184.688 307.927 184.898 308.333 185.267 308.626C185.636 308.92 186.09 309.067 186.629 309.067C187.408 309.067 187.962 308.777 188.291 308.199H190.552C190.312 308.89 189.853 309.459 189.174 309.908C188.496 310.349 187.662 310.569 186.674 310.569C185.876 310.569 185.157 310.418 184.519 310.116C183.89 309.805 183.396 309.369 183.037 308.808C182.687 308.246 182.513 307.599 182.513 306.865C182.513 306.122 182.687 305.471 183.037 304.909C183.386 304.348 183.875 303.916 184.504 303.614C185.132 303.312 185.856 303.161 186.674 303.161C187.463 303.161 188.166 303.308 188.785 303.601C189.414 303.895 189.898 304.314 190.237 304.858C190.586 305.393 190.761 306.01 190.761 306.71ZM188.59 306.192C188.58 305.725 188.386 305.354 188.007 305.078C187.627 304.793 187.163 304.65 186.614 304.65C186.095 304.65 185.656 304.788 185.297 305.065C184.948 305.332 184.733 305.708 184.653 306.192H188.59Z" fill="#EE9F82"/>
<defs>
<linearGradient id="paint0_linear_151_9784" x1="35.6291" y1="274.822" x2="3.04217" y2="274.822" gradientUnits="userSpaceOnUse">
<stop stop-color="#323790"/>
<stop offset="0.47" stop-color="#33A7EE"/>
<stop offset="0.89" stop-color="#3BEBF4"/>
</linearGradient>
<linearGradient id="paint1_linear_151_9784" x1="7.3636" y1="263.607" x2="7.3636" y2="316.183" gradientUnits="userSpaceOnUse">
<stop stop-color="#323790"/>
<stop offset="0.47" stop-color="#33A7EE"/>
<stop offset="0.89" stop-color="#3BEBF4"/>
</linearGradient>
<linearGradient id="paint2_linear_151_9784" x1="31.4771" y1="302.702" x2="30.8624" y2="273.799" gradientUnits="userSpaceOnUse">
<stop stop-color="#323790"/>
<stop offset="0.47" stop-color="#33A7EE"/>
<stop offset="0.89" stop-color="#3BEBF4"/>
</linearGradient>
<linearGradient id="paint3_linear_151_9784" x1="-16.0245" y1="299.655" x2="53.1454" y2="298.426" gradientUnits="userSpaceOnUse">
<stop stop-color="#323790"/>
<stop offset="0.47" stop-color="#33A7EE"/>
<stop offset="0.89" stop-color="#3BEBF4"/>
</linearGradient>
<clipPath id="clip0_151_9784">
<rect width="38.4905" height="45.7818" fill="white" transform="translate(0 267.458)"/>
</clipPath>
<clipPath id="clip1_151_9784">
<rect width="144.389" height="27.754" fill="white" transform="translate(49.3047 273.05)"/>
</clipPath>
</defs>
</svg>
