<svg width="17" height="15" viewBox="0 0 17 15" fill="none" xmlns="http://www.w3.org/2000/svg">
<path d="M8.32553 2.62474C6.04805 2.62474 3.7712 2.62791 1.49372 2.62284C0.640617 2.62094 0.120647 1.9002 0.386015 1.10156C0.537383 0.645561 0.874952 0.416293 1.34109 0.358659C1.38795 0.352959 1.43609 0.353593 1.48359 0.353593C6.03792 0.353593 10.5922 0.351693 15.1466 0.354859C15.968 0.354859 16.4614 0.993897 16.2783 1.79444C16.1612 2.30681 15.7305 2.62221 15.1282 2.62347C13.2991 2.62601 11.4694 2.62474 9.64034 2.62474C9.20207 2.62474 8.7638 2.62474 8.32553 2.62474Z" fill="#6A7888"/>
<path d="M6.01702 8.34124C4.51157 8.34124 3.00677 8.34441 1.50132 8.33998C0.791351 8.33808 0.332182 7.89221 0.328382 7.21834C0.324582 6.54763 0.769184 6.08276 1.44686 6.07263C2.18026 6.06186 2.91366 6.06946 3.6477 6.06946C5.95305 6.06946 8.2584 6.06693 10.5637 6.07136C11.3884 6.07263 11.883 6.7028 11.7044 7.50334C11.5898 8.01887 11.1604 8.33871 10.5606 8.33998C9.04564 8.34314 7.53133 8.34124 6.01638 8.34124H6.01702Z" fill="#6A7888"/>
<path d="M3.775 11.7866C4.50841 11.7866 5.24181 11.7834 5.97458 11.7872C6.69342 11.791 7.16969 12.2483 7.16842 12.9234C7.16716 13.5992 6.69152 14.0546 5.97078 14.0565C4.48497 14.0596 2.9998 14.0603 1.51399 14.0565C0.787551 14.0546 0.327115 13.6081 0.327748 12.9203C0.327748 12.2344 0.790085 11.791 1.51779 11.7872C2.27019 11.7834 3.0226 11.7866 3.775 11.7866Z" fill="#6A7888"/>
</svg>
