<svg width="178" height="99" viewBox="0 0 178 99" fill="none" xmlns="http://www.w3.org/2000/svg">
<g id="Frame 2692" clip-path="url(#clip0_1758_287408)">
<g id="Group">
<g id="Group_2">
<path id="Vector" d="M84.8901 81.9579L85.9922 83.9787L82.8068 97.3559L21.35 97.1357C20.8965 97.1345 20.4477 97.0439 20.0292 96.8692C19.6107 96.6945 19.2308 96.4391 18.9111 96.1175C18.5913 95.7959 18.3381 95.4144 18.1658 94.9949C17.9936 94.5755 17.9056 94.1261 17.9071 93.6726L18.2288 3.94378C18.2295 3.49054 18.3197 3.0419 18.4942 2.62364C18.6688 2.20538 18.9244 1.82575 19.2462 1.50657C19.568 1.1874 19.9497 0.934978 20.3693 0.763815C20.789 0.592651 21.2384 0.506125 21.6916 0.509208L87.1537 0.73552L82.444 9.76406C82.444 9.76406 85.54 20.2824 86.1997 22.0215L77.487 41.0922L88.3935 57.4167L80.5161 73.8915L84.8901 81.9579Z" fill="#699CFF"/>
<path id="Vector_2" d="M80.3005 58.3531L29.4774 58.1734C29.3227 58.1728 29.1969 58.2977 29.1964 58.4524L29.1699 65.9397C29.1694 66.0943 29.2943 66.2201 29.4489 66.2207L80.2721 66.4004C80.4267 66.401 80.5525 66.276 80.553 66.1214L80.5795 58.6341C80.5801 58.4795 80.4552 58.3537 80.3005 58.3531Z" fill="white"/>
<path id="Vector_3" d="M80.5161 73.8917L84.8896 81.958L30.84 81.763C30.3825 81.7603 29.9446 81.5767 29.622 81.2523C29.2995 80.9278 29.1184 80.4889 29.1184 80.0314L29.1376 75.4388C29.1375 75.2118 29.1823 74.9871 29.2694 74.7775C29.3565 74.5679 29.4842 74.3777 29.6452 74.2176C29.8061 74.0576 29.9971 73.931 30.2072 73.8451C30.4173 73.7592 30.6423 73.7158 30.8693 73.7172L80.5161 73.8917Z" fill="white"/>
</g>
<g id="Group_3">
<path id="Vector_4" d="M154.401 3.655L154.826 93.3747C154.828 94.2898 154.468 95.1684 153.824 95.8189C153.181 96.4693 152.306 96.8386 151.391 96.8461L80.525 97.1807L84.6363 84.3403L83.0774 81.7656L78.2148 73.742L78.2146 73.7334L86.3836 57.5503L74.6794 40.2471L83.4611 21.7495L79.1528 8.2354L84.75 0.526438L150.938 0.21157C151.853 0.210248 152.732 0.57199 153.381 1.21749C154.03 1.86298 154.397 2.73955 154.401 3.655Z" fill="#699CFF"/>
<path id="Vector_5" d="M140.196 8.89704L127.3 8.95759C124.207 8.97211 121.712 11.4911 121.726 14.5838L121.787 27.4796C121.801 30.5724 124.32 33.0678 127.413 33.0533L140.309 32.9927C143.402 32.9782 145.897 30.4593 145.883 27.3665L145.822 14.4707C145.808 11.3779 143.289 8.88252 140.196 8.89704Z" fill="white"/>
<path id="Vector_6" d="M93.2534 75.3932L93.2806 79.9857C93.2818 80.4434 93.1017 80.8828 92.7798 81.2081C92.4579 81.5334 92.0204 81.718 91.5628 81.7216L83.0769 81.7653L78.2144 73.7417L91.5258 73.6759C91.7524 73.674 91.977 73.7171 92.1868 73.8026C92.3966 73.8881 92.5873 74.0143 92.748 74.174C92.9087 74.3337 93.036 74.5237 93.1228 74.733C93.2096 74.9422 93.254 75.1666 93.2534 75.3932Z" fill="white"/>
</g>
</g>
</g>
<defs>
<clipPath id="clip0_1758_287408">
<rect width="178" height="99" fill="white"/>
</clipPath>
</defs>
</svg>
