<svg xmlns="http://www.w3.org/2000/svg" width="20" height="20" viewBox="0 0 20 20" fill="none">
<path d="M1.66602 2.85649C1.66602 2.54076 1.79144 2.23796 2.0147 2.0147C2.23796 1.79144 2.54076 1.66602 2.85649 1.66602H17.1422C17.4579 1.66602 17.7607 1.79144 17.984 2.0147C18.2073 2.23796 18.3327 2.54076 18.3327 2.85649V5.23744C18.3327 5.55318 18.2073 5.85598 17.984 6.07924C17.7607 6.3025 17.4579 6.42792 17.1422 6.42792H2.85649C2.54076 6.42792 2.23796 6.3025 2.0147 6.07924C1.79144 5.85598 1.66602 5.55318 1.66602 5.23744V2.85649ZM1.66602 9.99935C1.66602 9.68361 1.79144 9.38081 2.0147 9.15756C2.23796 8.9343 2.54076 8.80887 2.85649 8.80887H9.99935C10.3151 8.80887 10.6179 8.9343 10.8411 9.15756C11.0644 9.38081 11.1898 9.68361 11.1898 9.99935V17.1422C11.1898 17.4579 11.0644 17.7607 10.8411 17.984C10.6179 18.2073 10.3151 18.3327 9.99935 18.3327H2.85649C2.54076 18.3327 2.23796 18.2073 2.0147 17.984C1.79144 17.7607 1.66602 17.4579 1.66602 17.1422V9.99935ZM14.7613 8.80887C14.4455 8.80887 14.1427 8.9343 13.9195 9.15756C13.6962 9.38081 13.5708 9.68361 13.5708 9.99935V17.1422C13.5708 17.4579 13.6962 17.7607 13.9195 17.984C14.1427 18.2073 14.4455 18.3327 14.7613 18.3327H17.1422C17.4579 18.3327 17.7607 18.2073 17.984 17.984C18.2073 17.7607 18.3327 17.4579 18.3327 17.1422V9.99935C18.3327 9.68361 18.2073 9.38081 17.984 9.15756C17.7607 8.9343 17.4579 8.80887 17.1422 8.80887H14.7613Z" fill="#6A7888"/>
</svg>