<svg width="20" height="20" viewBox="0 0 20 20" fill="none" xmlns="http://www.w3.org/2000/svg">
  <path d="M12.5 15.9396C13.1941 16.1417 13.9281 16.25 14.6875 16.25C15.9198 16.25 17.0854 15.9647 18.122 15.4565C18.124 15.4088 18.125 15.3607 18.125 15.3125C18.125 13.414 16.5859 11.875 14.6875 11.875C13.5058 11.875 12.4633 12.4713 11.8446 13.3793M12.5 15.9396V15.9375C12.5 15.0101 12.2624 14.1382 11.8446 13.3793M12.5 15.9396C12.5 15.9693 12.4997 15.999 12.4992 16.0286C10.9478 16.9627 9.1304 17.5 7.1875 17.5C5.2446 17.5 3.4272 16.9627 1.87577 16.0286C1.87526 15.9983 1.875 15.9679 1.875 15.9375C1.875 13.0035 4.25349 10.625 7.1875 10.625C9.1941 10.625 10.9409 11.7375 11.8446 13.3793M10 5.3125C10 6.8658 8.7408 8.125 7.1875 8.125C5.6342 8.125 4.375 6.8658 4.375 5.3125C4.375 3.7592 5.6342 2.5 7.1875 2.5C8.7408 2.5 10 3.7592 10 5.3125ZM16.875 7.1875C16.875 8.39562 15.8956 9.375 14.6875 9.375C13.4794 9.375 12.5 8.39562 12.5 7.1875C12.5 5.97938 13.4794 5 14.6875 5C15.8956 5 16.875 5.97938 16.875 7.1875Z" stroke="#596372" stroke-width="1.25" stroke-linecap="round" stroke-linejoin="round"/>
</svg>
