<svg width="185" height="185" viewBox="0 0 185 185" fill="none" xmlns="http://www.w3.org/2000/svg">
<circle cx="92.5" cy="92.5" r="92.5" fill="#DDEAFF"/>
<mask id="mask0_2729_286522" style="mask-type:alpha" maskUnits="userSpaceOnUse" x="0" y="0" width="185" height="185">
<circle cx="92.5" cy="92.5" r="92.5" fill="#DDEAFF"/>
</mask>
<g mask="url(#mask0_2729_286522)">
<path d="M131.9 65.5079C131.209 52.459 130.517 39.4101 129.826 26.3612C129.657 23.1801 129.481 19.956 128.502 16.9239C127.522 13.8929 125.628 11.0237 122.801 9.5553C119.974 8.08693 116.147 8.34173 113.973 10.6699L115.509 12.7841C114.246 36.7468 113.709 60.7479 113.897 84.7432C113.911 86.5386 113.969 88.463 115.022 89.9174C116.791 92.3632 120.376 92.3364 123.381 92.063C125.952 91.8291 128.873 91.3986 130.311 89.2531C130.907 88.3653 131.153 87.2937 131.351 86.2442C132.63 79.4306 132.268 72.4297 131.9 65.5079Z" fill="#263238"/>
<path d="M119.48 15.0692C118.654 13.2797 117.267 11.6403 115.391 11.0341C113.515 10.4279 111.154 11.1482 110.338 12.9423L114.762 17.928C115.218 18.6482 115.825 19.2986 116.602 19.6477C117.38 19.9967 118.343 20.0002 119.043 19.5151C119.71 19.0543 120.05 18.2189 120.067 17.4079C120.085 16.5969 119.819 15.8057 119.48 15.0692Z" fill="#4597F8"/>
<path d="M126.918 35.8872C126.157 27.4377 121.69 19.2197 114.534 14.6611C107.38 10.1024 97.5901 9.64395 90.4286 14.1922C85.8757 17.0835 82.6016 21.726 80.719 26.7803C78.8364 31.8346 79.6532 36.0222 79.6963 41.4162C79.7184 44.211 80.0744 51.7239 82.4864 53.1352L120.126 59.8872C124.949 52.906 127.679 44.3367 126.918 35.8872Z" fill="#263238"/>
<path d="M125.589 29.4067C124.744 24.3838 119.838 19.5052 116.015 16.1391C111.652 12.2983 111.038 12.4705 105.226 12.3239C99.0974 12.1692 92.4025 12.1947 87.6205 16.0297C84.9711 18.1555 83.2514 21.219 81.8692 24.3222C78.6776 31.4929 79.1698 39.6806 80.146 47.4681C81.121 55.2567 82.7721 62.6067 89.147 67.1863L115.939 63.036C121.85 60.8463 123.821 54.092 125.493 48.0149C127.166 41.939 126.633 35.6223 125.589 29.4067Z" fill="#263238"/>
<path d="M81.0668 34.4057C81.4415 27.0372 89.2871 19.5883 96.6336 20.2759L120.483 24.5158L120.453 28.4788L120.724 77.9645C111.331 80.0682 102.158 81.554 93.2419 82.3231L93.0301 72.3959C93.0301 72.3959 83.6045 70.9473 81.5066 58.6966C80.4641 52.6044 80.6503 42.5923 81.0668 34.4057Z" fill="#FFBE9D"/>
<path d="M85.5365 44.157C85.5168 44.9889 86.2056 45.6905 87.0736 45.7266C87.9404 45.7627 88.6594 45.1193 88.6792 44.2885C88.699 43.4566 88.0102 42.7538 87.1445 42.7178C86.2754 42.6817 85.5563 43.3263 85.5365 44.157Z" fill="#263238"/>
<path d="M83.7253 39.591C83.9231 39.7934 85.1053 38.8963 86.7994 38.8812C88.4911 38.8416 89.7442 39.6968 89.9257 39.4874C90.0153 39.3943 89.8117 39.0266 89.266 38.6392C88.7285 38.2529 87.8151 37.8829 86.7598 37.8992C85.7045 37.9178 84.8225 38.3169 84.3164 38.7206C83.7998 39.1267 83.6276 39.5002 83.7253 39.591Z" fill="#263238"/>
<path d="M100.608 44.157C100.588 44.9889 101.277 45.6905 102.145 45.7266C103.012 45.7627 103.731 45.1193 103.751 44.2885C103.77 43.4566 103.081 42.7538 102.215 42.7178C101.347 42.6817 100.626 43.3263 100.608 44.157Z" fill="#263238"/>
<path d="M100.374 39.7025C100.572 39.905 101.755 39.0091 103.448 38.9928C105.14 38.9521 106.393 39.8084 106.576 39.599C106.664 39.5059 106.463 39.1382 105.915 38.7508C105.377 38.3645 104.464 37.9945 103.409 38.0108C102.353 38.0294 101.47 38.4285 100.965 38.8322C100.451 39.2394 100.278 39.6118 100.374 39.7025Z" fill="#263238"/>
<path d="M94.3838 52.3391C94.3908 52.2425 93.3355 52.0738 91.6263 51.876C91.1934 51.8365 90.7827 51.7562 90.7059 51.4618C90.6 51.15 90.7757 50.6823 90.9793 50.1761C91.3738 49.1243 91.7857 48.0225 92.2185 46.8671C93.9382 42.156 95.1773 38.2849 94.9877 38.2174C94.7968 38.15 93.2482 41.9128 91.5297 46.6239C91.1166 47.7851 90.7199 48.8928 90.3441 49.9516C90.1858 50.4449 89.9112 51.0057 90.1404 51.6515C90.2614 51.9726 90.5814 52.2041 90.8595 52.2751C91.1376 52.3566 91.3807 52.3577 91.5948 52.3682C93.3134 52.4403 94.3791 52.4357 94.3838 52.3391Z" fill="#263238"/>
<path d="M93.0381 72.4288C93.0381 72.4288 101.72 72.8314 109.842 67.8154C109.842 67.8154 105.8 76.4592 93.0823 75.4889L93.0381 72.4288Z" fill="#EB996E"/>
<path d="M95.1433 56.4114C95.7425 55.5981 96.8048 55.1432 97.8659 55.2444C98.6013 55.3143 99.3482 55.6598 99.802 56.2532C100.256 56.8466 100.359 57.6948 99.9602 58.2708C99.5111 58.9188 98.5582 59.0794 97.7461 58.8595C96.9339 58.6396 96.2323 58.1148 95.5656 57.5936C95.3806 57.4493 95.1921 57.2981 95.0758 57.0979C94.9594 56.899 94.9327 56.636 95.0711 56.4673" fill="#EB996E"/>
<path d="M99.3782 53.45C99.1024 53.4372 99.121 55.2755 97.5631 56.5996C96.0086 57.9272 94.0458 57.7445 94.0341 58.0028C94.0097 58.118 94.4751 58.3542 95.3024 58.367C96.1145 58.3845 97.2955 58.1099 98.2496 57.3001C99.2002 56.4879 99.5992 55.4152 99.6539 54.66C99.7144 53.8898 99.5038 53.4372 99.3782 53.45Z" fill="#263238"/>
<path d="M99.9373 34.9241C100.111 35.3825 101.799 35.144 103.789 35.3592C105.783 35.5349 107.393 36.0969 107.651 35.6815C107.767 35.4826 107.483 35.0532 106.829 34.6146C106.181 34.1771 105.151 33.7664 103.956 33.6477C102.761 33.5314 101.671 33.735 100.952 34.0375C100.226 34.34 99.8628 34.7065 99.9373 34.9241Z" fill="#263238"/>
<path d="M83.7056 33.7794C84.0082 34.1599 85.1705 33.7468 86.5737 33.7119C87.9746 33.627 89.1684 33.9388 89.4372 33.5339C89.5547 33.3372 89.3627 32.9533 88.8391 32.5961C88.3237 32.2389 87.4638 31.9526 86.5004 31.9934C85.537 32.0353 84.7051 32.3948 84.2222 32.7939C83.7301 33.1941 83.5718 33.5932 83.7056 33.7794Z" fill="#263238"/>
<path d="M89.3082 16.8561C84.788 19.9185 81.6616 24.9601 80.1455 30.4856L80.8902 35.0257C81.9478 32.8278 82.0816 30.4728 84.2493 28.2179C85.706 26.703 88.396 25.2777 91.2571 24.5505C99.4355 22.469 102.19 19.4996 105.802 14.1579C100.505 12.8303 93.8285 13.7937 89.3082 16.8561Z" fill="#263238"/>
<path d="M124.617 28.8509C122.339 20.6551 114.896 14.1463 106.469 12.9805L105.803 14.1579C103.733 16.5781 101.663 18.9982 99.593 21.4183C99.0764 22.0222 98.5389 22.6714 98.4225 23.4568C98.2666 24.5086 98.9205 25.5314 99.7431 26.2051C101.713 27.8177 104.473 27.9166 107.017 27.9852C109.562 28.0539 112.343 28.2622 114.198 30.0051C116.506 32.1762 116.456 35.8635 115.68 38.9363C114.904 42.0092 114.6 46.9623 114.918 50.1154C115.203 52.9416 118.937 46.0769 121.394 47.5022C122.079 47.9001 120.233 58.9885 120.948 58.6475C121.65 58.3136 121.585 54.3192 121.816 53.5792C123.076 49.5628 124.34 45.5288 125.011 41.3739C125.683 37.219 125.746 32.9058 124.617 28.8509Z" fill="#263238"/>
<path d="M117.643 50.1699C117.834 47.5007 120.782 45.7799 123.069 47.168C124.325 47.9301 125.266 49.4287 125.088 52.263C124.615 59.8201 117.125 57.7863 117.125 57.5687C117.126 57.4337 117.419 53.2951 117.643 50.1699Z" fill="#FFBE9D"/>
<path d="M119.612 54.8455C119.647 54.8234 119.738 54.9468 119.953 55.0631C120.163 55.1771 120.532 55.2702 120.936 55.1492C121.754 54.9095 122.51 53.6867 122.637 52.3277C122.702 51.6412 122.602 50.9768 122.394 50.4183C122.201 49.8505 121.868 49.4398 121.471 49.3421C121.078 49.2234 120.777 49.4445 120.671 49.6516C120.556 49.8564 120.594 50.0099 120.552 50.0204C120.53 50.0379 120.398 49.8831 120.48 49.5748C120.521 49.427 120.622 49.2548 120.809 49.121C121 48.9849 121.272 48.9279 121.55 48.9767C122.13 49.0559 122.62 49.6271 122.848 50.2392C123.108 50.857 123.237 51.6051 123.164 52.3754C123.015 53.8949 122.14 55.2679 121.027 55.5099C120.486 55.6135 120.053 55.4238 119.836 55.2307C119.613 55.0282 119.585 54.8572 119.612 54.8455Z" fill="#EB996E"/>
<path d="M119.558 18.9314C119.558 18.9314 120.775 20.2543 122.249 22.7442C123.002 23.9776 123.75 25.5332 124.463 27.3053C125.167 29.0831 125.744 31.1135 126.148 33.2811C126.967 37.6338 126.631 41.6945 126.026 44.5091C125.969 44.8663 125.875 45.1979 125.786 45.5109C125.7 45.8239 125.62 46.1194 125.543 46.3975C125.407 46.956 125.22 47.4144 125.082 47.7937C124.946 48.1544 124.838 48.443 124.755 48.6629C124.679 48.8607 124.634 48.9631 124.626 48.9596C124.619 48.9561 124.648 48.849 124.711 48.6454C124.783 48.422 124.879 48.1288 124.997 47.7635C125.122 47.3807 125.295 46.9199 125.419 46.3614C125.49 46.0833 125.564 45.7878 125.643 45.4748C125.725 45.1618 125.813 44.8314 125.865 44.4753C126.425 41.6678 126.732 37.642 125.92 33.3207C125.519 31.1681 124.952 29.1506 124.264 27.3797C123.566 25.6147 122.838 24.0614 122.107 22.8234C121.929 22.5116 121.759 22.2149 121.598 21.9333C121.422 21.6622 121.256 21.4062 121.1 21.1665C120.945 20.928 120.801 20.7046 120.668 20.4975C120.533 20.2927 120.393 20.1182 120.277 19.9541C120.052 19.6423 119.872 19.3921 119.735 19.2013C119.613 19.0303 119.552 18.9372 119.558 18.9314Z" fill="#455A64"/>
<path d="M120.287 21.2289C120.295 21.23 120.281 21.3103 120.246 21.4616C120.2 21.6082 120.123 21.8304 119.945 22.0689C119.607 22.5646 118.868 23.0696 117.875 23.4058C116.875 23.7339 115.675 24.0283 114.326 24.3273C112.976 24.6136 111.475 24.8649 109.884 24.9754C108.292 25.0883 106.763 25.0371 105.391 24.8451C104.021 24.6508 102.808 24.3273 101.829 23.9608C100.847 23.5955 100.094 23.201 99.5936 22.9009C99.3411 22.7542 99.1538 22.6251 99.0281 22.5378C98.9024 22.4494 98.8384 22.4005 98.8419 22.3947C98.8536 22.3761 99.1247 22.5506 99.6378 22.8229C100.149 23.0975 100.906 23.4663 101.883 23.8072C102.86 24.1505 104.061 24.4541 105.419 24.6345C106.777 24.8125 108.289 24.8567 109.866 24.7462C113.022 24.5123 115.834 23.813 117.821 23.2522C118.804 22.9392 119.527 22.4738 119.873 22.0154C120.231 21.5628 120.255 21.2161 120.287 21.2289Z" fill="#455A64"/>
<path d="M118.924 18.6224C118.93 18.6282 118.886 18.6805 118.799 18.7759C118.71 18.8678 118.587 19.0168 118.402 19.1773C118.048 19.5159 117.486 19.9604 116.726 20.4037C115.216 21.3043 112.821 22.0501 110.131 22.064C107.441 22.0757 105.057 21.53 103.365 21.1158C102.517 20.9028 101.836 20.7144 101.366 20.5782C100.897 20.4421 100.64 20.3583 100.644 20.3432C100.647 20.3281 100.912 20.3816 101.388 20.491C101.901 20.6096 102.581 20.7667 103.402 20.9575C105.1 21.3322 107.473 21.8465 110.129 21.8348C112.781 21.8209 115.139 21.1134 116.647 20.2629C118.171 19.4217 118.886 18.577 118.924 18.6224Z" fill="#455A64"/>
<path d="M117.379 17.786C117.384 17.8012 117.193 17.8663 116.844 17.9711C116.496 18.0793 115.984 18.2084 115.346 18.3422C114.072 18.6122 112.276 18.853 110.283 18.8437C108.289 18.8297 106.496 18.5691 105.225 18.284C104.589 18.1421 104.079 18.0071 103.732 17.8954C103.384 17.7861 103.195 17.7197 103.199 17.7034C103.204 17.6883 103.402 17.7267 103.755 17.8081C104.108 17.8931 104.621 18.0036 105.258 18.1235C106.529 18.3666 108.308 18.5994 110.284 18.6121C112.26 18.6215 114.041 18.4085 115.315 18.1805C115.953 18.0676 116.467 17.9629 116.821 17.8815C117.177 17.807 117.376 17.7709 117.379 17.786Z" fill="#455A64"/>
<path d="M107.292 11.3436C107.308 11.3495 107.241 11.5403 107.109 11.8824C106.981 12.2256 106.764 12.7096 106.47 13.296C105.885 14.4677 104.928 16.0222 103.619 17.5394C102.306 19.0543 100.905 20.2248 99.8297 20.973C99.2921 21.3476 98.8442 21.6315 98.523 21.8084C98.2042 21.9887 98.0239 22.0806 98.0169 22.0678C98.0087 22.0539 98.1728 21.9352 98.4765 21.7327C98.7813 21.5338 99.2142 21.2313 99.7342 20.8415C100.778 20.0654 102.145 18.8891 103.446 17.3893C104.742 15.8872 105.709 14.3642 106.327 13.2204C106.636 12.6491 106.875 12.1779 107.027 11.8475C107.183 11.5182 107.277 11.3378 107.292 11.3436Z" fill="#455A64"/>
<path d="M80.4439 27.5718C80.438 27.5672 80.4823 27.4997 80.5742 27.3764C80.6673 27.2542 80.8011 27.0704 80.9861 26.8458C81.3514 26.3909 81.9006 25.7474 82.6348 25.0028C83.3678 24.2581 84.2998 23.4239 85.44 22.6339C86.0136 22.2452 86.6361 21.8648 87.3086 21.5227C87.9847 21.1853 88.7084 20.8862 89.4693 20.6372C92.5212 19.6448 95.4766 19.5412 97.5488 19.7553C98.5902 19.8577 99.4232 20.0148 99.991 20.1509C100.276 20.2126 100.494 20.2812 100.641 20.3219C100.789 20.365 100.865 20.3906 100.864 20.3987C100.859 20.4174 100.544 20.3475 99.9736 20.2393C99.4035 20.1311 98.5704 19.9985 97.536 19.9182C95.4754 19.7472 92.5573 19.8763 89.5414 20.8572C86.5116 21.8171 84.2242 23.6822 82.75 25.1191C82.0065 25.844 81.441 26.4688 81.0547 26.904C80.8755 27.1053 80.7289 27.2717 80.6102 27.4066C80.5067 27.5183 80.4497 27.5765 80.4439 27.5718Z" fill="#455A64"/>
<path d="M86.1194 19.4512C86.1112 19.4372 86.316 19.3023 86.6965 19.0684C86.885 18.9486 87.12 18.809 87.4039 18.6682C87.6866 18.5239 88.0008 18.3459 88.3696 18.1934C88.7338 18.0294 89.1341 17.8525 89.5774 17.6978C90.0137 17.5233 90.4965 17.3848 91.0027 17.23C92.0219 16.952 93.1633 16.7181 94.3781 16.5924C95.5939 16.4796 96.7598 16.4865 97.8139 16.5622C98.3399 16.6157 98.8402 16.6576 99.3032 16.7449C99.7687 16.81 100.196 16.9054 100.584 16.9962C100.976 17.0741 101.32 17.1882 101.624 17.2743C101.93 17.358 102.188 17.4488 102.396 17.5291C102.814 17.685 103.042 17.7769 103.036 17.792C103.03 17.8072 102.793 17.7432 102.368 17.614C102.156 17.5465 101.897 17.4686 101.59 17.3976C101.284 17.3243 100.94 17.2219 100.549 17.1544C100.162 17.0741 99.7361 16.9892 99.2742 16.9333C98.8146 16.8554 98.3189 16.8216 97.7988 16.7739C96.7551 16.7111 95.6032 16.71 94.4013 16.8216C93.2006 16.945 92.072 17.1695 91.0597 17.4337C90.5582 17.5814 90.0788 17.7106 89.6425 17.8758C89.2004 18.0212 88.8001 18.1865 88.4348 18.34C88.0648 18.482 87.7471 18.6484 87.4609 18.781C87.1735 18.9102 86.9338 19.0382 86.7395 19.1452C86.3486 19.3558 86.1275 19.4652 86.1194 19.4512Z" fill="#455A64"/>
<path d="M123.628 56.7449C123.767 56.6716 123.99 56.7531 124.247 57.0219C124.5 57.2906 124.789 57.7526 124.928 58.4414C124.993 58.7846 125.019 59.186 124.944 59.6247C124.88 60.0552 124.685 60.5613 124.376 60.9825C124.066 61.4083 123.64 61.79 123.084 62.0483C122.535 62.3008 121.818 62.4206 121.123 62.2275C120.429 62.0436 119.883 61.6096 119.524 61.1384C119.163 60.6614 118.959 60.1343 118.873 59.613C118.709 58.517 119.106 57.6595 119.507 57.1091C119.925 56.553 120.379 56.2598 120.717 56.1201C121.06 55.9828 121.298 55.9991 121.394 56.1225C121.605 56.3773 121.186 56.9986 120.947 57.8724C120.836 58.2982 120.803 58.7974 120.949 59.1686C121.086 59.5793 121.447 59.9563 121.717 60.0028C121.85 60.0424 122.005 60.0331 122.194 59.9749C122.379 59.9121 122.572 59.791 122.729 59.6444C123.036 59.3687 123.214 58.9463 123.3 58.51C123.463 57.6304 123.333 56.8904 123.628 56.7449Z" fill="#4597F8"/>
<path d="M75.0723 116.332L80.7374 141.674L78.0567 158.682H140.32L136.249 79.2835L120.725 77.9629L82.7992 84.3646L75.0723 116.332Z" fill="#4597F8"/>
<path d="M90.9106 83.9086C90.9106 83.9086 74.6911 82.4216 66.9676 93.4553C62.2402 100.207 55.6035 115.716 55.6035 115.716L77.1915 119.438L90.9106 83.9086Z" fill="#4597F8"/>
<g opacity="0.3">
<path d="M112.622 107.889C117.178 113.519 119.317 120.656 122.297 127.257C126.137 135.761 131.453 143.5 136.74 151.188C137.137 151.764 137.676 152.411 138.371 152.327C139.094 152.241 139.461 151.428 139.646 150.724C140.791 146.386 140.225 141.726 138.722 137.499C137.22 133.272 134.825 129.422 132.266 125.737C128.234 119.931 123.753 114.439 118.872 109.327C117.994 108.409 117.054 107.47 115.844 107.085C114.634 106.701 113.084 107.074 112.554 108.227" fill="black"/>
</g>
<g opacity="0.3">
<path d="M80.52 137.272C81.573 133.128 82.626 128.985 83.679 124.841C83.8896 124.013 84.1048 123.173 84.533 122.433C85.0717 121.504 85.9106 120.795 86.7332 120.105C87.7501 119.252 88.8054 118.378 90.0748 117.991C91.108 117.675 92.2448 117.696 93.2117 117.214C94.5381 116.552 95.2525 115.1 95.7947 113.72C96.2101 112.664 96.5626 111.409 95.9576 110.449C95.3805 109.534 94.1669 109.28 93.0849 109.248C88.1143 109.1 83.1914 112.129 81.082 116.632C79.46 120.092 79.4612 124.062 79.4926 127.884C79.5205 131.291 79.5496 134.698 79.5775 138.104" fill="black"/>
</g>
<path d="M100.435 137.758C100.423 137.696 99.5856 137.842 98.2243 137.948C96.8642 138.055 94.9723 138.079 92.9093 137.813C90.8464 137.54 89.0243 137.032 87.7375 136.579C86.4483 136.129 85.6757 135.773 85.649 135.829C85.6373 135.852 85.8188 135.965 86.1586 136.148C86.496 136.335 87.0033 136.57 87.6432 136.831C88.9208 137.353 90.7638 137.913 92.8605 138.19C94.9571 138.461 96.8828 138.392 98.2511 138.215C98.9364 138.128 99.4867 138.03 99.8614 137.936C100.235 137.845 100.44 137.784 100.435 137.758Z" fill="#263238"/>
<path d="M127.598 138.871C127.569 138.769 118.758 141.28 107.922 144.478C97.0827 147.675 88.3214 150.349 88.3516 150.449C88.3807 150.55 97.1898 148.04 108.03 144.842C118.866 141.644 127.629 138.971 127.598 138.871Z" fill="#263238"/>
<g opacity="0.3">
<path d="M86.5723 136.255C87.5089 138.925 90.0419 140.745 92.8506 141.087C95.6594 141.429 98.6089 140.058 100.158 137.69C95.5954 138.258 90.8331 137.984 86.5723 136.255Z" fill="black"/>
</g>
<g opacity="0.3">
<path d="M90.7217 149.674L90.9497 149.763C96.5079 150.758 101.717 149.73 107.047 147.866C112.377 146.003 117.34 143.24 122.262 140.473C111.749 143.541 101.235 146.607 90.7217 149.674Z" fill="black"/>
</g>
<path d="M123.828 149.057C123.879 149.055 123.954 149.676 123.8 150.667C123.651 151.654 123.215 153.001 122.37 154.287C121.521 155.57 120.454 156.501 119.605 157.027C118.754 157.557 118.155 157.734 118.136 157.686C118.104 157.617 118.645 157.336 119.417 156.756C120.191 156.179 121.168 155.256 121.98 154.031C122.787 152.802 123.25 151.54 123.477 150.602C123.706 149.662 123.751 149.053 123.828 149.057Z" fill="#263238"/>
<path d="M127.045 152.894C127.091 152.919 126.892 153.442 126.358 154.168C125.829 154.892 124.924 155.786 123.722 156.468C122.516 157.145 121.284 157.458 120.391 157.537C119.493 157.619 118.942 157.521 118.945 157.467C118.928 157.319 121.182 157.393 123.492 156.06C125.825 154.771 126.927 152.804 127.045 152.894Z" fill="#263238"/>
<path d="M159.45 224.899C158.305 220.191 149.995 189.799 148.398 185.223L140.922 163.8L140.417 156.719L76.9751 158.681C76.9751 158.681 67.9438 169.8 64.5906 182.412C61.7155 193.226 60.2634 209.627 67.0712 252.289C71.5519 275.957 86.5497 379.277 86.5497 379.277H124.553L109.66 214.008L123.763 262.803L156.94 377.189L197.597 376.973L159.45 224.899Z" fill="#455A64"/>
<path d="M116.056 157.916C116.073 157.916 116.093 158.095 116.117 158.436C116.139 158.829 116.166 159.324 116.199 159.931C116.259 161.23 116.322 163.111 116.344 165.437C116.404 170.088 116.288 176.517 115.792 183.598C115.226 191.794 114.227 199.045 113.483 203.604L113.463 203.724L113.345 203.726C111.637 203.765 110.263 203.795 109.251 203.817C108.814 203.818 108.456 203.82 108.163 203.822C107.916 203.818 107.788 203.81 107.787 203.796C107.787 203.782 107.914 203.765 108.159 203.741C108.451 203.72 108.809 203.694 109.244 203.662C110.255 203.608 111.628 203.532 113.334 203.439L113.196 203.561C113.832 198.991 114.759 191.745 115.324 183.565C115.82 176.497 115.988 170.081 116.012 165.436C116.013 163.161 116.016 161.297 116.017 159.934C116.019 159.325 116.02 158.831 116.021 158.437C116.029 158.098 116.04 157.917 116.056 157.916Z" fill="#263238"/>
<path d="M108.549 160.681C108.576 160.716 108.421 160.838 108.236 161.122C108.049 161.4 107.86 161.866 107.852 162.46C107.852 163.042 108.051 163.784 108.625 164.273C109.184 164.778 110.13 164.837 110.917 164.437C111.707 164.042 112.223 163.247 112.15 162.496C112.097 161.744 111.619 161.142 111.152 160.795C110.67 160.449 110.184 160.324 109.849 160.309C109.512 160.289 109.32 160.34 109.309 160.297C109.301 160.279 109.478 160.165 109.847 160.126C110.211 160.086 110.77 160.167 111.34 160.522C111.888 160.876 112.484 161.531 112.58 162.461C112.698 163.402 112.059 164.398 111.129 164.852C110.211 165.328 109.03 165.249 108.345 164.596C107.654 163.965 107.482 163.097 107.523 162.445C107.577 161.776 107.843 161.278 108.094 161.011C108.341 160.738 108.539 160.664 108.549 160.681Z" fill="#263238"/>
<path d="M95.8598 160.298C95.8877 160.302 95.8633 160.675 95.7469 161.338C95.6317 162.001 95.3979 162.953 94.9802 164.087C94.1622 166.346 92.4355 169.347 89.5768 171.731C86.7157 174.116 83.4531 175.274 81.0854 175.673C79.8951 175.88 78.9166 175.939 78.2429 175.932C77.5692 175.927 77.1992 175.884 77.1992 175.856C77.1969 175.765 78.6932 175.838 81.0214 175.348C83.3345 174.873 86.4923 173.693 89.2777 171.372C92.062 169.05 93.7899 166.156 94.673 163.966C95.5736 161.764 95.7702 160.278 95.8598 160.298Z" fill="#263238"/>
<path d="M145.443 177.232C145.431 177.259 145.09 177.132 144.498 176.849C143.91 176.559 143.082 176.086 142.13 175.395C140.206 174.034 137.917 171.701 135.656 168.95C133.369 166.227 131.351 163.687 130.138 161.676C129.52 160.679 129.088 159.833 128.818 159.236C128.547 158.639 128.432 158.295 128.458 158.283C128.532 158.248 129.123 159.568 130.416 161.498C131.688 163.442 133.726 165.925 136.015 168.651C138.271 171.395 140.485 173.724 142.329 175.132C144.156 176.56 145.482 177.154 145.443 177.232Z" fill="#263238"/>
<path d="M126.099 97.3414C125.825 94.0393 129.601 90.1625 130.678 87.0291C132.852 80.7042 132.628 77.9629 131.902 65.5074L120.866 63.1548C120.53 67.3109 121.125 65.6854 120.731 70.1801C120.338 74.6748 119.197 79.1776 116.793 82.9951C115.074 85.7248 112.662 88.2543 112.337 91.4644C111.865 96.1057 115.942 100.107 116.202 104.766C116.56 111.232 109.571 116.563 110.416 122.983C110.602 124.401 111.272 125.86 112.54 126.523C113.456 127.001 114.537 126.997 115.569 126.983C117.837 126.953 120.103 126.922 122.371 126.891C123.099 126.882 123.906 126.841 124.427 126.332C125.271 125.506 124.827 124.115 124.651 122.947C123.889 117.901 129.294 113.758 129.424 108.655C129.523 104.697 126.426 101.287 126.099 97.3414Z" fill="#263238"/>
<path d="M118.994 113.038C118.994 113.038 138.015 155.383 149.065 156.679C154.639 157.333 158.031 154.288 159.228 148.51C160.424 142.732 156.439 104.872 156.439 104.872L137.309 110.188L138.758 117.522L127.306 106.111L118.994 113.038Z" fill="#FFBE9D"/>
<path d="M136.251 79.2841C136.251 79.2841 146.956 80.3138 150.942 89.0809C154.927 97.848 160.447 107.737 160.447 107.737L136.907 113.037C136.907 113.037 133.614 95.329 133.363 89.0797C133.088 82.2359 132.378 79.0874 136.251 79.2841Z" fill="#4597F8"/>
<path d="M155.065 133.628C155.074 133.619 154.982 133.516 154.798 133.33C154.582 133.117 154.313 132.853 153.986 132.532C153.238 131.805 152.222 130.816 150.983 129.613C148.45 127.146 144.961 123.726 141.132 119.925C137.335 116.124 133.9 112.685 131.366 110.147C130.15 108.921 129.152 107.914 128.418 107.173C128.091 106.851 127.822 106.587 127.607 106.374C127.418 106.193 127.315 106.104 127.305 106.113C127.296 106.122 127.381 106.229 127.552 106.427C127.755 106.653 128.006 106.933 128.312 107.276C128.976 108.01 129.956 109.054 131.175 110.337C133.615 112.899 137.032 116.395 140.865 120.197C144.697 124 148.216 127.39 150.799 129.809C152.09 131.019 153.148 131.984 153.886 132.644C154.234 132.945 154.518 133.192 154.747 133.391C154.946 133.553 155.055 133.637 155.065 133.628Z" fill="#EB996E"/>
<path d="M102.179 80.1523L109.622 83.0507C109.622 83.0507 113.712 83.0914 114.239 84.4108C114.766 85.7303 115.294 87.0497 115.294 87.0497C115.294 87.0497 117.8 87.6827 118.328 89.0812C118.857 90.4798 123.209 99.9776 123.209 99.9776L127.299 106.112L118.988 113.037C118.988 113.037 117.273 110.795 115.558 109.607C113.843 108.419 106.72 102.445 106.587 100.815C106.456 99.1852 102.605 90.0516 102.563 89.0801C102.521 88.1085 102.42 85.9932 103.382 86.5215C104.344 87.0497 105.663 89.6874 105.663 89.6874L104.74 86.1259C104.74 86.1259 104.171 85.7943 103.382 84.8064C102.396 83.5731 102.265 82.1722 102.265 82.1722L102.179 80.1523Z" fill="#FFBE9D"/>
<path d="M117.81 101.639C117.833 101.621 117.557 101.23 117.044 100.547C116.477 99.8102 115.739 98.8491 114.854 97.6995L114.812 97.6448L114.739 97.6437C113.878 97.6355 112.924 97.6274 111.904 97.6181L111.8 97.6169L111.747 97.717C111.454 98.265 111.015 98.8572 110.411 99.1167C110.126 99.247 109.753 99.2249 109.378 99.2482C109.009 99.2575 108.621 99.254 108.262 99.2133L108.405 99.4855C108.567 99.1621 108.739 98.8177 108.913 98.4709C109.545 97.2004 110.154 95.9763 110.724 94.8291L110.562 94.9292C112.441 94.9129 114.14 94.8989 115.573 94.8861L115.513 94.8722C116.634 95.3946 117.568 95.8309 118.289 96.1672C118.949 96.465 119.32 96.6186 119.332 96.5942C119.343 96.5697 118.995 96.3696 118.357 96.0299C117.649 95.6645 116.733 95.1921 115.634 94.6243L115.607 94.6104H115.573C114.14 94.5987 112.442 94.5836 110.562 94.5673L110.452 94.5662L110.4 94.6674C109.824 95.8123 109.211 97.0328 108.574 98.3011C108.4 98.649 108.228 98.9934 108.066 99.3168L107.945 99.56L108.209 99.5891C108.622 99.6345 109.004 99.6345 109.39 99.6228C109.581 99.6123 109.771 99.6019 109.959 99.5914C110.151 99.5798 110.371 99.5356 110.553 99.4564C111.302 99.1144 111.736 98.4802 112.061 97.8647L111.905 97.9636C112.925 97.9543 113.878 97.9462 114.74 97.938L114.625 97.8822C115.55 98.9992 116.323 99.9335 116.916 100.649C117.466 101.302 117.786 101.658 117.81 101.639Z" fill="#EB996E"/>
<path d="M115.292 90.2726C115.292 90.2447 114.852 90.2168 114.064 90.1935C113.201 90.1772 112.08 90.1563 110.738 90.1307L110.163 90.1202L110.674 90.4018C111.366 90.7834 112.181 91.2209 112.845 91.8562C113.008 92.0191 113.125 92.2064 113.057 92.3181C112.999 92.4705 112.781 92.6229 112.579 92.7428C112.152 92.9836 111.652 93.1686 111.145 93.3187L111.195 93.3117C110.28 93.2535 109.288 92.8905 108.39 92.3821C107.626 91.9539 107.403 90.9777 107.317 90.1365C107.244 89.2696 107.298 88.4086 107.42 87.6221L107.26 87.7652C109.573 87.5814 111.56 87.4243 113.055 87.3056C113.712 87.2416 114.26 87.1881 114.706 87.145C115.089 87.102 115.295 87.0694 115.292 87.0496C115.291 87.0299 115.083 87.0252 114.698 87.0334C114.251 87.0496 113.7 87.0706 113.04 87.095C111.543 87.1776 109.554 87.2882 107.237 87.4173L107.1 87.4255L107.078 87.5604C106.939 88.3842 106.876 89.2545 106.947 90.1702C106.986 90.6263 107.072 91.0952 107.249 91.5525C107.42 92.0039 107.739 92.46 108.203 92.7137C109.152 93.2431 110.152 93.6224 111.195 93.6829L111.219 93.6841L111.245 93.6759C111.783 93.5118 112.287 93.3222 112.759 93.0511C112.985 92.9022 113.236 92.7672 113.379 92.4507C113.463 92.2913 113.411 92.0737 113.342 91.9469C113.268 91.8178 113.179 91.7142 113.088 91.6223C112.337 90.9277 111.529 90.5274 110.802 90.1469L110.738 90.4169C112.081 90.3913 113.201 90.3703 114.064 90.3541C114.854 90.3273 115.292 90.3005 115.292 90.2726Z" fill="#EB996E"/>
<path d="M127.295 106.11C127.299 106.107 127.28 106.069 127.238 105.998C127.185 105.912 127.123 105.811 127.046 105.684C126.857 105.39 126.6 104.987 126.272 104.474C125.569 103.399 124.564 101.862 123.295 99.9175L123.303 99.9315C122.509 98.135 121.567 96.0023 120.502 93.5938C119.967 92.3872 119.4 91.112 118.807 89.7751C118.651 89.4319 118.526 89.1224 118.337 88.7396C118.131 88.3859 117.831 88.109 117.51 87.8774C116.857 87.419 116.12 87.1083 115.331 86.8849L115.447 86.985C115.222 86.4184 114.992 85.8401 114.758 85.2525C114.64 84.9581 114.523 84.6614 114.404 84.3624C114.251 83.9994 113.936 83.7772 113.637 83.6108C113.017 83.3013 112.349 83.1524 111.677 83.0465C111.002 82.9441 110.32 82.8847 109.62 82.8673L109.684 82.8801C107.29 81.9458 104.803 80.9742 102.243 79.9748L101.971 79.8689L101.985 80.1598C102.018 80.8567 102.034 81.549 102.086 82.3018C102.206 83.0465 102.473 83.7679 102.876 84.4241C103.363 85.1548 103.907 85.7761 104.64 86.2892L104.551 86.1729C104.867 87.3864 105.176 88.5778 105.476 89.7344L105.827 89.6029C105.523 89.0107 105.197 88.444 104.84 87.8949C104.466 87.3562 104.117 86.8035 103.528 86.3997C103.382 86.3101 103.167 86.2019 102.92 86.2927C102.686 86.3881 102.584 86.5929 102.523 86.7534C102.402 87.0909 102.381 87.4132 102.362 87.7331C102.347 88.0531 102.35 88.3684 102.36 88.6791C102.37 88.8373 102.365 88.9828 102.387 89.1491C102.413 89.3272 102.454 89.4866 102.501 89.6308C103.267 91.9812 104.165 94.1407 104.933 96.235C105.322 97.2775 105.699 98.2944 106.024 99.2881C106.176 99.7826 106.349 100.284 106.418 100.755C106.507 101.33 106.853 101.743 107.139 102.145C108.396 103.691 109.766 104.906 110.998 106.02C112.242 107.124 113.399 108.077 114.434 108.886C114.946 109.293 115.459 109.643 115.902 109.97C116.341 110.309 116.72 110.651 117.049 110.966C117.706 111.602 118.177 112.132 118.495 112.492C118.642 112.66 118.76 112.795 118.853 112.902C118.935 112.994 118.977 113.041 118.983 113.037C118.987 113.034 118.953 112.98 118.881 112.88C118.794 112.767 118.685 112.624 118.549 112.446C118.247 112.072 117.79 111.525 117.143 110.87C116.818 110.544 116.444 110.191 116.003 109.839C115.551 109.492 115.063 109.148 114.554 108.732C113.535 107.912 112.392 106.948 111.164 105.835C109.949 104.715 108.586 103.483 107.372 101.965C107.093 101.577 106.783 101.174 106.719 100.724C106.643 100.185 106.474 99.7035 106.322 99.1927C105.999 98.1874 105.626 97.167 105.243 96.1198C104.486 94.0266 103.588 91.8392 102.845 89.5331C102.797 89.3865 102.764 89.2469 102.744 89.1212C102.724 88.9839 102.728 88.8187 102.72 88.6698C102.711 88.3638 102.707 88.0578 102.724 87.7541C102.75 87.2002 102.872 86.3357 103.333 86.7185C103.8 87.0339 104.176 87.5842 104.526 88.1031C104.873 88.636 105.195 89.2003 105.488 89.7751L106.268 91.3028L105.838 89.6436C105.539 88.4871 105.231 87.2957 104.917 86.0821L104.899 86.0146L104.828 85.9657C104.213 85.5387 103.628 84.8895 103.196 84.2286C102.822 83.6224 102.569 82.9348 102.458 82.2518C102.412 81.5606 102.392 80.83 102.359 80.1493L102.102 80.3343C104.663 81.3291 107.153 82.296 109.548 83.2257L109.575 83.2361L109.612 83.2373C110.952 83.2885 112.341 83.3978 113.469 83.9273C113.735 84.0727 113.974 84.253 114.076 84.4974C114.196 84.7964 114.316 85.0919 114.433 85.3863C114.669 85.9739 114.902 86.551 115.129 87.1165L115.16 87.1933L115.244 87.2165C115.985 87.4225 116.713 87.7261 117.315 88.1473C117.614 88.3591 117.883 88.6104 118.058 88.906C118.204 89.1934 118.362 89.5692 118.511 89.8915C119.115 91.2272 119.691 92.5012 120.236 93.7067C121.326 96.1082 122.292 98.2339 123.105 100.025L123.108 100.033L123.113 100.04C124.419 101.96 125.451 103.478 126.173 104.54C126.521 105.041 126.793 105.433 126.992 105.72C127.08 105.84 127.149 105.938 127.209 106.019C127.263 106.081 127.29 106.113 127.295 106.11Z" fill="#EB996E"/>
<path d="M138.521 117.304C138.625 117.286 138.285 114.679 137.762 111.479C137.24 108.278 136.733 105.699 136.628 105.716C136.524 105.732 136.864 108.34 137.387 111.541C137.909 114.739 138.417 117.32 138.521 117.304Z" fill="#263238"/>
<path d="M85.2376 79.5416L87.5565 108.826C87.6391 109.869 88.5432 110.651 89.5869 110.583L105.91 109.523C106.984 109.453 107.788 108.512 107.69 107.442L105.022 78.1791C104.928 77.1471 104.028 76.3768 102.994 76.4443L87.019 77.4822C85.9555 77.552 85.1527 78.4781 85.2376 79.5416Z" fill="#263238"/>
<path d="M61.8784 116.821C61.8784 116.821 57.0009 149.767 57.1941 154.195C57.386 158.622 62.3904 168.437 69.1271 169.399C75.8639 170.362 82.2156 164.203 82.4076 156.119C82.5996 148.035 83.5979 122.469 83.5979 122.469L78.5703 119.7L61.8784 116.821Z" fill="#FFBE9D"/>
<path d="M73.879 118.768C73.8674 118.763 73.8069 118.879 73.7045 119.105C73.5881 119.372 73.4462 119.699 73.274 120.096C72.9121 120.962 72.3653 122.204 71.666 123.728C70.2837 126.783 68.2057 130.928 66.0625 135.584C63.9134 140.241 62.281 144.607 61.3956 147.855C61.1489 148.659 60.9988 149.407 60.8371 150.055C60.673 150.703 60.5695 151.268 60.4892 151.733C60.417 152.161 60.3565 152.513 60.3077 152.8C60.2704 153.044 60.2576 153.173 60.2704 153.175C60.2832 153.178 60.3216 153.053 60.3833 152.814C60.4508 152.531 60.5334 152.184 60.6335 151.763C60.7347 151.306 60.8592 150.746 61.043 150.106C61.2234 149.465 61.3909 148.726 61.6539 147.93C62.601 144.717 64.2637 140.391 66.4092 135.742C68.5489 131.095 70.5909 126.928 71.9126 123.837C72.5805 122.296 73.0913 121.034 73.4113 120.151C73.5579 119.743 73.6777 119.406 73.7754 119.132C73.8546 118.898 73.8906 118.772 73.879 118.768Z" fill="#EB996E"/>
<path d="M89.6377 89.5989C89.6377 89.5989 84.588 92.7043 83.0987 93.5141C81.6082 94.3239 81.8002 100.342 81.8002 100.342L73.3076 120.085L83.5478 123.754C83.5478 123.754 87.1919 116.847 88.2403 115.974C89.2886 115.1 90.686 114.751 90.686 114.751C90.686 114.751 91.2096 116.672 92.7815 115.799C94.3534 114.925 96.0999 112.83 96.0999 112.83C96.0999 112.83 97.4972 113.704 98.0208 112.655C98.5444 111.607 99.4182 109.337 99.4182 109.337C99.4182 109.337 96.4489 105.494 95.2261 105.494C94.0032 105.494 87.7155 105.843 87.7155 105.843C87.7155 105.843 88.0646 105.319 89.811 104.62C91.5575 103.922 101.959 100.862 102.448 100.672C103.178 100.389 104.006 98.4777 101.735 98.3032C99.4636 98.1287 86.6695 100.414 86.6695 100.414C86.6695 100.414 85.9679 97.1094 86.4926 96.4101C87.0174 95.7132 91.5586 92.7427 89.6377 89.5989Z" fill="#FFBE9D"/>
<path d="M96.1111 112.674C96.146 112.67 96.2275 112.129 96.0692 111.237C95.975 110.799 95.7784 110.251 95.299 109.823C94.8091 109.376 94.0773 109.287 93.4222 109.253C92.0749 109.167 90.852 109.254 89.9794 109.38C89.1067 109.506 88.5808 109.654 88.589 109.703C88.6052 109.82 90.7508 109.461 93.3978 109.634C94.0575 109.667 94.6719 109.745 95.0709 110.091C95.4782 110.428 95.6888 110.904 95.8075 111.303C96.0227 112.122 96.0425 112.682 96.1111 112.674Z" fill="#EB996E"/>
<path d="M94.0877 113.303C94.0202 113.215 93.2128 113.76 92.1237 114.228C91.0393 114.707 90.091 114.928 90.1096 115.037C90.1201 115.136 91.1382 115.077 92.2761 114.576C93.4164 114.084 94.1529 113.378 94.0877 113.303Z" fill="#EB996E"/>
<path d="M87.2553 100.343C87.2413 100.245 86.2814 100.427 85.4507 101.238C84.6118 102.042 84.3988 102.996 84.4966 103.012C84.6013 103.053 84.9503 102.238 85.7148 101.51C86.4664 100.771 87.2913 100.449 87.2553 100.343Z" fill="#EB996E"/>
<path d="M73.3066 72.4651L66.635 60.7077C69.5869 55.9163 71.2926 50.2767 71.2926 44.2369C71.2926 26.8678 57.2116 12.7869 39.8426 12.7869C22.4735 12.7869 8.39258 26.8678 8.39258 44.2369C8.39258 61.6059 22.4735 75.6869 39.8426 75.6869C47.0948 75.6869 53.7688 73.2248 59.0896 69.1013L59.0791 69.1153L73.3066 72.4651Z" fill="white"/>
<path d="M73.3075 72.4648C72.4838 72.2775 68.067 71.2757 59.0521 69.2302C58.9881 69.2162 58.9485 69.1522 58.9625 69.0882C58.966 69.0708 58.9741 69.0545 58.9846 69.0417L58.9951 69.0277L59.1626 69.1941C55.6057 71.9819 50.4851 74.6976 44.0566 75.5714C42.4579 75.7762 40.7871 75.9088 39.0709 75.825C38.2134 75.7762 37.3396 75.7564 36.4588 75.6831C35.5838 75.5516 34.6972 75.4178 33.7978 75.2817C30.2316 74.5789 26.5851 73.2257 23.183 71.1163C19.7832 69.0138 16.6347 66.1585 14.111 62.6505C11.592 59.1483 9.68033 54.9945 8.78558 50.4812C7.89898 45.9737 7.97228 41.1428 9.15675 36.4666C10.3482 31.8067 12.5763 27.2538 15.9087 23.5096C19.2817 19.6839 23.4518 16.6215 28.0477 14.8437C32.6238 13.0274 37.5048 12.3363 42.1694 12.6749C46.8351 13.0111 51.3007 14.3504 55.1298 16.5075C58.9718 18.6472 62.211 21.5037 64.7103 24.6929C67.2177 27.8844 68.9839 31.4041 70.0764 34.9086C71.162 38.4294 71.4552 41.9212 71.4412 45.1523C71.2551 51.661 69.0723 57.0062 66.7325 60.7667L66.7348 60.6504C70.9049 68.1446 72.9143 71.7597 73.3075 72.4648C72.9026 71.7655 70.8316 68.1865 66.5358 60.7632C66.5149 60.726 66.5172 60.6806 66.5382 60.6469C68.8291 56.8934 70.9584 51.5854 71.112 45.143C71.1096 41.9444 70.8071 38.4934 69.7216 35.018C68.629 31.5588 66.8733 28.0892 64.3903 24.9454C61.9143 21.8027 58.7123 18.9928 54.9192 16.8903C51.1389 14.7704 46.7362 13.4579 42.1368 13.1321C37.5385 12.804 32.7309 13.4893 28.2245 15.2812C23.6984 17.0346 19.5935 20.0539 16.2694 23.8214C12.9847 27.5098 10.7915 31.9928 9.61517 36.5818C8.447 41.1858 8.36904 45.9481 9.23703 50.3905C10.1132 54.8386 11.9911 58.9354 14.4682 62.3945C16.9512 65.8595 20.0496 68.6833 23.4006 70.7672C26.7527 72.8581 30.3491 74.2054 33.87 74.9128C34.7577 75.0501 35.6339 75.1851 36.4984 75.3189C37.3687 75.3945 38.232 75.4178 39.0802 75.469C40.7778 75.5586 42.43 75.4341 44.0135 75.2386C50.3768 74.4032 55.4661 71.7457 59.0183 69.0056C59.0695 68.9649 59.1451 68.9742 59.1847 69.0266C59.2184 69.0696 59.2173 69.1301 59.1847 69.172L59.1742 69.186L59.1067 68.9987C68.0868 71.1907 72.4873 72.2647 73.3075 72.4648Z" fill="#263238"/>
<path d="M23.0068 44.8831L27.526 40.3639L36.2407 48.1118L53.348 31.6492L57.5448 36.1683L35.595 56.8266L23.0068 44.8831Z" fill="#4597F8"/>
</g>
<path d="M73.3066 72.4656L66.635 60.7082C69.5869 55.9168 71.2926 50.2772 71.2926 44.2374C71.2926 26.8683 57.2116 12.7874 39.8426 12.7874C22.4735 12.7874 8.39258 26.8683 8.39258 44.2374C8.39258 61.6064 22.4735 75.6874 39.8426 75.6874C47.0948 75.6874 53.7688 73.2253 59.0896 69.1018L59.0791 69.1158L73.3066 72.4656Z" fill="white"/>
<path d="M73.3075 72.4653C72.4838 72.278 68.067 71.2762 59.0521 69.2307C58.9881 69.2167 58.9485 69.1527 58.9625 69.0887C58.966 69.0713 58.9741 69.055 58.9846 69.0422L58.9951 69.0282L59.1626 69.1946C55.6057 71.9824 50.4851 74.6981 44.0566 75.5719C42.4579 75.7767 40.7871 75.9093 39.0709 75.8255C38.2134 75.7767 37.3396 75.7569 36.4588 75.6836C35.5838 75.5521 34.6972 75.4183 33.7978 75.2822C30.2316 74.5794 26.5851 73.2262 23.183 71.1167C19.7832 69.0143 16.6347 66.159 14.111 62.651C11.592 59.1488 9.68033 54.995 8.78558 50.4817C7.89898 45.9742 7.97228 41.1433 9.15675 36.4671C10.3482 31.8072 12.5763 27.2543 15.9087 23.5101C19.2817 19.6844 23.4518 16.622 28.0477 14.8442C32.6238 13.0279 37.5048 12.3368 42.1694 12.6754C46.8351 13.0116 51.3007 14.3508 55.1298 16.508C58.9718 18.6477 62.211 21.5042 64.7103 24.6934C67.2177 27.8849 68.9839 31.4046 70.0764 34.9091C71.162 38.4299 71.4552 41.9217 71.4412 45.1528C71.2551 51.6615 69.0723 57.0067 66.7325 60.7672L66.7348 60.6509C70.9049 68.1451 72.9143 71.7602 73.3075 72.4653C72.9026 71.766 70.8316 68.187 66.5358 60.7637C66.5149 60.7265 66.5172 60.6811 66.5382 60.6474C68.8291 56.8938 70.9584 51.5859 71.112 45.1434C71.1096 41.9449 70.8071 38.4939 69.7216 35.0185C68.629 31.5593 66.8733 28.0897 64.3903 24.9459C61.9143 21.8032 58.7123 18.9933 54.9192 16.8908C51.1389 14.7709 46.7362 13.4584 42.1368 13.1326C37.5385 12.8045 32.7309 13.4898 28.2245 15.2817C23.6984 17.0351 19.5935 20.0544 16.2694 23.8219C12.9847 27.5103 10.7915 31.9933 9.61517 36.5822C8.447 41.1863 8.36904 45.9486 9.23703 50.3909C10.1132 54.8391 11.9911 58.9358 14.4682 62.395C16.9512 65.86 20.0496 68.6838 23.4006 70.7677C26.7527 72.8586 30.3491 74.2059 33.87 74.9133C34.7577 75.0506 35.6339 75.1856 36.4984 75.3194C37.3687 75.395 38.232 75.4183 39.0802 75.4695C40.7778 75.5591 42.43 75.4346 44.0135 75.2391C50.3768 74.4037 55.4661 71.7462 59.0183 69.0061C59.0695 68.9654 59.1451 68.9747 59.1847 69.0271C59.2184 69.0701 59.2173 69.1306 59.1847 69.1725L59.1742 69.1865L59.1067 68.9991C68.0868 71.1912 72.4873 72.2652 73.3075 72.4653Z" fill="#263238"/>
<path d="M23.0068 44.8831L27.526 40.3639L36.2407 48.1118L53.348 31.6492L57.5448 36.1683L35.595 56.8266L23.0068 44.8831Z" fill="#4597F8"/>
</svg>
