<svg width="126" height="37" viewBox="0 0 126 37" fill="none" xmlns="http://www.w3.org/2000/svg">
<path d="M26.1617 28.4247C25.4032 29.441 24.7602 30.5344 23.9009 31.4115C19.9392 35.4502 12.6915 34.576 9.8973 29.6484C7.45867 25.3519 4.88078 21.1325 2.41253 16.8538C1.5473 15.3545 0.551705 13.9174 0.234654 12.1365C-0.328333 8.99864 1.32804 5.25032 4.02149 3.5021C8.44242 0.633826 14.8783 2.0887 17.1984 7.07559C17.2754 7.24448 17.4058 7.38671 17.6369 7.72154C19.3318 4.0236 22.0578 1.97907 26.0817 1.98796C30.1145 1.99685 32.8553 4.00582 34.565 7.75117C34.7962 7.38375 34.9977 7.123 35.1369 6.83558C37.8719 1.19978 45.8544 0.450114 49.7539 4.8266C52.4266 7.82821 52.9036 11.6862 50.8591 15.1796C48.0767 19.9324 45.2381 24.6527 42.5121 29.438C39.5312 34.6738 33.6554 34.7894 30.1471 32.8841C28.5055 31.9922 27.3855 30.6233 26.5351 28.9995C26.4432 28.8247 26.3573 28.6499 26.2536 28.4839C26.221 28.4306 26.135 28.4099 26.1617 28.4276V28.4247ZM8.8454 22.3563C8.93726 22.3563 9.02911 22.3563 9.118 22.3563C9.47654 21.7547 9.83804 21.1532 10.1966 20.5517C11.6159 18.1664 13.0708 15.8019 14.4397 13.3899C15.0501 12.3114 15.3938 11.0995 15.1123 9.84015C14.3656 6.50371 11.8203 4.60141 8.41872 4.78216C4.35928 4.99846 1.59175 9.57347 3.43479 13.1944C4.55484 15.396 5.91787 17.476 7.17718 19.6095C7.72239 20.531 8.28538 21.4436 8.84244 22.3592L8.8454 22.3563ZM17.6399 13.6566C17.4917 13.7663 17.388 13.8048 17.3435 13.8788C15.5212 16.916 13.6486 19.9236 11.93 23.017C11.4944 23.8022 11.3225 24.8956 11.4381 25.7934C11.9152 29.5003 15.1953 31.77 18.8488 31.0707C22.609 30.3477 24.7898 26.0986 23.0031 22.7355C21.5156 19.9354 19.8266 17.242 18.2236 14.5041C18.0577 14.2196 17.8473 13.9589 17.6399 13.6596V13.6566ZM43.1699 22.5044C43.4395 22.0896 43.5906 21.8733 43.7269 21.6451C45.1759 19.2213 46.6248 16.7975 48.0708 14.3737C48.7849 13.1766 49.2412 11.9439 49.2501 10.492C49.2709 7.61783 46.0855 3.93175 41.9313 4.87401C38.0141 5.75998 35.6199 10.0831 38.0496 13.9855C39.2704 15.9471 40.426 17.9472 41.6142 19.9265C42.1002 20.7384 42.5891 21.5444 43.1699 22.5044ZM34.6213 13.5677C34.3873 13.8818 34.2421 14.0448 34.1324 14.2285C32.4761 17.0168 30.8019 19.7961 29.1841 22.6052C28.5085 23.7756 28.3663 25.0704 28.6922 26.392C29.2907 28.8336 30.796 30.4781 33.2554 30.9937C35.8184 31.53 38.0289 30.7833 39.6082 28.5817C41.1372 26.4512 40.989 24.2408 39.7445 22.0688C38.3637 19.6598 36.894 17.3042 35.4599 14.9248C35.211 14.51 34.9502 14.0981 34.6213 13.5648V13.5677ZM26.061 22.2437C26.2684 21.9948 26.4106 21.8644 26.5054 21.7073C28.0788 19.1235 29.6819 16.5575 31.2019 13.944C32.9768 10.8921 32.236 7.68302 29.4033 5.80146C27.101 4.2725 23.9335 4.53029 21.9571 6.41186C19.8414 8.4238 19.4177 11.3424 20.9141 13.8137C22.2504 16.0212 23.6223 18.2109 24.9735 20.4125C25.3291 20.9903 25.6639 21.577 26.061 22.2466V22.2437Z" fill="#1472C2"/>
<path d="M71.2759 24.8491L77.1949 18.9301C77.7086 18.4164 77.7086 17.5836 77.1949 17.0699L71.2759 11.1509C70.7622 10.6372 69.9294 10.6372 69.4158 11.1509C68.9021 11.6646 68.9021 12.4974 69.4158 13.0111L73.0893 16.6847L63.4403 16.6847C62.7139 16.6847 62.125 17.2736 62.125 18C62.125 18.7264 62.7139 19.3153 63.4403 19.3153L73.0893 19.3153L69.4158 22.9889C68.9021 23.5026 68.9021 24.3354 69.4158 24.8491C69.9294 25.3627 70.7622 25.3627 71.2759 24.8491Z" fill="#69B7FF"/>
<path d="M120.288 21.3C119.907 21.3788 119.511 21.4196 119.122 21.424C117.622 21.4385 116.12 21.4298 114.621 21.4298C114.584 21.4298 114.548 21.4254 114.495 21.4225C114.598 21.3015 114.694 21.1965 114.782 21.0857C115.374 20.3334 115.662 19.4805 115.662 18.5358C115.662 17.6946 115.664 16.8533 115.664 16.0136H115.662V7.85642H115.665C115.667 7.23243 115.667 6.60843 115.662 5.98298C115.647 3.93749 114.851 2.23025 113.274 0.864169C113.193 0.794188 113.109 0.72858 113.023 0.662973C112.943 0.600282 112.861 0.540507 112.753 0.460321C112.813 0.460321 112.84 0.460321 112.867 0.460321C114.134 0.460321 115.401 0.450115 116.668 0.464695C120.561 0.506975 123.875 3.18666 124.597 6.88544C124.661 7.21493 124.704 7.55026 124.725 7.88704V15.7949C124.823 18.3754 123 20.7358 120.288 21.3Z" fill="#1472C2"/>
<path d="M124.702 23.7478C124.658 27.5137 121.888 30.7182 118.064 31.4166C117.723 31.4793 117.376 31.5201 117.028 31.5405H108.846L108.133 31.5186H103.035V22.7521H105.579C105.722 22.7652 105.869 22.771 106.018 22.771C106.888 22.771 107.757 22.7725 108.627 22.7725V22.7739H117.06V22.7769C117.705 22.7783 118.35 22.7783 118.997 22.7739C121.112 22.7594 122.877 21.9896 124.289 20.4646C124.362 20.3859 124.429 20.3042 124.497 20.2211C124.562 20.1438 124.624 20.0651 124.707 19.9601C124.707 20.0185 124.707 20.0447 124.707 20.0709C124.705 21.2971 124.716 22.5232 124.702 23.7478Z" fill="#1472C2"/>
<path d="M114.206 4.82096C114.287 5.18981 114.33 5.57325 114.334 5.9494C114.349 7.40004 114.34 8.85215 114.34 10.3028C114.34 10.3378 114.336 10.3728 114.333 10.4238C114.208 10.3247 114.099 10.2314 113.984 10.1468C113.207 9.57382 112.325 9.29536 111.348 9.29536C110.478 9.29536 109.608 9.2939 108.74 9.2939V9.29536H100.308V9.29244C99.6625 9.29098 99.0174 9.29098 98.3707 9.29536C96.2558 9.30994 94.4906 10.0797 93.0781 11.6047C93.0058 11.6835 92.938 11.7651 92.8701 11.8482C92.8053 11.9255 92.7435 12.0042 92.6606 12.1092C92.6606 12.0509 92.6606 12.0246 92.6606 11.9984C92.6606 10.7737 92.65 9.54758 92.6651 8.32291C92.7088 4.55707 95.4795 1.35253 99.3038 0.65418C99.6444 0.591489 99.9912 0.550666 100.339 0.530255H108.516C111.181 0.43549 113.623 2.19813 114.206 4.82096Z" fill="#1472C2"/>
<path d="M101.771 13.3965C101.771 14.2392 101.77 15.0833 101.77 15.926H101.771V25.2568C101.771 25.4055 101.771 25.5557 101.771 25.7044C101.771 26.1097 101.773 26.5165 101.776 26.9218C101.777 27.0923 101.783 27.2585 101.796 27.4247V30.8246C101.805 31.055 101.797 31.2854 101.776 31.5113C101.759 31.6892 101.734 31.8656 101.699 32.0406C101.672 32.1761 101.639 32.3103 101.603 32.4415C101.067 34.3339 99.4832 35.8837 97.3502 36.3254C96.9688 36.4042 96.5708 36.445 96.1804 36.4494C96.0945 36.4508 96.0086 36.4508 95.9226 36.4508C94.8659 36.4596 93.8108 36.4566 92.7541 36.4552V28.715H92.7314V22.513H92.7254C92.7269 21.7038 92.7269 20.9107 92.7224 20.1176C92.7224 20.0447 92.7209 19.9514 92.7179 19.8566C92.7134 19.7079 92.7088 19.5606 92.7088 19.5606V16.1476C92.6561 14.7101 93.1942 13.3396 94.1499 12.3089C94.9127 11.4851 95.9422 10.8786 97.1467 10.6279C97.528 10.5477 97.9245 10.5083 98.3134 10.504C99.8133 10.4894 101.315 10.4981 102.815 10.4981C102.851 10.4981 102.887 10.5025 102.94 10.5054C102.837 10.6264 102.741 10.7314 102.653 10.8437C102.073 11.5828 101.785 12.4182 101.773 13.3411C101.771 13.3571 101.771 13.3761 101.771 13.3965Z" fill="#1472C2"/>
<path d="M109.235 22.7521V22.774H108.626V22.7755C107.75 22.7755 106.88 22.7755 106.01 22.774C105.863 22.774 105.716 22.7682 105.573 22.7521H109.235Z" fill="#1472C2"/>
</svg>
